<svg xmlns="http://www.w3.org/2000/svg" xmlns:xlink="http://www.w3.org/1999/xlink" id="Layer_1" x="0" y="0" version="1.1" viewBox="0 0 500 500" xml:space="preserve" style="enable-background:new 0 0 500 500"><style type="text/css">.st3{fill:#bce680}.st4{fill:#f0fdc5}.st8{display:none;fill:#d1a982}.st106{fill:#839958}</style><rect width="5227.9" height="4725.2" x="-4143" y="-3183.5" class="st8"/><g><path d="M371.1,365.7c0,66.9-54.2,121.1-121.1,121.1s-121.1-54.2-121.1-121.1c0-8.8,0.7-20.2,0.7-20.2 s1.9-70.4,47-145.6s51.7-162.5,51.7-162.5S228,13.2,250,13.2c21.1,0,21.8,24.3,21.8,24.3s6.6,87.3,51.7,162.5s47,145.6,47,145.6 L371.1,365.7z" class="st3"/><path d="M226.4,211.2l-5.6-5.9c1.6-1.5,39.1-36.2,88.5-30.6l-0.9,8.1C262.8,177.6,226.7,210.8,226.4,211.2z" class="st4"/><path d="M363.9,319.2c-36.5-38.6-88.2-37-88.7-37l-0.3-8.1c2.3-0.1,55.9-1.8,95,39.5L363.9,319.2z" class="st4"/><path d="M263.4,475.6l-8.1-0.4c2.1-41.7-13.7-77.2-27.3-99.6c-14.9-24.4-30.5-39.1-30.6-39.2l5.5-5.9 c0.7,0.6,16.4,15.4,31.9,40.7C249.1,394.6,265.7,431.7,263.4,475.6z" class="st4"/><path d="M308.3,349c-39.7-39.5-91.3-38.5-91.8-38.5l-0.4-8.1c2-0.1,49.1-1.7,92.7,36.5L308.3,349z" class="st4"/><path d="M132.7,367l-7.7-2.6c0.3-0.9,7.9-23,26-48.6c16.7-23.8,45.9-55.1,90.2-69.5l2.5,7.7 C163,280.2,133,366.1,132.7,367z" class="st4"/><g><path d="M337.4,234.2c-0.3,0-0.6,0-0.9-0.1l0,0c-0.2-0.1-22.5-6-49.8-0.6c-1.9,0.4-3.7-0.9-4.1-2.8 c-0.4-1.9,0.9-3.7,2.8-4.1c28.9-5.6,52,0.5,52.9,0.8c1.9,0.5,3,2.4,2.4,4.3C340.4,233.2,339,234.2,337.4,234.2z" class="st4"/></g><g><path d="M372.3,383.1c-7.6-6-20.3-14.5-37-20.5c-1.8-0.6-3.8,0.3-4.5,2.1c-0.6,1.8,0.3,3.8,2.1,4.5 c16.6,5.9,29.1,14.7,36.1,20.3C369.6,387.1,370.6,384.9,372.3,383.1z" class="st4"/></g><path d="M382.6,345.1c-0.1-3.9-2.8-74.9-48.7-151.4c-42.1-70.1-49.6-152.8-50-157c-0.1-1.9-0.7-9.1-4.1-16.5 C274.1,7.8,263.5,1,250,1c-9.3,0-17.4,3.2-23.4,9.2c-9.5,9.6-10.4,23.2-10.5,26.7c-0.5,6-8.3,87.3-49.9,156.8 c-45.3,75.5-48.5,145.8-48.7,151.2c-0.1,1.7-0.7,12.3-0.7,20.8c0,73.5,59.8,133.3,133.3,133.3s133.3-59.8,133.3-133.3L382.6,345.1z M240.3,38.4l0-0.5l0-0.5c0-1.1,0.6-7.1,3.5-10c0.9-0.9,2.4-2,6.1-2c3.8,0,5.9,1.3,7.6,4.7c1.5,3,2,6.6,2.1,7.8l0,0.1l0,0.4 c0.1,1.6,1.6,19.9,7.3,46.5c1.5,6.9-1.9,14-8.3,17c-9.5,4.5-18.1,9.6-25.5,14.6c-3.3,2.2-7.7-0.9-6.6-4.8 C237.7,71.3,240.2,40.6,240.3,38.4z M188.1,422.6c-2.8,7.7-3.5,14.6-2.7,21c0.5,4.1-4.3,6.6-7.4,3.9c-22.7-20-37-49.2-37-81.8 c0-8.3,0.7-19.3,0.7-19.4l0-0.4c0-0.7,2.5-68.4,45.2-139.6c2.3-3.8,4.4-7.6,6.5-11.4c3.5,1.9,5.8,3,6,3l0.2,0.1 c15.7,6.5,26.9,19.2,30.1,33.9c1.2,5.6,3.5,10.7,6.6,15.3c2.9,4.1,2.1,9.7-1.8,12.9c-5.5,4.6-10.1,10.1-13.5,16.2 c-3.6,6.6-5.7,13.6-6.1,20.8c-0.7,11.4-8,20.5-13.9,26c-15.2,14.2-21.1,32.4-15.9,48.6l1,3.2C192.6,394.9,195.3,403.2,188.1,422.6z M303.9,425.4c3.2,8.7,3.1,16.4,0.8,23.3c-3.4,10.1-11.7,17.7-21.8,20.9c-10.4,3.3-21.4,5.1-32.8,5.1c-11.6,0-22.9-1.8-33.4-5.2 c-11.6-3.7-20.6-13.2-22.8-25.1c-1.1-5.7-0.6-12,1.9-18.9c8.2-22.1,4.6-33.1-1.9-53.1l-1-3.1c-4.3-13.2,0.9-28.2,13.7-40.2 c10.1-9.4,15.8-20.3,16.5-31.4c0.4-6.1,2.3-11.8,5.2-17.4c3.4-6.8,9.1-11.8,13.8-15.1c4.7-3.3,11-3.2,15.6,0.1 c5.7,4.2,10.7,9.2,13.9,15c3,5.5,4.8,11.4,5.2,17.4c0.7,11.2,6.4,22,16.5,31.4c12.8,12,18,27,13.7,40.2l-1,3.1 C299.2,392.3,295.7,403.4,303.9,425.4z M321.5,447.9c-3.1,2.7-7.9,0.2-7.4-3.9c0.9-6.5,0.3-13.6-2.6-21.4 c-7.2-19.4-4.5-27.7,2-47.8l1-3.2c5.2-16.2-0.7-34.4-15.9-48.6c-5.9-5.6-13.2-14.6-13.9-26c-0.5-7.2-2.5-14.3-6.1-20.8 c-5.2-9.5-13.3-17.4-23.5-22.9c-9.1-5-15.3-13.2-17.5-23.2c-3.7-17.3-16.7-32.1-34.8-39.7c-0.4-0.2-2.4-1.2-5.5-2.8 c7.9-15.3,14.4-30.8,19.7-45.6c0.9-2.6,2.5-5,4.7-6.7c10.5-8.7,26.2-19.8,45.5-28.2c2.4-1.1,5.2,0.3,5.9,2.8 c8,29.2,20.5,63.7,40,96.3c42.7,71.2,45.2,139,45.2,139.6l0.7,20.1C358.9,398.6,344.4,428,321.5,447.9z" class="st106"/></g></svg>