<svg xmlns="http://www.w3.org/2000/svg" xmlns:xlink="http://www.w3.org/1999/xlink" id="Layer_1" x="0" y="0" version="1.1" viewBox="0 0 500 500" xml:space="preserve" style="enable-background:new 0 0 500 500"><style type="text/css">.st6{fill:#bce680}.st7{fill:#f0fdc5}.st12{display:none;fill:#d1a982}.st206{fill:#89a037}</style><rect width="5227.9" height="4725.2" x="-1357.3" y="-3183.5" class="st12"/><path d="M249.2,19.4c127,0,229.9,139.8,229.9,267.7S376.1,482.6,249.2,482.6S19.3,415,19.3,287.1	c0-46,13.3-93.5,36.2-135.5c0,0,42.6-77,106.4-76.1C161.9,75.5,165.7,19.4,249.2,19.4z" class="st6"/><path d="M40.1,189.5c54.9,0.8,91.3,21.1,112.3,37.9c22.7,18.3,32.6,36.7,32.7,36.9l0,0l7-3.7	c-0.4-0.8-10.5-19.8-34.4-39.1c-21.9-17.8-60.1-39.1-117.4-39.9L40.1,189.5z" class="st7"/><path d="M30.6,324.2c33.8-10.1,62-4.4,79.6,2.1c19.2,7.1,30.5,16.6,30.7,16.8l5.1-6c-0.5-0.4-12.3-10.5-32.8-18.1	c-18.8-7-48.9-13.1-84.9-2.4L30.6,324.2z" class="st7"/><path d="M381.9,79.1c-0.4-2.1-2.4-3.6-4.6-3.2c-1.1,0.2-26.2,4.9-56.2,19c-47.7,22.5-71.1,51.9-82.6,73.9	c2.4,1.5,4.4,3.6,5.7,6.1c18.5-37.5,53.6-60.3,80-72.7c29.1-13.8,54.1-18.4,54.4-18.5C380.9,83.2,382.3,81.2,381.9,79.1z" class="st7"/><path d="M459.5,200.7c-81.4-14.5-152.8,32.1-162.7,39c-0.7-2.6-2-5-3.8-6.9c5.8-3.9,23.2-15.2,48.5-25.3	c28.3-11.3,71.9-22.9,119.3-14.5L459.5,200.7z" class="st7"/><path d="M474.2,318.1c-54.3-23.2-116.5-10.7-129.7-7.7c-0.2-2.7-1.1-5.3-2.4-7.5c12.8-3.1,76.1-16.6,133.6,7.2	L474.2,318.1z" class="st7"/><path d="M448.6,392.1c-40.3-11.7-78.8,1.4-89,5.3c-0.1-2.7-0.9-5.3-2.2-7.6c12-4.7,51.2-17.5,93.3-5.3L448.6,392.1z" class="st7"/><path d="M170,307.2c14.5-7.9,75.6-37.1,164.6-25.1c0.1,0,0.2,0,0.3,0c-1.3-2.3-2-4.9-2.2-7.7c0-0.1,0-0.3,0-0.4	c-53.3-6.7-96.4,1.2-123.2,9c-17.4,5.1-30.3,10.8-38.2,14.7L170,307.2z" class="st7"/><path d="M145.6,428.3c43-46.6,99.9-65.1,140.5-72.4c44.9-8.1,80.1-4.6,80.4-4.6c2.2,0.2,4.1-1.3,4.3-3.5	c0.2-2.2-1.3-4.1-3.5-4.3c-1.5-0.2-36.4-3.7-82.4,4.6c-40.3,7.2-96.2,25.2-140.1,69.6L145.6,428.3z" class="st7"/><path d="M472,187.2c-12.1-32.2-29.8-63.1-51.2-89.3c-22.5-27.5-48.2-49.4-76.5-64.9c-30.5-16.7-62.4-25.3-94.9-25.3	c-4.7-0.2-54.2-1.4-81.4,24.6c-5.7,5.4-10,11.6-13,18.4c-3.4,7.9-10.2,14-18.5,16.1c-57.7,14.4-88.8,74.2-91.4,79.3	C20.8,190.6,7.5,240.7,7.5,287.1c0,64.2,24.8,117.8,71.8,155c21.7,17.1,47.6,30.4,77,39.3c28.6,8.7,59.9,13.1,92.9,13.1	s64.3-4.4,92.9-13.1c29.4-8.9,55.3-22.1,77-39.3c47-37.1,71.8-90.7,71.8-155C490.9,254.6,484.3,220.1,472,187.2z M215.4,227.9	c-2.1,9.7-8.1,17.6-16.9,22.4c-9.8,5.4-17.7,13-22.7,22.2c-3.5,6.4-5.5,13.2-5.9,20.2c-0.7,11.1-7.7,19.8-13.5,25.2	c-14.7,13.8-20.5,31.4-15.4,47.1l1,3.1c6.3,19.4,8.9,27.5,1.9,46.3c-2.7,7.2-3.3,13.8-2.7,19.8c0.9,7.8-7.3,13.5-14.3,10	c-11.9-6-22.9-12.9-32.9-20.7c-41.1-32.5-62.9-79.7-62.9-136.5c0-42.6,12.4-88.7,34.8-129.8l0.2-0.4c0.3-0.7,35.3-69.6,95.8-69.6	l0,0c5,0,9.7,2.5,12.6,6.7c22.2,32.4,56.3,71,72.9,89.2c2.1,2.3,1.3,5.9-1.5,7.1C222,200.6,215.4,227.9,215.4,227.9z M287.6,227.5	c2.8,11.9,10,21.8,20.9,27.7c8.5,4.6,15.3,11.2,19.6,19.1c2.9,5.4,4.6,11,5,16.9c0.7,10.8,6.2,21.3,16,30.5	c12.5,11.6,17.4,26.2,13.3,39l-1,3c-6.3,19.4-9.8,30.1-1.8,51.5c0.2,0.5,0.4,1,0.5,1.5c5.7,17.2-4.3,35.6-21.6,41.1	c-27.1,8.6-57.3,13.1-89.3,13.1c-26.8,0-52.4-3.2-75.9-9.3c-8.6-2.2-16-7.8-20.3-15.6c-4.4-8.2-6-17.6-1.9-28.7	c7.9-21.4,4.5-32.1-1.8-51.5l-1-3c-4.1-12.8,0.9-27.3,13.3-39c9.8-9.1,15.3-19.7,16-30.5c0.4-5.9,2.1-11.6,5-16.9	c4.3-7.9,11.1-14.5,19.6-19.1c10.9-5.9,18.3-15.8,20.9-27.7c3.1-14.3,14-26.6,29.2-32.9l0,0c3.7-1.7,8.1-1.5,11.6,0.7	C271.4,201.9,283.8,211.6,287.6,227.5z M184.2,49.4c20.6-20,64-18.2,64.4-18.2l0.5,0c28.6,0,56.8,7.5,83.8,22.4	c25.6,14.1,49,34,69.6,59.2c40.5,49.6,64.7,114.8,64.7,174.4c0,56.8-21.7,104-62.9,136.5c-6.1,4.9-12.7,9.4-19.7,13.5	c-6.6,3.9-15.1-0.9-15-8.6c0.1-5-0.8-10.4-2.9-16.1c-7-18.8-4.4-26.9,1.9-46.3l1-3.1c5.1-15.7-0.7-33.3-15.4-47.1	c-5.8-5.4-12.8-14.1-13.5-25.2c-0.4-7-2.4-13.8-5.9-20.2c-5-9.2-12.9-16.9-22.7-22.2c-8.8-4.8-14.9-12.8-16.9-22.4	c-3.3-15.4-14.3-28.8-29.7-36.6c-2.3-1.2-4.4-2.7-6.1-4.6c-12.1-13.1-54-59.2-79-96c-8.1-11.8-7.1-27.8,2.7-38.2	C183.5,50.1,183.8,49.8,184.2,49.4z" class="st206"/></svg>