<svg xmlns="http://www.w3.org/2000/svg" xmlns:xlink="http://www.w3.org/1999/xlink" id="Layer_1" x="0" y="0" version="1.1" viewBox="0 0 64 64" xml:space="preserve" style="enable-background:new 0 0 64 64"><style type="text/css">.st1{display:none}.st2{fill:#d1a982}.st2,.st3{display:inline}.st14{fill:#68664c}.st21{fill:#fff}.st41{fill:#b63e34}.st42{fill:#522b25}</style><g class="st1"><rect width="919.6" height="2155.1" x="-353.4" y="-282.8" class="st2"/><path d="M565.7-282.3v2154.1h-918.6V-282.3H565.7 M566.7-283.3h-920.6v2156.1h920.6V-283.3L566.7-283.3z" class="st3"/></g><g><path d="M32,17.7C10.9,15.1,2.1,23.5,2.1,36.9C2.1,53,13.8,57.1,32,56.1c1.5-0.1,2.9-0.2,4.3-0.3 c4.9,1,8.7,0.3,11.5-1.7c8.5-2.2,14.2-6.7,14.2-17.2c0-6.8-3.3-11.6-11.5-15L43,18.4L32,17.7z" class="st41"/><path d="M47,20.3c2.1-1.8,3.8-4.1,5-6.7c0,0-6.1,2.3-13.9,2.7l-3.1-8.5l-4.3,8.1c-8-1.4-13.4-4.6-13.4-4.6 c0.5,2.3,1.6,4.5,3.3,6.5c-3.3,0.7-6.4,1.8-9.4,3.5c-2.1,1.2-0.6,4.3,1.6,3.8c1-0.2,2-0.4,3.1-0.5c0.1,0.8,0.7,1.5,1.5,1.8 c0.1,2.8,0.1,5.6,0.2,8.4c0,1.9,3,3,3.9,1c1.5-3.4,3.6-5.9,6.4-7.4c0.6,0.3,1.2,0.3,1.8-0.1c1.2-0.7,2.5-1.3,3.7-1.7 c0.1,1,0.8,1.9,2,1.8c1.4-0.1,2.8-0.3,4.2-0.7c1.5-0.1,2.9-0.2,4.4-0.1c3.2,1.2,5.5,3.6,6.5,8.2c0.4,1.9,3.6,2,4,0 c0.3-1.8,0.2-3.6,0.4-5.4c0.7-0.2,1.3-0.5,2-0.7c0.4,0.2,0.7,0.4,1.1,0.6l2.5,0.3l-6-7.2L47,20.3z" class="st14"/><circle cx="19.2" cy="22.9" r=".5" class="st21"/><path d="M31.9,23.1c-0.1-0.3-0.4-0.4-0.7-0.3c-3,1-5,2.4-6.4,4.7c0,0,0,0,0,0c0,0,0,0,0,0c0,0,0,0,0,0 c0,0.1-0.1,0.2-0.1,0.3c0,0.3,0.2,0.5,0.5,0.5c0.2,0,0.3-0.1,0.4-0.2c0,0,0,0,0,0c1.4-2.4,3.4-3.5,5.8-4.3 C31.8,23.7,31.9,23.4,31.9,23.1z" class="st21"/><path d="M7.6,33.2c0,0-0.1,0-0.1,0c-0.3-0.1-0.5-0.3-0.4-0.6c1-4.8,3.8-7.8,8.6-9.4c0.3-0.1,0.6,0.1,0.7,0.3 c0.1,0.3-0.1,0.6-0.3,0.7c-4.5,1.5-7,4.2-7.9,8.6C8.1,33,7.9,33.2,7.6,33.2z" class="st21"/><path d="M30.5,29.9c-1,0-1,2.1,0,2.1C34.5,32,34.5,29.9,30.5,29.9z" class="st14"/><path d="M45.5,34.7c-2,0-2,2.1,0,2.1C46.5,36.8,46.5,34.7,45.5,34.7z" class="st14"/><path d="M53.5,42c-1,0-1,2.1,0,2.1S54.5,42,53.5,42z" class="st14"/><path d="M12.5,29.7c-2,0-2,2.1,0,2.1C13.5,31.8,13.5,29.7,12.5,29.7z" class="st14"/><path d="M17.5,41.8c-1,0-1,2.1,0,2.1S18.5,41.8,17.5,41.8z" class="st14"/><path d="M51.3,20.5c-0.2-0.2-0.3-0.4-0.5-0.6c-0.3-0.3-0.3-0.9,0-1.3c1-1.3,1.9-2.7,2.6-4.3c0.3-0.6,0.1-1.2-0.3-1.7 c-0.4-0.5-1.1-0.6-1.7-0.4c-0.1,0-4.6,1.7-10.7,2.4c-0.9,0.1-1.8-0.4-2.2-1.3l-2.2-5.9c-0.2-0.6-0.7-1-1.4-1 c-0.6,0-1.2,0.3-1.5,0.8l-3,5.7c-0.4,0.8-1.4,1.3-2.3,1C22.1,12.3,18.1,10,18,10c-0.5-0.3-1.2-0.3-1.7,0.1c-0.5,0.4-0.7,1-0.6,1.6 c0.2,1.1,0.6,2.2,1.1,3.3c0.3,0.7,0,1.5-0.8,1.7c-3.7,0.9-6.9,2.4-9.3,4.6c-4.1,3.7-6.2,8.9-6.2,15.6c0,6.4,1.8,11.4,5.5,14.8 c4.3,4.1,11.1,6,21,6c1.6,0,3.3-0.1,5.1-0.2c0.8,0,1.5-0.1,2.3-0.1c1-0.1,2.1-0.1,3.1,0.1c4,0.6,7.4,0.1,10.1-1.5 c0.7-0.4,1.4-0.7,2.1-0.9c9.4-2.9,13.8-8.7,13.8-18.3c0-7.6-3.8-12.7-11.9-16.2C51.5,20.7,51.4,20.6,51.3,20.5z M47.1,51.9 c-2.6,2.2-6.3,2.8-10.8,1.8c-11.5-2.3-16.1-7.3-16.1-17.1c0-14.4,7-16.3,16.1-17.1c0.9-0.1,1.8-0.1,2.7-0.1c3.9,0,6.8,0.9,8.9,2.8 c3,2.7,4.4,7.4,4.4,14.4C52.2,43.8,50.4,49.1,47.1,51.9z M47.3,17.4c-0.3-0.1-0.6-0.3-0.9-0.4c-0.1,0-0.1-0.2,0-0.3 c0.7-0.1,1.3-0.3,1.9-0.4c0.1,0,0.2,0.1,0.1,0.2c-0.2,0.3-0.4,0.5-0.6,0.8C47.7,17.4,47.5,17.5,47.3,17.4z M32.6,15.4l1.5-2.9 c0.2-0.3,0.7-0.3,0.8,0.1l1,2.7c0.1,0.3-0.1,0.6-0.4,0.6l-2.5,0.2C32.7,16.1,32.5,15.8,32.6,15.4z M20.6,14.6l2.1,0.8 c0.2,0.1,0.2,0.4-0.1,0.4l-1.4,0.1c-0.2,0-0.3-0.1-0.4-0.2l-0.5-0.7C20.2,14.7,20.4,14.5,20.6,14.6z M8.1,49.5 c-3-2.9-4.5-7-4.5-12.6c0-5.8,1.7-10.3,5.2-13.3c3.6-3.2,9-4.8,16-4.8c0.8,0,1.7,0,2.6,0.1c0.7,0,0.9,1,0.2,1.3 c-5.1,2-8.5,6.2-8.5,16.5c0,8.4,3.4,13.5,11.1,16.5c0.8,0.3,0.6,1.6-0.3,1.6C14.9,55.1,8.1,49.5,8.1,49.5z M51.1,51.4 c-0.8,0.3-1.5-0.6-1.1-1.3c2.1-3.1,3.2-7.7,3.2-13.5c0-4.5-0.6-8-1.8-10.8c-0.3-0.8,0.5-1.5,1.2-1.1c5.3,2.9,7.7,6.7,7.7,12.2 C60.4,44.3,57.6,48.8,51.1,51.4z" class="st42"/></g></svg>