<svg xmlns="http://www.w3.org/2000/svg" xmlns:xlink="http://www.w3.org/1999/xlink" id="Layer_1" x="0" y="0" version="1.1" viewBox="0 0 64 64" xml:space="preserve" style="enable-background:new 0 0 64 64"><style type="text/css">.st1{display:none}.st2{fill:#d1a982}.st2,.st3{display:inline}.st14{fill:#68664c}.st21{fill:#fff}.st41{fill:#b63e34}.st42{fill:#522b25}.st96{fill:#775e49}</style><g class="st1"><rect width="919.6" height="2155.1" x="-827.5" y="-282.8" class="st2"/><path d="M91.7-282.3v2154.1H-827V-282.3H91.7 M92.7-283.3H-828v2156.1H92.7V-283.3L92.7-283.3z" class="st3"/></g><g><path d="M36.2,13.1L32.8,2l-3.5,11.1C18.7,12,13.8,6.8,13.8,6.8c2.3,8.4,8.4,16.3,19,16.3s15.5-6.8,19-16.3 C51.7,6.8,46.4,11.8,36.2,13.1z" class="st14"/><path d="M54.9,34.1C54.9,51.1,44.6,62,32,62S9.1,52.4,9.1,34.1c0-15.7,11.6-23,22.9-23C43.5,11.1,54.9,17.1,54.9,34.1 z" class="st41"/><path d="M29.9,55.3c-0.4-0.2-0.8-0.3-1.2-0.5c-0.4-0.4-0.9-0.7-1.5-0.9c-0.7-0.2-1.4-0.6-2.1-0.9 c-1.3-0.8-2.6-1.6-3.8-2.5c-2.7-2-6,0.8-6.2,3.5c4.1,5.2,10,7.8,16.6,7.9c0.5-0.5,0.8-1.1,1-1.7C33.4,58,32,56,29.9,55.3z" class="st96"/><path d="M43.7,13.6c-0.3,0.2-0.6,0.3-0.9,0.6c-0.5,0.4-1.2,0.5-1.8,0.3c-2.7-1.2-6.6,0.2-6.2,3.7 c0.1,0.5,0.1,1.1,0.2,1.6c-1.4-0.4-2.9-0.2-4,0.7c-1.2-0.3-1.7-0.4-2.9-0.7l0-0.1c-1.4-2.9-6.2-2.6-7.5,0.1c-0.3,0-0.6,0.1-0.9,0.1 c-0.5-0.3-1-0.5-1.6-0.6c-0.9-0.7-2.2-1.1-3.4-1c-3.4,3.7-5.5,8.9-5.5,15.7c0,6.2,1.2,11.4,3.2,15.5c1.8,0.1,3.6-0.6,4.2-2.2 c0.2-0.5,0.7-0.9,1.2-1c0,0,1.5-0.4,2.5-2.1c0.5-0.7,1.4-0.9,2.1-0.3c1.1,1,2.9,1.5,4.3,1.2c0.3,0,0.6,0,1,0c1,0,1.8-0.3,2.5-0.8 c2,1,4.9,0.6,5.9-1.5c0.2-0.3,0.3-0.7,0.5-1.1c2.3,1,5.5,0.2,6-2.7c0.1-0.4,0.2-0.8,0.2-1.3c0.1-0.8,0.8-1.4,1.6-1.5 c0.2,0,0.5-0.1,0.7-0.2c1.2-0.4,2.5,0.4,2.5,1.7c0,1.7-0.1,3.5-0.3,5.2c-0.1,0.9-0.3,1.7-0.4,2.6c-0.5,2.9,1.5,4.8,3.7,5.3 c2.7-4.5,4.3-10.2,4.3-16.9C54.9,23.1,50.1,16.8,43.7,13.6z" class="st96"/><path d="M7.6,34.1C7.6,52,17.2,63.5,32,63.5c14.1,0,24.4-12.4,24.4-29.4c0-7.1-1.9-12.9-5.7-17.1 c-0.8-0.9-1-2.2-0.4-3.3c1.1-2,2.1-4.2,2.9-6.4c0.2-0.7,0-1.4-0.6-1.8c-0.6-0.4-1.4-0.3-1.9,0.2c0,0-3.3,3-9.5,4.8 c-0.5,0.1-1,0.1-1.5,0l-1.8-0.4c-0.6-0.2-1.1-0.6-1.3-1.2l-2.3-7.3c-0.2-0.6-0.8-1.1-1.5-1.1h0c-0.7,0-1.3,0.4-1.5,1.1l-2.2,7.1 c-0.2,0.7-0.8,1.2-1.5,1.3c-0.9,0.1-1.7,0.3-2.5,0.5c-0.5,0.1-1,0.1-1.4,0c-5.9-1.8-8.8-4.7-8.8-4.7c-0.5-0.5-1.2-0.6-1.9-0.3 c-0.6,0.3-0.9,1.1-0.7,1.7c0.6,2.2,1.4,4.2,2.3,6c0.6,1.1,0.4,2.5-0.5,3.4C11.8,18.9,7.6,24.4,7.6,34.1z M47.9,11.8 c-0.3,0.6-0.6,1.1-0.9,1.6c-0.1,0.1-0.3,0.2-0.4,0.1c-0.4-0.2-0.7-0.5-1.1-0.7c-0.2-0.1-0.2-0.5,0-0.6c0.7-0.3,1.4-0.6,2-0.9 C47.8,11.2,48,11.5,47.9,11.8z M32.1,9.2L32.5,8c0.1-0.3,0.4-0.3,0.5,0l0.4,1.3c0.1,0.2-0.1,0.4-0.3,0.4l-0.8,0 C32.2,9.6,32,9.4,32.1,9.2z M17.7,11.4c0.5,0.3,1.1,0.5,1.7,0.8c0.2,0.1,0.2,0.4,0,0.5c-0.3,0.2-0.6,0.4-1,0.5 c-0.1,0.1-0.3,0-0.4-0.1c-0.3-0.5-0.6-0.9-0.8-1.4C17.3,11.5,17.5,11.3,17.7,11.4z M32,60.5c-13,0-21.4-10.4-21.4-26.4 c0-14.8,10.7-21.4,21.4-21.4c19.8,0,21.4,16.4,21.4,21.4C53.4,49.4,44.4,60.5,32,60.5z" class="st42"/><path d="M17,24.2c-0.1,0-0.2,0-0.3-0.1c-0.2-0.2-0.3-0.5-0.1-0.7c2.4-3.5,6-5.9,10.5-7c0.3-0.1,0.5,0.1,0.6,0.4 c0.1,0.3-0.1,0.5-0.4,0.6c-4.2,1-7.6,3.3-9.9,6.6C17.3,24.2,17.1,24.2,17,24.2z" class="st21"/><circle cx="15.4" cy="26.8" r=".5" class="st21"/><path d="M43.9,39.3v0.4c0,1.3,2,1.3,2,0v-0.4C45.9,38,43.9,38,43.9,39.3z" class="st96"/><path d="M20.9,46.3v1c0,1.3,2,1.3,2,0v-1C22.9,45,20.9,45,20.9,46.3z" class="st96"/><path d="M31.2,17.2v0.7c0,1.3,2,1.3,2,0v-0.7C33.3,15.9,31.2,15.9,31.2,17.2z" class="st96"/></g></svg>