<svg xmlns="http://www.w3.org/2000/svg" xmlns:xlink="http://www.w3.org/1999/xlink" id="Layer_1" x="0" y="0" version="1.1" viewBox="0 0 500 500" xml:space="preserve" style="enable-background:new 0 0 500 500"><style type="text/css">.st0{fill:#7c9800}.st1{fill:#164e16}.st12{fill:#f22f2e}.st16{fill:#fff}.st19{fill:#7b000e}</style><g><path d="M250,281.9c-15.8,0-30.5-1.8-39.4-4.8c-3.3-1.1-6-3.6-7.3-6.8c-1.3-3.2-1.1-6.9,0.4-10l0.7-1.3 c14.5-28.1,29.6-57.3,29.6-89.1v-40.8c0-46.6,24.9-90.2,64.9-114c2.5-1.5,5.3-2.2,8.1-2.2c6.7,0,12.5,4,14.9,10.3 c2.7,7.1-0.4,15.4-7.5,19.7c-30,18.1-48.6,51.2-48.6,86.2V170c0,31.9,15,61,29.6,89.1l0.7,1.3c1.6,3.1,1.8,6.7,0.5,10 c-1.3,3.2-4,5.7-7.3,6.8C280.5,280.1,265.8,281.9,250,281.9z" class="st0"/><path d="M382.8,350.3c0-73-36-91.7-80.3-91.7h-44.7c-2.6-0.2-5.2-0.3-7.8-0.3c-2.7,0-5.3,0.1-7.8,0.3h-44.7 c-44.3,0-80.3,18.7-80.3,91.7c0,82.5,43.7,125.4,97.8,128.1c10.2,6.6,22.2,8.6,35,8.6c12.8,0,24.8-2,35-8.6 C339.1,475.7,382.8,432.8,382.8,350.3z" class="st12"/><g><path d="M197.5,248.7h25.8c12.2-24.5,22.8-50.1,22.8-78.7v-40.8c0-42.4,22.6-82.1,59.1-103.7c0.6-0.4,1.3-0.6,2-0.6 c1.3,0,3,0.7,3.8,2.6c0.7,1.9-0.7,4.2-2.6,5.3C274.8,53.1,254,90,254,129.2V170c0,28.5,10.6,54.2,22.8,78.7h25.8c0.3,0,0.7,0,1,0 c-13.5-26.3-25.7-51.4-25.7-78.7v-40.8c0-30.9,16.4-60,42.8-76c12-7.3,17.3-21.7,12.5-34.2c-4.2-10.9-14.4-18-26-18 c-5,0-9.9,1.3-14.2,3.9c-43.7,25.9-70.8,73.5-70.8,124.3V170c0,27.3-12.2,52.4-25.7,78.7C196.8,248.7,197.1,248.7,197.5,248.7z" class="st1"/></g><path d="M156.8,354.3C156.8,354.3,156.7,354.3,156.8,354.3c-2.3-0.1-4-1.9-4-4.1c0.4-18,2.4-33.6,5.7-46.3 c0.6-2.1,2.8-3.4,4.9-2.8c2.1,0.6,3.4,2.7,2.8,4.9c-3.2,12.1-5.1,27-5.5,44.5C160.7,352.6,159,354.3,156.8,354.3z" class="st16"/><path d="M309.7,333.5c1.2,10.6,1.9,22.8,1.9,36.7" class="st12"/><path d="M311.6,374.2c-2.2,0-4-1.8-4-4c0-13.4-0.6-25.6-1.9-36.3c-0.3-2.2,1.3-4.2,3.5-4.4c2.2-0.3,4.2,1.3,4.4,3.5 c1.3,10.9,1.9,23.4,1.9,37.2C315.6,372.4,313.8,374.2,311.6,374.2z" class="st19"/><path d="M219.1,342.3c-0.1,0-0.2,0-0.3,0c-2.2-0.2-3.8-2.1-3.6-4.3c1-11.5,2.1-21.7,3.5-30.4c0.3-2.2,2.4-3.7,4.5-3.3 c2.2,0.3,3.7,2.4,3.3,4.5c-1.3,8.5-2.5,18.5-3.4,29.8C222.8,340.8,221.1,342.3,219.1,342.3z" class="st16"/><ellipse cx="157.2" cy="370.2" class="st16" rx="4.8" ry="4.8" transform="matrix(2.365631e-02 -0.9997 0.9997 2.365631e-02 -216.6015 518.6544)"/><circle cx="305.9" cy="312.9" r="4.8" class="st19"/><path d="M302.5,246.6h-42.4c-1.2,0-2.4,0-3.6-0.1c-4.3-0.2-8.7-0.2-12.9,0c-1.2,0.1-2.4,0.1-3.6,0.1h-42.4 c-61.2,0-92.2,34.9-92.2,103.7c0,41.7,10.8,76.8,31.3,101.6c16.3,19.7,38.5,32.5,63.7,36.9c6.3,1.1,12.6,2.6,18.5,5 c8.9,3.5,19,5.2,31.1,5.2c12.1,0,22.3-1.7,31.1-5.2c6-2.4,12.2-3.9,18.5-5c25.2-4.4,47.5-17.2,63.7-36.9 c20.5-24.8,31.3-59.9,31.3-101.6C394.8,281.5,363.7,246.6,302.5,246.6z M306.9,445.7c3.4-10,5.8-21.9,7.2-35.9 c0.2-2.1-1.2-4.2-3.4-4.6c-2.3-0.3-4.3,1.3-4.5,3.5c-6.1,61.8-30.6,70.3-56.2,70.3c-19,0-39.7-4.6-50.3-38.6 c-0.6-2-2.6-3.3-4.6-2.9c-2.3,0.5-3.7,2.8-3,5.1c0.3,1,0.7,2.1,1,3.1c2.7,8-5.7,15.3-13.1,11.4c-32-16.8-50.8-54.9-50.8-106.8 c0-30.4,6.7-52.1,19.8-64.6c10.8-10.2,26.7-15.2,48.6-15.2h0.8c5.3,0,8.3,6,5.1,10.3c-5,6.9-9.4,15.9-12.6,27.9 c-0.5,2,0.4,4.2,2.3,4.9c0.5,0.2,1,0.3,1.5,0.3c1.8,0,3.4-1.2,3.8-3c4.4-16.7,11.2-28.1,20.8-34.9c7.8-5.5,17.6-8.1,30.8-8.1 c18.9,0,31.3,5.4,40.2,17.5c1.3,1.7,3.7,2.3,5.5,1.1c1.9-1.2,2.4-3.9,1.1-5.7l-0.1-0.1c-3.1-4.3-0.1-10.3,5.2-10.3h0.6 c21.9,0,37.8,5,48.6,15.2c13.1,12.5,19.8,34.2,19.8,64.6c0,52-18.8,90.1-50.9,106.9C312.5,461.1,304.2,453.7,306.9,445.7z" class="st19"/></g></svg>