<?xml version="1.0" encoding="UTF-8" standalone="no"?>
<svg width="45px" height="64px" viewBox="0 0 45 64" version="1.1" xmlns="http://www.w3.org/2000/svg" xmlns:xlink="http://www.w3.org/1999/xlink" xmlns:sketch="http://www.bohemiancoding.com/sketch/ns">
    <!-- Generator: Sketch 3.4.4 (17249) - http://www.bohemiancoding.com/sketch -->
    <title>Corn</title>
    <desc>Created with Sketch.</desc>
    <defs></defs>
    <g id="Page-1" stroke="none" stroke-width="1" fill="none" fill-rule="evenodd" sketch:type="MSPage">
        <g id="Corn-64x64" sketch:type="MSArtboardGroup">
            <g id="Corn" sketch:type="MSLayerGroup">
                <ellipse fill="#E4D626" sketch:type="MSShapeGroup" cx="22.7142857" cy="27.4285714" rx="12" ry="27.4285714"></ellipse>
                <rect id="Corn-Piece" fill="#F3EDA3" sketch:type="MSShapeGroup" x="18.344494" y="11.3396777" width="6.30245536" height="7.42131034" rx="6"></rect>
                <rect id="Corn-Piece" fill="#F3EDA3" sketch:type="MSShapeGroup" x="22.546131" y="3.91836735" width="6.30245536" height="7.42131034" rx="6"></rect>
                <rect id="Corn-Piece" fill="#F3EDA3" sketch:type="MSShapeGroup" x="26.7477679" y="11.3396777" width="6.30245536" height="7.42131034" rx="6"></rect>
                <rect id="Corn-Piece" fill="#F3EDA3" sketch:type="MSShapeGroup" x="18.344494" y="18.760988" width="6.30245536" height="7.42131034" rx="6"></rect>
                <rect id="Corn-Piece" fill="#F3EDA3" sketch:type="MSShapeGroup" x="26.7477679" y="18.760988" width="6.30245536" height="7.42131034" rx="6"></rect>
                <rect id="Corn-Piece" fill="#F3EDA3" sketch:type="MSShapeGroup" x="18.344494" y="26.1822984" width="6.30245536" height="7.42131034" rx="6"></rect>
                <rect id="Corn-Piece" fill="#F3EDA3" sketch:type="MSShapeGroup" x="26.7477679" y="26.1822984" width="6.30245536" height="7.42131034" rx="6"></rect>
                <rect id="Corn-Piece" fill="#F3EDA3" sketch:type="MSShapeGroup" x="18.344494" y="33.6036087" width="6.30245536" height="7.42131034" rx="6"></rect>
                <path d="M45,21.3816859 L41.6883294,34.2542395 C41.6883294,34.2542395 42.5924372,47.5849951 40.2421875,52.815102 C37.8919378,58.045209 35.4124421,67.6886796 21.9890713,62.5247649 C21.9890713,62.5247649 11.0215684,53.7331472 23.6483614,36.698756 C36.2751545,19.6643648 45,21.3816859 45,21.3816859 Z" id="husk" fill="#779457" sketch:type="MSShapeGroup"></path>
                <path d="M0.428571429,21.3816859 L3.74024206,34.2542395 C3.74024206,34.2542395 2.83613422,47.5849951 5.18638393,52.815102 C7.53663364,58.045209 10.0161294,67.6886796 23.4395001,62.5247649 C23.4395001,62.5247649 34.4070031,53.7331472 21.78021,36.698756 C9.15341694,19.6643648 0.428571429,21.3816859 0.428571429,21.3816859 Z" id="husk" fill="#A1C878" sketch:type="MSShapeGroup"></path>
            </g>
        </g>
    </g>
</svg>