<svg xmlns="http://www.w3.org/2000/svg" xmlns:xlink="http://www.w3.org/1999/xlink" id="Layer_1" x="0" y="0" version="1.1" viewBox="0 0 64 64" xml:space="preserve" style="enable-background:new 0 0 64 64"><style type="text/css">.st0{fill:#7db34c}.st4{fill:#2a481d}.st25{fill:#fff}.st111{fill:#f22f2e}.st112{fill:#7b000e}</style><g><path d="M38.9,27.5C31.6,43.7,22.1,51.2,7.8,61.6l-0.1,0c-3.2,1.5-6.6-1.5-5.5-4.8l0,0C9.2,41.1,17,30.2,31.3,20.9 L38.9,27.5z" class="st111"/><path d="M6,63.5c-1.3,0-2.6-0.5-3.6-1.4c-1.7-1.5-2.3-3.7-1.6-5.8l0.1-0.1c7.7-17.5,16-27.7,29.6-36.5l1.6,2.5 c-13,8.4-21,18.3-28.5,35.1c-0.3,0.9,0,1.9,0.7,2.6c0.8,0.7,1.7,0.8,2.6,0.4c14.2-10.3,23.3-17.5,30.5-33.4l2.8,1.3 c-7.4,16.3-16.9,24-31.6,34.7l-0.2,0.1C7.7,63.3,6.8,63.5,6,63.5z" class="st112"/><path d="M11.6,49c-0.1,0-0.2,0-0.2-0.1c-0.2-0.1-0.3-0.4-0.2-0.7c1.1-2.1,2.3-4.1,3.6-5.9c0.2-0.2,0.5-0.3,0.7-0.1 c0.2,0.2,0.3,0.5,0.1,0.7c-1.3,1.8-2.4,3.7-3.5,5.8C11.9,48.9,11.8,49,11.6,49z" class="st25"/><path d="M18.6,38.6c-0.1,0-0.2,0-0.3-0.1c-0.2-0.2-0.2-0.5-0.1-0.7c2.3-2.7,4.9-5.3,7.9-7.7c0.3-0.3,0.8-0.7,1.5-1.4 c0.2-0.2,0.5-0.2,0.7,0c0.2,0.2,0.2,0.5,0,0.7c-0.7,0.6-1.2,1.1-1.5,1.4c-2.9,2.4-5.5,4.9-7.7,7.6C18.9,38.5,18.7,38.6,18.6,38.6z" class="st25"/><path d="M59.7,2.4c-5.1-1.2-10.3,0.5-13.7,4.4l-7.3,8.5c-1,1.1-2.1,2.1-3.4,2.8c-1.1,0.6-2.5,1.6-4.2,2.8 c0.3,0.5,0.4,1.2,0.2,1.8l5.8,4.6c0.3-0.2,0.6-0.3,1.1-0.3c0.3,0,0.6,0.1,0.9,0.2c0.5-1.3,1.1-2.8,1.5-4.1c0.5-1.7,1.4-3.2,2.6-4.6 l6.9-8c2.1-2.4,5.4-3.8,8.5-2.9c1.6,0.5,3.3-0.6,3.5-2.3C62.1,4,61.1,2.7,59.7,2.4z" class="st0"/><path d="M31.2,22.7c0.7,1,1.5,2,2.5,2.8c1.1,0.9,2.3,1.6,3.5,2.2l1.8,0.8c0.6,0.3,1.2,0,1.5-0.6c0.5-1.1,1-2.6,1.6-4.3 c0.5-1.5,1.2-2.8,2.3-4l6.9-8c1.9-2.2,4.6-3.1,6.9-2.4c1.2,0.3,2.5,0.2,3.5-0.5c1-0.7,1.7-1.8,1.9-3c0.2-2.1-1.2-4.1-3.4-4.6 c-5.6-1.3-11.4,0.6-15.2,4.9l-7.3,8.5c-0.8,1-1.8,1.8-3,2.5c-1,0.6-2.5,1.5-4.2,2.7c-0.5,0.4-0.6,1-0.3,1.6L31.2,22.7z M59.9,6.1 c-0.3,0.2-0.7,0.2-1,0.2c-3.5-1-7.5,0.3-10.1,3.4l-6.9,8c-1.3,1.5-2.3,3.2-2.9,5.1c-0.4,1.3-0.8,2.4-1.2,3.3 c-0.2,0.5-0.7,0.6-1.2,0.4c-0.8-0.5-1.7-1-2.4-1.6c-0.7-0.6-1.3-1.3-1.8-2c-0.3-0.4-0.2-0.9,0.2-1.2c1.4-1,2.6-1.7,3.4-2.2 c1.4-0.8,2.7-1.9,3.7-3.1l7.3-8.5c3-3.5,7.7-5,12.2-4C60,4,60.5,4.6,60.4,5.2C60.4,5.7,60.1,6,59.9,6.1z" class="st4"/></g></svg>