<svg xmlns="http://www.w3.org/2000/svg" xmlns:xlink="http://www.w3.org/1999/xlink" id="Layer_1" x="0" y="0" version="1.1" viewBox="0 0 64 64" xml:space="preserve" style="enable-background:new 0 0 64 64"><style type="text/css">.st3{fill:#82af1d}.st4{fill:#2f3f1a}.st315{fill:#c0d57c}</style><g><path d="M40,60.9l-0.5-28.6l-0.3-13.9c0-2,0.2-4.4,0.6-7.3c0.8-0.5,1.4-1.5,1.8-2.7c0.3-1.2,0.6-3.9-0.2-5.2 c-0.3-0.5-0.7-0.7-0.9-0.7c-0.1,0-0.2,0-0.3,0c-0.9,0-1.7,0.9-2.3,2c-0.1-0.2-0.1-0.3-0.2-0.5c-0.3-0.5-0.7-0.7-0.9-0.7 c-0.1,0-0.2,0-0.3,0c-1,0-1.8,1.1-2.4,2.2c-0.1-0.3-0.1-0.6-0.2-0.9c-0.2-0.6-0.7-2.4-2-2.4h0h0h0h0c-1.1,0-1.7,1.2-2.1,2.5 C28.9,3.5,28,2.5,27,2.5h0c-0.1,0-0.2,0-0.3,0c-0.3,0.1-0.6,0.2-0.9,0.7c-0.1,0.1-0.2,0.3-0.2,0.5C25,3,24.4,2.5,23.7,2.5 c-0.1,0-0.2,0-0.3,0c-0.3,0.1-0.6,0.2-0.9,0.7c-0.7,1.2-0.5,4-0.2,5.2c0.3,1.2,1,2.2,1.8,2.7c0.4,2.8,0.5,5.3,0.6,7.3l-0.3,13.9 l-0.5,28.6H40z" class="st3"/><g><path d="M35.1,11.5c0.8-0.2,1.6-1.2,1.9-2.5c0.3-1.3,0.6-4.8-0.6-5c-1.1-0.3-2.6,2.8-2.9,4.2 c-0.3,1.2-0.2,2.4,0.4,3C33.9,11.1,34.8,10.7,35.1,11.5z" class="st315"/><path d="M38.9,10.7c0.8-0.2,1.6-1.2,1.9-2.5c0.3-1.3,0.6-4.8-0.6-5c-0.5-0.1-1.1,0.4-1.7,1.5 c-0.5,0.8-1,1.9-1.2,2.7c-0.3,1.2-0.2,2.4,0.4,3C37.7,10.3,38.6,9.9,38.9,10.7z" class="st315"/><path d="M26.1,10.3c0.3-0.3,0.4-0.8,0.5-1.3c0.4,0.8,1,1.5,1.6,1.6c0,0,0.3-0.7,1.2-0.4c0.3-0.4,0.5-0.9,0.5-1.5 c0.2,0.8,0.6,1.4,1.1,1.7c0,0,0.5-0.6,1.1,0c0.7-0.4,1.2-1.6,1.2-2.8c0-0.8-0.2-2-0.4-2.9c-0.4-1.2-0.8-1.9-1.3-1.9c0,0,0,0,0,0 c-0.5,0-1,0.6-1.3,1.8c-0.3,0.8-0.4,1.9-0.5,2.7c-0.2-0.8-0.7-1.9-1.2-2.7C28,3.5,27.4,3,26.9,3.1c-0.7,0.2-0.9,1.6-0.8,2.9 c-0.2-0.5-0.5-1-0.7-1.4c-0.7-1.1-1.3-1.6-1.7-1.5c-1.1,0.3-0.9,3.7-0.6,5c0.3,1.3,1.1,2.3,1.9,2.5C24.9,10.7,25.1,10,26.1,10.3z" class="st315"/></g><path d="M43.5,9c0-0.1,1.8-7.3-2.5-8.4c-0.3-0.1-0.6-0.1-0.8-0.1c-1,0-1.8,0.4-2.5,1c-0.1-0.1-0.3-0.1-0.5-0.2 c-0.3-0.1-0.6-0.1-0.8-0.1h0c-0.6,0-1.2,0.2-1.8,0.5c-0.9-1.3-2-1.6-2.9-1.6c0,0,0,0,0,0h0h0c-1,0-1.9,0.4-2.5,1 c-0.6-0.4-1.3-0.7-2.1-0.7c-0.3,0-0.6,0-0.8,0.1c-0.3,0.1-0.6,0.2-0.9,0.3c-0.5-0.3-1-0.4-1.6-0.4c-0.3,0-0.6,0-0.8,0.1 c-4.3,1.1-2.6,8.3-2.5,8.4c0.3,1.3,1,2.5,1.8,3.3c0.3,2.4,0.4,4.6,0.5,6.3l-0.3,14l-0.5,25.6c0,1,0.4,1.9,1,2.6 c0.7,0.7,1.6,1.1,2.6,1.1h0.1c0.5,0.5,1.2,0.7,1.9,0.7h0.3c0.1,0.1,0.2,0.3,0.3,0.4c0.6,0.6,1.3,0.9,2.1,0.9h3.3 c0.8,0,1.6-0.3,2.1-0.9c0.1-0.1,0.2-0.3,0.3-0.4h0.2c0.7,0,1.4-0.3,1.9-0.7h0.3c1,0,1.9-0.4,2.6-1.1c0.7-0.7,1-1.6,1-2.6l-0.5-25.6 l-0.3-14c0-1.8,0.2-3.9,0.5-6.3C42.5,11.5,43.1,10.3,43.5,9z M34.4,59.6L34.4,59.6l-0.5-26.9l-0.1-7.3l0.1-6.1 c0.2-2.6-0.2-5.1,0.1-7.2c0-0.1,0-0.1,0-0.2c0-0.3,0.1-0.6,0.2-0.9c-0.3-0.3-0.4-0.8-0.4-1.4C33.9,9,34,8.4,34,7.6c0,0,0,0,0-0.1 c0.3-0.8,0.8-1.7,1.2-2.4c0,0,0,0,0,0c0.1-0.1,0.2-0.3,0.3-0.4c0,0,0.1-0.1,0.1-0.1c0,0,0.1-0.1,0.1-0.1c0.1-0.1,0.1-0.1,0.2-0.2 c0,0,0.1,0,0.1,0c0.1,0,0.2-0.1,0.2-0.1c0,0,0,0,0,0c0,0,0.1,0,0.1,0c0.8,0.2,0.8,3.3,0.4,4.7c-0.3,1.2-1,2.1-1.7,2.3 c-0.3,2.6,0.4,5.4,0.4,8l0.3,14.1l0.5,25c0,0.7-0.5,1.2-1.2,1.2H34.4z M27.5,58.7l0.3-13.1l0,0.9L28,33.4l0.3-14.1 c0-2.6,0.3-6.2,0-8.8c-0.7-0.2-1.4-1.1-1.7-2.3c-0.4-1.5-0.4-4.5,0.4-4.7c0,0,0.1,0,0.1,0c0.1,0,0.2,0,0.3,0.1c0,0,0,0,0,0 c0.6,0.3,1.5,1.8,1.9,3c-0.1,0.6-0.1,1.1-0.1,1.1c0,0.8,0.1,1.5,0.4,2.1c0,0.1,0,0.1-0.1,0.2c0,0.1-0.1,0.2-0.2,0.3 c0,0,0,0.1-0.1,0.1c0.2,0.9,0.3,1.9,0.4,3v-0.1c0.1,2,0.1,4.2,0.3,6.2l0.1,5.6l-0.1,7.7l-0.5,26.9h-1 C27.9,59.6,27.5,59.2,27.5,58.7z M30.4,59.9l0.5-27.2l0.2-14.1c0-2.7,0-5.7,0.1-8.3c-0.6-0.3-1-1.4-1-2.7c0-1.5,0.7-4.5,1.4-4.5 c0,0,0.1,0,0.1,0c0.8,0.2,1.3,3,1.3,4.5c0,1.2-0.4,2.3-1,2.6c0.2,2.4,0.4,5.3,0.6,8.3l0.3,14.1l0.5,27.2c0,0.5-0.4,1-1,1h-1.1 C30.8,60.9,30.4,60.4,30.4,59.9z M25.4,58.9c-0.3,0-0.6-0.3-0.6-0.6l0.5-25.6l0.3-14.1c0-2.6-0.3-5.5-0.7-8 c-0.7-0.2-1.4-1.1-1.7-2.3c-0.4-1.5-0.4-4.5,0.4-4.7c0,0,0.1,0,0.1,0c0.5,0,1.1,0.8,1.6,1.7c-0.1,1.6,0.3,3.2,0.3,3.3 c0.1,0.5,0.3,1,0.6,1.4c-0.1,0.1-0.1,0.3-0.2,0.4c0.6,2.4,1.1,5.3,1.3,8.3l0,2.3L27,33.3l-0.5,25.3c0,0.1,0,0.1,0,0.2H25.4z M40.6,8.3c-0.3,1.2-1,2.1-1.7,2.3c-0.3,2.6-0.6,5.5-0.7,8l0.3,14.1L39,58.3c0,0.3-0.3,0.6-0.6,0.6h-1.3c0-0.2,0.1-0.4,0.1-0.5 l-0.5-25l-0.2-9l0.1-5.7c0.2-3.1,0.7-6,1.3-8.3c-0.1-0.2-0.2-0.4-0.3-0.6c0-0.1,0.1-0.3,0.1-0.4c0,0,0.3-1.5,0.3-3 c0.6-1.3,1.5-2.8,2.1-2.8c0,0,0.1,0,0.1,0C41,3.7,41,6.8,40.6,8.3z" class="st4"/></g></svg>