<svg xmlns="http://www.w3.org/2000/svg" xmlns:xlink="http://www.w3.org/1999/xlink" x="0" y="0" version="1.1" viewBox="0 0 200 200" xml:space="preserve" style="enable-background:new 0 0 200 200"><style type="text/css">.st25{fill:#a2cc62}.st35{fill:#fff}.st187{fill:#fbe000}.st188{fill:#e46900}.st189{fill:#51b505}.st190{fill:#164100}</style><g id="Layer_1"><g><path d="M112.4,43.4c-0.7,4.1-2,8.1-3.9,11.8L100,72.5c-1.1,2.4,0.1,5.2,2.5,6.2c4,1.6,8.3,2.4,12.6,2.1 c2.6-0.1,4.6-2.4,4.4-5L117,56.7c-0.5-4.2-0.4-8.4,0.3-12.5l0,0c1.6-9.6-1.6-19.5-8.7-26.2l-8-7.6c-1-0.9-2.6-0.9-3.5,0.1v0 c-0.9,1-0.9,2.6,0.1,3.5l8.1,7.7C111.1,27.3,113.8,35.4,112.4,43.4L112.4,43.4z" class="st25"/><path d="M154.2,106.4l0.6,4.2c3.1,21.8-0.1,44.2-10.1,63.9c-6,11.7-11.5,16.9-16.4,16.1c-2.1-0.4-3.8-1.2-5.2-2.5 c-2.2-2.2-5.9-1.9-7.7,0.7c-3.3,4.6-7.3,6.9-12.3,6c-4.9-0.8-7.9-4.1-9.5-9.3c-1.1-3.5-5.2-4.7-8-2.5c-2.6,2-5.5,2.8-8.8,2.3 c-4-0.7-6.8-3.1-8.6-6.8c-1.4-2.9-5-3.7-7.7-1.9c-2.1,1.4-4.4,1.9-7,1.4c-5.6-0.9-8.4-10.4-9.3-29c-0.9-19.2,3.4-38.2,12.2-55.2 l1.8-3.5c5.2-10,15-16.8,26.2-18l0,0c17.4-2,35.1,1,50.9,8.6l0,0C145.5,85.6,152.6,95.3,154.2,106.4z" class="st187"/><path d="M80.3,129c-0.1,0-0.3,0-0.4,0c-0.8-0.2-1.4-1-1.2-1.8c1.2-6.8,2.6-13,3.9-18.6c0.2-0.8,1-1.3,1.9-1.1 c0.8,0.2,1.3,1,1.1,1.9c-1.3,5.5-2.7,11.7-3.9,18.4C81.6,128.4,81,128.9,80.3,129z" class="st35"/><path d="M87.3,99.3c-0.2,0-0.4,0-0.6-0.1c-0.8-0.3-1.3-1.1-1-1.9c1.1-3.4,2.2-6.4,3.3-9c0.3-0.8,1.2-1.1,2-0.8 c0.8,0.3,1.1,1.2,0.8,2c-1.1,2.5-2.2,5.4-3.2,8.7C88.5,98.9,87.9,99.3,87.3,99.3z" class="st35"/><g><path d="M100.6,138.6c-0.1,0-0.2,0-0.4,0c-0.8-0.1-1.4-0.9-1.3-1.8c3.4-20.1,4.8-35.9,4.1-46.8 c-0.1-0.8,0.6-1.6,1.4-1.6c0,0,0,0,0,0c0.8-0.1,1.6,0.6,1.6,1.4c0.7,11.2-0.7,27.2-4.1,47.6C101.8,138.1,101.2,138.6,100.6,138.6 z" class="st188"/><path d="M66.8,162.1c-0.1,0-0.1,0-0.2,0c-0.9,0-1.5-0.7-1.5-1.6c0.1-4.6,0.6-9.9,1.4-16.1c0.1-0.8,0.9-1.4,1.7-1.3 c0.8,0.1,1.4,0.9,1.3,1.7c-0.8,6.1-1.3,11.3-1.4,15.8C68.2,161.4,67.5,162,66.8,162.1z" class="st188"/><path d="M121.3,168.1c-0.2,0-0.3,0-0.5,0c-0.8-0.2-1.3-1.1-1.1-1.9c1.4-5.5,2.8-12.1,4.2-20.4 c2.4-14,3.8-26.1,4.1-35.8c0-0.9,0.7-1.5,1.6-1.5c0.8,0,1.5,0.7,1.5,1.6c-0.4,9.9-1.8,22-4.2,36.2c-1.4,8.3-2.8,15.1-4.2,20.6 C122.5,167.6,122,168,121.3,168.1z" class="st188"/><path d="M159.3,109.9l-0.6-4.2l0,0c-1.8-12.7-9.8-23.6-21.4-29.1c-16.6-8-35.1-11.1-53.4-9.1 C71.2,69,60,76.6,54.1,88l-1.8,3.5c-9.3,17.9-13.7,37.8-12.7,57.6c0.8,16.3,2.9,31.6,13.1,33.4c3.8,0.6,7.3-0.1,10.4-2.2 c0.3-0.2,0.6-0.2,0.6-0.1c0.1,0,0.2,0.1,0.2,0.2c2.4,5.3,6.6,8.5,12,9.5c4.6,0.8,8.8-0.3,12.5-3.2c0.2-0.1,0.3-0.2,0.5-0.1 c0.1,0,0.2,0.2,0.3,0.3c2.8,8.9,8.7,11.7,13.2,12.5c1.2,0.2,2.5,0.3,3.9,0.2c4-0.3,8.8-2.2,12.9-8.1c0.1-0.1,0.2-0.2,0.3-0.2 c0.2,0,0.3,0.1,0.4,0.1c2,2,4.6,3.3,7.6,3.8c7.4,1.2,14.3-4.8,21.3-18.5C159,156.3,162.7,133.3,159.3,109.9z M88.1,177.2 c-1.9,0.2-3.8,0.9-5.4,2.1c-1.6,1.3-3.2,1.7-5.2,1.3c-2.3-0.4-3.9-1.7-5.1-4.1c-0.8-1.7-2-3.2-3.6-4.2c-3.4-2.1-7.7-1.9-10.9,0.3 c-1.1,0.7-2.1,0.9-3.6,0.7c-0.2,0-4.3-1-5.4-24.7c-0.9-18.2,3.2-36.5,11.7-52.9l1.8-3.5c3.6-7,9.8-12.1,17.1-14.4 c2-0.6,3.7,1.5,2.8,3.3c-5.2,10.2-9.7,26.9-13.7,50.3c-0.1,0.8,0.3,1.6,1,1.8c0.2,0.1,0.4,0.1,0.6,0.1c0.7,0,1.3-0.6,1.4-1.3 C74,117.8,78.1,97.5,84,84.6c2.4-5.2,7.7-8.5,13.4-8.4c12.4,0.4,24.6,3.3,35.9,8.7c8.8,4.2,14.9,12.5,16.2,22.1l0.6,4.2 c3.1,21.5-0.3,42.6-9.7,61.2c-5.7,11.3-9.9,13.4-11.5,13.6c-1.2,0.2-2.2-0.2-2.7-1.3c-2.1-4.1-5.3-3.9-7.2-3.3 c-0.6,0.2-1.2-0.5-1-1.1c0.6-1.5,1.1-3,1.6-4.4c0.3-0.8-0.1-1.7-0.9-2c-0.8-0.3-1.7,0.1-2,1c-1.7,5.1-3.4,8.7-5.2,11.1 c0,0,0,0,0,0.1c-3.1,4.3-5.7,4.5-7.8,4.1c-2.1-0.4-4.4-1.4-5.9-6.1c0-0.1-0.1-0.3-0.2-0.4c-1.5-5.8-1.5-14.6-0.1-26.7 c0.1-0.7-0.3-1.5-1-1.7c-1-0.4-2,0.3-2.1,1.3c-0.8,6.3-1.3,12.8-1.1,18.5c0.1,1.6-1.4,2.7-3,2.4C89.8,177.2,89,177.1,88.1,177.2z" class="st188"/></g><path d="M112.4,43.4c-0.7,4.1-2,8.1-3.9,11.8L100,72.5c-1.1,2.4,0.1,5.2,2.5,6.2c4,1.6,8.3,2.4,12.6,2.1 c2.6-0.1,4.6-2.4,4.4-5L117,56.7c-0.5-4.2-0.4-8.4,0.3-12.5l0,0c1.6-9.6-1.6-19.5-8.7-26.2l-8-7.6c-1-0.9-2.6-0.9-3.5,0.1v0 c-0.9,1-0.9,2.6,0.1,3.5l8.1,7.7C111.1,27.3,113.8,35.4,112.4,43.4L112.4,43.4z" class="st189"/><path d="M126.2,55.5c-0.4-3.2-0.3-6.5,0.2-9.7c2.1-12.7-2.1-25.7-11.4-34.6l-8-7.6c-4.7-4.5-12.1-4.3-16.6,0.4 C88.1,6.5,87,9.7,87.2,13c0.2,3,1.7,5.9,3.9,8l7.8,7.4c3.6,3.4,5.3,8.4,4.5,13.3c-0.6,3.3-1.6,6.4-3.1,9.4L92.4,67 c2-0.1,4.1,0,6.1,0.1c1.1,0,1.9,1.3,1.4,2.3l-1.3,2.6c-0.7,1.7-0.7,3.6,0.1,5.3c0.7,1.5,2.1,2.5,3.6,3.1c4.1,1.6,8.5,2.3,12.8,2.1 c0,0,0.1,0,0.1,0c1.1-0.1,2.2-0.4,3.1-1.1c1.9-1.3,2.8-3.4,2.6-5.7l-0.4-2.9c-0.1-1.1,0.9-2,2-1.7c1.9,0.6,3.9,1.2,5.8,1.9 L126.2,55.5z M115.5,56.9l2.4,19c0.1,0.8-0.2,1.7-0.8,2.3c-0.6,0.6-1.4,1-2.2,1.1c-4,0.2-8.2-0.5-11.9-2c-0.8-0.3-1.4-0.9-1.7-1.7 c-0.3-0.8-0.3-1.6,0-2.4l8.6-17.3c1.9-3.9,3.3-8,4-12.2c1.5-8.5-1.4-17.1-7.6-23.1l-8.1-7.7c-0.2-0.2-0.3-0.4-0.3-0.7 s0.1-0.5,0.3-0.7c0.2-0.2,0.4-0.3,0.6-0.3c0.3,0,0.5,0.1,0.7,0.3l8,7.6c6.7,6.4,9.8,15.7,8.3,24.8C115.1,48.2,115,52.6,115.5,56.9 z" class="st190"/><ellipse cx="68.6" cy="98" class="st35" rx="1.5" ry="1.5" transform="matrix(0.9975 -7.060424e-02 7.060424e-02 0.9975 -6.7492 5.0873)"/></g></g></svg>