<svg xmlns="http://www.w3.org/2000/svg" xmlns:xlink="http://www.w3.org/1999/xlink" id="Layer_1" x="0" y="0" version="1.1" viewBox="0 0 350 350" xml:space="preserve" style="enable-background:new 0 0 350 350"><style type="text/css">.st12{fill:#4b823b}.st89{fill:#be6a25}.st90{fill:#86683d}.st91{fill:#8acf0d}.st92{fill:#e8f9bb}.st93{fill:#caea85}.st94{fill:#aadb52}.st95{fill:#ebdeae}</style><g><path d="M325.8,63.1c1.8-1.4,2.2-3.9,1-5.8c-1.2-1.9-3.7-2.5-5.7-1.5c-5.1,2.6-9.7,5-14.1,7.3 c6.4-6,13.5-12.7,21.3-20.3c1.6-1.5,1.7-4.1,0.4-5.8c-1.4-1.7-3.9-2-5.7-0.8c-9.1,6.2-17.1,11.8-24.2,16.9c1.6-2.3,3.2-4.7,4.9-7.3 c1.2-1.9,0.9-4.4-0.8-5.8c-1.7-1.4-4.3-1.3-5.9,0.2c-2.8,2.7-5.4,5.2-7.9,7.6c3.8-6.8,7.9-14.2,12.4-22.7c1.1-2,0.4-4.6-1.5-5.9 c-1.9-1.3-4.5-0.9-6,0.9c-40.3,49.7-50.7,70.4-50.7,70.4l4.4,2.9c-0.1,0.1-0.1,0.2-0.1,0.2l6.2,5.2l4.4,5.4c0,0,0.1-0.1,0.1-0.1 l2.8,4.3C261.1,108.6,280.2,99.5,325.8,63.1z" class="st91"/><path d="M251.1,77.7c-5.8,8.8-7.8,12.9-7.8,12.9l4.4,2.9c-0.1,0.1-0.1,0.2-0.1,0.2l6.2,5.2l4.4,5.4 c0,0,0.1-0.1,0.1-0.1l2.8,4.3c0,0,4.1-2,13.1-7.7L251.1,77.7z" class="st92"/><path d="M274.2,100.9c3.8-2.4,8.4-5.5,14-9.4l-27.6-27.6c-3.9,5.5-7,10.1-9.5,13.9L274.2,100.9z" class="st93"/><path d="M288.1,91.5c4-2.8,8.6-6.1,13.6-9.8l-31.3-31.3c-3.7,5-7,9.5-9.9,13.5L288.1,91.5z" class="st94"/><path d="M341.4,26.5c-4.5-5.4-11.3-8.1-17.9-7.5c-2.8,0.2-5.5-1.3-6.6-4c-1.6-3.8-4.2-7.1-7.9-9.5 c-9.1-6-21.1-4.1-28,4.3c-40.9,50.5-52.1,72.5-52.6,73.4l-4.8,9.6c18.3,3.2,32.4,16.6,38.1,33.8l6.4-3.1c2.1-1,22.1-11,67.9-47.4 l0,0c6.8-5.4,9.4-14.2,7.1-22.1c-0.4-1.5-0.3-3.1,0.5-4.5C347.5,42.2,346.8,33.1,341.4,26.5z M296.1,21.9c0.6-0.7,1.6-0.9,2.3-0.4 c0.7,0.5,1,1.5,0.6,2.3c-3.3,6.2-6.4,12-9.3,17.3c-1.8,3.2-4,6.2-6.6,8.8c-13.4,13.3-22.4,23.2-28.3,30.1c-0.5,0.6-1.4-0.1-1-0.7 C260.5,68.6,274.7,47.2,296.1,21.9z M251.3,93.2c3.9-5.3,16.8-21.8,47.5-51c0.6-0.6,1.6-0.6,2.2-0.1c0.6,0.5,0.7,1.5,0.3,2.2 c-23.6,35.3-37.8,50.6-42.5,55.3L251.3,93.2z M298.4,58.3c1.5-2.2,3.4-4.1,5.6-5.7c6.2-4.4,12.9-9.1,20.4-14.2 c0.6-0.4,1.6-0.3,2,0.3c0.5,0.6,0.4,1.5-0.1,2.1c-17.1,16.6-30.8,29.2-41.3,38.4c-0.6,0.5-1.5-0.3-1-0.9 C288.3,72.6,293,66.1,298.4,58.3z M272.5,96.9c7.5-6,18.4-15.3,33.3-29c1.9-1.8,4-3.3,6.3-4.5c3.2-1.7,6.6-3.4,10.2-5.2 c0.8-0.4,1.7-0.1,2.2,0.6c0.4,0.7,0.3,1.6-0.4,2.2c-22.2,18.8-40.9,31-50.8,37C272.6,98.3,271.9,97.4,272.5,96.9z" class="st12"/><g><path d="M258.9,129.7c5.6-5.6,2.3-17.9-7.3-27.5s-21.9-12.9-27.5-7.3C137.1,181.9,59.7,273.6,15.5,328.1 c-5.6,6.8,3.4,15.9,10.3,10.3C79.5,294.9,169.8,218.8,258.9,129.7z" class="st95"/><path d="M21.1,348.4c-4,0-7.9-1.6-11-4.7C4.4,338,3.9,329.2,9,322.9C57.5,263.2,133.2,174.1,218.3,89 c4.8-4.8,12.2-6.3,20.2-4.2c6.6,1.8,13.3,5.8,19,11.5c5.7,5.7,9.7,12.4,11.5,19c2.1,8,0.6,15.4-4.2,20.2 C177.5,222.8,89.5,297.5,31,344.9C28,347.3,24.6,348.4,21.1,348.4z M231.5,100.4c-0.9,0-1.4,0.2-1.5,0.3 C148.6,182.1,75.9,267.1,27.6,326.3C85.7,279,169.8,207.2,253.1,123.8c0.2-0.2,0.6-1.6-0.1-4.2c-1-3.8-3.6-8-7.2-11.5 c-3.6-3.6-7.8-6.2-11.5-7.2C233.1,100.5,232.2,100.4,231.5,100.4z" class="st90"/></g><g><path d="M221.9,160.6c-1.6-5.4-5.5-11.7-11.3-17.5c-1.7-1.7-3.4-3.2-5.2-4.6c-1.2-0.9-2.9-0.7-3.9,0.5 c-0.9,1.2-0.7,2.9,0.5,3.9c1.6,1.3,3.2,2.6,4.7,4.2c5.7,5.7,8.9,11.4,10,15.5C218.1,161.6,219.9,160.9,221.9,160.6z" class="st89"/></g><g><path d="M155.8,224.3c0.6,0,1.2,0.1,1.8,0.1c-1.6-5.3-5.5-11.4-11.2-17.2c-1.1-1.1-2.8-1.1-3.9,0 c-1.1,1.1-1.1,2.8,0,3.9c4.9,4.9,7.9,9.8,9.4,13.7C153.1,224.5,154.4,224.3,155.8,224.3z" class="st89"/></g><path d="M136.5,259.8c-4.8,4.6-7.9,10.8-7.7,17.4c0.1,3.1-0.3,6.3-1.6,9.2c-0.6,1.3-0.3,2.9,0.9,3.7 c0.5,0.4,1.1,0.5,1.7,0.4c1-0.1,1.9-0.7,2.3-1.7c1.4-3.4,2.2-6.9,2.2-10.5c0-5.6,2.3-10.9,6.3-14.8c2.6-2.5,4.7-5.5,6.1-8.9 c0.8-1.8,1.3-3.7,1.7-5.6c0.5-2.8,1.9-5.5,4-7.4c35.9-32.1,74.2-67.9,112.4-106.1c4.8-4.8,6.3-12.2,4.2-20.2 c-1.8-6.6-5.8-13.3-11.5-19c-5.7-5.7-12.4-9.7-19-11.5c-8-2.1-15.4-0.6-20.2,4.2c-51.9,51.9-100.2,105.2-141,152.4 c-2,2.3-4.7,3.7-7.7,4l-0.1,0c-3.5,0.3-7,1.3-10.1,3c-3,1.6-5.7,3.7-7.9,6.2c-3.8,4.4-9.1,7.5-14.9,8c-3.5,0.3-6.9,1.3-10,2.9 c-1.2,0.6-1.9,2-1.5,3.3c0.4,1.2,1.5,1.9,2.6,1.9c0.4,0,0.9-0.1,1.3-0.3c2.6-1.4,5.4-2.2,8.3-2.4c7-0.6,13.5-4,18-9.4 c1.9-2.2,4.1-4.1,6.7-5.4c0.8-0.4,1.6-0.8,2.4-1.1c1.4-0.5,2.6,1.2,1.6,2.4C44.4,279.8,25.2,303,9,322.9 c-5.1,6.3-4.7,15.1,1.1,20.9c3.1,3.1,7,4.7,11,4.7c3.4,0,6.9-1.2,9.8-3.6c10.8-8.7,22.6-18.4,35.2-28.9c1-0.8,2.5-0.1,2.4,1.2 c0,1,0,2,0.1,3c0.5,5.6-1.3,11-4.9,15.3c-2.4,2.7-4.1,5.9-5.2,9.4c-0.4,1.2,0,2.4,1,3.1c0.5,0.4,1.1,0.5,1.6,0.5 c1.2,0,2.2-0.7,2.6-1.9c0.9-2.8,2.3-5.3,4.2-7.5c4.5-5.3,6.9-12.1,6.2-19.1c-0.3-3,0-6,1-8.8c0.1-0.2,0.1-0.3,0.2-0.5 c0.8-2.2,2.1-4.1,3.8-5.5c18.3-15.4,38.1-32.4,58.8-50.7c1-0.8,2.4,0.3,1.7,1.4C138.8,257.2,137.7,258.6,136.5,259.8z M237.9,115.9 c4,3.7,6.8,9.6,8,12.6c0.5,1.1,0.2,2.3-0.6,3.2c-0.1,0.1-0.2,0.2-0.3,0.3c-0.9,0.9-2.4,0.6-2.9-0.5c-1.8-3.9-4.6-7.9-8.2-11.5 c-3.6-3.6-7.6-6.4-11.5-8.2c-1.1-0.5-1.3-2-0.5-2.9c0.1-0.1,0.2-0.2,0.3-0.3c0.8-0.9,2.1-1.1,3.2-0.6 C228.2,109.2,233.9,112.1,237.9,115.9z M214.1,116.8c1.1-1.1,2.7-1.4,4.1-0.9c3.9,1.5,8.1,4.2,11.8,7.9c3.7,3.7,6.5,7.9,7.9,11.8 c0.5,1.4,0.2,3-0.9,4.1c0,0,0,0,0,0c-0.9,0.9-2.3,0.6-2.9-0.5c-1.8-3.9-4.6-7.8-8.2-11.4c-3.6-3.6-7.5-6.4-11.4-8.2 C213.4,119.1,213.2,117.7,214.1,116.8C214,116.8,214.1,116.8,214.1,116.8z M37.2,314.6C80.2,262.4,139.5,193.4,206,125 c1.2-1.2,3-1.6,4.6-1c3.8,1.5,7.8,4.2,11.4,7.8c3.6,3.6,6.3,7.6,7.8,11.4c0.6,1.6,0.2,3.4-1,4.6c-5.6,5.4-11.2,10.8-16.7,16.1 c-1,1-2.8,0.8-3.5-0.5c-2-3.4-4.7-6.8-8-10.2c-1.6-1.6-3.4-3.2-5.1-4.6c-0.9-0.7-2.3-0.9-3.3-0.2c-1.6,1.1-1.6,3.4-0.2,4.5 c1.6,1.3,3.2,2.7,4.7,4.2c3.4,3.4,5.9,6.9,7.6,9.9c0.9,1.7,0.5,3.7-0.8,5c-23,21.8-45.6,42.5-67.3,61.8c-1.2,1.1-3.1,0.8-4-0.5 c-1.6-2.1-3.4-4.3-5.4-6.3c-0.9-0.9-2.2-1.1-3.3-0.6c-1.7,0.9-2,3.1-0.7,4.4c2,2,3.8,4.1,5.3,6.2c1,1.4,0.7,3.3-0.5,4.4 c-32.4,28.6-62.4,54-88.2,75.2C37.9,317.9,36,316.1,37.2,314.6z M253.1,123.8c-0.1,0.1-0.2,0.2-0.2,0.2c-0.9,0.9-2.3,0.6-2.8-0.5 c-1.8-3.9-4.6-7.9-8.2-11.5c-3.5-3.5-7.5-6.4-11.6-8.2c-1.1-0.5-1.4-1.9-0.5-2.8c0.1-0.1,0.2-0.2,0.2-0.2c0.1-0.1,0.6-0.3,1.5-0.3 c0.7,0,1.6,0.1,2.7,0.4c3.8,1,8,3.6,11.5,7.2c3.6,3.6,6.2,7.8,7.2,11.5C253.7,122.2,253.3,123.6,253.1,123.8z" class="st90"/><g><circle cx="137" cy="222.4" r="2.8" class="st89"/></g><g><circle cx="185.8" cy="159.1" r="2.8" class="st90"/></g><g><circle cx="158.3" cy="204.8" r="2.8" class="st90"/></g><g><circle cx="93.8" cy="260.2" r="2.8" class="st90"/></g></g></svg>