<svg xmlns="http://www.w3.org/2000/svg" xmlns:xlink="http://www.w3.org/1999/xlink" id="Layer_1" x="0" y="0" version="1.1" viewBox="0 0 500 500" xml:space="preserve" style="enable-background:new 0 0 500 500"><style type="text/css">.st16{fill:#fff}.st21{fill:#2a481d}.st22{fill:#ff7a00}.st48{fill:#d54300}.st79{fill:#6ea336}.st105{fill:#e5531b}</style><g><path d="M189.3,222l28.8-55.5c16.2-31.2,55.4-42.1,85.4-23.9l49.3,30c31,18.8,38.7,60.5,16.4,89.1L322.3,322 c-60.4,77.7-145.3,132.6-240.9,155.9l-35.1,8.5c-25.8,6.3-43.4-25.4-24.5-44l17.4-17.2C99.6,365.8,150.2,297.2,189.3,222z" class="st22"/><path d="M40,499c-13.5,0-26-7.2-32.8-19.5c-8.4-15.1-5.8-33.3,6.5-45.4L31,417c59.5-58.7,109.3-126.2,147.9-200.4 l28.8-55.5c9.2-17.7,25.5-31,44.7-36.3c19.2-5.4,40-2.5,57.1,7.8l49.3,30c17.6,10.7,29.9,28.5,33.6,48.8 c3.7,20.3-1.4,41.3-14.1,57.6l-46.9,60.3c-30.9,39.7-67.9,73.7-110.1,101c-42.2,27.3-88.4,47.2-137.2,59.1l-35.1,8.5 C46.1,498.6,43,499,40,499z M199.7,227.4C160,303.8,108.8,373.2,47.5,433.7l-17.4,17.2c-5.8,5.7-5,12.6-2.5,17.3 c2.6,4.6,8.1,8.9,16,7l35.1-8.5c92.6-22.6,175.9-76.5,234.4-151.7l46.9-60.3c8.6-11,12-25.2,9.5-38.9c-2.5-13.7-10.8-25.7-22.7-33 l-49.3-30c-11.7-7.1-25.4-9-38.6-5.3c-13.2,3.7-23.9,12.4-30.3,24.6L199.7,227.4z" class="st48"/><path d="M230.4,234.1c-0.6,0-1.3-0.2-1.9-0.5c-1.9-1-2.6-3.4-1.5-5.3l19-34.3c1-1.9,3.4-2.6,5.3-1.5 c1.9,1,2.6,3.4,1.5,5.3l-19,34.3C233.2,233.3,231.8,234.1,230.4,234.1z" class="st16"/><path d="M203.7,278.8c-0.7,0-1.4-0.2-2.1-0.6c-1.8-1.2-2.4-3.6-1.2-5.4c4.2-6.6,8.4-13.3,12.4-20 c1.1-1.9,3.5-2.5,5.4-1.3c1.9,1.1,2.5,3.5,1.3,5.4c-4.1,6.8-8.3,13.6-12.5,20.2C206.3,278.2,205,278.8,203.7,278.8z" class="st16"/><path d="M183.4,309.3c-0.8,0-1.6-0.2-2.2-0.7c-1.8-1.2-2.2-3.7-1-5.4c1.8-2.5,3.5-5,5.2-7.6c1.2-1.8,3.7-2.2,5.4-1 c1.8,1.2,2.2,3.7,1,5.4c-1.7,2.6-3.5,5.1-5.3,7.6C185.8,308.7,184.6,309.3,183.4,309.3z" class="st16"/><path d="M85.4,439.5c-1.7,0-3.3-1.1-3.8-2.9c-0.6-2.1,0.6-4.2,2.7-4.8c48.3-13.6,93.1-36.1,133.2-67 c1.7-1.3,4.2-1,5.5,0.7c1.3,1.7,1,4.2-0.7,5.5c-40.8,31.4-86.5,54.4-135.8,68.3C86.1,439.4,85.7,439.5,85.4,439.5z" class="st105"/><path d="M246,349.8c-1.1,0-2.1-0.4-2.9-1.3c-1.5-1.6-1.4-4.1,0.2-5.5c5.5-5,10.9-10.3,16-15.6c1.5-1.5,4-1.6,5.5-0.1 c1.5,1.5,1.6,4,0.1,5.5c-5.3,5.4-10.8,10.8-16.4,15.9C247.9,349.5,247,349.8,246,349.8z" class="st105"/><path d="M290.7,301.4c-0.8,0-1.7-0.3-2.4-0.8c-1.7-1.3-2-3.8-0.7-5.5l46.9-60.3c1.3-1.7,3.8-2,5.5-0.7 c1.7,1.3,2,3.8,0.7,5.5l-46.9,60.3C293.1,300.8,291.9,301.4,290.7,301.4z" class="st105"/><path d="M181.5,375.3c-1.2,0-2.4-0.6-3.2-1.6c-1.3-1.7-0.9-4.2,0.8-5.5c34.8-25.6,64.5-56.4,88.3-91.5l27.4-40.3 c1.2-1.8,3.6-2.3,5.4-1c1.8,1.2,2.3,3.6,1,5.4L274,281.2c-24.4,35.9-54.7,67.3-90.2,93.4C183.1,375.1,182.3,375.3,181.5,375.3z" class="st105"/><path d="M350.7,199.7c-29.9-0.4-57.6-17.3-71.7-43.5l24.9-14.6c18.1-10.6,33.7-24.9,46.5-42.4 c19.3-26.3,59.8-71.6,114-78.6c0.6-0.1,1.2-0.1,1.8-0.1c6,0,10.9,3.9,11.8,9.4c1,6-3.5,12-9.8,13.2c-15.9,2.8-31.3,8.6-45.7,17.2 c-41.7,24.8-68.2,70.1-70.9,121.3L350.7,199.7z" class="st79"/><path d="M348.9,203.7c3.1,0.1,5.6-2.3,5.8-5.4l0.9-16.7c0.2-3.9,0.6-7.8,1.1-11.7c0.5-3.6,4.6-5.3,7.5-3.2 c2.3,1.7,5,3.9,7.8,6.3c4.8-40.7,27-76.2,60.5-96.2c12.4-7.4,25.6-12.3,39.1-14.7c16.9-3,28.5-19,25.7-35.6 C494.5,10.2,479-0.9,461.9,1.3c-61.4,7.9-106.1,57.5-127.2,86.4c-11.2,15.3-24.9,27.8-40.7,37.1l-1.3,0.7c3.6,1,7,2.5,9.8,3.8 c3.4,1.6,3.7,6.4,0.5,8.3c-0.4,0.2-0.7,0.4-1.1,0.6L278.5,152c-2.7,1.6-3.6,5-2.1,7.7c7,12.5,16.9,22.9,28.6,30.3 C323.2,201.5,340.4,203.5,348.9,203.7z M347.7,181.3l-0.4,8.3c-0.2,3.4-3.2,5.9-6.5,5.4c-10.9-1.5-21.4-5.4-30.8-11.3 c-8.8-5.5-16.3-12.6-22.2-21c-2-2.7-1.1-6.6,1.8-8.3l16.3-9.6c18.5-10.9,34.6-25.5,47.7-43.4c18.9-25.8,58.6-70.2,111.3-77 c0.4-0.1,0.9-0.1,1.3-0.1c3.5,0,7.3,1.9,8,6.1c0.6,3.9-2.4,7.9-6.6,8.7c-16.4,2.9-32.2,8.8-47,17.7c-21.3,12.6-39.2,31-51.9,53 C356.3,131.4,349.1,156.1,347.7,181.3z" class="st21"/></g></svg>