<?xml version="1.0" encoding="UTF-8" standalone="no"?>
<!-- Created with Inkscape (http://www.inkscape.org/) -->

<svg
   xmlns:dc="http://purl.org/dc/elements/1.1/"
   xmlns:cc="http://creativecommons.org/ns#"
   xmlns:rdf="http://www.w3.org/1999/02/22-rdf-syntax-ns#"
   xmlns:svg="http://www.w3.org/2000/svg"
   xmlns="http://www.w3.org/2000/svg"
   xmlns:sodipodi="http://sodipodi.sourceforge.net/DTD/sodipodi-0.dtd"
   xmlns:inkscape="http://www.inkscape.org/namespaces/inkscape"
   width="24mm"
   height="24mm"
   viewBox="0 0 24 24"
   version="1.1"
   id="svg5115"
   inkscape:version="0.92.1 r15371"
   sodipodi:docname="potato32.svg">
  <defs
     id="defs5109" />
  <sodipodi:namedview
     id="base"
     pagecolor="#ffffff"
     bordercolor="#666666"
     borderopacity="1.0"
     inkscape:pageopacity="0.0"
     inkscape:pageshadow="2"
     inkscape:zoom="2.56"
     inkscape:cx="33.686369"
     inkscape:cy="29.963055"
     inkscape:document-units="mm"
     inkscape:current-layer="layer1"
     showgrid="false"
     inkscape:window-width="1366"
     inkscape:window-height="705"
     inkscape:window-x="-8"
     inkscape:window-y="-8"
     inkscape:window-maximized="1" />
  <metadata
     id="metadata5112">
    <rdf:RDF>
      <cc:Work
         rdf:about="">
        <dc:format>image/svg+xml</dc:format>
        <dc:type
           rdf:resource="http://purl.org/dc/dcmitype/StillImage" />
        <dc:title></dc:title>
      </cc:Work>
    </rdf:RDF>
  </metadata>
  <g
     inkscape:label="Layer 1"
     inkscape:groupmode="layer"
     id="layer1"
     transform="translate(0,-273)">
    <g
       id="g5819"
       inkscape:export-xdpi="96"
       inkscape:export-ydpi="96"
       transform="matrix(1.3286453,0,0,1.3292166,-3.3032359,-93.663392)">
      <rect
         inkscape:export-ydpi="96"
         inkscape:export-xdpi="96"
         y="273.06128"
         x="0.072342031"
         height="24"
         width="24"
         id="rect5107"
         style="fill:#f9f9f9;fill-opacity:1;stroke-width:0.26180583" />
      <g
         transform="matrix(0.07144817,0,0,0.15228381,-3.5920137,239.1962)"
         id="g1248">
        <g
           id="g1265">
          <path
             sodipodi:nodetypes="cssssccccscscsscc"
             inkscape:connector-curvature="0"
             id="path1170"
             d="m 129.14157,378.87902 c -10.54791,-1.23417 -38.205906,-6.50156 -44.565946,-8.48746 -16.365083,-5.10993 -28.506872,-14.79004 -32.514992,-25.92275 -3.948436,-10.96695 -1.760665,-26.71896 5.055543,-36.40005 11.000819,-15.6245 22.391069,-24.17047 47.429625,-35.58586 10.40899,-4.74559 27.47553,-13.13231 37.92563,-18.63715 33.59406,-21.8605 60.91708,-19.92605 97.33838,-8.58427 57.37286,19.55843 21.01628,-21.74101 -19.89541,-17.49928 -43.48334,-0.16977 57.82459,-5.89583 59.89979,-5.86886 28.06035,0.4142 28.52881,0.45751 40.82075,3.77391 15.81408,4.26668 38.27217,13.27082 45.06878,18.06946 11.36144,8.02155 20.09724,29.44752 20.2944,49.77535 0.10881,11.2175 -0.49521,13.87958 -4.76074,20.98146 -3.41458,5.68507 -21.48199,21.07243 -32.85237,27.97915 -29.72622,18.05664 -75.24192,28.40803 -154.2441,35.07892 -22.28966,1.88213 -54.61652,2.54232 -64.99934,1.32746 z"
             style="fill:#b0793f;fill-opacity:1;stroke-width:1.12932289" />
          <path
             inkscape:connector-curvature="0"
             id="path1174"
             d="m 261.07719,257.86343 c -3.02239,-1.11616 -11.25716,-5.02066 -18.29949,-8.67667 -17.91435,-9.30018 -25.67509,-11.293 -43.97905,-11.293 -13.29043,0 -15.43509,-0.33751 -14.08062,-2.21596 4.25577,-5.90214 38.62755,-12.66451 59.78843,-11.76294 13.31836,0.56745 14.79175,0.95771 20.23268,5.35912 9.08685,7.35076 15.11434,17.36085 14.61212,24.267 -0.40535,5.57415 -0.55053,5.70676 -6.59664,6.02569 -3.40019,0.17938 -8.65503,-0.58708 -11.67743,-1.70324 z"
             style="fill:#d8a86c;fill-opacity:1;stroke-width:1.47388506" />
          <path
             sodipodi:nodetypes="scccss"
             inkscape:connector-curvature="0"
             id="path1196"
             d="m 212.29049,259.3292 c -6.62146,-2.43477 -23.23445,-5.02943 -35.66468,-6.05261 -7.09642,-0.58414 -11.16066,-2.85456 -11.37026,-3.41159 -0.18922,-0.50288 1.9814,-1.91607 4.82359,-3.14045 10.0334,-4.32224 19.8345,-2.72757 35.1857,5.72486 11.89313,6.5484 16.581,10.39338 7.02565,6.87979 z"
             style="fill:#d8a86c;fill-opacity:1;stroke-width:0.84602743" />
          <path
             transform="matrix(0.4352122,0,0,0.3589808,53.494543,-75.853917)"
             inkscape:connector-curvature="0"
             id="path1200"
             d="m 258.27929,1053.3879 c -6.95792,-10.2432 -18.79101,-23.7844 -28.74523,-32.8946 -18.7096,-17.1232 -19.1434,-19.9566 -3.3792,-22.07098 14.79516,-1.98444 27.13571,8.29298 34.98349,29.13468 4.66858,12.3986 10.65474,38.1783 9.59995,41.3427 -0.34803,1.044 -5.95458,-5.9363 -12.45901,-15.5118 z"
             style="fill:#d8a86c;fill-opacity:1;stroke-width:2.02030516" />
          <path
             transform="matrix(0.4352122,0,0,0.3589808,53.494543,-75.853917)"
             inkscape:connector-curvature="0"
             id="path1202"
             d="m 127.76667,1020.7111 c -11.19089,-5.8406 -16.49155,-7.1896 -35.860412,-9.1262 -12.500638,-1.2499 -22.728432,-3.0236 -22.728432,-3.9417 0,-3.9493 13.667836,-8.67735 25.253813,-8.73594 13.973511,-0.0707 22.429391,2.87414 35.754121,12.45164 8.1116,5.8304 13.7685,13.5759 11.40244,15.6124 -0.37925,0.3264 -6.59894,-2.4907 -13.82153,-6.2602 z"
             style="fill:#d8a86c;fill-opacity:1;stroke-width:2.02030516" />
          <path
             transform="matrix(0.4352122,0,0,0.3589808,53.494543,-75.853917)"
             inkscape:connector-curvature="0"
             id="path1204"
             d="m 475.89076,1188.4558 c 6.92992,-24.6634 8.28725,-34.0049 8.26671,-56.8931 -0.019,-21.1145 0.43566,-24.7322 3.04479,-24.2297 5.20936,1.0032 12.30055,13.669 12.30055,21.9704 0,13.9146 -15.86528,57.4953 -22.40138,61.5348 -1.48774,0.9195 -1.90675,0.095 -1.21067,-2.3824 z"
             style="fill:#d8a86c;fill-opacity:1;stroke-width:2.02030516" />
          <path
             transform="matrix(0.4352122,0,0,0.3589808,53.494543,-75.853917)"
             inkscape:connector-curvature="0"
             id="path1206"
             d="m 655.0663,1081.1753 c 0,-0.9378 3.17106,-9.4831 7.0468,-18.9895 6.37281,-15.6313 7.17549,-19.8273 8.39238,-43.8711 0.86675,-17.1254 2.13355,-26.58166 3.55981,-26.57277 3.03723,0.0189 11.0006,12.08147 13.32392,20.18237 3.52302,12.2841 -3.57813,32.0412 -20.47095,56.9552 -7.66817,11.3092 -11.85196,15.6497 -11.85196,12.2958 z"
             style="fill:#d8a86c;fill-opacity:1;stroke-width:2.02030516" />
          <path
             transform="matrix(0.4352122,0,0,0.3589808,53.494543,-75.853917)"
             inkscape:connector-curvature="0"
             id="path1208"
             d="m 568.88408,870.67105 c -5.73142,-4.13988 -19.57055,-12.33744 -30.7536,-18.21681 -24.34932,-12.80139 -27.11453,-15.39007 -19.52284,-18.27642 2.97103,-1.12959 6.7356,-2.05379 8.3657,-2.05379 5.47851,0 17.60731,6.09134 26.2813,13.19902 10.68936,8.75912 27.68062,28.44472 26.74528,30.98633 -0.38228,1.03879 -5.38441,-1.49846 -11.11584,-5.63833 z"
             style="fill:#d8a86c;fill-opacity:1;stroke-width:2.02030516" />
          <path
             transform="matrix(0.4352122,0,0,0.3589808,53.494543,-75.853917)"
             inkscape:connector-curvature="0"
             id="path1210"
             d="m 541.56132,869.56361 c -15.53977,-10.42483 -17.93104,-13.19899 -11.36809,-13.18837 7.47224,0.0121 29.91873,15.44733 29.91873,20.57348 0,3.5211 -5.64068,1.27551 -18.55064,-7.38511 z"
             style="fill:#000000;fill-opacity:1;stroke-width:2.02030516" />
          <path
             transform="matrix(0.4352122,0,0,0.3589808,53.494543,-75.853917)"
             inkscape:connector-curvature="0"
             id="path1212"
             d="m 639.40574,1060.0044 c 3.23104,-8.42 11.61995,-36.5429 11.61995,-38.9546 0,-1.5371 0.97307,-5.354 2.16237,-8.482 1.69348,-4.4541 2.51348,-5.0303 3.78155,-2.6569 5.83026,10.9119 3.68719,27.966 -5.10936,40.6595 -5.82609,8.407 -14.61516,15.0645 -12.45451,9.434 z"
             style="fill:#000000;fill-opacity:1;stroke-width:2.02030516" />
          <path
             transform="matrix(0.4352122,0,0,0.3589808,53.494543,-75.853917)"
             inkscape:connector-curvature="0"
             id="path1214"
             d="m 453.03758,1177.3385 c 0.006,-2.6812 11.98863,-44.731 13.04819,-45.7906 2.10509,-2.1051 5.06836,4.1076 5.10024,10.693 0.0336,6.9484 -9.80933,28.9472 -14.79982,33.0773 -1.84272,1.525 -3.34959,2.4341 -3.34861,2.0203 z"
             style="fill:#000000;fill-opacity:1;stroke-width:2.02030516" />
          <path
             transform="matrix(0.4352122,0,0,0.3589808,53.494543,-75.853917)"
             inkscape:connector-curvature="0"
             id="path1216"
             d="m 188.46767,1187.6977 c -0.0439,-15.7407 1.67071,-23.8559 4.19812,-19.8687 2.87449,4.5346 2.04152,24.7996 -1.19525,29.079 -2.70692,3.5789 -2.96941,2.7738 -3.00287,-9.2103 z"
             style="fill:#000000;fill-opacity:1;stroke-width:2.02030516" />
          <path
             transform="matrix(0.4352122,0,0,0.3589808,53.494543,-75.853917)"
             inkscape:connector-curvature="0"
             id="path1218"
             d="m 233.13301,1046.5514 c -6.83776,-7.0714 -12.4323,-13.6626 -12.4323,-14.6472 0,-6.7364 17.92148,6.1201 23.45941,16.8293 5.91961,11.4473 1.2606,10.5253 -11.02711,-2.1821 z"
             style="fill:#000000;fill-opacity:1;stroke-width:2.02030516" />
          <path
             transform="matrix(0.4352122,0,0,0.3589808,53.494543,-75.853917)"
             inkscape:connector-curvature="0"
             id="path1220"
             d="m 309.59413,937.21104 c -1.66675,-1.06 -9.57886,-3.47505 -17.58247,-5.36678 -14.99911,-3.54518 -16.88522,-5.48832 -7.19612,-7.41373 8.69371,-1.7276 21.80362,2.44043 27.99171,8.89941 5.53432,5.77659 3.54523,8.17921 -3.21312,3.8811 z"
             style="fill:#000000;fill-opacity:1;stroke-width:2.02030516" />
          <path
             transform="matrix(0.4352122,0,0,0.3589808,53.494543,-75.853917)"
             inkscape:connector-curvature="0"
             id="path1222"
             d="m 119.68545,1033.8649 c -2.77792,-1.1297 -12.62992,-3.7267 -21.893342,-5.7712 -9.263421,-2.0446 -17.445657,-4.3539 -18.182746,-5.1318 -0.73709,-0.7779 6.425086,-1.0236 15.915947,-0.546 16.923181,0.8518 36.281971,7.2112 36.281971,11.9189 0,2.3689 -5.68231,2.1487 -12.12183,-0.4699 z"
             style="fill:#000000;fill-opacity:1;stroke-width:2.02030516" />
        </g>
      </g>
    </g>
  </g>
</svg>
