<svg xmlns="http://www.w3.org/2000/svg" xmlns:xlink="http://www.w3.org/1999/xlink" id="Layer_1" x="0" y="0" version="1.1" viewBox="0 0 500 500" xml:space="preserve" style="enable-background:new 0 0 500 500"><style type="text/css">.st17{display:none;fill:#d1a982}.st32{fill:#fff}.st130{fill:#76b900}.st131{fill:#285600}.st141{fill:#b2e5a0}.st142{fill:#457e00}.st143{fill:#538c17}.st144{fill:#609a1a}.st145{fill:#6ca81e}</style><rect width="6576.8" height="1230.5" x="-5743.9" y="-365.3" class="st17"/><path d="M194,25.7L194,25.7L194,25.7c-20.5,0-41.2,3.5-61.6,10.4c-38,12.9-70.2,36.3-90.7,66.1	c-15.1,22-22.8,45.6-22.6,68.8c0.1,13.2-2.7,26.3-7.6,38.5c-5.4,13.7-8.2,27.8-8.2,42.4c0,26,9.3,51.7,26.8,74.4	c12.4,16.1,29.2,30.8,49,43.1c8,5,15.1,11.3,20.9,18.8c12.3,16.1,28.7,34.6,48.4,50.4c32.6,26.3,66.8,39.7,101.5,39.7	c33.6,0,65.4-16.3,68.9-18.1c30.4-16.1,59.8-43.1,85.8-78.5c4.7-6.4,10.6-11.9,17.4-16.1c19.8-12.2,36.5-26.8,48.8-42.8	c17-22.1,25.9-47.1,25.9-72.4c0-14-2.6-27.6-7.8-40.8c-4.8-12.3-7.1-25.3-7.1-38.5c0-6.7-0.6-13.6-1.9-20.5	c-3.1-16.6-10-32.7-20.4-47.9c-20.5-30-52.8-53.7-90.9-66.5c-20.3-6.9-41-10.4-61.6-10.4c-12.1,0-24.1,1.3-35.5,3.7	c-13.6,3-27.7,3-41.4,0.3C212.2,26.3,194,25.7,194,25.7z" class="st131"/><path d="M393.6,352.1c46.6-23.9,76.6-60.6,76.6-101.8c0-19-6.3-37.4-18.5-54.4C468.8,144.4,427.6,84,359.5,61	c-17.8-6-35.9-9-53.3-9c-20,0-39,3.9-55.7,11.7c-4.1-1.9-8.4-3.7-12.9-5.2c-13.4-4.4-27.9-6.6-42.8-6.6c-17.5,0-35.6,3-53.3,9	C108.7,72.1,81,92.1,63.6,117.3c-17.5,25.4-22.6,53-14.4,78c-12.8,17.7-19.4,36.7-19.4,56.5c0,42.6,31.1,80.5,79.5,105.1	C134,393,184.4,452,249.9,452c28.4,0,57.2-15.2,57.2-15.2C338,420.5,368,390.9,393.6,352.1z" class="st130"/><path d="M71.6,162.1c-0.3,0-0.6,0-0.8-0.1c-2.1-0.5-3.4-2.5-3-4.6c4.3-19.4,17.3-38.4,36.6-53.5c1.7-1.3,4.1-1,5.5,0.7	c1.3,1.7,1,4.1-0.7,5.5c-17.9,14-29.9,31.4-33.8,49.1C75,160.8,73.4,162.1,71.6,162.1z" class="st32"/><path d="M64.7,290.7c-1.3,0-2.6-0.7-3.3-1.9c-7.2-11.9-10.8-24.4-10.8-37c0-2.1,1.7-3.9,3.9-3.9s3.9,1.7,3.9,3.9	c0,11.2,3.3,22.3,9.7,33c1.1,1.8,0.5,4.2-1.3,5.3C66.1,290.6,65.4,290.7,64.7,290.7z" class="st32"/><path d="M131.7,244.4c-0.2,0-20.4,3.1-40,11.3c-0.5,0.2-1,0.3-1.5,0.3c-1.5,0-3-0.9-3.6-2.4c-0.8-2,0.1-4.3,2.1-5.1	c14.1-5.8,28.1-9.2,35.8-10.7L131.7,244.4z" class="st141"/><path d="M155.9,264.5c-7.7,3.8-38.8,19.9-58.9,44.6c-1.4,1.7-1.1,4.1,0.6,5.5c0.7,0.6,1.6,0.9,2.4,0.9	c1.1,0,2.3-0.5,3-1.4c19.4-23.9,50.9-40,56.8-42.8C157.7,269.6,156.3,267.1,155.9,264.5z" class="st141"/><path d="M183,292.8c-3.6,4.2-19,22.9-23.8,41.4c-0.5,2.1,0.7,4.2,2.8,4.7c0.3,0.1,0.7,0.1,1,0.1	c1.7,0,3.3-1.2,3.8-2.9c4.3-16.5,18.5-34,22-38.1C185.9,297.2,184,295.2,183,292.8z" class="st141"/><path d="M437.9,268.1c-0.8,0-1.6-0.3-2.3-0.8c-22.6-16.9-60.7-22.9-61.1-22.9c-2.1-0.3-3.6-2.3-3.3-4.4	c0.3-2.1,2.3-3.6,4.4-3.3c1.6,0.2,40.5,6.3,64.6,24.4c1.7,1.3,2.1,3.7,0.8,5.4C440.3,267.6,439.1,268.1,437.9,268.1z" class="st141"/><path d="M406.1,315.4c-1.1,0-2.3-0.5-3-1.4c-21.4-26.4-57.4-43.1-57.8-43.3c-2-0.9-2.8-3.2-1.9-5.2	c0.9-2,3.2-2.8,5.2-1.9c1.5,0.7,38.1,17.7,60.6,45.5c1.4,1.7,1.1,4.1-0.6,5.5C407.8,315.2,407,315.4,406.1,315.4z" class="st141"/><path d="M343.2,339.1c-1.7,0-3.3-1.2-3.8-2.9c-4.9-18.8-22.6-38.9-22.8-39.1c-1.4-1.6-1.3-4.1,0.3-5.5	c1.6-1.4,4.1-1.3,5.5,0.3c0.8,0.9,19.2,21.7,24.5,42.3c0.5,2.1-0.7,4.2-2.8,4.7C343.9,339.1,343.5,339.1,343.2,339.1z" class="st141"/><path d="M152.2,189.4c-17.9-18.8-34.7-28.2-47.6-32.8c-2-0.7-4.2,0.3-5,2.3c-0.7,2,0.3,4.2,2.3,5	c18.4,6.6,34.2,19.6,47.2,33.9C149.5,194.7,150.6,191.9,152.2,189.4z" class="st141"/><path d="M185.1,155.3c-2.4-4.7-4.9-9.1-7.6-13.3c-10.9-16.9-22-26-29.4-30.7c-1.8-1.2-4.2-0.6-5.4,1.2	s-0.6,4.2,1.2,5.4c7.6,4.8,21.9,16.5,34.5,41.4C180.4,157.5,182.7,156.2,185.1,155.3z" class="st141"/><path d="M420.5,140.9c-0.7-2-3-3.1-5-2.3c-17.7,6.4-42.8,21.7-68.1,58.2c1.7,2.8,2.7,6.1,3.1,9.5	c14.8-22.4,38-49.7,67.6-60.4C420.2,145.2,421.2,143,420.5,140.9z" class="st141"/><path d="M384,109.9c-0.8-2-3-3-5-2.3c-1.5,0.6-28,11.1-47.7,55.7c2.4,1.4,4.5,3.2,6.2,5.3	c5.2-12.1,11.8-23.9,20.3-34.1c12.7-15.2,23.7-19.6,23.9-19.7C383.7,114.1,384.7,111.9,384,109.9z" class="st141"/><path d="M227.7,138.5c0.8,0,1.6,0,2.4,0.1C226,101,209.9,85,208.9,84c-1.6-1.5-4-1.4-5.5,0.1c-1.5,1.6-1.4,4,0.1,5.5	c0.2,0.2,14.9,14.7,18.8,49.7C224,138.8,225.9,138.5,227.7,138.5z" class="st141"/><path d="M324.4,199c-1.5,0-2.8-0.8-3.5-2.2c-3.9-8.3-11.3-15.9-21.3-21.9c-1.8-1.1-2.4-3.5-1.3-5.3	c1.1-1.8,3.5-2.4,5.3-1.3c11.3,6.8,19.8,15.5,24.4,25.2c0.9,1.9,0.1,4.3-1.8,5.2C325.6,198.8,325,199,324.4,199z" class="st32"/><path d="M299,266.8c-8.5,16-20.6,44.2-25.4,81.3c2.3-0.9,4.8-1.4,7.3-1.4c0.2,0,0.5,0,0.7,0	c6.4-45.7,24.6-77.7,30.6-87.3C308.8,263.3,304,266,299,266.8z" class="st141"/><path d="M198.4,226.8c-1.5,0-3-0.9-3.6-2.4c-8.1-19.2-19.3-23.1-19.4-23.1c-2.1-0.6-3.2-2.8-2.6-4.9	c0.6-2.1,2.8-3.2,4.9-2.6c0.6,0.2,14.6,4.7,24.3,27.6c0.8,2-0.1,4.3-2.1,5.1C199.4,226.7,198.9,226.8,198.4,226.8z" class="st141"/><path d="M238.7,214.9c-1.9,0-3.6-1.5-3.9-3.4l-3.4-29.1c-0.2-2.1,1.3-4.1,3.4-4.3c2.1-0.2,4.1,1.3,4.3,3.4l3.4,29.1	c0.2,2.1-1.3,4.1-3.4,4.3C239,214.9,238.8,214.9,238.7,214.9z" class="st141"/><path d="M218.5,219.2c-1.7,0-3.2-1.1-3.7-2.8l-4.1-13.9c-0.6-2.1,0.6-4.2,2.6-4.8c2.1-0.6,4.2,0.6,4.8,2.6l4.1,13.9	c0.6,2.1-0.6,4.2-2.6,4.8C219.2,219.2,218.9,219.2,218.5,219.2z" class="st141"/><path d="M211.7,332.2c-0.7,0-1.5-0.2-2.1-0.6c-1.8-1.2-2.3-3.6-1.1-5.4c9.8-14.8,18.7-26,24.5-32.7	c5.5-6.5,13.4-10.5,22.2-11.5c33.8-3.7,59.4-25.4,59.4-50.3c0-28.1-31.3-50.9-69.9-50.9c-14.5,0-28.4,3.2-40.2,9.3	c-1.9,1-4.3,0.2-5.2-1.7c-1-1.9-0.2-4.3,1.7-5.2c12.9-6.7,28.1-10.2,43.8-10.2c42.8,0,77.6,26.3,77.6,58.7	c0,14.4-6.9,28.2-19.4,38.9c-12.1,10.4-28.8,17.2-46.8,19.2c-6.8,0.8-12.9,3.9-17.1,8.8c-5.6,6.5-14.3,17.4-23.9,31.9	C214.2,331.6,212.9,332.2,211.7,332.2z" class="st142"/><path d="M245.5,270.1c-15.6,0-27.9-7.5-27.9-17s12.2-17,27.9-17s27.9,7.5,27.9,17S261.2,270.1,245.5,270.1z M245.5,243.9c-11.5,0-20.1,4.9-20.1,9.2s8.6,9.2,20.1,9.2c11.5,0,20.1-4.9,20.1-9.2S257,243.9,245.5,243.9z" class="st142"/><circle cx="122.5" cy="96.8" r="3.9" class="st32"/><circle cx="284.7" cy="163.1" r="3.9" class="st32"/><circle cx="254.4" cy="253.4" r="3.9" class="st32"/><path d="M354.4,110.2c-0.7,0-1.4-0.2-2.1-0.6c-0.3-0.2-22.1-13.8-50.5-17.1c-2.1-0.2-3.7-2.2-3.4-4.3s2.2-3.7,4.3-3.4	c30.3,3.5,52.9,17.6,53.8,18.2c1.8,1.1,2.4,3.5,1.2,5.4C357,109.6,355.7,110.2,354.4,110.2z" class="st32"/><path d="M171.8,423.8c13.7,10,28.9,18.4,45.3,23.3h63.8c15.1-4.4,26.2-10.3,26.2-10.3c7-3.7,13.9-8.1,20.7-13.1H171.8	z" class="st143"/><path d="M354.8,400.4H144.9c8.1,8.2,17.1,16.2,26.8,23.3h156.1C337,417.1,346,409.3,354.8,400.4z" class="st144"/><path d="M258.3,377.1c-0.6,4.5-3.8,8.6-9.7,8.6c-4.4,0-7.3-2.3-8.8-5.4h-42.4c-3.3,0-5.8-1.3-7.5-3.3h-65.7	c6.1,7.6,13,15.6,20.7,23.3h209.9c7.1-7.1,14-14.9,20.7-23.3H258.3z" class="st145"/><path d="M251.2,448.3c-14.8-25.1-23.3-48.4-28.1-66.1c-1.3,0.3-2.7,0.4-4.1,0.4c-1.4,0-2.7-0.1-4-0.4	c3.1,11.9,7.9,26.3,15.1,42.2c1.6,3.6-2.7,6.9-5.7,4.4c-26.1-21.5-41.2-42-47-50.8c-1.3,0.3-2.6,0.4-4,0.4c-1.9,0-3.7-0.2-5.4-0.7	c2.7,4.7,25.7,42.6,77.5,76.1L251.2,448.3z" class="st141"/><path d="M460.9,206c-3.8-6.8-5.3-14.7-4-22.5c3.8-22.2-2.2-45.8-17.3-67.8c-17.6-25.5-45.5-45.8-78.7-57	c-34.6-11.7-70.5-12.1-100.3-1.4c-6.6,2.4-13.8,2.4-20.5,0C211.1,47,175,46.9,140.1,58.7c-33.2,11.2-61.1,31.4-78.7,57	c-15.7,22.8-21.5,47.4-16.8,70.2c1.2,5.7,0,11.7-3,16.7c-9.5,15.6-14.4,32.1-14.4,49.2c0,36.5,22.2,70.7,62.6,96.2	c1.3,0.8,2.6,1.6,3.9,2.4c6.2,3.7,11.6,8.6,15.9,14.4c16.8,22.9,35.4,42.3,54.4,56.8c28.3,21.6,57.2,32.6,86.1,32.6	c29.6,0,59.2-11.5,88.2-34.2c19.4-15.2,38.2-35.4,55.2-59.2c4.7-6.5,10.6-12.1,17.4-16.4c7.4-4.6,14.3-9.6,20.7-15	c27.1-22.9,41.4-50.4,41.4-79.4C472.8,234.9,468.8,220.1,460.9,206z M67.8,120.1c16.6-24.2,43.2-43.3,74.8-54	c53.1-18,108.8-7.3,135.3,26c7.8,9.8,8.8,23.7,2.5,35.5v0c-1.9,3.5-5.7,5.5-9.6,4.9c-6.7-1-13.6-1.6-20.7-1.6	c-23,0-44.8,5.5-63.1,15.8c-17.9,10.1-31.3,24.6-37.7,40.7c-5.2,13-2.6,27.8,6.7,38.6c5.2,6,10.4,11.4,15.6,16.1	c3.3,2.9,4.3,7.5,2.8,11.6c-1.4,3.7-2.3,7.3-2.7,11c-0.4,3-4,4.3-6.3,2.2c-39.5-36.9-80.5-59.2-100.6-68.9	c-7.2-3.5-12.1-10.3-13.1-18.3C47.7,146.8,67.8,120.1,67.8,120.1z M35,251.9c0-12.9,3-25.5,9-37.6c3.9-8,13.6-11.2,21.6-7.2	C93.4,221,151.5,254.6,196,311.7c1.4,1.7,3.9,2,5.6,0.5c1.6-1.4,1.7-3.8,0.4-5.5c-5.7-7.3-11.7-14.3-17.8-20.8	c-2.4-2.6-4.1-5.9-4.7-9.4c-1.6-8.6,0.4-18.1,5.5-27.2c6.7-12,18.4-22,32.7-28.3c14.3-6.3,29.6-8.1,43-5c13,3,22.6,10.2,27,20.3	c0.9,2,3.2,2.9,5.1,2c2-0.9,2.9-3.2,2-5.1c-5.5-12.4-17-21.2-32.4-24.8c-15-3.5-32-1.5-47.8,5.5c-11,4.9-20.6,11.8-28,20	c-3.1,3.5-8.4,3.8-11.8,0.6c-4.3-4-8.6-8.5-13-13.6c-7.4-8.7-9.5-20.4-5.4-30.7c12.1-30.4,50.5-51.7,93.5-51.7	c53.7,0,97.3,32.1,97.4,71.7c0,2.1,1.6,3.9,3.7,4c2.3,0.1,4.1-1.7,4.1-3.9c0-33.3-27.2-61.9-65.7-73.8c-2.3-0.7-3.4-3.3-2.3-5.4l0,0	c7.8-14.5,6.5-31.8-3.2-44c-5-6.3-10.9-11.8-17.6-16.5c-2.9-2-2.2-6.5,1.1-7.5c27.3-8.6,59.6-7.7,91,2.9	c31.6,10.7,58.1,29.9,74.8,54c0,0,16.5,24.6,15.6,55.7c-0.3,9.8-5.9,18.7-14.7,23c-1.3,0.6-2.7,1.3-4.2,2.1	c-5.7,2.9-12.7,1-16.1-4.5c-27-43-67.1-65.8-68.9-66.8c-1.9-1-4.2-0.4-5.3,1.5c-1,1.9-0.4,4.2,1.5,5.3c0.4,0.2,39.2,22.3,65.2,62.8	c3.7,5.8,1.9,13.6-4,17.2c-29.5,18.1-68,46.7-99.6,87.2c-1.8,2.1-27.1,32.3-46.4,75.2c-1.4,3.1-4.9,4.6-8.1,3.4	c-1.3-0.5-2.5-0.9-3.6-1.2c-1.9-0.6-3.3-2-4-3.9c-6.8-19.1-15.7-32.9-16.1-33.6c-1.2-1.8-3.6-2.3-5.4-1.1c-1.8,1.2-2.3,3.6-1.1,5.4	c0.1,0.1,6.5,10.2,12.5,24.6c1.4,3.3-1.1,6.9-4.7,6.8C119.4,375.1,35,319.5,35,251.9z M250,446.6c-27.1,0-54.5-10.4-81.4-31	c-13.7-10.5-27.2-23.6-39.9-38.8c-3-3.6,0.6-8.9,5-7.3c29.4,10.8,62.6,16.8,97.2,17.6c6,0.1,11.9,1.3,17.5,3.6	c13.6,5.5,37.1,18.2,51.8,43.9C283.5,442.5,266.6,446.6,250,446.6z M426.4,323.7c-24.8,21-60.2,36.9-99.6,44.7	c-2,0.4-3.5,2.2-3.3,4.2c0.2,2.3,2.4,3.9,4.6,3.4c15.1-3,29.4-7,42.7-12c4.3-1.6,8.1,3.5,5.2,7.1c-21.5,27-44.9,47.3-68.7,60	c-12.9-22.8-31.8-36.1-46.4-43.4c19.3-45.4,47.6-78.8,47.8-79.1l0.1-0.1c42.8-54.8,98.4-87.4,125.8-101.2c8.1-4.1,18.2-0.8,22.1,7.4	c5.5,11.5,8.3,23.4,8.3,35.6C465,276.9,451.7,302.3,426.4,323.7z" class="st142"/></svg>