<?xml version="1.0" encoding="UTF-8"?>
<svg enable-background="new 0 0 250 250" version="1.1" viewBox="0 0 250 250" xml:space="preserve" xmlns="http://www.w3.org/2000/svg"><style type="text/css">.st0{fill:#6da000}.st2{fill:#255c00}.st16{clip-path:url(#SVGID_2_)}.st35{fill:#fff}.st122{fill:#a8c56b}</style><polygon class="st0" points="104.8 238.7 128.3 238.7 128.3 196.3 146.1 181.2 184.8 181.5 221.8 168.8 239.3 129.8 239.9 99.5 200.3 89.8 166.7 95.8 146.8 121 129.7 143.2 129.7 81.4 136.4 69.9 170.3 55.5 177.1 33.3 169.7 6.7 139.8 10.8 122.3 23.5 118.6 50.4 105.5 66.9 100.8 93.8 77.2 59.5 49 52.4 13 59.2 11.7 87.4 26.5 118 53.4 129.4 89 132.5 103.8 144.6"/><path class="st2" d="m157.2 12.5c0.6 0 1.3 0.2 1.8 0.7 0.4 0.3 0.7 0.7 0.8 1.2 0.1 0.3 0.4 0.5 0.8 0.5 0.2 0 0.5-0.1 0.7-0.3l0.1-0.1c0.8-0.9 1.9-1.4 3-1.4 1.8 0 3.6 1.2 4.1 3.8 0.2 1-0.3 2-1.1 2.7-0.5 0.5-0.3 1.3 0.3 1.5 0.5 0.1 0.9 0.3 1.3 0.6 1.2 1.1 1.3 2.9 0.3 4.1 0 0-0.6 0.6-1.5 1.7-0.4 0.5-0.2 1.2 0.4 1.4 0.4 0.2 0.8 0.4 1.1 0.7 1.1 1.2 1 3-0.2 4.1 0 0-0.9 0.9-2.5 2.2-0.5 0.4-0.4 1.2 0.2 1.5 0.4 0.2 0.8 0.5 1.1 0.9 1 1.3 0.7 3.1-0.6 4.1-0.1 0.1-0.9 0.7-2.2 1.6-0.5 0.3-0.5 1-0.1 1.4 0.3 0.2 0.5 0.5 0.7 0.8 0.7 1.2 0.4 2.7-0.7 3.7-8.3 7.3-18.5 11-27.1 12.7-2.9 0.6-5.4 2-7.3 4.3l-2.7 3.1c-3.2 3.8-5 8.7-5 13.7v82.1c0 3.1 3.5 5 6.1 3.2l4.5-3.1c3.7-2.5 6.2-6.3 7.2-10.7 3.9-17.3 12.5-39.7 28.4-53.7 1.4-1.3 3.1-2.2 4.8-2.2 0.9 0 1.7 0.2 2.5 0.8 0.6 0.4 1 0.9 1.4 1.4 0.3 0.5 0.8 0.7 1.4 0.7 0.4 0 0.8-0.2 1.2-0.5 1.9-2.2 3-3.5 3.3-3.7 1-1.1 2.5-1.7 3.9-1.7 1.3 0 2.5 0.5 3.5 1.4 0.7 0.6 1.1 1.4 1.4 2.1 0.2 0.7 0.9 1.1 1.5 1.1 0.4 0 0.7-0.1 1-0.4 2.8-2.6 4.4-4.1 4.5-4.1 1-0.9 2.2-1.3 3.5-1.3 1.4 0 2.9 0.6 3.9 1.8 0.6 0.6 0.9 1.4 1.1 2.1 0.2 0.8 0.9 1.2 1.5 1.2 0.3 0 0.6-0.1 0.9-0.3 2.1-1.6 3.3-2.4 3.3-2.5 0.9-0.7 2-1 3.1-1 1.6 0 3.2 0.8 4.3 2.2 0.5 0.8 0.8 1.6 0.9 2.4s0.8 1.3 1.5 1.3c0.3 0 0.6-0.1 0.9-0.3l0.2-0.2c1.2-0.8 2.6-1.2 4-1.2 3.9 0 7.6 3.2 7.1 8.9-0.2 1.8-1.5 3.2-3.1 3.9-1.2 0.5-1.2 2.2-0.2 2.8 0.7 0.4 1.4 1 2 1.7 1.6 2.4 0.9 5.7-1.5 7.3-0.1 0-1.3 0.8-3.5 2.2-0.9 0.6-1 2-0.1 2.6 0.7 0.5 1.2 1.1 1.6 1.8 1.3 2.6 0.4 5.7-2.2 7.1-0.1 0-2 1-5.4 2.7-1 0.5-1.2 1.9-0.3 2.6 0.7 0.5 1.2 1.2 1.5 2.1 1.1 2.7-0.2 5.7-2.9 6.8-0.3 0.1-1.9 0.8-4.6 1.7-1 0.4-1.3 1.6-0.7 2.4 0.4 0.5 0.6 1.1 0.8 1.7 0.7 2.4-0.7 5-2.9 6.1-14.6 7.2-30.4 9.6-44.3 9.6-6.1 0-11.9-0.5-17-1.2-4.4-0.6-9 0.4-12.6 2.9l-11.3 7.8c-3.8 2.6-6 6.9-6 11.5v34.6c0 3.5-2.7 6.5-6.1 6.6-3.6 0.1-6.5-2.8-6.5-6.3v-85.8c0-4.6-2.3-8.9-6-11.5l-8.4-5.8c-3.6-2.5-7.9-3.5-12.3-3-3.8 0.5-8 0.8-12.4 0.8-11.8 0-25.3-2.1-37.7-8.2-1.9-0.9-3-3.1-2.4-5.1 0.1-0.5 0.4-1 0.7-1.4 0.5-0.7 0.3-1.8-0.6-2.1-2.3-0.8-3.7-1.4-3.9-1.5-2.3-0.9-3.4-3.5-2.5-5.8 0.3-0.7 0.7-1.3 1.3-1.8 0.8-0.6 0.6-1.8-0.3-2.3-2.9-1.4-4.5-2.3-4.6-2.3-2.2-1.1-3-3.8-1.9-6 0.3-0.6 0.8-1.1 1.4-1.5 0.8-0.6 0.8-1.7 0-2.2-1.9-1.2-2.9-1.9-3-1.9-2.1-1.4-2.6-4.1-1.3-6.2 0.5-0.6 1-1.1 1.7-1.4 0.9-0.5 0.9-1.8 0-2.3-1.6-1-2.9-2.6-2.8-4.5 0.1-4.1 3-6.5 6.1-6.5 1.2 0 2.3 0.3 3.4 1.1l0.2 0.1c0.2 0.2 0.5 0.2 0.8 0.2 0.6 0 1.2-0.4 1.3-1.1s0.3-1.4 0.8-2.1c0.9-1.2 2.2-1.9 3.6-1.9 0.9 0 1.8 0.3 2.6 0.8 0.1 0 1.1 0.8 2.8 2.1 0.2 0.2 0.5 0.3 0.8 0.3 0.6 0 1.1-0.4 1.3-1 0.2-0.7 0.5-1.3 1-1.8 0.9-1 2.1-1.5 3.3-1.5 1.1 0 2.1 0.4 3 1.1 0.1 0.1 1.4 1.3 3.8 3.5 0.3 0.2 0.6 0.4 0.9 0.4 0.6 0 1.1-0.4 1.3-1 0.2-0.7 0.6-1.3 1.2-1.8 0.9-0.8 1.9-1.2 3-1.2 1.2 0 2.4 0.5 3.3 1.5 0.2 0.2 1.2 1.3 2.8 3.1 0.3 0.3 0.6 0.5 1 0.5s0.9-0.2 1.2-0.6c0.3-0.5 0.7-0.9 1.2-1.2 0.7-0.5 1.4-0.7 2.1-0.7 1.4 0 2.8 0.8 4.1 1.9 12.9 11.3 20.1 29.1 23.6 43.5 1 4.2 3.5 7.9 7.1 10.4l1.5 1c2.6 1.8 6.1-0.1 6.1-3.2v-35.6c0-5 1.8-9.9 5-13.7l5.8-6.9c1.9-2.2 2.9-5 3-8 0.2-9.1 2-19.9 7.5-28.2 0.7-1.1 1.7-1.9 2.9-1.9 0.3 0 0.5 0 0.8 0.1 0.4 0.1 0.7 0.3 1 0.6 0.2 0.2 0.4 0.2 0.6 0.2 0.3 0 0.6-0.2 0.8-0.5 0.7-1.4 1.1-2.3 1.2-2.5 0.5-1 1.5-1.6 2.6-1.6 0.4 0 0.9 0.1 1.3 0.3s0.8 0.6 1.1 0.9c0.2 0.3 0.5 0.4 0.8 0.4s0.6-0.1 0.7-0.4c1.1-1.8 1.8-2.8 1.8-2.9 0.6-0.9 1.5-1.3 2.4-1.3 0.5 0 1.1 0.2 1.6 0.5 0.4 0.3 0.7 0.6 0.9 1 0.2 0.3 0.5 0.5 0.8 0.5 0.2 0 0.5-0.1 0.7-0.3 0.9-1.1 1.4-1.8 1.4-1.8 0.2-0.6 1-1 1.9-1m73.2 76.5c-1.4-0.2-2.8-0.7-4-1.5-2.8-1.9-6.2-3-9.6-3-1.2 0-2.4 0.1-3.6 0.4s-2.4 0.1-3.6-0.4c-2.1-0.9-4.4-1.4-6.7-1.4-2.5 0-4.9 0.5-7.1 1.5-1.2 0.5-2.5 0.7-3.8 0.3-1.5-0.4-3-0.6-4.6-0.6-3 0-6 0.8-8.6 2.3-1 0.6-2.1 0.9-3.3 0.8-0.6-0.1-1.1-0.1-1.7-0.1-4.4 0-8.8 1.8-12.6 5.1-11.3 9.9-19 22.8-24.2 35.1-0.5 1.1-2.1 0.8-2.1-0.4v-43.5c0-2.3 0.8-4.5 2.3-6.2 1.7-2.1 4.1-3.5 6.7-4.1 8.4-2 19.1-6.1 28.6-14.2 3.2-2.7 5.1-6.3 5.5-10 0.1-0.8 0.4-1.6 0.7-2.3 0.8-1.5 1.3-3.1 1.6-4.8 0.1-0.8 0.2-1.6 0.1-2.4 0-1 0.2-1.9 0.5-2.8 1-2.5 1.2-5.3 0.7-8-0.1-0.8-0.2-1.7 0-2.5 0.5-2.9 0.2-5.9-1-8.6-0.3-0.6-0.5-1.3-0.5-2-0.2-3.1-1.3-6.2-3.4-8.7-3-3.8-7.5-5.9-12.3-5.9-0.5 0-1 0-1.5 0.1-0.7 0.1-1.5 0-2.2-0.1-1.1-0.3-2.3-0.4-3.5-0.4-1.7 0-3.4 0.3-4.9 0.8-0.9 0.3-1.8 0.5-2.7 0.5-2.7 0-5.3 0.7-7.6 2.1-0.9 0.5-1.8 0.8-2.8 1-2.5 0.4-4.9 1.4-6.9 3-0.6 0.5-1.3 0.8-2.1 1.1-3.4 1-6.4 3.3-8.5 6.6-6.6 9.9-8.7 21.7-9.3 30.8-0.2 2.7-1.2 5.3-2.9 7.4l-6 7.1c-3.2 3.8-5 8.7-5 13.7 0 1.2-1.5 1.6-2.1 0.5-4.1-7.5-9.5-14.9-16.4-21-3.6-3.1-7.7-4.8-11.9-4.8h-0.8c-1.1 0.1-2.1-0.2-3-0.7-2.3-1.2-5-1.9-7.7-1.9-1.2 0-2.5 0.1-3.7 0.4-1.1 0.3-2.3 0.2-3.4-0.3-1.9-0.8-4-1.2-6.1-1.2-2 0-4 0.4-5.9 1.1-1 0.4-2 0.5-3.1 0.3-0.9-0.2-1.9-0.2-2.9-0.2-3.3 0-6.4 1-9.1 2.7-0.7 0.5-1.6 0.8-2.5 0.9-6.5 0.6-12.2 4.7-14.9 10.7-1.7 3.8-1.9 8-0.8 11.9 0.2 0.9 0.2 1.8 0 2.6-0.9 4.1-0.2 8.5 2 12.2 0.5 0.8 0.8 1.9 0.8 2.9 0 4.1 1.5 8.2 4.3 11.2 0.8 0.9 1.3 1.9 1.5 3.1 0.2 1.4 0.6 2.9 1.2 4.2 1 2.3 2.4 4.2 4.2 5.8 0.8 0.7 1.3 1.6 1.7 2.6 1.4 4.4 4.7 8.3 9.5 10.5 12.3 5.8 26.8 8.9 42 8.9 3.6 0 7.2-0.2 10.8-0.5 3.5-0.3 7 0.5 9.8 2.5l0.3 0.2c3.9 2.7 6.3 7.2 6.3 12v78.8c0 9.9 7.7 18.3 17.5 18.7 10.4 0.4 18.9-7.9 18.9-18.2v-28.4c0-4.8 2.3-9.3 6.3-12l3.2-2.2c2.9-2 6.4-2.9 9.9-2.5 5.2 0.6 10.5 1 15.8 1 17.5 0 34.3-3.6 48.5-10.3 5.3-2.5 8.9-6.8 10.2-11.7 0.3-1.2 1-2.2 2-3 2.1-1.7 3.7-3.9 4.8-6.5 0.7-1.7 1.2-3.5 1.3-5.2 0.1-1.3 0.7-2.5 1.6-3.4 3.4-3.4 5.2-8.1 5-12.9-0.1-1.2 0.3-2.4 0.9-3.5 1.1-1.8 1.9-3.7 2.4-5.9 0.5-2.7 0.4-5.4-0.2-7.9-0.3-1-0.3-2.1 0.1-3.2 1.3-4.2 1.2-8.8-0.7-13-1.7-3.9-4.6-7-8.2-9-2.4-1.2-5.4-1.8-7.5-2.1zm-58.6-62.5z"/><path class="st122" d="m161.9 33.9c0-1.3-1.1-2.2-2.3-2l-3.8 0.6c-0.8 0.1-1.3-0.8-0.8-1.4l5.2-6.2c0.6-0.8 0.7-1.9 0.1-2.6-0.8-1-2.3-0.9-3 0l-14 16.6c-0.6 0.7-1.7 0.3-1.7-0.6v-6.9c0-1.1-0.9-2-2-2s-2 0.9-2 2l-0.1 11.2c0 2-0.7 3.9-2 5.4l-9.4 11.2c-0.7 0.9-0.7 2.2 0.2 2.9 0.4 0.3 0.8 0.4 1.2 0.4 0.6 0 1.1-0.2 1.5-0.7l0.8-0.9c1.9-2.2 4.4-3.7 7.3-4.2l16.6-3.2c1-0.2 1.8-1.1 1.7-2.1-0.1-1.2-1.2-2-2.3-1.8l-13.6 2.6c-0.9 0.2-1.5-0.9-0.9-1.6l0.3-0.4c1.2-1.5 3-2.5 4.8-2.9l13.3-2.7c1-0.2 1.8-1.1 1.7-2.2-0.1-1.2-1.2-2-2.4-1.8l-8.7 1.7c-0.9 0.2-1.5-0.9-0.9-1.6l1.1-1.3c1.2-1.4 2.8-2.3 4.5-2.6l7.9-1.3c0.9 0.2 1.7-0.6 1.7-1.6z"/><path class="st35" d="m147.8 28c-1.1 0-2-0.9-2-1.9v-0.9c0-1.1 0.8-2 1.9-2s2 0.8 2 1.9v0.9c0.1 1-0.7 2-1.9 2 0.1 0 0 0 0 0z"/><path class="st122" d="m40.3 83.1c-0.7 0-1.5-0.4-1.8-1.1l-7.7-16.6c-0.5-1 0-2.2 1-2.6 1-0.5 2.2 0 2.6 1l7.7 16.6c0.5 1 0 2.2-1 2.6-0.2 0-0.5 0.1-0.8 0.1z"/><path class="st122" d="m57.5 95c-0.7 0-1.5-0.4-1.8-1.1l-10.1-21.9c-0.5-1 0-2.2 1-2.6 1-0.5 2.2 0 2.6 1l10.1 21.8c0.5 1 0 2.2-1 2.6-0.2 0.1-0.5 0.2-0.8 0.2z"/><path class="st35" d="m44.6 67.2c-0.7 0-1.5-0.4-1.8-1.1l-0.4-1c-0.5-1 0-2.2 1-2.6 1-0.5 2.2 0 2.6 1l0.4 1c0.5 1 0 2.2-1 2.6-0.2 0.1-0.5 0.1-0.8 0.1z"/><path class="st122" d="m40.1 83.4h-0.1l-18.2-1.4c-1.1-0.1-1.9-1-1.8-2.1s1.1-1.9 2.1-1.8l18.2 1.4c1.1 0.1 1.9 1 1.8 2.1-0.2 1.1-1 1.8-2 1.8z"/><path class="st122" d="m57.3 95.3h-0.1l-31.6-2.3c-1.1-0.1-1.9-1-1.8-2.1s1.1-1.9 2.1-1.8l31.5 2.4c1.1 0.1 1.9 1 1.8 2.1 0 0.9-0.9 1.7-1.9 1.7z"/><path class="st122" d="m113.9 90.4c-1 0.2-1.6 1.1-1.6 2.1v34.2c0 0.9-1 1.4-1.7 0.9l-11.4-7.8c-2.7-1.9-4.9-4.4-6.2-7.4l-20-43.5c-0.5-1-1.6-1.4-2.6-1-1 0.5-1.4 1.6-1 2.6l17.8 38.7c0.4 0.9-0.6 1.8-1.4 1.2l-4.2-2.9c-2.7-1.9-4.8-4.4-6.2-7.4l-16.4-35.1c-0.5-1.1-1.9-1.5-2.9-0.8-0.8 0.6-1 1.7-0.6 2.6l14 30.2c0.4 0.9-0.6 1.8-1.4 1.2-0.7-0.5-1.7-0.6-2.4 0-1.1 0.9-1 2.5 0.1 3.2 0 0 0.7 0.4 0.6 1-0.1 0.7-1 0.8-1 0.8l-33.5-2.5c-1.2-0.1-2.2 0.9-2.1 2.2 0.1 1 0.9 1.7 1.9 1.8l38.5 2.9c3.3 0.2 6.4 1.3 9.1 3.2l4.3 3c0.8 0.6 0.4 1.8-0.6 1.8l-42.5-3c-1.1-0.1-2 0.7-2.1 1.8s0.7 2 1.8 2.1l47.7 3.4c3.3 0.2 6.4 1.3 9.1 3.2l16.2 11.2c0.3 0.2 0.7 0.4 1.1 0.4 0.3 0 0.6-0.1 0.9-0.2 0.7-0.3 1.1-1 1.1-1.8v-40.4c-0.1-1.2-1.2-2.1-2.4-1.9z"/><path class="st35" d="m174.4 147.2c-0.6 0-1.2-0.3-1.6-0.9-0.6-0.9-0.4-2.1 0.5-2.8l0.8-0.5c0.9-0.6 2.1-0.4 2.8 0.5 0.6 0.9 0.4 2.1-0.5 2.8l-0.8 0.5c-0.4 0.3-0.8 0.4-1.2 0.4z"/><path class="st122" d="m206.4 124.6c-0.3 0-0.6-0.1-0.8-0.2-1-0.5-1.4-1.6-1-2.6l9.1-19.5c0.5-1 1.6-1.4 2.6-1 1 0.5 1.4 1.6 1 2.6l-9.1 19.5c-0.4 0.7-1.1 1.2-1.8 1.2z"/><path class="st122" d="m186.1 138.6c-0.3 0-0.6-0.1-0.8-0.2-1-0.5-1.4-1.6-1-2.6l11.9-25.6c0.5-1 1.6-1.4 2.6-1 1 0.5 1.4 1.6 1 2.6l-11.9 25.6c-0.3 0.7-1 1.2-1.8 1.2z"/><path class="st35" d="m201.2 106.2c-0.3 0-0.6-0.1-0.8-0.2-1-0.5-1.4-1.6-1-2.6l0.7-1.4c0.5-1 1.6-1.4 2.6-1 1 0.5 1.4 1.6 1 2.6l-0.7 1.4c-0.4 0.8-1.1 1.2-1.8 1.2z"/><path class="st122" d="m206.7 125c-1 0-1.9-0.8-2-1.8-0.1-1.1 0.7-2 1.8-2.1l21.4-1.6c1.1-0.1 2 0.7 2.1 1.8s-0.7 2-1.8 2.1l-21.4 1.6h-0.1z"/><path class="st122" d="m186.4 139c-1 0-1.9-0.8-2-1.8-0.1-1.1 0.7-2 1.8-2.1l37.1-2.8c1.1-0.1 2 0.7 2.1 1.8s-0.7 2-1.8 2.1l-37.1 2.8h-0.1z"/><path class="st122" d="m216.4 146-46.6 3.5c-0.9 0.1-1.6-0.9-1.2-1.7l19.6-42.1c0.5-1.1 0-2.3-1.2-2.7-1-0.3-2.1 0.2-2.5 1.1l-19.8 42.6c-1.2 2.6-3.1 4.8-5.4 6.5l-7.1 4.9c-1 0.7-2.3-0.4-1.8-1.5l21.4-46.5c0.5-1 0-2.2-1-2.6-1-0.5-2.2 0-2.6 1l-23.6 51.4c-1.6 3.4-4.1 6.4-7.2 8.5l-20.4 14c-0.8 0.6-1.2 1.7-0.7 2.6 0.4 0.7 1.1 1.1 1.8 1.1 0.4 0 0.8-0.1 1.1-0.4l20.6-14.3c3.1-2.1 6.7-3.4 10.5-3.7l56.3-4c1.1-0.1 1.9-1 1.8-2.1s-1-1.9-2.1-1.8l-51 3.6c-1.2 0.1-1.8-1.5-0.8-2.2l7.2-5c2.4-1.6 5.1-2.6 7.9-2.8l46.9-3.5c1-0.1 1.8-0.8 1.9-1.8 0.3-1.2-0.8-2.2-2-2.1z"/><path class="st35" d="m60.2 97.2c-0.4 0-0.8-0.1-1.1-0.4l-33.6-23.2c-0.9-0.6-1.1-1.9-0.5-2.8s1.9-1.1 2.8-0.5l33.6 23.2c0.9 0.6 1.1 1.9 0.5 2.8-0.5 0.6-1.1 0.9-1.7 0.9z"/><path class="st35" d="m183.5 140.9c-0.6 0-1.2-0.3-1.6-0.9-0.6-0.9-0.4-2.1 0.5-2.8l10.3-7.1c0.9-0.6 2.1-0.4 2.8 0.5 0.6 0.9 0.4 2.1-0.5 2.8l-10.3 7.1c-0.4 0.2-0.8 0.4-1.2 0.4z"/><path class="st35" d="m202.6 127.6c-0.6 0-1.2-0.3-1.6-0.9-0.6-0.9-0.4-2.1 0.5-2.8l19.9-13.7c0.9-0.6 2.1-0.4 2.8 0.5 0.6 0.9 0.4 2.1-0.5 2.8l-19.9 13.7c-0.4 0.3-0.8 0.4-1.2 0.4z"/><path class="st122" d="m114.2 168.3c-1.1 0-2-0.9-2-2v-15.6c0-1.1 0.9-2 2-2s2 0.9 2 2v15.6c0 1.1-0.9 2-2 2z"/><path class="st122" d="m114.2 210.5c-1.1 0-2-0.9-2-2v-3c0-1.1 0.9-2 2-2s2 0.9 2 2v3c0 1.1-0.9 2-2 2z"/><path class="st122" d="m114.2 80.9c-1.1 0-2-0.9-2-2v-1.2c0-1.1 0.9-2 2-2s2 0.9 2 2v1.2c0 1.1-0.9 2-2 2z"/></svg>
