<svg xmlns="http://www.w3.org/2000/svg" xmlns:xlink="http://www.w3.org/1999/xlink" id="Layer_1" x="0" y="0" version="1.1" viewBox="0 0 500 500" xml:space="preserve" style="enable-background:new 0 0 500 500"><style type="text/css">.st4{fill:#7c9800}.st10{fill:#fff}.st52{fill:#456a0a}.st53{fill:#183300}</style><path d="M362.9,134.3c8.8-33.4,14.8-93.2-45.3-117.7l-7.7,12.9c43.1,21.6,33.2,68.5,23.1,95.5	c-76-13.5-93.6,62.4-93.6,62.4S201.5,341.7,96.4,436.3c0,0-5.3,4.7-7.1,11.3c-3.9,14.4,3.9,29.5,17.5,33.9	c47.1,15,234.6-37.3,299.9-243.8C419.5,195.9,407.3,154.4,362.9,134.3z" class="st52"/><polygon points="334.9 130.3 360.1 139.3 372.9 69.9 338.5 29.7 322.1 32.6 337.6 79.4" class="st4"/><path d="M184.1,394.4c1,1.6,0.6,3.7-1,4.7c-2.3,1.5-4.6,3.2-6.9,5c-7.7,6.2-14.5,13.4-19.6,21c-0.6,0.9-1.4,1.3-2,1.5	c-1,0.3-2,0.2-2.8-0.5c-1.7-1.1-2.1-3.2-1-4.8c5.4-8.1,12.6-15.9,21.1-22.6c2.5-1.9,5-3.7,7.5-5.3	C180.9,392.3,183,392.8,184.1,394.4L184.1,394.4z" class="st10"/><path d="M215.8,352.5c1.8,0.4,3.6-0.7,4.1-2.5c2.6-8.9,6.9-17.9,12.8-26.3c2.7-3.7,5.6-7.3,8.7-10.5	c11.6-12,18.3-28,19.6-45.2c0.5-8.4,2-17.3,4.3-26.4c1.7-6.8,4-13.7,6.7-20.6c7.1-18.5,15.3-32,25-41.4c1.4-1.3,1.4-3.6,0.1-4.9	c-1.3-1.4-3.6-1.4-4.9-0.1c-10.6,10.2-19.2,24.4-26.7,44c-2.9,7.3-5.2,14.6-7,21.9c-2.3,9.3-3.8,18.5-4.4,27.1	c-1.1,15.6-7.4,30-17.7,41c-3.4,3.5-6.5,7.4-9.3,11.4c-6.2,8.9-11,18.5-13.8,28.2C212.5,350,213.8,352,215.8,352.5L215.8,352.5z" class="st10"/><path d="M420.9,173.4c-5.5-14.6-14.7-27.4-27-37.6c-8-6.6-11.9-16.9-11-27.2c4.7-50.4-16.4-88.5-59.6-106.1L322.3,2	c-6.4-2.6-13.8-0.1-17.2,5.7l-8.9,15.1c-2,3.4-2.4,7.6-1.3,11.3c1.1,3.6,3.6,6.6,7,8.3L303,43c17.6,8.8,25.3,24.4,23.2,46.5	c-1,10-8.9,18.1-18.9,18.9c-52.2,4.3-76.8,49.4-82.7,75.3c0,0.1-0.1,0.2-0.1,0.3c-4.1,15.7-43.2,155.4-138.2,240.8l-0.2,0.1	c-2.6,2.5-9,9.2-11.6,18.6c-5.8,22.3,6.6,45.8,27.8,52.4c6.3,2,14.2,2.9,23.1,2.9c16.7,0,37.1-3.4,58.5-9.9	c25-7.6,50.6-19.2,73.9-33.5C312,422.8,384.3,359.1,421.5,242C428.9,217.7,428.6,193.9,420.9,173.4z M332.7,33.8l2.7,1.8	c17.8,12.1,27.7,32.9,26,54.3l-2.6,30.8c-0.4,4.2-4.4,7.1-8.5,6.1l-5.6-1.4c-3.6-0.9-5.8-4.4-5.1-8l6.7-33.6	c1.6-16-3.3-32-13.7-44.3l-2.5-3C328.7,34.9,330.8,32.5,332.7,33.8z M397.2,235c-34.6,108.9-101.9,168.2-152.3,198.8	c-60.1,36.5-114.9,44-134.7,38c-8.4-2.6-13.2-12.3-10.8-21.4c0.9-3,3.2-5.7,4.1-6.4c106.3-95.6,144.4-247.5,146-254	c0.5-2.2,10.2-42.1,46.5-53.2c9.6-2.9,21.4-3.9,35.2-1.3l4,0.8c3.2,0.8,6.3,1.7,9.6,2.7c14.4,4.6,25.7,11,34.5,18.4	C400,175.9,406.6,203.4,397.2,235z" class="st53"/></svg>