<svg xmlns="http://www.w3.org/2000/svg" xmlns:xlink="http://www.w3.org/1999/xlink" id="Layer_1" x="0" y="0" version="1.1" viewBox="0 0 250 250" xml:space="preserve" style="enable-background:new 0 0 250 250"><style type="text/css">.st0{fill:#81af5b}.st1{fill:#47771e}.st18{fill:#fff}.st20{clip-path:url(#SVGID_2_)}.st26{clip-path:url(#SVGID_4_)}.st34{fill:#ded1c8}.st102{fill:#0b4c0b}</style><polygon points="207.3 29.5 236.9 43.9 239.5 26.1 218.3 15.7" class="st0"/><polygon points="206.8 28.3 234.2 43.6 235.5 58.2 213 94.5 144.6 170.6 49.7 234 17 227.9 9.2 199.9 42.3 158.7 138.3 98.1 174.6 68" class="st1"/><g><g><defs><path id="SVGID_13_" d="M-72.7-83.2c10.1,9.8,25.6,10.5,37.6-1.1c11-10.6,18.2-26.1,9.3-38.1c-1-1.3-2.5-1.6-4-2.9 c-1.3-1.5-1.5-3.1-2.8-4.1c-11.7-9.2-27.4-2.4-38.3,8.2c-12,11.6-11.8,27.1-2.4,37.5L-72.7-83.2z"/></defs><clipPath id="SVGID_2_"><use xlink:href="#SVGID_13_" style="overflow:visible"/></clipPath><g class="st20"><g><defs><rect id="SVGID_17_" width="72" height="72" x="-81.8" y="-122.1"/></defs><clipPath id="SVGID_4_"><use xlink:href="#SVGID_17_" style="overflow:visible"/></clipPath><g class="st26"><g><polygon points="62.2 22.1 62.1 22 -10.1 -50.1 -9.8 -50.3 -9.7 -50.2 62.4 21.9" class="st34"/></g><g><polygon points="-9.8 22.1 -10.1 21.9 -9.9 21.8 62.2 -50.3 62.4 -50.1 62.3 -50" class="st34"/></g><g><polygon points="-12.8 19.1 -13.1 18.9 -12.9 18.8 56.2 -50.3 56.4 -50.1 56.3 -50" class="st34"/></g><g><polygon points="-12.8 13.1 -13.1 12.9 -13 12.8 50.2 -50.3 50.4 -50.1 50.3 -50" class="st34"/></g><g><polygon points="-12.9 7.1 -13.1 6.9 -13 6.8 44.2 -50.3 44.4 -50.1 44.3 -50" class="st34"/></g><g><polygon points="-12.9 1.1 -13.1 .9 -13 .8 38.2 -50.3 38.4 -50.1 38.3 -50" class="st34"/></g></g></g></g></g></g><path d="M33.5,199.3c-0.3,0-0.7-0.1-1-0.3c-0.9-0.5-1.1-1.7-0.6-2.6c1.4-2.3,3.5-4.9,6-7.7c0.7-0.8,1.9-0.8,2.6-0.1	c0.8,0.7,0.8,1.9,0.1,2.6c-2.4,2.6-4.2,5-5.6,7.2C34.8,199,34.2,199.3,33.5,199.3z" class="st0"/><path d="M52,180.4c-0.5,0-1.1-0.2-1.4-0.7c-0.7-0.8-0.6-2,0.2-2.6c1.1-1,2.3-1.9,3.5-2.9c5.7-4.7,12.3-9.7,20.8-16	c0.8-0.6,2-0.4,2.6,0.4c0.6,0.8,0.4,2-0.4,2.6c-8.4,6.2-15,11.2-20.6,15.8c-1.2,1-2.3,1.9-3.4,2.9C52.8,180.2,52.4,180.4,52,180.4z" class="st0"/><path d="M86.7,153.5c-0.6,0-1.2-0.3-1.5-0.8c-0.6-0.9-0.4-2,0.5-2.6c1.2-0.9,2.5-1.7,3.7-2.6c0.9-0.6,2-0.4,2.6,0.5	c0.6,0.9,0.4,2-0.5,2.6c-1.2,0.8-2.5,1.7-3.7,2.5C87.4,153.4,87,153.5,86.7,153.5z" class="st0"/><path d="M61.1,193c-0.6,0-1.2-0.3-1.5-0.8c-0.6-0.9-0.4-2,0.5-2.6c1.2-0.9,2.5-1.7,3.7-2.6c0.9-0.6,2-0.4,2.6,0.5	c0.6,0.9,0.4,2-0.5,2.6c-1.2,0.8-2.5,1.7-3.7,2.5C61.8,192.9,61.4,193,61.1,193z" class="st0"/><path d="M101.9,140.2c-0.6,0-1.2-0.3-1.6-0.9c-0.6-0.9-0.3-2,0.6-2.6c11.7-7.5,23.7-14.5,35.7-20.7	c0.9-0.5,2-0.1,2.5,0.8c0.5,0.9,0.1,2-0.8,2.5c-11.9,6.2-23.8,13.2-35.5,20.6C102.6,140.1,102.3,140.2,101.9,140.2z" class="st18"/><path d="M147.6,113.9c-0.6,0-1.3-0.3-1.6-0.9c-0.5-0.9-0.2-2,0.7-2.6l0.4-0.3c0.1-0.1,0.2-0.1,0.6-0.4	c0.9-0.5,2-0.2,2.6,0.6c0.5,0.9,0.2,2-0.6,2.6l-0.4,0.3c-0.1,0.1-0.2,0.1-0.7,0.4C148.2,113.8,147.9,113.9,147.6,113.9z" class="st18"/><path d="M156.7,106.6c-0.5,0-1-0.2-1.4-0.6c-0.7-0.8-0.7-1.9,0.1-2.6c2.1-1.9,4.1-3.9,6-5.8c0.7-0.7,1.9-0.7,2.6,0	c0.7,0.7,0.8,1.9,0,2.6c-1.9,2-4,4-6.1,6C157.6,106.4,157.1,106.6,156.7,106.6z" class="st18"/><path d="M177.4,89.3c-0.5,0-1-0.2-1.3-0.6c-0.7-0.7-0.7-1.9,0-2.6c1.6-1.5,3.1-3.1,4.6-4.6c0.7-0.7,1.9-0.8,2.6,0	c0.7,0.7,0.8,1.9,0,2.6c-1.5,1.5-3.1,3.1-4.7,4.7C178.3,89.1,177.8,89.3,177.4,89.3z" class="st0"/><path d="M194.9,71.3c-0.4,0-0.8-0.1-1.2-0.4c-0.8-0.6-0.9-1.8-0.3-2.6c0.8-1,1.5-1.9,2.2-2.9c0.6-0.8,1.8-1,2.6-0.4	c0.8,0.6,1,1.8,0.4,2.6c-0.7,0.9-1.5,1.9-2.3,2.9C196,71.1,195.5,71.3,194.9,71.3z" class="st0"/><path d="M207,54c-0.3,0-0.7-0.1-1-0.3c-0.9-0.5-1.2-1.7-0.6-2.6c1.5-2.5,2.6-4.4,3.1-5.5c0.5-0.9,1.6-1.3,2.5-0.8	c0.9,0.5,1.3,1.6,0.8,2.5c-0.6,1.1-1.6,3.1-3.2,5.7C208.3,53.7,207.7,54,207,54z" class="st0"/><path d="M213.5,63.1c-0.3,0-0.7-0.1-1-0.3c-0.9-0.6-1.1-1.7-0.6-2.6l0.7-1.1c0.5-0.9,1.7-1.2,2.6-0.6	c0.9,0.5,1.2,1.7,0.6,2.6l-0.7,1.2C214.7,62.8,214.1,63.1,213.5,63.1z" class="st0"/><path d="M203.3,77.7c-0.4,0-0.7-0.1-1-0.3c-0.8-0.6-1.1-1.7-0.5-2.5l0.1-0.2l0.8-1.1c0.6-0.8,1.8-1,2.6-0.4	c0.8,0.6,1,1.8,0.4,2.6l-0.8,1.1C204.5,77.4,203.9,77.7,203.3,77.7z" class="st0"/><path d="M201.5,88.8c-0.4,0-0.8-0.1-1.1-0.4c-0.8-0.6-1-1.8-0.4-2.6l1-1.4c0.6-0.8,1.8-1,2.6-0.4c0.8,0.6,1,1.8,0.4,2.6	l-1,1.4C202.6,88.5,202.1,88.8,201.5,88.8z" class="st0"/><path d="M212.1,74.1c-0.4,0-0.8-0.1-1.1-0.4c-0.8-0.6-1-1.8-0.4-2.6l1-1.4c0.6-0.8,1.8-1,2.6-0.4c0.8,0.6,1,1.8,0.4,2.6	l-1,1.4C213.3,73.9,212.7,74.1,212.1,74.1z" class="st0"/><path d="M58.2,209.9c-0.8,0-1.5-0.5-1.8-1.3c-0.3-1,0.2-2,1.2-2.3l1.2-0.4c1-0.3,2,0.2,2.3,1.2c0.3,1-0.2,2-1.2,2.3	l-1.2,0.4C58.6,209.9,58.4,209.9,58.2,209.9z" class="st0"/><path d="M47.2,206.1c-1,0-1.8-0.7-1.9-1.7c-0.1-1,0.7-1.9,1.7-2l1.6-0.1c1,0,1.9,0.7,2,1.7c0.1,1-0.7,1.9-1.7,2	l-1.6,0.1C47.3,206.1,47.3,206.1,47.2,206.1z" class="st0"/><path d="M42,214.2c-0.1,0-0.2,0-0.3,0l-1.7-0.3c-1-0.2-1.7-1.1-1.6-2.1c0.2-1,1.1-1.7,2.1-1.6l1.7,0.3	c1,0.2,1.7,1.1,1.6,2.1C43.7,213.6,42.9,214.2,42,214.2z" class="st0"/><path d="M185.6,100.5c-0.4,0-0.8-0.1-1.2-0.4c-0.8-0.7-0.9-1.8-0.2-2.6l1.2-1.4c0.7-0.8,1.8-0.9,2.6-0.3	c0.8,0.7,0.9,1.8,0.3,2.6l-1.2,1.4C186.7,100.3,186.2,100.5,185.6,100.5z" class="st0"/><path d="M183.4,111.1c-0.4,0-0.9-0.1-1.2-0.4c-0.8-0.7-0.9-1.9-0.2-2.6l1.2-1.4c0.7-0.8,1.9-0.9,2.6-0.2	c0.8,0.7,0.9,1.9,0.2,2.6l-1.2,1.4C184.5,110.9,183.9,111.1,183.4,111.1z" class="st0"/><path d="M162.7,126.3c-0.5,0-0.9-0.2-1.3-0.5c-0.7-0.7-0.8-1.9-0.1-2.6l1.3-1.4c0.7-0.7,1.9-0.8,2.6-0.1	c0.7,0.7,0.8,1.9,0.1,2.6l-1.3,1.4C163.7,126.1,163.2,126.3,162.7,126.3z" class="st0"/><path d="M140.5,148.3c-0.5,0-1-0.2-1.4-0.6c-0.7-0.8-0.7-1.9,0.1-2.6l1.6-1.5c0.7-0.7,1.9-0.7,2.6,0.1	c0.7,0.8,0.7,1.9-0.1,2.6l-1.7,1.6C141.5,148.1,141,148.3,140.5,148.3z" class="st0"/><path d="M116.5,169.3c-0.5,0-1.1-0.2-1.4-0.7c-0.6-0.8-0.5-2,0.3-2.6c2.3-1.8,4.5-3.7,6.7-5.5c0.8-0.7,2-0.6,2.6,0.2	c0.7,0.8,0.6,2-0.2,2.6c-2.2,1.9-4.4,3.7-6.7,5.6C117.4,169.1,116.9,169.3,116.5,169.3z" class="st0"/><path d="M74.4,201.4c-0.6,0-1.2-0.3-1.6-0.9c-0.5-0.9-0.3-2,0.6-2.6c6.7-4.1,14-9.1,22.5-15.2c0.8-0.6,2-0.4,2.6,0.4	c0.6,0.8,0.4,2-0.4,2.6c-8.5,6.2-16,11.2-22.7,15.3C75.1,201.3,74.8,201.4,74.4,201.4z" class="st0"/><path d="M117.4,151.8c-0.6,0-1.1-0.2-1.5-0.7c-0.6-0.8-0.5-2,0.3-2.6c3.9-3,7.5-6,10.9-8.9c0.8-0.7,2-0.6,2.6,0.2	c0.7,0.8,0.6,2-0.2,2.6c-3.4,2.9-7.1,5.9-11,9C118.2,151.7,117.8,151.8,117.4,151.8z" class="st0"/><path d="M92.7,169.8c-0.6,0-1.2-0.3-1.5-0.8c-0.6-0.9-0.4-2,0.5-2.6c1.3-0.9,2.7-1.8,4-2.8c0.8-0.6,2-0.4,2.6,0.5	c0.6,0.8,0.4,2-0.5,2.6c-1.4,1-2.7,1.9-4.1,2.8C93.4,169.7,93.1,169.8,92.7,169.8z" class="st0"/><path d="M243.7,33.1c1.3-5-1.1-10.3-5.7-12.6l-14.3-7.1c-4.6-2.3-10.3-1-13.5,3l-4.5,5.7c-0.4,0.5-0.8,1.1-1,1.7	c-4.8,2.3-8.9,6.2-12,11.3l-0.2,0.4c-0.2,0.4-20.3,40.3-68.6,65.7c-22,11.5-44.6,25.6-63.6,39.5c-26.9,19.7-41.8,33.2-49.6,45.2	c-9.5,14.4-9.4,27.9,0.4,41.3c6.9,9.5,15.6,13.6,25.8,13.6c18.8,0,42.8-13.9,71.4-34.5c81.5-58.8,127.1-132.1,127.6-132.9	c6.4-10.3,8.4-21.5,5.6-31.3c0.4-0.6,0.6-1.3,0.8-2.1L243.7,33.1z M211.5,27.8c-0.2-0.3-0.2-0.6,0-0.9l4.5-5.7	c0.7-0.8,1.6-1.3,2.7-1.3c0.5,0,1,0.1,1.5,0.3l14.3,7.1c1.4,0.7,2.2,2.3,1.8,3.9l-1.7,7c-0.1,0.3-0.4,0.5-0.7,0.6	C221.5,38.1,214.1,30.9,211.5,27.8z M225.9,67.4c-0.4,0.7-44.9,72.1-124.5,129.6c-53.5,38.6-71.2,37.3-81.3,23.4	c-7-9.5-7-17.7-0.1-28.2c7.1-10.7,21.1-23.4,46.9-42.3c18.6-13.6,40.7-27.3,62.1-38.6c50.3-26.4,71.5-66.7,73.5-70.5	c2.3-3.8,5.3-6.3,8.8-7.4l0.3-0.1c3.5,3.3,9.3,7.3,17.5,8.8l0.3,0.8C232.4,50,231.2,58.9,225.9,67.4z" class="st102"/></svg>