<svg xmlns="http://www.w3.org/2000/svg" xmlns:xlink="http://www.w3.org/1999/xlink" id="Layer_1" x="0" y="0" version="1.1" viewBox="0 0 64 64" xml:space="preserve" style="enable-background:new 0 0 64 64"><style type="text/css">.st28{fill:#fff}.st124{fill:#164e16}.st129{fill:#8a9d1f}.st130{fill:#6e8517}</style><path d="M50.1,25.2c1.3-2.8,0.4-6.2-2.3-7.7c-3-1.7-6.7-0.5-8.1,2.6c0,0-9.5,26.8-31.1,39.1c-1.5,0.9-0.5,3.2,1.2,2.7	C22.5,58,39.5,48.4,50.1,25.2z" class="st129"/><path d="M36.2,37.2c-0.1,0-0.2,0-0.3-0.1c-0.2-0.1-0.3-0.5-0.2-0.7c0.4-0.7,0.9-1.4,1.3-2c0.1-0.2,0.4-0.3,0.7-0.2	c0.2,0.1,0.3,0.4,0.2,0.7c-0.4,0.7-0.8,1.4-1.3,2.1C36.5,37.1,36.3,37.2,36.2,37.2z" class="st28"/><path d="M38.8,32.9c-0.1,0-0.2,0-0.2-0.1c-0.2-0.1-0.3-0.4-0.2-0.7c1.9-3.3,3.2-6.1,4-7.8c0.1-0.2,0.4-0.4,0.7-0.2	c0.3,0.1,0.4,0.4,0.2,0.7c-0.8,1.8-2.2,4.6-4,7.9C39.1,32.8,38.9,32.9,38.8,32.9z" class="st28"/><path d="M50.7,22.8c0-0.4,0-0.7-0.1-1.1c-0.6-4.4,0.3-8.8,2.1-12.8l2-4.4c0.3-0.7,0-1.6-0.7-1.9v0	c-0.7-0.3-1.6,0-1.9,0.7l-2,4.4c-1.8,4-4.6,7.6-8.4,10.1c-0.3,0.2-0.5,0.4-0.8,0.6" class="st130"/><ellipse cx="33.7" cy="40.4" class="st28" rx=".5" ry=".5" transform="matrix(2.375112e-02 -0.9997 0.9997 2.375112e-02 -7.5561 73.1101)"/><path d="M38.3,19.7C38.3,19.9,28.9,46,8.1,57.8c-1.3,0.8-2,2.5-1.4,3.9c0.5,1.1,1.5,1.7,2.7,1.7c0.3,0,0.6,0,0.9-0.1	c12.8-4,30.2-13.8,41.2-37.5c0.3-0.7,0.5-1.5,0.6-2.3c0.1-1,0.1-2,0-3c-0.3-3.5,0.4-7.3,2.1-11l2-4.3c0.6-1.3,0.3-2.9-0.9-3.7	c-1.5-1.1-3.6-0.5-4.4,1.1l-2,4.4c-1.8,4-4.6,7.3-7.8,9.4C39.3,17.7,38.3,19.7,38.3,19.7z M43.8,18.1c2.3-2.1,5.3-6.7,7.4-10.1	c0.2-0.3,0.6-0.1,0.5,0.2c-1.2,3.8-2.6,9.1-2.7,12.3c0,0.4-0.4,0.7-0.8,0.5c-0.4-0.2-0.9-0.4-1.4-0.4c-0.4,0-0.7-0.1-1.1-0.3	c-0.3-0.2-0.6-0.4-0.9-0.6c-0.3-0.3-0.6-0.5-0.9-0.6C43.6,18.8,43.5,18.3,43.8,18.1z M13,59.3c-0.5,0.2-0.8-0.5-0.4-0.7	c19.3-12.8,27.9-36.1,28.5-37.8c0.1-0.3,0.3-0.5,0.5-0.8c0.2-0.3,0.5-0.4,0.8-0.3c0,0,0,0,0,0c0.6,0,1.2,0.3,1.7,0.8	c0.3,0.3,0.7,0.6,1.2,0.8c0.5,0.2,0.9,0.3,1.4,0.3c0.6,0,1.2,0.3,1.6,0.7c0.1,0.1,0.2,0.2,0.4,0.3c0.3,0.2,0.4,0.6,0.4,1	c-0.1,0.4-0.2,0.7-0.3,1.1C39.3,45.2,24.7,54.8,13,59.3z" class="st124"/></svg>