<svg xmlns="http://www.w3.org/2000/svg" xmlns:xlink="http://www.w3.org/1999/xlink" x="0" y="0" version="1.1" viewBox="0 0 500 500" xml:space="preserve" style="enable-background:new 0 0 500 500"><style type="text/css">.st0{fill:#b47e22}.st1{fill:#442105}.st18{fill:#fff}.st151{fill:#f5ba6b}.st155{fill:#e73123}.st156{fill:#ef915b}.st157{fill:#8e1a00}</style><g id="Layer_1"><path d="M459.8,252.5c0,149.2-67.1,234-207.3,234S45.2,363.1,45.2,252.5S112.3,86,252.5,86S459.8,141.9,459.8,252.5z" class="st155"/><path d="M205.7,168.5c-0.1,0-0.3,0-0.4,0c-15.9-1.7-31.6-4.3-46.7-7.7c-2.1-0.5-3.4-2.5-2.9-4.6 c0.5-2.1,2.5-3.4,4.6-2.9c14.9,3.3,30.3,5.8,45.9,7.5c2.1,0.2,3.7,2.1,3.4,4.3C209.3,167,207.6,168.5,205.7,168.5z" class="st18"/><path d="M253.6,171c-9.6,0-19.3-0.3-28.8-0.9c-2.1-0.1-3.8-2-3.6-4.1c0.1-2.1,2-3.8,4.1-3.6 c9.3,0.6,18.8,0.9,28.3,0.9c2.1,0,3.9,1.7,3.9,3.9S255.8,171,253.6,171z" class="st18"/><circle cx="140.6" cy="152.5" r="4.2" class="st18"/><path d="M360.2,169.4c0.4-1,0.3-2,0-3c-0.4-1.1-0.9-2.1-1.3-3.1c-3.7-8.1,7.1-14.7,12.1-7.1c0.3,0.4,0.5,0.8,0.8,1.3 c0.2,0.4,0.5,0.7,0.8,1l1.1,1c1.5,1.3,3.8,1.3,5.3,0l0.2-0.2c0.6-0.5,1.1-1.3,1.3-2.1c1.6-4.8,9.9-6.6,13-1.3 c0,0,9.9,18.6,15.3,46.1c1.6,8.3,14.1,4.8,12.7-3.5c-1.9-11.2-5.2-22-8.1-33c-1.6-6.2,6.4-10.3,10.4-5.3c0,0,0.1,0.1,0.1,0.1 c11.3,15,19.6,30.9,25.8,48.6c3,8.6-10.6,12.2-13.5,3.7l-0.1-0.2c-0.8-2.3-3.3-3.7-5.7-3.2l-0.2,0c-2.4,0.5-4,2.8-3.7,5.2 c0.7,5.2,1.1,10.5,1.1,16c0,0,0.5,6.5-6.7,7c-1.5,0.1-2.8-0.4-3.8-1.2c-1.6-1.1-3.8,0-3.8,1.9c0,3.9-0.1,7.9-0.6,11.9 c-0.3,2.8-2.2,4.9-4.4,6.1c-2.5,1.2-4.1,3.9-3.7,6.7l0.1,0.5c0,0.3,0.1,0.6,0.1,0.9c0.2,3.6-5.2,4.1-5.7,0.5 c-2.7-21.1-6.3-41.7-13.3-62.4c-2.7-8-15.4-4.5-12.7,3.5c8,23.4,11.4,47,14.3,71.2c0.1,0.6-0.1,1.4-0.4,1.9c-2,2.9-6.5,3.4-9.6,1.7 c0,1.2,0,2.4,0,3.6c0,4.8-3.7,7-7.3,6.7c-1.7-0.1-3.3,0.1-4.9,0.8c-4.1,1.7-9.5-0.3-9.6-6.2c-0.2-41.1-8-81.8-35.8-113.6 c-5.9-6.8,4-16.7,9.9-9.9c0.4,0.5,0.9,1,1.3,1.5c1.5,1.8,4.1,1.8,5.6,0c2.4-3,6.6-4.2,9.7-0.4c1.9,2.3,3.8,4.7,5.6,7.1 c0.4,0.6,1,1,1.7,1.3l1,0.4C356.9,172.7,359.4,171.6,360.2,169.4L360.2,169.4z" class="st151"/><path d="M339.3,477.7c114.8-51,116-185.2,116-185.2c2.5-9-11.7-11.7-14.2-2.8c-8.1,28.8-16.8,57.6-28.6,84.6 c-0.7,1.7-2.1,2.9-3.9,3.5h0c-3.6,1.2-7.5-1.1-8.1-4.9l-0.5-2.7c-0.1-0.8-0.1-1.7,0.1-2.5c2.5-10.4,4.4-21,5.7-31.8 c1.1-9.2-13.1-12.1-14.2-2.8c-6.4,55.2-28.4,104.3-65.6,145.9C326,478.9,334.2,480,339.3,477.7z" class="st151"/><path d="M420,280.4c-9.3,0-9.3,14.5,0,14.5C429.3,294.9,429.4,280.4,420,280.4z" class="st151"/><path d="M236,481l14.8-4.5c-28.1-68.8-30.5-141.5-31.6-214.8c-0.2-9.9-15.5-8.3-15.4,1.6 C205,337.4,207.9,411.4,236,481" class="st151"/><path d="M172.2,216.5c0.3-9.8-14.9-12.5-15.3-2.6c-1.2,37.6,0.9,74.8,6.8,112c1.5,9.8,16.9,8.3,15.4-1.6 C173.5,288.6,171,252.7,172.2,216.5z" class="st151"/><path d="M118.9,226.6c-1.7,0.7-3.2,1.9-4.1,3.6c-0.4,0.8-1.3,1.4-2.2,1.5c-3.3,0.5-6.4,2.6-6.8,6.2 c-0.8,9.1-1.2,18.2-1.2,27.3c0,4.5,3.2,6.6,6.6,6.6c1.3,0,2.4,1,2.7,2.2l0.8,3.4c1.8,7.4,12.8,5.6,14.6-0.8 c0.2-0.8,0.8-1.4,1.5-1.8c3.9-1.8,6.9-6.4,4.1-11.9c-4.8-9.3-4.9-20.3-1.1-30c5.7-14.3-9.6-15.6-13.3-7.9 C120.3,225.8,119.7,226.3,118.9,226.6z" class="st151"/><path d="M213,212.3c-9.9,1-8.3,16.4,1.6,15.4C224.5,226.7,222.9,211.3,213,212.3z" class="st156"/><path d="M412.4,134.3c4.2,7.3-6.7,13.8-12.7,8.3c-0.6-0.5-1.3-0.8-2.1-0.7c-2.4,0.3-5-0.4-6.8-2 c-2.1-1.8-4.2-3.7-6.3-5.5c-0.6-0.6-1.5-0.8-2.4-0.6c-1.8,0.4-3.7,0.1-5.5-0.9c-0.7-0.4-1.6-0.5-2.4-0.2c-2,0.8-4.1,0.7-6-0.3 c-1-0.5-2.1-0.4-2.9,0.3c-1.9,1.6-4.6,2.1-7,1.6c-0.7-0.2-1.5,0-2.1,0.4c-3.4,2.3-8.9,1.9-11.3-2.2c-4.4-7.3-9.2-14.1-14.8-20.6 c-6.3-7.4,4.1-18.1,10.6-11.3c0.2,0.2,0.5,0.5,0.8,0.6l69.5,32C411.7,133.4,412.1,133.8,412.4,134.3z" class="st156"/><path d="M316.5,119c-9.9,0-10,15.5,0,15.5C326.5,134.4,326.5,119,316.5,119z" class="st156"/><path d="M133.2,294.9c-9.9,1-8.3,16.4,1.6,15.4C144.7,309.3,143.1,293.9,133.2,294.9z" class="st156"/><path d="M252.5,74.5c-145.2,0-218.9,59.9-218.9,178.1c0,60.9,19.5,121.3,53.5,165.6c40.2,52.4,97.4,80.1,165.4,80.1 c72.3,0,127.8-21.9,165-65.1c35.7-41.5,53.9-102.3,53.9-180.5C471.4,134.4,397.7,74.5,252.5,74.5z M298,466 c5.9-4.8,11.6-10.6,16.9-17.4c1.1-1.4,1.2-3.5,0-4.9c-1.7-1.9-4.5-1.8-6,0.1c-16.3,20.8-35.2,31.3-56.4,31.3 c-21.1,0-40.1-10.5-56.4-31.3c-1.3-1.7-3.7-2-5.4-0.7c-1.7,1.3-2,3.7-0.7,5.4c4.5,5.7,9.1,10.7,14,15c2.3,2,0.3,5.8-2.7,5 C106.3,443.1,56.8,347.3,56.8,252.5c0-52.4,15.3-90.2,46.8-115.7c32.1-26,82.2-39.2,148.9-39.2c66.7,0,116.8,13.2,148.9,39.2 c31.5,25.5,46.8,63.4,46.8,115.7c0,128.2-49.7,201.5-147.9,218.6C297.4,471.6,295.7,467.9,298,466z" class="st157"/><path d="M269.5,74.7c2.7,0.1,5.3,0.2,8,0.3c-7.6-32.3-27.4-55.8-57.5-67.8c-2.8-1.1-5.7-1.7-8.6-1.7 c-5.4,0-10.9,1.9-15.3,5.7c-3.3,2.9-5.7,6.7-7,10.9l-7.5,23.5c-1.9,6-1.5,12.6,1.5,18.1c3.2,5.8,8.5,9.9,15,11.4 c0.5,0.1,2.4,0.7,5.1,1.9c4.9-0.6,10-1,15.1-1.4c6.1-0.4,12,2.4,15.3,7.6c5,7.9,8.3,18.4,7.7,32.1c2.5,0.1,5.1,0.2,7.7,0.3 c0.8-18.3-4.6-31.5-12-41c0,0,0,0,0,0c-0.1-0.2-0.3-0.3-0.4-0.5c-0.1-0.1-0.1-0.1-0.2-0.2c-0.4-0.6-0.9-1.1-1.4-1.6 c0,0-0.1-0.1-0.1-0.1c0,0,0,0,0,0c-8.7-10-19.4-15.3-25.8-17.8c-3-1.2-4.6-4.5-3.6-7.7l3.6-11.3c1.2-3.7,5.3-5.4,8.7-3.6 c19.7,10,29.9,25.9,35,41.5c0,0,0,0,0,0c5.6,17.1,5,34,4.1,42.4c2.6-0.1,5.2-0.2,7.8-0.3c0.7-7.4,1-19.6-1.6-33.1l0-0.1 C262.4,78.3,265.5,74.6,269.5,74.7z" class="st1"/><g><path d="M248.9,115.7c-0.7,0-1.4,0-2.2-0.1C247.5,115.7,248.2,115.7,248.9,115.7z" class="st0"/><path d="M257,115.7c1.6-16.3,2.3-63.9-40.6-84.6c-2.7-1.3-5.9,0.1-6.8,2.9l-4.5,14c-0.8,2.5,0.5,5.1,3,6.1 c11.8,4.4,42.8,19.9,40.9,61.7c1.2,0,2.3,0,3.5,0c2.8,0,5.6-0.1,8.4-0.2c0,0,0,0,0,0C259.6,115.6,258.3,115.7,257,115.7z" class="st0"/></g><path d="M252.5,119.6c-16.4,0-32.3-1.9-44.8-5.3c-2.1-0.6-3.3-2.7-2.7-4.8c0.6-2.1,2.7-3.3,4.8-2.7 c11.8,3.2,27,5,42.7,5c15.4,0,30.3-1.7,42.1-4.8c2.1-0.6,4.2,0.7,4.7,2.7c0.6,2.1-0.7,4.2-2.7,4.7 C284.2,117.8,268.6,119.6,252.5,119.6z" class="st157"/><path d="M369,328.4c-0.6-9.9-16.1-10-15.5,0c0,0,0,0,0,0c0.1,1.1-1,1.9-2,1.6c-5.4-1.5-12.6,2.3-9.5,11.6 c1.5,4.6,1.6,9.6-0.3,14c-5.7,13.1,9.3,15.8,13.2,8.4c0.4-0.7,1.3-1.1,2-0.8c4,1.7,9,0.6,10-4.8C368.8,348.5,369.6,338.5,369,328.4 z" class="st151"/><path d="M334.5,290.2c-9.9,0-10,15.5,0,15.5C344.5,305.6,344.5,290.2,334.5,290.2z" class="st156"/><path d="M258.7,271.7c3.4,14.2,4.3,28.3,2.8,42.8c-0.5,5.5,4,7.9,8.3,7.2c1.6-0.3,3.1,0.6,3.8,2.2 c2.6,6.7,14.7,5.7,15-3.1c0.5-16.8-0.6-33.3-3-49.9c-0.7-4.9-4.8-6.3-8.5-5.2c-1.9,0.6-3.8,0.1-5.1-1.4 C267.3,259.2,256.7,263.4,258.7,271.7z" class="st156"/><path d="M274.4,352c-9.9,0-10,15.5,0,15.5C284.3,367.5,284.3,352,274.4,352z" class="st156"/></g></svg>