<svg xmlns="http://www.w3.org/2000/svg" xmlns:xlink="http://www.w3.org/1999/xlink" id="Layer_1" x="0" y="0" version="1.1" viewBox="0 0 64 64" xml:space="preserve" style="enable-background:new 0 0 64 64"><style type="text/css">.st8{fill:#52622e}.st9{fill:#8f2b63}.st10{fill:#c19491}.st11{fill:#d6b3b2}.st12{fill:#751d2e}.st62{fill:#8f2c63}.st63{fill:#cc6283}</style><path d="M43.9,11.9c-1.9,3.4-4.1,2.9-7.1,3.1c-1.3-2.5-3-4.3-1.2-7.7s6-6.5,8.3-5.2C46.2,3.4,45.8,8.5,43.9,11.9z" class="st8"/><path d="M33.4,8c1.7,4.4-0.6,6.1-2.7,9.1c-3.3-0.8-6.4-0.6-8.1-5S21.3,1.4,24.3,0.3S31.7,3.6,33.4,8z" class="st8"/><path d="M37.7,54C44.3,51.3,49,44.2,49,37.4c0-8.6-7.6-13.3-17-13.3s-17,4.8-17,13.3c0,6.8,4.9,14,11.6,16.7l5.6,4.9	L37.7,54z" class="st9"/><path d="M48.3,33.1H36.1c-0.3,0-0.5-0.2-0.5-0.5s0.2-0.5,0.5-0.5h12.2V33.1z" class="st10"/><path d="M46.1,30.2H33.9c-0.3,0-0.5-0.2-0.5-0.5s0.2-0.5,0.5-0.5h12.2V30.2z" class="st10"/><g><path d="M38.5,33.1h-2.4c-0.3,0-0.5-0.2-0.5-0.5s0.2-0.5,0.5-0.5h2.4c0.3,0,0.5,0.2,0.5,0.5S38.7,33.1,38.5,33.1z" class="st11"/></g><path d="M36.7,23c0.2-6.2,2.7-12.1,4.6-15.8c0,0-0.7-0.5-0.7-0.5c-2.6,3.4-6.2,8.9-7.6,15.2C32,14.5,29,7.8,26.3,3.6	c0,0-0.7,0.5-0.7,0.5c2,4.8,4,11.1,3.6,18.7c-9.5,0.9-15.7,6.6-15.7,14.7c0,7.5,5.4,15.3,12.5,18.1c1.5,0.6,2.7,1.8,3.3,3.3l1.4,4.1	c0.2,0.6,0.8,1,1.4,1c0,0,0,0,0,0c0.6,0,1.2-0.4,1.4-1l1.4-4.2c0.6-1.5,1.7-2.8,3.2-3.4c7.1-2.9,12.3-10.5,12.3-18	C50.5,29.9,45.1,24.4,36.7,23z M41.4,36.1h6.1c0,0.4,0.1,0.9,0.1,1.4c0,0.2,0,0.4,0,0.6h-5.9v1h5.8c-0.1,0.6-0.2,1.3-0.3,1.9h-6.4v1	h6.1c-0.2,0.6-0.5,1.3-0.8,1.9h-7.2v1h6.7c-0.4,0.7-0.8,1.3-1.2,1.9h-6.2v1h5.4c-1.8,2.1-4,3.9-6.5,4.9c-2.3,0.9-4.1,2.8-4.9,5.2	l0,0c-0.9-2.3-2.7-4.2-5-5.1c-6.1-2.4-10.6-8.9-10.6-15.3c0-8.2,7.8-11.8,15.5-11.8c6.9,0,13.9,3,15.2,9.5h-5.9V36.1z" class="st12"/><path d="M30.7,22.6c0.3,0,0.7,0,1,0c-0.5-8.3-2.7-14.1-6-20.2c-0.1-0.2-0.4-0.3-0.7-0.2c-0.2,0.1-0.3,0.4-0.2,0.7	C28.1,8.9,30.3,14.6,30.7,22.6z" class="st62"/><path d="M35.4,22.8c0.7-7.5,5-14.8,7.6-18c0.2-0.2,0.1-0.5-0.1-0.7c-0.2-0.2-0.5-0.1-0.7,0.1	c-2.6,3.3-7.1,10.9-7.8,18.6C34.7,22.7,35.1,22.7,35.4,22.8z" class="st62"/><g><path d="M41.7,39h-4.1c-0.3,0-0.5-0.2-0.5-0.5s0.2-0.5,0.5-0.5h4.1c0.3,0,0.5,0.2,0.5,0.5S41.9,39,41.7,39z" class="st63"/></g><g><path d="M40.7,41.9H30.3c-0.3,0-0.5-0.2-0.5-0.5s0.2-0.5,0.5-0.5h10.4c0.3,0,0.5,0.2,0.5,0.5S41,41.9,40.7,41.9z" class="st63"/></g><g><path d="M38.9,44.8h-3.5c-0.3,0-0.5-0.2-0.5-0.5s0.2-0.5,0.5-0.5h3.5c0.3,0,0.5,0.2,0.5,0.5S39.1,44.8,38.9,44.8z" class="st63"/></g><g><path d="M38.1,47.7h-0.6c-0.3,0-0.5-0.2-0.5-0.5s0.2-0.5,0.5-0.5h0.6c0.3,0,0.5,0.2,0.5,0.5S38.4,47.7,38.1,47.7z" class="st63"/></g><g><path d="M41.4,36.1h-9c-0.3,0-0.5-0.2-0.5-0.5s0.2-0.5,0.5-0.5h9c0.3,0,0.5,0.2,0.5,0.5S41.7,36.1,41.4,36.1z" class="st63"/></g><g><path d="M34.8,30.2h-0.9c-0.3,0-0.5-0.2-0.5-0.5s0.2-0.5,0.5-0.5h0.9c0.3,0,0.5,0.2,0.5,0.5S35.1,30.2,34.8,30.2z" class="st11"/></g></svg>