<svg xmlns="http://www.w3.org/2000/svg" xmlns:xlink="http://www.w3.org/1999/xlink" id="Layer_1" x="0" y="0" version="1.1" viewBox="0 0 400 400" xml:space="preserve" style="enable-background:new 0 0 400 400"><style type="text/css">.st13{fill:#fff}.st15{fill:#f9c900}.st16{fill:#ce571b}.st17{fill:#9bb31c}.st20{fill:#2a481d}.st75{fill:#eaa629}</style><g><path d="M171.6,85.9L171.6,85.9c26.8-38.8,80-48.4,118.8-21.6l29.3,20.3c38.8,26.8,48.4,80,21.6,118.8 c-65.8,95-277.1,184.8-277.1,184.8c-12.3,5.5-24.7-7.2-18.9-19.4c0,0,51.7-115.3,109.1-251.3C158.9,106.4,164.7,95.8,171.6,85.9z" class="st15"/><path d="M58.1,399c-6.3,0-12.4-2.5-17-7.2c-7.1-7.2-8.9-17.8-4.5-26.9c1.7-3.8,53-118.3,108.9-251 c4.9-11.7,11.1-23,18.3-33.3c29.8-43,89-53.7,132-24L325,76.8c43,29.8,53.7,89,24,132c-28.1,40.6-84.1,84.6-166.3,130.9 C123,373.2,70.4,395.8,67.9,396.9C64.7,398.3,61.4,399,58.1,399z M241.8,58.7c-24.1,0-47.8,11.4-62.5,32.6h0 c-6.4,9.3-12,19.4-16.4,29.9C106.2,255.7,54.3,371.6,53.8,372.7l-0.1,0.2c-1.3,2.8,0.2,4.9,0.9,5.6c0.7,0.7,2.7,2.3,5.5,1l0.2-0.1 c2.1-0.9,209.5-89.9,273-181.5c23.8-34.4,15.2-81.7-19.2-105.6l-29.3-20.3C271.8,63,256.7,58.7,241.8,58.7z" class="st16"/><path d="M164,193.4c-0.5,0-0.9-0.1-1.4-0.3c-1.6-0.8-2.2-2.7-1.5-4.2c5.1-10.5,10.3-21.1,15.6-32 c0.8-1.6,2.7-2.2,4.2-1.5c1.6,0.8,2.2,2.7,1.5,4.2c-5.3,10.9-10.5,21.6-15.6,32C166.3,192.8,165.2,193.4,164,193.4z" class="st13"/><path d="M145.8,230.5c-0.5,0-0.9-0.1-1.4-0.3c-1.6-0.8-2.2-2.7-1.4-4.2c2.7-5.5,5.4-11,8.2-16.6 c0.8-1.6,2.7-2.2,4.2-1.4c1.6,0.8,2.2,2.7,1.4,4.2c-2.8,5.6-5.5,11.2-8.2,16.6C148.1,229.9,147,230.5,145.8,230.5z" class="st13"/><path d="M201.3,277.8c-1,0-2-0.5-2.6-1.4c-1-1.4-0.6-3.4,0.8-4.4c2.7-1.9,5.5-3.8,8.5-5.9 c9.7-6.6,20.6-14.2,31.9-22.7c1.4-1,3.4-0.8,4.4,0.6c1,1.4,0.8,3.4-0.6,4.4c-11.4,8.6-22.4,16.1-32.1,22.8c-3,2.1-5.8,4-8.5,5.9 C202.6,277.6,201.9,277.8,201.3,277.8z" class="st75"/><path d="M280,216.7c-0.8,0-1.6-0.3-2.2-0.9c-1.2-1.2-1.2-3.2,0-4.5c6.8-6.8,12.6-13.5,17.4-19.9c1-1.4,3-1.7,4.4-0.6 c1.4,1,1.7,3,0.6,4.4c-5,6.7-11.1,13.7-18,20.6C281.6,216.4,280.8,216.7,280,216.7z" class="st75"/><path d="M214.1,242.5c-0.9,0-1.8-0.4-2.5-1.2c-1.1-1.4-0.9-3.3,0.5-4.4c12.8-10.4,29.4-24.2,43.8-39.5 c1.2-1.3,3.2-1.3,4.5-0.1c1.3,1.2,1.3,3.2,0.1,4.5c-14.7,15.6-31.4,29.6-44.4,40.1C215.5,242.2,214.8,242.5,214.1,242.5z" class="st75"/><path d="M328,110.4c-0.3,0-0.5,0-0.8-0.1l-9.9-3.5c-18.5-6.6-35-18-47.8-32.9l-6.8-7.9c-0.7-0.8-0.5-1.7-0.4-2.1 c0.1-0.4,0.5-1.2,1.5-1.5l19.8-5.6c14.5-4.1,27.7-12.1,38-23.1l0.1-0.1l10.5-13c1.4-1.8,3.6-2.8,5.9-2.8c1.5,0,3,0.5,4.3,1.3 c3.2,2.2,4.2,6.6,2.2,10l-8,13.6l-0.1,0.1c-6.8,13.6-9.6,28.9-8.3,44l1.8,21.1c0.1,0.8-0.3,1.4-0.6,1.7 C329.2,110.1,328.6,110.4,328,110.4z" class="st17"/><path d="M263.2,59.2c-3.9,1-5.4,5.7-2.8,8.7l6.8,7.9c13.2,15.3,30.1,27,49.1,33.8l9.9,3.5c0.6,0.2,1.2,0.3,1.8,0.3 c3,0,5.6-2.6,5.4-5.9c-1-8.2-1.5-14-1.8-17.9c-0.2-2.4,2.8-3.7,4.5-2.1c3.3,3.2,6.4,6.7,9.2,10.3l-1.1-12.5 c-1-12.1,1.2-24.3,6.6-35.3l7.4-12.6c5.7-9.8,4.1-22.4-4.4-29.9c-10-8.8-25.4-7.3-33.6,2.8l-10.2,12.5 c-8.3,8.8-18.9,15.1-30.5,18.4l-11.3,3.2c4.3,1.3,8.6,2.9,12.7,4.9c2.2,1,1.9,4.2-0.3,4.9C276,55.8,269.7,57.6,263.2,59.2z M325.2,87.1l1.3,14.5c0.2,2.4-2.2,4.2-4.4,3.4l-3.6-1.3c-18-6.5-34-17.5-46.4-32l-2.5-2.9c-1.6-1.8-0.7-4.7,1.6-5.4l13.3-3.7 c15.1-4.3,28.8-12.6,39.6-24l0.2-0.2l0.1-0.2l10.4-12.8c0.6-0.8,1.5-1.4,2.5-1.6c1.4-0.3,2.7,0,3.8,0.9c1.7,1.4,2,3.9,0.9,5.7 L334.1,41l-0.1,0.2l-0.1,0.2C326.8,55.6,323.8,71.4,325.2,87.1z" class="st20"/><path d="M274.8,121c-0.6,0-1.2-0.2-1.8-0.6c-5.5-3.8-10.7-7.9-15.7-12.3c-5.1-4.5-9.9-9.5-14.3-14.6 c-1.1-1.3-1-3.3,0.3-4.5c1.3-1.1,3.3-1,4.5,0.3c4.3,5,8.9,9.7,13.7,14c4.7,4.2,9.8,8.2,15,11.8c1.4,1,1.8,3,0.8,4.4 C276.8,120.5,275.8,121,274.8,121z" class="st13"/><ellipse cx="189.7" cy="137.3" class="st13" rx="3.6" ry="3.6" transform="matrix(0.5674 -0.8235 0.8235 0.5674 -30.9561 215.597)"/><ellipse cx="261.1" cy="229.7" class="st75" rx="3.2" ry="3.2" transform="matrix(0.9995 -3.222952e-02 3.222952e-02 0.9995 -7.2689 8.5351)"/></g></svg>