<svg xmlns="http://www.w3.org/2000/svg" xmlns:xlink="http://www.w3.org/1999/xlink" id="Layer_1" x="0" y="0" version="1.1" viewBox="0 0 1000 1000" xml:space="preserve" style="enable-background:new 0 0 1000 1000"><style type="text/css">.st0{fill:#73953b}.st1{fill:#3d710c}.st31{fill:#fff}.st69{fill:#fcd24f}.st70{fill:#ba8822}.st71{fill:#80352f}.st72{fill:#8d4734}.st73{fill:#9b5838}.st74{fill:#a96a3d}.st75{fill:#b77a42}.st76{fill:#c48b47}</style><path d="M534.2,966.8L534.2,966.8c-35.5-79.2-90.7-147.5-158.9-201.3c-77.3-61-136.2-149-102.6-290.7	c25.1-105.9,91.8-182.2,171.4-209.6c176.9-60.9,361.3,62.3,361.3,292.6c0,100.5-50.4,161.9-112.5,208.4	C693,766.2,578.3,848.4,534.2,966.8z" class="st69"/><path d="M534.2,990.2c-9.2,0-17.6-5.4-21.4-13.9c-32.8-73.4-85.4-139.9-152-192.5c-47.6-37.6-80.3-78.2-99.9-124.3	c-23.9-56-27.6-120-10.9-190.2c13-54.6,37.2-104.3,70.1-143.8c32.4-38.9,72.7-67.5,116.5-82.5c90.9-31.3,186.3-18.4,261.6,35.4	c39.7,28.4,72.5,67.7,94.9,113.7c23.8,49.1,35.9,104.9,35.9,165.8c0,50.7-12.2,96.6-36.3,136.6C772.9,727,744.9,756.6,707,785	c-65.2,48.8-115.8,111-146.3,179.9v0l-5,11.4C551.9,984.7,543.5,990.2,534.2,990.2C534.3,990.2,534.3,990.2,534.2,990.2z M534.9,273.2c-27.5,0-55.5,4.7-83.1,14.2c-35.7,12.3-68.8,35.9-95.8,68.2c-28.3,33.9-49.2,77.1-60.5,124.7	c-14.5,61-11.7,113.7,8.4,161c16.5,38.7,44.6,73.3,85.8,105.9c59.2,46.7,108.2,103.6,143.8,166.6c34.2-63.4,83.9-120.3,145.3-166.2	c71.3-53.3,103.1-111.8,103.1-189.6c0-53.7-10.5-102.6-31.2-145.3c-19.2-39.5-46-71.8-79.9-96C630.8,287.9,583.7,273.2,534.9,273.2z" class="st70"/><g><g><polygon points="695.4 320.3 373 320.3 403 273.4 665.4 273.4" class="st71"/></g><g><polygon points="742.5 367.1 325.9 367.1 355.9 320.3 712.5 320.3" class="st72"/></g><g><polygon points="774.1 414 294.3 414 314.3 367.1 754.1 367.1" class="st73"/></g><g><polygon points="796.4 460.9 272 460.9 292 414 776.4 414" class="st74"/></g><g><polygon points="806.9 507.7 261.5 507.7 271.5 460.9 796.9 460.9" class="st75"/></g><g><rect width="545.4" height="46.9" x="261.5" y="507.7" class="st76"/></g></g><g><path d="M534.2,990.2c-9.2,0-17.6-5.4-21.4-13.9c-32.8-73.4-85.4-139.9-152-192.5c-47.6-37.6-80.3-78.2-99.9-124.3 c-23.9-56-27.6-120-10.9-190.2c13-54.6,37.2-104.3,70.1-143.8c32.4-38.9,72.7-67.5,116.5-82.5c90.9-31.3,186.3-18.4,261.6,35.4 c39.7,28.4,72.5,67.7,94.9,113.7c23.8,49.1,35.9,104.9,35.9,165.8c0,50.7-12.2,96.6-36.3,136.6C772.9,727,744.9,756.6,707,785 c-65.2,48.8-115.8,111-146.3,179.9v0l-5,11.4C551.9,984.7,543.5,990.2,534.2,990.2C534.3,990.2,534.3,990.2,534.2,990.2z M534.9,273.2c-27.5,0-55.5,4.7-83.1,14.2c-35.7,12.3-68.8,35.9-95.8,68.2c-28.3,33.9-49.2,77.1-60.5,124.7 c-14.5,61-11.7,113.7,8.4,161c16.5,38.7,44.6,73.3,85.8,105.9c59.2,46.7,108.2,103.6,143.8,166.6c34.2-63.4,83.9-120.3,145.3-166.2 c71.3-53.3,103.1-111.8,103.1-189.6c0-53.7-10.5-102.6-31.2-145.3c-19.2-39.5-46-71.8-79.9-96C630.8,287.9,583.7,273.2,534.9,273.2 z" class="st70"/></g><g><path d="M363,421.5c-1.3,0-2.6-0.3-3.9-1c-3.7-2.1-5-6.9-2.9-10.7c20.1-35.2,47.1-63,78.1-80.4 c3.8-2.1,8.5-0.8,10.6,3c2.1,3.8,0.8,8.5-3,10.6c-28.5,16-53.5,41.8-72.2,74.6C368.3,420.1,365.7,421.5,363,421.5z" class="st31"/></g><g><path d="M535,295.5c-34.1,0-58.4-12-59.5-12.5c-1.3-0.6-2.4-1.6-3.1-2.9L379,130.4c-2.3-3.7-1.2-8.5,2.5-10.8 l39.8-24.8c1.2-0.8,2.7-1.2,4.1-1.2c0.6,0,1.2,0.1,1.8,0.2c2,0.5,3.8,1.7,4.9,3.5L503,211V52.3c0-4.3,3.5-7.8,7.8-7.8h46.9 c4.3,0,7.8,3.5,7.8,7.8V211l70.9-113.7c1.1-1.8,2.8-3,4.9-3.5c0.6-0.1,1.2-0.2,1.8-0.2c1.5,0,2.9,0.4,4.1,1.2l39.8,24.8 c3.7,2.3,4.8,7.1,2.5,10.8L596,280.1c-0.8,1.3-2,2.3-3.4,3C574.5,291.3,555.1,295.5,535,295.5C535,295.5,535,295.5,535,295.5z" class="st0"/></g><path d="M707.6,86.5l-39.8-24.8c-7.5-4.7-16.1-7.1-24.8-7.1c-3.5,0-7.1,0.4-10.6,1.2c-11.3,2.6-21.3,9.4-27.9,18.9V52.3	c0-25.9-21-46.9-46.9-46.9h-46.9c-25.9,0-46.9,21-46.9,46.9v22.4c-6.6-9.5-16.6-16.3-27.9-18.9c-3.5-0.8-7-1.2-10.6-1.2	c-8.7,0-17.3,2.4-24.8,7.1l-39.8,24.8c-22,13.7-28.7,42.6-15,64.6L410.1,254c8.7-4.2,17.5-7.9,26.5-11c1-0.3,1.9-0.7,2.9-1	l26.3,42.2c1.5,2.4,3.7,4.4,6.3,5.7c1.1,0.5,27,13.3,63,13.3c21.2,0,41.6-4.4,60.7-13.1c2.8-1.3,5.2-3.3,6.8-6l26.2-42	c9.9,3.5,19.7,7.6,29.2,12.2l64.5-103.4C736.2,129.1,729.5,100.2,707.6,86.5z M589.3,276c-19.3,8.8-38,11.7-54.3,11.7	c-32.7,0-56-11.7-56-11.7l-93.4-149.8l39.8-24.8l78.9,126.5l0,0l6.5,10.4v-11v-175h46.9v174.8v11.1l6.6-10.5c0,0,0,0,0,0L643,101.4	l39.8,24.8L589.3,276z" class="st1"/><g><circle cx="341.2" cy="463.2" r="9" class="st31"/></g></svg>