<svg xmlns="http://www.w3.org/2000/svg" xmlns:xlink="http://www.w3.org/1999/xlink" id="Layer_1" x="0" y="0" version="1.1" viewBox="0 0 64 64" xml:space="preserve" style="enable-background:new 0 0 64 64"><style type="text/css">.st0{fill:#4d831c}.st1{fill:#2a481d}.st23{fill:#fff}.st99{fill:#ff7a00}.st103{fill:#f44500}</style><path d="M40.7,49.5C24.7,60.7,10.1,61.1,5,60.8c-1.1-0.1-1.9-0.9-2-2c-0.2-5.3,0.2-21,11-35.9	c6.9-9.4,13.5-7.5,23.8,2.8C47,34.8,49.8,43.1,40.7,49.5z" class="st99"/><path d="M61.3,12.5c-0.2-0.7-0.6-1.2-1.2-1.6c-0.4-0.2-2.4-1.4-5.4-1.4c-2.9,0-7.3,1.1-12,6.6c-2.5,2.9-5.9,4.6-9.3,4.6	c-0.4,0-0.8,0-1.3-0.1c1.8,1.4,3.7,3.1,5.7,5.1c1.8,1.8,3.3,3.5,4.6,5.3l-0.1-1.6c-0.2-2.9,0.7-5.8,2.6-8.1c1.5-1.9,2.8-3.3,3.8-4.2	c1.8-1.7,3.6-2.5,5.4-2.5c1.1,0,2.2,0.3,3.3,1c0.4,0.2,0.9,0.4,1.3,0.4c0.9,0,1.8-0.5,2.3-1.3C61.4,13.9,61.5,13.2,61.3,12.5z" class="st0"/><path d="M62.8,12.2c-0.3-1-0.9-1.9-1.9-2.5C60.3,9.3,58.1,8,54.7,8c-3.2,0-8.1,1.2-13.1,7.1c-2.2,2.6-5.2,4-8.2,4	c-0.6,0-1.3-0.1-1.9-0.2l-1.4-0.3c-0.2,0-0.4-0.1-0.7-0.1c-0.1,0-0.1,0-0.2,0c1.5,0.9,3.1,2,4.8,3.5c3.8-0.2,7.3-2.1,9.9-5.1	c4.1-4.9,8-6.1,10.8-6.1c2.8,0,4.6,1.2,4.6,1.2c0.6,0.3,0.7,1,0.4,1.6c-0.2,0.4-0.6,0.6-1,0.6c-0.2,0-0.4,0-0.6-0.2	c-1.3-0.8-2.7-1.2-4.1-1.2c-2.1,0-4.3,1-6.4,2.9c-1.2,1.1-2.7,2.8-4,4.4c-2,2.4-3,5.5-2.9,8.6c1.3,1.6,2.4,3.1,3.3,4.6l-0.3-4.3	c-0.2-2.5,0.6-5.1,2.2-7.1c1.4-1.8,2.7-3.2,3.6-4c1.5-1.4,3-2.1,4.4-2.1c0.8,0,1.7,0.2,2.6,0.8c0.6,0.4,1.3,0.6,2.1,0.6	c1.5,0,2.9-0.8,3.6-2.1C62.9,14.3,63,13.2,62.8,12.2z" class="st1"/><path d="M27.2,52c-0.2,0-0.3-0.1-0.4-0.2c-0.1-0.2-0.1-0.5,0.1-0.7c1.6-1.1,3.3-2.2,4.8-3.5c0.2-0.2,0.5-0.1,0.7,0.1	c0.2,0.2,0.1,0.5-0.1,0.7c-1.6,1.3-3.2,2.4-4.9,3.5C27.3,52,27.3,52,27.2,52z" class="st103"/><path d="M13.7,32.8c-0.1,0-0.2,0-0.2-0.1c-0.2-0.1-0.3-0.4-0.2-0.7c1.2-2.3,2.6-4.6,4.1-6.7c1.7-2.4,3.2-3.7,4.6-4.2	c0.3-0.1,0.5,0,0.6,0.3s0,0.5-0.3,0.6c-1.2,0.4-2.5,1.6-4.1,3.8c-1.5,2.1-2.9,4.3-4.1,6.5C14.1,32.7,13.9,32.8,13.7,32.8z" class="st23"/><path d="M38.9,24.7c-6.9-6.9-11.7-9.7-16.3-9.3c-3.5,0.3-6.7,2.5-9.7,6.7c-11,15-11.6,30.8-11.3,36.9	c0.1,1.9,1.5,3.3,3.4,3.4c0.6,0,1.3,0.1,2.1,0.1c6.6,0,20-1.5,34.5-11.6c3.8-2.7,5.9-5.8,6.2-9.4C48.2,36.5,45.3,31,38.9,24.7z M23,25.4c-0.6,1-1.2,2-1.5,3.1c-0.5,1.7-1.5,3.2-3,4.1c-1,0.6-1.8,1.4-2.5,2.4c-0.7,0.9-1.2,2-1.5,3.1c-0.5,1.7-1.6,3.2-3,4.2	c-1,0.6-1.8,1.4-2.5,2.4c-0.6,0.8-1,1.6-1.3,2.5l-1.3,3.4C6,51.3,4.9,51,5,50.2c0.9-7.1,3.5-16.9,10.3-26.3c2.5-3.5,5-5.3,7.6-5.5	c0.2,0,0.3,0,0.5,0c1.4,0,3,0.5,4.7,1.4c0.8,0.4,0.7,1.6-0.2,1.8C26.3,22,24.4,23,23,25.4z M41.5,35.3c0.2-0.8,1.4-1,1.8-0.2	c1.1,2.2,1.6,4.2,1.5,6c-0.2,2.7-1.9,5-4.9,7.2c-9.9,6.9-19.1,9.6-25.9,10.6c-0.8,0.1-1.1-1-0.4-1.3c2.2-1,4.8-2.4,7.8-4.2	c0.2-0.1,0.3-0.4,0.2-0.7c-0.1-0.2-0.4-0.3-0.7-0.2c-7.3,4.4-12.6,6.3-14.6,6.9c0,0-0.9,0.3-1.4-0.2c-0.5-0.5-0.2-1.4-0.2-1.4	l4-10.3c0.3-0.8,0.7-1.6,1.2-2.3c0.6-0.8,1.4-1.5,2.2-2.1c1.7-1.1,2.9-2.8,3.5-4.7c0.3-1,0.7-1.9,1.3-2.8c0.6-0.9,1.4-1.6,2.3-2.2	c1.7-1.1,2.8-2.8,3.4-4.7c0.3-0.9,0.7-1.8,1.3-2.7c1.6-2.3,3.5-3.5,5.6-3.7c4.2-0.3,8.1,3.8,8.1,3.8c2.3,2.3,3.4,4.6,3.3,7	c-0.1,3.1-2.4,6.4-6.6,9.9c-0.2,0.2-0.2,0.5-0.1,0.7s0.5,0.2,0.7,0.1C39.2,40.5,40.9,37.4,41.5,35.3z" class="st103"/><path d="M21.1,48.1c-0.1,0-0.3-0.1-0.4-0.2c-0.2-0.2-0.2-0.5,0.1-0.7c0.8-0.7,1.4-1.5,1.9-2.4c1-1.8,2.6-3.1,4.5-3.8	c1-0.3,1.9-0.9,2.6-1.5c0.8-0.7,1.4-1.5,1.9-2.4c0.1-0.2,0.4-0.3,0.7-0.2c0.2,0.1,0.3,0.4,0.2,0.7c-0.6,1-1.3,1.9-2.2,2.6	c-0.9,0.8-1.9,1.3-3,1.7c-1.7,0.6-3.1,1.8-3.9,3.3c-0.6,1-1.3,1.9-2.2,2.6C21.3,48.1,21.2,48.1,21.1,48.1z" class="st103"/><path d="M26.1,28.8c-0.1,0-0.2,0-0.2-0.1c-0.2-0.1-0.3-0.4-0.2-0.7c0.5-0.9,1.1-1.7,1.9-2.4c0.8-0.7,1.6-1.2,2.6-1.6	c0.3-0.1,0.5,0,0.6,0.3s0,0.5-0.3,0.6c-0.8,0.3-1.6,0.8-2.3,1.4c-0.7,0.6-1.2,1.3-1.7,2.1C26.5,28.7,26.3,28.8,26.1,28.8z" class="st23"/><ellipse cx="11.7" cy="36.9" class="st23" rx=".6" ry=".6" transform="matrix(0.7071 -0.7071 0.7071 0.7071 -22.6476 19.0563)"/><ellipse cx="19.4" cy="37.3" class="st23" rx=".6" ry=".6" transform="matrix(0.7071 -0.7071 0.7071 0.7071 -20.6765 24.6634)"/><path d="M11.2,50c-0.1,0-0.2,0-0.3-0.1c-0.2-0.2-0.2-0.5-0.1-0.7c1.5-1.8,3.1-3.7,4.7-5.7c0.2-0.2,0.5-0.2,0.7-0.1	c0.2,0.2,0.2,0.5,0.1,0.7c-1.6,1.9-3.2,3.8-4.7,5.6C11.5,50,11.4,50,11.2,50z" class="st103"/></svg>