<svg xmlns="http://www.w3.org/2000/svg" xmlns:xlink="http://www.w3.org/1999/xlink" style="enable-background:new 0 0 64 64" x="0" y="0" version="1.1" viewBox="0 0 64 64" xml:space="preserve"><style type="text/css">.st21{fill:#fff}.st53{fill:#95cc63}.st54{fill:#517b39}</style><g id="Layer_2"><g><path d="M2.4,59.8c0,0,1.8-2.2,5.6-1.8" class="st53"/><path d="M61.6,16.5c-0.4-3.9-2.7-8.5-7.2-9.7l0.8-4c-2.8-1.7-5.3-0.4-5.3-0.4l0.3,4c-4.9,0.7-8.1,4.4-9.5,8.6 c0,0,4.2-2.7,7.6-3.6C32.1,41.2,5.7,58.5,5.7,58.5c10.8,6.7,21.8,1.7,21.8,1.7c23.2-9.8,27.8-28.8,28.6-35.1 c0.6-4.3,0.1-9.7-0.4-12.7C58.7,13.9,61.6,16.5,61.6,16.5z" class="st53"/><path d="M56.1,5.9l0.6-2.7c0.1-0.6-0.1-1.3-0.7-1.6c-3.4-2-6.6-0.6-6.7-0.5c-0.6,0.3-0.9,0.8-0.8,1.4l0.2,2.7 c-4.3,1.2-7.8,4.6-9.3,9.4c-0.2,0.6,0,1.2,0.5,1.6c0.5,0.4,1.2,0.4,1.7,0.1c0.7-0.4,2-1.2,3.4-1.9c-14.1,23.6-34.3,38.7-39,42.1 c-3.1,0.4-4.7,2.2-4.7,2.3c-0.5,0.6-0.4,1.6,0.2,2.1c0.3,0.2,0.6,0.3,0.9,0.3c0.4,0,0.9-0.2,1.2-0.6c0,0,0.5-0.5,1.5-0.9 c4.6,2.8,9.2,3.7,13.1,3.7c5.6,0,9.7-1.8,10-1.9c24.1-10.1,28.7-30.3,29.5-36.3c0.5-3.3,0.3-7,0-10c1.3,0.9,2.5,1.9,3,2.4 c0.5,0.4,1.1,0.5,1.7,0.2c0.5-0.3,0.9-0.9,0.8-1.5C62.7,12.6,60.6,7.8,56.1,5.9z M54.7,24.9c-0.8,5.6-5.1,24.4-27.8,34 c-0.1,0-9.1,4-18.4-0.5C14.8,53.8,35,38,48.6,14l1,3.9c0.2,0.6,0.7,1.1,1.3,1.1c0,0,0.1,0,0.1,0c0.6,0,1.1-0.4,1.4-0.9l2-4.7 c0,0,0,0,0,0C54.8,16.4,55.2,21.1,54.7,24.9z M53.9,10.1c-0.7-0.2-1.4,0.2-1.7,0.9l-0.8,1.9l-0.5-2c-0.2-0.7-0.8-1.1-1.4-1.1 c-0.1,0-0.1,0-0.2,0c-1.5,0.2-3.3,0.8-4.9,1.6c1.6-1.9,3.7-3.2,6.1-3.5c0.8-0.1,1.3-0.8,1.3-1.6l-0.2-2.8c0.5-0.1,1.3-0.1,2.1,0.2 L53,6.5C52.8,7.3,53.3,8,54,8.3c2.2,0.6,3.9,2.3,4.9,4.3C57.4,11.5,55.6,10.5,53.9,10.1z" class="st54"/><path d="M26.3,56.7c-0.2,0-0.4-0.1-0.5-0.3c-0.1-0.3,0-0.5,0.3-0.6c17.7-7.6,23.5-20.9,25.3-28.2 c0.1-0.3,0.3-0.4,0.6-0.4c0.3,0.1,0.4,0.3,0.4,0.6c-1.9,7.4-7.7,21.1-25.9,28.9C26.4,56.7,26.3,56.7,26.3,56.7z" class="st54"/><path d="M18.7,56.4c-0.2,0-0.4-0.2-0.5-0.4c-0.5-2.2,0.8-4.7,3.2-6c1.3-0.7,2.8-1.1,4.1-0.9 c-0.1-1.9,0.9-3.9,2.7-5.3c1.3-1,2.9-1.4,4.3-1.3c0-1.5,0.7-3,1.8-4.2c1.1-1.2,2.6-2,4-2.2c-0.3-1.5,0.2-3.2,1.2-4.7 c1.2-1.7,2.9-2.8,4.7-2.9c-0.2-1.2-0.1-2.5,0.4-3.7c0.8-2,2.4-3.5,4.2-3.9c0.3-0.1,0.5,0.1,0.6,0.4c0.1,0.3-0.1,0.5-0.4,0.6 c-1.5,0.4-2.8,1.6-3.5,3.3c-0.5,1.2-0.6,2.5-0.2,3.6c0,0.2,0,0.3-0.1,0.4c-0.1,0.1-0.2,0.2-0.4,0.2c-1.6-0.1-3.3,0.8-4.4,2.4 c-1,1.4-1.3,3.1-0.9,4.5c0,0.1,0,0.3-0.1,0.4c-0.1,0.1-0.2,0.2-0.4,0.2c-1.4,0-2.8,0.7-3.9,1.9c-1.1,1.2-1.6,2.7-1.5,4.1 c0,0.2,0,0.3-0.2,0.4c-0.1,0.1-0.3,0.1-0.4,0.1c-1.4-0.3-2.9,0.1-4.2,1c-1.8,1.3-2.7,3.3-2.2,5c0,0.2,0,0.3-0.1,0.5 c-0.1,0.1-0.3,0.2-0.5,0.1c-1.3-0.3-2.8-0.1-4.1,0.7c-2,1.2-3.1,3.2-2.7,5c0.1,0.3-0.1,0.5-0.4,0.6C18.8,56.4,18.7,56.4,18.7,56.4 z" class="st21"/></g></g></svg>