<svg xmlns="http://www.w3.org/2000/svg" xmlns:xlink="http://www.w3.org/1999/xlink" id="Layer_1" x="0" y="0" version="1.1" viewBox="0 0 269.4 269.4" xml:space="preserve" style="enable-background:new 0 0 269.4 269.4"><style type="text/css">.st1{fill:#44712a}.st6{display:none}.st7{fill:#d1a982}.st7,.st8{display:inline}.st25{fill:#fff}.st110{fill:#6e905e}.st111{fill:#f22f2e}.st112{fill:#7b000e}</style><g class="st6"><rect width="919.6" height="2155.1" x="-757.6" y="-2027.8" class="st7"/><path d="M161.6-2027.3V126.8h-918.6v-2154.1H161.6 M162.6-2028.3h-920.6V127.8h920.6V-2028.3L162.6-2028.3z" class="st8"/></g><g><path d="M151.6,42.7c-15.7,0-30.1,7.1-39.6,19.5C72.3,114,44.7,165.8,22.5,207.4l-3.8,7C13,225.2,13,237,18.8,246.7 c5.7,9.5,16,15.4,27,15.4c8.3,0,16.1-3.3,22.7-9.5l3.8-3.6c35.2-33,79-74,118.8-126.1c9.9-12.9,12.8-29.8,8-45.3L151.6,42.7z" class="st111"/><path d="M151.6,49.1c-13.1,0-26.1,5.9-34.6,17.1c-41.6,54.4-70.6,110-92.7,151.3c-10.6,19.8,4.2,38.4,21.5,38.4 c6.1,0,12.6-2.3,18.4-7.8c34.9-32.7,80.9-75.3,121.9-128.9c9-11.7,11.1-26.5,6.9-39.6l12.1-3.8c5.5,17.5,2.1,36.6-9,51.1 C156,179.3,112,220.5,76.7,253.7l-3.8,3.5c-7.8,7.3-17.2,11.2-27.1,11.2c-13.2,0-25.6-7.1-32.4-18.5c-7-11.7-7.1-25.7-0.2-38.5 l3.8-7c21.1-39.6,50.1-93.9,90-146c10.7-14,27-22,44.7-22V49.1z" class="st112"/><g><path d="M85.2,172.8c-0.4,0-0.7-0.1-1-0.3c-1-0.6-1.4-1.9-0.8-2.9c2.2-3.8,4.4-7.6,6.7-11.4c0.6-1,1.9-1.3,2.9-0.7 c1,0.6,1.3,1.9,0.7,2.9c-2.2,3.8-4.5,7.6-6.6,11.4C86.6,172.5,85.9,172.8,85.2,172.8z" class="st25"/></g><path d="M108.2,134.8c-0.4,0-0.8-0.1-1.1-0.3c-1-0.6-1.3-1.9-0.6-2.9c4-6.3,8-12.4,11.9-18.1c0.7-1,2-1.2,2.9-0.6 c1,0.7,1.2,2,0.6,2.9c-3.9,5.7-7.9,11.8-11.9,18C109.5,134.4,108.9,134.8,108.2,134.8z" class="st25"/><path d="M166.2,70.3c0,0,18.9,13.8,33.6,9.4l-6.1-19.4l11.3-20.1l21.7-12.9l19.5,4.7l9.8-14.2L231.5,5.8L207,13.7 l-31.2,29.4l-24.2-0.3C151.6,42.7,150,57.3,166.2,70.3z" class="st110"/><path d="M68.7,173.5c-0.4,0-0.7-0.1-1-0.3c-1-0.6-1.4-1.9-0.8-2.9c18.7-33,35.4-59.3,52.6-82.9c0.7-0.9,2-1.1,2.9-0.5 c0.9,0.7,1.1,2,0.5,2.9c-17.1,23.4-33.7,49.6-52.3,82.5C70.1,173.1,69.4,173.5,68.7,173.5z" class="st25"/><path d="M149.8,50.3c2.1,7.4,8.4,15.7,17.1,22.3c8.6,6.6,18.4,10.6,26,10.7c8.2,0.2,13.8-1.1,13.8-1.1 c-0.4-2-0.8-4-1.4-5.9l-0.4-1.1c-0.3-1-0.7-2-1.1-3c-0.2-0.5-0.3-0.9-0.5-1.4c-0.6-1.4-1.2-2.7-1.9-4c-2.1-4-1.4-9.5,1.8-13.5 c0.6-0.8,1.2-1.5,1.8-2.2c1.7-2.1,3.2-4,4.4-5.4c0.8-1,1.5-1.8,2.1-2.4c0.6-0.6,1-1.1,1.3-1.4c2-2,4-3.6,6-4.8 c3.3-2.1,6.4-3.1,9.4-3.1c2.6,0,5.3,0.8,8.3,2.3c0.6,0.3,1.2,0.6,1.9,0.8c1.9,0.7,4,1.1,6,1.1c2.4,0,4.6-0.5,6.7-1.4 c3.5-1.5,6.4-4.2,8.2-7.6c1.1-2,1.7-4.1,1.9-6.3c0.1-1.4,0-2.8-0.2-4.2c-0.1-0.8-0.2-1.6-0.5-2.3c-0.8-2.6-2.2-4.9-4.1-6.8 c-1.1-1.1-2.4-2.2-3.8-3C250.4,5.1,242.4,1,230.6,1c-4.7,0-10.4,0.7-16.6,2.8c-10.3,3.5-22.1,11-33.8,25.9l-2.1,2.7 c-2.9,3.6-7.1,5.8-11.3,5.8c-0.9,0-1.8-0.1-2.6-0.3c-1.5-0.4-3.1-0.6-4.7-0.9c-0.5-0.1-1-0.1-1.6-0.2c-1.1-0.1-2.2-0.3-3.3-0.3 l-1.4-0.1c-0.5,0-1,0-1.5,0c-1,0-2.1,0-3.1,0.1C148.5,36.5,148,43.6,149.8,50.3z M166.7,50.8c8.1,0,16-4.1,21.2-10.6l2.2-2.7 c1.9-2.4,3.8-4.6,5.7-6.6c11.3-11.8,22-16.1,30.7-17.1c1.4-0.2,2.8-0.2,4.1-0.2c9.6,0,15.8,3.8,15.8,3.8c2.1,1.1,2.9,3.7,1.8,5.8 c-0.8,1.5-2.3,2.3-3.8,2.3c-0.7,0-1.4-0.2-2-0.5c-4.8-2.5-9.5-3.8-14.2-3.8c-1,0-2,0.1-3.1,0.2c-3.1,0.4-6.1,1.3-9.1,2.7 c-1,0.5-2,1-3,1.6c-3,1.8-6,4.1-9,7c-2,1.9-6.2,7-10.7,12.7c-6.1,7.7-7.6,18.4-3.1,27.2c0,0.1,0.1,0.2,0.1,0.3 c1.4,2.8-1.2,6-4.2,5.1c-5.2-1.5-11-4.4-16.7-8.7c-5.3-4.1-9.6-8.7-12.3-13.1c-1.6-2.6,0.4-6,3.4-5.7 C162.3,50.7,164.4,50.8,166.7,50.8z" class="st1"/><ellipse cx="128" cy="102.6" class="st25" rx="2.8" ry="2.8" transform="matrix(0.6081 -0.7939 0.7939 0.6081 -31.2523 141.8529)"/></g></svg>