<svg xmlns="http://www.w3.org/2000/svg" xmlns:xlink="http://www.w3.org/1999/xlink" id="Layer_1" x="0" y="0" version="1.1" viewBox="0 0 64 64" xml:space="preserve" style="enable-background:new 0 0 64 64"><style type="text/css">.st1{fill:#8dcc50}.st2{fill:#a2a121}.st26{fill:#fff}.st110{fill:#f6e600}.st111{fill:#f9ee87}</style><g><path d="M50.6,20.6c0.7-1.9,0.4-3.9-0.7-5.5c-0.3,0.4-1.5,0.1-2.8-0.6c-1.2-0.7-2.1-1.6-1.9-2.1 c-2-0.1-4.1,0.7-5.4,2.5c-8.5,12.2-10.5,22.9-20.1,33.7c-4.5,5-10.7,7-14.9,7.8c-1.6,0.3-1.8,2.5-0.3,3.1c5.3,2,17.4,2.9,27.8-8.7 C44.8,36.9,50.6,20.6,50.6,20.6z" class="st110"/><path d="M50.3,15.2c0-1.5,0.4-2.9,1.2-4.1c0.9-1.3,1.6-2.3,2.2-3c1.1-1.2,2.3-1.9,3.4-1.9c0.5,0,1.1,0.1,1.7,0.4 c0.3,0.1,0.6,0.2,0.9,0.2c0.9,0,1.7-0.5,2.1-1.3c0.3-0.6,0.3-1.2,0.1-1.8c-0.2-0.6-0.6-1-1.2-1.3c-0.3-0.1-1.5-0.7-3.2-0.7 c-2.2,0-5.6,0.9-8.7,5.4c-0.4,0.6-0.8,1.1-1.1,1.7c-1,1.6-1.7,2.7-2.6,3.1l0.4,1.4l3.2,1.9L50.3,15.2z" class="st1"/><path d="M50.6,20.6c0.7-1.9,0.4-3.9-0.7-5.5c-0.3,0.4-1.5,0.1-2.8-0.6c-1.2-0.7-2.1-1.6-1.9-2.1 c-2-0.1-4.1,0.7-5.4,2.5c-8.5,12.2-10.5,22.9-20.1,33.7c-4.5,5-10.7,7-14.9,7.8c-1.6,0.3-1.8,2.5-0.3,3.1c5.3,2,17.4,2.9,27.8-8.7 C44.8,36.9,50.6,20.6,50.6,20.6z" class="st110"/><path d="M50.6,20.6c0.7-1.9,0.4-3.9-0.7-5.5c-0.3,0.4-1.5,0.1-2.8-0.6c-1.2-0.7-2.1-1.6-1.9-2.1 c-2-0.1-4.1,0.7-5.4,2.5c-8.5,12.2-10.5,22.9-20.1,33.7c-4.5,5-10.7,7-14.9,7.8c-1.6,0.3-1.8,2.5-0.3,3.1c5.3,2,17.4,2.9,27.8-8.7 C44.8,36.9,50.6,20.6,50.6,20.6z" class="st110"/><path d="M52.8,13.9c-0.4-0.6-0.5-1.4-0.1-2c0,0,0,0,0,0c1-1.6,1.7-2.4,2.1-2.8c0.8-0.9,1.6-1.4,2.3-1.4 c0.3,0,0.7,0.1,1.1,0.3c0.8,0.4,1.6,0.4,2.5,0.2C61.4,8,62,7.6,62.5,7.1c1-1.1,1.2-2.6,0.7-3.9c-0.3-0.9-1-1.7-1.9-2.1 c-0.4-0.2-1.9-0.8-3.8-0.8c-2.6,0-6.4,1.1-9.9,6.1c-0.4,0.6-0.8,1.2-1.2,1.8c0,0.1-0.1,0.2-0.1,0.2c-0.4,0.6-1,0.9-1.7,0.9 c-1.6-0.1-4.7,0.3-7.2,3.9c-3.8,5.5-6.4,10.6-8.8,15.6c-3,6.2-5.9,12-11,17.8c-3.8,4.3-9.1,6.1-13,6.8c-2,0.4-3.9,2.3-4,4.3 c-0.1,2,1.1,3.9,3,4.6c1.3,0.5,4.3,1.4,8.3,1.4c1.6,0,3.4-0.1,5.3-0.5c6.6-1.3,12.4-4.8,17.4-10.4c12.6-14.1,18.5-30.4,18.8-31.2 C54.8,17.9,53.6,15.2,52.8,13.9z M48.8,15.7c0.6,0.1,1.2,0.5,1.4,1.1c0.4,1.2,0.3,2.4-0.1,3.6c0,0,0,0,0,0 C50,20.5,44.2,36.8,32,50.5C27.3,55.7,16.3,63.4,4.8,59C4.2,58.8,4,58.3,4,57.9c0-0.4,0.3-0.9,0.9-1c4.4-0.8,10.6-2.8,15.2-8 c5.5-6.1,8.4-12.2,11.6-18.6c2.4-4.9,4.8-9.9,8.5-15.2c0.8-1.2,2.1-2,3.5-2.2c0.5-0.1,1,0.1,1.3,0.5c0.4,0.5,1.1,1.1,1.8,1.4 C47.4,15.2,48.2,15.6,48.8,15.7z M60.4,4.8c-0.1,0.3-0.4,0.5-0.7,0.5c-0.1,0-0.2,0-0.3-0.1c-0.8-0.4-1.6-0.5-2.3-0.5 c-1.6,0-3.1,0.8-4.5,2.3c-0.8,0.8-1.6,2-2.4,3.2c-0.7,1.1-1.2,2.4-1.4,3.7c0,0.4-0.4,0.6-0.8,0.4c-0.2-0.1-0.5-0.2-0.7-0.4 c-0.2-0.1-0.4-0.3-0.6-0.4c-0.3-0.2-0.3-0.6,0-0.9c1.3-1.1,2.2-3,3.4-4.7c2.7-3.9,5.5-4.8,7.4-4.8C59,3.3,60,3.8,60,3.8 C60.4,4,60.6,4.4,60.4,4.8z" class="st2"/><path d="M35.3,29.2c-0.1,0-0.2,0-0.2-0.1c-0.2-0.1-0.4-0.4-0.2-0.7c1.9-3.8,4.1-7.9,7-12.2c0.2-0.2,0.5-0.3,0.7-0.1 c0.2,0.2,0.3,0.5,0.1,0.7c-2.9,4.2-5.1,8.3-7,12.1C35.7,29.1,35.5,29.2,35.3,29.2z" class="st26"/><path d="M17.9,54.8c-0.2,0-0.3-0.1-0.4-0.2c-0.2-0.2-0.1-0.5,0.1-0.7c1.5-1.1,2.9-2.3,4-3.6c1.1-1.2,2.1-2.5,3.1-3.8 c0.2-0.2,0.5-0.3,0.7-0.1c0.2,0.2,0.3,0.5,0.1,0.7c-1,1.3-2.1,2.6-3.2,3.9c-1.2,1.4-2.7,2.7-4.2,3.8C18.1,54.8,18,54.8,17.9,54.8z" class="st26"/><path d="M40.2,34.3c-0.1,0-0.2,0-0.3-0.1c-0.2-0.1-0.3-0.5-0.2-0.7c4.9-8.3,7.7-14.8,7.7-14.9 c0.1-0.3,0.4-0.4,0.7-0.3c0.3,0.1,0.4,0.4,0.3,0.7c0,0.1-2.8,6.7-7.7,15C40.5,34.2,40.4,34.3,40.2,34.3z" class="st111"/><path d="M30.5,48.6c-0.1,0-0.2,0-0.3-0.1c-0.2-0.2-0.3-0.5-0.1-0.7c1.5-1.9,3.1-4,4.6-6.2c0.2-0.2,0.5-0.3,0.7-0.1 c0.2,0.2,0.3,0.5,0.1,0.7c-1.5,2.2-3,4.3-4.6,6.2C30.8,48.5,30.6,48.6,30.5,48.6z" class="st111"/><path d="M29.9,46.1c-0.1,0-0.2,0-0.3-0.1c-0.2-0.2-0.3-0.5-0.1-0.7c5.9-7.4,10.3-15.3,13-20.5 c0.1-0.2,0.4-0.3,0.7-0.2c0.2,0.1,0.3,0.4,0.2,0.7c-2.7,5.3-7.2,13.2-13.1,20.7C30.2,46,30,46.1,29.9,46.1z" class="st111"/><circle cx="33.4" cy="32.6" r=".5" class="st26"/></g></svg>