<svg xmlns="http://www.w3.org/2000/svg" xmlns:xlink="http://www.w3.org/1999/xlink" id="Layer_1" x="0" y="0" version="1.1" viewBox="0 0 500 500" xml:space="preserve" style="enable-background:new 0 0 500 500"><style type="text/css">.st18{fill:#fff}.st192{fill:#e73123}.st195{fill:#8e1a00}.st196{fill:#442105}.st197{fill:#b47e22}</style><g id="Layer_1_6_"><path d="M456.1,250.7c0,149.2-67.1,234-207.3,234S41.5,361.3,41.5,250.7S108.6,84.2,248.8,84.2 S456.1,140.1,456.1,250.7z" class="st192"/><path d="M202,166.7c-0.1,0-0.3,0-0.4,0c-15.9-1.7-31.6-4.3-46.7-7.7c-2.1-0.5-3.4-2.5-2.9-4.6s2.5-3.4,4.6-2.9 c14.9,3.3,30.3,5.8,45.9,7.5c2.1,0.2,3.7,2.1,3.4,4.3C205.6,165.2,203.9,166.7,202,166.7z" class="st18"/><path d="M249.9,169.2c-9.6,0-19.3-0.3-28.8-0.9c-2.1-0.1-3.8-2-3.6-4.1c0.1-2.1,2-3.8,4.1-3.6 c9.3,0.6,18.8,0.9,28.3,0.9c2.1,0,3.9,1.7,3.9,3.9S252.1,169.2,249.9,169.2z" class="st18"/><circle cx="136.9" cy="150.7" r="4.2" class="st18"/><path d="M248.8,72.7c-145.2,0-218.9,59.9-218.9,178.1c0,60.9,19.5,121.3,53.5,165.6c40.2,52.4,97.4,80.1,165.4,80.1 c72.3,0,127.8-21.9,165-65.1c35.7-41.5,53.9-102.3,53.9-180.5C467.7,132.6,394,72.7,248.8,72.7z M294.3,464.2 c5.9-4.8,11.6-10.6,16.9-17.4c1.1-1.4,1.2-3.5,0-4.9c-1.7-1.9-4.5-1.8-6,0.1c-16.3,20.8-35.2,31.3-56.4,31.3 c-21.1,0-40.1-10.5-56.4-31.3c-1.3-1.7-3.7-2-5.4-0.7s-2,3.7-0.7,5.4c4.5,5.7,9.1,10.7,14,15c2.3,2,0.3,5.8-2.7,5 c-95-25.4-144.5-121.2-144.5-216c0-52.4,15.3-90.2,46.8-115.7c32.1-26,82.2-39.2,148.9-39.2S365.6,109,397.7,135 c31.5,25.5,46.8,63.4,46.8,115.7c0,128.2-49.7,201.5-147.9,218.6C293.7,469.8,292,466.1,294.3,464.2z" class="st195"/><path d="M265.8,72.9c2.7,0.1,5.3,0.2,8,0.3c-7.6-32.3-27.4-55.8-57.5-67.8c-2.8-1.1-5.7-1.7-8.6-1.7 c-5.4,0-10.9,1.9-15.3,5.7c-3.3,2.9-5.7,6.7-7,10.9l-7.5,23.5c-1.9,6-1.5,12.6,1.5,18.1c3.2,5.8,8.5,9.9,15,11.4 c0.5,0.1,2.4,0.7,5.1,1.9c4.9-0.6,10-1,15.1-1.4c6.1-0.4,12,2.4,15.3,7.6c5,7.9,8.3,18.4,7.7,32.1c2.5,0.1,5.1,0.2,7.7,0.3 c0.8-18.3-4.6-31.5-12-41l0,0c-0.1-0.2-0.3-0.3-0.4-0.5c-0.1-0.1-0.1-0.1-0.2-0.2c-0.4-0.6-0.9-1.1-1.4-1.6l-0.1-0.1l0,0 c-8.7-10-19.4-15.3-25.8-17.8c-3-1.2-4.6-4.5-3.6-7.7l3.6-11.3c1.2-3.7,5.3-5.4,8.7-3.6c19.7,10,29.9,25.9,35,41.5l0,0 c5.6,17.1,5,34,4.1,42.4c2.6-0.1,5.2-0.2,7.8-0.3c0.7-7.4,1-19.6-1.6-33.1v-0.1C258.7,76.5,261.8,72.8,265.8,72.9z" class="st196"/><g><path d="M245.2,113.9c-0.7,0-1.4,0-2.2-0.1C243.8,113.9,244.5,113.9,245.2,113.9z" class="st197"/><path d="M253.3,113.9c1.6-16.3,2.3-63.9-40.6-84.6c-2.7-1.3-5.9,0.1-6.8,2.9l-4.5,14c-0.8,2.5,0.5,5.1,3,6.1 c11.8,4.4,42.8,19.9,40.9,61.7c1.2,0,2.3,0,3.5,0c2.8,0,5.6-0.1,8.4-0.2l0,0C255.9,113.8,254.6,113.9,253.3,113.9z" class="st197"/></g><path d="M248.8,117.8c-16.4,0-32.3-1.9-44.8-5.3c-2.1-0.6-3.3-2.7-2.7-4.8c0.6-2.1,2.7-3.3,4.8-2.7 c11.8,3.2,27,5,42.7,5c15.4,0,30.3-1.7,42.1-4.8c2.1-0.6,4.2,0.7,4.7,2.7c0.6,2.1-0.7,4.2-2.7,4.7 C280.5,116,264.9,117.8,248.8,117.8z" class="st195"/></g></svg>