<svg xmlns="http://www.w3.org/2000/svg" xmlns:xlink="http://www.w3.org/1999/xlink" id="Layer_1" x="0" y="0" version="1.1" viewBox="0 0 200 200" xml:space="preserve" style="enable-background:new 0 0 200 200"><style type="text/css">.st0{display:none;fill:#d1a982}.st1{fill:#81af5b}.st19{fill:#fff}.st64{fill:#2f7b1d}.st66{fill:#ffe706}.st103{fill:#f3cf47}.st104{fill:#a57600}</style><rect width="2535.7" height="2318.4" x="-7.1" y="-245.6" class="st0"/><g><path d="M99.9,170.4c0,0-47.1-5.4-83.7-49.5c-2.5-3-1.8-5.9-1.8-9.7c0-27.1,42-49.1,68.5-56.5 c0.5-0.1,7.9-1.7,17.5-1.7c6.2,0,12,0.7,17.2,2c26.2,6.5,64.3,29.5,67.7,55.8c0.5,3.5,0.4,6.3-1.2,9.9 C184.1,120.5,147.5,166.5,99.9,170.4z" class="st66"/><path d="M28.4,108c-0.2,0-0.3,0-0.5-0.1c-0.8-0.3-1.2-1.1-0.9-1.8c2.3-7.1,9.2-14.7,20-22c0.7-0.5,1.6-0.3,2,0.4 c0.5,0.7,0.3,1.6-0.4,2c-10.2,6.9-16.8,14-18.9,20.5C29.6,107.6,29,108,28.4,108z" class="st19"/><path d="M152.9,108.6c-1.5-3.3-3.4-6.4-5.5-9.5" class="st103"/><path d="M152.9,110c-0.6,0-1.1-0.3-1.3-0.8c-1.4-3.1-3.3-6.2-5.4-9.2c-0.5-0.7-0.3-1.6,0.4-2c0.7-0.5,1.6-0.3,2,0.4 c2.2,3.2,4.1,6.4,5.7,9.7c0.3,0.7,0,1.6-0.7,1.9C153.3,110,153.1,110,152.9,110z" class="st104"/><path d="M69.5,101.5c-0.6,2.9-1.1,6-1.4,9.1" class="st103"/><path d="M68.1,112.1c-0.1,0-0.1,0-0.2,0c-0.8-0.1-1.4-0.8-1.3-1.6c0.3-3.1,0.8-6.2,1.5-9.2c0.2-0.8,0.9-1.3,1.7-1.1 c0.8,0.2,1.3,0.9,1.1,1.7c-0.6,3-1.1,6-1.4,9C69.4,111.5,68.8,112.1,68.1,112.1z" class="st19"/><path d="M117.8,113.1c-0.6-5.6-1.6-11-2.9-15.9" class="st103"/><path d="M117.8,114.6c-0.7,0-1.4-0.6-1.5-1.3c-0.6-5.3-1.6-10.6-2.8-15.8c-0.2-0.8,0.3-1.6,1.1-1.8 c0.8-0.2,1.6,0.3,1.8,1.1c1.3,5.3,2.3,10.7,2.9,16.1c0.1,0.8-0.5,1.5-1.3,1.6C117.9,114.6,117.9,114.6,117.8,114.6z" class="st104"/><path d="M189.7,110.1c-3.8-29.5-44.7-52.9-71-59.5c-5.6-1.4-11.7-2.1-18.2-2.1c-10.2,0-17.9,1.7-18.3,1.8l-0.2,0.1 l-0.2,0.1C61.8,56.1,10,78,10,111.2c0,4.1,0.3,7.2,2.1,11.4c1.3,3.1,3.9,5.5,8,9c1,0.9,2.5,2.2,3,2.7c19,25.1,62.6,40.4,76.8,40.4 c16.1,0,55.8-16.9,75.5-39.3c0.4-0.4,2-1.8,3.2-2.9c5.6-5,8.2-7.4,9.5-10.2C190.3,117.6,190.2,113.7,189.7,110.1z M84.1,58.9 c0,0,7-1.6,16.3-1.6c5,0,10.6,0.4,16.1,1.8c24.1,6,59.1,26.7,64.1,49.9c0.7,5.9-1.3,12.8-9.7,14.6c-3.7,0.8-7.6,0.4-10.9-1 c-4.1-1.9-9.1-0.7-12.3,2.9c-2.8,3.1-6.9,5.1-11.4,5.6c-4.1,0.4-8.1-0.5-11.3-2.5c-4-2.5-9.2-2.2-12.7,0.7 c-3.2,2.7-7.7,4.3-12.4,4.3c-4.7,0-9.3-1.6-12.5-4.4c-3.4-3-8.6-3.3-12.6-0.7c-3.3,2.1-7.3,3-11.5,2.6c-4.5-0.5-8.7-2.5-11.4-5.6 c-3.2-3.6-8.2-4.7-12.3-2.9c-3.3,1.5-7.1,1.9-10.9,1c-6.5-1.4-9.7-6.4-10.1-11.6c0-0.3,0-0.5,0-0.8C18.8,86.6,59.7,65.8,84.1,58.9z M168.8,129.7C150,151.1,112.3,166,99.9,166c-12.3,0-53-14.7-69.8-37c-0.5-0.7-1.6-1.7-2.9-2.8c0.4,0.1,0.7,0.3,1.1,0.3 c4.4,0.9,8.9,0.5,12.7-1.2c3-1.4,6.5-0.5,8.9,2.1c3.3,3.7,8,6,13.3,6.6c4.8,0.5,9.5-0.6,13.3-3c2.9-1.9,6.7-1.7,9.1,0.4 c3.8,3.3,8.9,5.1,14.4,5.1c5.5,0,10.5-1.8,14.3-5c2.5-2.1,6.3-2.3,9.2-0.4c3.8,2.4,8.5,3.4,13.2,2.9c5.3-0.5,10-2.9,13.3-6.6 c2.4-2.6,5.9-3.5,8.9-2.1c3.8,1.7,8.3,2.2,12.7,1.2c0.3-0.1,0.6-0.2,0.9-0.2C170.8,127.7,169.4,129,168.8,129.7z" class="st104"/><circle cx="59.1" cy="79.3" r="1.5" class="st19"/><path d="M87.4,57.4L93,29.6l11.7,4.5l5.6,23.3C110.4,57.4,98.9,62.8,87.4,57.4z" class="st1"/><path d="M99.6,64.2C96,64.2,92,63.6,88,62c-2.6-1.1-4.1-3.9-3.6-6.7l5.4-26.6c0.3-1.3,1.1-2.4,2.2-3 c1.1-0.6,2.5-0.7,3.7-0.3l11,4.2c1.8,0.7,3.2,2.2,3.6,4.1l5.4,22.5c0.5,2-0.5,4.1-2.4,5C113,61.5,107.2,64.2,99.6,64.2z M95,54.9 c3.6,0.7,7.1,0.5,9.7-0.1c0.9-0.2,1.4-1,1.2-1.9l-3.6-14.8c-0.1-0.5-0.5-0.9-0.9-1.1l-2.3-0.9c-0.9-0.3-1.9,0.2-2,1.1l-3.2,15.8 C93.7,53.9,94.2,54.8,95,54.9z" class="st64"/></g></svg>