<svg xmlns="http://www.w3.org/2000/svg" xmlns:xlink="http://www.w3.org/1999/xlink" id="Layer_1" x="0" y="0" version="1.1" viewBox="0 0 500 500" xml:space="preserve" style="enable-background:new 0 0 500 500"><style type="text/css">.st1{fill:#365219}.st15{fill:#fff}.st23{fill:#95b284}.st24{fill:#567f0e}</style><path d="M222.2,371.3c-6,0-11.9-1.3-17.4-3.9c-9.9-4.6-17.4-12.7-21.5-23c-11.4-9.6-18.9-23.9-20.7-39.9	c-2.1-17.8-1.2-79.2,4.7-134.6c3.7-34.7,9.8-70.1,16.6-97.2c11-43.4,20.3-52.3,30.9-52.3c13.2,0,20.6,15.8,27.7,39.5	c3.3,11.2,6.6,24.8,9.7,39.7c4.4-8.6,8.6-16.4,12.6-23.1c14.3-23.8,22.3-28.7,29.8-28.7c1.3,0,2.5,0.2,3.7,0.5	c11.3,3.1,14,17,14.5,36.9c0.3,10.3-0.1,23.1-1.2,37.1c0.1,0,0.2,0,0.3,0c2.1,0,4.2,0.4,6.1,1.3c8.7,4.1,10.2,14.5,9.4,26.3l48-73.3	c2.1-3.2,5.7-5.1,9.5-5.1c0.7,0,1.5,0.1,2.2,0.2c4.6,0.9,8.1,4.5,8.9,9.1c6.3,34.4-30.5,112-46.6,143.8	c-25.1,49.5-57.9,100.5-69.2,115.2c-7.3,9.5-17.5,16.6-28.7,20.2C243.1,367.3,232.7,371.3,222.2,371.3	C222.2,371.3,222.2,371.3,222.2,371.3z" class="st23"/><path d="M279.5,160.1c0,0,20.5-23.4,20.4-23.4c4.4-41.6,4.1-77.3-3.3-79.4l-34.4,124.3L279.5,160.1z" class="st24"/><path d="M267.6,133.3c-2-0.5-4.1,0.6-4.6,2.7l-10.6,38.8c0.4,4,0.8,8,1.2,12c0.2,0,0.3,0,0.5,0c1.7,0,3.2-1.1,3.6-2.8	l12.5-46C270.8,135.9,269.7,133.8,267.6,133.3z" class="st15"/><path d="M207.9,197.4c-2.1,0-3.8-1.7-3.8-3.8l-0.1-32.3c0-2.1,1.7-3.8,3.8-3.8c0,0,0,0,0,0c2.1,0,3.8,1.7,3.8,3.8	l0.1,32.3C211.7,195.7,210,197.4,207.9,197.4C207.9,197.4,207.9,197.4,207.9,197.4z" class="st15"/><path d="M237.9,219c5.2-8.6,10.8-17.3,16.4-25.6c-0.6-7.5-1.4-15.1-2.2-22.5c-7.9-69.1-24.8-139.1-37.1-139.1	l0.7,226.9C222.4,245.7,230,231.9,237.9,219z" class="st24"/><path d="M208.8,358.1c17.4,8.2,36.8,0.1,45.6-15.2c6.5-11.4,26.6-54.7,40.6-96.6c17.5-52.3,28.4-108.5,19.2-112.8	L208.8,358.1z" class="st24"/><path d="M228,303.9c-0.5,0-1.1-0.1-1.6-0.4c-1.9-0.9-2.7-3.1-1.8-5l8.8-18.9c0.9-1.9,3.1-2.7,5-1.8	c1.9,0.9,2.7,3.1,1.8,5l-8.8,18.9C230.8,303.1,229.4,303.9,228,303.9z" class="st15"/><ellipse cx="208.2" cy="215.9" class="st15" rx="3.8" ry="3.8" transform="matrix(0.2394 -0.9709 0.9709 0.2394 -51.3254 366.354)"/><ellipse cx="245" cy="263.9" class="st15" rx="3.8" ry="3.8" transform="matrix(0.2394 -0.9709 0.9709 0.2394 -69.8839 438.5621)"/><ellipse cx="215.5" cy="54" class="st15" rx="3.8" ry="3.8" transform="matrix(0.2394 -0.9709 0.9709 0.2394 111.5009 250.2864)"/><path d="M348.5,155.4c-0.7,0-1.4-0.2-2.1-0.6c-1.7-1.2-2.2-3.5-1.1-5.2l8.2-12.5c1.1-1.7,3.5-2.2,5.2-1.1	c1.7,1.2,2.2,3.5,1.1,5.2l-8.2,12.5C351,154.8,349.8,155.4,348.5,155.4z" class="st15"/><path d="M175.6,470c-2.2,8.4,5.1,16.6,13.6,15.1c7.6-1.3,9-9.2,9-9.2c11.4-46.1,45.3-87.6,58.8-102.7	c2.4-2.7,5.2-4.9,8.4-6.6c9.3-4.7,17.6-11.5,24.1-19.9c11.5-15,44.9-66.9,70.3-117c16.1-31.7,29-61.6,37.3-86.5	c9.4-27.9,12.8-48.7,10.5-63.4c-1.3-8-6.4-15-14-18c-2.8-1.1-5.7-1.7-8.6-1.7c-7.6,0-14.7,3.8-19,10.3L334,119.5	c-0.6,0.9-1.8,1-2.5,0.2c-2.1-2.4-4.5-4.2-6.7-5.4c-0.5-0.3-0.9-0.9-0.8-1.5c0.6-10.3,0.7-19.7,0.5-27.8c-0.3-9.4-1-16.9-2.4-22.8	c-3.8-16.9-13.3-22.8-20.6-24.8c-2.2-0.6-4.4-0.9-6.7-0.9c-12.2,0-20.5,8.1-25.8,14.3c-3.4,4-6.9,8.9-10.8,15.1	c-0.6,0.9-2,0.7-2.2-0.3c-0.8-3.1-1.7-6-2.5-8.8c-3.4-11.4-6.8-20.2-10.3-26.9c-2.4-4.7-5-8.4-7.8-11.4c-7.3-7.7-15.1-9.3-20.5-9.3	h0c0,0,0,0-0.1,0c-19.2,0.1-27.7,19.3-30.5,25.6c-3.8,8.7-7.7,20.6-11.4,35.3c-7,27.5-13.1,63.5-16.9,98.8	c-6.1,56.2-6.8,118.8-4.7,137.1c1.8,15.6,8.2,29.9,18,40.8c3.3,3.7,5.6,8.3,6.7,13.2C180.1,378.2,187.6,423.3,175.6,470z M221.2,240.2c-0.5,1-2,0.6-2-0.5L218.8,107c0-2.1-1.7-3.8-3.8-3.8c0,0,0,0,0,0c-2.1,0-3.8,1.7-3.8,3.8l0.4,148.2	c0,1.8-0.4,3.6-1.3,5.1c-11.7,22.5-20.7,42.1-23.8,50.4c-1.7,4.5-2.6,9.1-2.8,13.8c-0.1,1.2-1.6,1.6-2.2,0.6	c-4.1-6.5-6.7-14-7.6-21.9c-1.9-16.5-1.2-76.7,4.7-132.1c7.5-69.2,24-139.4,36.3-139.4c0,0,0,0,0,0c12.3,0,29.3,70,37.1,139.1	c0.5,4.2,0.9,8.4,1.3,12.6c0.2,2.5-0.4,5.1-1.8,7.2c-5.8,8.5-11.5,17.4-16.8,26.3C230,224.6,225.5,232.5,221.2,240.2z M253.3,341.2	c-6.8,11.2-18.6,18.8-30.9,18.8c-2.1,0-4.2-0.2-6.3-0.7c-1.5-0.3-2.3-1.9-1.6-3.2L292,189.2c0.9-1.9,0.1-4.1-1.8-5	c-1.9-0.9-4.1-0.1-5,1.8l-77.6,166.9c-0.6,1.3-2.3,1.8-3.4,0.9c-12.1-9.1-15.8-26-10.4-40.4c4.6-12.2,24.7-55.1,47.5-92.5	c27.2-44.7,60.6-87.3,71-87.3c0.5,0,0.9,0.1,1.3,0.3c8.8,4.1-2.5,59.6-20,111.4C279.4,286.8,260,330.1,253.3,341.2z M259.5,170	c-1.6-13.8-3.5-27.8-5.7-41.2c-0.5-3-0.1-6,1.2-8.7c16-34.1,32.4-60.9,39.8-60.9c0.2,0,0.5,0,0.7,0.1c6.6,1.8,7.6,30.6,4.7,66.3	c-0.3,3.7-2,7.1-4.7,9.7c-0.1,0.1-0.1,0.1-0.2,0.2c-5.2,4.8-11.4,11.7-18.3,20.3c-1.2,1.5-2.5,3.1-3.7,4.7c-0.4,0.5-1.3,0.1-1.1-0.5	l11.6-42.6c0.5-1.7-0.3-3.6-1.9-4.5c-2.2-1.1-4.8,0.1-5.4,2.4l-15.1,54.8c0,0-0.1,0.9-0.9,0.9C259.7,171,259.5,170,259.5,170z M203.8,403.1c-0.5-8.4-1.4-16.2-2.4-23.1c-0.1-0.8,0.7-1.4,1.4-1.1c4.9,2,10.1,3.2,15.3,3.6c0.8,0.1,1.3,1,0.8,1.6	c-4.3,5.9-8.8,12.4-13.2,19.4C205.2,404.4,203.9,404.1,203.8,403.1z M339.6,219.5c-25.2,49.7-57.9,100.3-68.1,113.4	c-2,2.6-4.3,5-6.8,7.1c-0.8,0.7-2-0.2-1.5-1.2c8.9-17.2,25.2-55,37.4-91c6.7-20,12.6-40.7,16.8-59c0.6-2.5,1.6-4.9,3-7.1l62.8-96	c0.7-1,2.2-0.6,2.3,0.6C387.3,109.9,369.5,160.5,339.6,219.5z" class="st1"/></svg>