<svg xmlns="http://www.w3.org/2000/svg" xmlns:xlink="http://www.w3.org/1999/xlink" id="Layer_1" x="0" y="0" version="1.1" viewBox="0 0 1000 1000" xml:space="preserve" style="enable-background:new 0 0 1000 1000"><style type="text/css">.st0{display:none;fill:#d1a982}.st12{fill:#73953b}.st13{fill:#3d710c}.st43{fill:#fff}.st44{fill:#efe8d7}.st45{fill:#8c7662}.st62{fill:#dabb95}.st69,.st70{opacity:.6;fill:#bf71b0}.st70{opacity:.5}.st71{opacity:.4}.st71,.st72,.st73{fill:#bf71b0}.st72{opacity:.3}.st73{opacity:.2}</style><rect width="5227.9" height="4725.2" x="-760.5" y="-1613.5" class="st0"/><line x1="465.6" x2="374.7" y1="261.1" y2="115.5" class="st12"/><line x1="534.2" x2="625" y1="261.1" y2="115.5" class="st12"/><path d="M499.9,945c47.8-62,108.1-112.9,175.9-152.1C772,737.2,857,657.9,857,547.3c0-224-242.7-343.8-475.6-284.6	c-104.8,26.7-192.5,100.9-225.6,203.9c-49.4,153.8,52.9,261.9,171.4,329.6C393.8,834.2,452.7,884.5,499.9,945L499.9,945L499.9,945z" class="st44"/><path d="M499.9,967.8c-7,0-13.6-3.2-18-8.8c-45.1-57.8-101-106-166.1-143.1c-71.2-40.7-123.9-87.8-156.7-140.2	c-41.5-66.3-49.9-139-25.1-216.2c17.2-53.6,49.2-102.2,92.5-140.6c41.7-37.1,93.4-64.1,149.2-78.4c69-17.5,141.2-20.5,208.9-8.4	c67.2,11.9,128.5,38.2,177.1,76.1c36.9,28.7,65.8,63.1,85.8,102.4c21.3,41.7,32.1,87.6,32.1,136.7c0,102.1-64.8,191.3-192.6,265.4	c-67.6,39.2-124.6,88.4-169.3,146.3C513.6,964.5,507,967.8,499.9,967.8C499.9,967.8,499.9,967.8,499.9,967.8z M500.9,270.5	c-38,0-76.5,4.8-113.9,14.3c-48.9,12.4-93.9,36-130.2,68.3c-37.2,33-64.6,74.7-79.3,120.5c-10.8,33.5-14.1,66-9.9,96.8	c3.8,28,14,55.3,30.2,81.2c28.7,45.9,76,87.9,140.6,124.8c61.9,35.3,116,79.9,161.4,132.6c45.3-53.1,100.5-98.7,164.5-135.8	c51.8-30,92.4-62.6,120.5-97c32.8-40,49.4-83.4,49.4-128.9c0-41.8-9.1-80.8-27.1-115.9c-17-33.3-41.7-62.6-73.2-87.2	c-42.8-33.3-97.2-56.5-157.1-67.2C552,272.6,526.6,270.5,500.9,270.5z" class="st62"/><rect width="387.4" height="45.6" x="306.2" y="270.7" class="st69"/><rect width="533.8" height="45.6" x="233" y="316.2" class="st70"/><rect width="614.7" height="45.6" x="192.5" y="361.8" class="st71"/><rect width="671.9" height="45.6" x="164" y="407.4" class="st72"/><rect width="698.8" height="45.6" x="150.5" y="453" class="st73"/><g><path d="M276.8,440.5c-1.9,0-3.8-0.5-5.5-1.6c-5-3-6.5-9.5-3.5-14.5c23.5-38.2,60-68.5,102.9-85.1 c5.4-2.1,11.6,0.6,13.7,6c2.1,5.4-0.6,11.5-6,13.6c-38.6,15-71.5,42.2-92.6,76.5C283.8,438.7,280.3,440.5,276.8,440.5z" class="st43"/></g><g><circle cx="256.1" cy="477.6" r="10.5" class="st43"/></g><path d="M499.9,967.8c-7,0-13.6-3.2-18-8.8c-45.1-57.8-101-106-166.1-143.1c-71.2-40.7-123.9-87.8-156.7-140.2	c-41.5-66.3-49.9-139-25.1-216.2c17.2-53.6,49.2-102.2,92.5-140.6c41.7-37.1,93.4-64.1,149.2-78.4c69-17.5,141.2-20.5,208.9-8.4	c67.2,11.9,128.5,38.2,177.1,76.1c36.9,28.7,65.8,63.1,85.8,102.4c21.3,41.7,32.1,87.6,32.1,136.7c0,102.1-64.8,191.3-192.6,265.4	c-67.6,39.2-124.6,88.4-169.3,146.3C513.6,964.5,507,967.8,499.9,967.8C499.9,967.8,499.9,967.8,499.9,967.8z M500.9,270.5	c-38,0-76.5,4.8-113.9,14.3c-48.9,12.4-93.9,36-130.2,68.3c-37.2,33-64.6,74.7-79.3,120.5c-10.8,33.5-14.1,66-9.9,96.8	c3.8,28,14,55.3,30.2,81.2c28.7,45.9,76,87.9,140.6,124.8c61.9,35.3,116,79.9,161.4,132.6c45.3-53.1,100.5-98.7,164.5-135.8	c51.8-30,92.4-62.6,120.5-97c32.8-40,49.4-83.4,49.4-128.9c0-41.8-9.1-80.8-27.1-115.9c-17-33.3-41.7-62.6-73.2-87.2	c-42.8-33.3-97.2-56.5-157.1-67.2C552,272.6,526.6,270.5,500.9,270.5z" class="st45"/><path d="M668.5,88.9l-38.7-24.1c-7.3-4.6-15.7-6.9-24.1-6.9c-3.4,0-6.9,0.4-10.3,1.2c-11,2.6-20.7,9.1-27.1,18.4V55.6	c0-25.2-20.4-45.6-45.6-45.6h-45.6c-25.2,0-45.6,20.4-45.6,45.6v21.8c-6.4-9.3-16.1-15.8-27.1-18.4c-3.4-0.8-6.8-1.2-10.3-1.2	c-8.5,0-16.8,2.4-24.1,6.9l-38.7,24.1c-21.4,13.3-27.9,41.4-14.5,62.8l56,89.7c1-0.3,2-0.5,3.1-0.8c9.4-2.4,18.8-4.5,28.3-6.3	l29.3,47c1.5,2.4,3.6,4.3,6.1,5.5c1.1,0.5,26.3,13,61.2,13c20.6,0,40.5-4.3,59.1-12.7c2.7-1.2,5-3.3,6.6-5.8l29.3-47	c10.6,2.1,20.9,4.6,31.2,7.5l56.2-90.1C696.4,130.3,689.9,102.2,668.5,88.9z M553.5,273.2c-18.8,8.5-36.9,11.3-52.8,11.3	c-31.8,0-54.4-11.3-54.4-11.3l-26.1-41.8c16.7-2.7,33.5-4.5,50.3-5.6l6.7,10.7v-11c15.2-0.7,30.5-0.8,45.6-0.1v11.1l6.7-10.8	c16.9,1,33.7,2.8,50.2,5.6L553.5,273.2z" class="st13"/><path d="M603,107.7l-71.1,114c-2.7,4.3-9.2,2.4-9.2-2.6V60.6c0-2.8-2.2-5-5-5h-35.6c-2.8,0-5,2.2-5,5V219	c0,5-6.6,6.9-9.2,2.6l-71.1-114c-1.5-2.3-4.5-3.1-6.9-1.6l-30.2,18.8c-2.3,1.5-3.1,4.5-1.6,6.9l87.4,140.2c0.5,0.8,1.3,1.5,2.2,1.9	c5.4,2.4,25.9,10.7,53,10.7c15.5,0,33.1-2.7,51.4-10.7c0.9-0.4,1.7-1.1,2.2-1.9l87.4-140.1c1.5-2.3,0.7-5.4-1.6-6.9l-30.2-18.8	C607.6,104.6,604.5,105.3,603,107.7z" class="st12"/></svg>