<svg xmlns="http://www.w3.org/2000/svg" xmlns:xlink="http://www.w3.org/1999/xlink" id="Layer_1" x="0" y="0" version="1.1" viewBox="0 0 500 500" xml:space="preserve" style="enable-background:new 0 0 500 500"><style type="text/css">.st44{fill:#fff}.st152{fill:#2a784b}.st153{fill:#1f4130}.st154{fill:#d7d8da}</style><path d="M365.3,113.4c0-63.6-51.6-96.5-115.2-96.5c-63.6,0-115.2,32.8-115.2,96.5c0,26.8,9.1,67.2,24.5,104.9	c19.6,48.3,25,101.3,16.4,152.8c-1.9,11.4-2.9,23.3-2.9,35.6c0,41.3,34.6,74.8,77.3,74.8c42.7,0,77.3-33.5,77.3-74.8	c0-12.3-1-24.3-2.9-35.6c-8.7-51.4-3.3-104.4,16.4-152.8C356.2,180.6,365.3,140.2,365.3,113.4z" class="st152"/><path d="M250.1,493.2c-49,0-88.9-38.8-88.9-86.4c0-12.7,1-25.3,3.1-37.6c8.4-49.9,3-100.5-15.7-146.5	c-15.6-38.5-25.3-80.4-25.3-109.3c0-33.8,13.2-61.9,38.2-81.3c22.6-17.5,53.3-26.8,88.6-26.8s66,9.3,88.6,26.8	c25,19.4,38.2,47.5,38.2,81.3c0,28.9-9.7,70.8-25.3,109.3c-18.7,45.9-24.1,96.6-15.7,146.5c2.1,12.2,3.1,24.9,3.1,37.6	C339,454.4,299.1,493.2,250.1,493.2z M250.1,28.6c-29.7,0-56.1,7.8-74.4,21.9c-19.4,15-29.2,36.2-29.2,62.9	c0,25.7,9.3,65.2,23.6,100.6c20.3,49.9,26.2,104.9,17,159.1c-1.8,11-2.8,22.3-2.8,33.7c0,34.8,29.5,63.2,65.7,63.2	s65.7-28.3,65.7-63.2c0-11.4-0.9-22.8-2.8-33.7c-9.1-54.1-3.2-109.1,17-159.1c14.4-35.3,23.6-74.8,23.6-100.6	c0-26.7-9.8-47.9-29.2-62.9C306.2,36.4,279.8,28.6,250.1,28.6z" class="st153"/><path d="M194.9,459c-32.3-34.8-11.3-89.6-11.3-89.6c14.4-48.2,20.8-95.9,23.1-137.1c7.3,22.5,15.8,45.4,23.5,64.4	c9.3,22.9,16,46.7,20,71l0.1,0c-0.3-8.9-1.2-19.7-3-33.7c-7.5-58.4-1.3-127,50-224.1c0,0-20.3,128.1,18.9,259.5l10.3,47.4	l-22.2,44.5L257,483.5L194.9,459z" class="st154"/><path d="M376.9,113.4c0-33.8-13.2-61.9-38.2-81.3c-22.6-17.5-53.3-26.8-88.6-26.8s-66,9.3-88.6,26.8	c-25,19.4-38.2,47.5-38.2,81.3c0,28.9,9.7,70.8,25.3,109.3c18.7,45.9,24.1,96.6,15.7,146.5c-2.1,12.2-3.1,24.9-3.1,37.6	c0,47.7,39.9,86.4,88.9,86.4c49,0,88.9-38.8,88.9-86.4c0-12.7-1-25.3-3.1-37.6c-8.4-49.9-3-100.5,15.7-146.5	C367.2,184.2,376.9,142.3,376.9,113.4z M250.1,28.6c10.6,0,20.8,1,30.4,2.9c1.6,0.3,1.4,2.6-0.1,2.7c-22.1,2.3-39.8,7.3-53.5,15.2	c-3.7,2.1-8.1,2.6-12.2,1.5c-7.9-2.2-16.4-4.3-25.4-6.1c-1.3-0.3-1.5-2-0.4-2.6C205.7,33.3,226.9,28.6,250.1,28.6z M210.8,58	c1.3,0.3,1.7,1.9,0.8,2.8c-1.3,1.2-2.5,2.5-3.6,3.8c-11.4,12.8-23,33.3-23,87.5c0,15,4.7,38.1,13.9,68.5c0.3,0.9,0.5,1.8,0.8,2.7	c2,6.5,2.7,13.3,2.3,20c-1.8,24.7-5.1,51.5-10.7,79c-0.1-37.2-7.3-74-21.2-108.3c-14.4-35.3-23.6-74.8-23.6-100.6	c0-25.3,8.8-45.6,26.3-60.5c2.1-1.8,4.9-2.4,7.6-1.8L210.8,58z M198.7,446c-9-10.8-14.3-24.5-14.3-39.3c0-11.4,0.9-22.8,2.8-33.7	c0.3-1.5,0.5-3,0.7-4.5c10.8-36.6,16.9-72.9,20.2-105.4c0.3-2.6,3.9-3.1,4.8-0.6c5.4,15,10.4,27.5,13.7,35.7	c7.2,17.8,12.9,36.4,16.9,55.3c2.3,10.9,3,22.1,1.9,33.2c-0.5,5.3-1.4,11.3-2.7,17.5c-3.4,16.2-15.6,33.8-31,43.8	C207.5,450.7,201.9,449.9,198.7,446z M250.1,469.9c-12.1,0-23.5-3.2-33.2-8.7c-2.8-1.6-2.9-5.5-0.2-7.3c4.4-2.9,8.7-6.5,12.7-10.7	c10.3-10.7,17.9-24.3,20.9-37.4c4.5-19.9,5.7-34.4,0.8-72.4c-5.5-42.9-6-102.4,33.9-190c1.2-2.5,5-1.6,4.8,1.2	c-0.9,12.6-1.6,28.1-1.7,45.7c-0.1,40,3.1,98.4,18.6,159.4c3.8,15.1,6.7,30.5,8.4,45.9l0.6,5.5c0,1.8,0.1,3.7,0.1,5.5	C315.8,441.6,286.3,469.9,250.1,469.9z M330.1,214c-12.6,31-19.6,63.9-21,97.4c-0.1,1.7-2.5,1.9-2.8,0.2	c-19.6-107.2-5.5-200-5.3-201.1c0.3-1.9-0.8-3.7-2.6-4.3c-1.8-0.6-3.8,0.2-4.6,1.9c-38.6,73-55.3,135.4-52.7,198.5	c0.1,1.6-2.2,2-2.7,0.5c-1.4-4-3-7.9-4.6-11.9c-18.9-46.6-41-112-41-143.2c0-41.1,6.3-65.7,21-82.4c15.4-17.4,40.9-26.7,79.6-28.7	c11.1-0.6,22.1,2.6,30.9,9.4c0,0,0.1,0.1,0.1,0.1c19.4,15,29.2,36.2,29.2,62.9C353.7,139.1,344.4,178.6,330.1,214z" class="st153"/><g><path d="M224,109.2c-0.7,0-1.4-0.2-2-0.6c-1.9-1.1-2.5-3.6-1.4-5.5c3-5.1,6.5-9.9,10.4-14.3 c9.5-10.7,21.1-18.9,34.6-24.3c2-0.8,4.4,0.2,5.2,2.2c0.8,2.1-0.2,4.4-2.2,5.2c-12.3,4.9-22.9,12.4-31.6,22.2 c-3.5,4-6.7,8.4-9.5,13.1C226.7,108.5,225.3,109.2,224,109.2z" class="st44"/></g><circle cx="215.2" cy="126.7" r="4" class="st44"/><circle cx="172.9" cy="75.6" r="4" class="st44"/><g><path d="M162.5,122.5c-2.2,0-4-1.8-4-4c0-9,1.3-17.3,3.9-24.8c0.7-2.1,3-3.2,5.1-2.5c2.1,0.7,3.2,3,2.5,5.1 c-2.3,6.7-3.5,14.2-3.5,22.2C166.5,120.7,164.7,122.5,162.5,122.5z" class="st44"/></g></svg>