<svg xmlns="http://www.w3.org/2000/svg" xmlns:xlink="http://www.w3.org/1999/xlink" id="Layer_1" x="0" y="0" version="1.1" viewBox="0 0 500 500" xml:space="preserve" style="enable-background:new 0 0 500 500"><style type="text/css">.st235{fill:#e9dbd1}.st237{fill:#fff0e6}.st238{fill:#fff}.st239{fill:#b2a58d}</style><polygon points="24.5 227.1 487.5 227.1 449.8 330 350.3 409.1 260.1 423.5 221.9 426.9 156.3 386.8 93.2 328.5" class="st235"/><path d="M79.6,288.9c3.4,0,6.1-2.7,6.1-6.1l10,0l0,7.4c0,3.4,2.7,6.1,6.1,6.1c1.5,0,2.9-0.6,4.1-1.6l3.3-3l3.3,3	c1.1,1,2.6,1.6,4.1,1.6c2.7,0,5.2-1.9,5.9-4.5l1.5-5.4l5.2,2.1c0.7,0.3,1.5,0.4,2.3,0.4c3.4,0,6.1-2.7,6.1-6.1l0-14.8l10,0	c0,3.4,2.7,6.1,6.1,6.1c0.7,0,1.4-0.1,2-0.4l6.7-2.4v7.1v11.8c0,3.4,2.7,6.1,6.1,6.1s6.1-2.7,6.1-6.1v-4.4v-7.1l6.7,2.4	c0.7,0.2,1.4,0.4,2,0.4s1.4-0.1,2-0.4l6.7-2.4v7.1v11.8c0,3.4,2.7,6.1,6.1,6.1c2.7,0,5.2-1.9,5.9-4.5l1.5-5.4l5.2,2.1	c0.7,0.3,1.5,0.4,2.3,0.4c0.8,0,1.5-0.1,2.3-0.4l5.2-2.1l1.5,5.4c0.7,2.7,3.1,4.5,5.9,4.5c3.4,0,6.1-2.7,6.1-6.1l0-29.7l10,0	c0,2.6,1.6,4.9,4.1,5.8l3.3,1.2v3.5v19.2c0,3.4,2.7,6.1,6.1,6.1c3.4,0,6.1-2.7,6.1-6.1l0-37.1l10,0c0,3.4,2.7,6.1,6.1,6.1	s6.1-2.7,6.1-6.1v-4.4V249l6.7,2.4c0.7,0.2,1.4,0.4,2,0.4c1.5,0,2.9-0.6,4.1-1.6l3.3-3l3.3,3c0.6,0.5,1.3,0.9,2.1,1.2l3.3,1.2v3.5	v41.5c0,3.4,2.7,6.1,6.1,6.1c3.4,0,6.1-2.7,6.1-6.1v-56.3v-3.5l3.3-1.2c0.8-0.3,1.5-0.7,2.1-1.2l3.3-3l3.3,3	c0.6,0.5,1.3,0.9,2.1,1.2l3.3,1.2v3.5v48.9c0,3.4,2.7,6.1,6.1,6.1c2.7,0,5.2-1.9,5.9-4.5l1.5-5.4l5.2,2.1c0.7,0.3,1.5,0.4,2.3,0.4	c0.7,0,1.4-0.1,2-0.4l6.7-2.4v7.1v4.4c0,3.4,2.7,6.1,6.1,6.1c3.4,0,6.1-2.7,6.1-6.1v-4.4v-7.1l6.7,2.4c0.7,0.2,1.4,0.4,2,0.4	c3.4,0,6.1-2.7,6.1-6.1V271v-7.1l6.7,2.4c0.7,0.2,1.4,0.4,2,0.4s1.4-0.1,2-0.4l6.7-2.4v7.1v4.4c0,3.4,2.7,6.1,6.1,6.1	s6.1-2.7,6.1-6.1l0-7.4l10,0c0,2.6,1.6,4.9,4.1,5.8l3.3,1.2v3.5v4.4c0,3.4,2.7,6.1,6.1,6.1s6.1-2.7,6.1-6.1v-19.2h22.9V153.3	l-111.7-70l-110.2-7.8l-111,3.5L23,130.7l1.4,79.9L58.3,284L79.6,288.9z" class="st237"/><g><g><path d="M94.5,138c-2.2,0-4-1.8-4-4v-21.2c0-2.2,1.8-4,4-4s4,1.8,4,4V134C98.5,136.2,96.8,138,94.5,138z" class="st238"/></g><g><path d="M109.1,119c-2.2,0-4-1.8-4-4v-9.2c0-2.2,1.8-4,4-4s4,1.8,4,4v9.2C113.1,117.2,111.3,119,109.1,119z" class="st238"/></g><g><path d="M124.1,118c-2.2,0-4-1.8-4-4v-9.2c0-2.2,1.8-4,4-4s4,1.8,4,4v9.2C128.1,116.2,126.4,118,124.1,118z" class="st238"/></g><g><path d="M139,110c-2.2,0-4-1.8-4-4v-9.2c0-2.2,1.8-4,4-4s4,1.8,4,4v9.2C143,108.2,141.2,110,139,110z" class="st238"/></g><g><path d="M153.8,110c-2.2,0-4-1.8-4-4v-9.2c0-2.2,1.8-4,4-4s4,1.8,4,4v9.2C157.8,108.2,156,110,153.8,110z" class="st238"/></g><g><path d="M168.5,104c-2.2,0-4-1.8-4-4v-9.2c0-2.2,1.8-4,4-4s4,1.8,4,4v9.2C172.5,102.2,170.7,104,168.5,104z" class="st238"/></g><g><path d="M183.5,104c-2.2,0-4-1.8-4-4v-9.2c0-2.2,1.8-4,4-4s4,1.8,4,4v9.2C187.5,102.2,185.7,104,183.5,104z" class="st238"/></g><g><path d="M198.4,104c-2.2,0-4-1.8-4-4v-9.2c0-2.2,1.8-4,4-4s4,1.8,4,4v9.2C202.4,102.2,200.6,104,198.4,104z" class="st238"/></g><g><path d="M212.9,98c-2.2,0-4-1.8-4-4v-9.2c0-2.2,1.8-4,4-4s4,1.8,4,4V94C216.9,96.2,215.1,98,212.9,98z" class="st238"/></g><g><path d="M79.7,145.5c-2.2,0-4-1.8-4-4v-21.2c0-2.2,1.8-4,4-4s4,1.8,4,4v21.2C83.7,143.7,81.9,145.5,79.7,145.5z" class="st238"/></g><g><path d="M64.8,152.5c-2.2,0-4-1.8-4-4v-21.2c0-2.2,1.8-4,4-4s4,1.8,4,4v21.2C68.8,150.8,67,152.5,64.8,152.5z" class="st238"/></g><g><path d="M49.9,156.5c-2.2,0-4-1.8-4-4v-21.2c0-2.2,1.8-4,4-4s4,1.8,4,4v21.2C53.9,154.8,52.1,156.5,49.9,156.5z" class="st238"/></g><g><path d="M94.5,228.1c-2.2,0-4-1.8-4-4v-13.2c0-2.2,1.8-4,4-4s4,1.8,4,4v13.2C98.5,226.3,96.8,228.1,94.5,228.1z" class="st238"/></g><g><path d="M72.7,242.6c-2.2,0-4-1.8-4-4v-7.2c0-2.2,1.8-4,4-4s4,1.8,4,4v7.2C76.7,240.8,74.9,242.6,72.7,242.6z" class="st238"/></g><g><path d="M57.8,239.6c-2.2,0-4-1.8-4-4v-7.2c0-2.2,1.8-4,4-4s4,1.8,4,4v7.2C61.8,237.8,60,239.6,57.8,239.6z" class="st238"/></g><g><path d="M101.8,194.6c-2.2,0-4-1.8-4-4v-7.2c0-2.2,1.8-4,4-4s4,1.8,4,4v7.2C105.8,192.8,104,194.6,101.8,194.6z" class="st238"/></g><g><path d="M42.7,221.6c-2.2,0-4-1.8-4-4v-6.2c0-2.2,1.8-4,4-4s4,1.8,4,4v6.2C46.7,219.8,44.9,221.6,42.7,221.6z" class="st238"/></g><g><path d="M35.1,166.6c-2.2,0-4-1.8-4-4v-21.2c0-2.2,1.8-4,4-4s4,1.8,4,4v21.2C39.1,164.8,37.3,166.6,35.1,166.6z" class="st238"/></g></g><path d="M190.8,421.9c4.2,1.3,8,3.8,10.7,7.3c6.1,7.9,15.7,13,26.4,13c11.2,0,20.4-4.6,25.4-7.8c2.7-1.7,6-2.1,9-1.2	c3.2,1,6.6,1.6,10.1,1.6c3.5,0,6.9-0.5,10.1-1.6c3.1-1,6.4-1,9.5,0c3.2,1,6.6,1.6,10.1,1.6c2.5,0,5-0.3,7.4-0.8	c2.4,0.6,4.9,0.8,7.4,0.8c25.8,0,42.2-13.4,48.5-19.7c2-2,4.4-3.5,7.1-4.4c5.4-1.8,14.8-6,19.2-14.4c1.5-2.7,3.9-4.8,6.8-5.9	c6.9-2.5,19.1-8.8,24.2-23.7c1.3-3.7,4.3-6.4,8-7.6c10.8-3.3,19.3-12,22.3-23c0.5-1.9,1.6-3.6,3.2-4.9c5.3-4.1,9.2-9.7,11.3-16.2	c0.8-2.6,2.4-5,4.5-6.8c6.5-5.5,10.9-13.5,11.7-22.4c0.3-3.2,1.8-6,4.2-8.2c6.6-6.1,10.8-14.8,10.8-24.5v-72.9	c0-9.6-3.4-16.4-5.6-19.8c-1.1-1.7-1.8-3.7-2-5.7c-1-10.3-6.7-19.3-15-24.7c-2.1-1.4-3.8-3.1-5.2-5.2c-4.2-6.4-10.5-11.3-18-13.6	c-2.1-0.7-4.1-1.9-5.7-3.4c-26.1-23.4-56.5-27.1-56.5-27.1l0,0c-5.9-5.1-13.6-8.2-21.8-8.2c-3.9,0-7.7,0.7-11.2,1.9	c-3.5-1.2-7.2-1.9-11.1-1.9c-2.5,0-5,0.3-7.4,0.8c-1.4-0.3-2.9-0.6-4.4-0.7c-3.1-0.3-6-1.9-8.1-4.2c-6.1-6.6-14.9-10.8-24.6-10.8	c-8.4,0-14.8,3-18.5,5.4c-2.4,1.5-5.4,1.5-7.9,0c-4-2.4-10.6-5.4-18.2-5.4c-3.7,0-7.3,0.6-10.6,1.8c-2.7,0.9-5.7,0.9-8.4,0	c-3.4-1.1-7-1.8-10.6-1.8c-2.5,0-5,0.3-7.4,0.8c-2.4-0.6-4.9-0.8-7.4-0.8c-3.7,0-7.3,0.6-10.6,1.8c-2.7,0.9-5.7,0.9-8.4,0	c-3.4-1.1-6.9-1.8-10.6-1.8c-2.5,0-5,0.3-7.4,0.8c-2.4-0.6-4.9-0.8-7.4-0.8c-6.6,0-12.9,2-18.2,5.4c-2.5,1.6-5.4,2.4-8.4,2.1	c-1-0.1-2.1-0.1-3.1-0.1c-6.5,0-12.7,1.9-17.9,5.2c-2.7,1.7-5.9,2.6-9,2.3c-0.9-0.1-1.8-0.1-2.8-0.1c-6.9,0-13.3,2.1-18.6,5.7	c-2.5,1.7-5.1,3-8,3.8c-43.7,12.4-67,41.4-67,41.4c-14,9.6-13.9,27.1-13.9,27.1v21c0,5.6,1.4,10.9,3.9,15.7c2.3,4.3,3.5,9,3.5,13.8	l0,15c0,6.3,1.8,12.3,5,17.5c1.5,2.5,2.4,5.3,2.4,8.2l0,4c0,10,4.5,19.1,11.5,25.2c2.3,2,4,4.6,5,7.6c2.5,7.4,7.4,13.6,13.9,17.7	c1.8,1.1,3.3,2.7,4.4,4.5c1.7,2.7,3.8,5.1,6.2,7.2c2.4,2.1,4.2,4.7,5.3,7.7c2.1,5.2,6.9,13.4,17.6,18.9c5.8,3,10.4,8,13.1,14	c3.2,7.1,8.9,13,15.9,16.4c6,2.9,11.1,7.6,13.9,13.7c4,8.6,11.5,15.2,20.7,17.9c1.7,0.5,3.3,1.3,4.8,2.4c3,2.2,6.3,3.8,9.8,4.9	c1.9,0.6,3.7,1.7,5.2,3C168.1,410.4,177.3,417.6,190.8,421.9z M239.1,98.6c0-2,1.7-3.7,3.7-3.7s3.7,1.7,3.7,3.7v72.9	c0,2-1.7,3.7-3.7,3.7s-3.7-1.7-3.7-3.7V98.6z M231.7,201.2c0,2.1-1.8,3.8-3.9,3.7c-2-0.1-3.5-1.9-3.5-3.9l0-109.8	c0-2,1.7-3.7,3.7-3.7s3.7,1.7,3.7,3.7V201.2z M106.6,228.1c0.8,1.7,2,3.1,3.5,4.2c0.9,0.7,0.6,2.1-0.5,2.2c0,0,0,0-0.1,0	c-2.1,0.1-3.9-1.8-3.9-3.9v-2.2c0,0,0-0.5,0.4-0.6C106.4,227.8,106.6,228.1,106.6,228.1z M38.8,171.5c0,2-1.7,3.7-3.7,3.7	s-3.7-1.7-3.7-3.7v-25c0-2,1.7-3.7,3.7-3.7s3.7,1.7,3.7,3.7V171.5z M46.2,215.8c0,2-1.5,3.8-3.5,3.9c-2.1,0.1-3.9-1.6-3.9-3.7	l0-24.7l0,0c0,0,0,0,0,0c0-0.3,0.3-0.6,0.6-0.6c0.3,0,0.5,0.2,0.5,0.4l0,0c1,2,2.5,3.6,4.3,4.7c1.2,0.7,2,2,2,3.4V215.8z M47.3,235.5c1.1,2.5,3.1,4.4,5.6,5.5c0.5,0.2,0.8,0.6,0.8,1.1v3.3c0,2-1.5,3.8-3.5,3.9c-2.1,0.1-3.9-1.6-3.9-3.7v-9.9	c0,0,0-0.5,0.4-0.6C47.1,235.2,47.3,235.5,47.3,235.5z M53.6,186.3c0,2-1.7,3.7-3.7,3.7s-3.7-1.7-3.7-3.7v-50.7c0-2,1.7-3.7,3.7-3.7	s3.7,1.7,3.7,3.7V186.3z M61.1,230.6c0,2-1.5,3.8-3.5,3.9c-2.1,0.1-3.9-1.6-3.9-3.7l0-17.3c0,0,0-0.5,0.4-0.5	c0.4-0.1,0.6,0.1,0.7,0.3c1,2,2.5,3.7,4.4,4.8c1.2,0.7,2,2,2,3.4V230.6z M62.1,242.9c0.9,2,2.5,3.7,4.3,4.8c1.2,0.7,2,2,2,3.5v16.5	c0,2-1.5,3.8-3.5,3.9c-2.1,0.1-3.9-1.6-3.9-3.7v-24.7c0,0,0-0.5,0.4-0.6C62,242.5,62.1,242.9,62.1,242.9z M68.5,208.6	c0,2-1.7,3.7-3.7,3.7c-2,0-3.7-1.7-3.7-3.7v-80.3c0-2,1.7-3.7,3.7-3.7c2,0,3.7,1.7,3.7,3.7V208.6z M72,241.9c-2-0.1-3.5-1.9-3.5-3.9	v-16.5c0-1.4,0.8-2.7,2-3.4c1.9-1.1,3.4-2.8,4.4-4.8l0,0c0.1-0.2,0.3-0.3,0.5-0.3c0.3,0,0.6,0.2,0.6,0.6c0,0,0,0,0,0l0,0l0,24.7	C75.9,240.4,74.1,242.1,72,241.9z M77,272.6c0.9,2,2.5,3.7,4.4,4.8c1.2,0.7,2,2,2,3.4v1.6c0,2-1.5,3.8-3.5,3.9	c-2.1,0.1-3.9-1.6-3.9-3.7v-9.8c0,0,0-0.5,0.4-0.6S77,272.6,77,272.6z M83.3,193.7c0,2-1.7,3.7-3.7,3.7c-2,0-3.7-1.7-3.7-3.7v-72.9	c0-2,1.7-3.7,3.7-3.7c2,0,3.7,1.7,3.7,3.7V193.7z M84.4,228.1c0.9,2,2.5,3.7,4.4,4.8c1.2,0.7,2,2,2,3.4v31.3c0,2-1.5,3.8-3.5,3.9	c-2.1,0.1-3.9-1.6-3.9-3.7v-39.6c0,0,0-0.4,0.5-0.5C84.2,227.8,84.4,228.1,84.4,228.1z M91.8,294.8c1,2.2,2.7,4,4.8,5.1	c0.9,0.5,1.6,1.4,1.6,2.5v2.4c0,2-1.5,3.8-3.5,3.9c-2.1,0.1-3.9-1.6-3.9-3.7l0-9.9c0,0,0-0.5,0.4-0.5	C91.6,294.5,91.8,294.8,91.8,294.8z M91.8,191c0.9,2,2.5,3.7,4.4,4.9c1.2,0.7,2,2,2,3.4v23.9c0,2-1.5,3.8-3.5,3.9	c-2.1,0.1-3.9-1.6-3.9-3.7l0-32.2c0,0,0-0.4,0.4-0.5C91.6,190.7,91.8,191,91.8,191z M98.1,164.1c0,2-1.7,3.7-3.7,3.7	c-2,0-3.7-1.7-3.7-3.7v-50.7c0-2,1.7-3.7,3.7-3.7c2,0,3.7,1.7,3.7,3.7V164.1z M99.2,235.5c0.9,2,2.5,3.7,4.3,4.8c1.2,0.7,2,2,2,3.5	V290c0,2-1.5,3.8-3.5,3.9c-2.1,0.1-3.9-1.6-3.9-3.7v-54.4c0,0,0-0.5,0.4-0.5C99,235.2,99.2,235.5,99.2,235.5z M101.7,190	c-2-0.1-3.5-1.9-3.5-3.9V177c0-1.4,0.8-2.7,2-3.4c1.9-1.1,3.4-2.8,4.4-4.8l0,0c0.1-0.2,0.3-0.3,0.5-0.3c0.3,0,0.6,0.3,0.6,0.6	c0,0,0,0,0,0l0,17.3C105.6,188.4,103.8,190.1,101.7,190z M113,319.6c0,2-1.5,3.8-3.5,3.9c-2.1,0.1-3.9-1.6-3.9-3.7v-17.4	c0-1.1,0.6-2,1.6-2.6c0.2-0.1,0.4-0.2,0.7-0.4c0.9-0.6,2-0.6,2.9,0c0.2,0.1,0.4,0.3,0.7,0.4c1,0.5,1.6,1.5,1.6,2.6V319.6z M113,141.8c0,2-1.7,3.7-3.7,3.7c-2,0-3.7-1.7-3.7-3.7V106c0-2,1.7-3.7,3.7-3.7c2,0,3.7,1.7,3.7,3.7V141.8z M114,265.2	c0.9,2,2.5,3.7,4.4,4.8c1.2,0.7,2,2,2,3.4V290c0,2-1.5,3.8-3.5,3.9c-2.1,0.1-3.9-1.6-3.9-3.7v-20l0-4.7c0,0,0-0.5,0.4-0.6	C113.9,264.8,114,265.2,114,265.2z M114.1,183.7c1,2,2.5,3.7,4.4,4.8c1.2,0.7,2,2,2,3.4v31.5c0,2.1-1.8,3.8-3.9,3.7	c-2-0.1-3.5-1.9-3.5-3.9l0-39.3c0,0,0-0.5,0.4-0.6C113.8,183.3,114.1,183.7,114.1,183.7z M127.4,294.6c0.5,0.1,0.4,0.6,0.4,0.6v39.3	c0,2-1.5,3.8-3.5,3.9c-2.1,0.1-3.9-1.6-3.9-3.7v-32.2c0-1,0.5-2,1.4-2.5c2.1-1.1,3.8-2.9,4.9-5.1	C126.7,294.9,126.9,294.5,127.4,294.6z M127.8,228.3v32.2c0,2.1-1.8,3.8-3.9,3.7c-2-0.1-3.5-1.9-3.5-3.9v-23.9c0-1.4,0.8-2.7,2-3.5	c1.9-1.1,3.4-2.8,4.3-4.8c0,0,0.2-0.4,0.7-0.3C127.9,227.9,127.8,228.3,127.8,228.3z M127.8,178.9c0,2-1.7,3.7-3.7,3.7	c-2,0-3.7-1.7-3.7-3.7V106c0-2,1.7-3.7,3.7-3.7c2,0,3.7,1.7,3.7,3.7V178.9z M135.2,265.5l0,17.3c0,2.1-1.8,3.8-3.9,3.7	c-2-0.1-3.5-1.9-3.5-3.9v-9.1c0-1.4,0.8-2.7,2-3.4c1.9-1.1,3.4-2.8,4.4-4.8c0,0,0.2-0.5,0.7-0.3	C135.3,265.1,135.2,265.5,135.2,265.5z M135.2,183.9l0,32.1c0,2.1-1.8,3.8-3.9,3.7c-2-0.1-3.5-1.9-3.5-3.9v-23.9	c0-1.4,0.8-2.7,2-3.4c1.9-1.1,3.4-2.8,4.4-4.8c0,0,0.2-0.4,0.7-0.3C135.3,183.5,135.2,183.9,135.2,183.9z M136.3,332	c0.9,2,2.5,3.7,4.4,4.8c1.2,0.7,2,2,2,3.4v9.1c0,2-1.5,3.8-3.5,3.9c-2.1,0.1-3.9-1.6-3.9-3.7v-17.2c0,0,0-0.5,0.4-0.6	C136.1,331.6,136.3,332,136.3,332z M142.6,221l0,24.7c0,2.1-1.8,3.8-3.9,3.7c-2-0.1-3.5-1.9-3.5-3.9V229c0-1.4,0.8-2.7,2-3.4	c1.9-1.1,3.5-2.8,4.4-4.9c0,0,0.2-0.4,0.7-0.2C142.7,220.5,142.6,221,142.6,221z M142.7,141.8c0,2-1.7,3.7-3.7,3.7	c-2,0-3.7-1.7-3.7-3.7V98.6c0-2,1.7-3.7,3.7-3.7c2,0,3.7,1.7,3.7,3.7V141.8z M143.7,272.7c1,2,2.5,3.7,4.4,4.8c1.2,0.7,2,2,2,3.4	V327c0,2-1.5,3.8-3.5,3.9c-2.1,0.1-3.9-1.6-3.9-3.7v-54.5c0,0,0-0.4,0.5-0.5C143.6,272.2,143.7,272.7,143.7,272.7z M143.7,176.2	c1,2.2,2.7,3.9,4.8,5.1c1,0.5,1.6,1.6,1.6,2.7v17.2c0,2.1-1.8,3.8-3.9,3.7c-2-0.1-3.5-1.9-3.5-3.9v-14.9l0-9.6c0,0,0-0.4,0.4-0.6	C143.5,175.8,143.7,176.2,143.7,176.2z M157.5,332.2l0,32.1c0,2.1-1.8,3.8-3.9,3.7c-2-0.1-3.5-1.9-3.5-3.9v-23.9	c0-1.4,0.8-2.7,2-3.4c1.9-1.1,3.4-2.8,4.4-4.8c0,0,0.2-0.4,0.7-0.3C157.5,331.8,157.5,332.2,157.5,332.2z M151.1,243	c0.9,2,2.5,3.7,4.4,4.8c1.2,0.7,2,2,2,3.4v16.5c0,2-1.5,3.8-3.5,3.9c-2.1,0.1-3.9-1.6-3.9-3.7l0-24.6c0,0-0.1-0.5,0.4-0.6	C150.9,242.6,151.1,243,151.1,243z M157.5,171.5c0,2-1.7,3.7-3.7,3.7c-2,0-3.7-1.7-3.7-3.7V98.6c0-2,1.7-3.7,3.7-3.7	c2,0,3.7,1.7,3.7,3.7V171.5z M158.6,294.9c1,2,2.5,3.6,4.4,4.8c1.2,0.7,2,2,2,3.4v9.1c0,2-1.5,3.8-3.5,3.9c-2.1,0.1-3.9-1.6-3.9-3.7	l0-17.2c0,0,0-0.5,0.4-0.6C158.4,294.6,158.6,294.9,158.6,294.9z M164.9,176.4v61.8c0,2.1-1.8,3.8-3.9,3.7c-2-0.1-3.5-1.9-3.5-3.9	v-54.1c0-1.1,0.6-2.1,1.5-2.6c2.1-1.1,3.8-2.9,4.8-5.1c0,0,0.2-0.4,0.7-0.3C164.9,176,164.9,176.4,164.9,176.4z M166,354.2	c0.9,2,2.5,3.7,4.4,4.8c1.2,0.7,2,2,2,3.4v9.1c0,2-1.5,3.8-3.5,3.9c-2.1,0.1-3.9-1.6-3.9-3.7l0-17.3c0,0,0-0.4,0.4-0.5	C165.8,353.8,166,354.2,166,354.2z M172.3,243.2v47c0,2.1-1.8,3.8-3.9,3.7c-2-0.1-3.5-1.9-3.5-3.9v-40.4c0-0.5,0.3-0.9,0.7-1.1	c2.5-1.1,4.5-3.1,5.6-5.5c0,0,0.2-0.4,0.7-0.3C172.3,242.8,172.3,243.2,172.3,243.2z M172.3,164.1c0,2-1.7,3.7-3.7,3.7	c-2,0-3.7-1.7-3.7-3.7V91.1c0-2,1.7-3.7,3.7-3.7c2,0,3.7,1.7,3.7,3.7V164.1z M179.3,294.6c0.5,0.1,0.4,0.6,0.4,0.6l0,54.3	c0,2.1-1.8,3.8-3.9,3.7c-2-0.1-3.5-1.9-3.5-3.9v-46.2c0-1.4,0.8-2.7,2-3.4c1.9-1.1,3.4-2.8,4.4-4.8	C178.7,294.9,178.8,294.5,179.3,294.6z M179.7,169l0,61.8c0,2.1-1.8,3.8-3.9,3.7c-2-0.1-3.5-1.9-3.5-3.9v-54.1	c0-1.1,0.6-2.2,1.6-2.7c2.1-1.1,3.8-2.9,4.8-5c0,0,0.2-0.5,0.7-0.3C179.7,168.6,179.7,169,179.7,169z M187.2,354.5l0,24.7	c0,2.1-1.8,3.8-3.9,3.7c-2-0.1-3.5-1.9-3.5-3.9v-16.5c0-1.4,0.8-2.7,2-3.4c1.9-1.1,3.4-2.8,4.4-4.8c0,0,0.2-0.4,0.7-0.3	C187.1,354.1,187.2,354.5,187.2,354.5z M187.2,235.8v39.5c0,2.1-1.8,3.8-3.9,3.7c-2-0.1-3.5-1.9-3.5-3.9v-32c0-1,0.5-2,1.4-2.5	c2.1-1.1,3.9-2.9,4.9-5.1c0,0,0.2-0.5,0.7-0.3C187.2,235.4,187.2,235.8,187.2,235.8z M187.2,134.4c0,2-1.7,3.7-3.7,3.7	s-3.7-1.7-3.7-3.7V91.1c0-2,1.7-3.7,3.7-3.7s3.7,1.7,3.7,3.7V134.4z M188.2,302.3c0.9,2,2.5,3.7,4.4,4.9c1.2,0.7,2,2,2,3.4v23.9	c0,2-1.5,3.8-3.5,3.9c-2.1,0.1-3.9-1.6-3.9-3.7l0-32.1c0,0,0-0.5,0.4-0.6S188.2,302.3,188.2,302.3z M188.2,198.5	c1,2.1,2.7,3.9,4.8,5c1,0.5,1.6,1.6,1.6,2.7v17c0,2-1.5,3.8-3.5,3.9c-2.1,0.1-3.9-1.6-3.9-3.7l0-24.7c0,0,0-0.4,0.4-0.5	C188,198,188.2,198.5,188.2,198.5z M195.6,369.1c0.9,2,2.5,3.7,4.4,4.8c1.2,0.7,2,2,2,3.4v9.1c0,2-1.5,3.8-3.5,3.9	c-2.1,0.1-3.9-1.6-3.9-3.7l0-17.3c0,0,0-0.5,0.5-0.6C195.5,368.7,195.6,369.1,195.6,369.1z M195.6,265.2c1,2.1,2.7,3.9,4.8,5	c0.9,0.5,1.6,1.4,1.6,2.5v24.8c0,2.1-1.8,3.8-3.9,3.7c-2-0.1-3.5-1.9-3.5-3.9l0-31.8c0,0,0-0.5,0.5-0.6	C195.5,264.8,195.6,265.2,195.6,265.2z M202,193.7c0,2-1.7,3.7-3.7,3.7s-3.7-1.7-3.7-3.7V98.6c0-2,1.7-3.7,3.7-3.7s3.7,1.7,3.7,3.7	V193.7z M209.4,302.5v61.8c0,2.1-1.8,3.8-3.9,3.7c-2-0.1-3.5-1.9-3.5-3.9v-54.2c0-1,0.5-2,1.4-2.5c2.1-1.1,3.9-2.9,4.9-5.1	c0,0,0.2-0.4,0.7-0.3C209.4,302.1,209.4,302.5,209.4,302.5z M209.4,198.7v61.8c0,2.1-1.8,3.8-3.9,3.7c-2-0.1-3.5-1.9-3.5-3.9v-54.1	c0-1.1,0.6-2.1,1.5-2.6c2.1-1.1,3.8-2.9,4.8-5.1c0,0,0.3-0.4,0.7-0.3C209.4,198.3,209.4,198.7,209.4,198.7z M216.8,369.3l0,24.7	c0,2.1-1.8,3.8-3.9,3.7c-2-0.1-3.5-1.9-3.5-3.9v-16.5c0-1.4,0.8-2.7,2-3.4c1.9-1.1,3.4-2.8,4.4-4.8c0,0,0.2-0.4,0.7-0.3	C216.9,368.9,216.8,369.3,216.8,369.3z M216.8,290.2c0,2.1-1.8,3.8-3.9,3.7c-2-0.1-3.5-1.9-3.5-3.9v-17.1c0-1.1,0.6-2,1.6-2.6	c0.2-0.1,0.4-0.2,0.7-0.4c0.9-0.6,2-0.6,2.9,0c0.2,0.1,0.4,0.3,0.7,0.4c1,0.5,1.6,1.5,1.6,2.6V290.2z M216.8,186.3	c0,2-1.7,3.7-3.7,3.7s-3.7-1.7-3.7-3.7V91.1c0-2,1.7-3.7,3.7-3.7s3.7,1.7,3.7,3.7V186.3z M217.9,302.3c1,2.2,2.8,4,4.9,5.1	c0.9,0.5,1.4,1.5,1.4,2.5v39.4c0,2-1.5,3.8-3.5,3.9c-2.1,0.1-3.9-1.6-3.9-3.7v-47c0,0,0-0.5,0.4-0.6	C217.7,301.9,217.9,302.3,217.9,302.3z M217.9,205.9c1,2.2,2.7,3.9,4.8,5.1c1,0.5,1.6,1.6,1.6,2.7v46.6c0,2-1.5,3.8-3.5,3.9	c-2.1,0.1-3.9-1.6-3.9-3.7l0-54.4c0,0,0-0.4,0.4-0.5C217.7,205.4,217.9,205.9,217.9,205.9z M225.3,369.1c0.9,2,2.5,3.7,4.4,4.8	c1.2,0.7,2,2,2,3.4v31.3c0,2-1.5,3.8-3.5,3.9c-2.1,0.1-3.9-1.6-3.9-3.7l0-39.5c0,0,0-0.4,0.4-0.5	C225.1,368.7,225.3,369.1,225.3,369.1z M231.7,265.6l0,32c0,2.1-1.8,3.8-3.9,3.7c-2-0.1-3.5-1.9-3.5-3.9v-24.6c0-1.1,0.6-2,1.6-2.5	c2.1-1.1,3.7-2.9,4.8-5c0,0,0.2-0.4,0.7-0.3C231.7,265.1,231.7,265.6,231.7,265.6z M228,138.1 M232.7,324.6c0.9,2,2.5,3.7,4.4,4.8	c1.2,0.7,2,2,2,3.4v31.3c0,2-1.5,3.8-3.5,3.9c-2.1,0.1-3.9-1.6-3.9-3.7l0-39.5c0,0,0-0.5,0.4-0.6	C232.5,324.2,232.7,324.6,232.7,324.6z M239.1,206.1l0,32.1c0,2.1-1.8,3.8-3.9,3.7c-2-0.1-3.5-1.9-3.5-3.9v-24.4	c0-1.1,0.6-2.2,1.6-2.7c2.1-1.1,3.8-2.9,4.8-5.1c0,0,0.2-0.4,0.6-0.3C239.1,205.7,239.1,206.1,239.1,206.1z M246.5,369.3l0,31.9	c0,2-1.5,3.8-3.5,3.9c-2.1,0.1-3.9-1.6-3.9-3.7v-24.1c0-1.4,0.8-2.7,2-3.4c1.9-1.1,3.4-2.8,4.4-4.8c0,0,0.2-0.4,0.7-0.2	C246.5,368.9,246.5,369.3,246.5,369.3z M240.1,272.6c1,2.2,2.7,3.9,4.8,5.1c0.9,0.5,1.6,1.4,1.6,2.5v39.4c0,2-1.5,3.8-3.5,3.9	c-2.1,0.1-3.9-1.6-3.9-3.7v-42.2l0-4.8c0,0,0-0.5,0.4-0.5C240,272.3,240.1,272.6,240.1,272.6z M253.9,324.8l0,24.7	c0,2.1-1.8,3.8-3.9,3.7c-2-0.1-3.5-1.9-3.5-3.9v-16.5c0-1.4,0.8-2.7,2-3.4c1.9-1.1,3.4-2.8,4.4-4.8c0,0,0.2-0.4,0.7-0.3	C253.9,324.4,253.9,324.8,253.9,324.8z M247.6,191c1,2.2,2.7,3.9,4.8,5.1c1,0.5,1.6,1.6,1.6,2.7v68.9c0,2-1.5,3.8-3.5,3.9	c-2.1,0.1-3.9-1.6-3.9-3.7c0,0,0-69.7,0-69.7l0-7c0,0,0-0.4,0.4-0.5S247.6,191,247.6,191z M255,361.6c0.9,2,2.4,3.7,4.3,4.8	c1.2,0.7,2,2,2,3.5v16.5c0,2-1.5,3.8-3.5,3.9c-2.1,0.1-3.9-1.6-3.9-3.7v-24.7c0,0,0-0.4,0.4-0.5C254.8,361.2,255,361.6,255,361.6z M261.3,272.9l0,24.7c0,2.1-1.8,3.8-3.9,3.7c-2-0.1-3.5-1.9-3.5-3.9v-17.2c0-1.1,0.6-2,1.6-2.5c2.1-1.1,3.8-2.9,4.8-5.1	c0,0,0.2-0.5,0.7-0.3C261.4,272.5,261.3,272.9,261.3,272.9z M261.3,186.3c0,2-1.7,3.7-3.7,3.7c-2,0-3.7-1.7-3.7-3.7V91.1	c0-2,1.7-3.7,3.7-3.7c2,0,3.7,1.7,3.7,3.7V186.3z M262.4,324.6c0.9,2,2.5,3.7,4.4,4.8c1.2,0.7,2,2,2,3.4v23.9c0,2-1.5,3.8-3.5,3.9	c-2.1,0.1-3.9-1.6-3.9-3.7l0-32.1c0,0,0-0.5,0.4-0.5C262.2,324.2,262.4,324.6,262.4,324.6z M268.7,191.3l0,39.5	c0,2.1-1.8,3.8-3.9,3.7c-2-0.1-3.5-1.9-3.5-3.9v-31.8c0-1.1,0.6-2.2,1.6-2.7c2.1-1.1,3.8-2.9,4.8-5c0,0,0.2-0.4,0.7-0.3	C268.8,190.9,268.7,191.3,268.7,191.3z M276.2,361.9l0,39.3c0,2-1.5,3.8-3.5,3.9c-2.1,0.1-3.9-1.6-3.9-3.7v-31.5	c0-1.4,0.8-2.7,2-3.4c1.9-1.1,3.4-2.8,4.4-4.8c0,0,0.2-0.4,0.6-0.3S276.2,361.9,276.2,361.9z M269.8,265.2c1,2.1,2.7,3.9,4.8,5	c0.9,0.5,1.6,1.4,1.6,2.5v46.9c0,2-1.5,3.8-3.5,3.9c-2.1,0.1-3.9-1.6-3.9-3.7v-46.8l0-7.6c0,0,0-0.5,0.4-0.6	C269.6,264.8,269.8,265.2,269.8,265.2z M276.2,171.5c0,2-1.7,3.7-3.7,3.7s-3.7-1.7-3.7-3.7V98.6c0-2,1.7-3.7,3.7-3.7	s3.7,1.7,3.7,3.7V171.5z M283.6,324.8l0,17.3c0,2.1-1.8,3.8-3.9,3.7c-2-0.1-3.5-1.9-3.5-3.9v-9.1c0-1.4,0.8-2.7,2-3.4	c1.9-1.1,3.4-2.8,4.4-4.8c0,0,0.2-0.4,0.7-0.3C283.6,324.4,283.6,324.8,283.6,324.8z M283.6,260.5c0,2-1.7,3.7-3.7,3.7	c-2,0-3.7-1.7-3.7-3.7v-72.9c0-2,1.7-3.7,3.7-3.7c2,0,3.7,1.7,3.7,3.7V260.5z M284.7,361.6c0.9,2,2.5,3.7,4.4,4.8c1.2,0.7,2,2,2,3.4	v16.5c0,2-1.5,3.8-3.5,3.9c-2.1,0.1-3.9-1.6-3.9-3.7l0-24.7c0,0,0-0.4,0.4-0.5C284.5,361.3,284.7,361.6,284.7,361.6z M291,265.5	v24.7c0,2.1-1.8,3.8-3.9,3.7c-2-0.1-3.5-1.9-3.5-3.9v-17.2c0-1.1,0.6-2,1.6-2.5c2.1-1.1,3.8-2.9,4.8-5c0,0,0.2-0.4,0.7-0.3	C291,265.1,291,265.5,291,265.5z M291,256.1 M291,171.5c0,2-1.7,3.7-3.7,3.7c-2,0-3.7-1.7-3.7-3.7V98.6c0-2,1.7-3.7,3.7-3.7	c2,0,3.7,1.7,3.7,3.7V171.5z M292.1,332c1,2.2,2.7,3.9,4.8,5.1c0.9,0.5,1.6,1.4,1.6,2.5v17.2c0,2-1.5,3.8-3.5,3.9	c-2.1,0.1-3.9-1.6-3.9-3.7l0-24.7c0,0,0-0.5,0.4-0.5C291.9,331.6,292.1,332,292.1,332z M298.4,176.5v69.2c0,2.1-1.8,3.8-3.9,3.7	c-2-0.1-3.5-1.9-3.5-3.9v-61.6c0-1.1,0.6-2.1,1.5-2.6c2.1-1.1,3.8-2.9,4.9-5.1c0,0,0.2-0.4,0.7-0.2	C298.5,176.1,298.4,176.5,298.4,176.5z M299.5,376.5c0.9,2,2.5,3.7,4.4,4.8c1.2,0.7,2,2,2,3.4v16.5c0,2-1.5,3.8-3.5,3.9	c-2.1,0.1-3.9-1.6-3.9-3.7l0-24.7c0,0,0-0.5,0.4-0.6C299.3,376.1,299.5,376.5,299.5,376.5z M305.8,327c0,2-1.5,3.8-3.5,3.9	c-2.1,0.1-3.9-1.6-3.9-3.7V258c0-1.1,0.6-2,1.6-2.6c0.2-0.1,0.4-0.2,0.7-0.4c0.9-0.6,2-0.6,2.9,0c0.2,0.1,0.4,0.3,0.7,0.4	c1,0.5,1.6,1.5,1.6,2.6V327z M305.8,156.6c0,2-1.7,3.7-3.7,3.7c-2,0-3.7-1.7-3.7-3.7V91.1c0-2,1.7-3.7,3.7-3.7c2,0,3.7,1.7,3.7,3.7	V156.6z M313.3,332.2l0,39.4c0,1.9-1.3,3.6-3.2,3.9c-1,0.1-2-0.2-2.7-0.8c-0.2-0.1-0.3-0.3-0.5-0.4c-0.6-0.7-1-1.5-1-2.5v-32.2	c0-1.1,0.6-2,1.6-2.5c2.1-1.1,3.8-2.9,4.8-5.1c0,0,0.2-0.4,0.7-0.3C313.2,331.8,313.3,332.2,313.3,332.2z M313.3,245.7	c0,2.1-1.8,3.8-3.9,3.7c-2-0.1-3.5-1.9-3.5-3.9v-72.7c0-0.3,0-0.6,0.1-0.9c0.3-1.2,1.8-1.4,2.6-0.5c0.9,1,2,1.9,3.2,2.6	c0.9,0.5,1.5,1.5,1.5,2.6V245.7z M320.7,376.7l0,24.7c0,2.1-1.8,3.8-3.9,3.7c-2-0.1-3.5-1.9-3.5-3.9v-16.5c0-1.4,0.8-2.7,2-3.4	c1.9-1.1,3.4-2.8,4.4-4.8c0,0,0.2-0.4,0.6-0.3C320.7,376.3,320.7,376.7,320.7,376.7z M320.7,250.7l0,46.9c0,2.1-1.8,3.8-3.9,3.7	c-2-0.1-3.5-1.9-3.5-3.9v-39.4c0-1.1,0.6-2,1.6-2.5c2.1-1.1,3.8-2.9,4.8-5c0,0,0.2-0.5,0.7-0.3C320.7,250.2,320.7,250.7,320.7,250.7	z M320.7,164.1c0,2-1.7,3.7-3.7,3.7c-2,0-3.7-1.7-3.7-3.7V106c0-2,1.7-3.7,3.7-3.7c2,0,3.7,1.7,3.7,3.7V164.1z M321.7,309.7	c1,2.2,2.8,4,4.9,5.2c0.9,0.5,1.4,1.5,1.4,2.5v39.6c0,2.1-1.8,3.8-3.9,3.7c-2-0.1-3.5-1.9-3.5-3.9V310c0,0,0-0.5,0.4-0.6	C321.5,309.3,321.7,309.7,321.7,309.7z M327.8,168.6c0.3,0.1,0.3,0.5,0.3,0.5l0,61.8c0,2.1-1.8,3.8-3.9,3.7c-2-0.1-3.5-1.9-3.5-3.9	v-54.1c0-1.1,0.6-2.2,1.6-2.7c2.1-1.1,3.8-2.9,4.8-5C327,168.8,327.3,168.3,327.8,168.6z M335.5,361.9l0,32.1c0,2.1-1.8,3.8-3.9,3.7	c-2-0.1-3.5-1.9-3.5-3.9v-23.9c0-1.4,0.8-2.7,2-3.4c1.9-1.1,3.4-2.8,4.4-4.8c0,0,0.2-0.4,0.7-0.2	C335.5,361.6,335.5,361.9,335.5,361.9z M335.5,304.8c0,2-1.5,3.8-3.5,3.9c-2.1,0.1-3.9-1.6-3.9-3.7v-61.9c0-1.1,0.6-2,1.6-2.6	c0.2-0.1,0.4-0.2,0.7-0.4c0.9-0.6,2-0.6,2.9,0c0.2,0.1,0.4,0.3,0.7,0.4c1,0.5,1.6,1.5,1.6,2.6V304.8z M335.5,149.2	c0,2-1.7,3.7-3.7,3.7c-2,0-3.7-1.7-3.7-3.7V106c0-2,1.7-3.7,3.7-3.7c2,0,3.7,1.7,3.7,3.7V149.2z M342.9,310l0,32.1	c0,2.1-1.8,3.8-3.9,3.7c-2-0.1-3.5-1.9-3.5-3.9v-24.6c0-1.1,0.6-2,1.6-2.5c2.1-1.1,3.8-2.9,4.8-5c0,0,0.2-0.5,0.7-0.3	C343,309.6,342.9,310,342.9,310z M336.6,161.3c1,2.2,2.7,4,4.8,5.1c1,0.5,1.5,1.5,1.5,2.6v61.8c0,2.1-1.8,3.8-3.9,3.7	c-2-0.1-3.5-1.9-3.5-3.9v-69c0,0,0-0.5,0.4-0.6C336.5,161,336.6,161.3,336.6,161.3z M344,361.6c0.9,2,2.5,3.7,4.4,4.8	c1.2,0.7,2,2,2,3.4v16.5c0,2-1.5,3.8-3.5,3.9c-2.1,0.1-3.9-1.6-3.9-3.7l0-24.7c0,0,0-0.5,0.4-0.6C343.8,361.3,344,361.6,344,361.6z M350,235.3c0.4,0.1,0.4,0.5,0.4,0.5V290c0,2-1.5,3.8-3.5,3.9c-2.1,0.1-3.9-1.6-3.9-3.7v-46.4c0-1.4,0.8-2.7,2-3.5	c1.9-1.1,3.4-2.8,4.3-4.8C349.3,235.5,349.5,235.1,350,235.3z M350.4,156.6c0,2-1.7,3.7-3.7,3.7c-2,0-3.7-1.7-3.7-3.7V106	c0-2,1.7-3.7,3.7-3.7c2,0,3.7,1.7,3.7,3.7V156.6z M357.8,295.1v61.8c0,2.1-1.8,3.8-3.9,3.7c-2-0.1-3.5-1.9-3.5-3.9v-54.2	c0-1,0.5-2,1.4-2.5c2.1-1.1,3.9-2.9,4.9-5.1c0,0,0.2-0.4,0.7-0.3C357.8,294.7,357.8,295.1,357.8,295.1z M350.8,190.7	c0.4-0.1,0.6,0.3,0.6,0.3c1,2.2,2.7,3.9,4.8,5.1c1,0.5,1.6,1.6,1.6,2.7v24.6c0,2.1-1.8,3.8-3.9,3.7c-2-0.1-3.5-1.9-3.5-3.9l0-31.9	C350.4,191.3,350.3,190.8,350.8,190.7z M365.2,361.9l0,17.3c0,2.1-1.8,3.8-3.9,3.7c-2-0.1-3.5-1.9-3.5-3.9v-9.1c0-1.4,0.8-2.7,2-3.4	c1.9-1.1,3.4-2.8,4.4-4.8c0,0,0.1-0.4,0.6-0.3C365.2,361.4,365.2,361.9,365.2,361.9z M358.8,265.2c0.9,2,2.5,3.7,4.4,4.8	c1.2,0.7,2,2,2,3.4v9.1c0,2-1.5,3.8-3.5,3.9c-2.1,0.1-3.9-1.6-3.9-3.7l0-17.3c0,0,0-0.5,0.5-0.6	C358.7,264.8,358.8,265.2,358.8,265.2z M358.8,124.3c0.9,2,2.5,3.7,4.4,4.8c1.2,0.7,2,2,2,3.4v53.6c0,2-1.5,3.8-3.5,3.9	c-2.1,0.1-3.9-1.6-3.9-3.7l0-61.8c0,0,0-0.5,0.4-0.5C358.7,123.9,358.8,124.3,358.8,124.3z M366.2,302.3c1,2.2,2.7,4,4.8,5.1	c0.9,0.5,1.6,1.4,1.6,2.5v24.8c0,2.1-1.8,3.8-3.9,3.7c-2-0.1-3.5-1.9-3.5-3.9l0-31.9c0,0,0-0.4,0.4-0.5	C366,301.9,366.2,302.3,366.2,302.3z M372.2,190.8c0.4,0.1,0.4,0.5,0.4,0.5v69.2c0,2.1-1.8,3.8-3.9,3.7c-2-0.1-3.5-1.9-3.5-3.9	v-61.6c0-1.1,0.6-2.1,1.5-2.6c2.1-1.1,3.8-2.9,4.8-5.1C371.5,191,371.7,190.6,372.2,190.8z M372.6,119.6c0,2-1.7,3.7-3.7,3.7	s-3.7-1.7-3.7-3.7V106c0-2,1.7-3.7,3.7-3.7s3.7,1.7,3.7,3.7V119.6z M380,364.1c0,2-1.5,3.8-3.5,3.9c-2.1,0.1-3.9-1.6-3.9-3.7V347	c0-1.1,0.6-2,1.6-2.6c0.2-0.1,0.4-0.2,0.7-0.4c0.9-0.6,2-0.6,2.9,0c0.2,0.1,0.4,0.3,0.7,0.4c1,0.5,1.6,1.5,1.6,2.6V364.1z M380,265.5l0,2.6v29.3c0,2-1.5,3.8-3.5,3.9c-2.1,0.1-3.9-1.6-3.9-3.7v-24.1c0-1.4,0.8-2.7,2-3.4c1.9-1.1,3.4-2.8,4.4-4.8	c0,0,0.2-0.4,0.7-0.3C380,265,380,265.5,380,265.5z M387.4,302.4v32.2c0,2.1-1.8,3.8-3.9,3.7c-2-0.1-3.5-1.9-3.5-3.9v-24.6	c0-1.1,0.6-2,1.6-2.5c2.1-1.1,3.8-2.9,4.8-5.1c0,0,0.2-0.4,0.6-0.3S387.4,302.4,387.4,302.4z M387.4,216c0,2.1-1.8,3.8-3.9,3.7	c-2-0.1-3.5-1.9-3.5-3.9v-15.4c0-1.7,1.4-3.1,3.1-3c0.2,0,0.4,0,0.6,0c0.2,0,0.4,0,0.6,0c1.7-0.1,3.1,1.3,3.1,3V216z M387.4,186.3	c0,2-1.7,3.7-3.7,3.7c-2,0-3.7-1.7-3.7-3.7v-72.9c0-2,1.7-3.7,3.7-3.7c2,0,3.7,1.7,3.7,3.7V186.3z M394.9,339.7l0,17.3	c0,2.1-1.8,3.8-3.9,3.7c-2-0.1-3.5-1.9-3.5-3.9v-9.8c0-1.1,0.6-2,1.6-2.5c2.1-1.1,3.8-2.9,4.8-5c0,0,0.2-0.4,0.7-0.3	C394.9,339.2,394.9,339.7,394.9,339.7z M394.9,221l0,61.8c0,2.1-1.8,3.8-3.9,3.7c-2-0.1-3.5-1.9-3.5-3.9v-54.1	c0-1.1,0.6-2.2,1.6-2.7c2.1-1.1,3.8-2.9,4.8-5.1c0,0,0.2-0.4,0.6-0.3C394.9,220.5,394.9,221,394.9,221z M402.3,287.7l0,24.7	c0,2.1-1.8,3.8-3.9,3.7c-2-0.1-3.5-1.9-3.5-3.9v-16.5c0-1.4,0.8-2.7,2-3.4c1.9-1.1,3.4-2.8,4.4-4.8c0,0,0.2-0.4,0.7-0.3	C402.3,287.3,402.3,287.7,402.3,287.7z M402.3,178.9c0,2-1.7,3.7-3.7,3.7c-2,0-3.7-1.7-3.7-3.7v-58.1c0-2,1.7-3.7,3.7-3.7	c2,0,3.7,1.7,3.7,3.7V178.9z M403.3,332c1,2.2,2.7,3.9,4.8,5.1c0.9,0.5,1.6,1.4,1.6,2.5v2.4c0,2-1.5,3.8-3.5,3.9	c-2.1,0.1-3.9-1.6-3.9-3.7l0-9.8c0,0,0-0.5,0.5-0.6C403.1,331.6,403.3,332,403.3,332z M403.3,205.9c1,2.1,2.7,3.9,4.8,5	c1,0.5,1.6,1.6,1.6,2.7v46.6c0,2-1.5,3.8-3.5,3.9c-2.1,0.1-3.9-1.6-3.9-3.7l0-54.4c0,0,0-0.5,0.4-0.6	C403.2,205.5,403.3,205.9,403.3,205.9z M410.7,280c0.9,2,2.5,3.7,4.4,4.9c1.2,0.7,2,2,2,3.4V327c0,2-1.5,3.8-3.5,3.9	c-2.1,0.1-3.9-1.6-3.9-3.7l0-46.9c0,0,0-0.5,0.4-0.5S410.7,280,410.7,280z M417.1,201.2c0,2-1.7,3.7-3.7,3.7c-2,0-3.7-1.7-3.7-3.7	v-72.9c0-2,1.7-3.7,3.7-3.7c2,0,3.7,1.7,3.7,3.7V201.2z M424.5,206.2v69.1c0,2.1-1.8,3.8-3.9,3.7c-2-0.1-3.5-1.9-3.5-3.9v-61.6	c0-1.1,0.6-2.1,1.5-2.6c2.1-1.1,3.8-2.9,4.8-5.1c0,0,0.2-0.4,0.7-0.3C424.6,205.8,424.5,206.2,424.5,206.2z M431.9,280.3l0,9.8	c0,2.1-1.8,3.8-3.9,3.7c-2-0.1-3.5-1.9-3.5-3.9v-1.6c0-1.4,0.8-2.7,2-3.4c1.9-1.1,3.4-2.8,4.4-4.8c0,0,0.2-0.4,0.7-0.3	C432,279.9,431.9,280.3,431.9,280.3z M431.9,164.1c0,2-1.7,3.7-3.7,3.7c-2,0-3.7-1.7-3.7-3.7v-28.4c0-2,1.7-3.7,3.7-3.7	c2,0,3.7,1.7,3.7,3.7V164.1z M439.4,295.2l0,9.6c0,2-1.5,3.8-3.5,3.9c-2.1,0.1-3.9-1.6-3.9-3.7v-1.9c0-1.4,0.8-2.7,2-3.4	c1.9-1.1,3.4-2.8,4.4-4.8c0,0,0.2-0.4,0.7-0.3C439.4,294.8,439.4,295.2,439.4,295.2z M433,220.7c1,2.2,2.7,3.9,4.8,5.1	c1,0.5,1.6,1.6,1.6,2.7v9.5c0,2-1.5,3.8-3.5,3.9c-2.1,0.1-3.9-1.6-3.9-3.7l0-17.3c0,0,0-0.4,0.4-0.5	C432.8,220.3,433,220.7,433,220.7z M446.8,243.2l0,24.7c0,2.1-1.8,3.8-3.9,3.7c-2-0.1-3.5-1.9-3.5-3.9v-17c0-1.1,0.6-2.2,1.6-2.7	c2.1-1.1,3.8-2.9,4.8-5c0,0,0.2-0.5,0.7-0.3C446.8,242.8,446.8,243.2,446.8,243.2z M446.8,216c0,2-1.7,3.7-3.7,3.7	c-2,0-3.7-1.7-3.7-3.7v-72.9c0-2,1.7-3.7,3.7-3.7c2,0,3.7,1.7,3.7,3.7V216z M454.2,272.9l0,9.9c0,2.1-1.8,3.8-3.9,3.7	c-2-0.1-3.5-1.9-3.5-3.9v-1.6c0-1.4,0.8-2.7,2-3.4c1.9-1.1,3.4-2.8,4.4-4.8c0,0,0.2-0.4,0.6-0.3	C454.2,272.5,454.2,272.9,454.2,272.9z M461.6,171.5c0,2-1.7,3.7-3.7,3.7c-2,0-3.7-1.7-3.7-3.7v-13.6c0-2,1.7-3.7,3.7-3.7	c2,0,3.7,1.7,3.7,3.7V171.5z M464,257.1c0,2.1-1.8,3.8-3.9,3.7c-2-0.1-3.5-1.9-3.5-3.9v-69.8c0-0.7,0.4-1.3,1-1.6	c1.3-0.6,2.5-1.5,3.5-2.5c1-1.1,3-0.4,3,1.1c0,0,0,0,0,0V257.1z" class="st239"/></svg>