<svg xmlns="http://www.w3.org/2000/svg" xmlns:xlink="http://www.w3.org/1999/xlink" id="Layer_1" x="0" y="0" version="1.1" viewBox="0 0 400 400" xml:space="preserve" style="enable-background:new 0 0 400 400"><style type="text/css">.st0{fill:#f40000}.st24{fill:#fff}.st36{fill:#7b000e}.st55{fill:#164e16}.st61{fill:#7db34c}</style><path d="M347.4,263c-20.1-6.5-40.2-20.5-55.8-40.8c-6.1-7.8-11-16.1-15-24.4c-3.1-6.7-5.4-13.8-7.3-20.9l-7.6-28.9	c-3.9-14.8-13.1-27.7-25.8-36.3v0c-21.7-14.6-50.1-14.3-71.4,0.7l-0.1,0c-11.6,8.1-20.1,19.9-24.1,33.4l-11.9,39.4	c-4.3,12.7-10.9,25.3-20,37.1c-15.7,20.3-35.7,34.3-55.8,40.8c-22.6,7.3-33,33.2-20.6,53.4l0.3,0.4c18.6,29.8,62.7,36.9,104.3,18.9	l1.7,6.5c3.9,14.8,13.1,27.7,25.8,36.3l0,0c21.7,14.6,50.1,14.3,71.4-0.7l0.1,0c11.6-8.1,20.1-19.9,24.1-33.4l2.7-9.1	c41.9,18.5,86.6,11.6,105.3-18.5l0.3-0.4C380.5,296.2,370,270.3,347.4,263z" class="st0"/><path d="M200,355.1c-1.7,0-3.1-1.4-3.1-3.1v-14.4c0-1.7,1.4-3.1,3.1-3.1s3.1,1.4,3.1,3.1v14.4	C203.1,353.7,201.7,355.1,200,355.1z" class="st36"/><path d="M89.5,323.3c-4.9,0-9.6-0.5-14-1.5c-1.7-0.4-2.7-2-2.4-3.7c0.4-1.7,2-2.7,3.7-2.4c4.5,1,9.4,1.4,14.5,1.3	c13.6-0.4,28.5-4.8,42-12.6c1.5-0.9,3.4-0.4,4.3,1.1c0.9,1.5,0.4,3.4-1.1,4.3c-14.5,8.4-30.1,13.1-44.9,13.4	C90.8,323.3,90.2,323.3,89.5,323.3z" class="st24"/><path d="M155,298.5c-1.2,0-2.3-0.7-2.8-1.8c-0.7-1.6-0.1-3.4,1.5-4.2c4.9-2.3,10-4.3,15.1-5.8	c4.1-1.3,8.4-2.3,12.6-3.1c1.7-0.3,3.3,0.8,3.6,2.5c0.3,1.7-0.8,3.3-2.5,3.6c-4,0.7-8,1.7-11.9,2.9c-4.9,1.5-9.7,3.4-14.3,5.5	C155.9,298.5,155.4,298.5,155,298.5z" class="st24"/><path d="M318.7,304.8c-14.2,0-30.2-5.8-44-15.8l-0.7-0.5c-1.4-1-1.7-3-0.7-4.4c1-1.4,3-1.7,4.4-0.7l0.6,0.5	c12.7,9.3,27.4,14.6,40.3,14.6c0.1,0,0.1,0,0.2,0c1.7,0,3.1,1.4,3.1,3.1c0,1.7-1.4,3.1-3.1,3.1C318.9,304.8,318.8,304.8,318.7,304.8	z" class="st36"/><path d="M379.9,282.3c-4.9-13.4-15.7-23.7-29.6-28.2c-19.1-6.2-37.4-19.6-51.3-37.6c-5.5-7.1-10.2-14.8-13.9-22.7	c-2.5-5.3-4.6-11.4-6.7-19.4l-7.6-28.9c-4.5-17-15-31.8-29.6-41.7c-24.7-16.6-57.7-16.3-82.1,0.9c-13.2,9.3-23.1,22.9-27.7,38.3	l-11.9,39.2c-4.1,12.1-10.3,23.6-18.5,34.2c-14,18.1-32.2,31.4-51.3,37.6c-13.9,4.5-24.6,14.8-29.6,28.2c-4.8,13-3.3,27.2,3.9,39	l0.3,0.5c10.3,16.6,28,27.8,49.8,31.7c15,2.6,31.4,1.7,47.7-2.7c4.6-1.2,9.5,0.9,11.4,5.3c5.5,12.2,14.3,22.7,25.6,30.2	c12.1,8.2,26.3,12.2,40.4,12.2c14.6,0,29.3-4.4,41.7-13.1c10.7-7.5,19.2-17.8,24.5-29.7c1.9-4.3,6.8-6.6,11.4-5.4	c41,11.5,80.7,0.6,98.9-28.6l0.3-0.4C383.2,309.5,384.7,295.3,379.9,282.3z M252.9,334.4l-2.2,7.3c-3.5,11.5-10.8,21.6-20.6,28.5	c-18.1,12.7-42.5,12.9-60.8,0.6c-10.8-7.3-18.7-18.3-22-30.9l-1.6-6.2c-0.7-2.5,0.4-5.1,2.5-6.5l5-3.2c14.1-8.8,30.3-13.5,46.9-13.5	s32.8,4.7,46.9,13.5l2.7,1.7C252.6,327.5,253.9,331,252.9,334.4z M360,311.5l-0.3,0.4c-15.9,25.6-55.3,31.8-93.6,14.9	c-8.9-3.9-16-8.1-16-8.1c-15.1-9.4-32.4-14.4-50.2-14.4c-17.8,0-35.1,5-50.2,14.4c-7.8,4.7-17,8.5-17,8.5	c-37.9,16.4-76.9,10-92.6-15.3l-0.3-0.4c-4.3-7-5.1-15.1-2.3-22.7c3-8,9.4-14.2,17.8-16.9c22.7-7.4,44.1-23,60.4-44	c3.9-5.1,7.5-10.3,10.6-15.8c1.7-2.9,6-1.5,5.8,1.8c-0.9,11.9-1,22.2-0.6,28.8c0.1,1.7,1.5,3,3.1,3c0.1,0,0.1,0,0.2,0	c1.7-0.1,3-1.6,3-3.3c-0.7-13.7,0.2-36.4,4.7-59c5.3-26.2,14.3-46.5,26-58.5c9.3-9.5,20.5-14.1,33.2-13.8	c22.1,0.6,38.9,15.5,49.8,44.4c11.3,29.7,12.5,64,12.5,77.3c0,1.7,1.4,3.1,3.1,3.1h0c1.7,0,3.1-1.4,3.1-3.1c0-3.8-0.1-9.2-0.5-15.7	c-0.2-3.2,4.1-4.6,5.8-1.8c2.7,4.3,5.6,8.5,8.7,12.6c16.2,21,37.7,36.6,60.4,44c8.4,2.7,14.8,8.9,17.8,16.9	C365.2,296.4,364.3,304.5,360,311.5z" class="st36"/><path d="M164.5,202.2c-0.1,0-0.2,0-0.3,0c-1.7-0.2-3-1.7-2.8-3.4c1.2-13,3.4-25,6.3-34.9c0.5-1.7,2.2-2.6,3.9-2.1	c1.7,0.5,2.6,2.2,2.1,3.9c-2.8,9.5-4.9,21.1-6.1,33.7C167.4,200.9,166,202.2,164.5,202.2z" class="st24"/><circle cx="266.3" cy="246.7" r="3.1" class="st36"/><circle cx="200" cy="364.6" r="3.1" class="st36"/><path d="M159.7,134.2L159.7,134.2c25.6,11.9,55,11.9,80.6,0l0,0l-17.7-24.7c-8.5-11.9-13.1-26.1-13.1-40.7v-0.2	c0-20.8-12.3-39.6-31.3-47.9l-7.4-3.2c-5.2-2.3-11.4,0.6-12.8,6.3c-1.2,4.5,1.5,9.2,5.8,11l7,3.1c12.2,5.3,20.1,17.4,20.1,30.7v0	c0,14.6-4.6,28.8-13.1,40.7L159.7,134.2z" class="st61"/><path d="M242.8,133.4l-17.7-24.7c-1.3-1.8-2.5-3.7-3.6-5.6c-1.9-3.3,1.4-7.2,5-5.9c2.9,1.1,5.7,2.4,8.5,3.8	c-6.5-9.2-10-20-10-31.3v-0.2c0-27-16-51.4-40.7-62.1l-7.5-3.3c-6.7-2.9-14.4-2.8-20.9,0.5c-6.6,3.2-11.4,9.2-13.2,16.3	c-3,11.9,3.1,24.1,14.7,29.2l7,3c6.6,2.9,10.7,9.4,10.7,16.5c0,11.4-3.5,22.2-10.2,31.5l-0.9,1.3c2.9-1.7,5.9-3.2,8.9-4.4	c3.7-1.5,7.1,2.6,5.1,5.9c-0.9,1.5-1.9,3-2.9,4.5l-17.9,24.9c-0.5,0.8-0.7,1.7-0.5,2.6c0.2,0.9,0.9,1.6,1.7,2	c13.2,6.1,27.4,9.2,41.6,9.2s28.4-3.1,41.6-9.2c0.8-0.4,1.5-1.1,1.7-2C243.6,135.1,243.4,134.2,242.8,133.4z M170.8,136.3	c-3.2-1.1-4.5-5-2.5-7.8l11.8-16.4c8.9-12.4,13.7-27.1,13.7-42.4c0-14.6-8.6-27.8-22-33.7l-6.9-3c-3-1.3-4.8-4.5-4-7.4	c0.5-1.8,1.6-3.3,3.3-4.1c1.6-0.8,3.6-0.8,5.2-0.1l7.4,3.2c17.9,7.8,29.5,25.5,29.5,45v0.2c0,15.4,4.7,30.1,13.7,42.5l11.6,16.2	c2,2.8,0.7,6.7-2.5,7.8C210.2,142.6,189.8,142.6,170.8,136.3z" class="st55"/></svg>