<svg xmlns="http://www.w3.org/2000/svg" xmlns:xlink="http://www.w3.org/1999/xlink" id="Layer_1" x="0" y="0" version="1.1" viewBox="0 0 500 500" xml:space="preserve" style="enable-background:new 0 0 500 500"><style type="text/css">.st11{fill:#f22f2e}.st15{fill:#fff}.st18{fill:#7b000e}.st66{fill:#8a9d1f}.st67{fill:#1b4700}</style><g><path d="M336.4,95.3c-14.5-13.1-36.8-12.1-50.1,2.3L230,158.4c-27.4,29.7-50.1,63.4-67.5,100.4l-24.8,52.6 c-15.6,33.2-35.6,63.9-59.4,91.3l-64,73.8c-4.7,5.4,1.5,13.2,7.8,10.1l43.4-21.8c74.3-37.3,134-95,172.9-167.3l0,0 c16.7-31,37.2-59.4,61.2-84.7l51.8-54.4c13.8-14.5,13-37.6-1.9-51.1L336.4,95.3z" class="st11"/><path d="M19.2,499c-5.4,0-10.7-2.5-14.3-7.1c-5.4-7-5.2-16.5,0.6-23.1l64-73.8c23.1-26.6,42.4-56.4,57.6-88.6 l24.8-52.6c17.9-38,41.3-72.8,69.5-103.3l56.2-60.8c17.5-19,47.4-20.3,66.6-3l0,0l13.3,12c9.6,8.7,15.1,20.5,15.6,33.4 c0.5,12.9-4.2,25.1-13.1,34.5l-51.8,54.4C285,245.3,265,273,248.9,303c-40,74.3-101.5,133.9-178,172.2L27.5,497 C24.8,498.4,22,499,19.2,499z M312.5,97.8c-6.5,0-12.9,2.6-17.6,7.7l-56.2,60.8c-26.6,28.8-48.6,61.6-65.5,97.4l-24.8,52.6 c-16.1,34.2-36.6,65.8-61.1,94l-32.2,37.1c-3.1,3.6,1,8.9,5.3,6.8h0c72.1-36.1,130.1-92.3,167.8-162.3 c17.1-31.8,38.3-61.2,63.1-87.3l51.4-54c4.7-4.9,7.3-11.5,7-18.3c-0.4-6.3-3.1-12.1-7.8-16.4l-13.3-12 C323.9,99.9,318.2,97.8,312.5,97.8z" class="st18"/><path d="M253.7,178.4c-1,0-1.9-0.3-2.7-1c-1.6-1.5-1.7-3.9-0.2-5.5l33.8-36.6c1.5-1.6,3.9-1.7,5.5-0.2 c1.6,1.5,1.7,3.9,0.2,5.5l-33.8,36.6C255.8,178,254.8,178.4,253.7,178.4z" class="st15"/><path d="M187.2,274.6c-0.6,0-1.1-0.1-1.7-0.4c-2-0.9-2.8-3.3-1.9-5.2c3.6-7.6,7.4-15.1,11.5-22.5 c1-1.9,3.4-2.6,5.3-1.5c1.9,1,2.6,3.4,1.5,5.3c-4,7.2-7.7,14.6-11.2,22C190,273.8,188.6,274.6,187.2,274.6z" class="st15"/><path d="M177.4,324.2c-0.8,0-1.6-0.2-2.3-0.8c-1.7-1.3-2.1-3.7-0.8-5.5c9.5-13,18.3-26.9,26-41.2 c18.5-34.3,41.4-66,68-94.1c1.5-1.6,4-1.6,5.5-0.1c1.6,1.5,1.6,4,0.1,5.5c-26.2,27.7-48.7,58.8-66.8,92.4 c-7.9,14.6-16.8,28.8-26.5,42.1C179.8,323.7,178.6,324.2,177.4,324.2z" class="st18"/><ellipse cx="241.2" cy="189" class="st15" rx="4" ry="4" transform="matrix(2.165281e-03 -1 1 2.165281e-03 51.6645 429.7439)"/><ellipse cx="156.7" cy="351.2" class="st18" rx="4" ry="4" transform="matrix(2.165281e-03 -1 1 2.165281e-03 -194.8008 507.1202)"/><path d="M104.8,416.9c-1,0-2-0.4-2.8-1.2c-1.5-1.6-1.5-4,0.1-5.5c0.1-0.1,13.8-13.5,41.9-48.4 c1.4-1.7,3.8-1.9,5.5-0.6c1.7,1.4,1.9,3.8,0.6,5.5c-28.5,35.3-42,48.5-42.6,49.1C106.8,416.6,105.8,416.9,104.8,416.9z" class="st18"/><path d="M353,134.8c-2.4-19.1,7.8-37.6,20.7-51.9l9.6-10.6c22.2-24.5,54.6-33.5,87.7-34.1c4.3-0.1,8-3.4,8.4-7.8 c0.4-4.7-3-8.9-7.7-9.3c-38.7-3.6-78.4,10.5-104.5,39.3l-11,12.1c-12.2,13.5-29.8,18.3-47.3,23.4v0 C316,115.5,332.6,130.1,353,134.8L353,134.8z" class="st66"/><path d="M492.5,11.7c-4.8-5.8-11.6-9.4-19.1-10.1c-45.8-4.3-91,12.8-120.9,45.7l-26.5,29.3c1.4,0.4,2.8,0.9,4.1,1.4 c3.1,1.3,3.1,5.7,0,7c-6.7,2.7-13.9,4.8-21.3,6.9l-1.2,0.3c-2.2,0.6-3.4,3-2.6,5.1l0,0c7.7,20.8,25.2,36.3,46.9,41.3l0.1,0 c2.7,0.6,5.1-1.6,4.8-4.3l0,0c-1-8.2,0.5-16,3.3-23.2c1.2-3,5.2-3.2,6.8-0.4c1,1.8,2,3.8,2.7,5.7l28.1-31 c16.2-17.8,40.9-27.1,73.5-27.6c14.4-0.2,26.3-11.2,27.6-25.5C499.6,24.8,497.3,17.5,492.5,11.7z M343.1,127.4 c-11.2-5-20.6-13.5-26.7-24.2c-1.3-2.3-0.1-5.3,2.5-6.1c14.7-4.5,29.3-10,40.1-21.9l11-12.1c24.9-27.5,62.8-41.7,101.3-38.1 c1.2,0.1,2.4,0.7,3.2,1.7c0.8,0.9,1.1,2,1.1,3.2c-0.1,2.4-2.4,4.4-4.8,4.4c-39.2,0.7-69.6,12.6-90.3,35.3l-9.6,10.6 C358,94.4,350.5,109.6,349,124C348.7,126.8,345.7,128.6,343.1,127.4z" class="st67"/></g></svg>