<svg xmlns="http://www.w3.org/2000/svg" xmlns:xlink="http://www.w3.org/1999/xlink" id="Layer_1" x="0" y="0" version="1.1" viewBox="0 0 200 200" xml:space="preserve" style="enable-background:new 0 0 200 200"><style type="text/css">.st117{fill:#590000}.st127{fill:#af96cb}.st128{fill:#9c325f}.st131{fill:#d23841}.st137{fill:#970231}.st138{opacity:.5}.st139{fill:#dfb3c1}.st140{fill:#5a9800}.st141{fill:#9dc06b}.st142{fill:#225a00}</style><g><g><path d="M149.5,50.9c32.4,32.4,32.9,84.6,1,116.5s-84,31.4-116.5-1C5,137.3,0,108.7,12.3,85.6 c9.5-17.7,30.2-26.2,30.2-26.2S50,39.1,67.6,29.5C93.3,15.4,120.1,21.5,149.5,50.9z" class="st137"/><path d="M93.3,196c-0.3,0-0.5,0-0.8,0c-23.3-0.2-45.3-9.5-61.9-26.1c-39.1-39.1-31-71-22.6-86.6 c8.5-16,25.1-24.9,30.8-27.6c2.5-5.7,10.7-21.9,26.6-30.6c28.1-15.4,57.6-7.9,87.8,22.3l0,0c34.3,34.3,34.8,89.8,1,123.5 C137.9,187.1,116.3,196,93.3,196z M94.1,27.3C86,27.3,78,29.5,70,33.8c-15.7,8.6-22.7,27.1-22.8,27.3l-0.8,2.1l-2,0.8 c-0.2,0.1-19.3,8.1-27.7,23.9c-12.1,22.7-4.7,49.3,20.9,74.9c14.8,14.8,34.3,23,55,23.2c20.7,0.2,40-7.7,54.4-22.1 c29.9-29.9,29.4-79-1-109.4l0,0C127.9,36.3,110.7,27.3,94.1,27.3z" class="st117"/></g><g><path d="M146.2,171.4c-29.6-9.9-59.2-19.8-88.9-29.8c-8.5-2.9-14.4,3-15.5,9.9c-0.6,3.6-4.1,6-7.7,5.3 c0,0-0.1,0-0.1,0c-3-0.6-5.7-0.2-8,0.8c2.4,2.9,5,5.8,8,8.7C65.1,197.4,114.1,199.2,146.2,171.4z" class="st127"/></g><g><path d="M155.1,162.8c-2.8,4-7.1,6.5-11,9.2c-34-11.7-68-23.5-101.9-35.2c-15.9-5.5-9.3-30.9,6.6-25.4 c5.5,1.9,10.9,3.8,16.4,5.7c4,1.4,8.1-1,9.3-5.1c1.8-6.1,7.4-11.1,15.4-8.9c10.5,2.9,21,5.8,31.4,8.9c3.7,1.1,7.4-1,8.8-4.6 c2.2-5.5,7.4-9.3,14.7-6.7c9.2,3.3,18.4,6.4,27.7,9.5C172.4,110.2,169.2,143,155.1,162.8z" class="st128"/></g><g><path d="M16.4,83.1c1.7,1.4,3.8,2.2,6.1,2.3c10.1,0.4,29.7,4.1,30,4.2c14.1,2.7,17.5-2.3,18.1-6.5 c0.4-2.7,2.2-4.9,4.5-6.3c3.7-2.1,6.4-5.9,6.9-10c0.9-7.4-4.4-13.3-11.4-14.6c-7-1.4-14-2.7-21-4.1L16.4,83.1z" class="st128"/></g><g><path d="M67.6,29.5c-9.5,5.2-16,13.4-20,19.9c2.2,2,5,3.4,8.7,3.5c16.2,0.7,32,5.4,47.5,10.1 c9.1,2.8,15.1-4.3,15.5-11.8c0.2-3.7,3.6-6.4,7.2-5.5c8.3,2.1,16.5,4.5,24.6,7.1c0,0,0,0,0,0C121.2,21.8,93.8,15.2,67.6,29.5z" class="st127"/></g><g class="st138"><path d="M100.8,72.6c-6.4,6.4,3.5,16.3,9.9,9.9C117.1,76.2,107.2,66.2,100.8,72.6z" class="st127"/></g><g><path d="M24.6,100.4c-0.2,0-0.4,0-0.6-0.1c-0.9-0.3-1.3-1.3-1-2.1c0.7-1.9,1.5-3.8,2.5-5.6c1.8-3.3,4.4-6.5,7.7-9.6 c0.7-0.6,1.7-0.6,2.4,0.1c0.6,0.7,0.6,1.7-0.1,2.4c-3.1,2.8-5.5,5.8-7,8.7c-0.9,1.7-1.6,3.4-2.2,5.1C26,100,25.3,100.4,24.6,100.4 z" class="st139"/></g><path d="M153,47.4C122.9,17.2,93.3,9.7,65.2,25.1c-11.9,6.5-19.4,17.1-23.5,24.5c-2.1,3.8-5.3,7-9.1,9.3 c-7.5,4.4-18.4,12.4-24.8,24.4c-8.3,15.6-16.4,47.6,22.6,86.6c16.6,16.6,38.6,25.9,61.9,26.1c0.3,0,0.5,0,0.8,0 c23,0,44.6-8.9,60.8-25.1C187.8,137.2,187.4,81.7,153,47.4z M70,33.8c7.9-4.5,16-6.5,24.1-6.5c16.6,0,33.7,9,51.8,27.1 c30.5,30.5,30.9,79.5,1,109.4c-14.5,14.5-33.8,22.3-54.4,22.1c-20.7-0.2-40.2-8.4-55-23.2C12,137.3,4.6,110.7,16.7,88 c4.2-7.8,10.9-13.7,16.7-17.7c6.1-3.6,13.4-5.2,21.4-4.4c10.9,1,21.6,6.2,30.1,14.7c0.3,0.3,0.8,0.5,1.2,0.5c0.5,0,0.9-0.2,1.3-0.6 c0.6-0.7,0.5-1.7-0.2-2.3c-9-9-20.4-14.5-32-15.5c-1.1-0.1-2.3-0.2-3.4-0.2c-2.4,0-3.9-2.5-2.9-4.6C51.9,51.4,58.6,40.4,70,33.8z" class="st117"/><g><ellipse cx="126.4" cy="102.5" class="st131" rx="2.8" ry="2.8" transform="matrix(0.5793 -0.8151 0.8151 0.5793 -30.3569 146.1178)"/></g><g><ellipse cx="137.4" cy="89.3" class="st131" rx="2.8" ry="2.8" transform="matrix(0.5793 -0.8151 0.8151 0.5793 -14.9574 149.5753)"/></g><g><ellipse cx="143.1" cy="107.1" class="st131" rx="2.8" ry="2.8" transform="matrix(0.5793 -0.8151 0.8151 0.5793 -27.1023 161.7322)"/></g><path d="M194,63.5c-7.4-21-23.3-38.8-45.4-48.1C106.9-2.1,59,17.5,41.5,59.2l0,0C55,53,70.2,51.3,84.8,54.4l21.8,4.6 c7.5,1.6,15.3,1.9,22.9,1l24.9-3.1c11.9-1.5,24.1,0.2,35.2,4.8L194,63.5z" class="st140"/><g><path d="M94.1,25c-0.7,0-1.3-0.4-1.6-1.1c-0.3-0.9,0.2-1.8,1-2.1c3.5-1.2,7.1-2.1,10.7-2.8c5.4-1,10.9-1.3,16.3-1 c0.9,0,1.6,0.8,1.6,1.7c0,0.9-0.8,1.6-1.8,1.6c-5.2-0.3-10.4,0-15.6,1c-3.4,0.6-6.9,1.5-10.2,2.6C94.5,25,94.3,25,94.1,25z" class="st141"/></g><path d="M198.7,61.8c-8.2-23-25.7-41.6-48.2-51c-21.4-9-45-9.1-66.4-0.3c-21.5,8.8-38.2,25.4-47.2,46.8 c-0.8,1.9-0.3,4.1,1.1,5.5c1.5,1.4,3.7,1.8,5.6,1C56,58,70.3,56.4,83.8,59.3l21.8,4.6c8.1,1.7,16.3,2.1,24.5,1l24.9-3.1 c11.1-1.4,22.4,0.2,32.7,4.4l4.5,1.9c0.6,0.3,1.3,0.4,1.9,0.4c1.3,0,2.5-0.5,3.4-1.4C198.9,65.8,199.4,63.7,198.7,61.8z M153.7,51.9L128.8,55c-7.1,0.9-14.2,0.6-21.2-0.9l-21.8-4.6c-5-1.1-10.1-1.6-15.3-1.6c-2.8,0-5.6,0.2-8.3,0.5 c-1.6,0.2-2.3-2-0.9-2.8c21.3-12.8,52.5-19.8,85.2-9.6c0.9,0.3,1.8-0.2,2.1-1.1c0.3-0.9-0.2-1.8-1.1-2.1 c-33.5-10.4-65.4-3.5-87.4,9.6c-1.1,0.6-2.3-0.7-1.4-1.7c7.8-9.1,17.8-16.3,29.2-21c19-7.8,39.9-7.7,58.8,0.3 c16.3,6.8,29.7,19.2,38,34.6C174.6,51.6,164.1,50.6,153.7,51.9z" class="st142"/><g><path d="M101,37.3c-0.8,0-1.5-0.6-1.6-1.5c-0.1-0.9,0.5-1.7,1.4-1.9c2.5-0.3,4.9-0.6,7.4-0.7 c0.9-0.1,1.7,0.6,1.8,1.6c0.1,0.9-0.6,1.7-1.6,1.8c-2.4,0.1-4.8,0.4-7.2,0.7C101.1,37.3,101,37.3,101,37.3z" class="st141"/></g><g><ellipse cx="114.3" cy="34.8" class="st141" rx="1.8" ry="1.8" transform="matrix(0.9846 -0.1748 0.1748 0.9846 -4.3279 20.5204)"/></g><g><ellipse cx="88.6" cy="25.5" class="st141" rx="1.8" ry="1.8" transform="matrix(0.9846 -0.1748 0.1748 0.9846 -3.0967 15.8806)"/></g><g><circle cx="22.8" cy="106.3" r="2.1" class="st139"/></g></g></svg>