<svg xmlns="http://www.w3.org/2000/svg" xmlns:xlink="http://www.w3.org/1999/xlink" id="Layer_1" x="0" y="0" version="1.1" viewBox="0 0 268.9 268.9" xml:space="preserve" style="enable-background:new 0 0 268.9 268.9"><style type="text/css">.st0{fill:#7db34c}.st1{fill:#44712a}.st6{display:none}.st7{fill:#d1a982}.st7,.st8{display:inline}.st25{fill:#fff}.st110{fill:#6e905e}</style><g class="st6"><rect width="919.6" height="2155.1" x="-480.9" y="-2028.3" class="st7"/><path d="M438.3-2027.8V126.4h-918.6v-2154.1H438.3 M439.3-2028.8h-920.6V127.4h920.6V-2028.8L439.3-2028.8z" class="st8"/></g><g><path d="M151.3,43c-15.6,0-30,7.1-39.5,19.4c-39.4,51.5-66.9,103-89,144.5l-3.7,7c-5.7,10.7-5.7,22.4,0.1,32.1 c5.7,9.5,16,15.3,26.9,15.3c8.2,0,16.1-3.3,22.6-9.4l3.8-3.5c35-32.8,78.6-73.7,118.3-125.5c9.8-12.8,12.8-29.7,7.9-45.1L151.3,43z" class="st0"/><g><path d="M85.2,172.4c-0.4,0-0.7-0.1-1-0.3c-1-0.6-1.3-1.9-0.8-2.9c2.2-3.8,4.4-7.6,6.6-11.4c0.6-1,1.9-1.3,2.9-0.7 c1,0.6,1.3,1.9,0.7,2.9c-2.2,3.8-4.4,7.5-6.6,11.3C86.6,172.1,85.9,172.4,85.2,172.4z" class="st25"/></g><path d="M108.1,134.5c-0.4,0-0.8-0.1-1.1-0.3c-1-0.6-1.3-1.9-0.6-2.9c4-6.2,8-12.3,11.9-18c0.7-1,2-1.2,2.9-0.6 c1,0.7,1.2,2,0.6,2.9c-3.9,5.7-7.8,11.7-11.8,17.9C109.4,134.2,108.8,134.5,108.1,134.5z" class="st25"/><path d="M165.8,70.4c0,0,18.8,13.7,33.4,9.4l-6.1-19.3l11.3-20L226,27.6l19.4,4.7l9.7-14.1L230.9,6.2L206.4,14 l-31,29.3L151.3,43C151.3,43,149.7,57.5,165.8,70.4z" class="st110"/><path d="M68.8,173.1c-0.3,0-0.7-0.1-1-0.3c-1-0.6-1.4-1.9-0.8-2.9c18.6-32.8,35.3-59.1,52.4-82.5 c0.7-0.9,2-1.1,2.9-0.5c0.9,0.7,1.1,2,0.5,2.9c-17,23.3-33.5,49.4-52.1,82.1C70.2,172.7,69.5,173.1,68.8,173.1z" class="st25"/><path d="M260.2,18.9c-0.1-0.8-0.2-1.6-0.5-2.3c-0.8-2.6-2.2-4.9-4.1-6.8c-1.1-1.1-2.3-2.2-3.8-3 c-2.2-1.3-10.2-5.5-22-5.5c-4.7,0-10.3,0.7-16.5,2.8c-10.3,3.5-22,11-33.7,25.8l-2.1,2.7c-2.9,3.6-7.1,5.8-11.3,5.8 c-0.9,0-1.8-0.1-2.6-0.3c-1.5-0.4-3.1-0.6-4.7-0.9c-0.5-0.1-1-0.1-1.6-0.2c-1.1-0.1-2.2-0.3-3.3-0.3l-1.4-0.1c-0.5,0-1,0-1.5,0 c-1,0-2.1,0-3.1,0.1c0,0,0,0.1,0,0.1c-16.4,0.9-31.3,8.6-41.4,21.7c-39.8,51.9-68.6,105.9-89.6,145.3l-3.7,7 c-6.8,12.7-6.7,26.7,0.2,38.3c6.8,11.3,19.2,18.4,32.3,18.4c9.9,0,19.2-3.9,26.9-11.1l3.8-3.5c35.2-33,79-74,119-126.3 c10.9-14.3,14.3-33,9.1-50.3l0,0l0,0c-0.1-0.2-0.1-0.4-0.1-0.5l0,0l-0.2-0.6c-0.3-1-0.7-2-1.1-3c-0.2-0.5-0.3-0.9-0.5-1.4 c-0.6-1.4-1.2-2.7-1.9-4c-2.1-4-1.4-9.4,1.8-13.5c0.6-0.8,1.2-1.5,1.8-2.2c1.7-2.1,3.2-3.9,4.4-5.4c0.8-1,1.5-1.8,2.1-2.4 c0.6-0.6,1-1.1,1.3-1.4c2-2,4-3.6,6-4.8c3.2-2.1,6.4-3.1,9.3-3.1c2.6,0,5.3,0.8,8.3,2.3c0.6,0.3,1.2,0.6,1.9,0.8 c1.9,0.7,4,1.1,6,1.1c2.3,0,4.6-0.5,6.7-1.4c3.5-1.5,6.4-4.1,8.2-7.6c1-2,1.7-4.1,1.9-6.3C260.5,21.7,260.4,20.3,260.2,18.9z M166.5,72.7c7.4,5.6,15.4,8.3,20.7,9.5c4,1,7.1,4.3,7.3,8.4c0.5,9.8-2.4,19.9-8.8,28.3c-40.8,53.3-86.6,95.7-121.4,128.3 c-5.8,5.4-12.2,7.7-18.3,7.7c-17.3,0-31.9-18.5-21.4-38.2c22-41.1,50.8-96.5,92.2-150.6c6.3-8.2,14.9-13.5,24.2-15.7 c4.3-1,8.8,0.9,10.9,4.9C154.4,60.2,159,67.1,166.5,72.7z M247.4,23.5c-0.8,1.4-2.2,2.3-3.8,2.3c-0.7,0-1.4-0.2-2-0.5 c-4.7-2.5-9.4-3.8-14.1-3.8c-1,0-2,0.1-3,0.2c-3,0.4-6.1,1.2-9.1,2.7c-1,0.5-2,1-3,1.6c-3,1.8-6,4.1-8.9,7c-2,1.9-6.2,7-10.6,12.6 c-6,7.7-7.6,18.4-3,27c0,0.1,0.1,0.2,0.1,0.3c1.4,2.7-1.2,6-4.2,5.1c-5.2-1.5-11-4.4-16.6-8.7c-5.3-4.1-9.5-8.6-12.3-13 c-1.6-2.6,0.4-6,3.4-5.6c1.7,0.2,3.8,0.3,6.1,0.3c8.1,0,15.9-4,21.1-10.5l2.2-2.7c1.9-2.4,3.8-4.6,5.7-6.5 c11.2-11.8,21.9-16,30.5-17c1.4-0.2,2.8-0.2,4.1-0.2c9.6,0,15.7,3.8,15.7,3.8C247.7,18.9,248.5,21.4,247.4,23.5z" class="st1"/><ellipse cx="127.9" cy="102.5" class="st25" rx="2.8" ry="2.8" transform="matrix(0.6081 -0.7939 0.7939 0.6081 -31.2735 141.6792)"/></g></svg>