<svg xmlns="http://www.w3.org/2000/svg" xmlns:xlink="http://www.w3.org/1999/xlink" id="Layer_1" x="0" y="0" version="1.1" viewBox="0 0 200 200" xml:space="preserve" style="enable-background:new 0 0 200 200"><style type="text/css">.st2{fill:#105409}.st58{fill:#9acc11}.st59{fill:#65b200}</style><path d="M165.2,61.8c1-6.9-3.4-12.4-9.1-13.6c-1.5-0.3-3-0.3-4.5-0.1c-0.5,0.1-1,0-1.4-0.3c-1-0.8-2.2-1.4-3.4-1.8	c0,0,0,0-0.1,0c-0.9-0.3-1.5-1.2-1.3-2.1l1-4.6c0.1-0.4,0.1-0.6,0.1-0.7c-0.1-7-5.2-11.7-11.2-12c-0.6,0-1.3,0-1.9,0.1	c-0.3-0.2-0.7-0.4-1-0.5c0-0.2,0.1-0.5,0.1-0.7l0.9-6.3c0.6-4-1-8-4-10.6c-3-2.6-7.1-3.4-10.9-2.2c-1.5,0.5-2.8,1.2-3.9,2.2	c-0.3,0.2-0.7,0.4-1,0.4c-1.6,0.2-3.2,0.7-4.6,1.5c-0.8,0.5-1.9,0.2-2.4-0.6c-1.1-1.7-2.5-3.1-4.4-4c-1.5-0.8-3.2-1.3-4.9-1.3	c-0.4,0-0.9-0.2-1.2-0.5c-2-1.7-4.5-2.7-7.3-2.8C85.3,1,82.1,2.4,79.8,5c-1.5,1.7-2.4,3.7-2.8,5.8c-0.1,0.9-0.9,1.5-1.8,1.5	c-2.2,0-4.4,0.6-6.3,1.8c-0.2,0.1-0.4,0.2-0.6,0.4c-2.8-1.4-6.1-1.6-9.1-0.5c-5.3,1.9-8.4,7.4-7.4,13l1.1,6.4c0.6,3.3,2.1,6,4.6,7.8	c4.1,3,7.7,6.6,10.8,10.4c-0.3,0.1-0.5,0.2-0.8,0.4c-0.3,0.2-0.6,0.2-1,0.2c-0.4,0-0.9,0-1.3,0c-3.4,0.2-6.6,1.8-8.6,4.5	c-2.1,2.7-2.9,6.2-2.1,9.5l1.3,6.2c0.4,2.1,1.5,4,2.9,5.5c-0.3,0-0.5,0.1-0.8,0.1c-0.7,0.1-1.4,0.3-2,0.6c-0.4,0.1-0.7,0.2-1.1,0.1	c-2.5-0.6-5.2-0.3-7.6,0.9c-5.3,2.6-8.2,9-5.5,15.4c0.1,0.1,0.1,0.3,0.2,0.4l2.4,3.5c0.5,0.8,0.5,1.9-0.3,2.5	c-1.2,1.1-2.2,2.4-2.9,3.9c-0.2,0.5-0.5,1.1-0.6,1.7c-0.1,0.4-0.4,0.8-0.7,1.1c-0.6,0.4-1.1,0.8-1.6,1.3c-0.1,0.1-0.2,0.2-0.3,0.3	c-4.2,5.1-3.8,11.7,0.2,15.8l4.7,5c2.2,2.3,5.3,3.7,8.4,3.7c0.1,0,0.2,0,0.2,0c8.3-0.1,17.2,1.8,23.4,3.4c0.6,0.2,1.1,0.6,1.3,1.2	c4.4,14.8,7.2,30.5,8.4,46.9c0.5,7.7,7,13.7,14.7,13.7c0.3,0,0.5,0,0.8,0c8-0.4,14.3-7.3,14-15.3c0-0.2-0.7-21-0.4-49.3	c0-0.6,0.3-1.2,0.8-1.5c6.2-4.1,16.5-10.2,27-12.3c3.3-0.7,6.1-2.7,7.8-5.5l3.2-5.5c1.7-2.9,2-6.5,0.9-9.7c-1.1-3.2-3.6-5.7-6.8-7	c-0.4-0.2-0.8-0.3-1.3-0.4c-0.3-0.1-0.6-0.3-0.9-0.5c-0.5-0.5-1.1-1-1.8-1.5c-0.7-0.5-1.5-0.9-2.3-1.2c-1.3-0.5-1.5-2.4-0.3-3.2	c4.6-3.1,9.6-6,15-8.3c2.9-1.2,5.2-3.6,6.4-6.5l3.7-9.5C165.1,62,165.2,61.9,165.2,61.8z" class="st2"/><path d="M107.7,39.5c-0.6-0.8-1.5-1.3-2.5-1.5c-2.1-0.3-4,1.2-4.2,3.2c-3.3,24.4-5.2,54.5-5.8,89.5L95,137l-1.9-6	c-4.7-15.1-10.1-26.4-13.8-33.1c-0.7-1.3-2-2-3.3-2c-0.6,0-1.2,0.1-1.8,0.5c-1.8,1-2.5,3.3-1.5,5.1c7.2,13.2,19.8,41.7,22.7,83.2	c0.1,2,1.9,3.6,4,3.5c2-0.1,3.7-1.9,3.6-3.9c0-0.8-2.8-80.9,5.4-142.1C108.5,41.3,108.3,40.3,107.7,39.5z" class="st58"/><g><path d="M134.8,36.5c-0.8,0-1.5,0.6-1.6,1.3l-1.1,5c-0.1,0.3-0.2,0.5-0.5,0.7c0,0-0.1,0-0.1,0.1 c-1.3,0.8-3-0.3-2.8-1.8l0.5-4.8c0.1-0.9-0.5-1.8-1.4-1.9c-0.9-0.1-1.6,0.6-1.7,1.4l-1.3,11.3c0,0.3-0.2,0.5-0.4,0.7c0,0,0,0,0,0 c-1.3,1-3.1,0.1-3-1.5l0.1-3.4c0-0.9-0.7-1.6-1.5-1.6c-0.9,0-1.6,0.7-1.6,1.5l-0.4,10.3c0,0.3-0.1,0.5-0.3,0.7 c-9.4,9-15.3,18.3-15.7,18.9c-0.5,0.7-0.2,1.7,0.5,2.2c0.3,0.2,0.6,0.2,0.8,0.2c0.5,0,1-0.3,1.3-0.7c0.1-0.2,12.5-19.6,29.6-29.3 c0.4-0.2,0.7-0.6,0.8-1.1l1.3-6.2C136.5,37.5,135.8,36.6,134.8,36.5z" class="st59"/><path d="M142.9,102.6c-0.7-0.3-1.6,0.1-2,0.8l-2.5,4.4c-0.1,0.2-0.4,0.4-0.7,0.5c0,0-0.1,0-0.1,0 c-1.5,0.3-2.8-1.2-2.1-2.6l2-4.4c0.3-0.7,0.1-1.6-0.5-2.1c-0.8-0.6-1.9-0.2-2.3,0.7l-4.7,10.3c-0.1,0.3-0.3,0.4-0.6,0.5 c0,0,0,0,0,0c-1.5,0.5-3-0.9-2.4-2.4l1.2-3.2c0.3-0.7,0-1.6-0.7-2c-0.9-0.5-2-0.1-2.3,0.8l-3.6,9.7c-0.1,0.3-0.3,0.5-0.5,0.6 c-11.7,5.7-20.3,12.7-20.8,13.1c-0.7,0.6-0.8,1.6-0.2,2.2c0.3,0.3,0.6,0.5,1,0.6c0.4,0.1,0.9,0,1.3-0.3c0.2-0.1,18-14.8,37.2-18.6 c0.5-0.1,0.8-0.4,1.1-0.8l3.2-5.5C144.2,104,143.9,102.9,142.9,102.6z" class="st59"/><path d="M98.7,99C98.4,98.4,92.4,89.1,83,80c-0.2-0.2-0.3-0.4-0.3-0.6l-0.4-10.3c0-0.9-0.8-1.6-1.6-1.5 c-0.9,0-1.6,0.8-1.5,1.6l0.1,3.4c0.1,1.6-1.8,2.5-3,1.5c0,0,0,0-0.1-0.1c-0.2-0.2-0.3-0.4-0.4-0.6l-1.3-11.3c-0.1-1-1-1.6-2-1.4 c-0.8,0.2-1.2,1-1.2,1.8l0.5,4.8c0.2,1.5-1.5,2.6-2.8,1.8c0,0-0.1-0.1-0.1-0.1c-0.2-0.1-0.4-0.4-0.4-0.6l-1.1-5 c-0.2-0.8-0.8-1.4-1.6-1.3c-1,0-1.7,1-1.5,1.9l1.3,6.2c0.1,0.5,0.4,0.8,0.8,1.1C83.5,81,95.9,100.5,96,100.7 c0.3,0.5,0.8,0.7,1.3,0.7c0.3,0,0.6-0.1,0.8-0.2C99,100.7,99.2,99.7,98.7,99z" class="st59"/><path d="M154,57.9c-0.8-0.2-1.5,0.3-1.8,1.1l-2.7,6.9c-0.1,0.2-0.3,0.4-0.5,0.5c-0.9,0.4-1.9,0.8-2.8,1.3 c-1.4,0.6-2.9-0.5-2.7-2l1.2-8.4c0.1-0.8-0.3-1.6-1.1-1.8c-1-0.3-1.9,0.3-2.1,1.3l-1.9,13.9c0,0.3-0.2,0.5-0.5,0.7 c-0.7,0.4-1.5,0.9-2.2,1.3c-1.3,0.8-2.9-0.1-2.9-1.6l0-7.9c0-0.9-0.7-1.6-1.6-1.6l0,0c-0.9,0-1.6,0.7-1.6,1.6l-0.1,13 c0,0.3-0.2,0.6-0.4,0.8c-0.7,0.5-1.3,1-2,1.5c-1.2,0.9-3,0.1-3-1.5l0-5.6c0-0.9-0.7-1.6-1.6-1.6h0c-0.9,0-1.6,0.7-1.6,1.6l0,11.6 c0,0.3-0.1,0.5-0.3,0.7c-13.3,11.4-20.9,22.8-21.4,23.5c-0.5,0.7-0.3,1.7,0.5,2.2c0.3,0.2,0.6,0.3,0.9,0.3c0.5,0,1-0.3,1.3-0.7 c0.2-0.3,18.5-27.7,47.9-39.9c0.4-0.2,0.7-0.5,0.9-0.9l3.1-8C155.5,59.2,155,58.2,154,57.9z" class="st59"/><path d="M78.1,103.3c-0.3-0.2-5.6-3.4-13.1-6.5c-0.2-0.1-0.4-0.3-0.5-0.5L61.7,89c-0.3-0.7-1-1.2-1.8-1.1 c-1,0.2-1.5,1.2-1.2,2.1l1.2,3.3c0.3,0.7-0.4,1.5-1.2,1.2c-0.5-0.2-0.9-0.3-1.4-0.5c-0.2-0.1-0.4-0.2-0.5-0.3l-3.2-4.5 c-0.5-0.6-1.3-0.9-2-0.6C50.7,89,50.5,90.2,51,91l3.8,5.3c0.2,0.3,0.5,0.5,0.8,0.6c11.3,3.4,20.7,9.1,20.8,9.2 c0.3,0.2,0.5,0.2,0.8,0.2c0.5,0,1.1-0.3,1.4-0.8C79,104.8,78.8,103.8,78.1,103.3z" class="st59"/><path d="M121.5,15.8c-0.6,0.2-1,0.8-1.1,1.4l-0.7,5.2c-0.1,0.4-0.2,0.8-0.5,1.1l-0.1,0.1c-0.8,0.8-2.2,0.3-2.4-0.8 l-0.3-2.4c-0.1-0.8-0.7-1.4-1.5-1.5c-1,0-1.8,0.8-1.7,1.8L114,28c0.1,0.5-0.1,1-0.4,1.4c-5.1,6.1-8.2,11.2-8.4,11.4 c-0.5,0.8-0.2,1.7,0.5,2.2c0.3,0.2,0.5,0.2,0.8,0.2c0.5,0,1.1-0.3,1.4-0.8c0.1-0.1,5.8-9.4,14.3-17.7c0.3-0.2,0.4-0.6,0.5-0.9 l0.9-6.3C123.6,16.5,122.7,15.4,121.5,15.8z" class="st59"/><path d="M103.6,46.3c-0.1-0.4-1.6-6-4.7-13c-0.1-0.3-0.1-0.6,0.1-0.9l3-4.6c0.4-0.7,0.4-1.6-0.2-2.1 c-0.7-0.7-1.9-0.5-2.4,0.3l-0.6,0.9c-0.7,1.1-2.4,1.1-3.1-0.1c-0.1-0.2-0.2-0.4-0.3-0.6c-0.1-0.2-0.1-0.5-0.1-0.7l2.9-8.8 c0.3-0.8,0-1.6-0.7-2c-0.9-0.5-2,0-2.3,0.9l-1.1,3.2C93.7,20,91.9,20.2,91,19v0c0,0,0,0,0-0.1l-0.9-6.4c-0.1-0.8-0.8-1.4-1.5-1.5 c-1,0-1.8,0.9-1.6,1.8l1,6.9c0,0.3,0.1,0.5,0.3,0.7c8.2,11.6,12.3,26.4,12.4,26.6c0.2,0.7,0.8,1.2,1.5,1.2c0.1,0,0.3,0,0.4-0.1 C103.3,48,103.8,47.1,103.6,46.3z" class="st59"/><path d="M87.4,127.5c-0.5-0.2-9.2-3.4-20.3-5.3c-0.3-0.1-0.6-0.3-0.7-0.6l-3.5-8.9c-0.3-0.7-1.1-1.2-1.8-1.1 c-1,0.2-1.5,1.2-1.2,2.1l2,5.2c0.5,1.2-0.5,2.4-1.7,2.3c-0.4,0-0.8-0.1-1.1-0.1c-0.3,0-0.6-0.2-0.8-0.5l-5.2-11.1 c-0.3-0.7-1.1-1.2-1.9-0.9c-1,0.3-1.4,1.3-1,2.2l3.6,7.6c0.5,1.1-0.3,2.4-1.5,2.4l0,0c-0.1,0-0.3,0-0.4,0l-4.1-4.4 c-0.5-0.6-1.4-0.7-2.1-0.3c-0.8,0.6-0.9,1.7-0.3,2.4l4.7,5c0.3,0.3,0.7,0.5,1.2,0.5c16.7-0.3,34.9,6.4,35.1,6.5 c0.2,0.1,0.4,0.1,0.6,0.1c0.6,0,1.3-0.4,1.5-1C88.7,128.8,88.2,127.8,87.4,127.5z" class="st59"/><path d="M100.1,84.3c-0.2-0.9-3.8-13.8-12.2-28c-0.2-0.3-0.2-0.6,0-0.9l3.8-6.7c0.4-0.7,0.3-1.6-0.3-2.1 c-0.8-0.6-1.9-0.4-2.4,0.5l-1.8,3.1c-0.7,1.2-2.4,1.3-3.2,0.1c-0.8-1.2-1.7-2.3-2.5-3.5c-0.2-0.3-0.2-0.6-0.1-0.9l3.8-10.3 c0.3-0.7,0-1.6-0.7-2c-0.9-0.5-2-0.1-2.3,0.8l-2.2,6.1c-0.5,1.3-2.2,1.7-3.2,0.6c-0.5-0.6-1-1.2-1.6-1.7c-0.2-0.2-0.3-0.5-0.2-0.8 l1.9-14.3c0.1-0.8-0.3-1.6-1.1-1.8c-1-0.3-1.9,0.4-2.1,1.3l-1.2,8.9c-0.2,1.5-2,2.1-3.1,1.2c-1-0.9-2-1.7-3.1-2.5 c-0.2-0.1-0.3-0.3-0.4-0.6l-1.1-6c-0.2-1-1.2-1.6-2.1-1.2c-0.7,0.3-1.1,1.1-1,1.9l1.1,6.4c0.2,0.9,0.4,1.2,0.7,1.5 C87.7,51.1,96.9,84.7,97,85.1c0.2,0.7,0.8,1.2,1.5,1.2c0.1,0,0.3,0,0.4-0.1C99.8,86,100.3,85.1,100.1,84.3z" class="st59"/></g></svg>