<svg xmlns="http://www.w3.org/2000/svg" xmlns:xlink="http://www.w3.org/1999/xlink" x="0" y="0" version="1.1" viewBox="0 0 200 200" xml:space="preserve" style="enable-background:new 0 0 200 200"><style type="text/css">.st1{fill:#164e16}.st30{fill:#fff}.st144{fill:#a7c92b}.st176{fill:#8ba00d}</style><g id="Layer_1"><path d="M145.2,75.4c-4,7.8-4.9,16.8-3.4,25.4c2,11.3-3.1,23.2-13.7,29.2c-4.7,2.7-9.9,3.9-15,3.7 c-9.7-0.4-19.1,4.5-24.1,12.8c-0.3,0.5-0.6,1-0.9,1.4c-7.6,10.9-22.2,14.4-34.4,9c-29.6-13.3-41.6-37.3-41.6-37.3 c-1.9-3-6.6-0.9-5.7,2.5c10.5,39.5,49.6,68.4,89.8,68.4c54.8,0,97.7-40.8,97.7-100.2c0-4.6-1-9-3-12.9L145.2,75.4z" class="st144"/><path d="M152.5,99c-0.8,0-1.6-0.6-1.7-1.5c-0.3-2.9-0.2-5.8,0.2-8.5c0.1-0.9,1-1.5,1.9-1.4c0.9,0.1,1.5,1,1.4,1.9 c-0.4,2.4-0.4,5-0.2,7.6c0.1,0.9-0.6,1.7-1.5,1.8C152.6,99,152.6,99,152.5,99z" class="st30"/><path d="M101.5,177.1c-0.8,0-1.6-0.7-1.6-1.5c-0.1-0.9,0.6-1.7,1.5-1.8c20.7-1.4,38.8-9.5,52.2-23.4 c13.3-13.8,20.9-32.1,21.8-52.8c0-0.9,0.8-1.6,1.7-1.6c0,0,0,0,0,0c0.9,0,1.6,0.8,1.6,1.7c-1,21.5-8.8,40.6-22.7,55 c-14,14.5-32.8,23-54.4,24.4C101.6,177.1,101.6,177.1,101.5,177.1z" class="st1"/><path d="M144.1,73.2L144.1,73.2c3.7-6,9.7-10.5,16.7-12.2c0,0,2.6-22.8,18.9-52.8c0.7-1.3,2.2-1.9,3.6-1.8l0,0 c2.8,0.2,4.4,3.3,3.1,5.7c-9.8,18-11.6,38.9-11.9,49c6.9,1.8,12.7,6.2,16.3,12L144.1,73.2z" class="st176"/><path d="M195.4,74.8c0-0.1,0.1-0.2,0.1-0.2c0.5-1.4,0.3-2.9-0.5-4.2c-2.4-3.9-5.6-7.2-9.3-9.7 c-3.8-2.6-5.9-7.1-5.4-11.6c1.3-10.2,4.1-23.1,10.4-34.7c1.4-2.7,1.5-5.8,0-8.5c-1.4-2.6-4.1-4.4-7.1-4.6c-3.5-0.3-6.8,1.5-8.4,4.4 c-10.6,19.6-15.5,36.1-17.8,45.7c-0.8,3.4-3,6.2-6,7.9c-4.7,2.7-8.7,6.5-11.6,11.2c-0.8,1.3-0.9,2.8-0.5,4.2 c0.1,0.2,0.2,0.4,0.3,0.6c-3.4,8-4.4,17-2.7,26.2c1.7,9.5-2.8,19.2-11.2,24c-3.8,2.1-8,3.2-12.3,3c-11.6-0.5-22.6,5.3-28.6,15.2 c-0.2,0.4-0.5,0.8-0.8,1.2c-6,8.7-18.1,11.8-28.2,7.3c-27.5-12.4-39.1-34.7-39.2-35l-0.3-0.5c-2.2-3.4-6.4-4.6-10.1-2.9 c-3.7,1.7-5.6,5.6-4.5,9.5c10.9,41.1,51.6,72.1,94.6,72.1c28.2,0,54.1-10.4,72.9-29.3c19.2-19.2,29.8-46.2,29.8-75.9 C199,84.8,197.7,79.5,195.4,74.8z M165.8,61.5c0-0.1,0.8-6.7,4.1-17.3c0.2-0.7,1.2-0.4,1.1,0.2c-1,6.5-1.3,12.2-1.4,16.4 c-0.1,2.3,1.4,4.4,3.6,4.9c2.1,0.5,4.1,1.3,5.9,2.4c1.4,0.8,1,3-0.6,3.3c-7.3,1.5-14.7,1.5-22,0.1c-1.6-0.3-2-2.4-0.6-3.3 c1.9-1.2,4-2,6.1-2.6C164,65.3,165.5,63.6,165.8,61.5z M96.3,185.4c-29.3,0-57.4-16-73.6-39.9c-1-1.5,1-3.2,2.3-2 c6.7,6.2,15.5,12.7,26.7,17.7c14.6,6.6,31.7,2.1,40.5-10.7c0.4-0.5,0.7-1.1,1.1-1.7c4.1-6.7,11.7-10.7,19.7-10.4 c7.7,0.3,15.2-2.1,21.5-6.8c9.9-7.6,14.2-20.2,12.2-32.4c-0.8-4.9-0.7-9.7,0.3-14.2c0.6-2.8,3.5-4.6,6.2-4c4.6,1,9.4,1.5,14.1,1.5 c5,0,10-0.6,14.9-1.7c2.8-0.6,5.6,1.1,6.3,4c0.4,1.7,0.6,3.5,0.6,5.3C189.1,145.4,150.1,185.4,96.3,185.4z" class="st1"/><path d="M83.5,172.9c-0.6,0-1.2-0.3-1.5-0.9c-0.4-0.8,0-1.8,0.8-2.2c5.6-2.7,10.4-6.8,13.8-12 c5.3-8.1,15-12.5,25.2-11.5c7.2,0.7,14.3-0.9,20.6-4.7c11.5-7,17.6-20.1,15.7-33.4c-0.1-0.9,0.5-1.8,1.4-1.9 c0.9-0.1,1.8,0.5,1.9,1.4c2.2,14.6-4.6,29-17.2,36.7c-6.8,4.2-14.7,5.9-22.6,5.2c-9-0.9-17.4,2.9-22.1,10 c-3.7,5.7-9,10.2-15.1,13.1C84,172.9,83.8,172.9,83.5,172.9z" class="st1"/><path d="M103.5,164c-0.3,0-0.6-0.1-0.9-0.3c-0.8-0.5-1-1.5-0.5-2.3c3.5-5.3,10-8.6,16.8-8.6c0.9,0,1.7,0.7,1.7,1.7 s-0.7,1.7-1.7,1.7c-5.8,0-11.2,2.7-14.1,7.1C104.6,163.8,104.1,164,103.5,164z" class="st30"/><path d="M142.7,137c-0.5,0-1-0.2-1.3-0.6c-0.6-0.7-0.5-1.8,0.3-2.3c6.7-5.3,10.5-13.6,10-22.2c0-0.9,0.7-1.7,1.6-1.7 c0.9,0,1.7,0.7,1.7,1.6c0.5,9.6-3.7,19-11.3,24.9C143.4,136.9,143,137,142.7,137z" class="st30"/><circle cx="76.3" cy="173.5" r="1.7" class="st1"/><ellipse cx="93.2" cy="175.7" class="st1" rx="1.7" ry="1.7" transform="matrix(2.334715e-02 -0.9997 0.9997 2.334715e-02 -84.6352 264.7927)"/><circle cx="153.1" cy="104.7" r="1.7" class="st30"/></g></svg>