<svg xmlns="http://www.w3.org/2000/svg" xmlns:xlink="http://www.w3.org/1999/xlink" id="Layer_1" x="0" y="0" version="1.1" viewBox="0 0 64 64" xml:space="preserve" style="enable-background:new 0 0 64 64"><style type="text/css">.st0{fill:#82af1d}.st5{fill:#2f3f1a}.st210{fill:#b3706b}.st325{fill:#bfd787}.st326{fill:#a1c259}.st327{fill:#92b741}.st328{fill:#b1cc71}.st329{fill:#d6c9bb}.st330{fill:#cbcfa3}.st331{fill:#c5d297}.st332{fill:#d0cdaf}.st333{fill:#5b7d12}</style><g><path d="M40.3,61.7l0.3-15.3V33c0-1.4-0.1-2.7-0.5-4.1c-0.4-1.6-0.7-3.5-0.7-5.6c0-5.4,1.6-10.8,3.6-10.8 s3.6,5.4,3.6,10.8c0,2.1-0.2,4-0.7,5.6c-0.3,1.3-0.5,2.7-0.5,4.1v13.4l0.2,15.3C45.6,61.7,43.2,63.5,40.3,61.7z" class="st325"/><path d="M40.5,33v10.5h4.9V33c0-1.4,0.1-2.7,0.5-4.1c0.4-1.6,0.7-3.5,0.7-5.6c0-5.4-1.6-10.8-3.6-10.8 s-3.6,5.4-3.6,10.8c0,2.1,0.2,4,0.7,5.6C40.4,30.3,40.5,31.7,40.5,33z" class="st0"/><path d="M18.3,61.7l0.3-15.3V28c0-1.4-0.1-2.7-0.5-4.1c-0.4-1.6-0.7-3.5-0.7-5.6c0-5.4,1.6-10.8,3.6-10.8 s3.6,5.4,3.6,10.8c0,2.1-0.2,4-0.7,5.6c-0.3,1.3-0.5,2.7-0.5,4.1v18.4l0.2,15.3C23.6,61.7,21.2,63.5,18.3,61.7z" class="st325"/><path d="M29.2,61.7l0.3-15.3V22c0-1.4-0.1-2.7-0.5-4.1c-0.4-1.6-0.7-3.5-0.7-5.6C28.4,6.9,30,1.5,32,1.5 s3.6,5.4,3.6,10.8c0,2.1-0.2,4-0.7,5.6c-0.3,1.3-0.5,2.7-0.5,4.1v24.4l0.2,15.3C34.6,61.7,32.2,63.5,29.2,61.7z" class="st325"/><g><g><rect width="4.7" height="1" x="40.6" y="43.6" class="st326"/></g><g><rect width="4.7" height="1" x="40.6" y="42.6" class="st327"/></g><g><rect width="4.7" height="1" x="40.6" y="44.6" class="st328"/></g></g><path d="M40.4,55l-0.1,6.7c3,1.8,5.4,0,5.4,0L45.6,55H40.4z" class="st329"/><path d="M18.4,55l-0.1,6.7c3,1.8,5.4,0,5.4,0L23.6,55H18.4z" class="st329"/><g><g><rect width="4.7" height="1" x="40.6" y="54.6" class="st330"/></g><g><rect width="4.7" height="1" x="40.6" y="53.6" class="st331"/></g><g><rect width="4.7" height="1" x="40.6" y="55.6" class="st332"/></g></g><path d="M43,64c-1,0-2.2-0.2-3.5-1c-0.5-0.3-0.7-0.8-0.7-1.3L39,46.4V33c0-1.4-0.1-2.6-0.4-3.7 c-0.5-1.8-0.7-3.9-0.7-6c0-5,1.4-12.3,5.1-12.3s5.1,7.4,5.1,12.3c0,2.2-0.2,4.2-0.7,6C47.1,30.4,47,31.6,47,33v13.4l0.2,15.3 c0,0.5-0.2,0.9-0.6,1.2C46.4,63,45,64,43,64z M41.8,60.8c1,0.4,1.8,0.2,2.4,0L44,46.4V33c0-1.6,0.2-3.1,0.5-4.4 c0.4-1.5,0.6-3.4,0.6-5.3c0-4.8-1.3-8.5-2.1-9.2c-0.8,0.7-2.1,4.4-2.1,9.2c0,1.9,0.2,3.7,0.6,5.3c0.3,1.3,0.5,2.8,0.5,4.4v13.4 L41.8,60.8z" class="st333"/><path d="M18.5,28v15.5h4.9V28c0-1.4,0.1-2.7,0.5-4.1c0.4-1.6,0.7-3.5,0.7-5.6c0-5.4-1.6-10.8-3.6-10.8 s-3.6,5.4-3.6,10.8c0,2.1,0.2,4,0.7,5.6C18.4,25.3,18.5,26.7,18.5,28z" class="st0"/><path d="M29.5,22v21.5h4.9V22c0-1.4,0.1-2.7,0.5-4.1c0.4-1.6,0.7-3.5,0.7-5.6C35.6,6.9,34,1.5,32,1.5 s-3.6,5.4-3.6,10.8c0,2.1,0.2,4,0.7,5.6C29.4,19.3,29.5,20.7,29.5,22z" class="st0"/><path d="M29.4,55l-0.1,6.7c3,1.8,5.4,0,5.4,0L34.6,55H29.4z" class="st329"/><g><g><rect width="4.7" height="1" x="18.8" y="54.6" class="st330"/></g><g><rect width="4.7" height="1" x="18.8" y="53.6" class="st331"/></g><g><rect width="4.7" height="1" x="18.8" y="55.6" class="st332"/></g></g><g><g><rect width="4.7" height="1" x="18.8" y="43.6" class="st326"/></g><g><rect width="4.7" height="1" x="18.8" y="42.6" class="st327"/></g><g><rect width="4.7" height="1" x="18.8" y="44.6" class="st328"/></g></g><g><g><rect width="4.7" height="1" x="29.6" y="54.6" class="st330"/></g><g><rect width="4.7" height="1" x="29.6" y="53.6" class="st331"/></g><g><rect width="4.7" height="1" x="29.6" y="55.6" class="st332"/></g></g><g><g><rect width="4.7" height="1" x="29.6" y="43.6" class="st326"/></g><g><rect width="4.7" height="1" x="29.6" y="42.6" class="st327"/></g><g><rect width="4.7" height="1" x="29.6" y="44.6" class="st328"/></g></g><path d="M21,64c-1,0-2.2-0.2-3.5-1c-0.5-0.3-0.7-0.8-0.7-1.3L17,46.4V28c0-1.4-0.1-2.6-0.4-3.7 c-0.5-1.8-0.7-3.9-0.7-6c0-5,1.4-12.3,5.1-12.3s5.1,7.4,5.1,12.3c0,2.2-0.2,4.2-0.7,6C25.1,25.4,25,26.6,25,28v18.4l0.2,15.3 c0,0.5-0.2,0.9-0.6,1.2C24.4,63,23,64,21,64z M19.8,60.8c1,0.4,1.8,0.2,2.4,0L22,46.4V28c0-1.6,0.2-3.1,0.5-4.4 c0.4-1.5,0.6-3.4,0.6-5.3c0-4.8-1.3-8.5-2.1-9.2c-0.8,0.7-2.1,4.4-2.1,9.2c0,1.9,0.2,3.7,0.6,5.3c0.3,1.3,0.5,2.8,0.5,4.4v18.4 L19.8,60.8z" class="st333"/><path d="M31.9,64c-1,0-2.2-0.2-3.5-1c-0.5-0.3-0.7-0.8-0.7-1.3L28,46.4V22c0-1.4-0.1-2.6-0.4-3.7 c-0.5-1.8-0.7-3.9-0.7-6C26.9,7.4,28.3,0,32,0s5.1,7.4,5.1,12.3c0,2.2-0.2,4.2-0.7,6C36.1,19.4,36,20.6,36,22v24.4l0.2,15.3 c0,0.5-0.2,0.9-0.6,1.2C35.4,63,34,64,31.9,64z M30.8,60.8c1,0.4,1.8,0.2,2.4,0L33,46.4V22c0-1.6,0.2-3.1,0.5-4.4 c0.4-1.5,0.6-3.4,0.6-5.3c0-4.8-1.3-8.5-2.1-9.2c-0.8,0.7-2.1,4.4-2.1,9.2c0,1.9,0.2,3.7,0.6,5.3c0.3,1.3,0.5,2.8,0.5,4.4v24.4 L30.8,60.8z" class="st333"/><g><polygon points="43 21.8 41.4 18.8 39.8 21.8" class="st210"/><polygon points="43.6 27.7 42 24.6 40.4 27.7" class="st210"/><polygon points="45.6 25.2 44 22.1 42.4 25.2" class="st210"/><polygon points="46.5 19.9 44.9 16.8 43.3 19.9" class="st210"/><polygon points="44.6 17.4 43 14.3 41.4 17.4" class="st210"/><path d="M47.6,20.5l-2.2-4.2c-0.1-0.2-0.3-0.3-0.4-0.3c-0.1,0-0.2,0.1-0.3,0.2L43.4,14c-0.1-0.2-0.3-0.3-0.4-0.3h0 c-0.2,0-0.4,0.1-0.4,0.3L41,17c-0.1,0.2,0,0.5,0.2,0.7c0.1,0,0.2,0.1,0.2,0.1c0.2,0,0.4-0.1,0.4-0.3l1.1-2.1l1,1.9l-1.5,2.6 l-0.7-1.3c-0.1-0.2-0.3-0.3-0.4-0.3c0,0,0,0,0,0c-0.2,0-0.4,0.1-0.4,0.3l-2.2,4.2c-0.1,0.2,0,0.5,0.2,0.7c0.1,0,0.2,0.1,0.2,0.1 c0.2,0,0.4-0.1,0.4-0.3l1.7-3.3l1.6,3l-0.7,1.2C42.2,24.1,42.1,24,42,24c-0.2,0-0.4,0.1-0.4,0.3l-2.2,4.2c-0.1,0.2,0,0.5,0.2,0.7 c0.1,0,0.2,0.1,0.2,0.1c0.2,0,0.4-0.1,0.4-0.3l1.7-3.3l1.7,3.3c0.1,0.2,0.4,0.3,0.7,0.2s0.3-0.4,0.2-0.7l-1.7-3.3c0,0,0,0,0,0 l1.1-2l1.8,3.4c0.1,0.2,0.3,0.3,0.4,0.3c0.1,0,0.2,0,0.2-0.1c0.2-0.1,0.3-0.4,0.2-0.7l-2.2-4.2c-0.1-0.2-0.3-0.3-0.4-0.3 c0,0,0,0,0,0c-0.2,0-0.4,0.1-0.4,0.3l0,0l-0.5-0.9l1.8-3.3l1.8,3.4c0.1,0.2,0.4,0.3,0.7,0.2C47.6,21.1,47.7,20.8,47.6,20.5z" class="st5"/></g><g><polygon points="32 10.3 30.4 7.2 28.8 10.3" class="st210"/><polygon points="32.6 16.1 31 13.1 29.4 16.1" class="st210"/><polygon points="34.6 13.6 33 10.5 31.4 13.6" class="st210"/><polygon points="35.5 8.3 33.9 5.3 32.3 8.3" class="st210"/><polygon points="33.6 5.8 32 2.7 30.4 5.8" class="st210"/><path d="M36.5,9l-2.2-4.2c-0.1-0.2-0.3-0.3-0.4-0.3c-0.1,0-0.2,0.1-0.3,0.2l-1.2-2.2c-0.1-0.2-0.3-0.3-0.4-0.3h0 c-0.2,0-0.4,0.1-0.4,0.3L30,5.4c-0.1,0.2,0,0.5,0.2,0.7c0.1,0,0.2,0.1,0.2,0.1c0.2,0,0.4-0.1,0.4-0.3L32,3.8l1,1.9l-1.5,2.6 L30.8,7c-0.1-0.2-0.3-0.3-0.4-0.3c0,0,0,0,0,0c-0.2,0-0.4,0.1-0.4,0.3l-2.2,4.2c-0.1,0.2,0,0.5,0.2,0.7c0.1,0,0.2,0.1,0.2,0.1 c0.2,0,0.4-0.1,0.4-0.3l1.7-3.3l1.6,3l-0.7,1.2c-0.1-0.1-0.2-0.1-0.3-0.1c-0.2,0-0.4,0.1-0.4,0.3l-2.2,4.2c-0.1,0.2,0,0.5,0.2,0.7 c0.1,0,0.2,0.1,0.2,0.1c0.2,0,0.4-0.1,0.4-0.3L31,14l1.7,3.3c0.1,0.2,0.4,0.3,0.7,0.2s0.3-0.4,0.2-0.7l-1.7-3.3c0,0,0,0,0,0l1.1-2 l1.8,3.4c0.1,0.2,0.3,0.3,0.4,0.3c0.1,0,0.2,0,0.2-0.1c0.2-0.1,0.3-0.4,0.2-0.7l-2.2-4.2C33.4,10.1,33.2,10,33,10c0,0,0,0,0,0 c-0.2,0-0.4,0.1-0.4,0.3l0,0l-0.5-0.9l1.8-3.3l1.8,3.4c0.1,0.2,0.4,0.3,0.7,0.2C36.6,9.5,36.7,9.2,36.5,9z" class="st5"/></g><g><polygon points="21 16.5 19.4 13.4 17.8 16.5" class="st210"/><polygon points="21.6 22.3 20 19.3 18.4 22.3" class="st210"/><polygon points="23.6 19.8 22 16.7 20.4 19.8" class="st210"/><polygon points="24.5 14.5 22.9 11.4 21.3 14.5" class="st210"/><polygon points="22.6 12 21 8.9 19.4 12" class="st210"/><path d="M25.5,15.1L23.3,11c-0.1-0.2-0.3-0.3-0.4-0.3c-0.1,0-0.2,0.1-0.3,0.2l-1.2-2.2c-0.1-0.2-0.3-0.3-0.4-0.3h0 c-0.2,0-0.4,0.1-0.4,0.3L19,11.6c-0.1,0.2,0,0.5,0.2,0.7c0.1,0,0.2,0.1,0.2,0.1c0.2,0,0.4-0.1,0.4-0.3l1.1-2.1l1,1.9l-1.5,2.6 l-0.7-1.3c-0.1-0.2-0.3-0.3-0.4-0.3c0,0,0,0,0,0c-0.2,0-0.4,0.1-0.4,0.3l-2.2,4.2c-0.1,0.2,0,0.5,0.2,0.7c0.1,0,0.2,0.1,0.2,0.1 c0.2,0,0.4-0.1,0.4-0.3l1.7-3.3l1.6,3l-0.7,1.2c-0.1-0.1-0.2-0.1-0.3-0.1c-0.2,0-0.4,0.1-0.4,0.3l-2.2,4.2c-0.1,0.2,0,0.5,0.2,0.7 c0.1,0,0.2,0.1,0.2,0.1c0.2,0,0.4-0.1,0.4-0.3l1.7-3.3l1.7,3.3c0.1,0.2,0.4,0.3,0.7,0.2s0.3-0.4,0.2-0.7l-1.7-3.3c0,0,0,0,0,0 l1.1-2l1.8,3.4c0.1,0.2,0.3,0.3,0.4,0.3c0.1,0,0.2,0,0.2-0.1c0.2-0.1,0.3-0.4,0.2-0.7l-2.2-4.2c-0.1-0.2-0.3-0.3-0.4-0.3 c0,0,0,0,0,0c-0.2,0-0.4,0.1-0.4,0.3l0,0L21,15.5l1.8-3.3l1.8,3.4c0.1,0.2,0.4,0.3,0.7,0.2C25.5,15.7,25.6,15.4,25.5,15.1z" class="st5"/></g></g></svg>