<?xml version="1.0" encoding="UTF-8" standalone="no"?>
<!-- Created with Inkscape (http://www.inkscape.org/) -->

<svg
   xmlns:dc="http://purl.org/dc/elements/1.1/"
   xmlns:cc="http://creativecommons.org/ns#"
   xmlns:rdf="http://www.w3.org/1999/02/22-rdf-syntax-ns#"
   xmlns:svg="http://www.w3.org/2000/svg"
   xmlns="http://www.w3.org/2000/svg"
   xmlns:sodipodi="http://sodipodi.sourceforge.net/DTD/sodipodi-0.dtd"
   xmlns:inkscape="http://www.inkscape.org/namespaces/inkscape"
   width="24mm"
   height="24mm"
   viewBox="0 0 24 24"
   version="1.1"
   id="svg8"
   inkscape:version="0.92.1 r15371"
   sodipodi:docname="cucumber64.svg">
  <defs
     id="defs2">
    <inkscape:path-effect
       effect="bspline"
       id="path-effect1401"
       is_visible="true"
       weight="33.333333"
       steps="2"
       helper_size="0"
       apply_no_weight="true"
       apply_with_weight="true"
       only_selected="false" />
    <inkscape:path-effect
       effect="bspline"
       id="path-effect1340"
       is_visible="true"
       weight="33.333333"
       steps="2"
       helper_size="0"
       apply_no_weight="true"
       apply_with_weight="true"
       only_selected="false" />
    <inkscape:path-effect
       effect="bspline"
       id="path-effect1322"
       is_visible="true"
       weight="33.333333"
       steps="2"
       helper_size="0"
       apply_no_weight="true"
       apply_with_weight="true"
       only_selected="false" />
    <inkscape:path-effect
       effect="bspline"
       id="path-effect1318"
       is_visible="true"
       weight="33.333333"
       steps="2"
       helper_size="0"
       apply_no_weight="true"
       apply_with_weight="true"
       only_selected="false" />
    <inkscape:path-effect
       effect="bspline"
       id="path-effect1314"
       is_visible="true"
       weight="33.333333"
       steps="2"
       helper_size="0"
       apply_no_weight="true"
       apply_with_weight="true"
       only_selected="false" />
    <inkscape:path-effect
       effect="bspline"
       id="path-effect1310"
       is_visible="true"
       weight="33.333333"
       steps="2"
       helper_size="0"
       apply_no_weight="true"
       apply_with_weight="true"
       only_selected="false" />
    <inkscape:path-effect
       effect="bspline"
       id="path-effect1306"
       is_visible="true"
       weight="33.333333"
       steps="2"
       helper_size="0"
       apply_no_weight="true"
       apply_with_weight="true"
       only_selected="false" />
    <inkscape:path-effect
       effect="bspline"
       id="path-effect1302"
       is_visible="true"
       weight="33.333333"
       steps="2"
       helper_size="0"
       apply_no_weight="true"
       apply_with_weight="true"
       only_selected="false" />
    <inkscape:path-effect
       effect="bspline"
       id="path-effect1298"
       is_visible="true"
       weight="33.333333"
       steps="2"
       helper_size="0"
       apply_no_weight="true"
       apply_with_weight="true"
       only_selected="false" />
    <inkscape:path-effect
       effect="bspline"
       id="path-effect1294"
       is_visible="true"
       weight="33.333333"
       steps="2"
       helper_size="0"
       apply_no_weight="true"
       apply_with_weight="true"
       only_selected="false" />
    <inkscape:path-effect
       effect="bspline"
       id="path-effect1290"
       is_visible="true"
       weight="33.333333"
       steps="2"
       helper_size="0"
       apply_no_weight="true"
       apply_with_weight="true"
       only_selected="false" />
    <inkscape:path-effect
       effect="bspline"
       id="path-effect1286"
       is_visible="true"
       weight="33.333333"
       steps="2"
       helper_size="0"
       apply_no_weight="true"
       apply_with_weight="true"
       only_selected="false" />
    <inkscape:path-effect
       effect="bspline"
       id="path-effect1282"
       is_visible="true"
       weight="33.333333"
       steps="2"
       helper_size="0"
       apply_no_weight="true"
       apply_with_weight="true"
       only_selected="false" />
    <inkscape:path-effect
       effect="bspline"
       id="path-effect1166"
       is_visible="true"
       weight="33.333333"
       steps="2"
       helper_size="0"
       apply_no_weight="true"
       apply_with_weight="true"
       only_selected="false" />
    <inkscape:path-effect
       effect="bspline"
       id="path-effect1079"
       is_visible="true"
       weight="33.333333"
       steps="2"
       helper_size="0"
       apply_no_weight="true"
       apply_with_weight="true"
       only_selected="false" />
    <inkscape:path-effect
       effect="bspline"
       id="path-effect1023"
       is_visible="true"
       weight="33.333333"
       steps="2"
       helper_size="0"
       apply_no_weight="true"
       apply_with_weight="true"
       only_selected="false" />
    <inkscape:path-effect
       effect="bspline"
       id="path-effect1017"
       is_visible="true"
       weight="33.333333"
       steps="2"
       helper_size="0"
       apply_no_weight="true"
       apply_with_weight="true"
       only_selected="false" />
    <inkscape:path-effect
       effect="bspline"
       id="path-effect1009"
       is_visible="true"
       weight="33.333333"
       steps="2"
       helper_size="0"
       apply_no_weight="true"
       apply_with_weight="true"
       only_selected="false" />
    <inkscape:path-effect
       effect="bspline"
       id="path-effect866"
       is_visible="true"
       weight="33.333333"
       steps="2"
       helper_size="0"
       apply_no_weight="true"
       apply_with_weight="true"
       only_selected="false" />
    <filter
       inkscape:collect="always"
       style="color-interpolation-filters:sRGB"
       id="filter948"
       x="-0.12701492"
       width="1.2540298"
       y="-0.11300955"
       height="1.2260191">
      <feGaussianBlur
         inkscape:collect="always"
         stdDeviation="1.4718981"
         id="feGaussianBlur950" />
    </filter>
  </defs>
  <sodipodi:namedview
     id="base"
     pagecolor="#ffffff"
     bordercolor="#666666"
     borderopacity="1.0"
     inkscape:pageopacity="0.0"
     inkscape:pageshadow="2"
     inkscape:zoom="1.4"
     inkscape:cx="88.842146"
     inkscape:cy="127.87958"
     inkscape:document-units="mm"
     inkscape:current-layer="g983"
     showgrid="false"
     inkscape:window-width="1366"
     inkscape:window-height="705"
     inkscape:window-x="-8"
     inkscape:window-y="-8"
     inkscape:window-maximized="1" />
  <metadata
     id="metadata5">
    <rdf:RDF>
      <cc:Work
         rdf:about="">
        <dc:format>image/svg+xml</dc:format>
        <dc:type
           rdf:resource="http://purl.org/dc/dcmitype/StillImage" />
        <dc:title />
      </cc:Work>
    </rdf:RDF>
  </metadata>
  <g
     inkscape:label="Layer 1"
     inkscape:groupmode="layer"
     id="layer1"
     transform="translate(0,-273)">
    <g
       id="g888"
       transform="matrix(1.8274801,0,0,1.6286836,480.94872,-6.9581991)">
      <g
         id="g964">
        <g
           id="g983"
           transform="matrix(0.33266627,0,0,0.45253746,-280.97173,38.599023)">
          <rect
             style="fill:#f9f9f9;fill-opacity:1;stroke-width:1.0494827"
             id="rect5107"
             width="105.27338"
             height="87.921654"
             x="53.494541"
             y="239.55006"
             inkscape:export-xdpi="96"
             inkscape:export-ydpi="96" />
          <g
             id="g994"
             transform="matrix(0.75817913,0,0,0.65653943,294.86198,234.64393)">
            <path
               sodipodi:nodetypes="ccccccccsscscscssssscccssscccccscccc"
               inkscape:connector-curvature="0"
               id="path902"
               d="m -296.35506,140.79383 c -1.51061,-0.0718 -1.90094,-0.10676 -3.55934,-0.31857 -2.07118,-0.26452 -3.41152,-0.5443 -4.88804,-1.02032 -2.3317,-0.75173 -4.63362,-1.86127 -6.56697,-3.16534 -3.42221,-2.30829 -5.62506,-5.07464 -6.47869,-8.13595 -0.19882,-0.71299 -0.28835,-1.70375 -0.29019,-3.21116 -0.006,-4.73426 0.609,-8.95839 1.7706,-12.16586 0.37391,-1.03244 1.14686,-2.78704 1.82835,-4.15031 3.39727,-6.79605 8.12109,-12.761841 16.85943,-21.292029 6.97675,-6.810562 8.13656,-7.888123 10.81369,-10.04677 3.129,-2.523007 5.99336,-4.535804 13.22644,-9.294248 6.51247,-4.284387 9.19435,-6.17343 12.34713,-8.696977 2.33274,-1.867169 3.79763,-3.177546 5.84413,-5.227711 2.87632,-2.881458 5.0405,-5.369853 10.26805,-11.806276 6.25104,-7.696596 8.448,-10.124882 13.25115,-14.646405 0.77965,-0.733933 2.86645,-2.802826 4.63734,-4.59754 5.11271,-5.181489 7.38665,-7.280105 10.08772,-9.309949 3.71961,-2.795276 7.33005,-4.4469409 10.67494,-4.8834554 1.60301,-0.2091962 4.26073,-0.2714857 6.21982,-0.1457751 5.0889,0.3265447 10.02201,2.1428275 13.58319,5.0010835 4.02368,3.229468 6.42573,7.926105 7.21169,14.100743 0.32136,2.524712 0.29777,7.271694 -0.0512,10.309402 -0.61045,5.313327 -2.17253,11.825701 -4.40085,18.347295 -3.09421,9.055819 -8.2131,16.988937 -17.32284,26.846434 -4.81173,5.206694 -14.07944,14.558205 -19.15568,19.328878 -15.83013,14.87725 -30.54349,25.20686 -44.8686,31.50033 -7.74599,3.40305 -14.03436,5.34882 -20.19271,6.24809 -3.27191,0.47777 -6.87439,0.62136 -10.84852,0.43239 z m 96.474,-103.215239 c 0.22882,-0.118327 0.92292,-0.880423 1.15557,-1.268767 0.23108,-0.385739 0.46997,-1.017308 0.46997,-1.242506 0,-0.27451 -0.12024,-0.378449 -0.38128,-0.329567 -0.3583,0.0671 -1.13237,0.88642 -1.48571,1.572572 -0.45327,0.880199 1.48571,-1.572572 -0.0953,1.352213 0.11856,-0.0051 0.23228,-0.04648 0.33675,-0.08394 z"
               style="fill:#8abf74;stroke-width:0.05785877" />
            <path
               sodipodi:nodetypes="cssccccscssccscccsssssssssccccccccccc"
               inkscape:connector-curvature="0"
               id="path900"
               d="m -294.85073,140.84809 c -3.0888,-0.15913 -5.56736,-0.42686 -7.49272,-0.80938 -3.58042,-0.71134 -7.54102,-2.54018 -10.35672,-4.78232 -1.9891,-1.58392 -3.43162,-3.30126 -4.33801,-5.16447 -0.9336,-1.91911 -1.14203,-3.06299 -1.0806,-5.93052 0.0926,-4.32166 0.72183,-8.34229 1.76182,-11.25696 0.62525,-1.7523 2.27951,-5.21998 3.39338,-7.1132 3.16322,-5.37649 7.0245,-10.138721 13.36874,-16.48805 2.0848,-2.086474 8.30631,-8.116584 9.40174,-9.112496 1.70138,-1.546825 3.64269,-3.13488 5.87266,-4.804031 2.71755,-2.034106 4.21195,-3.053867 12.75786,-8.70583 4.88755,-3.232454 7.55581,-5.134575 10.35672,-7.383013 2.29377,-1.841324 3.59102,-3.005782 5.73062,-5.144022 3.20435,-3.202297 4.69764,-4.926818 11.42434,-13.193312 5.10271,-6.270766 7.43225,-8.844175 11.34049,-12.527662 0.95466,-0.899771 3.52002,-3.428605 5.70079,-5.619632 3.86892,-3.887127 5.34184,-5.310393 6.94926,-6.715037 4.86079,-4.247591 9.05748,-6.5155995 13.2996,-7.1874744 1.36678,-0.2164736 2.1187,-0.2643424 4.13691,-0.2633671 1.49816,7.24e-4 2.19481,0.025812 2.92186,0.1052228 7.00775,0.7654087 12.63761,3.6353817 16.07874,8.1965597 3.90958,5.182104 5.20555,13.094431 3.76227,22.969932 -0.73733,5.04508 -2.34099,11.325318 -4.37164,17.120154 -3.05758,8.725346 -8.31558,16.759871 -17.28834,26.417571 -4.57251,4.921553 -12.99918,13.456671 -17.65253,17.879717 -16.02813,15.23484 -30.7126,25.74344 -45.01544,32.21425 -9.8965,4.47732 -17.76043,6.68661 -25.68595,7.21619 -0.91855,0.0614 -4.29188,0.11641 -4.97585,0.0812 z m 89.96138,-94.506716 c 3.96744,-1.651647 10.68119,-10.373508 12.67093,-16.460842 0.34215,-1.046738 0.46924,-1.698798 0.46802,-2.401139 -10e-4,-0.591381 -0.0177,-0.701348 -0.15027,-0.988837 -0.19922,-0.432162 -0.42802,-0.591504 -0.89176,-0.621033 -2.73734,-6.025091 -28.56218,-14.234182 -14.14909,19.812199 0.0829,0.337816 0.35029,0.694024 0.61021,0.812904 0.28766,0.131566 0.91897,0.06447 1.44196,-0.153252 z"
               style="fill:#69aa53;stroke-width:0.05785877" />
            <path
               inkscape:connector-curvature="0"
               id="path898"
               d="m -294.96645,140.82505 c -2.45146,-0.10184 -5.55415,-0.45044 -7.51497,-0.84433 -4.57013,-0.91803 -9.57453,-3.64958 -12.36492,-6.74914 -1.67408,-1.85955 -2.60728,-3.61579 -3.09791,-5.83009 -0.15758,-0.71117 -0.16022,-0.75508 -0.15809,-2.63257 0.004,-3.45035 0.44253,-7.08795 1.20692,-10.00957 0.67882,-2.59456 2.28708,-6.15123 4.32833,-9.5721 2.35339,-3.94397 5.29059,-7.732806 9.55644,-12.327319 2.03645,-2.193345 9.43924,-9.503077 12.44146,-12.285078 3.50147,-3.244621 7.37183,-6.16031 13.9939,-10.542145 5.19085,-3.434792 9.04623,-6.011831 9.97498,-6.667541 7.78957,-5.499528 11.89502,-9.375208 18.73786,-17.689191 0.44525,-0.540979 1.61368,-1.972984 2.59652,-3.182232 3.93996,-4.847613 5.50666,-6.706132 7.63313,-9.054898 1.08668,-1.200284 3.96247,-4.078832 5.8192,-5.824768 0.77964,-0.733128 2.79747,-2.73317 4.48405,-4.444538 3.90176,-3.959098 5.69343,-5.683689 7.66869,-7.38159 4.49163,-3.860927 8.41302,-6.0007195 12.38896,-6.7603098 1.51994,-0.2903805 2.57014,-0.3765438 4.61912,-0.3789763 1.24772,-0.00148 2.13409,0.023774 2.48792,0.070888 0.30232,0.040254 0.87512,0.1134707 1.2729,0.1627035 6.20249,0.7676784 11.67013,3.5765356 14.93199,7.6709136 2.18106,2.737728 3.62504,6.30353 4.27232,10.550142 0.28598,1.876207 0.37439,3.134742 0.37599,5.351936 9.2e-4,1.286909 -0.0275,2.416959 -0.0728,2.892939 -0.32031,3.369104 -0.40547,4.065229 -0.73965,6.046241 -0.76249,4.520008 -2.05536,9.468942 -3.89592,14.912958 -0.93892,2.777156 -1.84502,4.946853 -3.09893,7.420528 -3.60202,7.105954 -8.50894,13.581472 -17.0328,22.477721 -5.77685,6.029214 -12.26461,12.515628 -16.41068,16.407256 -15.74524,14.779 -30.16596,24.92731 -44.43322,31.26907 -8.32563,3.70073 -15.36088,5.81032 -21.98633,6.59284 -2.60448,0.30761 -5.72073,0.44431 -7.98451,0.35025 z m 0.46287,-4.5739 c 3.19671,-0.15678 4.95284,-0.39941 8.15852,-1.12717 5.95841,-1.35269 12.19063,-3.5673 19.90298,-7.0725 6.23031,-2.83162 9.1477,-4.40166 15.13007,-8.14246 2.77417,-1.73469 7.29021,-4.67635 7.29021,-4.74868 0,-0.021 -0.0586,0 -0.13019,0.0467 -0.27595,0.18001 -3.73749,2.21627 -5.30901,3.12303 -6.89018,3.97561 -10.5666,5.8018 -16.8075,8.34879 -8.35317,3.40904 -15.87101,5.72228 -22.7385,6.99664 -2.8019,0.51994 -3.68243,0.57052 -9.72027,0.55846 -5.31592,-0.0106 -5.278,-0.012 -8.93315,0.31553 -0.9845,0.0882 -1.61854,0.16945 -1.67338,0.21443 -0.10339,0.0848 -0.76272,1.07508 -0.76272,1.14559 0,0.0863 0.64806,0.1313 4.19476,0.29118 3.64778,0.16443 8.62487,0.18647 11.39818,0.0504 z m -16.9862,-2.19357 0.57184,-0.28696 0.86453,-1.6947 c 2.29803,-4.50478 2.97605,-5.55394 6.19915,-9.59243 6.11651,-7.66389 13.33147,-15.13748 24.85767,-25.748699 1.01878,-0.937908 3.51827,-3.228219 5.55444,-5.089587 6.69329,-6.118681 9.1566,-8.420957 13.33561,-12.463827 1.41609,-1.369957 2.9262,-2.830208 3.35581,-3.244998 1.50921,-1.45719 4.07407,-3.867916 9.66261,-9.081964 9.60993,-8.965966 11.37851,-10.65132 15.45115,-14.724056 2.62214,-2.622201 6.45386,-6.602053 6.69661,-6.955491 0.11543,-0.168072 0.1727,-0.220882 -4.24219,3.911753 -12.19381,11.414238 -21.60303,20.022053 -27.07638,24.770227 -2.58219,2.240066 -6.79827,5.776886 -9.72028,8.154228 -10.56886,8.598814 -14.67844,12.005099 -19.61412,16.257441 -0.89103,0.767658 -2.21889,1.901433 -2.9508,2.519503 -5.21675,4.40526 -6.33247,5.51298 -12.15357,12.06638 -4.76804,5.36788 -7.67734,9.50392 -9.65699,13.72902 -0.79986,1.70712 -1.07601,2.58076 -1.35588,4.2896 -0.21618,1.32 -0.45655,3.47152 -0.38782,3.47152 0.0202,0 0.2941,-0.12913 0.60861,-0.28696 z m 8.95916,-3.8135 c 7.41187,-3.70608 12.92451,-6.49273 13.06075,-6.60222 0.0318,-0.0256 0.85197,-0.45644 1.82255,-0.95748 11.29411,-5.8303 15.30436,-8.15456 24.7057,-14.31895 2.91488,-1.91126 3.95179,-2.58198 7.40592,-4.79049 6.47201,-4.138081 8.85798,-5.717851 11.88998,-7.87246 2.07791,-1.476613 4.69628,-3.47174 6.07517,-4.629124 2.6504,-2.224635 6.80245,-6.177089 11.40962,-10.861132 1.99572,-2.029015 2.77849,-2.869199 3.57317,-3.835215 0.55969,-0.680356 1.03552,-1.266176 1.05741,-1.301823 0.0716,-0.116562 -0.47204,0.378825 -1.64315,1.497374 -3.76653,3.59749 -6.69982,6.18998 -9.30548,8.224329 -8.63318,6.740286 -18.56499,13.496351 -32.22734,21.922481 -3.35019,2.06621 -3.51425,2.159 -6.7984,3.84522 -4.91801,2.5251 -5.89185,3.15534 -8.85317,5.72939 -3.0979,2.69279 -3.91772,3.31398 -5.81403,4.40539 -0.89908,0.51746 -3.32318,1.69683 -4.88907,2.37863 -1.20403,0.52424 -1.57885,0.67932 -4.68656,1.93908 -3.13589,1.27118 -4.35969,1.80768 -6.16195,2.70134 -2.79621,1.38651 -4.4328,2.44045 -5.98808,3.8562 -1.42514,1.29731 -2.77271,2.6542 -2.63595,2.6542 0.0186,0 3.61987,-1.79313 8.00291,-3.98474 z m -10.57314,2.27687 0.27729,-0.20355 -0.004,-2.99315 c -0.008,-5.66531 0.21556,-7.91533 1.02495,-10.33793 1.27449,-3.81474 3.12125,-7.75081 5.48517,-11.69075 2.32748,-3.87921 5.31452,-8.020999 9.55557,-13.249661 1.69275,-2.086932 5.92531,-7.200652 6.53684,-7.897723 2.67316,-3.047045 5.92316,-6.213974 10.29601,-10.032832 6.38751,-5.578291 8.99517,-7.768333 13.15713,-11.050005 1.16938,-0.92204 1.58454,-1.285249 0.92574,-0.809889 -5.60313,4.042989 -12.44932,9.290525 -16.47528,12.628137 -3.34203,2.770619 -5.28077,4.54093 -8.1591,7.450295 -6.14369,6.209912 -10.55238,11.687651 -15.70967,19.519078 -5.22433,7.93323 -7.37595,13.34393 -7.98382,20.07699 -0.12659,1.40222 -0.17695,4.18688 -0.0915,5.05628 0.1116,1.13468 0.70376,3.73826 0.85023,3.73826 0.0204,0 0.16185,-0.0916 0.31436,-0.20355 z m 80.36442,-71.752597 c 4.33974,-3.756952 7.1548,-6.408698 8.74334,-8.236112 1.33129,-1.531478 4.24799,-5.113118 4.40546,-5.409796 0.066,-0.124257 -0.0483,-0.01761 -2.90886,2.715409 -4.16955,3.983633 -7.48724,7.02286 -10.89718,9.982537 l -1.09118,0.947094 0.0284,0.211316 c 0.0345,0.257102 0.32595,0.869134 0.41317,0.867581 0.0346,-6.19e-4 0.62272,-0.485729 1.3069,-1.078029 z m 25.17741,-10.259176 c 1.61567,-0.499027 4.14012,-2.401595 6.50098,-4.899486 4.76215,-5.038566 8.86513,-11.280535 11.07844,-16.853922 1.21517,-3.059921 1.54583,-5.190112 0.97259,-6.265626 -0.60225,-1.129941 -2.11505,-0.943739 -4.34182,0.534412 -2.79651,1.856339 -6.59394,5.913784 -9.74691,10.414291 -4.12631,5.889814 -6.90577,11.928783 -6.91338,15.020746 -0.003,1.266207 0.31021,1.892019 1.0723,2.141742 0.30436,0.09973 0.88153,0.06113 1.3778,-0.09216 z"
               style="fill:#3a8b23;stroke-width:0.05785877" />
            <path
               inkscape:connector-curvature="0"
               id="path896"
               d="m -294.53251,140.81904 c -2.75229,-0.0803 -6.53457,-0.51798 -8.50524,-0.98416 -1.91421,-0.45282 -3.61573,-1.07711 -5.49658,-2.01668 -2.41695,-1.20739 -4.3075,-2.55949 -5.95946,-4.26217 -2.1764,-2.24322 -3.37746,-4.70334 -3.5979,-7.36957 -0.0615,-0.7434 -0.0174,-3.26493 0.0687,-3.9344 0.0307,-0.23867 0.0965,-0.9026 0.14629,-1.4754 0.28884,-3.32559 0.91144,-6.20767 1.8619,-8.61884 1.74068,-4.41588 4.4654,-9.01066 7.99354,-13.479756 2.20741,-2.796135 4.3737,-5.199964 7.81762,-8.674829 2.32893,-2.349853 8.41268,-8.27823 9.84743,-9.595929 2.3596,-2.1671 5.36693,-4.551165 8.81297,-6.986499 1.24842,-0.882259 4.39334,-2.987653 10.06743,-6.739713 8.13584,-5.379933 12.17643,-8.553544 16.54907,-12.998165 2.83551,-2.882194 4.51607,-4.834557 10.70226,-12.433149 5.09722,-6.261003 7.75995,-9.229645 10.99277,-12.255705 0.73222,-0.68538 3.53138,-3.437065 6.22036,-6.114854 4.69982,-4.680246 5.91211,-5.841793 7.55076,-7.234707 4.11823,-3.500645 7.66512,-5.5113 11.28196,-6.3954889 1.14442,-0.279771 2.22019,-0.4378228 3.96364,-0.5823338 0.83296,-0.069043 3.47771,-0.026405 3.97623,0.064104 0.18384,0.033376 0.76466,0.1115735 1.29072,0.1737714 4.35182,0.514531 8.60593,2.1502043 11.696,4.4970123 3.18505,2.418946 5.25247,5.412036 6.58339,9.531054 0.51407,1.590946 0.94343,3.709288 1.12682,5.559288 0.0505,0.509157 0.11676,1.107996 0.14732,1.330752 0.0909,0.662878 0.12678,2.926892 0.0655,4.136902 -0.34151,6.745516 -1.84992,13.89799 -4.71738,22.368611 -1.3231,3.908491 -2.96282,7.471032 -5.05692,10.98697 -3.70441,6.219587 -8.42488,12.053944 -16.38437,20.25057 -7.61078,7.837526 -12.23436,12.413686 -16.78093,16.608834 -15.61356,14.40671 -29.85984,24.1839 -44.17351,30.31615 -8.48122,3.63353 -15.62198,5.60011 -22.2467,6.1268 -0.62053,0.0493 -1.41464,0.11642 -1.76469,0.14907 -0.80295,0.0749 -2.54289,0.0973 -4.07904,0.0525 z m -0.34715,-4.45101 c 3.26212,-0.14594 5.17226,-0.39156 8.12915,-1.04532 5.06904,-1.12075 10.63717,-2.98114 16.77905,-5.60611 3.6345,-1.55334 8.8634,-4.00763 10.93142,-5.13089 3.86658,-2.10015 9.44338,-5.55026 15.19181,-9.39848 1.94134,-1.2996 2.61643,-1.78092 2.25649,-1.60879 -0.0796,0.038 -1.19912,0.69947 -2.48792,1.46983 -8.63916,5.16392 -13.8308,7.96744 -18.39293,9.93232 -9.85301,4.24362 -17.99161,6.91377 -25.69546,8.43029 -3.53272,0.69542 -4.84751,0.7845 -10.6894,0.72431 -2.14006,-0.0221 -3.89063,-0.0556 -3.89016,-0.0745 4.6e-4,-0.0189 0.25432,-0.1358 0.56412,-0.25976 2.40995,-0.96426 4.77209,-2.41335 7.11063,-4.36213 0.92438,-0.77032 2.90414,-2.7094 3.94082,-3.85987 0.43013,-0.47734 0.98338,-1.09016 1.22944,-1.36183 l 0.44739,-0.49395 1.67058,-0.85948 c 3.61282,-1.85873 8.4362,-4.41724 10.72547,-5.68921 4.38149,-2.43446 7.4798,-4.34881 14.92756,-9.22327 2.59141,-1.69604 3.2891,-2.14603 8.41845,-5.42971 6.03513,-3.863537 9.13319,-5.965084 12.52636,-8.497169 4.34577,-3.242949 7.3984,-6.007927 14.26225,-12.918307 3.09601,-3.116985 3.38416,-3.424759 4.70582,-5.026197 1.71125,-2.073479 1.83255,-2.251748 1.03285,-1.51785 -0.23406,0.214801 -1.12632,1.057115 -1.9828,1.871807 -4.25222,4.044774 -6.78362,6.275351 -9.68639,8.53532 -8.63241,6.720811 -18.5581,13.451036 -32.42984,21.989446 -2.6987,1.66111 -3.18038,1.93251 -5.98839,3.37399 -5.34307,2.74285 -6.14004,3.26383 -9.60411,6.2783 -2.74888,2.39209 -3.69155,3.08801 -5.70819,4.21402 -0.56845,0.31739 -0.71479,0.37568 -0.71438,0.2845 2.9e-4,-0.0605 2.89052,-3.52469 3.75737,-4.50356 1.28391,-1.44981 2.55032,-2.73772 4.2848,-4.35756 1.74563,-1.63026 7.34807,-7.17507 7.34807,-7.27249 0,-0.0297 0.35059,-0.40386 0.77908,-0.83147 0.4285,-0.42762 0.77255,-0.78401 0.76458,-0.79199 -0.0126,-0.0125 -3.86984,-0.8452 -10.56553,-2.28072 -1.03197,-0.22125 -1.88959,-0.41555 -1.90582,-0.43178 -0.0162,-0.0162 0.13853,-0.19164 0.34392,-0.38982 0.74831,-0.722054 2.35358,-2.236392 2.93318,-2.767032 0.32686,-0.299246 0.87594,-0.804445 1.22019,-1.122669 0.34424,-0.318223 1.8719,-1.724191 3.39481,-3.124373 9.4595,-8.697232 10.2608,-9.449402 16.48775,-15.476903 3.57351,-3.459046 6.17328,-5.913525 14.49056,-13.680734 9.06241,-8.463046 12.63818,-11.962115 17.71203,-17.332064 1.78714,-1.891433 2.83727,-3.03163 2.90223,-3.151133 0.11582,-0.213107 0.39224,-0.467932 -6.84081,6.306512 -9.43351,8.83539 -18.89262,17.511761 -24.12711,22.130604 -3.45482,3.04848 -8.90465,7.64032 -12.16846,10.252725 -2.23503,1.788952 -6.10231,4.933467 -10.65682,8.665143 -0.63645,0.521464 -2.15612,1.782855 -3.37705,2.80309 -1.22093,1.020229 -2.39257,1.996457 -2.60365,2.169391 -0.21107,0.172929 -0.68318,0.577656 -1.04914,0.899392 -0.7058,0.620506 -2.59943,2.221522 -3.07282,2.597986 l -0.28238,0.224561 -0.34678,-0.06823 -0.34679,-0.06823 -0.85914,0.758364 c -0.47253,0.41711 -0.93156,0.79595 -1.02007,0.84187 -0.18472,0.0958 -0.89006,0.70729 -1.16896,1.01335 -0.10368,0.11379 -0.39137,0.34635 -0.6393,0.51679 -0.24793,0.17044 -0.80227,0.58664 -1.23187,0.9249 -0.4296,0.33825 -1.09353,0.84924 -1.4754,1.13553 -6.61895,4.96231 -8.62696,6.59696 -10.97096,8.93108 -1.76702,1.75958 -2.73239,2.87572 -3.89637,4.50495 -1.45936,2.04267 -2.2494,3.63229 -2.86581,5.76619 -0.10112,0.35005 -0.2077,0.66119 -0.23686,0.69142 -0.17818,0.18476 0.13184,-2.64248 0.44535,-4.06138 0.2496,-1.12964 1.06135,-3.40679 2.00592,-5.62707 0.59082,-1.38878 1.96705,-4.18578 2.73298,-5.55445 2.58308,-4.61574 5.81713,-9.21095 10.81124,-15.361496 1.82574,-2.248508 5.85675,-7.109669 6.573,-7.926652 2.75492,-3.142368 5.93204,-6.21104 10.90766,-10.535341 6.82565,-5.93215 8.72058,-7.507853 13.94396,-11.594906 2.30556,-1.803987 2.52359,-1.980484 2.48916,-2.014923 -0.0741,-0.07411 -6.67593,4.741821 -10.87868,7.935839 -4.72165,3.588372 -8.90678,6.950921 -11.74533,9.436806 -4.08433,3.576887 -8.72587,8.388104 -12.58997,13.050202 -2.92527,3.529385 -6.21157,8.065281 -9.12471,12.594331 -4.08827,6.35603 -6.15281,11.29298 -6.97619,16.6822 -0.4439,2.9054 -0.55838,6.48421 -0.26279,8.21487 0.18803,1.10091 0.61964,2.78282 0.77224,3.00929 0.0752,0.11163 0.1549,0.33204 0.17708,0.48981 0.066,0.46937 0.23558,0.93721 0.42767,1.17974 0.21784,0.27504 1.25212,1.07825 1.54722,1.20156 0.14754,0.0616 0.35424,0.0829 0.68101,0.0699 l 0.46917,-0.0187 -0.0175,0.15059 c -0.0174,0.14975 -0.0147,0.15078 0.4918,0.18745 0.84084,0.0609 4.00513,0.21455 5.42729,0.2636 1.97995,0.0683 7.91142,0.071 9.40205,0.004 z m 62.03767,-75.37142 c 2.64383,-2.291623 5.30565,-4.707497 6.80693,-6.177975 1.56338,-1.531307 2.90763,-3.074378 5.39404,-6.191862 1.49075,-1.869116 1.75653,-2.220244 1.71328,-2.263487 -0.0352,-0.03521 -0.2783,0.19166 -3.17038,2.958684 -4.29605,4.11028 -8.3349,7.809479 -11.36446,10.408749 -1.14887,0.985697 -1.14789,0.984581 -1.11012,1.26616 0.0465,0.346376 0.37034,0.966341 0.50484,0.966341 0.0609,0 0.61253,-0.434975 1.22587,-0.96661 z m 23.44866,-7.569276 c 1.08341,-0.284332 2.59224,-1.128296 4.19828,-2.348302 4.40313,-3.344769 10.10697,-10.307762 13.69189,-16.714446 1.68834,-3.01728 3.33907,-6.69027 4.19949,-9.344191 0.79595,-2.455067 0.87692,-3.816824 0.29361,-4.938335 -0.72597,-1.395801 -1.7876,-1.547668 -3.8106,-0.545111 -4.67406,2.31636 -11.64553,10.177867 -16.5866,18.704175 -3.23371,5.580085 -5.07911,10.770481 -4.73873,13.328262 0.22226,1.670225 1.13095,2.283553 2.75266,1.857948 z"
               style="fill:#308418;stroke-width:0.05785877" />
            <path
               sodipodi:nodetypes="ccccccccscccsccscscsscccccssccssscccccscccsssssccccccccssscsscccsscsccccccscccccsccssccsssssssccsccscsccssscccccccsccccccccsssccccc"
               inkscape:connector-curvature="0"
               id="path894"
               d="m -294.47465,140.81975 c -2.39135,-0.0719 -5.88757,-0.44474 -7.8688,-0.83921 -2.12951,-0.42399 -4.35752,-1.22154 -6.50986,-2.33032 -0.95769,-0.49335 -2.26119,-1.27633 -2.81121,-1.68861 -1.27956,-0.95913 -1.69185,-1.29728 -2.33758,-1.91715 -2.11341,-2.02881 -3.38143,-4.17473 -3.90824,-6.61404 -0.2666,-1.23447 -0.27705,-3.26372 -0.031,-6.01731 0.34827,-3.89735 0.93779,-6.73565 1.91076,-9.19955 1.56229,-3.95624 3.84665,-7.97329 6.76143,-11.88997 2.48393,-3.337738 5.0709,-6.285249 9.00753,-10.262901 1.76451,-1.782901 7.95551,-7.825734 9.51885,-9.291048 1.95239,-1.829975 4.63348,-4.025403 7.31043,-5.986196 2.26248,-1.657214 3.7356,-2.654259 12.20061,-8.257662 6.04551,-4.001811 9.50661,-6.573449 12.97666,-9.641804 1.05153,-0.929809 4.29086,-4.139035 5.32859,-5.279084 1.98158,-2.176953 4.00966,-4.578547 7.71854,-9.140081 5.91405,-7.273659 8.57369,-10.272007 11.77859,-13.278587 2.13866,-2.006325 3.23143,-3.079251 6.78126,-6.658101 3.36117,-3.388643 4.90393,-4.879609 6.52195,-6.302987 4.71473,-4.147574 8.90498,-6.4650085 13.01922,-7.2003356 2.51273,-0.4490935 4.84721,-0.514573 7.49171,-0.2101342 8.31175,0.9568579 14.59085,4.8191018 17.60578,10.8292268 1.57398,3.137667 2.40908,6.663093 2.67839,11.307023 0.0607,1.0458 0.0223,3.585867 -0.0624,4.136902 -0.0293,0.190934 -0.0952,0.867882 -0.14634,1.504328 -0.43065,5.36054 -1.90221,11.894666 -4.3066,19.122324 -0.65073,1.956124 -1.11156,3.195298 -1.71416,4.609424 -3.02104,7.089504 -7.55164,13.778643 -14.6285,21.598013 -2.01216,2.223281 -4.69511,5.036641 -8.6836,9.105715 -1.43201,1.460934 -2.99722,3.063159 -3.47827,3.560501 -1.79681,1.857683 -7.45515,7.313824 -10.20822,9.843434 -11.63187,10.68775 -22.21155,18.60855 -32.86089,24.60233 -6.85378,3.85753 -14.52244,7.19363 -21.11845,9.18717 -4.45111,1.34528 -9.25367,2.25359 -12.9893,2.45668 -0.35004,0.019 -0.8187,0.0597 -1.04146,0.0905 -0.51065,0.0704 -2.4324,0.0958 -3.90546,0.0515 z m -0.86788,-4.39313 c 3.52638,-0.13334 5.51998,-0.38098 8.62386,-1.07124 7.23655,-1.60931 15.03904,-4.54082 25.28138,-9.49862 3.66098,-1.77209 8.81203,-4.84731 15.8533,-9.46457 2.47668,-1.62406 4.51946,-3.01343 4.66167,-3.17057 0.0554,-0.0612 0.0735,-0.11125 0.0403,-0.11125 -0.0332,0 -1.05919,0.60176 -2.27993,1.33725 -6.598,3.97526 -11.70973,6.85112 -15.61382,8.78435 -1.62601,0.80517 -2.4311,1.1707 -4.68656,2.12783 -9.3562,3.97042 -17.08206,6.48506 -24.47837,7.96731 -3.59125,0.7197 -4.90141,0.81402 -10.60777,0.76362 -2.16105,-0.0191 -3.93862,-0.0441 -3.95014,-0.0557 -0.0115,-0.0115 0.27253,-0.14574 0.63123,-0.29825 2.5431,-1.08124 4.81125,-2.51887 7.21917,-4.57574 0.95373,-0.81469 3.10953,-2.99216 4.24339,-4.28605 l 0.97177,-1.10892 1.31235,-0.67915 c 12.39127,-6.41252 15.41565,-8.16849 26.01805,-15.10619 1.65476,-1.0828 4.7809,-3.10266 6.94697,-4.48858 7.79694,-4.988726 10.64098,-6.912235 14.34506,-9.702006 4.19479,-3.159349 7.21858,-5.910418 13.94411,-12.686461 3.1308,-3.154315 3.37128,-3.41177 4.74885,-5.084038 1.52511,-1.851377 1.69989,-2.079699 1.59204,-2.079699 -0.0666,0 -0.37109,0.280945 -2.38299,2.198633 -2.85567,2.721949 -5.80616,5.40063 -7.71887,7.007802 -1.25011,1.050409 -5.30339,4.153415 -8.01344,6.134719 -7.03002,5.139624 -15.38909,10.683952 -25.80084,17.11295 -3.60777,2.22772 -3.92754,2.40836 -7.6126,4.30064 -4.27466,2.19504 -5.58724,3.04848 -8.23019,5.35126 -2.63006,2.29155 -3.42721,2.93377 -4.60164,3.70729 -0.77595,0.51109 -2.1753,1.31025 -2.21854,1.26701 -0.0595,-0.0595 2.93602,-3.6246 4.28837,-5.10377 1.02983,-1.1264 2.40273,-2.48142 4.36861,-4.31174 1.88569,-1.75565 7.38838,-7.22352 9.57902,-9.51841 4.64295,-4.863882 8.58805,-9.139257 13.15947,-14.261136 0.49325,-0.552638 1.13214,-1.266707 1.41977,-1.586823 0.56843,-0.632639 2.38441,-2.696953 2.80392,-3.187358 0.68348,-0.798972 1.64389,-1.900204 2.14078,-2.454665 0.96673,-1.078736 2.45713,-2.839315 2.51492,-2.970828 0.0308,-0.06999 0.31716,-0.426997 0.63645,-0.793342 0.83588,-0.959078 1.14684,-1.33343 1.12257,-1.351436 -0.0117,-0.0087 -1.98395,-0.436099 -4.38272,-0.949769 -2.39877,-0.513676 -4.37701,-0.949555 -4.39608,-0.968625 -0.0417,-0.04168 0.33679,-0.410115 2.97149,-2.892713 1.11372,-1.049425 2.65044,-2.506888 3.41492,-3.238801 0.76449,-0.731913 2.75633,-2.608665 4.42631,-4.17056 6.78505,-6.345892 7.95193,-7.461542 11.37201,-10.87272 2.15904,-2.153423 3.98272,-4.048299 6.96085,-7.232608 1.43978,-1.53946 1.77682,-1.923347 1.72987,-1.970304 -0.0453,-0.04525 -0.42736,0.290646 -1.80954,1.590709 -0.70009,0.658493 -2.10718,1.976692 -3.12686,2.929332 -1.01968,0.95264 -2.49085,2.330912 -3.26926,3.062825 -3.93178,3.696926 -12.45219,11.569527 -16.6606,15.393896 -6.12046,5.561932 -9.28519,8.32632 -14.66738,12.811919 -3.10573,2.588364 -4.74925,3.892825 -7.14538,5.671271 -8.6857,6.44667 -13.78984,10.463295 -18.44671,14.516354 -4.01116,3.491072 -4.18703,3.632722 -9.84623,7.930752 -6.41652,4.87319 -9.60699,7.97295 -12.12017,11.77558 -1.17859,1.78328 -1.64605,2.762 -2.25917,4.72996 -0.11649,0.37391 -0.22599,0.67984 -0.24332,0.67984 -0.0816,0 0.15334,-2.08307 0.36318,-3.21979 0.16482,-0.89289 0.4136,-1.73931 0.93275,-3.17361 2.56785,-7.0943 6.51101,-13.62401 13.52171,-22.391342 2.04888,-2.562258 6.62833,-8.112575 7.75401,-9.397896 2.78321,-3.177911 6.00813,-6.286466 11.14536,-10.743199 6.98139,-6.05661 8.60499,-7.405397 13.7405,-11.414766 2.79556,-2.182528 3.3378,-2.618116 3.30276,-2.653152 -0.14325,-0.14325 -9.92467,7.052958 -15.42417,11.347589 -6.48148,5.061468 -10.15158,8.283988 -14.21729,12.483441 -5.70994,5.89777 -9.84396,11.0811 -14.73749,18.478215 -4.82328,7.29092 -7.07099,12.50357 -7.89634,18.3123 -0.24812,1.74631 -0.30441,2.54883 -0.33526,4.7804 -0.0287,2.0748 -0.023,2.25278 0.0964,2.99899 0.16285,1.01813 0.65857,3.01774 0.78191,3.15403 0.0522,0.0577 0.14327,0.34087 0.20236,0.6293 0.12796,0.62457 0.32814,1.01563 0.72772,1.42165 0.66359,0.67427 1.3696,1.00307 1.99736,0.93021 0.3407,-0.0395 0.34328,-0.0387 0.34328,0.10939 0,0.10768 0.0362,0.1572 0.13019,0.17788 0.25842,0.0569 4.93111,0.27664 7.21788,0.33944 1.57104,0.0431 6.2395,0.0311 7.5795,-0.0196 z m 62.42224,-75.29334 c 0.55284,-0.475859 1.1647,-1.012763 1.35968,-1.193117 0.19499,-0.180355 0.84922,-0.767808 1.45384,-1.305451 3.76737,-3.350018 5.19216,-4.774589 7.35988,-7.358714 1.49259,-1.779312 4.00937,-4.951576 4.00937,-5.053599 0,-0.03004 -0.0254,-0.05462 -0.0564,-0.05462 -0.0597,0 -0.34043,0.263579 -3.4207,3.211162 -3.72439,3.563955 -7.32251,6.864257 -10.46684,9.600469 -2.07121,1.80239 -1.98918,1.718455 -1.95181,1.997024 0.0636,0.474263 0.47565,1.162068 0.63764,1.064388 0.0386,-0.02329 0.52253,-0.431679 1.07537,-0.907539 z"
               style="fill:#237c0d;stroke-width:0.05785877" />
            <g
               id="g953">
              <path
                 style="fill:#1d7807;stroke-width:0.05785877"
                 d="m -294.47465,140.81975 c -2.39135,-0.0719 -5.88757,-0.44474 -7.8688,-0.83921 -2.94793,-0.58693 -6.13377,-1.91134 -8.77697,-3.64873 -0.3563,-0.2342 -0.7634,-0.52329 -0.90466,-0.64242 -0.14126,-0.11913 -0.46946,-0.37103 -0.72932,-0.55979 -0.60955,-0.44274 -1.85536,-1.63737 -2.47798,-2.37617 -1.34472,-1.59564 -2.27032,-3.43547 -2.67796,-5.32301 -0.2666,-1.23447 -0.27705,-3.26372 -0.031,-6.01731 0.34827,-3.89735 0.93779,-6.73565 1.91076,-9.19955 1.56229,-3.95624 3.84665,-7.97329 6.76143,-11.88997 2.48393,-3.337738 5.0709,-6.285249 9.00753,-10.262901 1.76451,-1.782901 7.95551,-7.825734 9.51885,-9.291048 1.95239,-1.829975 4.63348,-4.025403 7.31043,-5.986196 2.26248,-1.657214 3.7356,-2.654259 12.20061,-8.257662 6.04551,-4.001811 9.50661,-6.573449 12.97666,-9.641804 1.05153,-0.929809 4.29086,-4.139035 5.32859,-5.279084 1.98158,-2.176953 4.00966,-4.578547 7.71854,-9.140081 5.91405,-7.273659 8.57369,-10.272007 11.77859,-13.278587 2.13866,-2.006325 3.23143,-3.079251 6.78126,-6.658101 3.36117,-3.388643 4.90393,-4.879609 6.52195,-6.302987 4.71473,-4.147574 8.90498,-6.4650085 13.01922,-7.2003356 2.51273,-0.4490935 4.84721,-0.514573 7.49171,-0.2101342 8.31175,0.9568579 14.59085,4.8191018 17.60578,10.8292268 1.57398,3.137667 2.40908,6.663093 2.67839,11.307023 0.0607,1.0458 0.0223,3.585867 -0.0624,4.136902 -0.0293,0.190934 -0.0952,0.867882 -0.14634,1.504328 -0.43065,5.36054 -1.90221,11.894666 -4.3066,19.122324 -0.65073,1.956124 -1.11156,3.195298 -1.71416,4.609424 -3.02104,7.089504 -7.55164,13.778643 -14.6285,21.598013 -2.01216,2.223281 -4.69511,5.036641 -8.6836,9.105715 -1.43201,1.460934 -2.99722,3.063159 -3.47827,3.560501 -1.79681,1.857683 -7.45515,7.313824 -10.20822,9.843434 -11.63187,10.68775 -22.21155,18.60855 -32.86089,24.60233 -6.85378,3.85753 -14.52244,7.19363 -21.11845,9.18717 -4.45111,1.34528 -9.25367,2.25359 -12.9893,2.45668 -0.35004,0.019 -0.8187,0.0597 -1.04146,0.0905 -0.51065,0.0704 -2.4324,0.0958 -3.90546,0.0515 z m -1.09932,-4.33461 c 4.21132,-0.14974 6.53103,-0.47719 10.64601,-1.50284 6.76271,-1.68557 13.69065,-4.36003 23.49067,-9.06831 3.85658,-1.85284 9.73416,-5.39706 17.44441,-10.5191 3.37234,-2.2403 3.90847,-2.63167 3.60508,-2.63167 -0.0818,0 -0.27416,0.11281 -2.91077,1.70703 -7.26752,4.39431 -13.60474,7.89967 -17.44442,9.64919 -2.05129,0.93466 -6.18107,2.64616 -8.98798,3.72491 -6.54932,2.517 -12.67795,4.34037 -18.32136,5.45089 -3.56426,0.70139 -4.56913,0.77482 -10.25254,0.74924 -2.218,-0.01 -4.01452,-0.033 -3.99226,-0.0512 0.0223,-0.0182 0.22273,-0.10704 0.44548,-0.19754 0.22276,-0.0905 0.76953,-0.34104 1.21504,-0.55673 3.57485,-1.73081 6.78172,-4.34125 10.40534,-8.47013 0.44685,-0.50916 0.85304,-0.95423 0.90265,-0.98906 0.0496,-0.0348 0.96241,-0.51379 2.02845,-1.06436 11.09206,-5.72863 14.95617,-7.96896 24.30069,-14.08904 3.46664,-2.27043 3.47407,-2.27524 6.68269,-4.32843 23.17519,0.49173 20.53901,-13.596444 29.19295,-22.869256 3.72627,-3.754062 3.61097,-3.630673 5.21386,-5.579449 1.64713,-2.00255 1.6509,-2.007572 1.57016,-2.088314 -0.0721,-0.0721 -0.28611,0.12008 -2.77647,2.493326 -4.29244,4.090591 -6.79569,6.302723 -9.66028,8.536847 -7.76449,6.055586 -16.75836,12.235302 -28.40036,19.513966 -5.95064,3.72039 -6.99663,4.33701 -9.7492,5.74729 -5.75151,2.94679 -6.53679,3.45756 -10.10157,6.57035 -2.54671,2.2238 -3.9358,3.23783 -5.80784,4.23972 -0.18629,0.0997 -0.14883,0.0464 0.62986,-0.89587 2.87029,-3.47335 4.28306,-5.00441 6.71645,-7.2788 0.716,-0.66922 1.87462,-1.76497 2.57471,-2.435 7.70851,-7.37747 50.04379,-34.89823 62.11741,-48.79726 2.22331,-2.559452 -25.68869,9.09788 -24.22172,7.359895 0.35104,-0.415901 1.32995,-1.574522 2.17535,-2.574718 0.8454,-1.000196 2.21028,-2.625669 3.03306,-3.612161 0.82278,-0.986492 1.62819,-1.947358 1.78979,-2.135257 0.1616,-0.1879 0.99513,-0.967779 1.85229,-1.733065 4.8576,-4.336941 6.18291,-5.745695 10.26421,-10.910548 1.17876,-1.491725 1.35228,-1.731286 1.30701,-1.804527 -0.0829,-0.134079 0.0329,-0.237536 -3.15248,2.816707 -2.43109,2.330987 -2.98325,2.844231 -3.23667,3.008566 l -0.2025,0.131318 -2.11185,-0.455922 c -1.16151,-0.250756 -2.24854,-0.484743 -2.4156,-0.51997 -0.16707,-0.03523 -0.30376,-0.09058 -0.30376,-0.123001 0,-0.03242 0.38404,-0.453885 0.85341,-0.936581 0.90593,-0.931625 1.62986,-1.6982 4.1883,-4.434987 1.90334,-2.036018 2.30635,-2.488059 2.30635,-2.586945 0,-0.207893 -0.14413,-0.08751 -2.22603,1.859191 -0.89187,0.833953 -2.23343,2.084692 -2.98126,2.779417 -0.74782,0.694725 -1.84135,1.723131 -2.43007,2.285345 -2.39176,2.284105 -10.87063,10.143859 -15.79544,14.642082 -7.02721,6.418504 -11.21909,10.09338 -16.8369,14.760309 -2.47592,2.056845 -3.31234,2.721179 -5.09157,4.044051 -10.8386,8.058587 -15.8254,11.996258 -21.32096,16.835411 -2.06858,1.8215 -3.36011,2.86871 -6.27768,5.09014 -3.5691,2.71748 -4.20277,3.20593 -5.31964,4.10045 -4.29301,3.43837 -7.09202,6.33679 -9.17186,9.49761 -1.09357,1.66197 -1.53023,2.53438 -2.06576,4.12731 -0.1668,0.49613 -0.30986,0.89547 -0.31791,0.88742 -0.0684,-0.0684 0.28845,-2.60242 0.48204,-3.42361 0.30127,-1.27793 1.4315,-4.33605 2.39496,-6.48018 0.46516,-1.0352 1.69279,-3.46506 2.28008,-4.51299 2.64539,-4.72031 5.81751,-9.226 10.87597,-15.44829 2.06217,-2.536633 5.80803,-7.057584 6.51875,-7.867601 2.80782,-3.200146 6.01104,-6.283573 11.21813,-10.798588 7.54493,-6.542125 8.9625,-7.709588 15.88435,-13.081817 1.39068,-1.079339 1.63634,-1.290228 1.57474,-1.351832 -0.0866,-0.08663 -1.00193,0.541861 -4.6723,3.20828 -7.95252,5.777278 -15.00859,11.269469 -19.2959,15.019244 -6.41904,5.614239 -12.99395,12.955499 -18.06122,20.166391 -6.54903,9.319483 -9.23463,14.610263 -10.48476,20.655583 -0.45555,2.20292 -0.64358,4.05767 -0.68333,6.74055 -0.0256,1.72832 -0.0149,2.19618 0.0626,2.74829 0.15679,1.11565 0.70443,3.38477 0.83661,3.46646 0.0326,0.0202 0.11159,0.27615 0.17547,0.56885 0.0639,0.2927 0.14658,0.58904 0.18377,0.65852 0.16907,0.31592 0.76837,1.10025 0.96485,1.26275 0.3075,0.25431 1.04364,0.48632 1.53365,0.48334 0.37076,-0.002 0.39054,0.004 0.39054,0.13204 0,0.17431 -0.008,0.17326 2.05399,0.28103 4.61183,0.24108 9.48383,0.31996 12.7,0.2056 z m 51.7836,-72.399908 c 0,-0.03033 3.13831,-2.973633 3.67706,-3.448577 0.3857,-0.340022 -0.75391,0.774234 -1.68363,1.646182 -1.17903,1.105763 -1.99343,1.842114 -1.99343,1.802395 z m 33.21093,-8.048488 c 1.18457,-0.214844 2.80392,-1.071003 4.98453,-2.635343 2.20822,-1.584146 4.44091,-3.729048 7.07798,-6.799684 2.73357,-3.183 5.72613,-7.306182 7.34881,-10.125285 2.5176,-4.373861 5.70992,-11.507155 6.19011,-13.83189 0.27869,-1.349257 0.11678,-2.425215 -0.56492,-3.753896 -0.92997,-1.812587 -2.10325,-2.610091 -3.42625,-2.328905 -1.36661,0.290453 -3.75592,1.829997 -6.1588,3.968406 -0.84624,0.753099 -3.31141,3.235051 -4.11508,4.143095 -4.64724,5.250794 -8.84518,11.420612 -11.65268,17.126197 -1.94549,3.953754 -3.00696,7.163187 -3.27225,9.893849 -0.11547,1.188543 0.12492,2.487526 0.59689,3.225324 0.62605,0.978676 1.65016,1.361438 2.99166,1.118132 z"
                 id="path892"
                 inkscape:connector-curvature="0"
                 sodipodi:nodetypes="cccscssccscccsccscscsscccccssccsssccccccsssccccccccccssccccccsssscccscsscscccccscscsssccssssccccscccccsccsssscccccccscccsccssssscccsssscs" />
            </g>
            <path
               inkscape:connector-curvature="0"
               id="path890"
               d="m -294.47465,140.81975 c -2.39135,-0.0719 -5.88757,-0.44474 -7.8688,-0.83921 -2.94793,-0.58693 -6.13377,-1.91134 -8.77697,-3.64873 -0.3563,-0.2342 -0.7634,-0.52329 -0.90466,-0.64242 -0.14126,-0.11913 -0.46946,-0.37103 -0.72932,-0.55979 -0.60955,-0.44274 -1.85536,-1.63737 -2.47798,-2.37617 -1.34472,-1.59564 -2.27032,-3.43547 -2.67796,-5.32301 -0.2666,-1.23447 -0.27705,-3.26372 -0.031,-6.01731 0.34827,-3.89735 0.93779,-6.73565 1.91076,-9.19955 1.56229,-3.95624 3.84665,-7.97329 6.76143,-11.88997 2.48393,-3.337738 5.0709,-6.285249 9.00753,-10.262901 1.76451,-1.782901 7.95551,-7.825734 9.51885,-9.291048 1.95239,-1.829975 4.63348,-4.025403 7.31043,-5.986196 2.26248,-1.657214 3.7356,-2.654259 12.20061,-8.257662 6.04551,-4.001811 9.50661,-6.573449 12.97666,-9.641804 1.05153,-0.929809 4.29086,-4.139035 5.32859,-5.279084 1.98158,-2.176953 4.00966,-4.578547 7.71854,-9.140081 5.91405,-7.273659 8.57369,-10.272007 11.77859,-13.278587 2.13866,-2.006325 3.23143,-3.079251 6.78126,-6.658101 3.36117,-3.388643 4.90393,-4.879609 6.52195,-6.302987 4.71473,-4.147574 8.90498,-6.4650085 13.01922,-7.2003356 2.51273,-0.4490935 4.84721,-0.514573 7.49171,-0.2101342 8.31175,0.9568579 14.59085,4.8191018 17.60578,10.8292268 1.57398,3.137667 2.40908,6.663093 2.67839,11.307023 0.0607,1.0458 0.0223,3.585867 -0.0624,4.136902 -0.0293,0.190934 -0.0952,0.867882 -0.14634,1.504328 -0.43065,5.36054 -1.90221,11.894666 -4.3066,19.122324 -0.65073,1.956124 -1.11156,3.195298 -1.71416,4.609424 -3.02104,7.089504 -7.55164,13.778643 -14.6285,21.598013 -2.01216,2.223281 -4.69511,5.036641 -8.6836,9.105715 -1.43201,1.460934 -2.99722,3.063159 -3.47827,3.560501 -1.79681,1.857683 -7.45515,7.313824 -10.20822,9.843434 -11.63187,10.68775 -22.21155,18.60855 -32.86089,24.60233 -6.85378,3.85753 -14.52244,7.19363 -21.11845,9.18717 -4.45111,1.34528 -9.25367,2.25359 -12.9893,2.45668 -0.35004,0.019 -0.8187,0.0597 -1.04146,0.0905 -0.51065,0.0704 -2.4324,0.0958 -3.90546,0.0515 z m 4.16583,-0.45842 c 7.45138,-0.45145 14.61535,-2.32375 23.57745,-6.16196 14.87195,-6.36924 29.58771,-16.58426 45.79465,-31.78862 5.24015,-4.91599 15.07813,-14.856098 19.76039,-19.965525 8.82006,-9.624714 13.78859,-17.406807 16.78193,-26.285142 2.72522,-8.083103 4.17804,-14.712191 4.59913,-20.985474 0.083,-1.2368 0.0832,-4.241883 5.8e-4,-5.351936 -0.29855,-3.998976 -1.11992,-7.170918 -2.61776,-10.109188 -1.24256,-2.437484 -2.90718,-4.386097 -5.23533,-6.128499 -1.71697,-1.284819 -4.11966,-2.494138 -6.411,-3.226666 -4.60529,-1.472285 -10.24041,-1.7373818 -14.29585,-0.6725293 -3.14271,0.8251943 -6.22833,2.5140843 -9.74092,5.3316203 -2.29035,1.837146 -3.43451,2.913859 -8.59755,8.090769 -2.38668,2.393083 -4.96429,4.934194 -5.72802,5.646915 -3.61593,3.374392 -6.20889,6.235508 -11.16636,12.321109 -4.33661,5.323472 -5.70556,6.976895 -7.11376,8.592027 -6.16329,7.068977 -10.55289,10.742071 -21.29655,17.820369 -8.34702,5.499308 -10.44964,6.954907 -13.6534,9.451988 -2.57877,2.00995 -4.04546,3.32033 -8.0713,7.211129 -5.10514,4.933901 -8.61111,8.493986 -10.85556,11.023115 -5.05993,5.701728 -8.52718,10.980008 -10.81249,16.460138 -1.0516,2.52173 -1.65843,4.99762 -2.02077,8.24488 -0.33264,2.98098 -0.38595,6.2476 -0.12277,7.52164 0.15871,0.76831 0.49782,1.72165 0.90145,2.53425 0.70352,1.41634 1.4066,2.3603 2.74511,3.68557 0.4821,0.47733 1.01323,1.05605 1.18028,1.28604 0.37238,0.51266 0.5122,0.61512 1.12013,0.82086 0.27331,0.0925 0.68869,0.29893 0.96986,0.48202 2.14371,1.3959 5.20125,2.69228 7.72415,3.27497 1.52585,0.35242 4.41949,0.72251 6.7984,0.8695 1.13263,0.07 4.67318,0.074 5.78588,0.007 z"
               style="fill:#081006;stroke-width:0.05785877" />
            <ellipse
               inkscape:transform-center-y="15.420343"
               inkscape:transform-center-x="-4.0045049"
               transform="matrix(-0.03339857,0.68736405,-0.50535996,0.59173604,-72.188907,-18.949516)"
               ry="14.116279"
               rx="9.4009066"
               cy="261.53516"
               cx="-146.6626"
               id="path906"
               style="fill:#fff6d5;fill-opacity:1;stroke-width:0.16519794;filter:url(#filter948)" />
          </g>
          <path
             style="fill:#c29861;fill-opacity:1;stroke-width:2.85714293"
             d=""
             id="path1085"
             inkscape:connector-curvature="0"
             transform="matrix(0.4352122,0,0,0.3589808,53.494543,-75.853917)" />
          <text
             xml:space="preserve"
             style="font-style:normal;font-weight:normal;font-size:15.81051922px;line-height:1.25;font-family:sans-serif;letter-spacing:0px;word-spacing:0px;fill:#000000;fill-opacity:1;stroke:none;stroke-width:0.39526299"
             x="211.48871"
             y="-614.06317"
             id="text1499"
             transform="scale(1.10107,0.90820749)"><tspan
               sodipodi:role="line"
               id="tspan1497"
               x="211.48871"
               y="-599.63873"
               style="stroke-width:0.39526299" /></text>
        </g>
      </g>
    </g>
  </g>
</svg>
