<svg xmlns="http://www.w3.org/2000/svg" xmlns:xlink="http://www.w3.org/1999/xlink" id="Layer_1" x="0" y="0" version="1.1" viewBox="0 0 64 64" xml:space="preserve" style="enable-background:new 0 0 64 64"><style type="text/css">.st2{fill:#d5df7f}.st3{fill:#80ac66}.st4{fill:#f9fbef}.st5{fill:#2f3f1a}.st6{fill:#e7ecb9}.st7{fill:#f0f3d4}.st8{fill:#dee59f}.st9{fill:#acc476}.st10{fill:#96b870}.st11{fill:#c0d17e}.st68{fill:#ceb699}</style><path d="M26.8,57.6c0.4,0.2,2.6,1,5.5,1c1.8,0,3.5-0.3,5-1c2.9-1.7,4.8-5,4.8-8.3c0-2.4-1.2-4.6-3.8-7.7l0,0l0,0	c-3.5-4.2-3.8-8.6-3.8-9.2l0-0.1c-0.2-1.5-0.3-3.6-0.3-6.3c0-0.3,0-0.6,0.1-0.8l4.3-17.5l-1.7-0.4c-1.5-0.4-2.5-1.7-2.5-3.2	c0-0.9,0-1.5,0.1-1.9h-4.6l0,0.6c0,1.5-0.9,2.8-2.4,3.2l-1.6,0.4l4.2,15.7c0.1,0.3,0.1,0.6,0.1,0.9c0,4.2-0.1,7.4-0.4,9.3l0,0.1	c0,0.6-0.3,5-3.8,9.2l0,0l0,0c-2.7,3-3.9,5.3-3.9,7.7C22,52.7,23.8,55.9,26.8,57.6z" class="st2"/><path d="M30,23.1c0,4.2-0.1,7.4-0.4,9.3l0,0.1c0,0.6-0.3,5-3.8,9.2l0,0l0,0c-0.2,0.3-0.5,0.5-0.7,0.8h13.7	c-0.2-0.3-0.4-0.5-0.7-0.8l0,0l0,0c-3.5-4.2-3.8-8.6-3.8-9.2l0-0.1c-0.2-1.5-0.3-3.6-0.3-6.3c0-0.3,0-0.6,0.1-0.8l4.3-17.5l-1.7-0.4	c-1.5-0.4-2.5-1.7-2.5-3.2c0-0.9,0-1.5,0.1-1.9h-4.6l0,0.6c0,1.5-0.9,2.8-2.4,3.2l-1.6,0.4l4.2,15.7C30,22.5,30,22.8,30,23.1z" class="st3"/><path d="M21.9,49.5c0,3.3,1.9,6.5,4.8,8.2c0.4,0.2,2.6,1,5.5,1c1.8,0,3.5-0.3,5-1c2.9-1.7,4.8-4.9,4.8-8.2H21.9z" class="st4"/><g><g><rect width="21" height="1" x="21.5" y="49.5" class="st6"/></g><g><rect width="21" height="1" x="21.5" y="50.5" class="st7"/></g><g><rect width="21" height="1" x="21.5" y="48.5" class="st8"/></g><g><rect width="15" height="1" x="24.5" y="41.5" class="st9"/></g><g><rect width="15" height="1" x="24.5" y="40.5" class="st10"/></g><g><rect width="15" height="1" x="24.5" y="42.5" class="st11"/></g></g><g><g><path d="M32,63.9c-0.3,0-0.5-0.2-0.5-0.5v-4.2c0-0.3,0.2-0.5,0.5-0.5s0.5,0.2,0.5,0.5v4.2 C32.5,63.7,32.3,63.9,32,63.9z" class="st68"/></g><g><path d="M28,63.4C28,63.4,28,63.4,28,63.4c-0.3,0-0.5-0.3-0.5-0.6l0.5-4c0-0.3,0.3-0.5,0.6-0.4 c0.3,0,0.5,0.3,0.4,0.6l-0.5,4C28.5,63.2,28.3,63.4,28,63.4z" class="st68"/></g><g><path d="M36,63.4c-0.2,0-0.5-0.2-0.5-0.4l-0.5-4c0-0.3,0.2-0.5,0.4-0.6c0.3,0,0.5,0.2,0.6,0.4l0.5,4 C36.5,63.1,36.3,63.3,36,63.4C36,63.4,36,63.4,36,63.4z" class="st68"/></g><g><path d="M34.2,63.7c-0.3,0-0.5-0.2-0.5-0.5l-0.3-4.2c0-0.3,0.2-0.5,0.5-0.5c0.2,0,0.5,0.2,0.5,0.5l0.3,4.2 C34.7,63.5,34.5,63.7,34.2,63.7C34.2,63.7,34.2,63.7,34.2,63.7z" class="st68"/></g><g><path d="M30,63.7C30,63.7,30,63.7,30,63.7c-0.3,0-0.5-0.3-0.5-0.5l0.2-4.2c0-0.3,0.3-0.5,0.5-0.5 c0.3,0,0.5,0.3,0.5,0.5l-0.2,4.2C30.5,63.5,30.3,63.7,30,63.7z" class="st68"/></g><g><path d="M26.1,62.7C26,62.7,26,62.7,26.1,62.7c-0.4-0.1-0.5-0.3-0.5-0.6l0.6-3.4c0.1-0.3,0.3-0.5,0.6-0.4 c0.3,0.1,0.5,0.3,0.4,0.6l-0.6,3.4C26.5,62.5,26.3,62.7,26.1,62.7z" class="st68"/></g><g><path d="M38,62.6c-0.2,0-0.4-0.2-0.5-0.4l-0.6-3.4c-0.1-0.3,0.1-0.5,0.4-0.6c0.3-0.1,0.5,0.1,0.6,0.4l0.6,3.4 C38.5,62.3,38.4,62.6,38,62.6C38.1,62.6,38,62.6,38,62.6z" class="st68"/></g></g><g><path d="M36,25.8l4.5-18.2c0.2-0.7-0.2-1.3-0.9-1.5l-2.4-0.6c-0.6-0.1-1-0.7-0.9-1.2c0-1.5,0.1-2.5,0.1-2.5l0-0.3 c0-0.7-0.5-1.3-1.2-1.3h-6.2c-0.7,0-1.3,0.6-1.2,1.3l0,0.3c0,0,0,0.4,0,1.1c0,0.6-0.4,1.1-0.9,1.2l-2.4,0.6c-0.7,0.2-1,0.9-0.9,1.5 L28,22.8c0.4,5.2-0.3,9.6-0.3,9.6c0,0-0.1,4.1-3.4,8c-3.1,3.4-4.4,6.1-4.4,9c0,4,2.3,7.9,5.8,10c0,0,6.3,3.5,12.4,0 c3.6-2.1,5.8-6,5.8-10c0-2.9-1.3-5.6-4.4-9c-3.2-3.8-3.5-8-3.5-8.1C36.2,32.3,35.8,29,36,25.8z M32,3.3c0.7,0,1.2,0.6,1.2,1.3 c0,0.6,0,1.2-0.1,1.9l0,0.3l-0.7,3.7c0,0.2-0.4,0.2-0.4,0L30.8,6l0-1c0-0.2,0-0.3,0-0.5C30.8,3.8,31.3,3.3,32,3.3L32,3.3z M28.1,6.9l0.6-0.2C29.4,6.6,30,7,30.2,7.7l1.6,6l0,0l-1.2,5.8c0,0.2-0.4,0.2-0.4,0l-2.9-11C27.1,7.8,27.5,7.1,28.1,6.9z M31.1,22.4l2.7-13.3c0.1-0.7,0.8-1.1,1.5-1L36,8.3c0.7,0.2,1.1,0.8,0.9,1.5L33,25.6l0.3,6.9c0,0.7,0.4,5.4,4.1,9.8l0,0 c2.5,2.8,3.6,4.9,3.6,7c0,3.2-2,6-4.1,7.3c-4.4,2.7-9.8,0-9.8,0C25,55.3,23,52.6,23,49.4c0-2.1,1.1-4.2,3.6-7 c3.7-4.4,4.1-9.1,4.1-9.8L31.1,22.4z" class="st5"/></g></svg>