<svg xmlns="http://www.w3.org/2000/svg" xmlns:xlink="http://www.w3.org/1999/xlink" id="Layer_1" x="0" y="0" version="1.1" viewBox="0 0 250 250" xml:space="preserve" style="enable-background:new 0 0 250 250"><style type="text/css">.st15{fill:#fff}.st62{fill:#0a4d2c}.st63{fill:#fddc6c}.st81{fill:#cda973}.st82{fill:#a5794a}</style><g><path d="M192,40.5L205,32c3.7-2.4,8.2-2.2,10.8,0.5l1.6,1.6c2.7,2.7,2.9,7.2,0.5,10.8L209.5,58L192,40.5z" class="st81"/><path d="M189.1,36.1l13.1-8.5c5.8-3.8,13-3.3,17.5,1.2l1.6,1.6c4.5,4.5,5,11.7,1.2,17.5l-8.5,13.1l-8.9-5.8l8.5-13.1 c1-1.5,1.1-3.3,0.2-4.2l-1.6-1.6c-0.4-0.4-1-0.6-1.7-0.6c-0.8,0-1.7,0.3-2.5,0.8L194.9,45L189.1,36.1z" class="st82"/><path d="M45.5,204.5C19.6,178.6,25.7,142.6,72.7,99c46.6-43.1,98.7-89.3,133.1-54.9s-11.3,86.2-54.9,133.1 C107.4,224.3,71.4,230.4,45.5,204.5z" class="st63"/><path d="M209.6,40.4C170.4,1.3,111.9,55.5,69.1,95.1c-28.8,26.7-43.7,51.6-44.1,74.2c-0.3,14.5,5.4,27.6,16.7,39 C52.9,219.4,65.6,225,79.7,225c0.3,0,0.7,0,1,0c22.5-0.4,47.5-15.3,74.2-44.1C194.5,138.2,248.8,79.6,209.6,40.4z M157,142.5 c-6.7,6.7-13.6,13.7-20.2,20.7c-28.5,30-51.7,45.3-69,45.5c-3.9,0.1-7.4-0.6-10.6-2.1c12.3-2.2,31.3-19.8,67-56.2 c9.5-9.7,19.2-19.1,28.6-28.3c28.4-27.6,53-51.6,55.2-66.8c0.4,0.6,0.7,1.2,1,1.8C218.7,80.3,189.8,109.4,157,142.5z M54.6,203.4 c-2.2,0-4-0.8-5.6-2.4c-1.4-1.4-2.1-3.2-2.1-5.2c0.1-11.3,20.3-33.2,55.1-67.3c10-9.7,19.7-19.8,29.1-29.5 c26.6-27.5,51.7-53.4,65.3-53.5c2.3-0.1,4.3,0.7,5.9,2.4c1.5,1.5,2.3,3.4,2.2,5.6c-0.1,13.5-26.4,39.2-54.3,66.3 c-9.4,9.2-19.2,18.6-28.7,28.3C84.9,185.5,65.5,203.3,54.6,203.4C54.7,203.4,54.7,203.4,54.6,203.4z M194.2,42 c-15.2,2.3-38.7,26.5-65.6,54.4c-9.4,9.7-19.1,19.8-29,29.5c-34.2,33.4-53.6,54.6-56,67.4c-1.6-3.4-2.4-7.1-2.3-11.1 c0.2-17.3,15.5-40.5,45.6-69c5.7-5.4,11.3-10.9,16.9-16.3C133.5,67.9,162.1,40,184.5,40C187.9,40,191.1,40.7,194.2,42z M76.3,102.9 c38.1-35.3,72.6-64.7,99.9-65.5c-22.1,5.4-48,30.7-75,57c-5.6,5.4-11.2,10.9-16.8,16.3c-30.7,29.2-46.4,53.2-46.7,71.5 c0,0.2,0,0.5,0,0.7c-1.5-4.3-2.2-8.8-2.1-13.4C36,150,49.7,127.6,76.3,102.9z M147.1,173.7c-24.7,26.6-47.1,40.3-66.6,40.7 c-4.6,0.1-9-0.6-13.3-2.1c0.1,0,0.2,0,0.2,0c0.1,0,0.3,0,0.4,0c18.2-0.2,42.3-15.9,71.5-46.7c6.7-7,13.5-13.9,20.2-20.6 c23.5-23.7,45.1-45.5,52.4-65C207.3,106.3,179.7,138.5,147.1,173.7z" class="st62"/><path d="M179.4,80.7c-1.9,2.4-3.7,4.5-5.6,6.3c-0.5,0.5-1.1,1-1.6,1.5" class="st63"/><path d="M172.2,90.3c-0.5,0-1-0.2-1.3-0.6c-0.7-0.7-0.6-1.8,0.1-2.5c0.5-0.5,1-0.9,1.5-1.4c1.8-1.8,3.6-3.8,5.4-6.1 c0.6-0.8,1.7-0.9,2.5-0.3c0.8,0.6,0.9,1.7,0.3,2.5c-1.9,2.4-3.8,4.6-5.7,6.5c-0.6,0.5-1.1,1.1-1.6,1.6 C173.1,90.1,172.7,90.3,172.2,90.3z" class="st62"/><path d="M144.4,169c-5,5.2-9.9,10-14.5,14.3" class="st63"/><path d="M129.9,185c-0.5,0-1-0.2-1.3-0.6c-0.7-0.7-0.6-1.8,0.1-2.5c4.6-4.3,9.5-9,14.5-14.2c0.7-0.7,1.8-0.7,2.5,0 c0.7,0.7,0.7,1.8,0,2.5c-5,5.2-9.9,10-14.6,14.3C130.7,184.9,130.3,185,129.9,185z" class="st62"/><path d="M188.4,97.5c-0.9,1-1.8,1.9-2.7,2.9" class="st63"/><path d="M185.8,102.2c-0.4,0-0.9-0.2-1.2-0.5c-0.7-0.7-0.8-1.8-0.1-2.5l2.7-2.9c0.7-0.7,1.8-0.8,2.5-0.1 c0.7,0.7,0.8,1.8,0.1,2.5l-2.7,2.9C186.7,102,186.3,102.2,185.8,102.2z" class="st62"/><path d="M208.4,99.3c-0.6,0.8-1.2,1.6-1.8,2.4" class="st63"/><path d="M206.6,103.4c-0.4,0-0.7-0.1-1.1-0.4c-0.8-0.6-0.9-1.7-0.4-2.5c0.6-0.8,1.2-1.6,1.8-2.4 c0.6-0.8,1.7-1,2.5-0.4c0.8,0.6,1,1.7,0.4,2.5c-0.6,0.8-1.2,1.6-1.8,2.4C207.7,103.2,207.2,103.4,206.6,103.4z" class="st62"/><path d="M106.8,82.1c2.4-2.7,4.9-5,7.3-6.8" class="st63"/><path d="M106.8,83.9c-0.4,0-0.9-0.2-1.2-0.5c-0.7-0.7-0.8-1.8-0.1-2.5c2.5-2.8,5.1-5.2,7.5-7c0.8-0.6,1.9-0.5,2.5,0.3 c0.6,0.8,0.4,1.9-0.3,2.5c-2.3,1.7-4.6,4-7,6.6C107.7,83.7,107.3,83.9,106.8,83.9z" class="st15"/><path d="M188.3,56.2c1.3-0.8,2.5-1.6,3.7-2.4" class="st63"/><path d="M188.3,58c-0.6,0-1.1-0.3-1.5-0.8c-0.5-0.8-0.3-1.9,0.5-2.5c1.3-0.8,2.5-1.6,3.8-2.4c0.8-0.5,1.9-0.3,2.4,0.6 c0.5,0.8,0.3,1.9-0.6,2.4c-1.2,0.7-2.4,1.5-3.7,2.3C188.9,57.9,188.6,58,188.3,58z" class="st62"/><path d="M142.6,70c0.7-0.6,1.4-1.1,2-1.7" class="st63"/><path d="M142.6,71.8c-0.5,0-1-0.2-1.4-0.6c-0.6-0.7-0.5-1.9,0.2-2.5l2-1.7c0.7-0.6,1.9-0.5,2.5,0.2 c0.6,0.8,0.5,1.9-0.2,2.5l-2,1.7C143.4,71.6,143,71.8,142.6,71.8z" class="st15"/><path d="M129.4,110.9c6.1-6.2,12.1-12.2,18.1-17.8" class="st63"/><path d="M129.4,112.6c-0.4,0-0.9-0.2-1.2-0.5c-0.7-0.7-0.7-1.8,0-2.5c6.7-6.8,12.6-12.7,18.1-17.8 c0.7-0.7,1.8-0.6,2.5,0.1c0.7,0.7,0.6,1.8-0.1,2.5c-5.5,5.2-11.4,11-18.1,17.7C130.4,112.4,129.9,112.6,129.4,112.6z" class="st62"/><path d="M104.2,107.3c4.5-4.3,9.1-8.7,13.6-13" class="st63"/><path d="M104.2,109.1c-0.5,0-0.9-0.2-1.3-0.5c-0.7-0.7-0.7-1.8,0.1-2.5c4.5-4.3,9.1-8.7,13.6-13 c0.7-0.7,1.8-0.6,2.5,0.1c0.7,0.7,0.6,1.8-0.1,2.5c-4.6,4.3-9.1,8.7-13.6,13C105,108.9,104.6,109.1,104.2,109.1z" class="st15"/><path d="M98.1,143.7c1.3-1.3,2.6-2.6,3.9-4" class="st63"/><path d="M98.1,145.5c-0.4,0-0.9-0.2-1.2-0.5c-0.7-0.7-0.7-1.8,0-2.5c1.3-1.3,2.6-2.7,3.9-4c0.7-0.7,1.8-0.7,2.5,0 c0.7,0.7,0.7,1.8,0,2.5c-1.3,1.3-2.6,2.7-3.9,4C99,145.3,98.6,145.5,98.1,145.5z" class="st62"/><path d="M70.4,141.3c1.6-1.8,3.3-3.7,5.1-5.6" class="st63"/><path d="M70.4,143.1c-0.4,0-0.8-0.1-1.2-0.4c-0.7-0.6-0.8-1.8-0.2-2.5c1.6-1.9,3.3-3.8,5.1-5.7 c0.7-0.7,1.8-0.8,2.5-0.1c0.7,0.7,0.8,1.8,0.1,2.5c-1.8,1.9-3.4,3.8-5,5.6C71.4,142.8,70.9,143.1,70.4,143.1z" class="st62"/><path d="M56.9,185.4c2.6-3,5.5-6.1,8.9-9.3" class="st63"/><path d="M56.9,187.2c-0.4,0-0.8-0.1-1.2-0.4c-0.7-0.6-0.8-1.8-0.2-2.5c2.6-3,5.7-6.2,9-9.4c0.7-0.7,1.8-0.6,2.5,0.1 c0.7,0.7,0.6,1.8-0.1,2.5c-3.3,3.1-6.2,6.2-8.8,9.1C57.9,187,57.4,187.2,56.9,187.2z" class="st62"/><line x1="98" x2="95.2" y1="187.6" y2="189.7" class="st63"/><path d="M95.2,191.5c-0.5,0-1.1-0.2-1.4-0.7c-0.6-0.8-0.4-1.9,0.3-2.5l2.8-2.1c0.8-0.6,1.9-0.4,2.5,0.3 c0.6,0.8,0.4,1.9-0.3,2.5l-2.8,2.1C96,191.4,95.6,191.5,95.2,191.5z" class="st62"/><line x1="158.7" x2="162.6" y1="126.8" y2="122.8" class="st63"/><path d="M158.7,128.5c-0.5,0-0.9-0.2-1.3-0.5c-0.7-0.7-0.7-1.8,0-2.5l3.9-3.9c0.7-0.7,1.8-0.7,2.5,0 c0.7,0.7,0.7,1.8,0,2.5l-3.9,3.9C159.6,128.3,159.1,128.5,158.7,128.5z" class="st62"/><line x1="124.2" x2="141.9" y1="161.6" y2="143.9" class="st63"/><path d="M124.2,163.3c-0.5,0-0.9-0.2-1.3-0.5c-0.7-0.7-0.7-1.8,0-2.5l17.7-17.7c0.7-0.7,1.8-0.7,2.5,0 c0.7,0.7,0.7,1.8,0,2.5l-17.7,17.7C125.1,163.2,124.6,163.3,124.2,163.3z" class="st62"/></g></svg>