<svg xmlns="http://www.w3.org/2000/svg" xmlns:xlink="http://www.w3.org/1999/xlink" id="Layer_1" x="0" y="0" version="1.1" viewBox="0 0 64 64" xml:space="preserve" style="enable-background:new 0 0 64 64"><style type="text/css">.st0{display:none}.st1{fill:#d1a982}.st1,.st2{display:inline}.st66{fill:#e7c456}.st71{fill:#4f250e}.st72{fill:#995116}</style><g class="st0"><rect width="919.6" height="2155.1" x="-232.3" y="-1817.7" class="st1"/><path d="M686.8-1817.2V337h-918.6v-2154.1H686.8 M687.8-1818.2h-920.6V338h920.6V-1818.2L687.8-1818.2z" class="st2"/></g><g><path d="M38.3,11.7c-6.3,1.1-14.4,1-22,1.7C8.3,14.2,2.1,21.7,2,31.3c-0.1,7.6,3.7,14.1,9.2,16.5 c4.6,2.6,12,4.4,20.3,4.5c7.5,0.1,14.3-1.2,19-3.2c6.6-2.6,11.5-9.7,11.6-18.1C62,30.9,63.6,7.3,38.3,11.7z" class="st66"/><path d="M26,44.9c-0.1-0.1-0.3-0.2-0.5-0.2c0,0,0,0,0,0c-0.4,0-0.8,0.3-0.8,0.8v0c0,0.4,0.3,0.8,0.8,0.8c0,0,0,0,0,0 c0.4,0,0.8-0.3,0.8-0.8C26.2,45.3,26.1,45.1,26,44.9z" class="st71"/><path d="M16.9,42c-0.1-0.1-0.3-0.2-0.5-0.2c-0.2,0-0.4,0.1-0.5,0.2c-0.1,0.1-0.2,0.3-0.2,0.5c0,0.4,0.3,0.8,0.8,0.8 c0,0,0,0,0,0c0.2,0,0.4-0.1,0.5-0.2c0.1-0.1,0.2-0.3,0.2-0.5C17.1,42.4,17,42.2,16.9,42z" class="st71"/><g><path d="M38.4,30.6C38.4,30.6,38.4,30.6,38.4,30.6c-0.4,0-0.8,0.3-0.8,0.8v0c0,0.4,0.3,0.8,0.8,0.8c0,0,0,0,0,0 c0.4,0,0.8-0.3,0.8-0.8c0-0.2-0.1-0.4-0.2-0.5C38.8,30.7,38.6,30.6,38.4,30.6z" class="st71"/><path d="M46.9,21.3c-0.4,0-0.8,0.3-0.8,0.8v0c0,0.4,0.3,0.8,0.8,0.8c0,0,0,0,0,0c0.4,0,0.8-0.3,0.8-0.8 C47.7,21.7,47.3,21.3,46.9,21.3z" class="st71"/><path d="M38.3,36.9c-0.2,0-0.4,0.1-0.5,0.2c-0.1,0.1-0.2,0.3-0.2,0.5c0,0.4,0.3,0.8,0.8,0.8c0,0,0,0,0,0 c0.4,0,0.8-0.3,0.8-0.8C39.1,37.2,38.8,36.9,38.3,36.9z" class="st71"/><path d="M32.1,33.7c-0.2,0-0.4,0.1-0.5,0.2c-0.1,0.1-0.2,0.3-0.2,0.5v0c0,0.4,0.3,0.8,0.8,0.8c0,0,0,0,0,0 c0.4,0,0.8-0.3,0.8-0.8c0-0.2-0.1-0.4-0.2-0.5C32.5,33.7,32.3,33.7,32.1,33.7z" class="st71"/><path d="M28,21.9c-0.4,0-0.7,0.4-0.7,0.8c0,0.4,0.4,0.7,0.8,0.7c0,0,0,0,0.1,0c0.4,0,0.7-0.4,0.7-0.8 C28.8,22.2,28.4,21.9,28,21.9z" class="st71"/><path d="M22.8,21.1c-0.4,0-0.7,0.4-0.7,0.8c0,0.2,0.1,0.4,0.3,0.5c0.1,0.1,0.3,0.2,0.5,0.2c0,0,0,0,0.1,0 c0.4,0,0.7-0.4,0.7-0.8C23.6,21.4,23.2,21.1,22.8,21.1z" class="st71"/><path d="M19.6,31.4C19.6,31.4,19.6,31.4,19.6,31.4c-0.2,0-0.4,0.1-0.5,0.2c-0.1,0.1-0.2,0.3-0.2,0.5 c0,0.4,0.3,0.8,0.8,0.8c0,0,0,0,0,0c0.2,0,0.4-0.1,0.5-0.2c0.1-0.1,0.2-0.3,0.2-0.5c0-0.2-0.1-0.4-0.2-0.5 C20,31.5,19.8,31.4,19.6,31.4z" class="st71"/><path d="M11.2,33.4C11.2,33.4,11.2,33.4,11.2,33.4c-0.4,0-0.8,0.3-0.8,0.8c0,0.2,0.1,0.4,0.2,0.5s0.3,0.2,0.5,0.2 c0,0,0,0,0,0c0.4,0,0.8-0.3,0.8-0.8C12,33.7,11.6,33.4,11.2,33.4z" class="st71"/><path d="M54.7,29c-0.1-0.1-0.3-0.2-0.5-0.2c-0.4,0-0.8,0.3-0.8,0.8v0c0,0.4,0.3,0.8,0.8,0.8c0,0,0,0,0,0 c0.4,0,0.8-0.3,0.8-0.8C54.9,29.3,54.8,29.1,54.7,29z" class="st71"/><path d="M52,33.9c-0.2,0-0.4,0.1-0.5,0.2c-0.1,0.1-0.2,0.3-0.2,0.5c0,0.2,0.1,0.4,0.2,0.5c0.1,0.1,0.3,0.2,0.5,0.2 c0,0,0,0,0,0c0.4,0,0.8-0.3,0.8-0.8C52.7,34.3,52.4,33.9,52,33.9z" class="st71"/></g><path d="M57.3,14.2c-4.5-4-10.9-5.3-19.3-3.9h0c-3.6,0.6-7.8,0.8-12.3,1.1c-3.1,0.2-6.4,0.3-9.5,0.6 C7.2,12.9,0.6,21,0.5,31.2c-0.1,7.9,3.9,15.1,10,17.9c5,2.9,12.6,4.6,20.9,4.7c0.3,0,0.6,0,0.9,0c7.1,0,13.9-1.2,18.7-3.3 c7.4-2.9,12.4-10.7,12.5-19.4C63.5,30.6,64.1,20.4,57.3,14.2z M60.5,30.9c-0.1,7.6-4.4,14.3-10.7,16.8c-4.6,2.1-11.3,3.2-18.3,3.1 c-7.7-0.1-15.1-1.7-19.6-4.3l-0.1-0.1c-5.1-2.3-8.4-8.4-8.3-15.2c0-3.3,0.9-6.4,2.3-8.9C6,22,6.3,21.6,6.5,21.3 c2.8-3.5,6.8-5.6,11.2-6.1c5.2-0.6,10.3,1.3,13.9,5.2c0.2,0.2,0.5,0.2,0.7,0c0.2-0.2,0.2-0.5,0-0.7c-2.6-2.7-5.8-4.5-9.3-5.2 c0.9-0.1,1.9-0.1,2.8-0.2c4.6-0.2,8.9-0.5,12.7-1.1h0c7.4-1.3,13-0.2,16.8,3.2C61.1,21.6,60.5,30.7,60.5,30.9z" class="st72"/></g></svg>