<svg xmlns="http://www.w3.org/2000/svg" xmlns:xlink="http://www.w3.org/1999/xlink" id="Layer_1" x="0" y="0" version="1.1" viewBox="0 0 64 64" xml:space="preserve" style="enable-background:new 0 0 64 64"><style type="text/css">.st58{fill:#b94850}.st59{fill:#ce8645}.st60{fill:#6c0a04}</style><path d="M39.9,49.1c-6.1-0.4-13.8,0.5-21.1,0.6c-7.7,0-14.3-6.4-15.4-15.5c-0.9-7.2,2.1-13.8,7.1-16.6	c4.1-3,10.9-5.4,18.9-6.3c7.1-0.9,13.7-0.3,18.4,1.2c6.6,1.8,11.9,8.1,12.8,16.1C60.5,28.4,64.5,50.7,39.9,49.1z" class="st58"/><path d="M37.3,23.6c-0.2,0-0.4,0.1-0.5,0.3c-0.1,0.2-0.2,0.4-0.2,0.6c0,0.4,0.4,0.7,0.7,0.7c0,0,0.1,0,0.1,0	c0.4,0,0.7-0.4,0.7-0.8C38.1,23.9,37.7,23.6,37.3,23.6z" class="st59"/><path d="M38,29.6c-0.2,0-0.4,0.1-0.5,0.3c-0.1,0.2-0.2,0.4-0.2,0.6c0,0.2,0.1,0.4,0.3,0.5c0.1,0.1,0.3,0.2,0.5,0.2	c0,0,0.1,0,0.1,0c0.2,0,0.4-0.1,0.5-0.3c0.1-0.2,0.2-0.4,0.2-0.6C38.8,29.8,38.4,29.5,38,29.6z" class="st59"/><path d="M47,37.6c-0.4,0-0.7,0.4-0.7,0.8c0,0.2,0.1,0.4,0.3,0.5c0.1,0.1,0.3,0.2,0.5,0.2c0,0,0.1,0,0.1,0	c0.4,0,0.7-0.4,0.7-0.8C47.8,37.8,47.4,37.5,47,37.6z" class="st60"/><path d="M32.2,27.5c-0.2-0.1-0.4-0.2-0.6-0.2c-0.2,0-0.4,0.1-0.5,0.3C31,27.8,31,27.9,31,28.1c0,0.2,0.1,0.4,0.3,0.5	c0.1,0.1,0.3,0.2,0.5,0.2c0,0,0.1,0,0.1,0c0.2,0,0.4-0.1,0.5-0.3c0.1-0.2,0.2-0.4,0.2-0.6C32.5,27.8,32.4,27.6,32.2,27.5z" class="st60"/><path d="M29.6,39.1c-0.1-0.1-0.3-0.2-0.5-0.2c-0.2,0-0.4,0.1-0.5,0.2s-0.2,0.3-0.2,0.5c0,0.2,0.1,0.4,0.2,0.5	c0.1,0.1,0.3,0.2,0.5,0.2c0,0,0,0,0,0c0.2,0,0.4-0.1,0.5-0.2s0.2-0.3,0.2-0.5C29.8,39.4,29.8,39.2,29.6,39.1z" class="st59"/><path d="M24.2,40.1C24.2,40.1,24.2,40.1,24.2,40.1c-0.4,0-0.8,0.3-0.8,0.8c0,0.2,0.1,0.4,0.2,0.5	c0.1,0.1,0.3,0.2,0.5,0.2c0,0,0,0,0,0c0.2,0,0.4-0.1,0.5-0.2s0.2-0.3,0.2-0.5C25,40.5,24.6,40.1,24.2,40.1z" class="st60"/><path d="M15.8,21.1c-0.2,0-0.4,0.1-0.5,0.3c-0.1,0.2-0.2,0.4-0.2,0.6c0,0.4,0.4,0.7,0.7,0.7c0,0,0.1,0,0.1,0	c0.4,0,0.7-0.4,0.7-0.8C16.6,21.4,16.2,21.1,15.8,21.1z" class="st60"/><path d="M20.5,30.9c-0.2-0.1-0.4-0.2-0.6-0.2c-0.2,0-0.4,0.1-0.5,0.3s-0.2,0.4-0.2,0.6c0,0.4,0.4,0.7,0.7,0.7	c0,0,0.1,0,0.1,0c0.4,0,0.7-0.4,0.7-0.8C20.8,31.2,20.7,31,20.5,30.9z" class="st59"/><path d="M12.4,29.8c-0.2-0.1-0.4-0.2-0.6-0.2c-0.2,0-0.4,0.1-0.5,0.3c-0.1,0.2-0.2,0.4-0.2,0.6c0,0.2,0.1,0.4,0.3,0.5	c0.1,0.1,0.3,0.2,0.5,0.2c0,0,0.1,0,0.1,0c0.2,0,0.4-0.1,0.5-0.3c0.1-0.2,0.2-0.4,0.2-0.6C12.6,30.1,12.5,30,12.4,29.8z" class="st59"/><path d="M53.7,29.9c-0.2-0.1-0.4-0.2-0.6-0.2c-0.4,0-0.7,0.4-0.7,0.8c0,0.4,0.4,0.7,0.7,0.7c0,0,0.1,0,0.1,0	c0.4,0,0.7-0.4,0.7-0.8C53.9,30.2,53.8,30.1,53.7,29.9z" class="st59"/><path d="M50.5,25.1c-0.2,0-0.4,0.1-0.5,0.3c-0.1,0.2-0.2,0.4-0.2,0.6c0,0.2,0.1,0.4,0.3,0.5c0.1,0.1,0.3,0.2,0.5,0.2	c0,0,0.1,0,0.1,0c0.2,0,0.4-0.1,0.5-0.3c0.1-0.2,0.2-0.4,0.2-0.6C51.3,25.3,50.9,25,50.5,25.1z" class="st60"/><path d="M62,28.2c-1-8.4-6.6-15.3-13.9-17.3c-5-1.6-11.9-2.1-19-1.2c-7.9,0.9-15,3.3-19.5,6.6	C4.1,19.5,1,26.7,1.9,34.3c1.2,9.8,8.2,16.8,16.8,16.8c0,0,0,0,0.1,0c3,0,6.1-0.2,9.1-0.3c4.3-0.2,8.3-0.4,11.8-0.2h0	c8.1,0.5,14.1-1.4,18-5.7C63.7,38.3,62.1,28.5,62,28.2z M55.6,42.9c-3.2,3.6-8.4,5.1-15.6,4.7h0c-3.7-0.2-7.8,0-12.2,0.2	c-0.8,0-1.5,0.1-2.3,0.1c3.1-1.1,5.9-3,8-5.8c0.2-0.2,0.1-0.5-0.1-0.7c-0.2-0.2-0.5-0.1-0.7,0.1c-3,4-7.7,6.3-12.7,6.3	c-4.7,0-8.9-2-11.8-5.3c-1.7-2.3-2.9-5.3-3.3-8.6c-0.8-6.4,1.8-12.5,6.3-15.2l0.1-0.1c4-2.9,10.8-5.2,18.2-6.1	c2.2-0.3,4.4-0.4,6.6-0.4c4.2,0,8.1,0.5,11.2,1.5c6.2,1.7,10.9,7.7,11.8,14.9C59.1,28.7,60.5,37.3,55.6,42.9z" class="st60"/></svg>