<svg xmlns="http://www.w3.org/2000/svg" xmlns:xlink="http://www.w3.org/1999/xlink" x="0" y="0" version="1.1" viewBox="0 0 500 500" xml:space="preserve" style="enable-background:new 0 0 500 500"><style type="text/css">.st0{fill:#b47e22}.st1{fill:#442105}.st18{fill:#fff}.st168{fill:#a7bb41}.st169{fill:#677f08}.st170{fill:#c9dc85}</style><g id="Layer_1"><path d="M459.8,252.5c0,149.2-67.1,234-207.3,234S45.2,363.1,45.2,252.5S112.3,86,252.5,86S459.8,141.9,459.8,252.5z" class="st168"/><path d="M205.7,168.5c-0.1,0-0.3,0-0.4,0c-15.9-1.7-31.6-4.3-46.7-7.7c-2.1-0.5-3.4-2.5-2.9-4.6 c0.5-2.1,2.5-3.4,4.6-2.9c14.9,3.3,30.3,5.8,45.9,7.5c2.1,0.2,3.7,2.1,3.4,4.3C209.3,167,207.6,168.5,205.7,168.5z" class="st18"/><path d="M253.6,171c-9.6,0-19.3-0.3-28.8-0.9c-2.1-0.1-3.8-2-3.6-4.1c0.1-2.1,2-3.8,4.1-3.6 c9.3,0.6,18.8,0.9,28.3,0.9c2.1,0,3.9,1.7,3.9,3.9S255.8,171,253.6,171z" class="st18"/><circle cx="140.6" cy="152.5" r="4.2" class="st18"/><path d="M252.5,74.5c-145.2,0-218.9,59.9-218.9,178.1c0,60.9,19.5,121.3,53.5,165.6c40.2,52.4,97.4,80.1,165.4,80.1 c72.3,0,127.8-21.9,165-65.1c35.7-41.5,53.9-102.3,53.9-180.5C471.4,134.4,397.7,74.5,252.5,74.5z M298,466 c5.9-4.8,11.6-10.6,16.9-17.4c1.1-1.4,1.2-3.5,0-4.9c-1.7-1.9-4.5-1.8-6,0.1c-16.3,20.8-35.2,31.3-56.4,31.3 c-21.1,0-40.1-10.5-56.4-31.3c-1.3-1.7-3.7-2-5.4-0.7c-1.7,1.3-2,3.7-0.7,5.4c4.5,5.7,9.1,10.7,14,15c2.3,2,0.3,5.8-2.7,5 C106.3,443.1,56.8,347.3,56.8,252.5c0-52.4,15.3-90.2,46.8-115.7c32.1-26,82.2-39.2,148.9-39.2c66.7,0,116.8,13.2,148.9,39.2 c31.5,25.5,46.8,63.4,46.8,115.7c0,128.2-49.7,201.5-147.9,218.6C297.4,471.6,295.7,467.9,298,466z" class="st169"/><path d="M109.7,218.3c-5.1,0-5.2,8,0,8C114.8,226.3,114.8,218.3,109.7,218.3z" class="st170"/><path d="M119.7,168.3c-5.1,0-5.2,8,0,8C124.8,176.3,124.8,168.3,119.7,168.3z" class="st170"/><path d="M97.2,291.1c-5.1,0-5.2,8,0,8C102.3,299.1,102.3,291.1,97.2,291.1z" class="st170"/><path d="M132.9,368.6c-5.1,0-5.2,8,0,8C138.1,376.6,138.1,368.6,132.9,368.6z" class="st170"/><path d="M240.4,399.8c-5.1,0-5.2,8,0,8C245.5,407.8,245.5,399.8,240.4,399.8z" class="st170"/><path d="M220.8,337.4c-5.1,0-5.2,8,0,8C226,345.4,226,337.4,220.8,337.4z" class="st170"/><path d="M240.6,230.1c-5.1,0-5.2,8,0,8C245.8,238.1,245.8,230.1,240.6,230.1z" class="st170"/><path d="M210,306.3c-5.1,0-5.2,8,0,8C215.2,314.3,215.2,306.3,210,306.3z" class="st170"/><path d="M175.2,193.2c-5.1,0-5.2,8,0,8C180.4,201.2,180.4,193.2,175.2,193.2z" class="st170"/><path d="M156,228c-5.1,0-5.2,8,0,8C161.1,236,161.1,228,156,228z" class="st170"/><path d="M152.4,343c-5.1,0-5.2,8,0,8C157.6,351,157.6,343,152.4,343z" class="st170"/><path d="M371.6,396.2c5,1.1,6.7-6.7,1.7-7.8C368.3,387.3,366.6,395.1,371.6,396.2z" class="st170"/><path d="M409.4,327.8c5,1.1,6.7-6.7,1.7-7.8C406.1,318.9,404.4,326.7,409.4,327.8z" class="st170"/><path d="M391.1,244.4c5,1.1,6.7-6.7,1.7-7.8C387.8,235.5,386,243.3,391.1,244.4z" class="st170"/><path d="M368,176.2c5,1.1,6.7-6.7,1.7-7.8C364.6,167.3,362.9,175.1,368,176.2z" class="st170"/><path d="M312.8,191c5,1.1,6.7-6.7,1.7-7.8C309.5,182.1,307.7,189.9,312.8,191z" class="st170"/><path d="M323.8,147c5,1.1,6.7-6.7,1.7-7.8C320.5,138,318.8,145.8,323.8,147z" class="st170"/><path d="M298.5,256.1c5,1.1,6.7-6.7,1.7-7.8C295.2,247.2,293.5,255,298.5,256.1z" class="st170"/><path d="M326,318.1c5,1.1,6.7-6.7,1.7-7.8C322.7,309.1,321,317,326,318.1z" class="st170"/><path d="M344.9,347.5c5,1.1,6.7-6.7,1.7-7.8C341.5,338.6,339.8,346.4,344.9,347.5z" class="st170"/><path d="M301,399c5,1.1,6.7-6.7,1.7-7.8C297.7,390.1,296,397.9,301,399z" class="st170"/><path d="M350.3,292.5c5,1.1,6.7-6.7,1.7-7.8C347,283.6,345.3,291.4,350.3,292.5z" class="st170"/><path d="M269.5,74.7c2.7,0.1,5.3,0.2,8,0.3c-7.6-32.3-27.4-55.8-57.5-67.8c-2.8-1.1-5.7-1.7-8.6-1.7 c-5.4,0-10.9,1.9-15.3,5.7c-3.3,2.9-5.7,6.7-7,10.9l-7.5,23.5c-1.9,6-1.5,12.6,1.5,18.1c3.2,5.8,8.5,9.9,15,11.4 c0.5,0.1,2.4,0.7,5.1,1.9c4.9-0.6,10-1,15.1-1.4c6.1-0.4,12,2.4,15.3,7.6c5,7.9,8.3,18.4,7.7,32.1c2.5,0.1,5.1,0.2,7.7,0.3 c0.8-18.3-4.6-31.5-12-41c0,0,0,0,0,0c-0.1-0.2-0.3-0.3-0.4-0.5c-0.1-0.1-0.1-0.1-0.2-0.2c-0.4-0.6-0.9-1.1-1.4-1.6 c0,0-0.1-0.1-0.1-0.1c0,0,0,0,0,0c-8.7-10-19.4-15.3-25.8-17.8c-3-1.2-4.6-4.5-3.6-7.7l3.6-11.3c1.2-3.7,5.3-5.4,8.7-3.6 c19.7,10,29.9,25.9,35,41.5c0,0,0,0,0,0c5.6,17.1,5,34,4.1,42.4c2.6-0.1,5.2-0.2,7.8-0.3c0.7-7.4,1-19.6-1.6-33.1l0-0.1 C262.4,78.3,265.5,74.6,269.5,74.7z" class="st1"/><g><path d="M248.9,115.7c-0.7,0-1.4,0-2.2-0.1C247.5,115.7,248.2,115.7,248.9,115.7z" class="st0"/><path d="M257,115.7c1.6-16.3,2.3-63.9-40.6-84.6c-2.7-1.3-5.9,0.1-6.8,2.9l-4.5,14c-0.8,2.5,0.5,5.1,3,6.1 c11.8,4.4,42.8,19.9,40.9,61.7c1.2,0,2.3,0,3.5,0c2.8,0,5.6-0.1,8.4-0.2c0,0,0,0,0,0C259.6,115.6,258.3,115.7,257,115.7z" class="st0"/></g><path d="M252.5,119.6c-16.4,0-32.3-1.9-44.8-5.3c-2.1-0.6-3.3-2.7-2.7-4.8c0.6-2.1,2.7-3.3,4.8-2.7 c11.8,3.2,27,5,42.7,5c15.4,0,30.3-1.7,42.1-4.8c2.1-0.6,4.2,0.7,4.7,2.7c0.6,2.1-0.7,4.2-2.7,4.7 C284.2,117.8,268.6,119.6,252.5,119.6z" class="st169"/></g></svg>