<svg xmlns="http://www.w3.org/2000/svg" xmlns:xlink="http://www.w3.org/1999/xlink" id="Layer_1" x="0" y="0" version="1.1" viewBox="0 0 64 64" xml:space="preserve" style="enable-background:new 0 0 64 64"><style type="text/css">.st1{display:none}.st2{fill:#d1a982}.st2,.st3{display:inline}.st21{fill:#fff}.st88{fill:#ffbc42}.st90{fill:#344c00}.st91{fill:#fd801e}.st92{fill:#9e0e00}.st93{fill:#fdaf48}.st94{fill:#d74e1e}</style><g class="st1"><rect width="919.6" height="2155.1" x="-618.1" y="-282.8" class="st2"/><path d="M301-282.3v2154.1h-918.6V-282.3H301 M302-283.3h-920.6v2156.1H302V-283.3L302-283.3z" class="st3"/></g><g><path d="M27.1,14.8c-6.2-1.5-9.7-5-9.7-5.1c-0.5-0.5-1.2-0.6-1.8-0.3c-0.6,0.3-0.9,1-0.7,1.7c0.6,2,1.5,4.1,2.7,6.1 L27.1,14.8z" class="st90"/><path d="M47.7,16.7c0.9-1.6,1.8-3.4,2.5-5.5c0.2-0.7,0-1.4-0.6-1.8c-0.6-0.4-1.3-0.3-1.9,0.2c0,0-3.6,3.3-9.3,4.9 L47.7,16.7z" class="st90"/><path d="M36.3,14.5l-2.3-8c-0.2-0.6-0.8-1.1-1.4-1.1h0c-0.7,0-1.3,0.4-1.4,1.1l-2.3,8.1L36.3,14.5z" class="st90"/></g><path d="M62,33.8C62,47.6,48.6,56.5,32,56.5S1.9,48.7,1.9,33.8C1.9,21,17.1,15.1,32,15.1C47,15.1,62,20,62,33.8z" class="st91"/><path d="M32,58C12.8,58,0.4,48.5,0.4,33.8c0-6.5,3.5-11.8,10.3-15.5c5.6-3,13.2-4.7,21.3-4.7	c19.8,0,31.6,7.5,31.6,20.2C63.5,47.8,50.2,58,32,58z M32,16.6C18.2,16.6,3.4,22,3.4,33.8C3.4,49.4,18.8,55,32,55	c16.5,0,28.6-8.9,28.6-21.2C60.5,17.8,38.7,16.6,32,16.6z" class="st92"/><path d="M32,56.2c-12.1,0-19.9-8.8-19.9-22.3c0-12.9,5.9-18.5,19.9-18.5c0.3,0,0.5,0.2,0.5,0.5s-0.2,0.5-0.5,0.5	c-13.4,0-18.9,5.1-18.9,17.5c0,12.9,7.4,21.3,18.9,21.3c0.3,0,0.5,0.2,0.5,0.5S32.2,56.2,32,56.2z" class="st92"/><path d="M32,56.8c-4.3,0-6.9-8.8-6.9-23c0-0.3,0.2-0.5,0.5-0.5s0.5,0.2,0.5,0.5c0,15.2,3,22,5.9,22	c2.9,0,5.9-7.7,5.9-22c0-15-2.3-18-5.9-18c-3.3,0-5.1,3.3-5.7,10.7c0,0.3-0.3,0.5-0.5,0.5c-0.3,0-0.5-0.3-0.5-0.5	c0.6-8,2.7-11.6,6.6-11.6c5.8,0,6.9,7,6.9,19C38.9,47.3,36,56.8,32,56.8z" class="st92"/><path d="M3.7,36c-1-0.1-1.8-1-1.8-2.1c0,0,0-0.1,0-0.1c0-8.8,7.2-14.3,16.6-16.9c0.1,0,0.1,0,0.2,0	c1.9-0.4,3.7-0.8,5.6-1.2c2.5-0.4,5.1-0.5,7.7-0.5c13,0,25.9,3.7,29.2,13.5c0.3,1-0.1,2.1-0.9,2.5c-1.2,0.7-2.8,0.8-4.1,0	c-0.4-0.2-0.8-0.3-1.2-0.3c0,0,0,0,0,0c-0.7,0.1-1.3,0.4-1.7,1c-1.1,1.8-3.5,2.7-5.2,1.6l-10.3-1.7l-5.9-4.3L3.7,36" class="st93"/><path d="M42.8,31.8c0.1-0.6,0.1-1.2,0.2-1.8c0.1-2,3.1-3.3,4.1-1.1c0.4,0.9,0.8,1.8,1.2,2.6c0.1,0.2,0.2,0.3,0.4,0.4	c0.5,0.3,0.9,0.8,1.1,1.5c0.7,0.3,0.5,2,0.5,3c0,2.8-0.4,3.1-3,4c-0.5,0.2-1.1,0.1-1.6-0.2c-0.3-0.2-0.7-0.2-1,0	c-0.6,0.4-1.5,0.6-2.2,0.3c-1.2,0.8-3,0.5-3.3-1.1c0-0.2-0.1-0.4-0.1-0.6c-0.1-0.7-0.9-1-1.4-0.6c-0.2,0.1-0.4,0.2-0.6,0.3	c-1.2,0.5-2.9,0.2-3.2-1.3c-0.3-1.7-0.4-4.2-0.9-6.2c-0.3,0.1-0.7,0.1-1,0c-0.4,0.9-0.7,1.8-1.2,2.7c-0.3,0.7-0.9,1-1.4,1.1	c-0.4,0-0.7,0.4-0.7,0.7c0,0.3-0.1,0.5-0.1,0.8c-0.2,1.9-3,3.3-4.1,1.1c-0.2-0.4-0.3-0.7-0.5-1.1c-0.5,0.8-1.2,1.2-1.9,1.2	c-0.6,1.8-3.1,2-4.1,0.2c-0.5,0.5-1.3,0.6-2,0.3c-0.5,0.3-0.7,0.5-1.2,0.8c0,0.5-0.1,1.1-0.1,1.6c-0.1,1.5-1.9,2.6-3.1,2.1	c-0.3-0.1-0.6-0.1-0.9,0.1c-0.2,0.1-0.3,0.2-0.5,0.3c-0.2,0.3-0.4,0.6-0.6,0.9c0.1,2.2-2.8,3.3-4.1,1.3c-3.4-5.4-2.8-11.3-2-17.4	c0.2-1.1,0.9-1.6,1.8-1.6c0,0,0-0.1,0-0.1C6.2,24,9.9,24,9.6,26.7c0,0.2-0.1,0.5-0.1,0.9c0.4,0,0.7,0.1,1.1,0.3	c0.5,0.3,1.2,0,1.3-0.6c0.1-0.3,0.1-0.6,0.2-0.9c0.6-2.3,3.3-1.9,4.1-0.2c0.6,0.1,1.2,0.4,1.5,1c0.4-0.1,0.8,0,1.2,0.1	c0.4-1.4,1.9-1.7,3-1.1c0.1-0.2,0.2-0.4,0.3-0.6c0.9-1.5,3.1-1.3,3.9,0.1c0-0.1,0.1-0.3,0.1-0.4c0.4-1.4,1.5-1.8,2.6-1.5	c0.4,0.1,0.7,0,1-0.3c1-1.1,3.3-0.7,3.8,0.9c0,0,0,0,0,0.1c0.8,0,1.7,0.5,1.9,1.5c0,0.1,0.1,0.3,0.1,0.4c0.2,0.2,0.4,0.3,0.5,0.6	c0.4,0.7,0.6,1.4,0.9,2.2c0.1-0.5,0.2-1.1,0.4-1.7c0.6-1.9,3.8-2.2,4.2,0c0.3,1.4,0.5,2.9,0.8,4.3L42.8,31.8z" class="st94"/><path d="M47.5,46.7c-0.1,0-0.2,0-0.2-0.1c-0.2-0.1-0.3-0.4-0.2-0.7c1.9-3.5,3-7.7,3-12c0-3.4-1.1-6.7-3.2-9.6	c-0.2-0.2-0.1-0.5,0.1-0.7c0.2-0.2,0.5-0.1,0.7,0.1c2.2,3,3.4,6.5,3.4,10.2c0,4.5-1.1,8.9-3.1,12.5C47.8,46.6,47.6,46.7,47.5,46.7z" class="st92"/><path d="M43.4,55.1c1.4-0.9,2.6-2.2,3.6-3.9c1.3-2.2-1.6-4.3-3.5-2.7c-0.9,0.8-2,1.5-3.2,2.2c-0.8,0.4-1.7-0.3-1.4-1.2	c0.4-1.1,0.6-2.3,0.9-3.4c0.6-2.8-3.7-3.9-4.2-1.2c-0.3,1.3-0.6,2.5-1,3.6c-0.2,0.5-0.8,0.8-1.3,0.6c-0.6-0.2-1.4-0.1-1.9,0.3	c-0.6,0.3-1.3,0.1-1.5-0.6c-0.5-1.5-0.8-3.1-1.1-4.7c-0.4-2.5-4.3-1.8-4.3,0.6c0,1.5,0.1,3,0.3,4.4c0.1,0.9-0.9,1.5-1.7,0.9	c-1.6-1.4-3.1-3-4.5-4.8c-1.4-1.8-4.2,0.2-3.7,2.1c1,3.6,3,6.2,5.5,7.8l11.7,2.5L43.4,55.1z" class="st88"/><path d="M32,13.6c-8.1,0-15.7,1.7-21.3,4.7C3.9,22,0.4,27.3,0.4,33.8C0.4,48.5,12.8,58,32,58	c18.3,0,31.6-10.2,31.6-24.2C63.5,21.2,51.7,13.6,32,13.6z M32,55.8c-2.9,0-5.9-6.8-5.9-22c0-0.3-0.2-0.5-0.5-0.5s-0.5,0.2-0.5,0.5	c0,8.7,1,15.4,2.8,19.3c0.4,0.8-0.4,1.6-1.2,1.4c-8.4-2.2-13.6-9.8-13.6-20.6c0-10.3,3.8-15.6,12.9-17c0.8-0.1,1.4,0.7,1.1,1.4	c-0.9,1.9-1.5,4.6-1.7,8.1c0,0.3,0.2,0.5,0.5,0.5c0.3,0,0.5-0.2,0.5-0.5c0.6-7.4,2.3-10.7,5.7-10.7c3.6,0,5.9,3,5.9,18	C37.9,48.1,34.8,55.8,32,55.8z M3.4,33.8c0-7.1,5.3-11.9,12.6-14.5c0.5-0.2,0.9,0.4,0.5,0.8c-3,3-4.4,7.5-4.4,13.8	c0,8.2,2.9,14.6,7.8,18.5c0.4,0.3,0.1,1-0.4,0.9C10.6,50.5,3.4,44.5,3.4,33.8z M37.5,54.6c-1,0.1-1.8-0.9-1.4-1.9	c1.7-4,2.8-10.7,2.8-18.9c0-6.6-0.3-11.7-1.6-15c-0.4-1,0.4-2,1.4-1.9c9,1,21.9,4.6,21.9,16.8C60.5,44.7,51.1,52.9,37.5,54.6z" class="st92"/><g><path d="M7,29.5c-0.1,0-0.2,0-0.2-0.1c-0.2-0.1-0.3-0.4-0.2-0.7c1-1.9,2.5-3.6,4.6-5c0.2-0.2,0.5-0.1,0.7,0.1 s0.1,0.5-0.1,0.7c-2,1.3-3.4,2.9-4.3,4.6C7.4,29.4,7.2,29.5,7,29.5z" class="st21"/></g><g><path d="M16.4,28.6c0,0-0.1,0-0.1,0c-0.3-0.1-0.4-0.3-0.4-0.6c0.5-2.1,1.3-3.7,2.3-5c0.2-0.2,0.5-0.2,0.7-0.1 c0.2,0.2,0.2,0.5,0.1,0.7c-1,1.2-1.7,2.7-2.1,4.6C16.9,28.5,16.7,28.6,16.4,28.6z" class="st21"/></g><g><path d="M28.9,26.1C28.9,26.1,28.9,26.1,28.9,26.1c-0.3,0-0.5-0.3-0.5-0.6c0.1-1.3,0.3-2.4,0.5-3.4 c0.1-0.3,0.3-0.4,0.6-0.4c0.3,0.1,0.4,0.3,0.4,0.6c-0.2,0.9-0.4,2-0.5,3.2C29.4,25.9,29.1,26.1,28.9,26.1z" class="st21"/></g><circle cx="20.5" cy="21.4" r=".5" class="st21"/><circle cx="40.3" cy="23.1" r=".5" class="st21"/></svg>