<svg xmlns="http://www.w3.org/2000/svg" xmlns:xlink="http://www.w3.org/1999/xlink" id="Layer_1" x="0" y="0" version="1.1" viewBox="0 0 64 64" xml:space="preserve" style="enable-background:new 0 0 64 64"><style type="text/css">.st0{fill:#5a8700}.st1{fill:#9d9f01}.st2{fill:#bfbf04}.st3{fill:#cad058}.st4{fill:#fb8f47}.st5{fill:#edc9aa}.st6{fill:#e9e0d0}.st7{fill:#cf423b}.st60{fill:#f26e40}</style><g><path d="M43.9,11.9c-1.9,3.4-4.1,2.9-7.1,3.1c-1.3-2.5-3-4.3-1.2-7.7s6-6.5,8.3-5.2C46.2,3.4,45.8,8.5,43.9,11.9z" class="st0"/></g><g><path d="M33.4,8c1.7,4.4-0.6,6.1-2.7,9.1c-3.3-0.8-6.4-0.6-8.1-5S21.3,1.4,24.3,0.3S31.7,3.6,33.4,8z" class="st0"/></g><path d="M29.1,24c0.6-8.1-1.4-14.9-3.6-19.9c-0.2-0.6,0.4-1,0.7-0.5C29,7.8,32,14.5,33,21.9c1.4-6.3,5-11.8,7.6-15.2	c0.3-0.4,1,0,0.7,0.5c-2.2,4.2-5,11.1-4.6,18.1L29.1,24z" class="st1"/><g><path d="M35.3,23.9c0.3-7.8,5-15.7,7.7-19.1c0.2-0.2,0.1-0.5-0.1-0.7c-0.2-0.2-0.5-0.1-0.7,0.1 c-2.8,3.5-7.5,11.6-7.9,19.7L35.3,23.9z" class="st2"/></g><g><path d="M31.8,23.9c-0.3-9-2.6-15.1-6-21.5c-0.1-0.2-0.4-0.3-0.7-0.2c-0.2,0.1-0.3,0.4-0.2,0.7 c3.4,6.3,5.6,12.3,5.9,21L31.8,23.9z" class="st3"/></g><g><path d="M26.6,54.1C19.9,51.4,15,44.2,15,37.4c0-8.6,7.6-13.3,17-13.3s17,4.8,17,13.3c0,6.8-4.7,13.9-11.4,16.6 L32,59.1L26.6,54.1z" class="st4"/></g><g><rect width="11.2" height="1" x="37.1" y="32.1" class="st5"/></g><g><path d="M38.5,33.1h-2.4c-0.3,0-0.5-0.2-0.5-0.5s0.2-0.5,0.5-0.5h2.4c0.3,0,0.5,0.2,0.5,0.5S38.7,33.1,38.5,33.1z" class="st6"/></g><g><rect width="11.2" height="1" x="34.9" y="29.2" class="st5"/></g><g><path d="M34.8,30.2h-0.9c-0.3,0-0.5-0.2-0.5-0.5s0.2-0.5,0.5-0.5h0.9c0.3,0,0.5,0.2,0.5,0.5S35.1,30.2,34.8,30.2z" class="st6"/></g><path d="M32,22.6c-11.1,0-18.5,6-18.5,14.8c0,7.5,5.4,15.3,12.5,18.1c1.5,0.6,2.7,1.8,3.3,3.3l1.4,4.1	c0.2,0.6,0.8,1,1.4,1c0,0,0,0,0,0c0.6,0,1.2-0.4,1.4-1l1.4-4.2c0.6-1.5,1.7-2.8,3.2-3.4c7.1-2.9,12.3-10.5,12.3-18	C50.5,28.5,43.1,22.6,32,22.6z M38.1,47.7h5.5c-1.8,2.1-4,3.9-6.5,4.9c-2.3,0.9-4.1,2.8-4.9,5.2v0c-0.9-2.3-2.7-4.2-5-5.1	c-6.1-2.4-10.6-8.9-10.6-15.3c0-8.2,7.8-11.8,15.5-11.8c6.9,0,13.9,3,15.2,9.5h-6.5v1h6.6c0,0,0.1,1,0.1,1.9h-5.9v1h5.8	c-0.1,0.6-0.2,1.3-0.3,1.9h-6.4v1h6.1c-0.2,0.6-0.5,1.3-0.8,1.9h-7.2l-3.2,0.5l3.2,0.5h6.7c-0.4,0.7-0.8,1.3-1.2,1.9h-6.3l-0.5,0.5	L38.1,47.7z" class="st7"/><g><path d="M41.7,39h-4.1c-0.3,0-0.5-0.2-0.5-0.5s0.2-0.5,0.5-0.5h4.1c0.3,0,0.5,0.2,0.5,0.5S41.9,39,41.7,39z" class="st60"/></g><g><path d="M40.7,41.9H30.3c-0.3,0-0.5-0.2-0.5-0.5s0.2-0.5,0.5-0.5h10.4c0.3,0,0.5,0.2,0.5,0.5S41,41.9,40.7,41.9z" class="st60"/></g><g><path d="M38.9,44.8h-3.5c-0.3,0-0.5-0.2-0.5-0.5s0.2-0.5,0.5-0.5h3.5c0.3,0,0.5,0.2,0.5,0.5S39.1,44.8,38.9,44.8z" class="st60"/></g><g><path d="M38.1,47.7h-0.6c-0.3,0-0.5-0.2-0.5-0.5s0.2-0.5,0.5-0.5h0.6c0.3,0,0.5,0.2,0.5,0.5S38.4,47.7,38.1,47.7z" class="st60"/></g><g><path d="M41.4,36.1h-9c-0.3,0-0.5-0.2-0.5-0.5s0.2-0.5,0.5-0.5h9c0.3,0,0.5,0.2,0.5,0.5S41.7,36.1,41.4,36.1z" class="st60"/></g></svg>