<svg xmlns="http://www.w3.org/2000/svg" xmlns:xlink="http://www.w3.org/1999/xlink" id="Layer_1" x="0" y="0" version="1.1" viewBox="0 0 64 64" xml:space="preserve" style="enable-background:new 0 0 64 64"><style type="text/css">.st0{display:none;fill:#d1a982}.st3{fill:#d0a679}.st19{fill:#fff}.st96{fill:#fdcc89}.st98{fill:#7f6546}</style><rect width="2535.7" height="2318.4" x="-35.9" y="-493" class="st0"/><g><path d="M52.7,7.3l3.4-2.2c1-0.6,2.1-0.6,2.8,0.1l0.4,0.4c0.7,0.7,0.7,1.8,0.1,2.8l-2.2,3.4L52.7,7.3z" class="st3"/><path d="M24.8,62.3c-5,0-10.1-2.5-15.1-7.5C-3,42,3.1,32.1,7.9,27.2c2.9-2.9,6.3-4.2,9.8-5.5l0.4-0.1 c9.7-3.6,22.1-16,22.2-16.1c2.1-2.1,4.6-3.2,7.3-3.2c3.4,0,6.9,1.7,10,4.7c5.5,5.5,6.2,12.6,1.6,17.3c-0.8,0.9-13,15.6-16.2,23.2 c-1.1,2.7-3.5,6.8-5.8,9C33.5,60.3,29.2,62.3,24.8,62.3L24.8,62.3z" class="st96"/><path d="M19.8,26.7c-0.2,0-0.4-0.1-0.5-0.3c-0.1-0.3,0-0.5,0.3-0.6c2.2-0.8,4.7-2.1,7.3-3.8c0.2-0.1,0.5-0.1,0.7,0.2 s0.1,0.5-0.2,0.7c-2.7,1.7-5.2,3-7.5,3.9C20,26.7,19.9,26.7,19.8,26.7z" class="st19"/><path d="M31.3,20.1c-0.2,0-0.3-0.1-0.4-0.2c-0.2-0.2-0.1-0.5,0.1-0.7c6.5-4.8,11.8-10,12.4-10.6 c0.2-0.2,0.5-0.2,0.7,0s0.2,0.5,0,0.7c-0.6,0.6-5.9,5.9-12.5,10.7C31.5,20.1,31.4,20.1,31.3,20.1z" class="st19"/><path d="M63.7,15.5c-0.3-2.4-1.4-4.9-3-7.1c0.6-1.3,0.5-2.8-0.4-3.7l-0.4-0.4c-0.9-0.9-2.4-1.1-3.7-0.4 c-2.7-1.9-5.6-3-8.5-3c-3.1,0-6,1.2-8.4,3.6C39.1,4.6,27,16.7,17.6,20.2l-0.4,0.1C13.5,21.7,10,23,6.9,26.2 C-2,35-1.3,45.9,8.7,55.9c5.3,5.3,10.7,7.9,16.1,7.9c4.8,0,9.5-2.1,13.5-6.2c2.4-2.4,4.9-6.6,6.1-9.5c3.1-7.3,14.9-21.5,15.9-22.8 C63,22.7,64.1,19.2,63.7,15.5z M58.1,23.3c0,0-13.1,15.5-16.5,23.6c-1.1,2.7-3.4,6.5-5.4,8.6c-3.3,3.3-7.1,5.3-11.4,5.3 c-3.3,0-6.8-1.2-10.5-4c1.2,0.4,2.4,0.7,3.7,0.7c0.5,0,1.1,0,1.6-0.1c4.3-0.6,8.1-3.4,10.6-7.7c0.1-0.2,0.1-0.5-0.2-0.7 c-0.2-0.1-0.5-0.1-0.7,0.2c-2.3,4-5.9,6.7-9.8,7.2c-3.2,0.4-6.3-0.6-8.5-2.8c-2.1-2.1-3.1-4.9-2.8-7.8c0.4-4,3-7.8,7.2-10.6 c0.2-0.2,0.3-0.5,0.1-0.7c-0.2-0.2-0.5-0.3-0.7-0.1c-4.4,3-7.2,7.1-7.6,11.4c-0.2,1.6,0,3.1,0.5,4.6C1.3,41.7,3.1,34.2,9,28.3 c2.8-2.8,6-3.9,9.7-5.3C28.8,19.2,41.4,6.6,41.4,6.6c1.9-1.9,4-2.7,6.3-2.7c3.1,0,6.2,1.6,8.9,4.3C61.2,12.8,62.4,19.1,58.1,23.3z" class="st98"/><ellipse cx="16.5" cy="27.2" class="st19" rx=".5" ry=".5" transform="matrix(0.7071 -0.7071 0.7071 0.7071 -14.3833 19.6454)"/></g></svg>