<svg xmlns="http://www.w3.org/2000/svg" xmlns:xlink="http://www.w3.org/1999/xlink" x="0" y="0" version="1.1" viewBox="0 0 500 500" xml:space="preserve" style="enable-background:new 0 0 500 500"><style type="text/css">.st0{fill:#b47e22}.st1{fill:#442105}.st18{fill:#fff}.st158{fill:#be4228}.st159{fill:#d3954b}.st160{fill:#cd8143}.st161{fill:#c76c3c}.st162{fill:#c25735}.st163{fill:#7f2a1c}.st164{fill:#daab4a}</style><g id="Layer_1"><path d="M459.8,252.5c0,149.2-67.1,234-207.3,234S45.2,363.1,45.2,252.5S112.3,86,252.5,86S459.8,141.9,459.8,252.5z" class="st158"/><path d="M205.7,168.5c-0.1,0-0.3,0-0.4,0c-15.9-1.7-31.6-4.3-46.7-7.7c-2.1-0.5-3.4-2.5-2.9-4.6 c0.5-2.1,2.5-3.4,4.6-2.9c14.9,3.3,30.3,5.8,45.9,7.5c2.1,0.2,3.7,2.1,3.4,4.3C209.3,167,207.6,168.5,205.7,168.5z" class="st18"/><path d="M253.6,171c-9.6,0-19.3-0.3-28.8-0.9c-2.1-0.1-3.8-2-3.6-4.1c0.1-2.1,2-3.8,4.1-3.6 c9.3,0.6,18.8,0.9,28.3,0.9c2.1,0,3.9,1.7,3.9,3.9S255.8,171,253.6,171z" class="st18"/><circle cx="140.6" cy="152.5" r="4.2" class="st18"/><path d="M363,454.9c32.8-18.7,56.5-47.3,71.4-85c10.4-36.4,15.7-78.2,15.7-125.1c0-16.1-1.1-31.3-3.4-45.7 c-9.2-33-27.8-58.3-56.1-76.1c23.8,30.5,35.4,70.6,35.4,121.8c0,90.9-20.4,160.6-60.6,207.4C364.5,453.2,363.7,454,363,454.9z" class="st159"/><path d="M372.5,452c35.8-50.4,54-119.9,54-207.1c0-47.9-10-88.3-29.7-120.8c-14.4-9.8-31.4-17.5-51.1-23.1 c38.2,32.2,56.7,79.3,56.7,143.9c0,90.9-20.4,160.6-60.6,207.4c-7.2,8.4-15.2,16.1-23.8,23C338.5,470.1,356.7,462.3,372.5,452z" class="st160"/><path d="M338.7,465.4c42.7-51.2,64.3-125.3,64.3-220.5c0-54.7-13-99.5-38.6-134c-13.6-5.5-28.7-9.7-45.5-12.6 c0.3,0.3,0.7,0.5,1,0.8c39.8,32.2,59.1,79.9,59.1,145.8c0,90.9-20.4,160.6-60.6,207.4c-7.8,9.1-16.5,17.3-25.8,24.7 C309.2,474.6,324.7,470.8,338.7,465.4z" class="st161"/><path d="M296.4,99c39.8,32.2,59.1,79.9,59.1,145.8c0,90.9-20.4,160.6-60.6,207.4c-8.7,10.1-18.3,19.1-28.9,27.1 c14.7-0.6,28.4-2.3,41.3-4.9c2-2.1,3.9-4.3,5.8-6.5c44.1-51.2,66.5-126.3,66.5-223.1c0-60-15.6-108.2-46.5-143.7 c-13.1-3-27.2-5.2-42.5-6.6C292.6,96,294.5,97.5,296.4,99z" class="st162"/><path d="M252.5,74.5c-145.2,0-218.9,59.9-218.9,178.1c0,60.9,19.5,121.3,53.5,165.6c40.2,52.4,97.4,80.1,165.4,80.1 c72.3,0,127.8-21.9,165-65.1c35.7-41.5,53.9-102.3,53.9-180.5C471.4,134.4,397.7,74.5,252.5,74.5z M298,466 c5.9-4.8,11.6-10.6,16.9-17.4c1.1-1.4,1.2-3.5,0-4.9c-1.7-1.9-4.5-1.8-6,0.1c-16.3,20.8-35.2,31.3-56.4,31.3 c-21.1,0-40.1-10.5-56.4-31.3c-1.3-1.7-3.7-2-5.4-0.7c-1.7,1.3-2,3.7-0.7,5.4c4.5,5.7,9.1,10.7,14,15c2.3,2,0.3,5.8-2.7,5 C106.3,443.1,56.8,347.3,56.8,252.5c0-52.4,15.3-90.2,46.8-115.7c32.1-26,82.2-39.2,148.9-39.2c66.7,0,116.8,13.2,148.9,39.2 c31.5,25.5,46.8,63.4,46.8,115.7c0,128.2-49.7,201.5-147.9,218.6C297.4,471.6,295.7,467.9,298,466z" class="st163"/><path d="M109.7,218.3c-5.1,0-5.2,8,0,8C114.8,226.3,114.8,218.3,109.7,218.3z" class="st164"/><path d="M97.2,291.1c-5.1,0-5.2,8,0,8C102.3,299.1,102.3,291.1,97.2,291.1z" class="st164"/><path d="M132.9,368.6c-5.1,0-5.2,8,0,8C138.1,376.6,138.1,368.6,132.9,368.6z" class="st164"/><path d="M240.4,399.8c-5.1,0-5.2,8,0,8C245.5,407.8,245.5,399.8,240.4,399.8z" class="st164"/><path d="M220.8,337.4c-5.1,0-5.2,8,0,8C226,345.4,226,337.4,220.8,337.4z" class="st164"/><path d="M240.6,230.1c-5.1,0-5.2,8,0,8C245.8,238.1,245.8,230.1,240.6,230.1z" class="st164"/><path d="M210,276.3c-5.1,0-5.2,8,0,8C215.2,284.3,215.2,276.3,210,276.3z" class="st164"/><path d="M156,258c-5.1,0-5.2,8,0,8C161.1,266,161.1,258,156,258z" class="st164"/><path d="M162.4,312.9c-5.1,0-5.2,8,0,8C167.6,320.9,167.6,312.9,162.4,312.9z" class="st164"/><path d="M269.5,74.7c2.7,0.1,5.3,0.2,8,0.3c-7.6-32.3-27.4-55.8-57.5-67.8c-2.8-1.1-5.7-1.7-8.6-1.7 c-5.4,0-10.9,1.9-15.3,5.7c-3.3,2.9-5.7,6.7-7,10.9l-7.5,23.5c-1.9,6-1.5,12.6,1.5,18.1c3.2,5.8,8.5,9.9,15,11.4 c0.5,0.1,2.4,0.7,5.1,1.9c4.9-0.6,10-1,15.1-1.4c6.1-0.4,12,2.4,15.3,7.6c5,7.9,8.3,18.4,7.7,32.1c2.5,0.1,5.1,0.2,7.7,0.3 c0.8-18.3-4.6-31.5-12-41c0,0,0,0,0,0c-0.1-0.2-0.3-0.3-0.4-0.5c-0.1-0.1-0.1-0.1-0.2-0.2c-0.4-0.6-0.9-1.1-1.4-1.6 c0,0-0.1-0.1-0.1-0.1c0,0,0,0,0,0c-8.7-10-19.4-15.3-25.8-17.8c-3-1.2-4.6-4.5-3.6-7.7l3.6-11.3c1.2-3.7,5.3-5.4,8.7-3.6 c19.7,10,29.9,25.9,35,41.5c0,0,0,0,0,0c5.6,17.1,5,34,4.1,42.4c2.6-0.1,5.2-0.2,7.8-0.3c0.7-7.4,1-19.6-1.6-33.1l0-0.1 C262.4,78.3,265.5,74.6,269.5,74.7z" class="st1"/><g><path d="M248.9,115.7c-0.7,0-1.4,0-2.2-0.1C247.5,115.7,248.2,115.7,248.9,115.7z" class="st0"/><path d="M257,115.7c1.6-16.3,2.3-63.9-40.6-84.6c-2.7-1.3-5.9,0.1-6.8,2.9l-4.5,14c-0.8,2.5,0.5,5.1,3,6.1 c11.8,4.4,42.8,19.9,40.9,61.7c1.2,0,2.3,0,3.5,0c2.8,0,5.6-0.1,8.4-0.2c0,0,0,0,0,0C259.6,115.6,258.3,115.7,257,115.7z" class="st0"/></g><path d="M252.5,119.6c-16.4,0-32.3-1.9-44.8-5.3c-2.1-0.6-3.3-2.7-2.7-4.8c0.6-2.1,2.7-3.3,4.8-2.7 c11.8,3.2,27,5,42.7,5c15.4,0,30.3-1.7,42.1-4.8c2.1-0.6,4.2,0.7,4.7,2.7c0.6,2.1-0.7,4.2-2.7,4.7 C284.2,117.8,268.6,119.6,252.5,119.6z" class="st163"/></g></svg>