<svg xmlns="http://www.w3.org/2000/svg" xmlns:xlink="http://www.w3.org/1999/xlink" id="Layer_1" x="0" y="0" version="1.1" viewBox="0 0 1000 1000" xml:space="preserve" style="enable-background:new 0 0 1000 1000"><style type="text/css">.st0{display:none;fill:#d1a982}.st13{fill:#3d710c}.st21{fill:#77a45b}.st43{fill:#fff}.st44{fill:#efe8d7}.st45{fill:#8c7662}.st62{fill:#dabb95}.st63{fill:#e76886}.st64{fill:#e87d94}.st65{fill:#e992a2}.st66{fill:#eba7af}.st67{fill:#ecbdbd}.st68{fill:#edd2ca}</style><rect width="5227.9" height="4725.2" x="-3764.4" y="-356" class="st0"/><path d="M256,548.4c-0.4-105.2,78-193.9,181.5-212.8C599.3,305.9,744,392.3,744,547.4L256,548.4z" class="st44"/><path d="M500,984c-11.3,0-20.9-8.2-22.7-19.3l-21.5-132.2c-5.1-23.2-21.9-41.9-46.2-51.5	C296.2,736.1,233.4,653.5,233,548.5c-0.2-56,20.1-110.7,57.3-153.8c36.6-42.5,87.4-71.5,143-81.7c47.8-8.8,94.4-8.2,138.3,1.5	c43.4,9.6,82.8,28.5,114,54.5c25.7,21.4,45.7,47.2,59.6,76.8c14.5,30.9,21.8,65,21.8,101.6c0,55.7-17.4,104.8-51.7,146	c-29.6,35.5-71.7,65-125.4,87.7c-24.2,10.2-40.8,28.9-45.8,51.4l-21.5,132.2C520.9,975.8,511.3,984,500,984z M500,352.8	c-19.2,0-38.8,1.8-58.4,5.4c-45.3,8.3-86.6,31.9-116.4,66.5c-30,34.8-46.4,78.7-46.2,123.7c0.2,44.7,14,84,41.1,116.9	c25.1,30.5,60.9,55,106.5,73.1c37.2,14.7,64.4,45,73.4,81.4c8.9-35.9,35-65.2,72-80.9c46.8-19.8,83.1-45,108-74.8	c27.2-32.7,41-71.9,41-116.6c0-58.2-22.4-107.7-64.8-143.1c-25.6-21.4-58.3-36.9-94.6-45C542,355,521.2,352.8,500,352.8z" class="st62"/><path d="M352.5,485.1c-1.4,0-2.8-0.4-4-1.1c-3.6-2.2-4.7-6.9-2.5-10.5c17.1-27.8,43.6-49.7,74.7-61.8	c3.9-1.5,8.4,0.4,9.9,4.4s-0.4,8.4-4.4,9.9c-28,10.9-51.9,30.6-67.2,55.6C357.6,483.8,355.1,485.1,352.5,485.1z" class="st43"/><circle cx="337.4" cy="512" r="7.7" class="st43"/><g><path d="M352.5,485.1c-1.4,0-2.8-0.4-4-1.1c-3.6-2.2-4.7-6.9-2.5-10.5c17.1-27.8,43.6-49.7,74.7-61.8 c3.9-1.5,8.4,0.4,9.9,4.4c1.5,3.9-0.4,8.4-4.4,9.9c-28,10.9-51.9,30.6-67.2,55.6C357.6,483.8,355.1,485.1,352.5,485.1z" class="st43"/></g><g><circle cx="337.4" cy="512" r="7.7" class="st43"/></g><rect width="73.7" height="45.9" x="463.1" y="773.1" class="st63"/><rect width="208.6" height="45.9" x="395.7" y="727.1" class="st64"/><rect width="350.9" height="45.9" x="324.5" y="681.2" class="st65"/><rect width="432.8" height="45.9" x="283.6" y="635.2" class="st66"/><rect width="432.8" height="45.9" x="283.6" y="589.3" class="st67"/><rect width="481.9" height="45.9" x="259" y="543.4" class="st68"/><path d="M500,984c-11.3,0-20.9-8.2-22.7-19.3l-21.5-132.2c-5.1-23.2-21.9-41.9-46.2-51.5	C296.2,736.1,233.4,653.5,233,548.5c-0.2-56,20.1-110.7,57.3-153.8c36.6-42.5,87.4-71.5,143-81.7c47.8-8.8,94.4-8.2,138.3,1.5	c43.4,9.6,82.8,28.5,114,54.5c25.7,21.4,45.7,47.2,59.6,76.8c14.5,30.9,21.8,65,21.8,101.6c0,55.7-17.4,104.8-51.7,146	c-29.6,35.5-71.7,65-125.4,87.7c-24.2,10.2-40.8,28.9-45.8,51.4l-21.5,132.2C520.9,975.8,511.3,984,500,984z M500,352.8	c-19.2,0-38.8,1.8-58.4,5.4c-45.3,8.3-86.6,31.9-116.4,66.5c-30,34.8-46.4,78.7-46.2,123.7c0.2,44.7,14,84,41.1,116.9	c25.1,30.5,60.9,55,106.5,73.1c37.2,14.7,64.4,45,73.4,81.4c8.9-35.9,35-65.2,72-80.9c46.8-19.8,83.1-45,108-74.8	c27.2-32.7,41-71.9,41-116.6c0-58.2-22.4-107.7-64.8-143.1c-25.6-21.4-58.3-36.9-94.6-45C542,355,521.2,352.8,500,352.8z" class="st45"/><path d="M484.4,358.8c-0.6-3.6-9.5-57.9,12.7-121.6c-17.3-33.8-31.1-60.8-3.6-105.2c32.1-51.7,99.8-97.2,134.9-75.4	s24.4,102.7-7.7,154.3c-25.4,40.9-55.2,43.1-88.3,43.2c-17,51.9-10.1,101.7-9.6,104.7C522.8,358.8,501.8,370.6,484.4,358.8z" class="st21"/><path d="M688.4,70c-6.7-22.3-19.5-39.8-37-50.6c-13-8.1-27.9-12.2-44.3-12.2c-34,0-65.8,17.9-86.4,32.9	c-25.6,18.6-48.5,43-64.5,68.8c-18,29-25,57-21.3,85.3c2.3,17.4,8.2,32.5,15,46.8c-7.3,26.3-10.4,50.7-11.3,71	c12.3-2.1,24.6-3.5,36.7-4.4c-1.9,28.8,1.2,48.8,1.8,52.3c0.3,2,1.5,3.7,3.1,4.8c7.2,4.9,14.8,6.5,21.7,6.5	c13.1,0,23.6-5.8,24.3-6.2c2.7-1.5,4.1-4.5,3.6-7.5c-0.1-0.3-3.2-21-0.8-49.6c12.2,1.1,24.2,2.8,36.1,5.1c0.4-5.4,1-11.2,2-17.3	c9.1-1.3,18.5-3.5,27.9-7.2c25.5-9.8,46-27.7,62.8-54.7c19.7-31.7,32.6-71.1,35.5-108C695,105.2,693.3,86.4,688.4,70z M491.1,354.3	c-1.7-12.8-6-60.6,12.8-114.7c0.7-1.9,0.5-3.9-0.4-5.7c-17-33.2-29.2-57.1-3.9-98c15.3-24.6,39.1-48.1,63.8-62.8	c25.1-15,47.3-18.7,61-10.2c13.7,8.5,20.2,30.1,18,59.2c-2.2,28.7-12.7,60.5-28,85.1c-22.8,36.8-48.4,39.6-82.1,39.7	c-3.1,0-5.9,2-6.9,5c-14.6,44.5-12.1,87.4-10.6,102.5C509.5,356.3,499.8,358.6,491.1,354.3z" class="st13"/></svg>