<svg xmlns="http://www.w3.org/2000/svg" xmlns:xlink="http://www.w3.org/1999/xlink" id="Layer_1" x="0" y="0" version="1.1" viewBox="0 0 500 500" xml:space="preserve" style="enable-background:new 0 0 500 500"><style type="text/css">.st2{fill:#7c9800}.st3{fill:#164e16}.st13{fill:#f22f2e}.st17{fill:#fff}.st20{fill:#7b000e}.st118{fill:#a3b653}</style><g><path d="M305.8,297.5l14.1-33.9l5.5-18.2c5.4-17.8,3.6-37-5.1-53.4c-8.5-16-22.7-28.1-39.9-33.9l-0.2-0.1 c-17.7-5.9-37-4.6-53.7,3.6c-11,5.4-19.6,14.6-24.3,25.9C179.6,241.7,141,287.7,91.7,319.4c-12.4,8-23.6,17.8-33.2,29.1l-22.1,26.1 c-0.9,1.1-0.1,2.7,1.3,2.7c6.6-0.3,12.7,1.9,17.6,5.7c-2.3,2-4.5,4.2-6.5,6.6c-21.4,25.2-20.5,61.1,2,80.2 c13.4,11.4,31.5,14.1,48.5,9.1c14.6,10.9,34.8,10.9,49.9,0.4l24.2-17C232.3,421,278.2,363.9,305.8,297.5z" class="st13"/><path d="M177,285.4c-0.9,0-1.8-0.3-2.6-0.9c-1.7-1.4-1.9-3.9-0.5-5.6c10.4-12.2,19.9-25.4,28.4-39.1 c1.1-1.9,3.6-2.5,5.5-1.3c1.9,1.1,2.5,3.6,1.3,5.5c-8.6,14.1-18.4,27.6-29.1,40.1C179.3,284.9,178.2,285.4,177,285.4z" class="st17"/><path d="M330.9,186.4c-9.9-18.8-26.5-32.8-46.7-39.6l-0.1,0c-20.8-7-43.1-5.5-62.8,4.3c-13.5,6.7-24.2,18.1-30.1,32 c-21.8,52.1-58.5,95.8-106.1,126.3c-13.5,8.6-25.5,19.2-35.8,31.4l-22.1,26.1c-3.5,4.1-4.2,9.9-1.8,14.7c0.8,1.6,1.9,3,3.2,4.2 c2.7,2.4,3.5,6.3,1.8,9.4c-6.2,11.5-9.4,24.2-9.1,37c0.5,18.6,8.1,35.1,21.6,46.6c12,10.2,27.7,15.1,43.9,14.2 c6.2-0.3,12.4,0.4,18.2,2.6c6.1,2.3,12.6,3.5,19.1,3.5c11,0,22.2-3.4,31.8-10.1l24.2-17c60.9-42.6,108.1-101.3,136.7-169.9 l14.3-34.4l5.7-18.8C343.2,228,341.1,205.8,330.9,186.4z M59.4,395.4c3.2-3.4,8.9-1.8,9.8,2.7c0.4,2.2,0.7,4.5,0.6,6.9 c-0.4,20.5,5.5,39.7,16.6,55c2.8,3.9-0.1,9.4-4.9,9.2c-8.6-0.3-16.7-3.2-23.1-8.7c-2.5-2.1-4.7-4.5-6.5-7.2 c-2.5-3.6-1.3-8.6,2.5-10.7c2.3-1.3,5.1-2.6,8.2-3.8c1.9-0.8,3.1-2.8,2.5-4.8c-0.7-2.3-3.1-3.5-5.3-2.6c-3.1,1.2-5.9,2.6-8.3,3.8 c-2.8,1.5-6.2-0.5-6.3-3.7l0,0c-0.3-12.2,4-24.6,12.6-34.4C58.4,396.5,58.9,396,59.4,395.4z M217.5,183.9c2.3-3.6,7.9-0.6,6,3.3 c-3.2,6.5-5.1,13.7-5.4,21.4c-0.5,13.2,3.9,26,12.3,36.2c1.5,1.8,2.2,4.2,1.9,6.5c-0.3,2-1.3,3.7-2.9,4.8c-6,4.1-11,9.3-14.8,15.4 c-6.4,10.1-9.1,21.6-8,33.5c0.2,2.3-0.5,4.5-1.9,6.2c-1.5,1.7-3.5,2.7-5.9,2.8c-17.3,0.7-33.2,9.9-42.5,24.5 c-1.2,1.9-0.8,4.5,1.1,5.7c0.8,0.5,1.8,0.7,2.7,0.6c1.1-0.2,2.2-0.8,2.8-1.8c7.9-12.5,21.5-20.4,36.3-21c4.5-0.2,8.6-2.1,11.5-5.5 c2.9-3.3,4.3-7.7,3.8-12.2c-1-10,1.4-19.9,6.8-28.4c3.3-5.2,7.5-9.6,12.6-13.1c3.5-2.4,5.7-6,6.3-10.3c0.6-4.5-0.7-9.1-3.7-12.7 c-7.2-8.6-10.9-19.5-10.5-30.7c0.8-21.1,16.2-38.3,36-42.4c4.9,0.4,9.7,1.3,14.5,2.9c7.2,2.4,13.7,6.1,19.4,10.9 c5.7,4.8,10.4,10.7,13.9,17.3c7.3,13.8,8.8,29.5,4.3,44.4l-5.4,17.7l-13.9,33.3c-26.8,64.4-71.2,119.5-128.3,159.5l-24.2,16.9 c-11.6,8.1-26.9,7.7-37.2-1l-0.3-0.2c-17.7-15-27.5-38-27-63c0.3-11.9-4.8-23-13.8-30.7c0,0,0,0-0.1-0.1c-3.8-3.2-4.4-8.8-1.2-12.6 l4.8-5.6c8.8-10.4,19.1-19.4,30.5-26.7c51.6-33.2,91.6-80.6,115.2-137.2C214.6,189,216.1,186.3,217.5,183.9z" class="st20"/><path d="M257,270.1c-0.8,0.1-1.6,0-2.4-0.4c-2-1-2.7-3.4-1.7-5.4c1.6-3.1,2.6-6.4,3.1-9.8c0.4-3.1,0.4-6.2-0.1-9.3 c-0.3-2.2,1.1-4.2,3.3-4.5c2.1-0.4,4.2,1.1,4.5,3.3c0.6,3.8,0.6,7.7,0.1,11.6c-0.6,4.3-1.9,8.5-3.9,12.3 C259.3,269.1,258.2,269.9,257,270.1z" class="st17"/><path d="M152.8,419c-2.2,0.3-4.2-1.2-4.5-3.3c-0.3-2.2,1.2-4.2,3.3-4.5c9.5-1.5,18-5.8,24.6-12.5 c6.3-6.4,10.3-14.6,11.7-23.7c1.4-9.3,8.3-16.9,17-18.9c5.5-1.2,10.8-3.6,15.2-7c8.7-6.5,14.4-16.6,15.7-27.5 c0.2-2.2,2.2-3.7,4.4-3.5c2.2,0.2,3.8,2.2,3.5,4.4c-1.5,13.1-8.3,25.1-18.8,32.9c-5.3,4-11.6,6.9-18.2,8.4 c-5.6,1.2-10,6.2-10.9,12.3c-1.6,10.8-6.4,20.5-13.9,28.1C174.2,412.1,164.1,417.3,152.8,419C152.8,419,152.8,419,152.8,419z" class="st20"/><path d="M172.9,363.8c-0.8,0.1-1.6,0-2.3-0.4c-2-1-2.8-3.3-1.8-5.3c4.7-9.5,12.5-17.3,22-21.8c2-0.9,4.4-0.1,5.3,1.9 c0.9,2,0.1,4.4-1.9,5.3c-7.9,3.8-14.4,10.2-18.3,18.2C175.3,362.8,174.1,363.6,172.9,363.8z" class="st17"/><ellipse cx="256.7" cy="229.1" class="st17" rx="4.8" ry="4.8" transform="matrix(0.4053 -0.9142 0.9142 0.4053 -56.7634 370.8719)"/><path d="M445.2,21c6.5-0.9,12.6,3.6,13.5,10.1c0.9,6.5-3.6,12.6-10.1,13.5l-37.6,5.5c-20.8,3.1-39,16.2-47.7,35.3 c-20.1,43.7-28.5,92.1-24.1,140.5l0.3,3.5c-5.7-0.3-17-14.5-22.5-15.7c-5.5-1.2-17,6.2-22.2,4.1c-5.6-2.3-11.6-18.2-16.7-21.4 c-4.9-3.1-22.6-1.5-26.9-5.4c-4.9-4.4-3.2-18.3-7.2-23.6c-2.9-3.9-21.2-8-23.6-12.3l0,0c46.9-17.1,88-46.6,119.2-85 c14.8-18.2,34.6-31.5,57.3-37.1L445.2,21z" class="st2"/><path d="M211.5,157.1c2.9-0.1,5.7,0.9,8,2.6c2.6,1.9,6.5,3.5,11.9,5.6c3.4,1.3,8.5,3.3,9.4,4.4 c1.3,1.7,1.8,5.8,2.4,9.4c0.8,5.7,1.7,11.5,5.4,14.8c3.3,2.9,9.5,3.5,16.7,4.1c3.9,0.3,9.3,0.8,10.7,1.7c1.6,1,4.3,5.5,6.3,8.7 c3.5,5.8,6.8,11.3,11.1,13c4.1,1.6,9.1-0.1,14.4-1.9c2.9-1,6.9-2.4,8.4-2c1.5,0.3,5.7,4.1,8.5,6.6c4,3.5,7.6,6.7,10.9,8.3 c2.2,1,3.7,3.2,3.9,5.6v0c-0.6,3.7-1.4,7.3-2.5,10.9l-0.1,0.2c0.5,0.1,1,0.1,1.5,0.1c0.4,0,0.7,0,1.1,0c7,0,13.7-3.7,17.3-10.2 c2-3.6,2.8-7.8,2.4-12l-0.3-3.1c-4.1-44.6,3.6-89.7,22.4-130.3c5.9-12.9,18.1-21.8,32.6-23.9l37.6-5.5 c17.4-2.5,29.4-18.7,26.9-36.1c-2.6-17.5-19-29.6-36.5-26.8c-0.5,0.1-1,0.2-1.5,0.3l-48.3,11.9c-26.4,6.5-49.9,21.7-68,43.9 c-29.1,35.7-67.3,63-110.6,78.8c-5.5,2-9.8,6.3-11.8,11.7c-2.1,5.5-1.6,11.6,1.3,16.7c0,0,0,0,0,0 C205.6,161.9,208.5,159.4,211.5,157.1L211.5,157.1z M329.9,218.1c-4.6-4.1-8.5-7.6-12.1-8.4c-0.7-0.2-1.5-0.2-2.2-0.2 c-3.2,0-6.7,1.2-10.4,2.5c-2.8,1-7.5,2.6-8.9,2c-1.8-0.7-5.2-6.4-7.3-9.7c-3-5-5.7-9.4-8.8-11.3c-3.1-1.9-8.3-2.4-14.3-2.9 c-3.7-0.3-10.7-0.9-12.1-2.1c-1.5-1.4-2.2-6.2-2.8-10c-0.7-4.8-1.4-9.8-3.9-13c-2-2.6-6.2-4.3-12.9-7c0,0,0,0,0,0 c-1.9-0.7-1.9-3.3-0.1-4.1c42.2-17.8,79.5-45.7,108.5-81.3c14.8-18.2,33.9-30.5,55.2-35.8l48-11.8c4.3-0.5,8.2,2.5,8.8,6.8 c0.6,4.3-2.4,8.4-6.7,9l-37.6,5.5c-22.5,3.3-41.5,17.3-50.8,37.6c-19.2,41.7-27.8,87.6-25.1,133.3c0.1,2-2.2,3.1-3.7,1.8 C330.4,218.6,330.2,218.4,329.9,218.1z" class="st3"/><path d="M315.1,128.7c-0.9,0-1.8-0.3-2.5-0.9c-1.7-1.4-1.9-3.9-0.5-5.6c1.9-2.3,3.8-4.6,5.7-7c1.4-1.7,3.9-2,5.6-0.6 c1.7,1.4,2,3.9,0.6,5.6c-1.9,2.4-3.8,4.7-5.8,7.1C317.4,128.2,316.2,128.7,315.1,128.7z" class="st118"/><path d="M268.4,177.3c-1.1,0-2.2-0.4-2.9-1.3c-1.5-1.6-1.4-4.1,0.3-5.6c12.7-11.5,24.9-23.8,36.3-36.7 c1.5-1.6,4-1.8,5.6-0.3c1.6,1.5,1.8,4,0.3,5.6c-11.6,13-24,25.6-36.9,37.3C270.4,177,269.4,177.3,268.4,177.3z" class="st118"/><path d="M303.9,199.4c-0.3,0-0.6,0-0.9-0.1c-2.1-0.5-3.5-2.6-3-4.8c2.8-12.1,6.2-24.2,9.9-36.1 c0.7-2.1,2.9-3.3,5-2.6c2.1,0.7,3.3,2.9,2.6,5c-3.7,11.6-7,23.6-9.7,35.5C307.3,198.2,305.7,199.4,303.9,199.4z" class="st118"/></g></svg>