<svg xmlns="http://www.w3.org/2000/svg" xmlns:xlink="http://www.w3.org/1999/xlink" id="Layer_1" x="0" y="0" version="1.1" viewBox="0 0 500 500" xml:space="preserve" style="enable-background:new 0 0 500 500"><style type="text/css">.st0{fill:#3f8a23}.st26{fill:#fff}.st126{fill:#e8f1d7}.st127{fill:#7fbf55}.st132{fill:#a0cd80}.st133{fill:#b5d799}.st134{fill:#c9e1b2}.st135{fill:#deebcb}</style><path d="M341.9,109.7l13.5,7.5c9.4,5.2,14.1,16.3,11.2,26.7l-31.3,113.5c-2.8,10.3-12.2,17.2-22.6,17.2	c-1.6,0-3.2-0.2-4.8-0.5c-2.5-0.5-4.9-1.5-7-2.7c-1.9-1.1-4.3-0.4-5.3,1.4l-50.5,90.7l-13.6,50.1c-3.3,12.4-4.6,25.7-5.8,40.5	c-0.3,3.4-0.9,6.8-1.9,10.1c-3.1,10.1-9.3,18.8-17.8,25c-8.4,6.1-18.3,9.3-28.6,9.3c-8,0-16.1-2-23.3-5.9	c-16.9-9.1-27-28.2-25.1-47.4c0.6-6.4,2.5-12.5,5.5-18.1c10-18.5,17.7-35.8,23.6-52.9l41.3-121.4l1-19.4c0.1-2.3-1.7-4.1-3.9-4.1	l0,0c-3.3,0-6.6-0.7-9.8-2.1c-10.8-4.9-15.9-17.4-12.4-28.7l34.7-111.9c3.1-9.8,12.2-16.5,22.4-16.5c0.5,0,1,0,1.5,0l15.4,1	c0.9,0.1,1.7,0.2,2.5,0.3c5.7,1,11.2-2.5,13-8L279.2,18c3.3-9.7,12.4-15.9,22.2-15.9c2.3,0,4.6,0.3,6.9,1L319,6.4	c10.7,3.3,17.6,13.6,16.5,24.7L329.3,92c-0.7,7.3,3.6,14,10.3,16.7C340.4,109,341.2,109.3,341.9,109.7z" class="st0"/><path d="M206.1,420.4c-1.9,10.5-2.8,21.2-3.7,31.8c-0.1,1.7-0.5,3.4-1,5.1c-4.6,14.9-21.7,22.5-36.2,14.7	c-8.7-4.7-13.8-14.6-12.9-24.4c0.3-3.5,1.3-6.6,2.8-9.4c5-9.2,9.6-18.6,13.9-28.1L206.1,420.4z" class="st126"/><path d="M301.3,29.8l-1.1,92.7c0,1.6,2.4,1.8,2.5,0.1l9.2-91.2c0.2-1.5-0.8-3-2.3-3.4l-4.1-1.3	C303.4,26.1,301.3,27.7,301.3,29.8z" class="st127"/><g><path d="M219.8,361.6l-13.3-7.4c-1-0.5-1.8-1.2-2.5-2.1c-2-2.6-2.2-6-0.7-8.6l43.2-77.9c1.6-2.8,2.8-5.9,3.7-9 l42.1-154.5c0.3-1.1,0.4-2.2,0.5-3.3l0.5-41c0-1.5-2.1-1.9-2.6-0.5l-40.8,119.9c-0.4,1.1-0.6,2.1-0.6,3.3l-4.9,78.1 c-0.3,4.1-3.7,7.3-7.8,7.3c-0.2,0-0.3,0-0.5,0l-13.8-0.9l0,0c-1.2-0.1-2.4,0.7-2.8,1.8l-39,114.9c0,0.1,0,0.1-0.1,0.2l33,10.1 l7.6-28C221.1,363.2,220.7,362.1,219.8,361.6L219.8,361.6z" class="st127"/></g><path d="M319.9,225.5l23-83.4c0.7-2.6-0.4-5.3-2.8-6.6l-2.2-1.2c-3.5-2-7.9,0.2-8.5,4.2l-12.7,86.3	C316.4,226.8,319.4,227.5,319.9,225.5z" class="st127"/><g><path d="M315.3,157.7l-102.1,184c-1.7,3.1-0.6,7,2.5,8.7l2.3,1.3c3.1,1.7,7,0.6,8.7-2.5l85.9-154.7 c0.6-1.1,1.1-2.4,1.2-3.7l4.7-32C318.8,156.9,316.2,156,315.3,157.7z" class="st127"/></g><path d="M230,97.8l-25.6,82.6c-0.6,2,2.2,3,3.1,1.2l35.9-79.5c1.7-3.7-0.9-7.9-4.9-8.1l-2.5-0.2	C233.2,93.6,230.8,95.3,230,97.8z" class="st127"/><g><path d="M227.9,156.9l-5,94.1c-0.2,3.5,2.5,6.5,6,6.7l1.1,0.1c3.5,0.2,6.6-2.5,6.8-6l7.9-125.9 c0.1-1.9-2.5-2.6-3.3-0.8L228.9,153C228.3,154.2,228,155.5,227.9,156.9z" class="st127"/></g><path d="M211.1,399.7l2.1-7.9l-32.9-10.1l-0.1,0.2c-0.9,2.5-1.8,5-2.7,7.5L211.1,399.7z" class="st132"/><path d="M174.7,396.8l34.3,10.5l2.1-7.9l-33.5-10.2C176.7,391.7,175.7,394.2,174.7,396.8z" class="st133"/><path d="M174.8,396.5c-1,2.5-2.1,5.1-3.1,7.6l35.5,10.9c0.5-2.5,1.1-4.9,1.8-7.4l0.2-0.6L174.8,396.5z" class="st134"/><path d="M168.5,411.3l37.2,11.4c0.4-2.7,1-5.4,1.5-8.1l-35.4-10.8C170.7,406.3,169.6,408.8,168.5,411.3z" class="st135"/><g><path d="M248.2,299c-0.6,0-1.2-0.1-1.7-0.4c-1.7-0.9-2.3-3.1-1.4-4.8l12.2-22.1c0.9-1.7,3.1-2.3,4.8-1.4 c1.7,0.9,2.3,3.1,1.4,4.8l-12.2,22.1C250.6,298.3,249.4,299,248.2,299z" class="st26"/></g><g><path d="M268.7,151.3c-0.3,0-0.7-0.1-1-0.2c-1.8-0.6-2.9-2.5-2.3-4.4l7.9-25.2c0.6-1.8,2.5-2.9,4.4-2.3 c1.8,0.6,2.9,2.5,2.3,4.4l-7.9,25.2C271.5,150.3,270.2,151.3,268.7,151.3z" class="st26"/></g><circle cx="281.2" cy="108.2" r="3.5" class="st26"/><circle cx="236" cy="100" r="3.5" class="st26"/></svg>