<svg xmlns="http://www.w3.org/2000/svg" xmlns:xlink="http://www.w3.org/1999/xlink" id="Layer_1" x="0" y="0" version="1.1" viewBox="0 0 500 500" xml:space="preserve" style="enable-background:new 0 0 500 500"><style type="text/css">.st6{fill:#f22f2e}.st9{fill:#7c9800}.st10{fill:#164e16}.st22{fill:#fff}.st25{fill:#7b000e}.st129{fill:#f4c01f}.st130{fill:#ffa200}.st131{fill:#b26d09}.st132{fill:#a84902}</style><g><path d="M78.4,353c15.8,7.7,34.8,1.3,42.7-14.4l23.9-47.5c13-25.9,22-53.7,26.7-82.7l6.7-41.2 c4.2-26,11.9-51.1,22.9-74.8l29.6-63.7c2.2-4.6-3.6-8.9-7.4-5.4L197.7,47c-43.9,40.5-73.6,92.2-86.2,149.8l0,0 c-5.4,24.7-13.9,48.4-25.5,70.6l-21.9,42C55.8,325.4,62.3,345.1,78.4,353L78.4,353z" class="st129"/><path d="M159,415.5c-11.1-13.6-9.2-33.5,4.2-44.8l40.8-34.2c22.3-18.6,47.3-33.7,74.4-44.9l38.6-15.9 c24.4-10.1,47.1-23.3,67.6-39.4l55.2-43.4c4-3.2,9.4,1.5,6.9,6l-17.1,30.4c-29.3,52-72.8,92.8-126,118.2l0,0 c-22.8,10.9-43.9,24.6-62.9,41l-35.8,31C191.1,431.2,170.5,429.4,159,415.5L159,415.5z" class="st6"/><path d="M128.9,373.7c13.2,11.5,33.3,10.2,44.9-2.9l35.3-39.7c19.3-21.7,35.1-46.2,47.1-73l17-38.1 c10.8-24.1,24.6-46.4,41.4-66.4l45-53.9c3.3-3.9-1.2-9.5-5.7-7.1L323,108.7c-52.9,27.8-94.9,70.1-121.8,122.5l0,0 c-11.5,22.5-25.9,43.2-42.8,61.7l-32,34.9C114.1,341.1,115.3,361.8,128.9,373.7L128.9,373.7z" class="st130"/><path d="M121.1,338.6l23.9-47.5c13-25.9,22-53.7,26.7-82.7l6.7-41.2c4.2-26,11.9-51.1,22.9-74.8l29.6-63.7 c2.2-4.6-3.6-8.9-7.4-5.4L197.7,47c-43.9,40.5-73.6,92.2-86.2,149.8l0,0c-5.4,24.7-13.9,48.4-25.5,70.6l-21.9,42L88.5,331 L121.1,338.6z" class="st129"/><path d="M218.3,45.5l-21,45.1c-11.1,24-18.9,49.5-23.2,75.9l-6.7,41.2c-4.6,28.5-13.4,55.9-26.3,81.5l-19.9,39.5 l32.5-24.7l38.5-92.2l6.7-41.2c3.9-24.1,11-47.4,21.2-69.3l29.6-63.7c5.2-11.3,1.9-24.2-8.2-31.6c-10-7.3-23.4-6.6-32.6,1.9 l-25.7,23.7c-47.1,43.4-79,99-92.5,160.8c-5,22.8-12.9,44.8-23.6,65.4l-21.9,42l22.4,11.7l22-42c11.7-22.6,20.4-46.7,25.8-71.7 C128,141,157.3,89.9,200.6,50.1l9.5-8.8l1.2-1.1C215,36.8,220.6,41,218.3,45.5L218.3,45.5z" class="st131"/><path d="M204.7,419.4l35.8-31c19-16.4,40.1-30.1,62.9-41l0,0c53.2-25.4,96.7-66.2,126-118.2l17.1-30.4 c2.5-4.4-2.9-9.1-6.9-6l-55.2,43.4c-20.5,16.1-43.2,29.3-67.6,39.4l-38.6,15.9c-27.1,11.2-52.1,26.3-74.4,44.9l-42.4,36.3 L204.7,419.4z" class="st6"/><path d="M432.2,215.9l-6.3,11.2c-28.9,51.2-71.8,91.5-124.2,116.5c-23.1,11-44.6,25-63.9,41.6l-37.6,32.6l22.3,14 l31.8-27.4c17.6-15.1,37.2-27.9,58.3-37.9c57.1-27.2,103.9-71.1,135.3-126.8l17.1-30.4c6.1-10.8,3.8-24-5.6-32.1 c-9.4-8.1-22.8-8.4-32.6-0.7l-55.2,43.4c-19,14.9-40,27.2-62.6,36.5l-38.6,15.9l-53,49.2l-10.6,18.4c21.9-18.3,46.6-33.2,73.3-44.3 l38.6-15.9c24.7-10.2,47.8-23.6,68.6-40l36.6-28.7l1.4-1.1C429.3,206.5,434.9,211.4,432.2,215.9L432.2,215.9z" class="st25"/><path d="M173.8,370.8l35.3-39.7c19.3-21.7,35.1-46.2,47.1-73l17-38.1c10.8-24.1,24.6-46.4,41.4-66.4l45-53.9 c3.3-3.9-1.2-9.5-5.7-7.1L323,108.7c-52.9,27.8-94.9,70.1-121.8,122.5l0,0c-11.5,22.5-25.9,43.2-42.8,61.7l-34.2,37.6L173.8,370.8z" class="st130"/><path d="M340.9,115.5l-29.5,35.3c-16.9,20.3-31.1,43-42,67.4l-17,38.1c-11.8,26.4-27.4,50.6-46.4,72L170.7,368 l6.3,5.6l35.3-39.7c2.7-3,5.3-6.1,7.9-9.2c7.6-9.3,16.8-17.1,27.3-22.8c0.1-0.1,0.2-0.1,0.3-0.2c9.2-5,16.8-12.6,21.5-22 c2.2-4.3,4.2-8.6,6.2-13l17-38.1c10-22.3,22.9-43,38.3-61.5l45-53.9c8-9.5,8.1-22.9,0.3-32.6c-7.8-9.7-20.9-12.4-31.9-6.6 l-30.9,16.2c-56.6,29.8-101.9,75.3-130.7,131.5c-2.5,4.8-5.1,9.5-7.8,14.1c-5.2,8.8-9.5,18.2-13.1,27.8c-3.7,10-8,19.9-12.8,29.4 c-3.1,6.1-7,11.8-11.6,16.8l-14.4,15.8l6.7,5.1l32-34.9c17.1-18.8,31.7-39.8,43.4-62.6c26.5-51.6,68-93.4,120-120.7l8-4.2l1.5-0.8 C339.5,104.7,344.6,111,340.9,115.5L340.9,115.5z" class="st132"/><path d="M149.8,145c-0.6,0-1.3-0.1-1.8-0.4c-2.1-1-2.9-3.5-1.9-5.6c5.6-11.5,12.2-22.8,19.4-33.4 c1.3-1.9,3.9-2.4,5.8-1.1c1.9,1.3,2.4,3.9,1.1,5.8c-7,10.3-13.4,21.2-18.8,32.4C152.9,144.2,151.4,145,149.8,145z" class="st22"/><path d="M136.5,177.6c-0.4,0-0.9-0.1-1.3-0.2c-2.2-0.7-3.4-3.1-2.6-5.3c1.1-3.3,2.3-6.5,3.5-9.7 c0.8-2.2,3.2-3.3,5.4-2.4c2.2,0.8,3.3,3.2,2.4,5.4c-1.2,3.1-2.3,6.3-3.4,9.4C139.9,176.5,138.2,177.6,136.5,177.6z" class="st22"/><path d="M287.1,314.7c-1.6,0-3.1-0.9-3.8-2.4c-1-2.1,0-4.6,2.1-5.6l24.7-11.4c2.1-1,4.6,0,5.6,2.1 c1,2.1,0,4.6-2.1,5.6l-24.7,11.4C288.2,314.6,287.6,314.7,287.1,314.7z" class="st22"/><path d="M257.1,186.4c-1,0-2-0.4-2.8-1.1c-1.7-1.6-1.8-4.2-0.3-5.9c2.1-2.3,4.2-4.6,6.4-6.8c1.6-1.7,4.3-1.7,5.9-0.1 c1.7,1.6,1.7,4.3,0.1,5.9c-2.1,2.2-4.2,4.4-6.2,6.6C259.4,185.9,258.3,186.4,257.1,186.4z" class="st22"/><path d="M223.5,232.5c-0.7,0-1.4-0.2-2.1-0.6c-2-1.2-2.7-3.7-1.5-5.7c5.8-10.1,12.3-19.8,19.3-29 c1.4-1.8,4-2.2,5.9-0.8c1.8,1.4,2.2,4,0.8,5.9c-6.8,8.9-13.1,18.4-18.7,28.1C226.3,231.8,224.9,232.5,223.5,232.5z" class="st22"/><ellipse cx="328" cy="291.9" class="st22" rx="4.2" ry="4.2" transform="matrix(0.6208 -0.784 0.784 0.6208 -104.4686 367.7896)"/><polygon points="58.3 309.5 116.5 340.4 126.3 331.4 170 370.8 170 385.3 204.9 423 183.6 439.7 144 448.5 66.5 490.2 43.6 479.6 42.2 405.8" class="st9"/><path d="M211.6,419.1l-6.2-4.4c-11.5-8.1-21.4-18.2-29.2-29.8c-2.4-3.5-2-8.1,0.8-11.2l0-0.1l0,0 c1.8-2,1.2-5.3-1.2-6.5v0c-18.4-9.6-34.2-23.8-45.7-41.1l-0.3-0.4c-1.5-2.3-4.8-2.5-6.6-0.5l0,0c-1.1,1.2-2.2,2.6-3.1,3.9 c-1.9,2.8-5.4,4.1-8.6,3.2c-16.7-4.7-31.9-13.4-44.4-25.7l-4-4c0,0-6.6-6.4-11.1-15L46,298.7c-6.7,12.8-8.4,27.7-4,41.5 c2.9,9.1,2.6,20-0.9,32.4c-7.1,25.3-13.9,63.7-6,102.9c1.4,6.8,5.1,12.9,10.6,17.3c4.7,3.7,10.2,5.8,16,6.3c0,0,0,0,0,0 c0.8,0.1,1.5,0.1,2.3,0.1c3.5,0,7-0.6,10.4-1.9c24.2-9.2,49.4-22.3,74.9-39.1c9.3-6.1,21.5-9.5,36.1-9.9 c12.1-0.3,23.9-4.9,33.1-12.8l8.3-7.2C226.8,428.1,217.8,423.4,211.6,419.1z M70.1,320.3c11.5,9.1,24.5,15.8,38.6,19.8 c2.6,0.7,3.3,4.1,1.2,5.7c-0.7,0.5-1.3,1-2.1,1.5c-21,13.7-34.8,32.8-38.8,53.6c-2.3,11.9-3.6,23.5-3.8,34.5 c-0.1,4.6-1.5,9.2-3.8,13.2c-0.3,0.5-0.6,1-0.8,1.4c-0.9,1.6-3.3,1-3.4-0.8c-1.6-26.7,3.2-51.9,8.3-69.9c4.8-17.2,5-33,0.6-46.8 c-1-3.2-1.4-6.5-1.3-9.8C64.9,320.1,68,318.7,70.1,320.3z M67.7,471.6c-1.1,2-3.7,2.8-5.7,1.7c-0.2-0.1-0.5-0.3-0.7-0.5 c-1.5-1.3-1.9-3.5-1-5.2c11.9-21.7,27.2-45.2,45.4-69.7c10.1-13.7,15.8-30.8,16.6-49.5c0.1-3,0.7-5.9,1.7-8.6 c0.8-2.2,3.7-2.6,5.1-0.8c9.3,11.9,20.7,22.2,33.5,30.2c2,1.3,1.8,4.2-0.3,5.2c-1.1,0.5-2.2,1-3.4,1.4c-23.7,7.9-41.7,20.3-53.7,37 C90.3,433.6,77.6,453.4,67.7,471.6z M184.7,422.9c-19.4,0.5-36,5.2-49.3,14C118,448.4,100.8,458,84,465.7c-1.4,0.6-2.8-0.9-2-2.2 c0.6-1,1.2-2.1,1.9-3.1c2.1-3.5,5.2-6.4,8.8-8.2c8.9-4.5,17.9-9.6,27.1-15.3c18.2-11.2,31.5-28.8,37.5-49.6c0,0,0,0,0,0 c0.4-1.4,1.6-2.6,3-3.1c0.4-0.2,0.9-0.3,1.3-0.4l0.8-0.3c1.4-0.5,3,0.1,3.8,1.4c7.1,11.6,16,21.9,26.4,30.6c2.4,2,1.5,5.7-1.5,6.5 C189.1,422.6,186.9,422.9,184.7,422.9z" class="st10"/></g></svg>