<svg xmlns="http://www.w3.org/2000/svg" xmlns:xlink="http://www.w3.org/1999/xlink" id="Layer_1" x="0" y="0" version="1.1" viewBox="0 0 500 500" xml:space="preserve" style="enable-background:new 0 0 500 500"><style type="text/css">.st0{fill:#63b218}.st6{display:none;fill:#d1a982}.st21{fill:#fff}.st64{fill:#a2d400}.st72{fill:#a4d173}.st73{fill:#98ca63}.st74{fill:#8cc354}.st75{fill:#7fbd44}.st76{fill:#72b636}.st77{fill:#477b21}</style><g><path d="M371.1,315.7c37.1-91.4,36.1-158.9,9.5-186.6c-6-42.1-22.7-67.5-46.7-72.3c-11.5-2.3-22.5,0.4-32.8,7.7 c-14.7-26.6-34.4-40.5-56.5-39.8c-21.1,0.6-38.1,13.4-50.4,36.9c-8.9-5-18.4-6.7-28.2-4.7c-25.5,5-42.9,33.6-47.7,80.7 c-25.4,27.4-26,93.1,10.1,181.7l38.6,90.1l59.6,78.3H275l53.3-79.7L371.1,315.7z" class="st0"/></g><rect width="6576.8" height="1230.5" x="-3105.9" y="-365.3" class="st6"/><g><path d="M262.4,100.5c0.1-7.9,0.1-15.7,0.2-23.6c0.1-6.6-5.2-11.9-11.8-12c0,0-0.1,0-0.1,0c-6.5,0-11.8,5.2-11.9,11.8 c-0.1,7.3-0.1,14.6-0.2,21.9L262.4,100.5z" class="st64"/></g><g><path d="M184.4,137.2c-0.9-9.6-1.7-19.2-2.4-28.8c-0.5-6.5-6.2-11.5-12.7-11c-6.5,0.5-11.5,6.1-11,12.7 c0.3,4.9,0.7,9.8,1.1,14.7L184.4,137.2z" class="st64"/></g><g><path d="M341.3,116c0.2-2,0.3-4,0.4-6c0.5-6.5-4.5-12.2-11-12.7c-6.5-0.5-12.2,4.5-12.7,11 c-0.4,5.7-0.8,11.4-1.3,17.1L341.3,116z" class="st64"/></g><g><path d="M262.2,197.8c0.1-10.3,0.2-20.6,0.3-31c0.1-6.6-5.2-11.9-11.8-12c0,0-0.1,0-0.1,0c-6.5,0-11.8,5.2-11.9,11.8 c-0.2,21.6-0.4,43-0.5,63.8l6.9,11.4L262.2,197.8z" class="st64"/></g><path d="M275.2,458.1h-52.3c4.2,3.5,8.1,6.5,11.6,8.8c-2,7-5.2,11.9-7.9,14.9h49.7	C272.6,476.6,268.3,467.1,275.2,458.1z" class="st72"/><path d="M198.6,434.3c8.8,9.7,17,17.6,24.3,23.8h52.3c0.7-0.9,1.5-1.8,2.4-2.7c6.1-5.9,13-12.9,20.3-21.1H198.6z" class="st73"/><path d="M317.6,410.5H179.1c6.6,8.8,13.2,16.8,19.5,23.8H298C304.3,427.3,310.9,419.4,317.6,410.5z" class="st74"/><path d="M334.4,386.8H162.7c5.4,8.6,10.9,16.5,16.4,23.8h138.5C323.2,403.2,328.8,395.3,334.4,386.8z" class="st75"/><g><path d="M348.8,363H148.7c4.6,8.4,9.2,16.3,14,23.8h171.7C339.3,379.3,344.1,371.4,348.8,363z" class="st76"/></g><g><path d="M150.5,236.2c0.7,2.9-1.9,5.4-4.8,4.7c-3.6-0.9-7.4-1.3-11.3-1.1c-0.2,0-0.4,0-0.6,0c-4,0.3-8-0.3-11.9-1.8 c-5.9-2.3-10.7-6.4-13.9-11.9c-1-1.8-3.2-2.6-5.1-1.8c-2.2,1-3,3.6-1.8,5.6c4,7,10.4,12.5,18,15.5c4.9,1.9,10.1,2.7,15.3,2.4 c5.3-0.3,10.6,0.8,15.3,3.2c3.1,1.6,5.3,4.4,6.1,7.7c7.1,28.4,15.3,53.9,23.8,76.7c1,2.6-1,5.4-3.8,5.3c-2.6-0.2-5.1-0.1-7.7,0.3 c-4,0.6-8,0.3-12-0.9c-6.1-1.8-11.2-5.5-14.8-10.7c-1.2-1.7-3.4-2.4-5.2-1.4c-2.1,1.1-2.7,3.8-1.4,5.7c4.6,6.7,11.4,11.6,19.2,14 c5,1.5,10.2,1.9,15.4,1.1c3.5-0.5,6.9-0.4,10.3,0.3c3.8,0.8,6.9,3.4,8.3,7c17.2,41.5,34.9,72.1,48,91.9c0,0-1.7-15.3-6.6-29.7 c-4.9-14.5-4-37.3-4-37.3c-11.7-24-24.7-54.8-36.2-92c-0.8-2.7-0.7-5.6,0.5-8.2c2.3-5.2,6-9.6,10.9-12.8c4.4-2.8,8-6.5,10.8-11 c4.3-6.8,6.1-14.9,5.2-22.9c-0.2-2.1-2-3.8-4.1-3.7c-2.4,0.1-4.1,2.1-3.8,4.4c0.7,6.3-0.7,12.6-4.1,18c-2.2,3.5-5,6.3-8.4,8.5 c-2.7,1.7-5.1,3.8-7.2,6c-2.1,2.3-5.8,1.3-6.6-1.6c-1.7-6.2-3.3-12.6-4.9-19.2c-0.5-2.2-1.3-5.5-2.1-9.2 c-3.5-15.3-9.2-40.8-15.8-60.2c-2.1-6.2-8.8-9.6-15.1-7.5c-6.2,2.1-9.6,8.8-7.5,15.1C136.9,184.7,143.3,206,150.5,236.2z" class="st64"/></g><g><path d="M308.6,245.3c3.1,2.6,7.9,0.9,8.6-3.1c3.1-18.5,6.7-38.6,11.3-53.8c1.9-6.3,8.5-9.9,14.8-8 c6.3,1.9,9.9,8.5,8,14.8c-5,16.6-8.8,39.7-12.1,60.1c-1.8,10.9-3.5,21.3-5.2,29.6c-0.9,4.5-1.9,8.9-2.9,13.2 c-0.8,3.7,2.5,6.9,6.2,5.9c4.1-1,8.3-1.4,12.6-1.1c4.3,0.3,8.6-0.3,12.7-1.9c6.4-2.4,11.6-6.8,15.1-12.7c1.1-1.9,3.7-2.5,5.6-1.3 c1.8,1.2,2.2,3.7,1.1,5.5c-4.3,7.3-11.1,12.9-19,15.9c-5.2,2-10.6,2.8-16.1,2.3c-3.4-0.3-6.8,0-10,0.9c-7.6,1.9-13.4,7.9-15.5,15.4 c-15.1,54.7-34.7,97.5-49.9,121.7c-11.7,18.8,1.1,35.6,1.1,35.6l-48.2,0.3c0,0,11.7-24.1,27-48.5c8.9-14.2,19.4-35.2,29.5-61.6 c2.3-5.9,1.9-12.6-1.2-18.2c-2.4-4.4-5.9-8.1-10.2-11c-4.6-3-8.4-7-11.3-11.7c-4.5-7.3-6.4-16-5.3-24.5c0.3-2.2,2.4-3.8,4.7-3.4 c2.1,0.4,3.4,2.5,3.2,4.6c-0.8,6.7,0.6,13.3,4.2,19.1c2.3,3.7,5.3,6.8,8.9,9.2c3.3,2.2,6.3,4.9,8.8,7.9c2.5,3.1,7.4,2.1,8.6-1.6 c6.3-19.7,12.2-41.5,17.1-65c0.4-2.1,0.9-4.3,1.3-6.7c1-5.3,0.1-10.9-2.9-15.5c-2.3-3.7-5.5-6.8-9.2-9.3c-4.6-3-8.4-7-11.3-11.7 c-4.5-7.3-6.4-16-5.3-24.5c0.3-2.5,2.8-4.1,5.3-3.2c1.8,0.6,2.8,2.5,2.6,4.3c-0.8,6.8,0.6,13.4,4.2,19.2c2.3,3.7,5.3,6.8,8.9,9.2 C304.2,241.9,306.2,243.3,308.6,245.3z" class="st64"/></g><g><path d="M329.8,434c1.6-2.3,3.2-4.4,4.8-6.6c23.5-30.4,43.1-65,58.5-102.8c18.6-45.9,29.1-89.1,30.3-125.1 c1-28.6-3.9-52.7-14.1-70.9c-3.8-6.9-6.9-14.1-8.7-21.8c-13.1-55.2-43.8-69.7-62-73.4c-4.7-0.9-9.5-1.3-14.1-1.2 c-9.5,0.2-18.8-3.3-25.8-9.8C282.8,7.8,264.1,0.3,243.9,0.9C229.5,1.3,211,5.8,194,22c-6.4,6.1-14.7,9.9-23.6,10.3 c-3,0.2-6,0.5-9,1.1c-19.4,3.8-35.8,16.2-47.4,35.8c-7.3,12.3-12.8,27.4-16.2,45.1c-1.6,8.2-4.5,16.2-8.4,23.6 c-9.4,17.8-13.8,41.1-12.7,68.4c1.3,35.1,11.7,77.1,29.8,121.7c21.5,52.7,48.3,90.4,68.1,113.7c1.7,1.9,3.3,3.9,4.8,6l27.5,36.1 c7.2,9.4,18.4,15,30.2,15H265c12.5,0,24.2-6.2,31.3-16.4L329.8,434z M203.2,63.6c-2.2-2.2-2.5-5.6-0.8-8.1c2.3-3.6,4.8-6.8,7.4-9.7 c9.9-11,21.6-16.7,35.1-17.1c0.4,0,0.9,0,1.3,0c13.3,0,25.6,5.7,36.5,16.9c3.6,3.8,7.1,8.1,10.3,13c1.7,2.6,1.3,6.2-1,8.3 c-7.3,6.8-14.1,15.8-20.3,26.9c-1.7,3.1-5.5,4.4-8.8,3.2c-5.7-2.1-11.6-3.1-17.7-2.9c-3.2,0.1-6.4,0.5-9.5,1.2 c-3.2,0.7-6.5-0.5-8.3-3.3C220.3,81.3,208.9,69.4,203.2,63.6z M139.1,81.5c7.4-11.6,16.8-18.6,27.7-20.7c2.4-0.5,4.8-0.7,7.1-0.7 c8,0,15.9,2.8,23.3,8.2c7.3,5.4,14.3,13.2,20.7,23.5c2.7,4.3,1.8,10.1-2.2,13.3c-2.4,1.9-4.7,4.1-6.9,6.6 c-4.8,5.3-9,11.8-12.7,19.4c-2,4.1-7.4,5.4-11,2.5c-3.3-2.7-6.7-5-10.1-6.9c-12.9-7.2-26.1-8.9-39.1-4.8c-1,0.3-2,0.6-2.9,1 c-4.1,1.6-8.4-2.1-7.4-6.4C128.7,102.5,133.2,90.7,139.1,81.5z M214.8,116.9c8.6-9.6,18.9-14.6,30.5-14.9 c12.1-0.3,23.2,4.6,33,14.8c4,4.2,7.8,9.2,11.2,14.9c2.9,4.9,2.4,11.1-1.2,15.5c-14.1,17.2-27,40.1-38,67.5c-2.4,6-11,6-13.4-0.1 c-10.2-25.7-21.5-46.7-33.7-62.4c-3.1-4-3.8-9.3-1.8-13.9C206,128.2,210.8,121.4,214.8,116.9z M306.7,128.6 c-3.4,2.8-8.4,1.9-10.7-1.8c-3.6-5.9-7.6-11.1-11.9-15.6c-0.9-0.9-1.8-1.9-2.8-2.7c-3.5-3.2-4.2-8.5-1.8-12.6 c7.2-12.3,14.9-21.6,23.2-27.7c9.6-7.1,19.9-9.6,30.5-7.5c11,2.2,20.3,9.1,27.7,20.7c4.6,7.2,8.3,15.9,11.2,26 c1.2,4.4-3,8.3-7.3,6.8c-0.6-0.2-1.2-0.4-1.8-0.6c-14-4.3-28.6-2.3-43.3,6C315.2,122.1,310.9,125.1,306.7,128.6z M232.1,447.3 c0.5,5.1-5.7,8.1-9.4,4.5c-0.4-0.4-0.8-0.7-1.2-1.1c-21.1-19.5-60.8-62.8-89.4-133c-14.8-36.2-23.8-69.5-26.9-98.9 c-2.8-26.9-0.3-49.5,7.3-65.4c5.9-12.5,14.6-20.5,25.8-24c3.8-1.2,7.7-1.8,11.6-1.8c7.1,0,14.2,2,21.3,6 c14,7.8,37.8,29.4,60.2,88.7c5.2,13.7,6,28.7,2.1,42.8c-0.9,3.4-1.8,6.8-2.7,10.3c-16.1,63.9-16.7,109.1-2.2,155.8 C230.6,437.1,231.6,442.5,232.1,447.3z M236.3,428.8c-14-45.2-13.4-89.1,2.3-151.5c9.8-39.1,22.7-72.4,38.1-99.1 c14.3-24.6,30.4-42.4,46.7-51.6c12.8-7.2,25.2-9,37.1-5.4c11.6,3.6,20.5,11.8,26.6,24.6c7.8,16.3,10.4,39.5,7.6,67 c-3.1,30.1-12.3,64.2-27.3,101.3c-26.7,65.9-65.1,111.1-92.5,137.4c-4.8,4.6-7.3,9.9-7.3,15.8c0,2.4,0.4,4.6,1,6.7 c1.1,3.5-1.5,7.1-5.2,7.1h-21c-4.8,0-7.9-4.9-6-9.3C245.4,451.8,236.3,428.8,236.3,428.8z" class="st77"/></g><g><path d="M311.7,231.3c-0.2,0-0.4,0-0.6,0c-1.9-0.3-3.2-2.1-2.9-4c2.2-13.2,4.6-25,6.3-32.6c0.4-1.9,2.3-3.1,4.2-2.7 c1.9,0.4,3.1,2.3,2.7,4.2c-1.7,7.5-4.1,19.1-6.2,32.2C314.9,230.1,313.4,231.3,311.7,231.3z" class="st21"/></g><g><path d="M300.3,289.5c-0.3,0-0.5,0-0.8-0.1c-1.9-0.4-3.1-2.3-2.6-4.2c1.1-4.6,2-9,2.7-12c0.4-1.9,2.3-3.1,4.2-2.7 c1.9,0.4,3.1,2.3,2.7,4.2c-0.6,2.9-1.6,7.4-2.7,12C303.3,288.4,301.9,289.5,300.3,289.5z" class="st21"/></g><g><circle cx="295.5" cy="301.9" r="3.5" class="st21"/></g><g><circle cx="119.6" cy="165.9" r="3.5" class="st21"/></g><g><path d="M213.6,145.9c-0.3,0-0.6,0-0.8-0.1c-1.9-0.5-3-2.3-2.6-4.2c0.1-0.6,3.6-14.5,15.7-23.5 c1.5-1.2,3.7-0.8,4.9,0.7c1.2,1.5,0.8,3.7-0.7,4.9c-10.1,7.6-13.1,19.5-13.1,19.6C216.6,144.8,215.2,145.9,213.6,145.9z" class="st21"/></g><g><path d="M124.6,158.4c-0.6,0-1.2-0.1-1.7-0.4c-1.7-0.9-2.3-3.1-1.4-4.8c2.6-4.7,5.9-8.8,9.8-12c1.5-1.2,3.7-1,4.9,0.5 c1.2,1.5,1,3.7-0.5,4.9c-3.2,2.6-5.9,6-8.1,10C127,157.8,125.8,158.4,124.6,158.4z" class="st21"/></g></svg>