<svg xmlns="http://www.w3.org/2000/svg" xmlns:xlink="http://www.w3.org/1999/xlink" id="Layer_1" x="0" y="0" version="1.1" viewBox="0 0 500 500" xml:space="preserve" style="enable-background:new 0 0 500 500"><style type="text/css">.st0{fill:#6c371e}.st178{fill:#eccb95}.st188{fill:#dde5d8}.st189{fill:#ba7741}.st195{fill:#cc7e4a}.st205{fill:#af9f8f}.st206{fill:#be7f4e}.st207{fill:#cd9867}.st208{fill:#dcb17f}.st209{fill:#e6c290}.st210{fill:#a2643a}.st211{fill:#b17142}.st212{fill:#824a2d}.st213{fill:#925733}.st214{fill:#884c2e}.st215{fill:#9b5a38}.st216{fill:#ae6942}.st217{fill:#c0774b}.st218{fill:#916345}.st219{fill:#ab815d}.st220{fill:#c59f74}.st221{fill:#debb8c}</style><g><path d="M243,447.3c0,0,11,18.5,28.1,20.7c5.8,0.7,10.8-0.1,14.9-1.7c9-3.5,14.3-12.9,13.5-22.5 c-2-22.7-2.8-78.5,19.1-149.5c11.3-36.6,20-88.2,12.7-144.9c-4.1-31.5-51.1-27.6-50.4,4.2c1.1,49.7-3.1,98.8-13.4,136.6 C243.7,377.7,243,447.3,243,447.3z" class="st188"/><path d="M328.6,192.5c-6.8,0.5-13.8,0.6-20.8,0.5c-9-0.2-18.1-1-27.2-2.2l1.3,25.9c8.5,1,16.9,1.6,25.3,1.8 c6.3,0.1,12.6,0.1,18.9-0.3c1.4-0.1,2.9-0.2,4.3-0.3L328.6,192.5z" class="st205"/><path d="M327.2,192.3c-6,0.3-12.1,0.4-18.2,0.3c-62-1.4-106.5-25.5-108.3-26.5l-0.9-0.5l-0.6-0.9 c-9.3-13.9-14-28.8-14-44.4c0-24.9,12.3-48.5,34.6-66.4c21.8-17.6,51.3-28.3,82.9-29.9c3-0.2,6-0.2,8.9-0.2 c33.5,0.1,65,10,88.8,28.1c24.1,18.3,37.3,42.8,37.3,68.9c0,16.2-4.9,31.6-14.2,44.5l-0.6,0.8l-0.9,0.5 C392.5,181.9,360.6,190.6,327.2,192.3C327.2,192.3,327.2,192.3,327.2,192.3z" class="st178"/><path d="M405.3,55.9c-1.6-1.4-3.3-2.7-5-4c-15.5-11.8-34.4-20.2-55-24.6c-21-1.5-41.9-1.8-62.5-1.1 c-24,4.2-45.9,13.7-63.1,27.6c-0.1,0.1-0.3,0.2-0.4,0.3L220,58c59.6-9.7,121.7-9,184.5,2.3L405.3,55.9z" class="st206"/><path d="M428.3,83.8c-4.3-8.1-10.1-15.7-17.2-22.7C344,48.8,278,48,214.2,58.6c-7.3,6.7-13.3,14.1-17.9,22l1.5,7 c73.6-15.4,150.6-14.5,229.1,2.6L428.3,83.8z" class="st207"/><path d="M434.2,117.3l2.3-9.8c-1-5.8-2.7-11.4-5-16.9C349.7,72.9,269.3,72,192.3,88.2c-2.5,5.4-4.4,11.1-5.6,16.8 l2.3,9.9C267.6,97.1,350.1,97.9,434.2,117.3z" class="st208"/><path d="M434.2,142.8c-84.1-19.5-166.6-20.3-245.2-2.3l-5.7-24.8c82.3-18.8,168.7-18,256.6,2.4L434.2,142.8z" class="st209"/><path d="M299,448c-119.4-148.8-92.9-305-92.9-305l-48.7,14.8c0,0-26.5,156.2,92.9,305L299,448z" class="st188"/><path d="M191.9,225.6c-5.9,0.3-11.9,0.3-17.9,0c-7.3-0.4-14.8-1.2-22.2-2.5l4.3-25.1c6.4,1.1,12.8,1.8,19.1,2.1 c9.6,0.5,19.1,0,28.4-1.3l3.7,25.2C202.3,224.8,197.1,225.3,191.9,225.6z" class="st205"/><path d="M193,196c-5.6,0.3-11.3,0.3-17,0c-39.9-2-68.1-17.3-69.3-17.9l-0.9-0.5l-0.6-0.9c-6.4-9.5-9.7-20.1-9.7-30.8 c0-17.2,8.5-33.6,23.9-46c15-12.1,35.2-19.4,56.8-20.5c2-0.1,4.1-0.2,6.1-0.2c47.8,0.1,86.7,30.1,86.6,67c0,11.3-3.4,21.9-9.8,30.9 l-0.6,0.8l-0.9,0.5C237.5,188.8,215.7,194.8,193,196C193,196,193,196,193,196z" class="st178"/><path d="M246,100.8c-9-7.5-20.2-13.5-32.8-17.2c-19.8-1.8-39.4-2.1-58.8-0.9c-13.1,3.4-25,9.1-34.7,16.9l0.7,4.2 c40.3-6.6,82.3-6.1,124.8,1.5L246,100.8z" class="st206"/><path d="M261.7,119.3c-2.6-4.6-6-9-9.8-13c-46.9-8.8-93.2-9.4-137.8-1.6c-4,3.9-7.3,8.1-10.1,12.5l1.4,6.7 c49.7-10.4,101.9-9.8,154.9,1.7L261.7,119.3z" class="st207"/><path d="M265.3,143.9c-56.9-13.2-112.6-13.7-165.8-1.6l-3.8-16.8c55.7-12.7,114.1-12.2,173.5,1.6L265.3,143.9z" class="st208"/><path d="M265.2,161.1c-56.9-13.2-112.7-13.7-165.8-1.6l-3.8-16.8c55.7-12.7,114.1-12.2,173.5,1.6L265.2,161.1z" class="st209"/><ellipse cx="158.2" cy="124.4" class="st188" rx="4.2" ry="4.2" transform="matrix(0.4239 -0.9057 0.9057 0.4239 -21.5481 214.9537)"/><ellipse cx="206.1" cy="114.3" class="st188" rx="4.2" ry="4.2" transform="matrix(0.9502 -0.3115 0.3115 0.9502 -25.3406 69.8932)"/><ellipse cx="181.3" cy="100" class="st188" rx="4.2" ry="4.2" transform="matrix(0.9502 -0.3115 0.3115 0.9502 -22.1297 61.4454)"/><ellipse cx="156.1" cy="101.1" class="st188" rx="4.2" ry="4.2" transform="matrix(0.4239 -0.9057 0.9057 0.4239 -1.5762 199.6307)"/><ellipse cx="136.9" cy="114.4" class="st188" rx="4.2" ry="4.2" transform="matrix(0.4239 -0.9057 0.9057 0.4239 -24.7963 189.876)"/><path d="M251,444.7c112.2-96.2,114.3-218.9,114.3-218.9l35,18.3c0,0-2.2,122.7-114.3,218.9L251,444.7z" class="st188"/><path d="M381.7,286.6c-10.1,0.5-20,0-29.7-1.7l4.3-25.1c12.4,2.1,25.4,2,38.6-0.3l4.4,25.1 C393.4,285.6,387.5,286.3,381.7,286.6z" class="st205"/><path d="M382.4,264.7c-22.9,1.2-44.5-3.5-64.4-14l-0.9-0.5l-0.6-0.8c-5.1-7.1-7.7-15.6-7.7-24.5 c0-27.6,27.9-50.6,63.4-52.5c1.6-0.1,3.2-0.1,4.8-0.1c18,0,34.9,5.4,47.7,15.1c13.1,10,20.4,23.4,20.3,37.7 c0,8.2-2.5,16.4-7.3,23.8c-0.7,1.6-2.6,2.4-6,4c-2.4,1.1-6.2,2.7-11.1,4.3C412.1,260.1,398.4,263.8,382.4,264.7z" class="st189"/><path d="M441.1,222.3c-41.1-9.5-84.3-9.3-128.4,0.8l-3-13c46.1-10.5,91.3-10.8,134.4-0.8L441.1,222.3z" class="st210"/><path d="M441,235.7c-41.1-9.5-84.3-9.3-128.4,0.8l-3-13c46.1-10.5,91.3-10.8,134.4-0.8L441,235.7z" class="st211"/><path d="M425.7,188.2c-0.3-0.2-0.6-0.5-0.9-0.7c-6.3-4.8-13.6-8.5-21.5-11.1c-17.9-1.4-36.1-1.2-54.5,0.7 c-8.1,2.8-15.3,6.9-21.3,11.8l0.8,4.5c32.9-5.8,65.5-6.1,96.7-0.9L425.7,188.2z" class="st212"/><path d="M437.9,201.4c-1.8-2.8-3.9-5.5-6.4-8c-35.5-6.5-72.4-6.2-109.9,0.9c-2.5,2.7-4.6,5.5-6.4,8.5l1.3,6.2 c41.1-8.8,81.5-9.1,120-0.9L437.9,201.4z" class="st213"/><ellipse cx="363.6" cy="214.8" class="st188" rx="4.2" ry="4.2" transform="matrix(0.4239 -0.9057 0.9057 0.4239 14.9453 453.0064)"/><ellipse cx="411.5" cy="204.6" class="st188" rx="4.2" ry="4.2" transform="matrix(0.9502 -0.3115 0.3115 0.9502 -43.2649 138.3714)"/><ellipse cx="361.5" cy="191.4" class="st188" rx="4.2" ry="4.2" transform="matrix(0.4239 -0.9057 0.9057 0.4239 34.9172 437.6833)"/><ellipse cx="342.2" cy="204.8" class="st188" rx="4.2" ry="4.2" transform="matrix(0.4239 -0.9057 0.9057 0.4239 11.6972 427.9287)"/><path d="M272.8,437.1C151.2,353.6,120,238.4,120,238.4l-22.4,17.2c0,0,27.5,115.4,152.8,198.8L272.8,437.1z" class="st188"/><path d="M100.5,263.1l0.1,2.2c1.8,5.6,4.6,13.3,8.6,22.6c9.8-1,19.2-3.3,28.1-6.7c-4.4-8.9-7.8-16.8-10.4-23.3 C118.6,261,109.8,262.7,100.5,263.1z" class="st205"/><path d="M103.3,269.2c-20.6,1.1-35.6-3.9-36.2-4.1l-0.8-0.3l-0.6-0.6c-5-5.2-8.3-11.4-9.4-18 c-2-11.2,1.8-22.7,10.7-32.3c8.7-9.4,21.2-15.9,35.3-18.4c2.9-0.5,5.8-0.8,8.7-1c26.5-1.4,48.4,12.4,52,32.8c1.2,7,0.3,14-2.7,20.3 l-0.3,0.7l-0.6,0.5C143.3,261.2,124.4,268.1,103.3,269.2C103.3,269.2,103.3,269.2,103.3,269.2z" class="st195"/><path d="M67.6,217.8c23.7-8.4,49.3-12.6,75.9-12.7l0-3.8c-5.3-3-11.4-5.1-18-6.2c-14.8,1.1-29.1,3.4-43,7 c-5.9,3.1-11.1,7-15.3,11.7c-0.2,0.2-0.4,0.5-0.6,0.7L67.6,217.8z" class="st214"/><path d="M149,205c-30.4-0.4-59.5,4.4-86.5,14.5c-1.6,2.3-2.9,4.7-3.9,7.2l2,4.9c29-11.7,60.7-17.1,94.2-15.8l0.2-5.1 C153.2,208.6,151.2,206.7,149,205z" class="st215"/><path d="M56.6,233c-0.2,1.1-0.4,2.2-0.6,3.3l3,7.1c30.9-13.1,64.8-18.9,100.7-17.1l0.4-7.9c-0.5-1-1-1.9-1.5-2.8 C122.4,214.1,88.1,220,56.6,233z" class="st216"/><path d="M161.7,236.8l0.5-10.6c-37.6-1.9-73,4.2-105.4,17.9l4.2,9.8C91.8,240.8,125.7,235,161.7,236.8z" class="st217"/><ellipse cx="118.6" cy="206.6" class="st188" rx="4.2" ry="4.2" transform="matrix(0.6249 -0.7807 0.7807 0.6249 -116.8258 170.0968)"/><ellipse cx="94.4" cy="212.5" class="st188" rx="4.2" ry="4.2" transform="matrix(0.99 -0.1407 0.1407 0.99 -28.9593 15.4002)"/><ellipse cx="81.1" cy="231.3" class="st188" rx="4.2" ry="4.2" transform="matrix(0.99 -0.1407 0.1407 0.99 -31.737 13.7178)"/><path d="M223.8,324c-8.3,0-16.5-0.5-24.5-1.4c4.8,38.6,16.4,82.4,39.7,128.6c4.6,9.1,13.9,15,24.1,15h0 c16.2,0,26.5-16.9,19.5-31.5c-19.3-39.8-29.4-78.3-34.2-112.4C242.1,323,230,324,223.8,324z" class="st188"/><path d="M233.4,352.9c-10.2,0.5-21.8,0.2-32.8-1.6l4.3-25.1c15.1,2.6,32.1,1.5,42.1-0.3l4.4,25.1 C246.3,351.9,240.2,352.6,233.4,352.9z" class="st205"/><path d="M234.1,331.8c-31.5,1.6-61.1-5.1-87.9-19.9l-0.7-0.4l-0.5-0.7c-6.3-9.2-9.5-20.2-9.3-31.6 c0.4-17.2,9.1-33.5,24.5-45.8c15.1-12,35.4-19.2,57.1-20.4c2.8-0.1,5.7-0.2,8.6-0.1c23.5,0.5,45.6,8,62,21 c16.7,13.3,25.7,30.7,25.3,49.1c-0.2,10.9-3.9,21.7-10.6,31.1l-0.5,0.7l-0.8,0.4C300.3,315.9,272.9,329.8,234.1,331.8z" class="st178"/><path d="M290,235.6c-0.7-0.6-1.4-1.2-2.1-1.7c-10.7-8.5-23.8-14.6-38.1-18c-16.8-1.2-33.9-1.3-51.1-0.4 c-14.5,3.2-27.8,9.3-38.5,17.8c-0.2,0.1-0.3,0.3-0.5,0.4l0.6,3.7c44.1-6.8,87.5-6.3,129,1.4L290,235.6z" class="st218"/><path d="M305.8,254.3c-3-5.2-6.8-10.1-11.4-14.6c-45-8.7-91.8-9.2-139.5-1.6c-4.7,4.5-8.6,9.5-11.6,14.7l1,5.3 c55.1-10.7,109-10,160.2,1.9L305.8,254.3z" class="st219"/><path d="M140.4,258.4c-1.5,3.3-2.6,6.8-3.4,10.3l1.7,8.2c59.1-12.2,116.8-11.4,171.4,2.4l2.1-8.1 c-0.7-3.6-1.8-7.1-3.2-10.5C255,247.9,198.3,247.1,140.4,258.4z" class="st220"/><path d="M313.2,279.6c-56.7-14.2-116.3-15-177.4-2.6c0,0.7-0.1,1.4-0.1,2.2c0,1,0,2,0,3l2.6,12.5 c59.1-12.2,116.8-11.4,171.4,2.4l3.5-14c0,0,0,0,0,0C313.3,281.9,313.3,280.7,313.2,279.6z" class="st221"/><path d="M328.6,457.6c54.7-56.9,78.6-118.4,89-160.4c2.7-10.7,10.2-19.6,20.4-23.9c4.5-1.9,7.3-3.4,8-3.8 c3.6-1.9,6.6-4.7,8.9-8.1c7.4-11,11.4-23.5,11.4-36.2c0-12.6-3.7-24.7-10.7-35.5c-6.5-10-7.6-22.5-3.3-33.6 c4.3-11.1,6.5-23.1,6.6-35.4c0-16.9-4.3-33.2-12.7-48.4c-7.8-14.1-18.9-26.7-32.9-37.4C385.8,14.1,349.7,2.6,311.6,2.5 c-3.4,0-6.7,0.1-10.1,0.3C258,5,219,22.2,193.6,49.2c-4.8,5.1-11.4,8.3-18.4,8.9l0,0c-26.1,1.4-50.6,10.3-69.1,25.2 c-20.4,16.5-31.7,38.7-31.8,62.5c0,6.3,0.8,12.6,2.4,18.7c2,7.9-1.4,16.2-8.4,20.3c-6.6,3.9-12.5,8.6-17.5,14.1 c-13.5,14.6-19.4,33.3-16.3,51.2c2,11,7.2,21.2,15.3,29.5c2.9,3,6.5,5.2,10.4,6.5v0c0.6,0.2,2.9,0.9,6.5,1.8 c10,2.4,18.5,9.2,22.8,18.5c6.4,14,15.1,30.5,26.7,48.3c22.1,34,49.1,64.6,80.6,91.1c8.3,7,15,15.8,19.6,25.6 c2.1,4.6,5.2,8.8,9,12.4c9.7,9.2,23.9,14.3,37.9,13.6c33.8-1.8,48.6-17.2,54.3-25.9C320.9,466.5,324.5,461.8,328.6,457.6z M206.9,344c-0.9-4.7,2.9-9,7.7-8.7c6.5,0.4,13,0.4,19.7,0.1c1.2-0.1,2.3-0.1,3.4-0.2c4.6-0.3,8.8,2.8,9.7,7.4 c6.3,32.6,16.7,64.1,31.3,94.1c2.7,5.6,2.4,12.1-0.9,17.3c-3.2,5.2-8.6,8.1-14.7,8.1c-8.6,0-16.4-4.9-20.3-12.7 C225.6,415.4,213.6,380,206.9,344z M193.7,360.7c-0.2-0.3-0.4-0.6-0.6-1c-1.2-2.9-2.4-5.8-3.6-8.7c-1.9-4.8-3.7-9.6-5.5-14.4 c-1-2.8,1.5-5.6,4.4-5c1.8,0.4,3.7,0.8,5.5,1.1c1.6,0.3,2.8,1.5,3.1,3.1c1.6,10.3,3.7,20.5,6.2,30.6c0.4,1.8-1.8,2.9-3,1.6 C197.8,365.6,195.7,363.1,193.7,360.7z M156.9,313.4c-7-3.3-12.5-9.2-15-16.6c-1.9-5.6-2.8-11.5-2.7-17.6 c0.7-33.6,35.1-60.5,78.3-62.7c2.7-0.1,5.5-0.2,8.3-0.1c47.1,1,84.6,30.8,83.9,66.5c0,1.2-0.1,2.3-0.2,3.5 c-1.4,14.9-11.7,27.4-25.9,32.2c-11.7,4-29.1,8.6-49.7,9.6C211.1,329.5,184.2,326.4,156.9,313.4z M382.1,260.4 c-15.6,0.8-33.6-1.1-52.1-8.7c-8.5-3.5-14.9-11-16.5-20.1c-0.4-2.2-0.6-4.4-0.6-6.7c0-25.6,26.3-46.5,59.4-48.3 c1.5-0.1,3-0.1,4.6-0.1c35.3,0.1,63.9,21.8,63.8,48.6c0,0.1,0,0.2,0,0.2c-0.1,12.2-8,23-19.5,27.1 C412.1,255.8,398.4,259.6,382.1,260.4z M286.3,432.9c-0.3-0.5-0.5-1.1-0.8-1.6c-2.7-5.7-1.8-12.5,2.4-17.2 c36.1-40.9,55.7-82.8,66.2-113.6c2.8-8.3,5.1-16.2,7-23.4c1.3-4.8,5.7-8.2,10.7-8.1c3.5,0.1,7.1,0.1,10.7-0.1 c0.8,0,1.5-0.1,2.3-0.1c4.3-0.3,7.8,3.6,6.9,7.9c-2.2,11.1-5.6,24.5-10.6,39.4c-12,35.2-36.2,85.3-84.2,131.2 c-2.9,2.8-7.8,0.8-7.9-3.2C289,440.3,288.1,436.5,286.3,432.9z M306.8,320.9c-5.8,24.2-9.3,47.1-10.9,65.6 c-0.3,3.5-1.6,6.8-3.8,9.6c-2.5,3.1-5.1,6.2-7.7,9.3c-3.1,3.6-9,2.6-10.7-1.9c-5.9-15.5-10.8-31.3-14.6-47.4 c-0.7-3.1-0.8-6.3-0.2-9.5c0.4-2,0.8-4,1.2-6c1-5.2,5-9.4,10.2-10.7c20.2-5,32.9-11.6,33-11.7l0,0 C305.1,317.2,307.3,318.9,306.8,320.9z M290.1,231.2c-0.8-0.6-1.5-1.2-2.3-1.8c-3.1-2.3-4.9-6.1-4.6-9.9c0.5-5.5,0.8-11.2,1.1-16.9 c0.2-4,3.7-7,7.6-6.7c5.5,0.5,11.1,0.8,16.9,1l0,0c2.1,0,3.3,2.3,2.3,4.1c-4.3,7.4-6.7,15.5-6.7,23.9c0,9.8,2.9,19.1,8.5,27l0,0 c0.8,1.1,1.8,2,2.9,2.6l0,0c0.3,0.2,0.6,0.3,0.9,0.5c3.7,1.9,5.7,6.1,4.8,10.2c-0.7,3.2-1.4,6.3-2.1,9.2c-0.5,2.1-3.6,2-3.9-0.2 C311.1,246.5,290.1,231.2,290.1,231.2z M194.3,213c-8.1,2.1-15.9,5.1-22.9,8.9c-2.7,1.5-6,0.2-7.2-2.7c-0.6-1.5-1.4-3-2.2-4.5 c-1.7-2.9-2.7-6.2-2.8-9.6c0-0.2,0-0.3,0-0.5c-0.1-3.2,2.7-5.6,5.8-5.3c3.5,0.4,7.1,0.7,10.7,0.9c5.8,0.3,11.7,0.3,17.4,0 c0.4,0,0.8,0,1.3-0.1c2.9-0.2,5.4,2,5.5,4.9c0,0,0,0.1,0,0.1C200.3,208.8,197.9,212.1,194.3,213z M192.8,191.7 c-5.7,0.3-11.2,0.3-16.6,0c-23.3-1.2-42.7-7.1-54.6-11.7c-10.6-4.1-18.5-13.2-20.8-24.3c-0.7-3.2-1-6.5-1-9.9 c0.1-33.1,33.9-60.1,76.7-62.3c1.9-0.1,3.9-0.2,5.9-0.1c45.6,0.1,82.4,28.2,82.4,62.7c0,5.3-0.8,10.4-2.4,15.3 c-2.6,7.9-8.6,14.3-16.2,17.7C227.6,187.3,209.5,190.9,192.8,191.7z M273.2,146.2c0.1-19.4-9.7-37.6-27.4-51.1 c-8.5-6.4-18.3-11.5-29-14.9c-6.2-2-8.2-9.9-3.6-14.6c20.6-21.2,52.9-35.5,89.7-37.5c2.9-0.1,5.8-0.2,8.7-0.2 c67.4,0.1,121.9,41.6,121.8,92.7c0,10.1-2,19.9-6,29c-3.5,8.1-10.1,14.6-18.2,18.2l-0.4,0.2c-4.5,2-9.5,2.5-14.4,1.6 c-5.6-1.1-11.5-1.7-17.4-1.7c-1.7,0-3.4,0-5,0.1l0,0l0,0c-17.9,0.9-34.6,7-47,17l0,0c-2.5,2-5.6,3.1-8.8,3.2c-2.4,0-4.7,0-7-0.1 c-13-0.3-25.2-1.6-36.4-3.5c-5.8-1-8.8-7.4-6-12.5C270,166.4,273.1,157.7,273.2,146.2z M138,255c-1,2.1-2.8,3.8-5,4.6 c-10.5,4-20.8,5.7-29.9,6.2c-11.1,0.6-20.5-0.7-26.7-1.9c-6.5-1.3-12.1-5.6-14.7-11.7c-0.9-2.1-1.6-4.3-2-6.6 c-3.7-21,15.7-42,43.3-46.9c2.8-0.5,5.6-0.8,8.3-0.9c0,0,31.9-1.9,46,25.3c1.7,3.3,0.9,7.3-1.9,9.7 C145.6,241.2,140.3,250.3,138,255z M211.5,396c3,9,6.3,18,9.9,26.9c1.6,4-3.2,7.5-6.5,4.8c-66.9-55.8-97.7-118.3-110-150.4 c-0.9-2.3,0.7-4.8,3.1-5c4.1-0.4,10.2-1.2,16.5-2.8c1.7-0.5,3.6,0.4,4.3,2c0.6,1.4,1.3,2.9,2,4.3c0.9,1.9,1.4,3.9,1.5,5.9 c0.2,5.3,1.7,17.3,10.1,31.3c0.4,0.7,1.4,1.6,2.2,1.9l0,0c2.5,1.4,5.1,2.7,7.6,4c2,1,3.8,2.5,5,4.4c7.4,11.5,16.4,24,27,36.9 c0,0,6.6,8.4,19.2,21.8C207,386.1,209.8,390.8,211.5,396z" class="st0"/><ellipse cx="237.2" cy="233.6" class="st188" rx="4.2" ry="4.2" transform="matrix(0.4239 -0.9057 0.9057 0.4239 -74.9176 349.4748)"/><ellipse cx="189.3" cy="243.8" class="st188" rx="4.2" ry="4.2" transform="matrix(0.9502 -0.3115 0.3115 0.9502 -66.5255 71.1238)"/><ellipse cx="239.3" cy="257" class="st188" rx="4.2" ry="4.2" transform="matrix(0.4239 -0.9057 0.9057 0.4239 -94.8895 364.7978)"/><ellipse cx="258.6" cy="243.6" class="st188" rx="4.2" ry="4.2" transform="matrix(0.4239 -0.9057 0.9057 0.4239 -71.6695 374.5525)"/><ellipse cx="329.5" cy="79.6" class="st188" rx="4.2" ry="4.2" transform="matrix(0.9377 -0.3475 0.3475 0.9377 -7.1369 119.4748)"/><ellipse cx="271.3" cy="62.2" class="st188" rx="4.2" ry="4.2" transform="matrix(0.389 -0.9212 0.9212 0.389 108.4933 287.9304)"/><ellipse cx="303.5" cy="47.1" class="st188" rx="4.2" ry="4.2" transform="matrix(0.389 -0.9212 0.9212 0.389 142.0475 308.3338)"/><ellipse cx="334.4" cy="51" class="st188" rx="4.2" ry="4.2" transform="matrix(0.9377 -0.3475 0.3475 0.9377 3.1324 119.405)"/><ellipse cx="356.9" cy="69.5" class="st188" rx="4.2" ry="4.2" transform="matrix(0.9377 -0.3475 0.3475 0.9377 -1.9001 128.363)"/></g></svg>