<svg xmlns="http://www.w3.org/2000/svg" xmlns:xlink="http://www.w3.org/1999/xlink" id="Layer_1" x="0" y="0" version="1.1" viewBox="0 0 500 500" xml:space="preserve" style="enable-background:new 0 0 500 500"><style type="text/css">.st2{fill:#595c13}.st18{fill:#fff}.st71{clip-path:url(#SVGID_2_)}.st153{fill:#b26a39}.st154{fill:#b8b54b}.st157{clip-path:url(#SVGID_5_)}.st159{clip-path:url(#SVGID_10_)}.st160{clip-path:url(#SVGID_11_)}.st177{fill:#737c00}</style><g><defs><path id="SVGID_4_" d="M-19.2,435.2c19.3,19.3,18.5,51-2.2,69.3c-17.8,15.7-45,15.7-62.8,0c-20.7-18.3-21.5-50-2.2-69.3 c7.5-7.5,16.4-7.2,23.3-5.5c6.7,1.7,13.7,1.7,20.4,0C-35.7,428-26.7,427.7-19.2,435.2z"/></defs><clipPath id="SVGID_2_"><use xlink:href="#SVGID_4_" style="overflow:visible"/></clipPath><g class="st71"><g><defs><rect id="SVGID_6_" width="48.6" height="48.6" x="-30.1" y="432.5"/></defs><defs><rect id="SVGID_7_" width="48.6" height="48.6" x="-30.1" y="432.5"/></defs><defs><rect id="SVGID_8_" width="48.6" height="48.6" x="-30.1" y="432.5"/></defs><clipPath id="SVGID_3_"><use xlink:href="#SVGID_6_" style="overflow:visible"/></clipPath><clipPath id="SVGID_5_" style="clip-path:url(#SVGID_3_)"><use xlink:href="#SVGID_7_" style="overflow:visible"/></clipPath><clipPath id="SVGID_9_" class="st157"><use xlink:href="#SVGID_8_" style="overflow:visible"/></clipPath></g></g><g class="st71"><defs><path id="SVGID_12_" d="M-19.2,435.2c19.3,19.3,18.5,51-2.2,69.3c-17.8,15.7-45,15.7-62.8,0c-20.7-18.3-21.5-50-2.2-69.3 c7.5-7.5,16.4-7.2,23.3-5.5c6.7,1.7,13.7,1.7,20.4,0C-35.7,428-26.7,427.7-19.2,435.2z"/></defs><clipPath id="SVGID_10_"><use xlink:href="#SVGID_12_" style="overflow:visible"/></clipPath><g class="st159"><g><g><defs><rect id="SVGID_14_" width="48.6" height="48.6" x="-30.1" y="481.1"/></defs><defs><rect id="SVGID_15_" width="48.6" height="48.6" x="-30.1" y="481.1"/></defs><clipPath id="SVGID_11_"><use xlink:href="#SVGID_14_" style="overflow:visible"/></clipPath><clipPath id="SVGID_13_" class="st160"><use xlink:href="#SVGID_15_" style="overflow:visible"/></clipPath></g></g></g></g></g><path d="M415,312.6c0,95.3-77.2,172.5-172.5,172.5S70,407.9,70,312.6s64-257,172.5-257S415,217.3,415,312.6z" class="st154"/><g><g><g><path d="M102.7,360.2c0.7-0.7,1.1-1.6,1.1-2.6c0-1.1-0.5-2.1-1.1-2.6c-1.4-1.4-3.8-1.5-5.2-0.1 c-0.7,0.6-1.1,1.6-1.1,2.6c0,0.9,0.4,1.9,1,2.5c0.6,0.8,1.6,1.2,2.6,1.2C101,361.3,101.9,360.9,102.7,360.2z" class="st177"/></g><g><path d="M90.4,349.3c0-1-0.4-1.9-1.1-2.6c-0.7-0.6-1.7-1-2.7-1c-1,0-1.9,0.4-2.5,1c-0.7,0.7-1.1,1.6-1.1,2.6 c0,0.9,0.4,1.9,1,2.5c0.7,0.8,1.7,1.2,2.7,1.2s1.9-0.4,2.6-1.1C90,351.2,90.4,350.3,90.4,349.3z" class="st177"/></g><g><path d="M133.1,343.2c0,1,0.4,1.9,1.1,2.6s1.7,1.1,2.6,1.1c1,0,2-0.4,2.6-1c0.7-0.7,1.1-1.6,1.1-2.6 s-0.4-1.9-1.1-2.6c-0.7-0.7-1.6-1.1-2.6-1.1c-1,0-1.9,0.3-2.6,1C133.5,341.2,133.1,342.2,133.1,343.2z" class="st177"/></g><g><path d="M163.4,357.9c-0.9,0.1-1.8,0.5-2.2,1c-0.6,0.5-1.2,1.3-1.2,2.7c0,1.1,0.4,2.1,0.9,2.5 c0.7,0.8,1.6,1.2,2.7,1.2c0.9,0,1.8-0.4,2.7-1.2c0.7-0.8,1-1.7,1-2.6c0-1-0.4-1.9-1.1-2.6C165.5,358.2,164.4,357.9,163.4,357.9z" class="st177"/></g><g><path d="M176.7,365.2c-1,0.1-1.9,0.5-2.3,1c-0.8,0.7-1.2,1.6-1.2,2.7c0,1,0.4,1.9,1,2.4c0.7,0.8,1.6,1.2,2.7,1.2 c1,0,1.9-0.4,2.6-1.1s1.1-1.7,1.1-2.6c0-1.1-0.4-2-1.1-2.6C178.8,365.5,177.8,365.2,176.7,365.2z" class="st177"/></g><g><path d="M185.6,347.8c0.7,0.7,1.6,1.1,2.6,1.1c0.9,0,1.9-0.4,2.7-1.1c0.6-0.6,1-1.6,1-2.6c0-0.9-0.3-1.8-1-2.6 c-0.7-0.8-1.7-1.1-2.8-1.1c-1,0.1-1.9,0.5-2.4,1.1c-0.7,0.7-1.1,1.6-1.1,2.6C184.6,346.2,185,347.1,185.6,347.8z" class="st177"/></g><g><path d="M250.2,337.4c-0.7,0.7-1.1,1.6-1.1,2.6c0,1,0.4,1.9,1.1,2.6c0.7,0.7,1.6,1.1,2.6,1.1c1,0,2-0.4,2.6-1.1 c0.7-0.6,1.1-1.6,1.1-2.6c0-1-0.4-1.9-1.1-2.6c-0.7-0.6-1.6-1-2.6-1C251.8,336.4,250.9,336.7,250.2,337.4z" class="st177"/></g><g><path d="M296.3,344.7c-0.7,0.7-1.1,1.7-1.1,2.6c0,0.9,0.4,1.7,1.1,2.6c0.7,0.7,1.6,1.1,2.6,1.1s2-0.4,2.6-1.1 c0.7-0.7,1.1-1.7,1.1-2.6c0-1-0.4-2-1.1-2.6C300.1,343.3,297.7,343.3,296.3,344.7z" class="st177"/></g><g><path d="M218.5,334.4c-0.7,0.7-1.1,1.6-1.1,2.6c0,0.9,0.3,1.8,1,2.6c0.7,0.7,1.6,1.1,2.6,1.1c1,0,2-0.5,2.7-1.1 c0.7-0.7,1.1-1.7,1.1-2.6s-0.4-1.9-1.1-2.6C222.2,333.1,219.8,333.1,218.5,334.4z" class="st177"/></g><g><path d="M161.1,334.4c-0.7,0.7-1.1,1.6-1.1,2.6c0,1.1,0.4,2.1,0.9,2.5c0.7,0.8,1.6,1.2,2.7,1.2 c1,0,1.9-0.4,2.7-1.1c0.7-0.7,1.1-1.6,1.1-2.6c0-0.9-0.4-1.9-1.1-2.6C164.9,333.1,162.5,333,161.1,334.4z" class="st177"/></g><g><path d="M114.8,339.6c0.7-0.7,1.1-1.6,1.1-2.6c0-0.9-0.3-1.9-1-2.5c-1.3-1.5-4-1.4-5.2-0.1 c-0.7,0.7-1.1,1.6-1.1,2.6c0,1.1,0.4,2,1,2.5c0.6,0.8,1.6,1.2,2.6,1.2S114.2,340.3,114.8,339.6z" class="st177"/></g><g><path d="M269.2,326.4c1,0,1.9-0.4,2.5-1.1c0.8-0.6,1.2-1.6,1.2-2.6c0-1-0.4-1.9-1.1-2.6c-0.7-0.7-1.6-1.1-2.6-1.1 s-1.9,0.4-2.6,1.1c-0.7,0.7-1.1,1.6-1.1,2.6c0,1.1,0.5,2.1,1.1,2.6C267.2,326,268.2,326.4,269.2,326.4z" class="st177"/></g><g><path d="M284.5,371.5c1,0,1.9-0.4,2.6-1.1s1.1-1.6,1.1-2.6c0-1-0.4-1.9-1.1-2.6c-0.7-0.7-1.6-1.1-2.6-1.1 s-1.9,0.4-2.6,1.1c-0.7,0.7-1.1,1.6-1.1,2.6c0,1,0.4,1.9,1.1,2.6S283.5,371.5,284.5,371.5z" class="st177"/></g><g><path d="M209.2,365.3c0.7-0.7,1.1-1.6,1.1-2.6s-0.3-1.8-1.1-2.7c-0.7-0.7-1.7-1-2.7-1c-1,0.1-1.9,0.4-2.5,1.1 c-0.7,0.7-1.1,1.6-1.1,2.6s0.4,1.9,1.1,2.6c0.7,0.7,1.7,1.1,2.6,1.1C207.6,366.4,208.5,366,209.2,365.3z" class="st177"/></g><g><path d="M249.7,374.6c0.9,0,1.9-0.4,2.6-1c0.7-0.7,1.1-1.6,1.1-2.6s-0.4-2-1-2.6c0,0-0.1-0.1-0.1-0.1 c0,0-0.1-0.1-0.1-0.1c-1.5-1.4-3.7-1.3-5.2,0.1c-0.6,0.7-1,1.6-1,2.6c0,1.1,0.4,2,1,2.5c0,0,0,0,0.1,0.1c0,0,0,0,0,0 C247.8,374.2,248.8,374.6,249.7,374.6z" class="st177"/></g><g><path d="M309.9,240.7c0-1-0.4-1.9-1.1-2.6c-0.7-0.7-1.6-1.1-2.6-1.1c-1,0-1.9,0.3-2.6,1c-0.7,0.7-1.1,1.6-1.1,2.6 s0.4,1.9,1.1,2.6s1.6,1.1,2.6,1.1c0.9,0,1.9-0.4,2.5-0.9C309.5,242.7,309.9,241.7,309.9,240.7z" class="st177"/></g><g><path d="M348.1,234.8c-1,0.1-1.9,0.5-2.4,1c-0.8,0.7-1.2,1.7-1.2,2.7c0,0.9,0.4,1.9,1,2.5c0.7,0.8,1.7,1.2,2.7,1.2 c1,0,1.9-0.3,2.6-1.2c0.7-0.7,1.1-1.7,1.1-2.6c0-1-0.4-1.9-1.1-2.6C350.1,235.2,349.2,234.8,348.1,234.8z" class="st177"/></g><g><path d="M376.5,241.7c0-1-0.4-2-1.1-2.7c-1.4-1.4-3.8-1.4-5.2,0c-0.7,0.7-1.1,1.6-1.1,2.6c0,1,0.4,1.9,1.1,2.6 c0.7,0.7,1.6,1.1,2.6,1.1s1.9-0.4,2.6-1C376.1,243.6,376.5,242.6,376.5,241.7z" class="st177"/></g><g><path d="M395.4,360c-1,0-2,0.4-2.6,1c-0.7,0.7-1.1,1.6-1.1,2.6s0.4,1.9,1,2.5c0.6,0.8,1.6,1.2,2.6,1.2 s1.9-0.4,2.7-1.1c0.7-0.7,1.1-1.6,1.1-2.6s-0.4-1.9-1.1-2.6C397.3,360.5,396.4,360,395.4,360z" class="st177"/></g><g><path d="M311.7,310.3c0,1,0.4,1.9,1.1,2.6c0.7,0.7,1.6,1.1,2.6,1.1c0.9,0,1.9-0.4,2.7-1c0.6-0.7,1-1.6,1-2.6 c0-1.1-0.4-2-1.1-2.7c-1.4-1.4-3.7-1.4-5.2,0C312.1,308.4,311.7,309.3,311.7,310.3z" class="st177"/></g><g><path d="M376.3,263.6c-0.7,0.7-1.1,1.6-1.1,2.6c0,1.1,0.5,2.1,1.1,2.6c0.7,0.7,1.6,1.1,2.6,1.1s1.9-0.4,2.4-1 c0.8-0.7,1.2-1.7,1.2-2.7c0-1-0.3-1.9-1-2.6C380.3,262.3,377.5,262.3,376.3,263.6z" class="st177"/></g><g><path d="M365.2,366.2c-0.7,0.7-1.1,1.6-1.1,2.6c0,0.9,0.3,1.8,1,2.6c0.7,0.7,1.6,1.1,2.6,1.1c1,0,2-0.4,2.6-0.9 c0.8-0.7,1.2-1.7,1.2-2.7s-0.4-2-1.1-2.7C368.9,364.8,366.5,364.8,365.2,366.2z" class="st177"/></g><g><path d="M322.5,268c0.9,0,1.8-0.4,2.7-1c0.7-0.8,1-1.7,1-2.6c0-1-0.4-2-1.1-2.7c-1.5-1.4-3.8-1.4-5.2,0 c-0.7,0.7-1.1,1.6-1.1,2.6c0,1.1,0.5,2.1,1.1,2.6C320.7,267.6,321.6,268,322.5,268z" class="st177"/></g><g><path d="M314.9,339.6c-0.6-0.7-1.5-1.1-2.5-1.1s-2,0.3-2.8,1.1c-0.7,0.7-1,1.6-1,2.5c0,1.1,0.5,2.1,1.1,2.6 c0.7,0.7,1.6,1.1,2.6,1.1c0.9,0,1.7-0.4,2.5-1.1c0.7-0.7,1.1-1.6,1.1-2.6C315.9,341.2,315.6,340.3,314.9,339.6z" class="st177"/></g><g><path d="M343,282.2c1,0,1.9-0.4,2.6-1.1c0.7-0.7,1.1-1.7,1.1-2.6c0-1-0.4-1.9-1.1-2.6c-1.4-1.4-3.8-1.4-5.2,0 c-0.7,0.7-1.1,1.6-1.1,2.6s0.4,1.9,1,2.5C341,281.8,342,282.2,343,282.2z" class="st177"/></g><g><path d="M362.5,286.4c1,0,1.9-0.4,2.6-1.1s1.1-1.7,1.1-2.6c0-1-0.4-1.9-1.1-2.6c-0.7-0.6-1.7-1-2.7-1 c-1,0-1.9,0.4-2.4,0.9c-0.8,0.6-1.2,1.6-1.2,2.7c0,1,0.4,1.9,1.1,2.6S361.5,286.4,362.5,286.4z" class="st177"/></g><g><path d="M334.2,356.5c0,1,0.4,1.9,1.1,2.6s1.7,1.1,2.6,1.1c0.9,0,1.8-0.4,2.6-1.2c0.7-0.7,1.1-1.7,1.1-2.6 c0-1-0.4-1.9-1.1-2.6c-0.7-0.6-1.7-1.1-2.7-1c-1,0.1-1.9,0.5-2.5,1.1C334.6,354.6,334.2,355.5,334.2,356.5z" class="st177"/></g><g><path d="M364.6,326.4c1,0,2-0.4,2.6-1.1c0.7-0.7,1.1-1.7,1.1-2.6c0-1-0.4-2-1.1-2.6c-1.4-1.4-3.8-1.4-5.1-0.1 c-0.8,0.7-1.2,1.7-1.2,2.7c0,1,0.4,1.9,1.1,2.6S363.6,326.4,364.6,326.4z" class="st177"/></g><g><path d="M346.1,309.7c-0.9,0-1.9,0.4-2.6,1.1c-0.7,0.8-1,1.7-1,2.6c0,1,0.4,1.9,1.1,2.6c0.7,0.7,1.6,1.1,2.6,1.1 s2-0.4,2.5-1.2c0.7-0.7,1.1-1.6,1.1-2.6s-0.4-1.9-1.1-2.6C348,310.1,347.1,309.7,346.1,309.7z" class="st177"/></g><g><path d="M393.8,329.3c-0.7,0.7-1.1,1.6-1.1,2.6c0,1,0.4,2,1,2.6c0.7,0.7,1.6,1.1,2.6,1.1c1.1,0,2.1-0.5,2.6-0.9 c0.8-0.7,1.2-1.7,1.2-2.7s-0.4-2-1.1-2.7C397.5,327.9,395.2,327.9,393.8,329.3z" class="st177"/></g><g><path d="M382.5,296.4c-0.7,0.8-1.1,1.7-1.1,2.6c0,1,0.4,1.9,1.1,2.6s1.6,1.1,2.6,1.1c1,0,2-0.4,2.6-1.2 c0.7-0.6,1.1-1.6,1.1-2.6c0-0.8-0.3-1.7-1.1-2.6C386.2,295,383.8,295,382.5,296.4z" class="st177"/></g><g><path d="M189.1,314.8c-1,0.1-1.9,0.5-2.4,1c-0.8,0.7-1.2,1.7-1.2,2.7s0.4,1.9,1.1,2.6s1.6,1.1,2.6,1.1 c0.9,0,1.8-0.3,2.6-1.2c0.7-0.6,1.1-1.6,1.1-2.6c0-1.1-0.5-2-1.1-2.6C191.1,315.2,190.1,314.6,189.1,314.8z" class="st177"/></g><g><path d="M111.8,255.3c-0.8,0.7-1.2,1.7-1.2,2.7c0,1,0.4,1.9,1.1,2.6c0.7,0.7,1.6,1.1,2.6,1.1c1,0,2-0.4,2.6-1.1 c0.7-0.7,1.1-1.7,1.1-2.6c0-1-0.4-2-1.2-2.8C115.3,253.9,113,254,111.8,255.3z" class="st177"/></g><g><path d="M129.2,270.9c-0.7,0.7-1,1.6-1,2.5c0,1.1,0.3,2,1,2.6c0.6,0.7,1.6,1.1,2.6,1.1c0.9,0,1.8-0.4,2.7-1.1 c0.7-0.7,1.1-1.7,1.1-2.6c0-1-0.4-1.9-1.1-2.6c-0.7-0.6-1.6-1-2.6-1C130.9,269.8,129.9,270.2,129.2,270.9z" class="st177"/></g><g><path d="M130.7,244.3c0.9,0,1.8-0.4,2.7-1.2c0.6-0.7,0.9-1.6,0.9-2.5c0-0.9-0.4-1.9-1.1-2.7c-0.7-0.7-1.7-1-2.7-1 c-0.9,0.1-1.8,0.5-2.3,1c-0.8,0.7-1.2,1.7-1.2,2.7s0.4,1.9,1.1,2.6C128.8,243.9,129.7,244.3,130.7,244.3z" class="st177"/></g><g><path d="M149.9,285.8c0-1-0.4-1.9-1.1-2.6c-0.7-0.6-1.6-1-2.6-1c-1,0-1.9,0.4-2.6,1c-0.7,0.7-1.1,1.6-1.1,2.6 c0,0.9,0.3,1.8,1,2.6c0.7,0.7,1.6,1.1,2.6,1.1s2-0.4,2.7-1.1C149.5,287.7,149.9,286.8,149.9,285.8z" class="st177"/></g><g><path d="M142.1,301.5H142c-1,0.1-2,0.5-2.5,1.1c-0.7,0.7-1.1,1.6-1.1,2.6c0,0.9,0.3,1.8,1,2.6 c0.7,0.7,1.6,1.1,2.6,1.1c1,0,2-0.4,2.8-1.3c0.7-0.7,1-1.6,1-2.5c0-0.9-0.3-1.8-1-2.5C144.1,301.9,143.1,301.5,142.1,301.5z" class="st177"/></g><g><path d="M99.6,304.7c-0.8,0.6-1.2,1.6-1.2,2.6c0,0.9,0.4,1.7,1.1,2.6c0.7,0.7,1.6,1.1,2.6,1.1s2-0.5,2.6-1.1 c0.7-0.7,1.1-1.6,1.1-2.6s-0.4-1.9-1.1-2.6C103.2,303.3,100.8,303.3,99.6,304.7z" class="st177"/></g><g><path d="M111.3,292.5c0.9,0,1.8-0.3,2.5-1.1c0.7-0.7,1.1-1.6,1.1-2.6s-0.4-2-1-2.5c-0.7-0.7-1.7-1.1-2.7-1.1 s-1.9,0.4-2.5,1c-0.7,0.7-1.1,1.6-1.1,2.6s0.4,1.9,1.1,2.6C109.4,292.1,110.3,292.5,111.3,292.5z" class="st177"/></g><g><path d="M194.4,253.6c0.9,0,1.9-0.4,2.6-1.1c0.7-0.6,1.1-1.6,1.1-2.6c0-1-0.4-1.9-1.1-2.6c-1.4-1.4-3.7-1.4-5.2,0 c-0.7,0.7-1.1,1.6-1.1,2.6c0,1,0.4,1.9,1.1,2.6C192.4,253.2,193.5,253.6,194.4,253.6z" class="st177"/></g><g><path d="M229.8,290.8c0-1-0.4-1.9-1.1-2.6c-0.7-0.6-1.8-1.1-2.7-1c-1,0.1-1.9,0.5-2.4,1c-0.7,0.6-1.2,1.7-1.2,2.7 s0.4,2,1.1,2.6c0.6,0.7,1.6,1.1,2.6,1.1c1,0,1.9-0.4,2.5-1.1C229.4,292.8,229.8,291.8,229.8,290.8z" class="st177"/></g><g><path d="M261,305.9c1,0,1.9-0.4,2.6-1.1c0.7-0.7,1.1-1.7,1.1-2.6c0-1-0.4-1.9-1.1-2.6s-1.6-1.1-2.6-1.1 c-1-0.1-1.9,0.4-2.6,1.1s-1.1,1.6-1.1,2.6c0,1,0.4,1.9,1.1,2.6C259.1,305.5,260,305.9,261,305.9z" class="st177"/></g><g><path d="M280.8,265.2c0,0.9,0.4,1.8,1.2,2.7c0.7,0.6,1.6,0.9,2.5,0.9c1,0,2-0.3,2.6-1c0.7-0.7,1.1-1.6,1.1-2.6 s-0.4-1.9-1.1-2.6s-1.6-1.1-2.6-1.1s-1.9,0.4-2.6,1.1S280.8,264.2,280.8,265.2z" class="st177"/></g><g><path d="M285.6,294.3c-1,0-1.9,0.4-2.6,1.1c-0.7,0.7-1.1,1.6-1.1,2.6c0,1.1,0.5,2.1,1.1,2.6 c0.7,0.7,1.6,1.1,2.6,1.1c0.9,0,1.9-0.4,2.5-1.1c0.8-0.6,1.2-1.6,1.2-2.6s-0.4-1.9-1.1-2.6C287.5,294.7,286.6,294.3,285.6,294.3z" class="st177"/></g><g><path d="M188.7,265.7c0.7-0.7,1.1-1.6,1.1-2.6s-0.4-1.9-1.1-2.6c-1.3-1.3-3.9-1.3-5.2,0c-0.7,0.7-1.1,1.6-1.1,2.6 s0.4,1.9,1.1,2.6c0.7,0.7,1.7,1.1,2.6,1.1C187.1,266.9,188,266.5,188.7,265.7z" class="st177"/></g><g><path d="M200.1,294.5c0.7-0.7,1.1-1.6,1.1-2.6s-0.4-1.9-1.1-2.6c-0.7-0.6-1.6-1-2.6-1c-1,0-1.9,0.3-2.6,1 c-0.7,0.7-1.1,1.6-1.1,2.6s0.4,1.9,1.1,2.6c0.6,0.7,1.6,1.1,2.6,1.1C198.4,295.6,199.3,295.2,200.1,294.5z" class="st177"/></g><g><path d="M175.5,281.6c0-1-0.4-1.9-1.1-2.6c-1.4-1.4-3.8-1.4-5.3,0c-0.6,0.6-1,1.6-1,2.6c0,1.1,0.5,2.1,1.1,2.6 c0.7,0.7,1.6,1.1,2.6,1.1c1.1,0,2.1-0.5,2.5-1C175,283.6,175.5,282.6,175.5,281.6z" class="st177"/></g><g><path d="M247.2,279.6c0-1-0.4-1.9-1.1-2.6c-1.4-1.4-3.8-1.4-5.2,0c-0.7,0.7-1.1,1.6-1.1,2.6c0,1,0.4,1.9,1.1,2.6 c0.7,0.7,1.6,1.1,2.6,1.1c1,0,1.9-0.4,2.6-1.1C246.8,281.5,247.2,280.6,247.2,279.6z" class="st177"/></g><g><path d="M267.7,247.8c0-0.9-0.4-1.8-1.1-2.6c-0.7-0.7-1.6-1.1-2.6-1.1c-1,0-2,0.4-2.7,1.1c-0.7,0.8-1,1.7-1,2.6 c0,1,0.4,1.9,1.1,2.6c0.7,0.7,1.7,1.1,2.6,1.1c0.9,0,1.8-0.3,2.7-1.1C267.4,249.6,267.7,248.7,267.7,247.8z" class="st177"/></g><g><path d="M266.5,279.6c0,1.1,0.4,2,1.1,2.6c0.7,0.7,1.6,1.1,2.6,1.1c0.9,0,1.8-0.4,2.7-1.2c0.6-0.7,0.9-1.6,0.9-2.5 c0-0.9-0.4-1.8-1.1-2.6c-1.5-1.4-3.8-1.4-5.2,0C266.9,277.7,266.5,278.6,266.5,279.6z" class="st177"/></g><g><path d="M173.7,241.2c1,0,2-0.4,2.6-1.1c0.7-0.7,1.1-1.7,1.1-2.6c0-0.9-0.4-1.9-1.1-2.6c-1.4-1.4-3.8-1.4-5.2,0 c-0.7,0.7-1.1,1.6-1.1,2.6c0,1,0.4,1.9,1.1,2.6C171.8,240.8,172.8,241.2,173.7,241.2z" class="st177"/></g><g><path d="M296.3,259.4c-0.7,0.8-1.1,1.7-1.1,2.7s0.4,1.9,1.1,2.6c0.7,0.7,1.6,1.1,2.6,1.1c1.1,0,2.1-0.4,2.6-1.1 c0.7-0.8,1.1-1.7,1.1-2.6s-0.3-1.8-1.1-2.7C300.1,258.1,297.6,258.1,296.3,259.4z" class="st177"/></g><g><path d="M220.3,240.6c0,1,0.4,1.9,1.1,2.6c0.7,0.7,1.6,1.1,2.6,1.1c1,0,2-0.4,2.6-1.1c0.7-0.7,1.1-1.7,1.1-2.6 c0-1-0.4-1.9-1.1-2.6c-0.7-0.6-1.6-1-2.6-1c-1,0-1.9,0.4-2.6,1C220.7,238.7,220.3,239.6,220.3,240.6z" class="st177"/></g><g><path d="M223.6,259.4c-0.7,0.6-1.2,1.7-1.2,2.7s0.4,2,1.1,2.6c0.6,0.7,1.6,1.1,2.6,1.1c1,0,1.9-0.4,2.5-1 c0.8-0.7,1.2-1.7,1.2-2.7s-0.4-1.9-1.1-2.6c-0.7-0.7-1.8-1.2-2.7-1.1C225,258.5,224.1,258.9,223.6,259.4z" class="st177"/></g><g><path d="M163.6,119.2c1,0,2-0.4,2.6-1.1c0.7-0.7,1.1-1.7,1.1-2.6c0-1-0.4-1.9-1.1-2.6s-1.7-1-2.8-1 c-0.9,0-1.8,0.4-2.3,1c-0.7,0.7-1.1,1.6-1.1,2.6s0.3,1.9,0.9,2.5C161.6,118.8,162.6,119.2,163.6,119.2z" class="st177"/></g><g><path d="M195.8,174c0,1,0.4,1.9,1.1,2.6c0.7,0.6,1.6,1,2.6,1c1,0,1.9-0.3,2.6-1c0.7-0.7,1.1-1.6,1.1-2.6 c0-0.9-0.3-1.8-1.1-2.7c-1.5-1.3-3.8-1.3-5.2,0.1C196.2,172.1,195.8,173,195.8,174z" class="st177"/></g><g><path d="M188.2,102.8c0.9,0,1.9-0.4,2.8-1.2c0.6-0.6,1-1.6,1-2.6s-0.4-1.9-1.1-2.6c-1.5-1.3-3.9-1.3-5.2,0.1 c-0.7,0.7-1.1,1.6-1.1,2.6s0.3,1.9,0.9,2.5C186.2,102.4,187.1,102.8,188.2,102.8z" class="st177"/></g><g><path d="M175.9,163.3c1.1,0,2-0.5,2.5-1.1c0.7-0.6,1.2-1.7,1.2-2.7c0-0.9-0.4-1.9-1.1-2.6 c-1.5-1.3-3.9-1.3-5.2,0.1c-0.7,0.7-1.1,1.6-1.1,2.6c0,1.1,0.5,2.1,1,2.5C173.8,162.9,174.9,163.3,175.9,163.3z" class="st177"/></g><g><path d="M283,190.9c-0.7,0.7-1.1,1.6-1.1,2.6c0,1,0.4,1.9,1.1,2.6s1.6,1.1,2.6,1.1c0.9,0,1.9-0.4,2.6-1.1 s1.1-1.6,1.1-2.6c0-1-0.4-1.9-1.1-2.6C286.8,189.4,284.4,189.4,283,190.9z" class="st177"/></g><g><path d="M211.2,199.1c0.6,0.7,1.6,1.1,2.6,1.1s1.9-0.4,2.6-1.1c0.7-0.7,1.1-1.7,1.1-2.6c0-1.1-0.4-2-1.1-2.6 c-1.4-1.4-3.8-1.4-5.1-0.1c-0.7,0.6-1.2,1.7-1.2,2.7C210.1,197.5,210.5,198.4,211.2,199.1z" class="st177"/></g><g><path d="M151.8,204.1c-0.7,0.7-1.1,1.6-1.1,2.6c0,1,0.4,1.9,1,2.6c0.7,0.7,1.6,1.1,2.6,1.1c1,0,1.9-0.4,2.6-1.1 c0.7-0.7,1.1-1.6,1.1-2.6c0-1-0.4-2-1-2.5c-0.7-0.7-1.7-1.1-2.7-1.1C153.3,203.1,152.4,203.5,151.8,204.1z" class="st177"/></g><g><path d="M113.8,199.1c0.7,0.7,1.6,1.1,2.6,1.1c0.9,0,1.9-0.4,2.6-1.1s1.1-1.7,1.1-2.6c0-0.9-0.4-1.9-1.1-2.6 c-1.4-1.4-3.8-1.4-5.2,0c-0.7,0.7-1.1,1.6-1.1,2.6C112.7,197.5,113.1,198.4,113.8,199.1z" class="st177"/></g><g><path d="M238.6,207.2c-0.7,0.7-1.1,1.6-1.1,2.6c0,1,0.4,1.9,1.1,2.6c0.6,0.7,1.6,1.1,2.6,1.1c1,0,1.9-0.4,2.6-1.1 c0.7-0.7,1.1-1.6,1.1-2.6c0-1-0.4-1.9-1.1-2.6C242.4,205.9,239.9,205.9,238.6,207.2z" class="st177"/></g><g><path d="M299.4,160.2c0.7-0.7,1.1-1.6,1.1-2.6c0-1-0.4-2-1-2.5c-0.7-0.7-1.6-1.1-2.6-1.1s-1.9,0.3-2.5,0.9 c-0.8,0.7-1.2,1.7-1.2,2.7c0,1.1,0.5,2.1,1.1,2.6c0.7,0.7,1.7,1.1,2.6,1.1C297.7,161.3,298.7,160.9,299.4,160.2z" class="st177"/></g><g><path d="M298.9,104.8c1,0,1.9-0.4,2.4-0.9c0.7-0.7,1.2-1.7,1.2-2.7c0-0.9-0.3-1.8-1.1-2.7c-0.7-0.7-1.7-1-2.7-1 c-0.9,0-1.8,0.4-2.4,1c-0.7,0.7-1.1,1.6-1.1,2.6c0,0.9,0.4,1.9,1.1,2.6C297,104.4,297.9,104.8,298.9,104.8z" class="st177"/></g><g><path d="M195,208.9c0-1-0.4-1.9-1.1-2.6c-0.7-0.7-1.6-1.1-2.6-1.1c-1,0-1.9,0.3-2.6,1c-0.7,0.7-1.1,1.6-1.1,2.6 c0,1.1,0.5,2.1,1.1,2.6c0.7,0.7,1.7,1.1,2.6,1.1c1.1,0,2-0.5,2.5-0.9C194.6,211,195,210.1,195,208.9z" class="st177"/></g><g><path d="M214.3,217c0,1,0.4,1.9,1.1,2.6s1.6,1.1,2.6,1.1c0.9,0,1.8-0.4,2.6-1.1c0.7-0.7,1.1-1.7,1.1-2.6 c0-0.9-0.4-1.9-1.1-2.6c-1.4-1.4-3.8-1.4-5.2,0C214.7,215.1,214.3,216,214.3,217z" class="st177"/></g><g><path d="M274,117.9c1,0,1.9-0.4,2.6-1.1c0.7-0.7,1.1-1.7,1.1-2.6c0-1.1-0.4-2-1.1-2.6c-1.4-1.4-3.8-1.4-5.2,0 c-0.7,0.7-1.1,1.6-1.1,2.6c0,0.9,0.4,1.9,1,2.5C272,117.5,273,117.9,274,117.9z" class="st177"/></g><g><path d="M143.1,159.2c0.9,0,1.8-0.4,2.4-1c0.7-0.6,1.2-1.7,1.2-2.7c0-1-0.4-1.9-1.1-2.6c-0.6-0.7-1.7-1.1-2.6-1 c-1,0.1-1.9,0.4-2.4,1c-0.8,0.6-1.2,1.6-1.2,2.6c0,0.9,0.4,1.9,1.1,2.6S142.1,159.2,143.1,159.2z" class="st177"/></g><g><path d="M148.2,140.7c1,0,1.9-0.3,2.5-1.1c0.7-0.7,1.1-1.6,1.1-2.6s-0.4-2-1-2.5c-0.7-0.7-1.7-1.1-2.7-1.1 c-1,0-1.9,0.4-2.5,1c-0.7,0.7-1.1,1.6-1.1,2.6c0,1.1,0.5,2.1,1.1,2.6C146.3,140.3,147.2,140.7,148.2,140.7z" class="st177"/></g><g><path d="M120.4,168.1c-1,0.1-1.9,0.5-2.5,1.1c-0.7,0.7-1.1,1.7-1.1,2.6c0,1,0.4,1.9,1.1,2.6 c0.7,0.7,1.6,1.1,2.6,1.1c1,0,1.9-0.4,2.6-1.2c0.7-0.7,1.1-1.6,1.1-2.6c0-1-0.4-1.9-1.1-2.6C122.4,168.5,121.3,168.1,120.4,168.1 z" class="st177"/></g><g><path d="M277.8,143.7c0.7,0.7,1.7,1.1,2.6,1.1c0.9,0,1.8-0.3,2.5-1.1c0.7-0.7,1.1-1.6,1.1-2.6c0-1-0.4-2-1-2.5 c-0.7-0.7-1.6-1.1-2.6-1.1c-0.8-0.1-1.9,0.3-2.5,0.9c-0.8,0.7-1.2,1.7-1.2,2.7C276.7,142.2,277.2,143.1,277.8,143.7z" class="st177"/></g><g><path d="M206.6,120.3c1,0,1.9-0.4,2.6-1c0.7-0.7,1.1-1.6,1.1-2.6s-0.4-1.9-1.1-2.6c-0.7-0.7-1.6-1.1-2.6-1.1 c-1,0-1.9,0.3-2.6,1c-0.7,0.7-1.1,1.6-1.1,2.6c0,0.9,0.4,1.9,1.1,2.6C204.7,119.9,205.7,120.3,206.6,120.3z" class="st177"/></g><g><path d="M240.5,146.9c1,0,1.9-0.4,2.6-1.1c0.7-0.6,1.1-1.6,1.1-2.6c0-1-0.4-1.9-1.1-2.6c-1.4-1.4-3.8-1.4-5.2,0 c-0.7,0.7-1.1,1.6-1.1,2.6c0,1,0.4,1.9,1.1,2.6C238.6,146.5,239.6,146.9,240.5,146.9z" class="st177"/></g><g><path d="M249.7,128.4c0.9,0,1.8-0.4,2.5-1c0.7-0.7,1.1-1.6,1.1-2.6s-0.4-1.9-1.1-2.7c-1.4-1.4-3.8-1.4-5.2,0 c-0.6,0.6-1,1.6-1,2.6s0.3,1.8,1.1,2.7C247.9,128.1,248.8,128.4,249.7,128.4z" class="st177"/></g><g><path d="M231.3,178.7c1,0,1.9-0.4,2.5-1c0.8-0.7,1.2-1.7,1.2-2.7c0-1-0.4-1.9-1.1-2.6c-1.3-1.4-3.7-1.4-5.2,0 c-0.7,0.7-1.1,1.6-1.1,2.6c0,1.1,0.5,2.1,1.1,2.6C229.3,178.3,230.3,178.7,231.3,178.7z" class="st177"/></g><g><path d="M257.9,189.9c1,0,1.8-0.3,2.7-1.2c0.6-0.7,0.9-1.5,0.9-2.5c0-0.9-0.3-1.8-1.1-2.7 c-1.4-1.3-3.8-1.2-5.1,0.1c-0.7,0.7-1.1,1.6-1.1,2.6c0,1,0.4,1.9,1.1,2.6C256,189.5,256.9,189.9,257.9,189.9z" class="st177"/></g><g><path d="M264,167.4c1,0,2-0.4,2.5-1c0.8-0.7,1.2-1.7,1.2-2.7s-0.4-1.9-1.1-2.6c-0.6-0.6-1.6-1-2.6-1h-0.1 c-1,0-1.9,0.4-2.5,1c-0.7,0.7-1.1,1.6-1.1,2.6c0,1.1,0.5,2.1,1.1,2.6C262.1,167,263.1,167.4,264,167.4z" class="st177"/></g><g><path d="M272.8,211.4c-0.7,0.7-1.1,1.6-1.1,2.6c0,0.9,0.4,1.8,1.1,2.6c0.6,0.7,1.6,1.1,2.6,1.1c1,0,1.9-0.4,2.5-1 c0.7-0.7,1.1-1.6,1.1-2.6c0-1.1-0.5-2.1-1.1-2.6c-0.7-0.7-1.6-1.1-2.6-1.1S273.4,210.8,272.8,211.4z" class="st177"/></g><g><path d="M299.5,210.2c-0.8,0.6-1.2,1.6-1.2,2.7c0,1.1,0.5,2.1,1.1,2.6c0.7,0.7,1.7,1.1,2.6,1.1 c1,0,1.9-0.4,2.5-1.1c0.8-0.6,1.2-1.6,1.2-2.6c0-1-0.4-1.9-1.1-2.6C303.2,208.8,300.8,208.8,299.5,210.2z" class="st177"/></g><g><path d="M325,220.6c-0.7,0.7-1.1,1.6-1.1,2.6c0,1,0.4,1.9,1.1,2.6c0.7,0.7,1.6,1.1,2.6,1.1c0.9,0,1.9-0.4,2.7-1 c0.7-0.7,1.1-1.7,1.1-2.6c0-1-0.4-1.9-1.1-2.6c-0.7-0.7-1.8-1.1-2.8-1.1S325.7,220,325,220.6z" class="st177"/></g><g><path d="M323.5,191c1,0,1.9-0.4,2.5-1c0.7-0.7,1.2-1.7,1.2-2.7c0-1-0.4-2-1.1-2.6c-1.4-1.4-3.8-1.4-5.2,0 c-0.7,0.7-1.1,1.6-1.1,2.6c0,1,0.4,1.9,1.1,2.6C321.6,190.6,322.5,191,323.5,191z" class="st177"/></g><g><path d="M363.2,225.2c0-1-0.4-1.9-1.1-2.6c-0.7-0.6-1.6-1-2.6-1s-1.9,0.3-2.6,1c-0.7,0.7-1.1,1.6-1.1,2.6 c0,0.9,0.3,1.8,1,2.6c0.6,0.7,1.6,1.1,2.6,1.1s1.9-0.4,2.7-1.1C362.8,227.1,363.2,226.2,363.2,225.2z" class="st177"/></g><g><path d="M329.2,153c0.7,0.7,1.6,1.1,2.6,1.1c0.9,0,1.8-0.3,2.6-1.2c0.7-0.7,1.1-1.6,1.1-2.6c0-1-0.4-2-1.1-2.6 c-0.7-0.6-1.6-1-2.7-1c-1,0.1-1.9,0.5-2.4,1c-0.8,0.7-1.2,1.7-1.2,2.7C328.1,151.3,328.5,152.2,329.2,153z" class="st177"/></g><g><path d="M307.2,169.4c0.9,0,1.8-0.3,2.5-1.1c0.6-0.6,1-1.6,1-2.6c0-1-0.4-1.9-1-2.5c-0.6-0.7-1.5-1.1-2.5-1.1 s-2,0.3-2.8,1.1c-0.6,0.7-0.9,1.5-0.9,2.5c0,1.1,0.4,2,1.1,2.6C305.2,169,306.1,169.4,307.2,169.4z" class="st177"/></g><g><path d="M350.6,147.9c1,0,1.9-0.4,2.5-1.1c0.7-0.7,1.1-1.7,1.1-2.6c0-0.9-0.4-1.8-1.1-2.5 c-0.6-0.7-1.6-1.1-2.6-1.1s-1.9,0.3-2.4,0.9c-0.8,0.7-1.2,1.7-1.2,2.7c0,0.9,0.4,1.9,1,2.5C348.6,147.5,349.6,147.9,350.6,147.9z" class="st177"/></g><g><path d="M310.2,121.2c1,0,1.9-0.3,2.4-0.9c0.8-0.6,1.3-1.6,1.3-2.7c0-1-0.4-2-1.1-2.7s-1.7-1-2.7-1 c-0.9,0-1.8,0.4-2.4,1c-0.7,0.7-1.1,1.6-1.1,2.6s0.4,2,1,2.6C308.3,120.8,309.2,121.2,310.2,121.2z" class="st177"/></g><g><path d="M359,197.2c0.7-0.7,1.1-1.7,1.1-2.6c0-0.9-0.4-1.9-1.1-2.6s-1.7-1.2-2.7-1.1c-1,0-1.9,0.4-2.5,1 c-0.7,0.7-1.1,1.7-1.1,2.6c0,0.9,0.4,1.9,1.1,2.6s1.6,1.1,2.6,1.1C357.3,198.2,358.2,197.8,359,197.2z" class="st177"/></g><g><path d="M283.1,233.4c0-1-0.4-1.9-1.1-2.6c-0.6-0.6-1.5-1-2.6-1c-1,0-1.9,0.4-2.4,0.9c-0.8,0.7-1.2,1.7-1.2,2.7 c0,1,0.4,1.9,1.1,2.6c0.6,0.7,1.6,1.1,2.6,1.1c0.8,0,1.7-0.3,2.5-1.1C282.7,235.3,283.1,234.3,283.1,233.4z" class="st177"/></g><g><path d="M257.4,231.9c0.7-0.6,1.1-1.6,1.1-2.6c0-0.8-0.4-1.8-1-2.5c-0.7-0.7-1.6-1.1-2.6-1.1c-1,0-2,0.4-2.7,1.1 s-1.1,1.7-1.1,2.6c0,1,0.4,2,1.2,2.7c0.8,0.7,1.7,1,2.6,1C255.9,233.1,256.9,232.6,257.4,231.9z" class="st177"/></g><g><path d="M110.2,222.8c0.9,0,1.8-0.4,2.7-1c0.7-0.8,1-1.7,1-2.6c0-1-0.4-1.9-1.1-2.6s-1.7-1.2-2.7-1.1 c-1,0-1.9,0.4-2.5,1c-0.7,0.7-1.1,1.6-1.1,2.6s0.4,1.9,1.1,2.6S109.2,222.8,110.2,222.8z" class="st177"/></g><g><path d="M154.9,394c0.7-0.7,1.1-1.6,1.1-2.6s-0.4-1.9-1.1-2.6c-1.3-1.3-3.9-1.4-5.3,0.1c-0.7,0.7-1,1.6-1,2.5 c0,1,0.4,1.9,1.1,2.6s1.6,1.1,2.6,1.1C153.1,395.1,154,394.7,154.9,394z" class="st177"/></g><g><path d="M196.9,374.4c-0.7,0.7-1.1,1.6-1.1,2.6c0,1,0.4,1.9,1.1,2.6c0.7,0.7,1.7,1.1,2.6,1.1c1,0,1.9-0.4,2.6-1.1 c0.7-0.6,1.1-1.6,1.1-2.6c0-1-0.4-1.9-1.1-2.6C200.7,373,198.4,373,196.9,374.4z" class="st177"/></g><g><path d="M283,393.8c-0.7,0.7-1.1,1.6-1.1,2.6s0.4,1.9,1.1,2.6s1.7,1.1,2.6,1.1c0.9,0,1.9-0.4,2.5-1.1 c0.7-0.7,1.1-1.6,1.1-2.6s-0.4-2-1.1-2.6C286.8,392.4,284.5,392.4,283,393.8z" class="st177"/></g><g><path d="M213.9,395.9c-0.9-0.1-1.9,0.3-2.6,1c-0.7,0.7-1.1,1.6-1.1,2.6s0.4,1.9,1.1,2.6s1.6,1.1,2.6,1.1 c0.8,0,1.7-0.3,2.5-1.1c0.7-0.7,1.1-1.6,1.1-2.6s-0.4-2-1-2.5C215.8,396.3,214.9,395.9,213.9,395.9z" class="st177"/></g><g><path d="M154.3,406.2c-1,0-1.9,0.4-2.5,1c-0.7,0.7-1.1,1.6-1.1,2.6s0.4,2,1,2.6c0.6,0.7,1.6,1.1,2.6,1.1 c1,0,2-0.4,2.6-0.9c0.8-0.7,1.2-1.6,1.2-2.7c0-1-0.4-1.9-1.1-2.6C156.4,406.6,155.3,406.2,154.3,406.2z" class="st177"/></g><g><path d="M102,380.5c-1,0.1-1.9,0.5-2.4,1c-0.8,0.7-1.2,1.7-1.2,2.7c0,1,0.4,1.9,1.1,2.6s1.6,1.1,2.6,1.1 c0.9,0,1.9-0.4,2.6-1.1c0.7-0.7,1.1-1.6,1.1-2.6c0-1-0.4-2-1.1-2.7C104,380.8,103,380.4,102,380.5z" class="st177"/></g><g><path d="M116.3,395.9c-1,0-1.9,0.4-2.5,1c-0.7,0.6-1.1,1.6-1.1,2.6c0,1.1,0.4,2.1,1,2.5c0.6,0.8,1.6,1.2,2.7,1.2 c0.8,0,1.8-0.4,2.5-1.1c0.7-0.7,1.1-1.6,1.1-2.6s-0.4-2-1-2.5C118.4,396.3,117.3,395.9,116.3,395.9z" class="st177"/></g><g><path d="M252.3,408.2c-0.7,0.7-1.1,1.7-1.1,2.6c0,0.9,0.4,1.8,1.1,2.6c0.7,0.7,1.6,1.1,2.6,1.1 c0.9,0,1.9-0.4,2.5-1.1c0.7-0.7,1.1-1.6,1.1-2.6c0-0.9-0.3-1.8-1-2.6C256.1,406.8,253.7,406.8,252.3,408.2z" class="st177"/></g><g><path d="M191.2,415.5c1.1,0,2-0.4,2.7-1c0.7-0.8,1-1.7,1-2.6s-0.4-1.8-1.1-2.6c-0.7-0.7-1.6-1.1-2.6-1.1 c-1,0-2,0.4-2.7,1.1c-0.7,0.7-1,1.6-1,2.5c0,1,0.4,2,1,2.5C189,414.9,189.8,415.5,191.2,415.5z" class="st177"/></g><g><path d="M214.3,420.1c0,1,0.4,1.9,1.1,2.6s1.6,1.1,2.6,1.1c0.8,0,1.7-0.3,2.5-1c0.7-0.7,1.1-1.6,1.1-2.6 c0-1.1-0.5-2.1-1.1-2.6c-0.6-0.7-1.6-1.1-2.6-1.1c-1,0-1.9,0.4-2.5,1C214.7,418.2,214.3,419.1,214.3,420.1z" class="st177"/></g><g><path d="M117.8,372.4c-0.7,0.7-1,1.6-1,2.5c0,1.1,0.4,2,1,2.5c0.7,0.7,1.7,1.2,2.7,1.2c0.9,0,1.8-0.3,2.6-1.1 c0.7-0.7,1.1-1.6,1.1-2.6c0-0.9-0.4-1.8-1.1-2.6C121.8,371,119.3,370.9,117.8,372.4z" class="st177"/></g><g><path d="M231.3,381.8c1,0,1.9-0.4,2.7-1.2c0.7-0.7,1-1.6,1-2.5c0-1-0.4-1.9-1.1-2.6c-1.4-1.4-3.8-1.4-5.2,0 c-0.7,0.7-1.1,1.6-1.1,2.6c0,0.9,0.4,1.9,1.1,2.6C229.3,381.4,230.2,381.8,231.3,381.8z" class="st177"/></g><g><path d="M255.3,386.7c-0.7,0.6-1,1.5-1,2.6s0.3,1.9,1,2.6c0.7,0.7,1.6,1.1,2.6,1.1c1,0,2-0.4,2.8-1.1 c0.6-0.7,0.9-1.6,0.9-2.5c0-1.1-0.4-2-1.1-2.7C259.1,385.3,256.8,385.3,255.3,386.7z" class="st177"/></g><g><path d="M272.8,414.3c-0.7,0.7-1.1,1.6-1.1,2.6s0.4,1.9,1.1,2.6c0.7,0.7,1.6,1.1,2.6,1.1c0.9,0,1.9-0.4,2.6-1.1 c0.7-0.7,1.1-1.6,1.1-2.6s-0.4-1.9-1.1-2.6C276.6,412.9,274.3,412.9,272.8,414.3z" class="st177"/></g><g><path d="M269.2,466.6c-1,0-1.9,0.4-2.6,1.1c-0.7,0.7-1.1,1.6-1.1,2.6c0,1.1,0.5,2.1,1.1,2.6 c0.7,0.7,1.7,1.1,2.6,1.1c1,0,1.9-0.4,2.5-1.1c0.8-0.6,1.2-1.6,1.2-2.6s-0.4-1.9-1.1-2.6C271.1,467,270.2,466.6,269.2,466.6z" class="st177"/></g><g><path d="M322.1,442.7c0-1-0.4-1.9-1.1-2.6c-0.7-0.7-1.7-1-2.7-1.1c-1,0-1.9,0.4-2.5,1c-0.7,0.7-1.1,1.6-1.1,2.6 s0.4,1.9,1,2.5c0.7,0.8,1.7,1.2,2.7,1.2c1,0,2-0.4,2.6-1C321.7,444.6,322.1,443.7,322.1,442.7z" class="st177"/></g><g><path d="M336.9,412.3c-1.1,0-2,0.4-2.5,0.9c-0.8,0.7-1.2,1.7-1.2,2.7s0.4,1.9,1.1,2.6c0.7,0.7,1.6,1.1,2.6,1.1 c0.9,0,1.9-0.4,2.6-1.1c0.7-0.7,1.1-1.6,1.1-2.6c0-0.9-0.4-1.9-1-2.5C338.9,412.7,338.1,412.4,336.9,412.3z" class="st177"/></g><g><path d="M344,406.4c1,0,2-0.4,2.6-1.1c0.6-0.6,1-1.6,1-2.6c0-1.1-0.3-1.9-1-2.6s-1.6-1.2-2.7-1.1 c-1,0.1-1.9,0.5-2.5,1.1c-0.7,0.7-1.1,1.6-1.1,2.6c0,0.9,0.4,1.8,1.1,2.6C342.1,406,343,406.4,344,406.4z" class="st177"/></g><g><path d="M317.9,388.8c-0.7,0.7-1.1,1.6-1.1,2.6c0,0.9,0.4,1.8,1.1,2.6c0.6,0.7,1.6,1.1,2.6,1.1s1.9-0.5,2.5-1.1 c0.8-0.6,1.2-1.5,1.2-2.6c0-1-0.4-2-1.1-2.7C321.6,387.4,319.3,387.4,317.9,388.8z" class="st177"/></g><g><path d="M365.2,382.6c-0.7,0.7-1.1,1.6-1.1,2.6c0,0.9,0.3,1.8,1,2.6c0.7,0.7,1.6,1.1,2.6,1.1c1,0,1.9-0.4,2.7-1 c0.7-0.7,1.1-1.7,1.1-2.6c0-1-0.4-2-1.1-2.7C368.9,381.2,366.6,381.2,365.2,382.6z" class="st177"/></g><g><path d="M312.2,412.3c-0.9,0-1.9,0.4-2.6,1.1c-0.7,0.7-1,1.6-1,2.5c0,1.1,0.5,2.1,1.1,2.6c0.7,0.7,1.6,1.1,2.6,1.1 c0.9,0,1.7-0.3,2.5-1.1c0.7-0.7,1.1-1.6,1.1-2.6c0-0.9-0.3-1.8-1-2.5c-0.7-0.7-1.6-1.1-2.6-1.1 C312.2,412.3,312.2,412.3,312.2,412.3z" class="st177"/></g><g><path d="M340.5,375.5c0.7-0.6,1.1-1.6,1.1-2.6s-0.4-1.9-1.1-2.6c-1.2-1.2-3.3-1.4-4.7-0.4 c-0.2,0.1-0.4,0.3-0.5,0.4c-0.7,0.7-1.1,1.6-1.1,2.6c0,1.1,0.4,2,1,2.5c0.7,0.8,1.7,1.2,2.7,1.2c0.6,0,1.2-0.2,1.7-0.5 c0.1-0.1,0.2-0.1,0.3-0.2c0,0,0,0,0.1-0.1c0.1-0.1,0.3-0.2,0.4-0.3C340.5,375.6,340.5,375.6,340.5,375.5 C340.5,375.5,340.5,375.5,340.5,375.5z" class="st177"/></g><g><path d="M162.5,432c1,0,2-0.4,2.6-1c0.7-0.7,1.1-1.6,1.1-2.6c0-1-0.4-1.9-1.1-2.6s-1.6-1.1-2.6-1.1 c-1-0.1-1.9,0.3-2.6,1s-1.1,1.6-1.1,2.6c0,0.9,0.4,1.8,1.2,2.7C160.8,431.7,161.6,432,162.5,432z" class="st177"/></g><g><path d="M250.2,441.1c-0.7,0.6-1.1,1.6-1.1,2.6s0.4,1.9,1.1,2.6s1.6,1.1,2.6,1.1c1.1,0,2.1-0.5,2.5-0.9 c0.8-0.7,1.2-1.7,1.2-2.7c0-1.1-0.5-2.1-1.1-2.6C254,439.8,251.6,439.7,250.2,441.1z" class="st177"/></g><g><path d="M164.5,453.1c0.7-0.7,1.1-1.6,1.1-2.6c0-1-0.4-2-1-2.5c-0.7-0.7-1.6-1.1-2.6-1.1c-1,0-2,0.4-2.6,1 c-0.7,0.6-1.1,1.6-1.1,2.6c0,1.1,0.3,2,0.9,2.5c0.7,0.8,1.7,1.2,2.7,1.2C162.9,454.2,163.8,453.8,164.5,453.1z" class="st177"/></g><g><path d="M211.7,454.2c-1,0-1.9,0.4-2.6,1.1S208,457,208,458s0.4,1.9,1.1,2.6c0.7,0.7,1.6,1.1,2.6,1.1 c1,0,2-0.4,2.6-1.1c0.7-0.7,1.1-1.7,1.1-2.6c0-1-0.4-1.9-1.1-2.6S212.8,454.2,211.7,454.2z" class="st177"/></g><g><path d="M236,426.1c0-1-0.4-1.9-1.1-2.6c-0.7-0.6-1.6-0.9-2.7-1c-1,0-1.9,0.4-2.4,1c-0.8,0.6-1.2,1.6-1.2,2.7 c0,1,0.4,1.9,1.1,2.6s1.7,1.1,2.6,1.1c0.9,0,1.8-0.3,2.6-1.2C235.6,428,236,427,236,426.1z" class="st177"/></g><g><path d="M235.9,455.4c-0.7,0.7-1.1,1.6-1.1,2.6s0.4,1.9,1.1,2.6c0.6,0.7,1.6,1.1,2.6,1.1c0.9,0,1.9-0.4,2.6-1.1 c0.7-0.7,1.1-1.6,1.1-2.6s-0.4-1.9-1.1-2.6C239.8,454,237.2,454,235.9,455.4z" class="st177"/></g><g><path d="M269.8,443.2c0.7-0.7,1.1-1.6,1.1-2.6c0-1-0.4-1.9-1.1-2.6c-1.3-1.3-3.9-1.3-5.2,0 c-0.7,0.6-1.1,1.6-1.1,2.6c0,1,0.4,1.9,1.1,2.6c0.6,0.7,1.6,1.1,2.6,1.1C268.2,444.3,269.2,443.9,269.8,443.2z" class="st177"/></g><g><path d="M191.7,438c-0.7,0.6-1.1,1.6-1.1,2.6c0,1,0.4,1.9,1.1,2.6c0.7,0.7,1.7,1.1,2.6,1.1c0.8,0,1.8-0.3,2.6-1.1 c0.7-0.7,1.1-1.6,1.1-2.6c0-1-0.4-1.9-1.1-2.6C195.6,436.6,193.2,436.6,191.7,438z" class="st177"/></g><g><path d="M130.7,373.5c1,0,1.8-0.3,2.7-1.2c0.6-0.7,0.9-1.5,0.9-2.5c0-0.9-0.3-1.8-1-2.6c-0.7-0.8-1.7-1.1-2.8-1.1 c-1,0.1-1.9,0.5-2.3,1c-0.8,0.7-1.2,1.7-1.2,2.7s0.4,1.9,1,2.5C128.7,373.1,129.7,373.5,130.7,373.5z" class="st177"/></g></g></g><g><path d="M151.7,197c-0.4,0-0.7,0-1.1-0.1c-2.1-0.6-3.3-2.7-2.7-4.8c6.8-23.9,14.6-45.6,23.1-64.4 c0.9-2,3.2-2.8,5.2-1.9c2,0.9,2.8,3.2,1.9,5.2c-8.4,18.4-16.1,39.7-22.7,63.2C154.9,195.8,153.4,197,151.7,197z" class="st18"/></g><g><path d="M184.5,157.4c-0.3,0-0.7,0-1-0.1c-2.1-0.6-3.3-2.7-2.7-4.8c1.6-5.9,3.3-11.6,5-17c0.6-2.1,2.8-3.2,4.9-2.6 c2.1,0.6,3.2,2.8,2.6,4.9c-1.7,5.3-3.3,11-4.9,16.8C187.8,156.3,186.2,157.4,184.5,157.4z" class="st18"/></g><g><path d="M174.2,200.2c-0.3,0-0.5,0-0.8-0.1c-2.1-0.4-3.5-2.5-3-4.6c1.4-6.6,2.9-13.1,4.3-19.3 c0.5-2.1,2.6-3.4,4.7-2.9c2.1,0.5,3.4,2.6,2.9,4.7c-1.5,6.2-2.9,12.6-4.3,19.1C177.6,198.9,176,200.2,174.2,200.2z" class="st18"/></g><path d="M379.7,142.6c-16.6-29.4-35.8-52.8-57.2-69.5c-13.1-10.2-26.8-17.8-40.9-22.7c-3.3-1.1-5.2-4.5-4.7-7.9	c0-0.1,0-0.2,0-0.3c1.6-9.6-1.1-19.4-7.5-26.9c-6.7-8-16.6-12.5-27-12.5c-10.4,0-20.5,4.7-27.1,12.7c-6.4,7.6-9,17.5-7.3,27v0	c0.6,3.4-1.3,6.8-4.6,7.9c-14.2,4.9-27.9,12.5-41,22.7c-21.4,16.7-40.6,40.1-57.2,69.5c-28.6,50.6-47.1,117.4-47.1,170	c0,101.6,82.7,184.2,184.2,184.2s184.2-82.7,184.2-184.2C426.7,260,408.3,193.2,379.7,142.6z M242.5,473.4	c-88.7,0-160.8-72.1-160.8-160.8c0-48.9,17.3-111.1,44-158.5c15.1-26.7,32.3-47.7,51.2-62.6c13.8-10.8,28.2-18,43.2-21.6	c3.2-0.8,6.3,1.6,6.4,4.9c0.1,5.4,0.2,10.5,0.2,14.7c0,2.1-2.2,3.5-4.1,2.7c-4.1-1.8-6.5-4-6.4-5.7c0-1.3-0.5-2.6-1.6-3.2	c-3.1-1.8-6.2,0.4-6.2,3.3c0,9.8,14.7,17.1,34.1,17.1c19.2,0,33.7-7.2,34.1-16.7c0.1-2-1.3-3.9-3.3-4.3c-2.4-0.4-4.5,1.5-4.5,3.9	c0,1.7-2.3,3.8-6.3,5.6c-1.9,0.9-4.1-0.5-4.1-2.7c0-4.2,0.1-9.3,0.2-14.6c0.1-3.3,3.2-5.6,6.4-4.9c14.9,3.6,29.3,10.8,43,21.6	c18.9,14.8,36.2,35.9,51.2,62.6c26.8,47.4,44,109.6,44,158.5C403.3,401.3,331.2,473.4,242.5,473.4z" class="st2"/><path d="M234.5,90.8c0,2.6,2,4.8,4.6,4.9c1.1,0.1,2.2,0.1,3.4,0.1c1.2,0,2.3,0,3.5-0.1c2.6-0.1,4.6-2.3,4.6-4.9	c0-13.1,0.4-34.8,3.1-51.2c0.8-5.3-2-10.6-7-12.6c-7.9-3.1-16.9,3.5-15.5,11.3C234.2,55.1,234.6,77.4,234.5,90.8z" class="st153"/></svg>