<svg xmlns="http://www.w3.org/2000/svg" xmlns:xlink="http://www.w3.org/1999/xlink" id="Layer_1" x="0" y="0" version="1.1" viewBox="0 0 500 500" xml:space="preserve" style="enable-background:new 0 0 500 500"><style type="text/css">.st1{fill:#7d692f}.st18{fill:#fff}.st197{fill:#e1ca56}.st199{fill:#cc8f66}.st201{fill:#9f9a2f}</style><path d="M352.6,157.5L338.4,119c-13.4-36.4-48-60.5-86.7-60.5h0c-38.7,0-73.4,24.2-86.7,60.5l-15.8,43	c-9.8,26.7-23.1,51.9-37.7,76.3c-18,29.9-26.7,66.1-22.1,104.5c9,74.4,69.2,134,143.7,142.2c98.7,10.9,182.2-66.1,182.2-162.6	c0-30.2-8.2-58.5-22.5-82.8C377.3,213.3,363.1,186.2,352.6,157.5z" class="st197"/><path d="M112.2,361.4c0.7-0.7,1.1-1.6,1.1-2.6c0-1.1-0.5-2.1-1.1-2.6c-1.4-1.4-3.8-1.5-5.2-0.1	c-0.7,0.6-1.1,1.6-1.1,2.6c0,0.9,0.4,1.9,1,2.5c0.6,0.8,1.6,1.2,2.6,1.2C110.4,362.4,111.4,362,112.2,361.4z" class="st201"/><path d="M142.7,344.3c0,1,0.4,1.9,1.1,2.6c0.7,0.7,1.7,1.1,2.6,1.1c1,0,2-0.4,2.6-1c0.7-0.7,1.1-1.6,1.1-2.6	s-0.4-1.9-1.1-2.6c-0.7-0.7-1.6-1.1-2.6-1.1s-1.9,0.3-2.6,1C143.1,342.4,142.7,343.3,142.7,344.3z" class="st201"/><path d="M173,359.1c-0.9,0.1-1.8,0.5-2.2,1c-0.6,0.5-1.2,1.3-1.2,2.7c0,1.1,0.4,2.1,0.9,2.5c0.7,0.8,1.6,1.2,2.7,1.2	c0.9,0,1.8-0.4,2.7-1.2c0.7-0.8,1-1.7,1-2.6c0-1-0.4-1.9-1.1-2.6C175.1,359.4,174,359.1,173,359.1z" class="st201"/><path d="M186.3,366.4c-1,0.1-1.9,0.5-2.3,1c-0.8,0.7-1.2,1.6-1.2,2.7c0,1,0.4,1.9,1,2.4c0.7,0.8,1.6,1.2,2.7,1.2	c1,0,1.9-0.4,2.6-1.1c0.7-0.7,1.1-1.7,1.1-2.6c0-1.1-0.4-2-1.1-2.6C188.4,366.7,187.4,366.4,186.3,366.4z" class="st201"/><path d="M195.3,348.9c0.7,0.7,1.6,1.1,2.6,1.1c0.9,0,1.9-0.4,2.7-1.1c0.6-0.6,1-1.6,1-2.6c0-0.9-0.3-1.8-1-2.6	c-0.7-0.8-1.7-1.1-2.8-1.1c-1,0.1-1.9,0.5-2.4,1.1c-0.7,0.7-1.1,1.6-1.1,2.6C194.3,347.3,194.7,348.2,195.3,348.9z" class="st201"/><path d="M260,338.6c-0.7,0.7-1.1,1.6-1.1,2.6s0.4,1.9,1.1,2.6c0.7,0.7,1.6,1.1,2.6,1.1c1,0,2-0.4,2.6-1.1	c0.7-0.6,1.1-1.6,1.1-2.6s-0.4-1.9-1.1-2.6c-0.7-0.6-1.6-1-2.6-1C261.6,337.6,260.7,337.9,260,338.6z" class="st201"/><path d="M306.2,345.8c-0.7,0.7-1.1,1.7-1.1,2.6c0,0.9,0.4,1.7,1.1,2.6c0.7,0.7,1.6,1.1,2.6,1.1s2-0.4,2.6-1.1	c0.7-0.7,1.1-1.7,1.1-2.6c0-1-0.4-2-1.1-2.6C310,344.4,307.6,344.4,306.2,345.8z" class="st201"/><path d="M228.2,335.5c-0.7,0.7-1.1,1.6-1.1,2.6c0,0.9,0.3,1.8,1,2.6c0.7,0.7,1.6,1.1,2.6,1.1s2-0.5,2.7-1.1	c0.7-0.7,1.1-1.7,1.1-2.6s-0.4-1.9-1.1-2.6C232,334.2,229.5,334.2,228.2,335.5z" class="st201"/><path d="M170.7,335.5c-0.7,0.7-1.1,1.6-1.1,2.6c0,1.1,0.4,2.1,0.9,2.5c0.7,0.8,1.6,1.2,2.7,1.2c1,0,1.9-0.4,2.7-1.1	c0.7-0.7,1.1-1.6,1.1-2.6c0-0.9-0.4-1.9-1.1-2.6C174.5,334.2,172.1,334.1,170.7,335.5z" class="st201"/><path d="M124.3,340.8c0.7-0.7,1.1-1.6,1.1-2.6c0-0.9-0.3-1.9-1-2.5c-1.3-1.5-4-1.4-5.2-0.1c-0.7,0.7-1.1,1.6-1.1,2.6	c0,1.1,0.4,2,1,2.5c0.6,0.8,1.6,1.2,2.6,1.2C122.7,341.9,123.7,341.5,124.3,340.8z" class="st201"/><path d="M279,327.5c1,0,1.9-0.4,2.5-1.1c0.8-0.6,1.2-1.6,1.2-2.6s-0.4-1.9-1.1-2.6c-0.7-0.7-1.6-1.1-2.6-1.1	s-1.9,0.4-2.6,1.1c-0.7,0.7-1.1,1.6-1.1,2.6c0,1.1,0.5,2.1,1.1,2.6C277.1,327.1,278.1,327.5,279,327.5z" class="st201"/><path d="M294.4,372.7c1,0,1.9-0.4,2.6-1.1c0.7-0.7,1.1-1.6,1.1-2.6s-0.4-1.9-1.1-2.6c-0.7-0.7-1.6-1.1-2.6-1.1	s-1.9,0.4-2.6,1.1c-0.7,0.7-1.1,1.6-1.1,2.6s0.4,1.9,1.1,2.6C292.5,372.3,293.4,372.7,294.4,372.7z" class="st201"/><path d="M219,366.5c0.7-0.7,1.1-1.6,1.1-2.6s-0.3-1.8-1.1-2.7c-0.7-0.7-1.7-1-2.7-1c-1,0.1-1.9,0.4-2.5,1.1	c-0.7,0.7-1.1,1.6-1.1,2.6s0.4,1.9,1.1,2.6c0.7,0.7,1.7,1.1,2.6,1.1C217.3,367.6,218.3,367.2,219,366.5z" class="st201"/><path d="M259.6,375.8c0.9,0,1.9-0.4,2.6-1c0.7-0.7,1.1-1.6,1.1-2.6s-0.4-2-1-2.6c0,0-0.1-0.1-0.1-0.1	c0,0-0.1-0.1-0.1-0.1c-1.5-1.4-3.7-1.3-5.2,0.1c-0.6,0.7-1,1.6-1,2.6c0,1.1,0.4,2,1,2.5c0,0,0,0,0.1,0.1c0,0,0,0,0,0	C257.7,375.4,258.7,375.8,259.6,375.8z" class="st201"/><path d="M319.8,241.6c0-1-0.4-1.9-1.1-2.6c-0.7-0.7-1.6-1.1-2.6-1.1s-1.9,0.3-2.6,1c-0.7,0.7-1.1,1.6-1.1,2.6	c0,1,0.4,1.9,1.1,2.6c0.7,0.7,1.6,1.1,2.6,1.1c0.9,0,1.9-0.4,2.5-0.9C319.4,243.6,319.8,242.6,319.8,241.6z" class="st201"/><path d="M358.1,235.7c-1,0.1-1.9,0.5-2.4,1c-0.8,0.7-1.2,1.7-1.2,2.7c0,0.9,0.4,1.9,1,2.5c0.7,0.8,1.7,1.2,2.7,1.2	c1,0,1.9-0.3,2.6-1.2c0.7-0.7,1.1-1.7,1.1-2.6c0-1-0.4-1.9-1.1-2.6C360.1,236.1,359.2,235.7,358.1,235.7z" class="st201"/><path d="M386.6,242.6c0-1-0.4-2-1.1-2.7c-1.4-1.4-3.8-1.4-5.2,0c-0.7,0.7-1.1,1.6-1.1,2.6c0,1,0.4,1.9,1.1,2.6	c0.7,0.7,1.6,1.1,2.6,1.1s1.9-0.4,2.6-1C386.2,244.6,386.6,243.5,386.6,242.6z" class="st201"/><path d="M321.6,311.4c0,1,0.4,1.9,1.1,2.6s1.6,1.1,2.6,1.1c0.9,0,1.9-0.4,2.7-1c0.6-0.7,1-1.6,1-2.6	c0-1.1-0.4-2-1.1-2.7c-1.4-1.4-3.7-1.4-5.2,0C322,309.4,321.6,310.3,321.6,311.4z" class="st201"/><path d="M386.4,264.6c-0.7,0.7-1.1,1.6-1.1,2.6c0,1.1,0.5,2.1,1.1,2.6c0.7,0.7,1.6,1.1,2.6,1.1s1.9-0.4,2.4-1	c0.8-0.7,1.2-1.7,1.2-2.7c0-1-0.3-1.9-1-2.6C390.4,263.3,387.6,263.3,386.4,264.6z" class="st201"/><path d="M375.2,367.4c-0.7,0.7-1.1,1.6-1.1,2.6c0,0.9,0.3,1.8,1,2.6c0.7,0.7,1.6,1.1,2.6,1.1s2-0.4,2.6-0.9	c0.8-0.7,1.2-1.7,1.2-2.7s-0.4-2-1.1-2.7C379,366,376.5,366,375.2,367.4z" class="st201"/><path d="M332.5,268.9c0.9,0,1.8-0.4,2.7-1c0.7-0.8,1-1.7,1-2.6c0-1-0.4-2-1.1-2.7c-1.5-1.4-3.8-1.4-5.2,0	c-0.7,0.7-1.1,1.6-1.1,2.6c0,1.1,0.5,2.1,1.1,2.6C330.7,268.5,331.6,268.9,332.5,268.9z" class="st201"/><path d="M324.9,340.8c-0.6-0.7-1.5-1.1-2.5-1.1c-1,0-2,0.3-2.8,1.1c-0.7,0.7-1,1.6-1,2.5c0,1.1,0.5,2.1,1.1,2.6	c0.7,0.7,1.6,1.1,2.6,1.1c0.9,0,1.7-0.4,2.5-1.1c0.7-0.7,1.1-1.6,1.1-2.6C325.9,342.4,325.6,341.5,324.9,340.8z" class="st201"/><path d="M353.1,283.2c1,0,1.9-0.4,2.6-1.1c0.7-0.7,1.1-1.7,1.1-2.6c0-1-0.4-1.9-1.1-2.6c-1.4-1.4-3.8-1.4-5.2,0	c-0.7,0.7-1.1,1.6-1.1,2.6c0,1,0.4,1.9,1,2.5C351.1,282.8,352.1,283.2,353.1,283.2z" class="st201"/><path d="M372.6,287.4c1,0,1.9-0.4,2.6-1.1c0.7-0.7,1.1-1.7,1.1-2.6c0-1-0.4-1.9-1.1-2.6c-0.7-0.6-1.7-1-2.7-1	s-1.9,0.4-2.4,0.9c-0.8,0.6-1.2,1.6-1.2,2.7c0,1,0.4,1.9,1.1,2.6C370.7,287,371.6,287.4,372.6,287.4z" class="st201"/><path d="M344.2,357.7c0,1,0.4,1.9,1.1,2.6c0.7,0.7,1.7,1.1,2.6,1.1c0.9,0,1.8-0.4,2.6-1.2c0.7-0.7,1.1-1.7,1.1-2.6	c0-1-0.4-1.9-1.1-2.6c-0.7-0.6-1.7-1.1-2.7-1c-1,0.1-1.9,0.5-2.5,1.1C344.6,355.8,344.2,356.7,344.2,357.7z" class="st201"/><path d="M374.6,327.5c1,0,2-0.4,2.6-1.1c0.7-0.7,1.1-1.7,1.1-2.6c0-1-0.4-2-1.1-2.6c-1.4-1.4-3.8-1.4-5.1-0.1	c-0.8,0.7-1.2,1.7-1.2,2.7s0.4,1.9,1.1,2.6C372.7,327.1,373.6,327.5,374.6,327.5z" class="st201"/><path d="M356.1,310.8c-0.9,0-1.9,0.4-2.6,1.1c-0.7,0.8-1,1.7-1,2.6c0,1,0.4,1.9,1.1,2.6c0.7,0.7,1.6,1.1,2.6,1.1	s2-0.4,2.5-1.2c0.7-0.7,1.1-1.6,1.1-2.6s-0.4-1.9-1.1-2.6C358,311.2,357.1,310.8,356.1,310.8z" class="st201"/><path d="M392.6,297.5c-0.7,0.8-1.1,1.7-1.1,2.6c0,1,0.4,1.9,1.1,2.6c0.7,0.7,1.6,1.1,2.6,1.1s2-0.4,2.6-1.2	c0.7-0.6,1.1-1.6,1.1-2.6c0-0.8-0.3-1.7-1.1-2.6C396.3,296,393.9,296,392.6,297.5z" class="st201"/><path d="M198.8,315.9c-1,0.1-1.9,0.5-2.4,1c-0.8,0.7-1.2,1.7-1.2,2.7c0,1,0.4,1.9,1.1,2.6c0.7,0.7,1.6,1.1,2.6,1.1	c0.9,0,1.8-0.3,2.6-1.2c0.7-0.6,1.1-1.6,1.1-2.6c0-1.1-0.5-2-1.1-2.6C200.8,316.3,199.8,315.7,198.8,315.9z" class="st201"/><path d="M121.3,256.2c-0.8,0.7-1.2,1.7-1.2,2.7s0.4,1.9,1.1,2.6c0.7,0.7,1.6,1.1,2.6,1.1c1,0,2-0.4,2.6-1.1	c0.7-0.7,1.1-1.7,1.1-2.6c0-1-0.4-2-1.2-2.8C124.9,254.8,122.5,254.9,121.3,256.2z" class="st201"/><path d="M138.8,271.9c-0.7,0.7-1,1.6-1,2.5c0,1.1,0.3,2,1,2.6c0.6,0.7,1.6,1.1,2.6,1.1c0.9,0,1.8-0.4,2.7-1.1	c0.7-0.7,1.1-1.7,1.1-2.6c0-1-0.4-1.9-1.1-2.6c-0.7-0.6-1.6-1-2.6-1S139.5,271.2,138.8,271.9z" class="st201"/><path d="M140.3,245.3c0.9,0,1.8-0.4,2.7-1.2c0.6-0.7,0.9-1.6,0.9-2.5c0-0.9-0.4-1.9-1.1-2.7c-0.7-0.7-1.7-1-2.7-1	c-0.9,0.1-1.8,0.5-2.3,1c-0.8,0.7-1.2,1.7-1.2,2.7c0,1,0.4,1.9,1.1,2.6C138.4,244.9,139.3,245.3,140.3,245.3z" class="st201"/><path d="M159.5,286.8c0-1-0.4-1.9-1.1-2.6c-0.7-0.6-1.6-1-2.6-1c-1,0-1.9,0.4-2.6,1c-0.7,0.7-1.1,1.6-1.1,2.6	c0,0.9,0.3,1.8,1,2.6c0.7,0.7,1.6,1.1,2.6,1.1s2-0.4,2.7-1.1C159.1,288.7,159.5,287.8,159.5,286.8z" class="st201"/><path d="M151.7,302.6h-0.1c-1,0.1-2,0.5-2.5,1.1c-0.7,0.7-1.1,1.6-1.1,2.6c0,0.9,0.3,1.8,1,2.6	c0.7,0.7,1.6,1.1,2.6,1.1c1,0,2-0.4,2.8-1.3c0.7-0.7,1-1.6,1-2.5c0-0.9-0.3-1.8-1-2.5C153.7,303,152.7,302.6,151.7,302.6z" class="st201"/><path d="M109,305.7c-0.8,0.6-1.2,1.6-1.2,2.6c0,0.9,0.4,1.7,1.1,2.6c0.7,0.7,1.6,1.1,2.6,1.1c1,0,2-0.5,2.6-1.1	c0.7-0.7,1.1-1.6,1.1-2.6c0-1-0.4-1.9-1.1-2.6C112.7,304.4,110.2,304.4,109,305.7z" class="st201"/><path d="M120.8,293.5c0.9,0,1.8-0.3,2.5-1.1c0.7-0.7,1.1-1.6,1.1-2.6s-0.4-2-1-2.5c-0.7-0.7-1.7-1.1-2.7-1.1	c-1,0-1.9,0.4-2.5,1c-0.7,0.7-1.1,1.6-1.1,2.6s0.4,1.9,1.1,2.6C118.9,293.1,119.8,293.5,120.8,293.5z" class="st201"/><path d="M204,254.5c0.9,0,1.9-0.4,2.6-1.1c0.7-0.6,1.1-1.6,1.1-2.6c0-1-0.4-1.9-1.1-2.6c-1.4-1.4-3.7-1.4-5.2,0	c-0.7,0.7-1.1,1.6-1.1,2.6c0,1,0.4,1.9,1.1,2.6C202.1,254.1,203.1,254.5,204,254.5z" class="st201"/><path d="M239.6,291.8c0-1-0.4-1.9-1.1-2.6c-0.7-0.6-1.8-1.1-2.7-1c-1,0.1-1.9,0.5-2.4,1c-0.7,0.6-1.2,1.7-1.2,2.7	c0,1,0.4,2,1.1,2.6c0.6,0.7,1.6,1.1,2.6,1.1s1.9-0.4,2.5-1.1C239.2,293.8,239.6,292.8,239.6,291.8z" class="st201"/><path d="M270.9,306.9c1,0,1.9-0.4,2.6-1.1c0.7-0.7,1.1-1.7,1.1-2.6c0-1-0.4-1.9-1.1-2.6s-1.6-1.1-2.6-1.1	c-1-0.1-1.9,0.4-2.6,1.1s-1.1,1.6-1.1,2.6s0.4,1.9,1.1,2.6C268.9,306.5,269.8,306.9,270.9,306.9z" class="st201"/><path d="M290.7,266.2c0,0.9,0.4,1.8,1.2,2.7c0.7,0.6,1.6,0.9,2.5,0.9c1,0,2-0.3,2.6-1c0.7-0.7,1.1-1.6,1.1-2.6	c0-1-0.4-1.9-1.1-2.6c-0.7-0.7-1.6-1.1-2.6-1.1s-1.9,0.4-2.6,1.1C291.1,264.3,290.7,265.2,290.7,266.2z" class="st201"/><path d="M295.5,295.3c-1,0-1.9,0.4-2.6,1.1c-0.7,0.7-1.1,1.6-1.1,2.6c0,1.1,0.5,2.1,1.1,2.6c0.7,0.7,1.6,1.1,2.6,1.1	c0.9,0,1.9-0.4,2.5-1.1c0.8-0.6,1.2-1.6,1.2-2.6s-0.4-1.9-1.1-2.6C297.5,295.7,296.5,295.3,295.5,295.3z" class="st201"/><path d="M198.4,266.7c0.7-0.7,1.1-1.6,1.1-2.6c0-1-0.4-1.9-1.1-2.6c-1.3-1.3-3.9-1.3-5.2,0c-0.7,0.7-1.1,1.6-1.1,2.6	c0,1,0.4,1.9,1.1,2.6c0.7,0.7,1.7,1.1,2.6,1.1C196.8,267.8,197.7,267.4,198.4,266.7z" class="st201"/><path d="M209.8,295.5c0.7-0.7,1.1-1.6,1.1-2.6c0-1-0.4-1.9-1.1-2.6c-0.7-0.6-1.6-1-2.6-1c-1,0-1.9,0.3-2.6,1	c-0.7,0.7-1.1,1.6-1.1,2.6c0,1,0.4,1.9,1.1,2.6c0.6,0.7,1.6,1.1,2.6,1.1C208.1,296.6,209,296.2,209.8,295.5z" class="st201"/><path d="M185.1,282.6c0-1-0.4-1.9-1.1-2.6c-1.4-1.4-3.8-1.4-5.3,0c-0.6,0.6-1,1.6-1,2.6c0,1.1,0.5,2.1,1.1,2.6	c0.7,0.7,1.6,1.1,2.6,1.1c1.1,0,2.1-0.5,2.5-1C184.6,284.7,185.1,283.6,185.1,282.6z" class="st201"/><path d="M257,280.6c0-1-0.4-1.9-1.1-2.6c-1.4-1.4-3.8-1.4-5.2,0c-0.7,0.7-1.1,1.6-1.1,2.6c0,1,0.4,1.9,1.1,2.6	c0.7,0.7,1.6,1.1,2.6,1.1c1,0,1.9-0.4,2.6-1.1C256.6,282.5,257,281.6,257,280.6z" class="st201"/><path d="M277.6,248.7c0-0.9-0.4-1.8-1.1-2.6c-0.7-0.7-1.6-1.1-2.6-1.1s-2,0.4-2.7,1.1c-0.7,0.8-1,1.7-1,2.6	c0,1,0.4,1.9,1.1,2.6c0.7,0.7,1.7,1.1,2.6,1.1c0.9,0,1.8-0.3,2.7-1.1C277.3,250.5,277.6,249.6,277.6,248.7z" class="st201"/><path d="M276.4,280.6c0,1.1,0.4,2,1.1,2.6c0.7,0.7,1.6,1.1,2.6,1.1c0.9,0,1.8-0.4,2.7-1.2c0.6-0.7,0.9-1.6,0.9-2.5	c0-0.9-0.4-1.8-1.1-2.6c-1.5-1.4-3.8-1.4-5.2,0C276.8,278.7,276.4,279.6,276.4,280.6z" class="st201"/><path d="M183.4,242.1c1,0,2-0.4,2.6-1.1c0.7-0.7,1.1-1.7,1.1-2.6s-0.4-1.9-1.1-2.6c-1.4-1.4-3.8-1.4-5.2,0	c-0.7,0.7-1.1,1.6-1.1,2.6s0.4,1.9,1.1,2.6C181.5,241.7,182.5,242.1,183.4,242.1z" class="st201"/><path d="M306.2,260.4c-0.7,0.8-1.1,1.7-1.1,2.7s0.4,1.9,1.1,2.6c0.7,0.7,1.6,1.1,2.6,1.1c1.1,0,2.1-0.4,2.6-1.1	c0.7-0.8,1.1-1.7,1.1-2.6c0-0.9-0.3-1.8-1.1-2.7C310,259.1,307.5,259.1,306.2,260.4z" class="st201"/><path d="M230,241.5c0,1,0.4,1.9,1.1,2.6c0.7,0.7,1.6,1.1,2.6,1.1c1,0,2-0.4,2.6-1.1c0.7-0.7,1.1-1.7,1.1-2.6	c0-1-0.4-1.9-1.1-2.6c-0.7-0.6-1.6-1-2.6-1c-1,0-1.9,0.4-2.6,1C230.4,239.6,230,240.5,230,241.5z" class="st201"/><path d="M233.4,260.4c-0.7,0.6-1.2,1.7-1.2,2.7s0.4,2,1.1,2.6c0.6,0.7,1.6,1.1,2.6,1.1s1.9-0.4,2.5-1	c0.8-0.7,1.2-1.7,1.2-2.7s-0.4-1.9-1.1-2.6c-0.7-0.7-1.8-1.2-2.7-1.1C234.8,259.5,233.9,259.9,233.4,260.4z" class="st201"/><path d="M197.9,103.4c0.9,0,1.9-0.4,2.8-1.2c0.6-0.6,1-1.6,1-2.6c0-1-0.4-1.9-1.1-2.6c-1.5-1.3-3.9-1.3-5.2,0.1	c-0.7,0.7-1.1,1.6-1.1,2.6c0,1,0.3,1.9,0.9,2.5C195.9,103,196.8,103.4,197.9,103.4z" class="st201"/><path d="M181.5,154c1.1,0,2-0.5,2.5-1.1c0.7-0.6,1.2-1.7,1.2-2.7c0-0.9-0.4-1.9-1.1-2.6c-1.5-1.3-3.9-1.3-5.2,0.1	c-0.7,0.7-1.1,1.6-1.1,2.6c0,1.1,0.5,2.1,1,2.5C179.5,153.6,180.5,154,181.5,154z" class="st201"/><path d="M292.9,191.7c-0.7,0.7-1.1,1.6-1.1,2.6s0.4,1.9,1.1,2.6c0.7,0.7,1.6,1.1,2.6,1.1c0.9,0,1.9-0.4,2.6-1.1	c0.7-0.7,1.1-1.6,1.1-2.6s-0.4-1.9-1.1-2.6C296.7,190.2,294.3,190.2,292.9,191.7z" class="st201"/><path d="M221,199.9c0.6,0.7,1.6,1.1,2.6,1.1s1.9-0.4,2.6-1.1c0.7-0.7,1.1-1.7,1.1-2.6c0-1.1-0.4-2-1.1-2.6	c-1.4-1.4-3.8-1.4-5.1-0.1c-0.7,0.6-1.2,1.7-1.2,2.7S220.3,199.2,221,199.9z" class="st201"/><path d="M161.4,205c-0.7,0.7-1.1,1.6-1.1,2.6c0,1,0.4,1.9,1,2.6c0.7,0.7,1.6,1.1,2.6,1.1s1.9-0.4,2.6-1.1	c0.7-0.7,1.1-1.6,1.1-2.6c0-1-0.4-2-1-2.5c-0.7-0.7-1.7-1.1-2.7-1.1S162,204.4,161.4,205z" class="st201"/><path d="M248.4,208.1c-0.7,0.7-1.1,1.6-1.1,2.6c0,1,0.4,1.9,1.1,2.6c0.6,0.7,1.6,1.1,2.6,1.1s1.9-0.4,2.6-1.1	c0.7-0.7,1.1-1.6,1.1-2.6c0-1-0.4-1.9-1.1-2.6C252.2,206.8,249.7,206.8,248.4,208.1z" class="st201"/><path d="M309.3,160.9c0.7-0.7,1.1-1.6,1.1-2.6s-0.4-2-1-2.5c-0.7-0.7-1.6-1.1-2.6-1.1s-1.9,0.3-2.5,0.9	c-0.8,0.7-1.2,1.7-1.2,2.7c0,1.1,0.5,2.1,1.1,2.6c0.7,0.7,1.7,1.1,2.6,1.1C307.6,162,308.6,161.6,309.3,160.9z" class="st201"/><path d="M308.8,105.4c1,0,1.9-0.4,2.4-0.9c0.7-0.7,1.2-1.7,1.2-2.7c0-0.9-0.3-1.8-1.1-2.7c-0.7-0.7-1.7-1-2.7-1	c-0.9,0-1.8,0.4-2.4,1c-0.7,0.7-1.1,1.6-1.1,2.6c0,0.9,0.4,1.9,1.1,2.6C306.9,105,307.8,105.4,308.8,105.4z" class="st201"/><path d="M204.7,209.8c0-1-0.4-1.9-1.1-2.6c-0.7-0.7-1.6-1.1-2.6-1.1c-1,0-1.9,0.3-2.6,1c-0.7,0.7-1.1,1.6-1.1,2.6	c0,1.1,0.5,2.1,1.1,2.6c0.7,0.7,1.7,1.1,2.6,1.1c1.1,0,2-0.5,2.5-0.9C204.2,211.8,204.7,210.9,204.7,209.8z" class="st201"/><path d="M224,217.9c0,1,0.4,1.9,1.1,2.6c0.7,0.7,1.6,1.1,2.6,1.1c0.9,0,1.8-0.4,2.6-1.1c0.7-0.7,1.1-1.7,1.1-2.6	c0-0.9-0.4-1.9-1.1-2.6c-1.4-1.4-3.8-1.4-5.2,0C224.4,215.9,224,216.8,224,217.9z" class="st201"/><path d="M283.8,118.5c1,0,1.9-0.4,2.6-1.1c0.7-0.7,1.1-1.7,1.1-2.6c0-1.1-0.4-2-1.1-2.6c-1.4-1.4-3.8-1.4-5.2,0	c-0.7,0.7-1.1,1.6-1.1,2.6c0,0.9,0.4,1.9,1,2.5C281.8,118.1,282.8,118.5,283.8,118.5z" class="st201"/><path d="M287.7,144.4c0.7,0.7,1.7,1.1,2.6,1.1c0.9,0,1.8-0.3,2.5-1.1c0.7-0.7,1.1-1.6,1.1-2.6s-0.4-2-1-2.5	c-0.7-0.7-1.6-1.1-2.6-1.1c-0.8-0.1-1.9,0.3-2.5,0.9c-0.8,0.7-1.2,1.7-1.2,2.7C286.6,142.9,287.1,143.8,287.7,144.4z" class="st201"/><path d="M250.3,147.6c1,0,1.9-0.4,2.6-1.1c0.7-0.6,1.1-1.6,1.1-2.6s-0.4-1.9-1.1-2.6c-1.4-1.4-3.8-1.4-5.2,0	c-0.7,0.7-1.1,1.6-1.1,2.6s0.4,1.9,1.1,2.6C248.4,147.2,249.4,147.6,250.3,147.6z" class="st201"/><path d="M259.6,129.1c0.9,0,1.8-0.4,2.5-1c0.7-0.7,1.1-1.6,1.1-2.6c0-1-0.4-1.9-1.1-2.7c-1.4-1.4-3.8-1.4-5.2,0	c-0.6,0.6-1,1.6-1,2.6c0,1,0.3,1.8,1.1,2.7C257.8,128.8,258.7,129.1,259.6,129.1z" class="st201"/><path d="M241,179.5c1,0,1.9-0.4,2.5-1c0.8-0.7,1.2-1.7,1.2-2.7c0-1-0.4-1.9-1.1-2.6c-1.3-1.4-3.7-1.4-5.2,0	c-0.7,0.7-1.1,1.6-1.1,2.6c0,1.1,0.5,2.1,1.1,2.6C239.1,179.1,240.1,179.5,241,179.5z" class="st201"/><path d="M267.7,190.7c1,0,1.8-0.3,2.7-1.2c0.6-0.7,0.9-1.5,0.9-2.5c0-0.9-0.3-1.8-1.1-2.7c-1.4-1.3-3.8-1.2-5.1,0.1	c-0.7,0.7-1.1,1.6-1.1,2.6c0,1,0.4,1.9,1.1,2.6C265.8,190.3,266.7,190.7,267.7,190.7z" class="st201"/><path d="M273.9,168.2c1,0,2-0.4,2.5-1c0.8-0.7,1.2-1.7,1.2-2.7s-0.4-1.9-1.1-2.6c-0.6-0.6-1.6-1-2.6-1h-0.1	c-1,0-1.9,0.4-2.5,1c-0.7,0.7-1.1,1.6-1.1,2.6c0,1.1,0.5,2.1,1.1,2.6C272,167.8,273,168.2,273.9,168.2z" class="st201"/><path d="M282.6,212.2c-0.7,0.7-1.1,1.6-1.1,2.6c0,0.9,0.4,1.8,1.1,2.6c0.6,0.7,1.6,1.1,2.6,1.1s1.9-0.4,2.5-1	c0.7-0.7,1.1-1.6,1.1-2.6c0-1.1-0.5-2.1-1.1-2.6c-0.7-0.7-1.6-1.1-2.6-1.1S283.2,211.6,282.6,212.2z" class="st201"/><path d="M309.4,211c-0.8,0.6-1.2,1.6-1.2,2.7c0,1.1,0.5,2.1,1.1,2.6c0.7,0.7,1.7,1.1,2.6,1.1c1,0,1.9-0.4,2.5-1.1	c0.8-0.6,1.2-1.6,1.2-2.6c0-1-0.4-1.9-1.1-2.6C313.2,209.7,310.8,209.7,309.4,211z" class="st201"/><path d="M335,221.5c-0.7,0.7-1.1,1.6-1.1,2.6c0,1,0.4,1.9,1.1,2.6c0.7,0.7,1.6,1.1,2.6,1.1c0.9,0,1.9-0.4,2.7-1	c0.7-0.7,1.1-1.7,1.1-2.6c0-1-0.4-1.9-1.1-2.6c-0.7-0.7-1.8-1.1-2.8-1.1S335.6,220.9,335,221.5z" class="st201"/><path d="M333.5,191.8c1,0,1.9-0.4,2.5-1c0.7-0.7,1.2-1.7,1.2-2.7c0-1-0.4-2-1.1-2.6c-1.4-1.4-3.8-1.4-5.2,0	c-0.7,0.7-1.1,1.6-1.1,2.6c0,1,0.4,1.9,1.1,2.6C331.6,191.4,332.5,191.8,333.5,191.8z" class="st201"/><path d="M373.3,226.1c0-1-0.4-1.9-1.1-2.6c-0.7-0.6-1.6-1-2.6-1s-1.9,0.3-2.6,1c-0.7,0.7-1.1,1.6-1.1,2.6	c0,0.9,0.3,1.8,1,2.6c0.6,0.7,1.6,1.1,2.6,1.1s1.9-0.4,2.7-1.1C372.9,228,373.3,227.1,373.3,226.1z" class="st201"/><path d="M317.1,170.2c0.9,0,1.8-0.3,2.5-1.1c0.6-0.6,1-1.6,1-2.6c0-1-0.4-1.9-1-2.5c-0.6-0.7-1.5-1.1-2.5-1.1	c-1,0-2,0.3-2.8,1.1c-0.6,0.7-0.9,1.5-0.9,2.5c0,1.1,0.4,2,1.1,2.6C315.2,169.8,316.1,170.2,317.1,170.2z" class="st201"/><path d="M320.1,121.8c1,0,1.9-0.3,2.4-0.9c0.8-0.6,1.3-1.6,1.3-2.7c0-1-0.4-2-1.1-2.7c-0.7-0.7-1.7-1-2.7-1	c-0.9,0-1.8,0.4-2.4,1c-0.7,0.7-1.1,1.6-1.1,2.6c0,1,0.4,2,1,2.6C318.2,121.4,319.1,121.8,320.1,121.8z" class="st201"/><path d="M293,234.3c0-1-0.4-1.9-1.1-2.6c-0.6-0.6-1.5-1-2.6-1c-1,0-1.9,0.4-2.4,0.9c-0.8,0.7-1.2,1.7-1.2,2.7	c0,1,0.4,1.9,1.1,2.6c0.6,0.7,1.6,1.1,2.6,1.1c0.8,0,1.7-0.3,2.5-1.1C292.6,236.2,293,235.2,293,234.3z" class="st201"/><path d="M267.2,232.8c0.7-0.6,1.1-1.6,1.1-2.6c0-0.8-0.4-1.8-1-2.5c-0.7-0.7-1.6-1.1-2.6-1.1c-1,0-2,0.4-2.7,1.1	c-0.7,0.7-1.1,1.7-1.1,2.6c0,1,0.4,2,1.2,2.7c0.8,0.7,1.7,1,2.6,1C265.7,234,266.7,233.5,267.2,232.8z" class="st201"/><path d="M164.6,395.3c0.7-0.7,1.1-1.6,1.1-2.6s-0.4-1.9-1.1-2.6c-1.3-1.3-3.9-1.4-5.3,0.1c-0.7,0.7-1,1.6-1,2.5	c0,1,0.4,1.9,1.1,2.6c0.7,0.7,1.6,1.1,2.6,1.1C162.7,396.4,163.6,396,164.6,395.3z" class="st201"/><path d="M206.6,375.6c-0.7,0.7-1.1,1.6-1.1,2.6s0.4,1.9,1.1,2.6c0.7,0.7,1.7,1.1,2.6,1.1c1,0,1.9-0.4,2.6-1.1	c0.7-0.6,1.1-1.6,1.1-2.6s-0.4-1.9-1.1-2.6C210.4,374.2,208.1,374.2,206.6,375.6z" class="st201"/><path d="M292.9,395.1c-0.7,0.7-1.1,1.6-1.1,2.6s0.4,1.9,1.1,2.6c0.7,0.7,1.7,1.1,2.6,1.1c0.9,0,1.9-0.4,2.5-1.1	c0.7-0.7,1.1-1.6,1.1-2.6s-0.4-2-1.1-2.6C296.7,393.7,294.4,393.7,292.9,395.1z" class="st201"/><path d="M223.6,397.2c-0.9-0.1-1.9,0.3-2.6,1c-0.7,0.7-1.1,1.6-1.1,2.6c0,1,0.4,1.9,1.1,2.6c0.7,0.7,1.6,1.1,2.6,1.1	c0.8,0,1.7-0.3,2.5-1.1c0.7-0.7,1.1-1.6,1.1-2.6c0-1-0.4-2-1-2.5C225.5,397.6,224.6,397.2,223.6,397.2z" class="st201"/><path d="M163.9,407.5c-1,0-1.9,0.4-2.5,1c-0.7,0.7-1.1,1.6-1.1,2.6s0.4,2,1,2.6c0.6,0.7,1.6,1.1,2.6,1.1	s2-0.4,2.6-0.9c0.8-0.7,1.2-1.6,1.2-2.7c0-1-0.4-1.9-1.1-2.6C166,407.9,165,407.5,163.9,407.5z" class="st201"/><path d="M111.5,381.7c-1,0.1-1.9,0.5-2.4,1c-0.8,0.7-1.2,1.7-1.2,2.7s0.4,1.9,1.1,2.6c0.7,0.7,1.6,1.1,2.6,1.1	c0.9,0,1.9-0.4,2.6-1.1c0.7-0.7,1.1-1.6,1.1-2.6s-0.4-2-1.1-2.7C113.5,382,112.5,381.6,111.5,381.7z" class="st201"/><path d="M125.9,397.2c-1,0-1.9,0.4-2.5,1c-0.7,0.6-1.1,1.6-1.1,2.6c0,1.1,0.4,2.1,1,2.5c0.6,0.8,1.6,1.2,2.7,1.2	c0.8,0,1.8-0.4,2.5-1.1c0.7-0.7,1.1-1.6,1.1-2.6c0-1-0.4-2-1-2.5C127.9,397.6,126.9,397.2,125.9,397.2z" class="st201"/><path d="M262.1,409.5c-0.7,0.7-1.1,1.7-1.1,2.6c0,0.9,0.4,1.8,1.1,2.6c0.7,0.7,1.6,1.1,2.6,1.1c0.9,0,1.9-0.4,2.5-1.1	c0.7-0.7,1.1-1.6,1.1-2.6c0-0.9-0.3-1.8-1-2.6C265.9,408.1,263.5,408.1,262.1,409.5z" class="st201"/><path d="M200.9,416.8c1.1,0,2-0.4,2.7-1c0.7-0.8,1-1.7,1-2.6c0-0.9-0.4-1.8-1.1-2.6c-0.7-0.7-1.6-1.1-2.6-1.1	c-1,0-2,0.4-2.7,1.1c-0.7,0.7-1,1.6-1,2.5c0,1,0.4,2,1,2.5C198.7,416.2,199.5,416.8,200.9,416.8z" class="st201"/><path d="M224,421.4c0,1,0.4,1.9,1.1,2.6c0.7,0.7,1.6,1.1,2.6,1.1c0.8,0,1.7-0.3,2.5-1c0.7-0.7,1.1-1.6,1.1-2.6	c0-1.1-0.5-2.1-1.1-2.6c-0.6-0.7-1.6-1.1-2.6-1.1s-1.9,0.4-2.5,1C224.4,419.5,224,420.4,224,421.4z" class="st201"/><path d="M127.3,373.6c-0.7,0.7-1,1.6-1,2.5c0,1.1,0.4,2,1,2.5c0.7,0.7,1.7,1.2,2.7,1.2c0.9,0,1.8-0.3,2.6-1.1	c0.7-0.7,1.1-1.6,1.1-2.6c0-0.9-0.4-1.8-1.1-2.6C131.3,372.2,128.8,372.1,127.3,373.6z" class="st201"/><path d="M241,383c1,0,1.9-0.4,2.7-1.2c0.7-0.7,1-1.6,1-2.5c0-1-0.4-1.9-1.1-2.6c-1.4-1.4-3.8-1.4-5.2,0	c-0.7,0.7-1.1,1.6-1.1,2.6c0,0.9,0.4,1.9,1.1,2.6C239.1,382.6,240,383,241,383z" class="st201"/><path d="M265.1,387.9c-0.7,0.6-1,1.5-1,2.6s0.3,1.9,1,2.6c0.7,0.7,1.6,1.1,2.6,1.1s2-0.4,2.8-1.1	c0.6-0.7,0.9-1.6,0.9-2.5c0-1.1-0.4-2-1.1-2.7C268.9,386.5,266.6,386.5,265.1,387.9z" class="st201"/><path d="M282.6,415.6c-0.7,0.7-1.1,1.6-1.1,2.6s0.4,1.9,1.1,2.6c0.7,0.7,1.6,1.1,2.6,1.1c0.9,0,1.9-0.4,2.6-1.1	c0.7-0.7,1.1-1.6,1.1-2.6s-0.4-1.9-1.1-2.6C286.5,414.2,284.2,414.2,282.6,415.6z" class="st201"/><path d="M279,468c-1,0-1.9,0.4-2.6,1.1c-0.7,0.7-1.1,1.6-1.1,2.6c0,1.1,0.5,2.1,1.1,2.6c0.7,0.7,1.7,1.1,2.6,1.1	c1,0,1.9-0.4,2.5-1.1c0.8-0.6,1.2-1.6,1.2-2.6s-0.4-1.9-1.1-2.6C280.9,468.4,280,468,279,468z" class="st201"/><path d="M332.1,444.1c0-1-0.4-1.9-1.1-2.6c-0.7-0.7-1.7-1-2.7-1.1c-1,0-1.9,0.4-2.5,1c-0.7,0.7-1.1,1.6-1.1,2.6	s0.4,1.9,1,2.5c0.7,0.8,1.7,1.2,2.7,1.2s2-0.4,2.6-1C331.7,446,332.1,445.1,332.1,444.1z" class="st201"/><path d="M346.9,413.6c-1.1,0-2,0.4-2.5,0.9c-0.8,0.7-1.2,1.7-1.2,2.7s0.4,1.9,1.1,2.6c0.7,0.7,1.6,1.1,2.6,1.1	c0.9,0,1.9-0.4,2.6-1.1c0.7-0.7,1.1-1.6,1.1-2.6c0-0.9-0.4-1.9-1-2.5C348.9,414,348.1,413.7,346.9,413.6z" class="st201"/><path d="M354.1,407.7c1,0,2-0.4,2.6-1.1c0.6-0.6,1-1.6,1-2.6c0-1.1-0.3-1.9-1-2.6c-0.7-0.7-1.6-1.2-2.7-1.1	c-1,0.1-1.9,0.5-2.5,1.1c-0.7,0.7-1.1,1.6-1.1,2.6c0,0.9,0.4,1.8,1.1,2.6C352.2,407.3,353.1,407.7,354.1,407.7z" class="st201"/><path d="M327.9,390c-0.7,0.7-1.1,1.6-1.1,2.6c0,0.9,0.4,1.8,1.1,2.6c0.6,0.7,1.6,1.1,2.6,1.1s1.9-0.5,2.5-1.1	c0.8-0.6,1.2-1.5,1.2-2.6c0-1-0.4-2-1.1-2.7C331.6,388.6,329.3,388.6,327.9,390z" class="st201"/><path d="M375.2,383.8c-0.7,0.7-1.1,1.6-1.1,2.6c0,0.9,0.3,1.8,1,2.6c0.7,0.7,1.6,1.1,2.6,1.1s1.9-0.4,2.7-1	c0.7-0.7,1.1-1.7,1.1-2.6c0-1-0.4-2-1.1-2.7C379,382.4,376.6,382.4,375.2,383.8z" class="st201"/><path d="M322.1,413.6c-0.9,0-1.9,0.4-2.6,1.1c-0.7,0.7-1,1.6-1,2.5c0,1.1,0.5,2.1,1.1,2.6c0.7,0.7,1.6,1.1,2.6,1.1	c0.9,0,1.7-0.3,2.5-1.1c0.7-0.7,1.1-1.6,1.1-2.6c0-0.9-0.3-1.8-1-2.5c-0.7-0.7-1.6-1.1-2.6-1.1C322.1,413.6,322.1,413.6,322.1,413.6	z" class="st201"/><path d="M350.5,376.7c0.7-0.6,1.1-1.6,1.1-2.6c0-1-0.4-1.9-1.1-2.6c-1.3-1.3-3.3-1.4-4.7-0.4	c-0.2,0.1-0.4,0.3-0.5,0.4c-0.7,0.7-1.1,1.6-1.1,2.6c0,1.1,0.4,2,1,2.5c0.7,0.8,1.7,1.2,2.7,1.2c0.6,0,1.2-0.2,1.7-0.5	c0.1-0.1,0.2-0.1,0.3-0.2c0,0,0,0,0.1-0.1c0.1-0.1,0.3-0.2,0.4-0.3C350.5,376.8,350.5,376.8,350.5,376.7	C350.5,376.8,350.5,376.8,350.5,376.7z" class="st201"/><path d="M172.1,433.4c1,0,2-0.4,2.6-1c0.7-0.7,1.1-1.6,1.1-2.6s-0.4-1.9-1.1-2.6c-0.7-0.7-1.6-1.1-2.6-1.1	c-1-0.1-1.9,0.3-2.6,1c-0.7,0.7-1.1,1.6-1.1,2.6c0,0.9,0.4,1.8,1.2,2.7C170.4,433.1,171.2,433.4,172.1,433.4z" class="st201"/><path d="M260,442.4c-0.7,0.6-1.1,1.6-1.1,2.6s0.4,1.9,1.1,2.6c0.7,0.7,1.6,1.1,2.6,1.1c1.1,0,2.1-0.5,2.5-0.9	c0.8-0.7,1.2-1.7,1.2-2.7c0-1.1-0.5-2.1-1.1-2.6C263.8,441.1,261.4,441,260,442.4z" class="st201"/><path d="M174.1,454.5c0.7-0.7,1.1-1.6,1.1-2.6s-0.4-2-1-2.5c-0.7-0.7-1.6-1.1-2.6-1.1c-1,0-2,0.4-2.6,1	c-0.7,0.6-1.1,1.6-1.1,2.6c0,1.1,0.3,2,0.9,2.5c0.7,0.8,1.7,1.2,2.7,1.2S173.4,455.2,174.1,454.5z" class="st201"/><path d="M221.5,455.6c-1,0-1.9,0.4-2.6,1.1c-0.7,0.7-1.1,1.6-1.1,2.6s0.4,1.9,1.1,2.6c0.7,0.7,1.6,1.1,2.6,1.1	s2-0.4,2.6-1.1c0.7-0.7,1.1-1.7,1.1-2.6c0-1-0.4-1.9-1.1-2.6C223.4,456,222.5,455.6,221.5,455.6z" class="st201"/><path d="M245.8,427.4c0-1-0.4-1.9-1.1-2.6c-0.7-0.6-1.6-0.9-2.7-1c-1,0-1.9,0.4-2.4,1c-0.8,0.6-1.2,1.6-1.2,2.7	c0,1,0.4,1.9,1.1,2.6c0.7,0.7,1.7,1.1,2.6,1.1c0.9,0,1.8-0.3,2.6-1.2C245.4,429.3,245.8,428.3,245.8,427.4z" class="st201"/><path d="M245.7,456.7c-0.7,0.7-1.1,1.6-1.1,2.6s0.4,1.9,1.1,2.6c0.6,0.7,1.6,1.1,2.6,1.1c0.9,0,1.9-0.4,2.6-1.1	c0.7-0.7,1.1-1.6,1.1-2.6s-0.4-1.9-1.1-2.6C249.6,455.4,247,455.4,245.7,456.7z" class="st201"/><path d="M279.6,444.6c0.7-0.7,1.1-1.6,1.1-2.6c0-1-0.4-1.9-1.1-2.6c-1.3-1.3-3.9-1.3-5.2,0c-0.7,0.6-1.1,1.6-1.1,2.6	c0,1,0.4,1.9,1.1,2.6c0.6,0.7,1.6,1.1,2.6,1.1C278.1,445.7,279,445.3,279.6,444.6z" class="st201"/><path d="M201.4,439.3c-0.7,0.6-1.1,1.6-1.1,2.6c0,1,0.4,1.9,1.1,2.6c0.7,0.7,1.7,1.1,2.6,1.1c0.8,0,1.8-0.3,2.6-1.1	c0.7-0.7,1.1-1.6,1.1-2.6c0-1-0.4-1.9-1.1-2.6C205.3,437.9,202.9,437.9,201.4,439.3z" class="st201"/><path d="M140.3,374.7c1,0,1.8-0.3,2.7-1.2c0.6-0.7,0.9-1.5,0.9-2.5c0-0.9-0.3-1.8-1-2.6c-0.7-0.8-1.7-1.1-2.8-1.1	c-1,0.1-1.9,0.5-2.3,1c-0.8,0.7-1.2,1.7-1.2,2.7s0.4,1.9,1,2.5C138.3,374.3,139.3,374.7,140.3,374.7z" class="st201"/><path d="M189.4,185.7c-0.3,0-0.6,0-0.9-0.1c-2.1-0.5-3.4-2.6-2.9-4.7c1.6-6.6,3.1-13.2,4.5-19.6l8.9-43	c0.4-2.1,2.5-3.5,4.6-3c2.1,0.4,3.5,2.5,3,4.6l-8.9,43c-1.4,6.5-2.9,13.2-4.5,19.9C192.7,184.5,191.1,185.7,189.4,185.7z" class="st18"/><path d="M211.9,190.3c-0.2,0-0.4,0-0.6,0c-2.1-0.3-3.6-2.4-3.2-4.5c0.9-5.8,1.8-11.5,2.6-17.2c0.3-2.1,2.3-3.6,4.4-3.3	c2.1,0.3,3.6,2.3,3.3,4.4c-0.8,5.7-1.7,11.5-2.6,17.3C215.5,188.9,213.8,190.3,211.9,190.3z" class="st18"/><path d="M217.8,147.9c-0.2,0-0.3,0-0.5,0c-2.1-0.3-3.7-2.2-3.4-4.4l2.5-19.6c0.3-2.1,2.2-3.7,4.4-3.4	c2.1,0.3,3.7,2.2,3.4,4.4l-2.5,19.6C221.4,146.5,219.7,147.9,217.8,147.9z" class="st18"/><path d="M402.9,233.7c-17.8-30.3-30.3-55.8-39.3-80.3L349.4,115c-10-27.2-30.8-48.4-56.4-59.5c-4.6-2-7.2-6.8-6.4-11.8	c0.1-0.3,0.1-0.6,0.2-0.9c1.6-9.6-1.1-19.4-7.5-27c-6.7-8-16.6-12.6-27.1-12.6c-10.4,0-20.6,4.8-27.2,12.7c-6.4,7.6-9,17.5-7.3,27.1	c0,0,0,0.1,0,0.1c0.9,5-1.8,9.9-6.5,11.9c-26.1,11-47.3,32.5-57.5,60l-15.8,43c-8.5,23.1-20.2,46.7-36.8,74.3	c-20.3,33.7-28.4,72.4-23.7,112c4.7,38.6,22.7,75.1,50.7,102.9c28,27.7,64.8,45.3,103.4,49.6c6.7,0.7,13.4,1.1,20,1.1	c18.7,0,37.1-2.9,54.8-8.8c23-7.6,43.9-19.7,62-35.9c37.1-33.2,58.4-80.9,58.4-130.7C427,291.2,418.7,260.5,402.9,233.7z M352.9,435.6c-32.6,29.2-74.7,42.6-118.6,37.7c-69-7.6-125.1-63.1-133.4-131.9c-4.1-34.4,2.9-67.9,20.5-97.1	c17.4-28.9,29.7-53.7,38.7-78.3l15.8-43c8.9-24.2,28.8-42.3,52.8-49.5c3.8-1.1,7.6,1.6,7.6,5.6c0.1,3.7,0.1,7.3,0.1,10.4	c0,2.4-2.5,4-4.8,3c-3.7-1.7-5.8-3.8-5.8-5.4c0-1.3-0.5-2.6-1.6-3.2c-3.1-1.8-6.2,0.4-6.2,3.3c0,9.8,14.7,17.1,34.2,17.1	c19.2,0,33.8-7.2,34.2-16.7c0.1-2-1.3-3.9-3.3-4.3c-2.4-0.4-4.6,1.5-4.6,3.9c0,1.6-2.1,3.6-5.7,5.4c-2.2,1-4.7-0.6-4.7-3	c0-3,0-6.3,0.1-9.9c0.1-4,4-6.7,7.7-5.5c23.3,7.4,42.6,25.3,51.3,49l14.2,38.5c9.5,25.8,22.6,52.6,41.1,84.1	c13.6,23.2,20.9,49.8,20.9,76.9C403.5,365.6,385.1,406.8,352.9,435.6z" class="st1"/><path d="M244.3,91.2c0,2.8,2.2,5,4.9,5.2c1,0,2,0.1,3.1,0.1c1.1,0,2.1,0,3.2-0.1c2.8-0.1,4.9-2.4,4.9-5.1	c0-13.4,0.4-35.7,3.2-52.2c1.1-6.4-3.9-12.3-10.5-12.3l-1.6,0c-6.6,0-11.7,6-10.6,12.5C244,55.8,244.4,77.9,244.3,91.2z" class="st199"/></svg>