<svg xmlns="http://www.w3.org/2000/svg" xmlns:xlink="http://www.w3.org/1999/xlink" x="0" y="0" version="1.1" viewBox="0 0 200 200" xml:space="preserve" style="enable-background:new 0 0 200 200"><style type="text/css">.st1{fill:#f22f2e}.st28{fill:#fff}.st101{fill:#9e0e00}.st124{fill:#164e16}.st139{fill:#a7c92b}</style><g id="Layer_1"><path d="M160.7,78.6c3.4-7.4,0.5-16.4-6.8-19.9c-7.5-3.6-16.5-0.4-20,7.1c0,0-37.8,92.4-119.4,121 c-3.6,1.3-2.2,6.6,1.6,5.9C62.4,184.4,124,157.7,160.7,78.6z" class="st1"/><path d="M163.8,74.2c-2.2,0-4.4-0.2-6.5-0.6c-0.1,1-0.4,2-0.9,3c-28.3,60.9-71.8,90-110.7,103.5 c-1.4,0.5-2.3-1.5-1-2.2c62.8-36.8,92.2-106.9,93.5-110.2c0.4-0.9,1-1.8,1.7-2.6c-2.4-2.1-4.4-4.4-6.2-7c-1.6,1.6-3,3.6-4.1,5.8 c-0.4,0.9-38.1,90.8-116.6,118.4c-3.9,1.4-6,5.3-4.9,9.3c0.9,3.5,3.9,5.8,7.4,5.8c0.5,0,1,0,1.5-0.1C63.6,189,127.2,161.8,165,80.6 c1-2.1,1.5-4.3,1.8-6.5C165.8,74.2,164.8,74.2,163.8,74.2z" class="st101"/><path d="M94.8,143.7c-0.4,0-0.8-0.1-1.1-0.4c-0.6-0.6-0.6-1.6,0-2.2c3.7-3.8,7.4-7.8,10.9-12c0.6-0.7,1.5-0.7,2.2-0.2 c0.7,0.6,0.7,1.5,0.2,2.2c-3.6,4.3-7.3,8.4-11.1,12.2C95.6,143.5,95.2,143.7,94.8,143.7z" class="st28"/><path d="M116.2,118.1c-0.3,0-0.6-0.1-0.9-0.3c-0.7-0.5-0.9-1.5-0.4-2.2c9.5-13.3,16-25.3,19.8-33.1 c0.4-0.8,1.3-1.1,2.1-0.7c0.8,0.4,1.1,1.3,0.7,2.1c-3.8,7.9-10.4,20-20.1,33.5C117.2,117.8,116.7,118.1,116.2,118.1z" class="st28"/><path d="M162.1,71.5c-0.1-3.6-1.6-7.1-4.1-9.7l9.1-21.7c0,0,4.6-13.5,19.7-28.8c2-2-0.4-5.2-2.9-3.8 c-7.6,4.3-17.3,12.6-24.7,28.6l-10.8,21.2c-3.6-0.2-7.1,0.8-10,3l2.4,4l7.7,5.3l9.4,2.6L162.1,71.5z" class="st139"/><path d="M166.8,71.4c-0.1-1.9-0.4-3.7-1-5.4c-1.3-4-1-8.3,0.6-12.2l5-11.9l0.1-0.3c0-0.1,4.4-12.6,18.6-27 c2.5-2.6,2.8-6.5,0.6-9.3c-2.2-2.8-6-3.6-9.1-1.9C173.9,7.8,163.1,16.6,155,34l-5.9,11.5c-2,3.8-5.2,6.9-9.2,8.5 c-1.6,0.6-3,1.5-4.4,2.5c-2,1.6-2.6,2.3-2.6,2.3c2.9,5.1,8.3,9.7,14.9,12.8c5,2.3,10.3,3.5,15,3.5c1.3,0,2.5-0.1,3.7-0.3 C166.7,74.8,166.9,72.8,166.8,71.4z M157,52.2l-3.3,7.8c-0.7,1.7-0.4,3.7,0.9,5h0c1.1,1.2,1.9,2.6,2.4,4.2c0.2,0.8-0.5,1.6-1.4,1.4 c-2.1-0.5-4.2-1.3-6.3-2.2c-2.3-1-4.4-2.3-6.3-3.7c-0.7-0.5-0.6-1.6,0.2-1.9c1.5-0.6,3.1-0.9,4.7-0.8l0,0c1.9,0.1,3.6-0.9,4.5-2.6 l3.8-7.5c0,0,0.2-0.3,0.4-0.2C157.1,51.9,157,52.2,157,52.2z" class="st124"/><ellipse cx="138.5" cy="78.3" class="st28" rx="1.6" ry="1.6" transform="matrix(0.4204 -0.9073 0.9073 0.4204 9.1996 171.0185)"/><ellipse cx="111.6" cy="123.2" class="st28" rx="1.6" ry="1.6" transform="matrix(0.4204 -0.9073 0.9073 0.4204 -47.1232 172.6686)"/></g></svg>