<svg xmlns="http://www.w3.org/2000/svg" xmlns:xlink="http://www.w3.org/1999/xlink" id="Layer_1" x="0" y="0" version="1.1" viewBox="0 0 500 500" xml:space="preserve" style="enable-background:new 0 0 500 500"><style type="text/css">.st48{fill:#fff}.st93{fill:#709335}.st139{fill:#384b1d}.st147{fill:#6baa6d}.st149{fill:#66782b}.st152{fill:#9cbf73}.st156{fill:#ee9978}.st157{fill:#98bf73}.st158{fill:#4a5c27}</style><path d="M342.7,341.5c-58.5-65.4-119.6-91-164.4-100.6c-9.7-19.6-19.9-36.3-19.9-36.3c-10-14.2-18.6-14.9-19.9-13.9	c-1.3,0.9-3.3,9.6,6.5,23.4c1.6,2.3,3.3,4.6,5.2,7c0.7,0.9-0.4,2-1.3,1.3c-30.6-23.2-41.3-21.7-42.4-20.2	c-0.5,0.8,0.4,7.7,15.6,19.8c1.7,1.4,3.5,2.8,5.4,4.2c0,0,1.4,1,0.7,2.4c-0.7,1.4-2.2,1-2.2,1c-13.4-3.6-28.7-6.8-42.1-8.9	c-33.9-5.2-44.3,4.1-44.6,6c-0.3,2,6.9,13.9,40.8,19.1c13.8,2.1,29.7,3.6,43.8,4.1c3,0.1,3.7,4.2,0.9,5.3	c-8.7,3.4-17.7,7.2-25.7,10.9c-25.3,11.7-29.4,20.4-28.9,21.3c0.5,0.9,15,6.2,77.6-22c1-0.5,1.9,0.9,1,1.6	c-3.7,2.9-7.2,5.9-10.3,8.6C126,287,126,295.8,127.1,297c1.1,1.2,9.8,2.7,22.4-9.1c9.8-9.2,21.4-23.1,27.9-31.3	c13.3,3,28.1,7.5,43.9,14.2c-2.5,3.1-5.2,6.8-8.1,10.8c-67.7,31-72.9,48.1-71.6,50.2c0.5,0.9,7.8,3,26.4-7c2.1-1.1,4.3-2.3,6.5-3.6	c0,0,1.6-0.9,2.7,0.3c1.1,1.2,0.1,2.7,0.1,2.7c-9.4,11.8-19.2,25.6-27,38.1c-19.8,31.4-15,45.9-13.2,47c1.9,1.2,16.8-0.9,36.6-32.3	c8-12.8,16.4-28,23-41.8c1.4-2.9,5.8-1.9,5.7,1.4c-0.4,10.1-0.5,20.7-0.3,30.3c0.7,30.2,7.6,38.1,8.8,37.9	c1.2-0.2,16-15.6,10.5-120.9c2.7-3.7,5.2-7,7.5-9.8c12.9,5.9,26.3,13.4,40,22.7c-6.5,27.2-3.3,58.6-1.4,72.6	c-33.1,30.5-32.6,39.6-31.9,40.3c0.4,0.4,5.3,0.1,15.5-9.9c3.2-3.2,6.7-6.8,9.9-10.3c1-1.1,2.9-0.1,2.4,1.4	c-2.3,6.8-4.5,14.7-6,21.7c-3.7,17.1,0.7,22.7,1.7,23c1,0.2,7.3-3.1,11-20.2c0.7-3.4,1.4-7.1,2-10.8c0.2-1.2,1.9-1.1,2.1,0.1	c1.7,14.4,5.3,17.5,6.3,17.5c0.6,0,3.8-3.4,3.8-16.3c0-1.5,0-3-0.1-4.5c0,0,0-1.1,1-1.4c1-0.2,1.5,0.7,1.5,0.7	c3.7,8.5,8.4,17.7,12.9,25.6c11.4,19.7,20.6,21.3,21.7,20.6c1.2-0.7,4.3-9.4-7.1-29.1c-4.6-8-10.5-16.9-16.1-24.4	c-1.2-1.6,0.7-3.7,2.4-2.7c5.4,3.1,11.1,6.2,16.4,8.8c16.6,8.3,22.8,6.8,23.1,6.1c0.3-0.7-4.9-15.3-56.8-37.9	c-1.6-11.7-4.3-37.6-0.3-60.7c42.8,32.6,87.3,83.7,125.4,163.9c1.5,3.2,4.9,4.9,8.2,4.4c0.7-0.1,1.5-0.3,2.2-0.7	c3.9-1.9,5.6-6.5,3.7-10.4c-14.9-31.3-30.7-58.2-47-81.5c-14.8-25.4-27.4-48-38-68.2c2.6-9.5,6.5-17.6,10.7-24.5	c5,0.5,13.5-0.4,22.9-2.7c14.6-3.5,25.8-8.9,25-12c-0.7-3.1-13.2-2.7-27.7,0.8c-2.5,0.6-4.9,1.3-7.2,2c2.7-2.6,5.5-5.5,8.4-8.8	c11.5-13.2,18.6-25.8,15.8-28.2c-2.8-2.4-14.4,6.2-25.9,19.4c-2.8,3.2-5.3,6.3-7.5,9.3c0.4-2.3,0.7-4.7,1-7.2	c1.5-14.9,0.2-27.3-2.9-27.6c-3.2-0.3-7,11.5-8.5,26.4c-1,10-0.8,18.7,0.5,23.6c-3.6,5.7-6.9,12.2-9.6,19.7	c-13-25.3-22.8-46.6-30-64.8c1.5-2.6,6.1-9.4,13.8-15.2c3.8,1,10,1.5,17,1.2c11.6-0.5,20.9-2.8,20.8-5.3c-0.1-2.5-9.6-4.1-21.1-3.6	c-2,0.1-3.9,0.2-5.7,0.4c2.4-1.6,5-3.4,7.7-5.4c10.7-8.2,18-16.7,16.2-19c-1.7-2.3-11.8,2.5-22.5,10.8c-2.6,2-5,4-7.1,5.9	c0.6-1.7,1.2-3.4,1.8-5.3c3.4-11.1,4.3-20.6,2-21.3c-2.3-0.7-7,7.6-10.5,18.7c-2.1,6.7-3.2,12.7-3.2,16.6	c-5.6,4.2-9.7,8.9-12.5,12.6c-6-16-9.8-29.5-12.1-41.1c2.4-2.2,7.5-6.5,13.4-10.1c3.9,0.2,9.5-0.4,15.7-1.8	c11.1-2.4,19.7-6.2,19.1-8.6c-0.5-2.4-9.9-2.3-21,0.1c-2.7,0.6-5.2,1.2-7.5,2c1.1-1,2.2-2.1,3.3-3.4c6.6-7.2,10.7-14.1,9.2-15.5	c-1.5-1.4-8.1,3.3-14.7,10.5c-3.2,3.5-5.7,6.8-7.4,9.6c-4.6,2.7-8.7,5.7-11.7,8.2c-2-14.6-1.1-26,1-36l27.3-2.5c0.1,0,0.2,0,0.2,0	c2-0.3,3.5-2.1,3.3-4.2c-0.2-2.1-2.1-3.7-4.2-3.5l-24.5,2.2c0.6-2.1,1.3-4.2,2.1-6.3c4-11.1,10.6-19.8,17.9-26.5l26.3,7.9	c0.6,0.2,1.1,0.2,1.7,0.1c1.4-0.2,2.7-1.2,3.2-2.7c0.6-2.1-0.5-4.2-2.6-4.9l-21.3-6.4c12.4-9.1,24.6-13.1,27.4-13.9l29.5-1.3	c0.1,0,0.3,0,0.4,0c2-0.3,3.4-2,3.3-4c-0.1-2.2-1.9-3.8-4.1-3.7c0,0-49-12.4-84.7,40.4C240.7,184.3,342.7,341.5,342.7,341.5z" class="st93"/><path d="M300.2,463c11.1,8,22.9,9.4,32.4,3.9c9.5-5.5,14.2-16.5,12.8-30.1c-0.1-1.3-0.3-2.6-0.6-4	c-0.4-2.3,0.8-4.6,3-5.4l0,0c1.2-0.5,2.4-1.1,3.5-1.7c2.2-1.3,5.1-0.7,6.5,1.5c10.2,16.6,19.9,34.4,29,53.5	c5.3,11.1,16.2,17.9,28.2,17.9c1.6,0,3.1-0.1,4.7-0.3c3-0.5,6-1.3,8.8-2.7c7.5-3.6,13.2-9.9,16-17.8c2.8-7.9,2.4-16.4-1.2-23.9	c-14.5-30.5-30.8-58.8-48.5-84.1c-10.2-17.4-19.5-33.9-27.8-49.1c-2.1-3.9,0.1-8.8,4.5-9.8c1.7-0.4,3.3-0.7,4.6-1	c8.7-2.1,16.6-4.8,22.9-7.8c22.1-10.6,21-26.2,19.5-32.5c-0.8-3.4-3-9.2-8.7-13.7c-1.7-1.3-2.4-3.5-1.8-5.5l0,0	c2.7-10.5-0.1-20.6-7.6-27.1c-4.3-3.7-9.5-5.8-15.1-6.1c-4.6-0.3-8.8-2.9-10.8-7.1c-0.1-0.1-0.1-0.3-0.2-0.4c-1.4-2.8-1.9-6-1-9.1	c2.9-10.6-1.5-18.4-4.2-21.9c-1.6-2-4.3-5-8.5-7.1c-1.4-0.7-2.3-2.1-2.4-3.7c-0.1-1.5-0.3-2.7-0.5-3.5c-0.3-1.3-0.9-3.3-2-5.7	c-0.7-1.3,0.3-2.9,1.8-2.9l0,0c1.5,0,3.1-0.1,4.6-0.3c10-1.5,18.5-7.7,23.1-16.4c4.1-3.8,7.2-8.8,8.8-14.6c1.3-4.8,1.5-9.6,0.6-14.3	c-0.3-1.8-0.5-3.5-0.6-5.3c0-1.4-0.2-2.8-0.4-4.1c-0.4-2.4,0.1-4.8,1.5-6.9c3.1-4.7,4.7-10.3,4.5-16.3c-0.1-3-0.7-5.9-1.8-8.6	c-0.6-1.6-0.6-3.5,0.2-5c0.8-1.7,1.5-3.4,1.9-5.2c0,0,0,0,0,0c7.3-12.1,5.4-27.2-3.6-37.2c-1.2-1.3-2.3-2.7-3.2-4.2	c-2.6-4-6-7.4-10.3-10c-4.3-2.5-8.9-4-13.7-4.3c-1.7-0.1-3.4-0.4-5.1-0.8c-4.9-1.2-10.2-1.2-15.2,0.1c-8.1,2.1-15,7.2-19.3,14.5	c0,0,0,0,0,0c-0.6,0.6-1.2,1.2-1.8,1.8c-1.9,2.1-5,2.7-7.5,1.3c-3.9-2.1-8.2-3.4-12.8-3.7c-5.2-2.2-10.9-3-16.8-2.1	c-5.8,0.9-11.1,3.3-15.4,6.9c-5.7,2.1-10.7,5.9-14.4,11c-3.8,5.3-5.7,11.8-5.6,18.3l0.1,4.8l0,0c-0.3,2.4-2.2,4.2-4.6,4.6	c-2.9,0.4-5.7,1.3-8.3,2.5c-5.6,0.5-11,2.6-15.7,6.2c-4.7,3.5-8.2,8.2-10.3,13.4c-4,4.6-6.6,10.3-7.4,16.5c-0.8,6.5,0.7,13,3.8,18.7	l2.3,4.2c0.2,0.4,0.3,0.8,0.5,1.2c2,4.5,1.3,9.7-1.9,13.4c0,0.1-0.1,0.1-0.1,0.2c-0.6,0.7-1.2,1.3-1.9,1.8c-4.2,3-7.7,7.1-10,12	c-2.1,4.4-3.1,9.2-3,13.9c0,1.8-0.1,3.7-0.3,5.5c-0.7,5-0.2,10.1,1.5,15c2.5,7.1,7.4,12.9,13.9,16.6c1.5,0.9,2.9,1.8,4.4,2.8	c2.1,1.5,4.4,2.7,7,3.6c1.1,0.4,2.1,0.7,3.2,1c5.2,1.6,7.9,7.1,6.2,12.3c-0.1,0.4-0.3,0.8-0.4,1.2l0,0.1c-1.5,5.6-7.5,8.8-13,6.8	c-5.9-2.2-11.7-4-17.2-5.7c-6.2-1.8-11.5-6.1-14.6-11.8c-6.1-11-10.7-18.7-11-19.2c-0.3-0.4-0.5-0.9-0.8-1.3	c-18.4-26-40.1-28.4-52.6-19.6c-2.1,1.5-4,3.3-5.5,5.4c-1,1.3-2.7,1.9-4.3,1.7c-3.8-0.6-7.3-0.6-10.6-0.1	c-7.1,1.1-13.2,4.7-17.1,10.2c-0.9,1.3-2,3-2.8,5.1c-0.8,1.9-2.7,3-4.7,2.8c-14.4-1.6-26.9-0.9-37.2,1.9	c-15.1,4.2-24.8,13.2-26.6,24.7c-1.8,11.6,4.8,23.1,18,31.6c4.8,3.1,10.4,5.8,16.9,8.1c2.9,1,4.1,4.6,2.2,7c-2.6,3.3-4.4,6.6-5.4,10	c-2.1,6.8-1.3,13.8,2.3,19.7c9.8,16.3,31.6,12.4,39.8,10.9c3.5-0.6,7.2-1.5,11.1-2.5c2.6-0.7,5.3,0.3,6.8,2.5	c0.5,0.8,1.1,1.5,1.8,2.2c2.1,2.4,4.7,4.3,7.7,5.7c1.7,0.8,2.5,2.7,2,4.5l0,0c-2.3,7.4-1.5,14.9,2.2,21.1c0.5,0.9,1.3,1.9,2.2,3.1	c2.9,3.4,3.4,8.1,1.3,12c-6.9,12.7-11.2,24.4-12.7,35c-2.2,16.1,2.2,28.9,12.2,35.2c10,6.3,23.6,4.8,37.1-4.3	c5.5-3.7,10.9-8.5,16.2-14.4c2.6-2.9,7.3-2.2,9,1.3c2.2,4.4,4.9,7.9,7.9,10.6c5.4,4.6,12.1,6.7,19,5.8l0.1,0	c3.4-0.4,6.8,0.2,9.8,1.9c0.9,0.5,1.8,1,2.8,1.4c3.8,1.6,6.9,4.7,8.2,8.6c3.7,11,11.5,16.7,19.3,18.4c8.2,1.8,18.1-0.1,26.7-10.5	c1.3-1.6,3.7-1.5,4.9,0.2C288,451.8,292.8,457.7,300.2,463z" class="st139"/><path d="M378.4,36.9c-0.5-0.5-1.1-0.9-1.7-1.2c-1.2-0.6-2.1-1.6-2.3-2.9c-0.4-2.1-1.7-4-3.7-5.2	c-2-1.2-4.3-1.4-6.3-0.7c-1.2,0.4-2.6,0-3.7-0.7c-0.6-0.4-1.2-0.7-1.9-0.9c-3.6-1.2-7.5,0.5-9.4,3.8c-3.9,6.6-6.6,13.5-7.7,19.5	c-2.1,11.6,2.7,16.3,5.7,18.1c1.4,0.8,3.4,1.6,6.1,1.6c3.3,0,7.5-1.2,12.5-5.3c4.7-3.8,9.5-9.5,13.4-16	C381.6,43.7,381.2,39.5,378.4,36.9z" class="st156"/><path d="M359.5,46.4c-4.8-2.9-8.7-6.3-11.3-9.7c-5.2,11.4-6.9,23.4,0.5,27.8c7.4,4.4,17.2-2.8,24.7-12.8	C369.3,51,364.4,49.3,359.5,46.4z" class="st157"/><path d="M313.2,46.8c-0.5-3.7-3.5-6.8-7.3-7c-0.7,0-1.4,0-2,0.1c-1.3,0.3-2.7,0.1-3.8-0.8c-1.6-1.3-3.8-2-6.1-1.7	c-2.3,0.3-4.1,1.6-5.3,3.4c-0.8,1.1-2,1.7-3.4,1.9c-0.6,0.1-1.3,0.2-1.9,0.5c-3.5,1.3-5.5,5.1-4.9,8.9c1.2,7.6,3.4,14.7,6.3,19.9	c4.9,8.8,10.5,10.6,14.2,10.6c0.6,0,1.2-0.1,1.7-0.1c3.5-0.5,9.7-3.1,12.2-14.6C314.2,61.8,314.3,54.4,313.2,46.8z" class="st156"/><path d="M297.3,59.1c-5.6,0.8-10.7,0.6-14.9-0.4c3.2,12.1,9.5,22.5,18,21.2c8.5-1.3,11.5-13.1,11-25.6	C307.8,56.5,302.9,58.3,297.3,59.1z" class="st157"/><path d="M271.8,104.9c-1.7-5.9-5.3-12.6-10-18.8c-2.6-3.4-7.5-4.1-10.9-1.5c-0.2,0.1-0.4,0.3-0.5,0.4	c-0.9,0.8-2.1,1.1-3.2,0.9c-2.1-0.5-4.4,0-6.3,1.4c-1.9,1.4-2.9,3.5-3.1,5.7c-0.1,1.1-0.6,2.2-1.6,2.7c-0.7,0.4-1.4,1-2,1.6	c-2.4,2.8-2.4,7-0.2,10c7.8,10.2,18.1,18.6,26.8,18.6c2.6,0,5.1-0.7,7.3-2.4C270.9,121.4,275.1,116.2,271.8,104.9z" class="st156"/><path d="M253.9,104.8c-4.5,3.4-9.2,5.6-13.3,6.8c8.6,9.1,19.1,15.3,25.9,10.1c6.9-5.2,3.9-17-2.5-27.7	C261.9,97.5,258.4,101.4,253.9,104.8z" class="st157"/><path d="M241,149.2c-3.9-1.8-8.6-0.2-10.4,3.7c-0.1,0.2-0.2,0.4-0.3,0.6c-0.4,1.1-1.3,2-2.4,2.3	c-2.1,0.6-3.9,2.1-4.9,4.2c-1,2.1-1,4.5-0.1,6.5c0.5,1,0.5,2.2-0.1,3.2c-0.4,0.7-0.8,1.5-1,2.4c-0.8,3.6,1.1,7.3,4.5,8.9	c7.7,3.6,16.1,6,23,6c6.7,0,12.2-2.2,14.7-7.5C269.2,168.5,256.2,156.4,241,149.2z" class="st156"/><path d="M242.8,169.4c-2.4,5.1-5.5,9.3-8.6,12.1c11.8,4.1,24,4.6,27.7-3.2c3.7-7.8-4.5-16.8-15.1-23.4	C246.5,159.3,245.2,164.3,242.8,169.4z" class="st157"/><path d="M369.9,108.7c0.3-0.8,0.5-1.6,0.6-2.5c0.2-3.8-2.4-7.1-6.1-8.1c-7.4-2-14.8-2.8-20.8-2.3	c-11.7,1-15,6.9-16,10.3s-1.1,10.1,8.4,17c5,3.6,11.9,6.7,19.4,8.8c0.7,0.2,1.4,0.3,2.1,0.3c3.4,0,6.6-2.3,7.5-5.7	c0.1-0.2,0.1-0.5,0.2-0.7c0.2-1.2,0.9-2.2,2-2.7c2-0.9,3.5-2.7,4.2-5c0.6-2.3,0.2-4.6-1-6.4C369.7,110.9,369.5,109.7,369.9,108.7z" class="st156"/><path d="M350.2,112.3c1.5-5.4,3.8-10.1,6.4-13.4c-12.4-2-24.4-0.5-26.7,7.8c-2.3,8.3,7.3,15.8,18.9,20.4	C348.3,122.9,348.7,117.8,350.2,112.3z" class="st157"/><path d="M405.9,433.9c-27.4-44.8-49-82.4-65.9-114.2c-2-3.7-2.3-8-0.9-11.9c1.4-3.9,3-7.6,4.7-11c2-4,6.1-6.7,10.6-7	c4.6-0.3,10.3-1.2,16.3-2.7c14.6-3.5,25.8-8.9,25-12c-0.7-3.1-13.2-2.7-27.7,0.8c-0.1,0-0.2,0-0.3,0.1c-1.9,0.5-3.2-1.8-1.9-3.2	c1.1-1.2,2.2-2.4,3.3-3.7c11.5-13.2,18.6-25.8,15.8-28.2c-2.8-2.4-14.4,6.2-25.9,19.4c-1.1,1.2-2.1,2.4-3.1,3.6	c-1.2,1.5-3.6,0.5-3.4-1.4l0-0.1c1.5-14.9,0.2-27.3-2.9-27.6c-3.2-0.3-7,11.5-8.5,26.4c-0.8,7.6-0.8,14.6-0.2,19.6	c0.3,2.7-0.2,5.4-1.6,7.7c-1.8,3.2-3.6,6.8-5.2,10.5c-0.9,2-3.7,2.1-4.7,0.2c-9.8-19.4-17.7-36.3-24-51.2c-2.3-5.6-1.3-12,2.7-16.5	c1-1.1,2-2.2,3.2-3.3c2.4-2.3,5.7-3.3,8.9-2.9c3.5,0.4,7.8,0.6,12.5,0.4c11.6-0.5,20.9-2.8,20.8-5.3c-0.1-2.5-9.6-4.1-21.1-3.6	c0,0,0,0-0.1,0c-1.5,0.1-2.2-1.9-1-2.8c1-0.7,2-1.4,3-2.2c10.7-8.2,18-16.7,16.2-19c-1.7-2.3-11.8,2.5-22.5,10.8	c-1,0.8-2,1.5-2.9,2.3c-1.1,0.9-2.8-0.2-2.4-1.6l0-0.1c3.4-11.1,4.3-20.6,2-21.3c-2.3-0.7-7,7.6-10.5,18.7c-1.4,4.6-2.4,9-2.9,12.5	c-0.4,2.6-1.7,5-3.7,6.8c-2.2,1.9-4,3.8-5.6,5.6c-1.6,1.8-4.6,1.2-5.5-1.1c-4.1-11.2-7-21.1-9.1-29.7c-0.9-3.7,0.5-7.5,3.4-9.9	c1.6-1.3,3.4-2.7,5.5-4.1c2-1.4,4.4-2.2,6.9-2.3c3.5-0.2,7.8-0.8,12.4-1.8c11.1-2.4,19.7-6.2,19.1-8.6c-0.5-2.4-9.9-2.3-21,0.1	c-1,0.2-2,0.5-3,0.7c-1.2,0.3-2.1-1.1-1.2-2.1l0,0c6.6-7.2,10.7-14.1,9.2-15.5c-1.5-1.4-8.1,3.3-14.7,10.5c-2.3,2.5-4.3,5-5.9,7.3	c-1,1.5-2.4,2.8-3.9,3.7c-2,1.3-3.9,2.6-5.6,3.8c-1.9,1.4-4.6,0.2-4.8-2.1c-1.2-11.4-0.5-20.3,1-27.8c0.4-1.9,2-3.2,3.8-3.4	l24.3-2.2c2.1-0.2,3.9-1.9,3.8-4c-0.1-2.3-2-4-4.3-3.8l-20.6,1.8c-1.9,0.2-3.4-1.7-2.7-3.5c0.3-0.8,0.6-1.6,0.9-2.4	c3.4-9.4,8.7-17.1,14.6-23.3c1.9-2,4.8-2.8,7.5-2l8.4,2.5c2.7,0.8,4.8,3,5.7,5.7c2.1,6.7,9.5,12.9,21.1,17.5c0.5,0.2,1,0.3,1.4,0.3	c1.2,0,2.4-0.6,3.2-1.7c0.6-0.8,0.8-1.9,0.6-2.9c-0.4-3.9,0.1-8.6,1.3-13.1c1.3-4.6,3.3-8.8,5.6-12c0.6-0.8,1-1.7,0.9-2.7	c-0.1-1.9-1.5-3.4-3.3-3.7c-11.9-1.9-21.1-0.6-26.5,3.7c-2.2,1.7-5.2,2.2-7.8,1.4l-1.9-0.6c-2.4-0.7-2.8-3.9-0.7-5.2	c10.4-6.6,19.9-9.7,22.4-10.4l29.3-1.3c2-0.1,3.8-1.7,3.9-3.7c0.1-2.3-1.8-4.2-4.1-4.1l-20,0.9c-1.5,0.1-2.6-1.5-2-2.9l0.5-1.2	c0.5-1.2,1.7-1.9,2.9-1.9l0,0c7.1,0,15.3-5.4,23-15.6c0.6-0.8,0.9-1.7,0.9-2.7c-0.1-1.9-1.5-3.3-3.3-3.6c-3.9-0.6-8.4-2.3-12.5-4.8	c0,0,0,0,0,0c-4.1-2.4-7.6-5.5-10.1-8.6c-0.6-0.8-1.4-1.4-2.3-1.6c-1.9-0.4-3.7,0.6-4.4,2.2c-5.9,13-6.4,23.7-1.4,29.8	c0.7,0.9,0.8,2.2,0.4,3.2l-2.1,4.6c-1.1,2.5-3.2,4.4-5.8,5.4c-5.6,2-14.5,5.9-23.6,12.3c-1.6,1.1-3.8,0.4-4.4-1.5l-0.7-2.2	c-0.8-2.5,0-5.1,1.7-6.9c4.7-4.9,7.1-13.7,6.6-25.4c0-1-0.4-1.9-1-2.6c-1.3-1.4-3.3-1.6-4.9-0.7c-3.4,2-7.9,3.5-12.7,4.2h0	c-4.7,0.7-9.4,0.6-13.2-0.3c-0.9-0.2-2-0.2-2.8,0.3c-1.7,0.9-2.5,2.8-2,4.5c3.4,12.9,9.2,21.2,16.1,23.5c2.1,0.7,3.7,2.3,4.3,4.4	l2,6.3c0.8,2.6,0.2,5.4-1.7,7.3c-6.7,7-12.7,15.7-16.6,26.5c0,0.1-0.1,0.2-0.1,0.3c-0.7,1.9-3.2,2.4-4.5,0.8l-3-3.7	c-1.7-2-2.3-4.7-1.5-7.3c2-6.6-0.1-15.7-6.2-26c-0.7-1.2-2-1.9-3.4-1.9h0c-1.4,0-2.7,0.8-3.4,2c-2,3.4-5.3,6.8-9.1,9.7c0,0,0,0,0,0	c-3.8,2.9-8,5-11.7,6c-0.9,0.3-1.8,0.8-2.4,1.6c-1.1,1.6-0.9,3.6,0.3,4.9c8.1,8.7,16.2,13.2,23,13.2c0.5,0,1,0,1.5-0.1	c2.6-0.3,5.2,0.8,6.8,2.8l6.8,8.2c1.6,1.9,2.2,4.4,1.7,6.8c-1.8,8.6-2.6,18.5-1.4,30.9c0.2,2.4-2.2,4.1-4.4,3l-0.5-0.3	c-2.7-1.4-4.5-4-5-6.9c-1.3-6.7-7.3-13.8-17.6-20.1c-0.8-0.5-1.8-0.8-2.8-0.6c-1.9,0.3-3.2,1.9-3.3,3.6c-0.2,4-1.5,8.6-3.5,12.9	c-2,4.3-4.7,8.1-7.6,10.8c-0.7,0.7-1.2,1.5-1.4,2.5c-0.2,1.9,0.9,3.6,2.6,4.2c6.1,2.1,11.6,3.2,16.4,3.2c4.1,0,7.5-0.8,10.3-2.3	c2.7-1.5,6-1.6,8.8-0.2l6,3c2.6,1.3,4.5,3.7,5.1,6.5c1.3,5.9,3,12.2,5.1,19.1c1.3,4.1,2.7,8.3,4.3,12.7c0.9,2.5-1.4,4.9-3.9,4.2	l-23.3-6.3c-2.2-0.6-4.5,0.8-4.9,3.1c-0.3,2,1,3.9,3,4.5l27.1,7.3c4.7,1.3,8.6,4.6,10.5,9.2c19.6,47,53.2,109.3,101.9,188.8	c0.7,1.2,2,1.9,3.3,1.9c0.8,0,1.6-0.2,2.3-0.7C406.6,438.1,407,435.7,405.9,433.9z M333.7,107.8c1.2-4.3,7-5.7,13.6-5.7c0,0,0,0,0,0	c1.3,0,2.1,1.3,1.6,2.5c-1,2.1-1.8,4.4-2.4,6.8c-0.7,2.4-1.1,4.8-1.4,7.1c-0.2,1.3-1.5,1.9-2.6,1.3	C336.8,116.3,332.5,112,333.7,107.8z M348.6,47.2c0.4-1.5,2.3-2.2,3.5-1.2c1.7,1.3,3.5,2.6,5.4,3.7c1.9,1.1,3.9,2.1,5.9,3	c1.5,0.6,1.8,2.6,0.6,3.6c-4.6,4.3-9.6,6.9-13.3,4.8C347.1,59,347.1,53.3,348.6,47.2z M299.8,76.1c-4.3,0.6-7.9-3.9-10.6-9.7	c-0.6-1.3,0.4-2.9,1.9-2.9c2.2,0,4.5-0.2,6.8-0.5c2.3-0.3,4.5-0.8,6.6-1.5c1.4-0.4,2.8,0.7,2.6,2.2C306.3,70,304.1,75.4,299.8,76.1z M264.3,118.5c-3.2,2.4-8.2,0.6-13-2.8c-1.6-1.1-1.5-3.5,0.2-4.5c1.6-1,3.3-2,4.9-3.2c1.6-1.2,3.1-2.5,4.5-3.8	c1.4-1.4,3.8-0.8,4.4,1.1C267.1,110.7,267.5,116,264.3,118.5z M258.3,176.7c-1.7,3.7-7,4.4-12.9,3.6c-1.9-0.3-2.9-2.4-1.9-4	c1-1.6,2-3.4,2.8-5.2c0,0,0,0,0,0c0.9-1.8,1.6-3.6,2.2-5.5c0.6-1.8,2.9-2.4,4.3-1.1C257.2,168.5,260,173,258.3,176.7z" class="st147"/><ellipse cx="365.5" cy="54.3" class="st48" rx="3.9" ry="3.9" transform="matrix(0.969 -0.2469 0.2469 0.969 -2.0793 91.9366)"/><ellipse cx="306.9" cy="61.2" class="st48" rx="3.9" ry="3.9" transform="matrix(0.9891 -0.1473 0.1473 0.9891 -5.6604 45.8766)"/><ellipse cx="263.5" cy="102.1" class="st48" rx="3.9" ry="3.9" transform="matrix(0.9891 -0.1473 0.1473 0.9891 -12.1635 39.9243)"/><path d="M343.5,288.6c2.5,2.3,13.9,1.7,27.2-1.5c14.6-3.5,25.8-8.9,25-12c-0.7-3.1-13.2-2.7-27.7,0.8	c-2.5,0.6-4.9,1.3-7.2,2C360.8,277.9,340.9,284.7,343.5,288.6z" class="st152"/><path d="M311.9,222.7c1.5,2.1,10.2,3.4,20.8,3c11.6-0.5,20.9-2.8,20.8-5.3c-0.1-2.5-9.6-4.1-21.1-3.6	c-2,0.1-3.9,0.2-5.7,0.4C326.6,217.2,309.5,218.5,311.9,222.7z" class="st152"/><path d="M141.5,331.9c0.5,0.9,7.8,3,26.4-7c2.1-1.1,4.3-2.3,6.5-3.6c0,0,1.6-0.9,2.7,0.3c1.1,1.2,0.1,2.7,0.1,2.7	c-9.4,11.8-19.2,25.6-27,38.1c-19.8,31.4-15,45.9-13.2,47c1.9,1.2,16.8-0.9,36.6-32.3c8-12.8,16.4-28,23-41.8	c1.4-2.9,5.8-1.9,5.7,1.4c-0.4,10.1-0.5,20.7-0.3,30.3c0.7,30.2,7.6,38.1,8.8,37.9c1.3-0.2,16.6-16,10.2-126.7	C145.6,311.4,140.2,329.6,141.5,331.9z" class="st149"/><path d="M421.4,466.7c0.5-1.8,0.3-3.6-0.5-5.3c-37.2-77.4-83.9-136.2-139-174.8c-33.5-23.5-65.9-36.4-92.8-43.3	c-6.8-1.7-12.5-6.2-15.7-12.4c-7.9-15-14.9-26.4-14.9-26.4c-10-14.2-18.6-14.9-19.9-14c-1.3,0.9-3.3,9.6,6.5,23.4	c1.6,2.2,3.3,4.6,5.2,7c0.7,0.9-0.4,2-1.3,1.3c-30.6-23.2-41.3-21.7-42.4-20.2c-0.5,0.8,0.4,7.7,15.6,19.8c1.7,1.4,3.5,2.8,5.4,4.2	c0,0,1.4,1,0.7,2.4c-0.7,1.4-2.2,1-2.2,1c-13.4-3.6-28.7-6.8-42.1-8.9c-33.9-5.2-44.3,4.1-44.6,6c-0.3,2,6.9,13.9,40.8,19.1	c13.8,2.1,29.7,3.6,43.8,4.1c3,0.1,3.7,4.2,0.9,5.3c-8.7,3.4-17.7,7.2-25.7,10.9c-25.3,11.7-29.4,20.4-28.9,21.3	c0.5,0.9,14.9,6.2,77.6-22c1-0.5,1.9,0.9,1,1.6c-3.7,2.9-7.2,5.9-10.2,8.6C126,287,126,295.8,127.1,297c1.1,1.2,9.8,2.7,22.4-9.1	c6.8-6.3,14.4-14.9,20.6-22.4c4.7-5.6,12.3-7.9,19.4-6c21.3,5.9,45.9,15.7,71.7,32c4.5,2.8,6.8,8,5.9,13.2	c-3.5,20.6-2.3,42.4-0.7,56.6c0.6,5.1-1.3,10.2-5,13.8c-27,26-26.5,34-25.9,34.6c0.4,0.4,5.3,0.1,15.5-9.9c3.2-3.2,6.7-6.8,9.9-10.3	c1-1.1,2.9-0.1,2.4,1.4c-2.3,6.8-4.5,14.7-6,21.7c-3.7,17.1,0.7,22.7,1.7,23c1,0.2,7.3-3.1,11-20.2c0.7-3.4,1.4-7.1,2-10.8	c0.2-1.2,1.9-1.1,2.1,0c1.7,14.4,5.3,17.5,6.3,17.5c0.6,0,3.8-3.4,3.8-16.3c0-1.5,0-3-0.1-4.5c0,0,0-1.1,1-1.4	c1-0.2,1.5,0.7,1.5,0.7c3.7,8.5,8.4,17.7,12.9,25.6c11.4,19.7,20.6,21.3,21.7,20.6c1.2-0.7,4.3-9.4-7.1-29.1	c-4.6-8-10.5-16.9-16.1-24.4c-1.2-1.6,0.7-3.7,2.4-2.7c5.4,3.1,11.1,6.2,16.4,8.8c16.6,8.3,22.8,6.8,23.1,6.1	c0.2-0.7-4.3-13.7-48.4-34.2c-5.3-2.5-9-7.5-9.5-13.4c-1.1-11.1-2-26.5-0.4-41.7c0.4-4.3,5.5-6.5,8.9-3.7	c45.4,36.7,84.5,88.9,116.5,155.3c0.9,1.8,2.5,3.3,4.4,3.9l0.6,0.2C415.8,473.3,420.2,470.9,421.4,466.7L421.4,466.7z" class="st149"/><path d="M182.7,249.8c0,0-73.7-16.4-143.3-23.1c-2-0.2,6.9,13.9,40.8,19.1c13.8,2.1,29.7,3.6,43.8,4.1	c3,0.1,3.7,4.2,0.9,5.3c-8.7,3.4-17.7,7.2-25.7,10.9c-25.3,11.7-29.4,20.4-28.9,21.3c0.5,0.9,15,6.2,77.6-22c1-0.5,1.9,0.9,1,1.6	c-3.7,2.9-7.2,5.9-10.3,8.6C126,287,126,295.8,127.1,297c1.1,1.2,9.8,2.7,22.4-9.1c6.4-6,13.5-14.1,19.6-21.2	c7.7-8.9,18.5-13.3,24.1-13.9C194.2,252.7,182.7,249.8,182.7,249.8" class="st152"/><path d="M220.9,278.1c0,0-29,40.1-83.9,131.2c-1.1,1.9,16.8-0.9,36.6-32.3c8-12.8,16.4-28,23-41.8	c1.4-2.9,5.8-1.9,5.7,1.4c-0.4,10.1-0.5,20.7-0.3,30.3c0.7,30.2,7.6,38.1,8.8,37.9C212,404.7,227.3,388.8,220.9,278.1" class="st152"/><path d="M273.2,348.2c7.2,14.6,11.2,19.8,19.2,23.5c43.1,19.9,47.4,33,47.2,33.6c-0.3,0.7-6.5,2.2-23.1-6.1	c-5.2-2.6-11-5.7-16.4-8.8c-1.7-1-3.6,1.1-2.4,2.7c5.6,7.6,11.4,16.4,16.1,24.4c11.4,19.7,8.2,28.4,7.1,29.1	c-1.1,0.6-10.3-0.9-21.7-20.6c-4.5-7.8-9.2-17.1-12.9-25.6c0,0-0.5-1-1.5-0.7c-1,0.2-1,1.4-1,1.4c0.1,1.6,0.1,3.1,0.1,4.5	c0,4.1-0.3,7.2-0.7,9.6c0,0-6.6-29.5-9.1-48.4C274,365.7,273.3,349.3,273.2,348.2z" class="st152"/><ellipse cx="139.4" cy="242.1" class="st48" rx="3.9" ry="3.9" transform="matrix(0.9891 -0.1473 0.1473 0.9891 -34.1481 23.1801)"/><ellipse cx="298.4" cy="391.2" class="st48" rx="3.9" ry="3.9" transform="matrix(0.9891 -0.1473 0.1473 0.9891 -54.3646 48.2251)"/><path d="M122.1,241.8c-0.2,0-0.4,0-0.6,0l-13.4-2c-2.1-0.3-3.6-2.3-3.3-4.4c0.3-2.1,2.3-3.6,4.4-3.3l13.4,2	c2.1,0.3,3.6,2.3,3.3,4.4C125.7,240.4,124,241.8,122.1,241.8z" class="st48"/><path d="M262.1,286.9c-0.7,0-1.4-0.2-2-0.6c-17.4-10.7-35.7-19.4-54.3-25.8c-2-0.7-3.1-2.9-2.4-5c0.7-2,2.9-3.1,5-2.4	c19.2,6.6,38,15.5,55.9,26.5c1.8,1.1,2.4,3.5,1.3,5.4C264.7,286.2,263.4,286.9,262.1,286.9z" class="st48"/><path d="M186.2,336.3c-0.6,0-1.3-0.2-1.9-0.5c-1.9-1-2.6-3.4-1.5-5.3c14.9-26.9,29-48.4,41.9-64	c1.4-1.7,3.8-1.9,5.5-0.5c1.7,1.4,1.9,3.8,0.5,5.5c-12.6,15.2-26.4,36.3-41.1,62.8C188.9,335.6,187.6,336.3,186.2,336.3z" class="st158"/><ellipse cx="186.1" cy="332.5" class="st48" rx="3.9" ry="3.9" transform="matrix(0.9891 -0.1473 0.1473 0.9891 -46.9515 31.0424)"/><path d="M279.2,397.4c-1.8,0-3.4-1.2-3.8-3c-0.2-0.8-4.9-20.7-6.4-45.8c-0.1-2.2,1.5-4,3.7-4.1c2.1-0.1,4,1.5,4.1,3.7	c1.4,24.5,6.1,44.3,6.2,44.5c0.5,2.1-0.8,4.2-2.9,4.7C279.9,397.3,279.5,397.4,279.2,397.4z" class="st158"/><path d="M192.2,256.1c-0.3,0-0.7,0-1.1-0.1c-12.5-3.5-25.2-6-37.7-7.4c-2.1-0.2-3.7-2.2-3.4-4.3	c0.2-2.1,2.2-3.7,4.3-3.4c12.9,1.5,26,4.1,38.9,7.7c2.1,0.6,3.3,2.7,2.7,4.8C195.5,255,193.9,256.1,192.2,256.1z" class="st158"/></svg>