<svg xmlns="http://www.w3.org/2000/svg" xmlns:xlink="http://www.w3.org/1999/xlink" id="Layer_1" x="0" y="0" version="1.1" viewBox="0 0 64 64" xml:space="preserve" style="enable-background:new 0 0 64 64"><style type="text/css">.st0{display:none;fill:#d1a982}.st19{fill:#fff}.st87{fill:#b29166}.st88{fill:#7f5b3b}.st89{fill:#f4e400}.st90{fill:#a58500}.st91{fill:#dfbe00}</style><rect width="2535.7" height="2318.4" x="-180.8" y="-821" class="st0"/><path d="M58.5,11.7l2.5-4.1c0.7-1.1,0.5-2.6-0.4-3.6l-0.6-0.6c-1-1-2.4-1.1-3.6-0.4l-4.1,2.5L58.5,11.7z" class="st87"/><path d="M57.2,11l2.5-4.1c0.3-0.6,0.3-1.3-0.2-1.7l-0.6-0.6c-0.3-0.3-0.6-0.4-1-0.4c-0.3,0-0.5,0.1-0.7,0.2L53,6.8	l-1.6-2.6l4.1-2.5c1.7-1.1,4-0.8,5.4,0.7L61.6,3c1.4,1.4,1.7,3.7,0.7,5.4l-2.5,4.1L57.2,11z" class="st88"/><path d="M8.3,55.6C-1.3,46-0.5,34,13.8,21C28.1,8,44.1-5.8,56.9,7.1S56.1,35.8,43,50.1C29.9,64.5,18,65.3,8.3,55.6z" class="st89"/><path d="M22.1,63.6c-5.3,0-10.3-2.3-14.8-6.9c-4.7-4.7-7-9.8-6.8-15.3c0.2-7,4.3-14.3,12.4-21.6C25.9,8,43.7-8.2,58,6	c14.3,14.3-2,32.1-13.8,45.1c-7.3,8.1-14.6,12.2-21.6,12.4C22.4,63.6,22.2,63.6,22.1,63.6z M45.4,3.4c-9.1,0-19.3,8.5-30.5,18.6	C7.4,28.8,3.6,35.4,3.4,41.5c-0.1,4.6,1.9,9,6,13.1l0,0c4.1,4.1,8.5,6.1,13.1,6c6.1-0.1,12.7-4,19.5-11.4	c14.3-15.7,25.3-29.7,13.9-41C52.6,4.9,49.1,3.4,45.4,3.4z" class="st90"/><path d="M16.5,24.4c-0.1,0-0.3-0.1-0.4-0.2c-0.2-0.2-0.2-0.5,0-0.7c4.9-4.5,10.1-9.1,15.2-12.5	c0.2-0.2,0.5-0.1,0.7,0.1s0.1,0.5-0.1,0.7c-5,3.4-10.2,8-15,12.4C16.8,24.4,16.7,24.4,16.5,24.4z" class="st19"/><g><path d="M17.6,57.8c-0.2,0-0.4-0.2-0.5-0.4c-0.1-0.3,0.1-0.5,0.4-0.6c0.2-0.1,0.4-0.1,0.6-0.2 c0.8-0.2,1.6-0.5,2.4-0.9c0.2-0.1,0.5,0,0.7,0.3c0.1,0.3,0,0.5-0.3,0.7c-0.9,0.4-1.7,0.7-2.5,0.9c-0.2,0.1-0.5,0.1-0.7,0.2 C17.7,57.8,17.7,57.8,17.6,57.8z" class="st91"/><path d="M24.8,54.5c-0.2,0-0.3-0.1-0.4-0.2c-0.2-0.2-0.1-0.5,0.1-0.7c1.5-1,3.1-2.2,4.8-3.6c0.2-0.2,0.5-0.2,0.7,0.1 c0.2,0.2,0.2,0.5-0.1,0.7c-1.7,1.4-3.3,2.7-4.9,3.7C25,54.4,24.9,54.5,24.8,54.5z" class="st91"/><path d="M31.6,49.1c-0.1,0-0.3-0.1-0.4-0.2c-0.2-0.2-0.2-0.5,0-0.7c1.4-1.3,2.9-2.7,4.4-4.3c0.2-0.2,0.5-0.2,0.7,0 c0.2,0.2,0.2,0.5,0,0.7c-1.5,1.6-3,3-4.4,4.3C31.9,49,31.8,49.1,31.6,49.1z" class="st91"/><path d="M37.7,43c-0.1,0-0.2,0-0.3-0.1c-0.2-0.2-0.2-0.5,0-0.7c1.4-1.4,2.7-2.9,4.1-4.4c0.2-0.2,0.5-0.2,0.7,0 c0.2,0.2,0.2,0.5,0,0.7c-1.4,1.5-2.7,2.9-4.1,4.4C38,42.9,37.9,43,37.7,43z" class="st91"/><path d="M44.2,36c-0.1,0-0.2,0-0.3-0.1c-0.2-0.2-0.2-0.5,0-0.7l0.8-0.9c0.2-0.2,0.5-0.2,0.7,0c0.2,0.2,0.2,0.5,0,0.7 l-0.8,0.9C44.5,36,44.3,36,44.2,36z" class="st91"/><path d="M48.9,30.6c-0.1,0-0.2,0-0.3-0.1c-0.2-0.2-0.2-0.5-0.1-0.7c1.3-1.5,2.4-3,3.4-4.4c0.2-0.2,0.5-0.3,0.7-0.1 c0.2,0.2,0.3,0.5,0.1,0.7c-1,1.4-2.1,2.9-3.4,4.4C49.1,30.5,49,30.6,48.9,30.6z" class="st91"/><path d="M53.6,24.2c-0.1,0-0.2,0-0.3-0.1c-0.2-0.2-0.3-0.5-0.1-0.7c0.2-0.3,0.3-0.5,0.5-0.7c0.2-0.2,0.5-0.3,0.7-0.1 c0.2,0.2,0.3,0.5,0.1,0.7c-0.2,0.3-0.3,0.5-0.5,0.8C53.9,24.1,53.7,24.2,53.6,24.2z" class="st91"/><path d="M57.3,17.3c-0.1,0-0.1,0-0.2,0c-0.3-0.1-0.4-0.4-0.3-0.6c0.3-0.8,0.5-1.6,0.6-2.4c0-0.3,0.3-0.5,0.6-0.4 c0.3,0,0.5,0.3,0.4,0.6c-0.1,0.8-0.3,1.7-0.7,2.5C57.7,17.1,57.5,17.3,57.3,17.3z" class="st91"/></g><path d="M32.2,21.2c-0.1,0-0.3-0.1-0.4-0.2c-0.2-0.2-0.2-0.5,0-0.7c1.5-1.4,2.8-2.5,4.1-3.6c0.2-0.2,0.5-0.2,0.7,0.1	c0.2,0.2,0.2,0.5-0.1,0.7c-1.3,1.1-2.6,2.3-4.1,3.6C32.4,21.2,32.3,21.2,32.2,21.2z" class="st19"/><g><path d="M46.5,7.5c-0.2,0-0.4-0.1-0.5-0.3c-0.1-0.3,0-0.5,0.3-0.6c1.1-0.4,2.1-0.7,3.1-0.9c0.3,0,0.5,0.1,0.6,0.4 c0,0.3-0.1,0.5-0.4,0.6c-0.9,0.2-1.9,0.5-2.9,0.9C46.6,7.5,46.5,7.5,46.5,7.5z" class="st91"/><path d="M42.4,9.5c-0.2,0-0.3-0.1-0.4-0.2c-0.1-0.2-0.1-0.5,0.2-0.7c0.4-0.2,0.8-0.5,1.2-0.7c0.2-0.1,0.5,0,0.7,0.2 c0.1,0.2,0,0.5-0.2,0.7C43.4,9,43,9.2,42.6,9.5C42.5,9.5,42.4,9.5,42.4,9.5z" class="st91"/><path d="M35.9,13.9c-0.1,0-0.3-0.1-0.4-0.2c-0.2-0.2-0.1-0.5,0.1-0.7l0.6-0.5c0.2-0.2,0.5-0.1,0.7,0.1 c0.2,0.2,0.1,0.5-0.1,0.7l-0.6,0.5C36.1,13.9,36,13.9,35.9,13.9z" class="st91"/><path d="M28,20.8c-0.1,0-0.3-0.1-0.4-0.2c-0.2-0.2-0.2-0.5,0-0.7c2.1-1.9,4.1-3.6,5.8-5.1c0.2-0.2,0.5-0.1,0.7,0.1 c0.2,0.2,0.1,0.5-0.1,0.7c-1.8,1.5-3.7,3.1-5.8,5C28.2,20.7,28.1,20.8,28,20.8z" class="st91"/><path d="M20.3,27.9c-0.1,0-0.3-0.1-0.4-0.2c-0.2-0.2-0.2-0.5,0-0.7c1.4-1.3,2.8-2.6,4.2-3.9c0.2-0.2,0.5-0.2,0.7,0 c0.2,0.2,0.2,0.5,0,0.7c-1.4,1.3-2.8,2.6-4.2,3.9C20.5,27.9,20.4,27.9,20.3,27.9z" class="st91"/><path d="M16.9,31.3c-0.1,0-0.2,0-0.3-0.1c-0.2-0.2-0.2-0.5,0-0.7c0.4-0.4,0.8-0.8,1.2-1.2c0.2-0.2,0.5-0.2,0.7,0 c0.2,0.2,0.2,0.5,0,0.7c-0.4,0.4-0.8,0.8-1.2,1.2C17.2,31.2,17,31.3,16.9,31.3z" class="st91"/><path d="M13.7,34.8c-0.1,0-0.2,0-0.3-0.1c-0.2-0.2-0.2-0.5-0.1-0.7c0.5-0.6,1-1.2,1.5-1.7c0.2-0.2,0.5-0.2,0.7,0 c0.2,0.2,0.2,0.5,0,0.7c-0.5,0.6-1,1.2-1.5,1.7C14,34.7,13.8,34.8,13.7,34.8z" class="st91"/><path d="M8.4,42.5c-0.1,0-0.2,0-0.2-0.1c-0.2-0.1-0.3-0.4-0.2-0.7c0.6-1.1,1.3-2.3,2-3.4c0.2-0.2,0.5-0.3,0.7-0.1 c0.2,0.2,0.3,0.5,0.1,0.7c-0.8,1.1-1.4,2.3-2,3.3C8.7,42.4,8.6,42.5,8.4,42.5z" class="st91"/><path d="M6.5,49.1c-0.3,0-0.5-0.2-0.5-0.5c0-0.6,0-1.3,0.1-1.9c0-0.3,0.3-0.5,0.6-0.4c0.3,0,0.5,0.3,0.4,0.6 C7,47.4,7,48,7,48.6C7,48.8,6.8,49.1,6.5,49.1C6.5,49.1,6.5,49.1,6.5,49.1z" class="st91"/></g><g><path d="M13.8,50.7c-0.1,0-0.3,0-0.4-0.1c-0.2-0.2-0.2-0.5,0-0.7l0.8-0.8c0.2-0.2,0.5-0.2,0.7,0s0.2,0.5,0,0.7 l-0.8,0.8C14,50.7,13.9,50.7,13.8,50.7z" class="st91"/><path d="M16.9,47.6c-0.1,0-0.3,0-0.4-0.1c-0.2-0.2-0.2-0.5,0-0.7l4.6-4.6c0.2-0.2,0.5-0.2,0.7,0s0.2,0.5,0,0.7 l-4.6,4.6C17.1,47.6,17,47.6,16.9,47.6z" class="st91"/><path d="M23.2,41.3c-0.1,0-0.3,0-0.4-0.1c-0.2-0.2-0.2-0.5,0-0.7l1.2-1.2c0.2-0.2,0.5-0.2,0.7,0s0.2,0.5,0,0.7 l-1.2,1.2C23.5,41.2,23.4,41.3,23.2,41.3z" class="st91"/><path d="M47.3,17.2c-0.1,0-0.3,0-0.4-0.1c-0.2-0.2-0.2-0.5,0-0.7l1.2-1.2c0.2-0.2,0.5-0.2,0.7,0s0.2,0.5,0,0.7 L47.7,17C47.6,17.1,47.5,17.2,47.3,17.2z" class="st91"/><path d="M27.7,36.8c-0.1,0-0.3,0-0.4-0.1c-0.2-0.2-0.2-0.5,0-0.7l0.8-0.8c0.2-0.2,0.5-0.2,0.7,0s0.2,0.5,0,0.7 L28,36.7C27.9,36.8,27.8,36.8,27.7,36.8z" class="st91"/><path d="M32.2,32.3c-0.1,0-0.3,0-0.4-0.1c-0.2-0.2-0.2-0.5,0-0.7l5.4-5.4c0.2-0.2,0.5-0.2,0.7,0s0.2,0.5,0,0.7 l-5.4,5.4C32.5,32.2,32.4,32.3,32.2,32.3z" class="st91"/><path d="M39.6,24.8c-0.1,0-0.3,0-0.4-0.1c-0.2-0.2-0.2-0.5,0-0.7l2.5-2.5c0.2-0.2,0.5-0.2,0.7,0s0.2,0.5,0,0.7 L40,24.7C39.9,24.8,39.8,24.8,39.6,24.8z" class="st91"/></g><circle cx="34" cy="10" r=".5" class="st19"/></svg>