<svg xmlns="http://www.w3.org/2000/svg" xmlns:xlink="http://www.w3.org/1999/xlink" id="Layer_1" x="0" y="0" version="1.1" viewBox="0 0 500 500" xml:space="preserve" style="enable-background:new 0 0 500 500"><style type="text/css">.st19{fill:#456a11}.st224{fill:#19430c}.st225{fill:#e4e9a8}.st226{fill:#859c52}.st279{fill:#c7d2b8}</style><polygon points="223.1 386.9 325 404.5 355.6 374.7 437.6 358.6 456.7 327.2 455.2 282.8 475.1 232.2 452.1 176.3 445.2 113.5 404.7 95.9 359.5 69.8 302 65.2 268.3 30.8 227 30 155 20.8 80.7 72.1 40.1 112.7 45.4 176.3 31.7 232.2 65.4 299.6 73.8 348.6 105.9 375.4 192.5 371.6" class="st19"/><g><path d="M126.5,149.3c-0.5,0-1-0.1-1.5-0.3c-13.6-5.5-27.2-9.7-40.6-12.2c-2.1-0.4-3.5-2.4-3.1-4.5s2.4-3.5,4.5-3.1 c13.8,2.7,28,7,42,12.7c2,0.8,2.9,3.1,2.1,5C129.5,148.4,128,149.3,126.5,149.3z" class="st226"/></g><path d="M193.6,249.9c-19.5-10.8-50.2-25.8-87.5-37.3c-2.5-0.8-4.8-2-6.8-3.8c-9.5-8.4-39.1-35.5-55-59.5	c-0.7,2.6-2.7,4.7-6,5c11.9,17.7,30.3,36.5,43.4,48.9c1,1,0.1,2.7-1.3,2.4c-15.2-3.6-31.1-6.5-47.7-8.1c2.5,1.8,3.3,5.2,2.5,8	c68.2,7.6,126.2,35.2,155.8,51.8C190.5,254.6,191.4,251.6,193.6,249.9z" class="st226"/><path d="M188.1,321.4c-19.8-5-43.6-9.6-69.6-12c-3.6-0.3-6.8-2.1-9.1-4.9l-64.3-82.3c-0.8,2.5-2.9,4.5-6.3,4.6	l61.7,79c0.8,1,0,2.5-1.2,2.4c-8.5-0.4-17.2-0.5-26-0.2c1.4,2.4,1.4,5.4,0.1,7.7c36.1-1,69.9,3.7,97.8,9.7c1.5,0.3,1.6,2.5,0.1,2.9	c-9.2,2.6-20.6,6.2-32.4,10.8c-1.9,0.7-3.1,2.8-2.5,4.8c0.5,1.7,2.1,2.7,3.7,2.7c0.5,0,0.9-0.1,1.4-0.3	c24.7-9.6,47.4-14.7,51.7-15.6l1.7-0.3L188.1,321.4z" class="st226"/><polygon points="182.8 300 184.2 282.9 134.8 265.5 98.9 262 93 270 97.8 274.2" class="st225"/><g><g><path d="M102.4,272.1c-1-0.1-1.9-0.6-2.6-1.4c-0.6-0.8-0.9-1.8-0.8-2.9c0.2-2,1.9-3.4,3.8-3.4c0.1,0,0.3,0,0.5,0 c31.4,3.6,59.4,13.3,81,23c-0.6-2.7,0.1-5.7,2.2-7.5c-22-9.9-50.5-19.6-82.2-23.3c-0.4-0.1-0.9-0.1-1.3-0.1 c-5.9,0-10.9,4.4-11.5,10.3c-0.4,3.1,0.5,6.1,2.4,8.6c1.9,2.4,4.7,4,7.8,4.3c32.4,3.8,61.4,14.7,82.6,24.9c-1.6-2.7-1.1-6,0.5-8.3 C163,286.2,134.3,275.8,102.4,272.1z" class="st226"/></g></g><g><path d="M234.4,144.3C234.3,144.3,234.3,144.3,234.4,144.3c-2.2,0-3.9-1.8-3.9-4c0.1-3.7,0.8-7.4,2-11 c4.4-12.6,15.4-21.7,28.7-23.5c2.1-0.3,4.1,1.2,4.4,3.3c0.3,2.1-1.2,4.1-3.3,4.4c-10.4,1.5-19,8.5-22.5,18.4 c-1,2.8-1.5,5.7-1.6,8.6C238.2,142.6,236.5,144.3,234.4,144.3z" class="st279"/></g><polygon points="192.6 184.7 178.7 141.1 192.2 110.1 213.1 82.6 208.6 71.1 200.3 73.5 172.7 114.6 161.9 81.5 152.9 79.1 143.8 86.8 153.6 120.6 121.5 101.7 104.4 96.2 98.9 103.1 101.3 109.4 144.5 132.8 161.9 149.8 176.2 202.1 132.7 181.5 90.2 170 84.2 178.7 87.7 184 139.3 201.7 183.5 227.9 182.7 206.9" class="st225"/><g><path d="M67.9,129c-0.5,0-1-0.1-1.5-0.3c-2-0.8-2.9-3.1-2.1-5.1c3.6-8.5,9.7-15.4,17.8-20c1.9-1.1,4.2-0.4,5.3,1.4 c1.1,1.9,0.4,4.2-1.4,5.3c-6.6,3.8-11.6,9.4-14.5,16.3C70.8,128.1,69.4,129,67.9,129z" class="st279"/></g><path d="M281.3,51.5c-10,12.2-24.9,19.4-34.2,23c-2.2,0.9-4.7-0.6-4.9-2.9c-0.4-3.4-0.6-7-0.7-10.6	c0-2.1-1.8-3.8-3.9-3.8h-0.1c-2.1,0-3.8,1.7-3.8,3.9c0.1,4.1,0.3,8.1,0.8,12c0.5,4.3-0.7,8.6-3.6,11.9c-20.8,23.8-34,49.7-41.6,68.3	c-0.5,1.3-2.4,1.2-2.8-0.2c-0.8-2.7-1.6-5.3-2.3-7.9c-0.7-2.5-0.7-5.2,0.2-7.7c4.4-12.3,13.6-32.8,29.5-50.2c2-2.2,3.4-5.1,3.4-8.1	c0-3.3-1.3-6.4-3.7-8.6c-2.6-2.4-6.1-3.5-9.6-2.9c-2.7,0.4-5.2,1.8-7,3.8c-9.2,10-16.4,20.8-22,30.8c-0.7,1.2-2.4,1-2.8-0.4	c-1.6-6-3-11.5-4.3-16.4c-0.3-1.8-0.2-3.6,0.5-5.2c2.5-6.3,5.7-13.6,10-21.2c1-1.8,0.6-4.2-1.2-5.4c-1.9-1.2-4.4-0.6-5.5,1.4	c-3.7,6.5-6.7,12.8-9.1,18.5c-0.7,1.8-2.7,2.6-4.6,2.1c-2.2-0.6-4.5-0.6-6.7,0c-2.1,0.5-4,1.5-5.6,2.9c-1.3,1.1-3.2,1.2-4.6,0.2	c-9.9-7.2-23-15.2-38.5-21c0.9,2.6,0.4,5.7-1.5,7.7c14.6,5.6,27.1,13.4,36.5,20.4c1.6,1.2,2.7,2.8,3.3,4.6l0.5,1.6	c1.1,4.4,2.4,9.2,3.7,14.4c0.3,1.3-1.1,2.4-2.2,1.7c-9.2-5.8-20-11.3-32-15.5c-2.1-0.7-4.3-0.8-6.5-0.3c-3.1,0.7-5.7,2.6-7.3,5.4	c-3.8,6.5-0.6,14.6,6.2,16.9c22.8,7.9,40.9,22.2,50.6,30.9c1.7,1.6,3,3.6,3.6,5.8c3.7,12.7,7.8,26.4,12.3,41.1	c0.4,1.3-1,2.4-2.2,1.8c-18.8-10.8-44.1-22.4-73.3-28.3c-0.8-0.2-1.6-0.2-2.3-0.2c-5.5,0-10.3,3.9-11.4,9.3c-0.6,3,0,6.1,1.7,8.7	c1.7,2.6,4.3,4.4,7.4,5c55.6,11.3,97.4,46.9,97.8,47.2c0.2,0.1,0.3,0.3,0.5,0.4c-1.5-4.5-3-8.9-4.4-13.2c-15.6-11.3-50-33.4-92.4-42	c-1-0.2-1.9-0.8-2.5-1.7c-0.7-1-0.8-2.2-0.5-3.4c0.2-0.7,0.6-1.2,1.2-1.7c1-0.8,2.1-1.1,3.3-0.9c34.5,7,63.3,22.2,82,34.1	c2.2,1.4,4.3,2.8,6.2,4.1c-0.1-1.7,0.4-3.5,1.4-4.8c-6.9-21.7-13-41.7-18.1-59.6c-0.6-2.2-1.9-4.3-3.6-5.8c-2.1-1.9-5.1-4.6-8.1-7.2	c-10.9-8.9-27.1-20.1-46.7-26.9c-1.7-0.6-3-2.3-2.8-4.1c0.2-2,1.9-3.5,3.9-3.5c0.4,0,0.9,0.1,1.3,0.2c16.5,5.7,30.5,14.1,41.2,22	c2.1,1.6,4.2,3.1,6,4.6c1.2,0.9,2.9-0.2,2.5-1.6c-3.7-13.5-6.8-25.2-9.2-34.7c-0.3-1.4-0.3-2.8,0.3-4.1c0.8-1.6,2.1-2.7,3.8-3.1	c0.5-0.1,1-0.2,1.4-0.2c1,0,2,0.3,3,0.8c1.3,0.8,2.3,2.1,2.7,3.6c2.5,9.8,5.7,22.1,9.7,36.4c0.4,1.4,2.4,1.6,2.9,0.2	c0.9-2.1,1.9-4.4,3-6.7c5.8-12.4,14.4-27.2,26.8-40.7c0.5-0.5,1.1-0.9,1.7-1.2c1.4-0.4,2.8-0.1,3.8,0.8c0.9,0.8,1.3,2,1.2,3.2	c-0.1,0.8-0.5,1.6-1,2.3c-19.4,23.4-28.9,46.6-32.2,55.6c-0.9,2.5-1,5.2-0.2,7.7c3.8,13.3,8.2,27.8,13,43.3c0.9-2.4,3-4.3,6.4-4.3	c0.1,0,0.3,0,0.4,0c-1-3.3-2-6.5-3-9.7c-0.9-3.1-0.8-6.3,0.3-9.3c6.7-18.2,20.6-49,44.8-76.2c2.4-2.7,5.4-4.7,8.8-5.8	c9.6-3.4,28.6-11.5,41-27C284.3,55.9,282.2,53.9,281.3,51.5z" class="st226"/><path d="M298.5,167.9c-1,0-2-0.4-2.8-1.2c-10.3-10.6-21.3-19.7-32.8-27.1c-1.8-1.2-2.3-3.6-1.2-5.3	c1.2-1.8,3.6-2.3,5.3-1.2c11.9,7.7,23.4,17.1,34.1,28.2c1.5,1.5,1.5,4-0.1,5.5C300.5,167.6,299.5,167.9,298.5,167.9z" class="st226"/><path d="M235.5,14.5c-5.4,0.5-11.5-0.3-18.6-2.4c-27.7-8.2-54.1-8.4-78.7-0.7C113.6,19.1,92,34.4,74,56.9	c-4.1,5.1-9.5,9.6-15.9,13.3c-25.3,14.6-40,41.8-38.3,70.9c0.5,9.1,2.7,18,6.4,26.3c4.7,10.6,0.9,22.2-1.7,28.2	c-8.3,18.7-9.4,39.8-3.3,59.3c4.2,13.3,11.6,25.4,21.6,35.1c6.7,6.6,10.2,14.7,9.8,22.9c-0.8,15.9,3.4,31.4,11.9,44.8	c17.3,27.1,50,40.5,81.4,33.5c0.9-0.2,1.7-0.4,2.5-0.7c0.3-0.1,24.4-7.9,54.6-1.3c12.2,2.7,22.4,11,27.5,22.4	c10.2,22.7,20.7,44.5,31.3,65c0,0,9.7,18.4,30.2,18.4c5.4,0,10.8-1.3,15.6-3.8c9.3-4.8,15.9-13.7,17.8-23.9	c4.6-17.1,8.9-35.1,12.9-53.6c3.1-14.3,13.6-25.9,27.5-30.3c17.7-5.6,31.9-4.4,33.5-4.3c1,0.1,1.6,0.2,2.6,0.2c0.2,0,0.4,0,0.6,0	c28.7,0,54.7-18,64.7-45c5-13.5,5.7-27.9,2-41.7c-1.6-5.9-0.3-12.4,3.7-18.3c6.9-10.4,11.1-22.4,12.3-34.9	c1.7-18.3-3.3-36.5-14.1-51.4l0,0c-3-4.1-7.7-12.3-6-20.8c1.7-8,1.9-16.2,0.6-24.4c-4-26-22.1-47.2-47.2-55.2	c-5.7-1.8-10.6-4.4-14.7-7.7c-19.7-16-41.2-25.2-63.8-27.3c-5-0.5-10-0.6-15.1-0.3c-8.9,0.4-17.4-3.4-22.9-10.4	C275.6,8.3,235.5,14.5,235.5,14.5z M237.7,369.9c-21.2-9.6-42.5-12.8-59.1-12.8c-21.5,0-36.7,4.8-39.4,5.7	c-19.3,4.2-39.4-4.1-50.1-20.8c-5.3-8.3-7.9-17.9-7.4-27.7c0.8-16.7-5.8-32.7-18.6-45.2c-6.5-6.3-11.4-14.3-14.1-23	c-4-12.8-3.2-26.5,2.2-38.8c7.9-17.9,8.5-36.3,1.7-51.8c-2.3-5.1-3.6-10.6-3.9-16.3c-1.1-18.1,8-34.9,23.7-43.9	c9.6-5.5,17.7-12.4,24.1-20.4c14.3-17.9,31.2-30,50.1-35.9c19-6,39.7-5.7,61.7,0.8c10.8,3.2,20.5,4.3,29.7,3.4	c18.2-1.7,35.4,6.9,44.9,22.4c0.5,0.8,1,1.6,1.4,2.4c2.3,4.4,0.7,9.8-3.7,12.1c-0.5,0.2-0.9,0.5-1.4,0.8c-7,3.8-13.4,6-19.6,6.8	c-9.8,1.2-19.1,5-26.9,11.1c-8,6.3-14,14.7-17.4,24.4c-2.1,6-3.1,12.3-3,18.7c0.2,10.8-4.9,21.8-14.5,30.8	c-10.6,10.1-17.2,23.6-18.5,38.2c-0.9,9.9,0.7,20,4.5,29.1c4.6,10.8,4.6,21.8,0.2,31c-5.1,10.4-6.6,22-4.4,33.4	c4.2,22.1,22,39.3,44.2,42.8c0,0,13.7,2.4,27,7.6L237.7,369.9z M307.1,390l-7.3-8.7c-34-38.1-74.5-41.5-74.5-41.5	c-18.5-3-34.1-17.2-37.8-36.6c-1.9-9.7-0.5-19.2,3.3-27.5c5.5-12.1,5.7-26.2,0.5-38.5c-3.3-7.7-4.8-16.4-3.9-25.3	c1.2-13.4,7.4-25.2,16.6-33.7c10.5-9.8,16.1-23.7,16.4-38c0.1-4.7,0.9-9.5,2.6-14.1c5.9-16.7,20.4-27.9,36.9-30.2	c8-1.1,15.8-3.6,22.8-7.5c15-8.3,31.1-13.2,47.6-13.2c2.5,0,5.1,0.1,7.6,0.3c18.6,1.7,35.8,9.7,50.8,21.7	c6.8,5.5,14.5,9.6,22.8,12.3c16,5.1,28.6,18.9,31.4,36.7c0.8,4.9,0.7,9.7,0,14.4c-2.3,14.2,0.6,28.9,9.2,40.4	c7.5,10,11.4,22.7,10.2,36.2c-0.8,9-3.8,17.2-8.5,24.2c-7.5,11.3-9.5,25.3-6.4,38.4c2,8.5,1.6,17.6-1.7,26.4	c-6.9,18.5-24.4,29.9-43,29.9c-0.1,0-0.3,0-0.4,0c0,0-2.9-0.4-7.9-0.4c-13.9,0-44,2.9-71.8,24.7L307.1,390z" class="st224"/><circle cx="301.1" cy="89.6" r="3.9" class="st279"/><circle cx="181.8" cy="44.5" r="3.9" class="st279"/><circle cx="204.1" cy="270.5" r="3.9" class="st226"/><polygon points="327.8 142.8 330.2 119.7 338.2 113.9 348.7 120.6 347.8 143.9 381.4 120.1 387.9 123 388.8 131.7 346.7 172.4 343.1 221.4 405.2 178.6 414.6 184 412.3 193.6 376.3 213.6 339.3 249.2 332.7 303.7 374.7 275 417.7 257.2 423 263.4 418.8 272.1 363.8 300.6 328.9 331.6 301.1 466.2 289.7 471.3 280.6 460.9 297.3 399.9 309.7 325.1 279 284.6 235 249 237 239.4 246.3 239.2 299.7 283.5 314.2 300.6 320.9 244.3 289.9 206.5 257.4 179.5 259.4 169.7 268.1 168 294.8 187.3 323.5 217.6 327.1 173.3 307.3 143.7 286.8 127 291 118.1 300.8 119.2" class="st225"/><polygon points="327.8 142.8 330.2 119.7 338.2 113.9 348.7 120.6 347.8 143.9 381.4 120.1 387.9 123 388.8 131.7 346.7 172.4 343.1 221.4 405.2 178.6 414.6 184 412.3 193.6 376.3 213.6 339.3 249.2 332.7 303.7 374.7 275 417.7 257.2 423 263.4 418.8 272.1 363.8 300.6 328.9 331.6 301.1 466.2 289.7 471.3 280.6 460.9 297.3 399.9 309.7 325.1 279 284.6 235 249 237 239.4 246.3 239.2 299.7 283.5 314.2 300.6 320.9 244.3 289.9 206.5 257.4 179.5 259.4 169.7 268.1 168 294.8 187.3 323.5 217.6 327.1 173.3 307.3 143.7 286.8 127 291 118.1 300.8 119.2" class="st225"/><circle cx="199.3" cy="217.3" r="3.9" class="st279"/><g><path d="M302.4,266.6c-0.1,0-0.3,0-0.4,0c-2.1-0.2-3.7-2.1-3.4-4.3l1.3-12c0.2-2.1,2.2-3.7,4.3-3.4 c2.1,0.2,3.7,2.1,3.4,4.3l-1.3,12C306.1,265.2,304.4,266.6,302.4,266.6z" class="st279"/></g><g><path d="M312.5,188.6c-0.1,0-0.2,0-0.3,0c-2.1-0.2-3.7-2-3.6-4.1l0.6-8.5c0.2-2.1,2-3.7,4.1-3.6 c2.1,0.2,3.7,2,3.6,4.1l-0.6,8.5C316.2,187,314.5,188.6,312.5,188.6z" class="st279"/></g><path d="M300.7,456.7c-13.8-26.7-31.6-65.7-45.5-97.9c-2.6-0.4-4.3-2.1-5.1-4.1c-8-3-16-5.1-21-6.2	c14.7,34.5,39.5,88.3,54.4,117.1c1.7,3.3,5.1,5.2,8.6,5.2c1.5,0,3-0.3,4.4-1.1C301.3,467.3,303.2,461.4,300.7,456.7z" class="st225"/><g><path d="M264.1,221.2c3.4,0.3,6.5,1.8,8.8,4.3c3.7,3.9,7.4,7.9,11,12c0.8,0.9,1.8,1.3,2.9,1.3c0.9,0,1.8-0.3,2.5-0.9 c1.6-1.4,1.7-4,0.2-5.6c-23.5-26.7-49.2-48.9-76.3-66c-1.3,2.2-2.7,4.4-4.3,6.4c16.4,10.3,32.3,22.6,47.4,36.6 c1.4,1.3,0.4,3.6-1.5,3.5c-9.2-0.6-21.6-0.9-34.9-0.2c-2.1,0.1-3.9,1.8-3.9,3.9c0,2.2,1.9,4,4.1,3.9 C238.7,219.2,255.4,220.4,264.1,221.2z" class="st226"/></g><path d="M462.2,234.1c0.2-4.6-0.3-9.2-1.3-13.5l-44.1,78.7c-1.7,3-4.3,5.2-7.5,6.3c-31.4,11.1-57.3,25-74.7,35.6	c-1.3,0.8-3-0.3-2.7-1.8c0.1-0.9,0.3-1.7,0.4-2.6c0.7-4,2.6-7.7,5.6-10.5c13.8-12.9,43.4-37.3,81.4-50.3c2.9-1,5.5-3,7-5.8	c1.5-2.8,1.7-6,0.7-9c-1.6-4.7-6.1-8-11-8c-1.3,0-2.5,0.2-3.7,0.6c-29.2,9.9-53.4,25.4-70.8,38.8c-1.1,0.8-2.6-0.1-2.4-1.4	c0.4-3.1,0.8-6.2,1.2-9.2c0.4-3.3,2-6.3,4.4-8.5c21-19.1,59.7-49.8,109.2-69.6c-0.7-1-1.3-2-2.1-3c-0.9-1.2-1.6-2.3-2.4-3.6	c-6.2,2.5-12.3,5.2-18.1,8c-1.8,0.9-3.6-1.1-2.6-2.8c4.2-7.3,9.1-16.3,13.6-25.7c-0.7-5.4-0.6-10.9,0.3-16.4	c0.3-1.9,0.5-3.7,0.6-5.6c-8.1,22.8-24,48.9-29.5,57.7c-1.2,1.9-2.9,3.5-4.9,4.7c-26.7,15.3-48.4,32.1-63.5,45.3	c-1.1,0.9-2.7,0.1-2.6-1.4c0.3-2.7,0.6-5.4,0.9-8c0.3-2.7,1.5-5.2,3.3-7.3c10.9-12.1,34.3-34.7,65.5-48.6c2.9-1.3,5.3-3.5,6.5-6.4	c1.3-3.2,1.1-6.8-0.5-9.9c-2-3.8-6.1-6.2-10.4-6.1c-1.6,0-3.1,0.4-4.5,1c-21.5,9.4-39.5,22.3-53.1,34.1c-1,0.9-2.6,0.1-2.4-1.3	c0.3-3.4,0.6-6.7,0.8-10c0.3-3.4,1.8-6.6,4.3-8.9c13.2-12.5,32.6-27.9,56.6-38.4h0c1.2-0.5,2-1.6,2.3-2.9c0-0.2,2.9-16.6,11.8-32.7	c-2.1-1.5-4.3-2.8-6.7-3.9c-5.7,10.1-9,20.3-10.9,27.1c-1,3.8-3.6,7.1-7.2,8.9c-18.7,9.3-34.3,21-46,31.5c-1.1,0.9-2.7,0.1-2.6-1.3	c0-0.2,0-0.5,0.1-0.7c0.2-2.3,1-4.5,2.3-6.3c6.6-9,18.7-23.2,35.3-33.3c5.5-3.4,7.5-10.7,4-16.2c-2.3-3.7-6.5-5.8-11-5.4	c-1.8,0.2-3.6,0.9-5.2,1.8c-7.7,4.7-14.5,10-20.4,15.4c-1,0.9-2.6,0.2-2.5-1.2c0.1-2.7,0.2-5.2,0.3-7.6c0-0.5,0-0.9,0-1.4	c-0.1-2.4,0.7-4.8,2.3-6.6c6.9-7.8,16.1-16.4,27.3-23.5c-2.3-1.6-4.7-3.2-7.1-4.6c-10.6,7.1-19.3,15.4-26,22.9	c-0.8,0.9-2.2,1.2-3.3,0.6c-1.9-1.1-4-1.6-6.2-1.8c-4.1-0.2-7,1.3-8.8,2.7c-1.2,0.9-2.9,0.7-3.9-0.5c-3.9-5.2-8.7-10.8-14.4-16.4	c-1.7-1.7-4.5-1.5-5.9,0.6c-1.1,1.6-0.7,3.8,0.7,5.1c6.8,6.7,12.3,13.7,16.5,19.6c1.1,1.6,1.7,3.5,1.6,5.5c-0.1,1.9-0.2,4-0.2,6.1	c-0.1,1.3-1.7,2-2.6,1c-5.9-6.4-12.9-12.8-21-18.5c-0.8-0.6-1.8-1.1-2.7-1.5c-5.2-2-10.7-0.1-13.7,4.2c-3.7,5.2-2.4,12.5,2.8,16.2	c15.6,11,26.7,25.7,32.8,35.2c1.4,2.2,2.1,4.8,1.9,7.5c-0.6,9.3-1.4,19.3-2.3,29.9c-0.1,1.3-1.8,1.9-2.6,0.8	c-11.6-13.8-27.3-29.4-47.1-42.2c-1.9-1.2-4.1-1.8-6.3-1.8c-4,0-7.6,2-9.8,5.3c-3.5,5.4-1.9,12.6,3.5,16.1	c27.5,17.7,46.5,42.3,56,56.5c1.7,2.5,2.4,5.5,2.1,8.4c-1.4,12.5-3,25.5-4.8,38.8c-0.2,1.3-1.8,1.8-2.7,0.8	c-14.1-16.9-34.5-37.4-61.1-53.4c-1.8-1.1-3.9-1.7-6-1.7c-4,0-7.9,2.1-9.9,5.6c-1.6,2.7-2.1,5.8-1.3,8.8c0.7,3,2.6,5.6,5.3,7.2	c32.8,19.9,55.9,48.2,67.4,64.3c2,2.9,2.9,6.4,2.3,9.9c-0.4,2.6-0.8,5.1-1.3,7.7c-0.2,1.4-2,2-3,0.9c-16.6-17-44.6-42.6-81-64	c-2.1-1.2-4.8-0.3-5.6,2.1c-0.6,1.8,0.2,3.7,1.8,4.6c5.6,3.3,10.9,6.6,16.1,10.1c1.5,1,1.1,3.2-0.6,3.6l-44.2,10.6	c0.6,2.6,1.5,5,2.5,7.4l48.2-11.5c4-1,8.3-0.1,11.7,2.4c10.6,8,20,15.9,28.1,23.2c1.4,1.3,0.5,3.6-1.4,3.5	c-4.4-0.2-9.6-0.2-15.4,0.1c-2.1,0.1-3.9,1.8-3.9,3.9c0,2.2,1.8,4,4.1,3.9c17.5-1,29.7,1.3,29.8,1.3c0,0,0.1,0,0.1,0	c2.1,2.1,4.1,4.1,5.9,6c2.9,3.1,4.2,7.3,3.5,11.5c-3.5,19.5-7.5,39.3-12.1,59.2c-0.4,1.8-3,2.1-3.8,0.4	c-6.8-14.4-13.5-29.2-20.1-44.4l-3.8-8.7c-1.4-3.2-3.9-5.9-7.1-7.4c-1.1-0.5-2.2-1-3.3-1.4c-0.7-0.3-1.4-0.5-2.1-0.8l10.4,24.2	c7.5,17.2,15.2,34,23,50.1c1.7,3.6,2.2,7.7,1.2,11.6c-0.5,2-1,4-1.5,6c-0.5,1.8-2.9,2.1-3.7,0.4c-12.4-24.9-24.5-51.3-36.2-78.9	l-7.5-17.8c-4.2-1.1-7.5-1.8-9.2-2.1l10.1,24.3c14.2,33.5,29.1,65.3,44.2,94.6c0,0,0,0,0,0c0.1,0.2,0.2,0.4,0.3,0.5	c0,0.1,0.1,0.2,0.1,0.2l0,0c1.8,3.3,4.8,5.8,8.4,6.7c1.2,0.3,2.4,0.5,3.5,0.5c6.1,0,11.5-4.1,13.1-10c9.5-35.2,17.2-70.8,23.3-105.3	c0.7-3.7,2.8-6.9,6-8.9c5-3.1,10.9-6.7,17.6-10.4c2.1-1.1,4.4-1.8,6.7-1.8c9.2,0,31.8,0.4,54.7,4.6c0.2,0,0.5,0.1,0.7,0.1	c2,0,3.7-1.5,3.9-3.6c0.1-2-1.4-3.7-3.3-4.1c-13.3-2.5-26.3-3.7-36.9-4.2c-2.1-0.1-2.6-2.9-0.7-3.8c20.1-9.4,44.1-18.6,70.6-24.7	c-0.2-0.9-0.3-1.8-0.5-2.7c-0.4-1.6-0.7-3.3-0.9-4.9c-5.6,1.3-11.2,2.7-16.6,4.3c-1.7,0.5-3.2-1.3-2.3-2.9L462.2,234.1z M330.7,322.4L330.7,322.4c-3,2.9-4.9,6.5-5.6,10.5c-0.3,1.6-0.5,3.2-0.8,4.9c-6.7,40.4-15.3,82.9-26.6,124.7	c-0.7,2.5-3,4.3-5.6,4.3c-0.5,0-1-0.1-1.5-0.2c-1.7-0.5-3-1.6-3.8-3.2c-0.6-1.3-0.6-2.8-0.3-4.1c11.9-44,20.8-88.7,27.6-131	c0.5-3.4-0.3-6.9-2.2-9.7c-1-1.4-2.2-3.1-3.4-4.8c0,0,0,0,0,0c-12.3-17-35.6-44.7-68.2-64.4c-0.9-0.5-1.5-1.4-1.8-2.4	c-0.3-1-0.1-2,0.4-2.9c0.7-1.2,2-1.9,3.3-1.9c0.7,0,1.4,0.2,2,0.6c30.3,18.3,52.4,42.6,65.8,60.1c0.4,0.5,0.7,0.9,1.1,1.4	c2,2.7,6.3,1.6,6.8-1.8c1.4-10.2,2.8-20.1,4-29.9c1.1-9.4,2.2-19.1,2.8-24.5c0.3-2.9-0.4-5.9-2-8.4c-1.2-1.8-2.7-4.1-4.3-6.3	c0,0,0,0,0,0c-10.6-15.1-29.3-37.9-55.6-54.9c-1.8-1.2-2.3-3.6-1.2-5.4c0.7-1.1,1.9-1.8,3.3-1.8c0.7,0,1.5,0.2,2.1,0.6	c24.4,15.7,42.3,35.8,53.7,51.1c0.1,0.2,0.3,0.3,0.4,0.5c1.9,2.6,6,1.4,6.3-1.8c0.4-4.6,1-10.7,1.6-17.7c0.8-10.3,1.6-20,2.2-29.1	c0.2-2.6-0.5-5.1-1.8-7.3c-1.3-2.1-3.1-4.9-4.9-7.5c-6.9-9.8-17.3-22.2-31.2-32.1c-1.3-0.9-2-2.5-1.7-4.1c0.4-1.9,2-3.1,3.8-3.1	c0.8,0,1.6,0.2,2.2,0.7c11.6,8.2,20.9,17.9,27.8,26.6c0,0,0,0,0,0c0.5,0.7,1.1,1.3,1.6,2c1.9,2.4,5.8,1.2,5.9-1.8	c0.5-9.5,0.9-17.9,1.1-24.8c0.1-1.6,0.7-3,1.9-4.1c1.1-1,2.4-1.5,3.9-1.5c0.1,0,0.2,0,0.3,0c0.9,0,1.8,0.3,2.6,0.7	c1.9,1.2,3,3.1,2.9,5.3c-0.2,6.5-0.6,14.3-1,23.1c-0.2,3.1,3.7,4.7,5.7,2.4c0.3-0.4,0.7-0.7,1-1.1c7.4-8,17-16.8,28.7-23.9	c0.7-0.4,1.4-0.7,2.2-0.7c1.4,0,2.6,0.7,3.4,1.9c1.1,1.8,0.5,4.2-1.3,5.3c-14.2,8.6-25.2,19.9-32.7,29c0,0-3,3.7-6.4,8.5	c-1.4,1.9-2.2,4.1-2.3,6.4c-1,14.4-2.2,30.6-3.9,48c-0.3,3.3,3.6,5.2,6,2.9c0.4-0.4,0.8-0.8,1.2-1.1c13.6-13.2,34.3-29.9,60.5-41.4	c0.8-0.4,1.8-0.4,2.7-0.2c0.7,0.2,1.3,0.6,1.8,1.1c1.1,1.3,1.3,3,0.6,4.4c-0.4,0.8-1.2,1.5-2,1.8c-29.1,12.8-51.5,32.8-64.2,46	c-2.4,2.6-4.5,4.9-6,6.7c-1.8,2-2.9,4.5-3.2,7.2c-1.8,16.8-4,34.5-6.6,52.8c-0.1,0.4-0.1,0.8-0.2,1.2c-0.5,3.4,3.5,5.6,6.1,3.3	c16.7-14.4,44.3-34.4,79.1-46.2c1.1-0.4,2.2-0.3,3.3,0.4c0.6,0.4,1.2,1,1.5,1.6c0.6,1.2,0.5,2.5-0.2,3.7c-0.5,0.8-1.3,1.4-2.2,1.7	C375.8,282.6,344.2,309.6,330.7,322.4C330.7,322.4,330.7,322.4,330.7,322.4z" class="st226"/><g><path d="M149.9,171.9c-1.7,0-3.3-1.2-3.7-2.9l-3.7-13.9c-0.5-2.1,0.7-4.2,2.8-4.7s4.2,0.7,4.7,2.8l3.7,13.9 c0.5,2.1-0.7,4.2-2.8,4.7C150.6,171.9,150.2,171.9,149.9,171.9z" class="st279"/></g></svg>