<svg xmlns="http://www.w3.org/2000/svg" xmlns:xlink="http://www.w3.org/1999/xlink" id="Layer_1" x="0" y="0" version="1.1" viewBox="0 0 200 200" xml:space="preserve" style="enable-background:new 0 0 200 200"><style type="text/css">.st0{display:none}.st1{fill:#d1a982}.st1,.st2{display:inline}.st5{fill:#105409}.st9{fill:#a9c500}.st42{fill:#f5dabd}.st44{fill:#995929}</style><g class="st0"><rect width="2396.5" height="1153.6" x="-876.7" y="-133.8" class="st1"/><path d="M1519.3-133.3v1152.6H-876.2V-133.3H1519.3 M1520.3-134.3H-877.2v1154.6h2397.5V-134.3L1520.3-134.3z" class="st2"/></g><path d="M66.2,75.7c-1,0-2.1-0.3-3-1C33.2,51.4,13,44.4,12.8,44.3c-2.5-0.9-3.9-3.6-3.1-6.1l2.5-7.6	c0.4-1.3,1.4-2.3,2.6-2.9c-1.9-2.2-3.7-4.3-5.2-6.2c-1.6-2.1-1.3-5.2,0.8-6.8l6.3-5c0.9-0.7,1.9-1,3-1c1.4,0,2.9,0.6,3.8,1.9	C38.6,29.6,73,59.7,74.5,60.9c2,1.7,2.2,4.7,0.6,6.7l-5.1,6.2C69,75.1,67.6,75.7,66.2,75.7z" class="st9"/><path d="M192.1,187.9c0.7,2-1.6,3.7-3.3,2.5C172.4,178.5,121.5,142,70.1,109C53.6,98.4,50.3,79.7,64.5,64l0,0	C78.7,48.3,95,51.7,109.7,65C161.5,111.6,185.3,168.9,192.1,187.9z" class="st42"/><g><g><path d="M196.7,186.3L196.7,186.3c-7.9-22-32-78.3-83.7-124.9c-18.5-16.6-37.4-16.9-52.1-0.6 c-7.7,8.5-11.2,18.5-9.9,28.1c1.3,9.5,7.1,18.1,16.5,24.1c51.8,33.3,103.8,70.7,118.5,81.3c1.2,0.9,2.7,1.3,4.1,1.3 c1.5,0,3-0.5,4.2-1.4C196.8,192.4,197.7,189.2,196.7,186.3z M160.9,164.5c1.7-2.1,3.5-4.3,5.4-6.4c0.6-0.7,0.5-1.7-0.1-2.3 s-1.7-0.5-2.3,0.1c-1.9,2.2-3.8,4.4-5.6,6.6c-10.2-7.1-21.9-15.3-34.5-23.9c2.5-3.3,5.1-6.7,7.9-9.9c0.6-0.7,0.5-1.7-0.2-2.3 c-0.7-0.6-1.7-0.5-2.3,0.2c-2.9,3.3-5.6,6.8-8.1,10.2c-8.4-5.7-17.2-11.6-26.1-17.6c2.2-2.8,4.4-5.7,6.8-8.5 c0.6-0.7,0.5-1.7-0.2-2.3c-0.7-0.6-1.7-0.5-2.3,0.2c-2.5,2.9-4.8,5.9-7.1,8.8c-3.6-2.4-7.2-4.8-10.9-7.1 c3.4-4.8,7.1-9.7,11.2-14.5c0.6-0.7,0.5-1.7-0.2-2.3s-1.7-0.5-2.3,0.2c-4.2,4.9-8,9.9-11.4,14.8c-2-1.3-4-2.6-5.9-3.8 c-6.9-4.5-11.2-10.6-12.1-17.3c-0.9-6.8,1.7-13.9,7.5-20.3c5.3-5.9,11.1-8.8,17.2-8.8c4,0,8.2,1.3,12.6,3.8 C94,65.8,90,69.6,86.2,73.4c-0.6,0.6-0.6,1.7,0,2.3c0.3,0.3,0.7,0.5,1.1,0.5c0.4,0,0.8-0.2,1.1-0.5c4-4,8.2-7.9,12.3-11.7 c1.9,1.3,3.8,2.8,5.7,4.6c1.6,1.4,3.1,2.8,4.6,4.2c-3.8,3.3-7.5,6.9-11.2,10.6c-0.6,0.6-0.6,1.7,0,2.3c0.3,0.3,0.7,0.5,1.1,0.5 c0.4,0,0.8-0.2,1.2-0.5c3.7-3.8,7.5-7.4,11.2-10.7c7.5,7.3,14.4,14.8,20.7,22.4c-3.2,2.9-6.4,5.9-9.5,9.1c-0.6,0.6-0.6,1.7,0,2.3 c0.3,0.3,0.7,0.5,1.1,0.5c0.4,0,0.8-0.2,1.2-0.5c3-3.1,6.1-6.1,9.2-8.8c6.7,8.3,12.8,16.6,18.1,24.6c-1.5,1.5-3.1,3-4.6,4.5 c-0.6,0.6-0.6,1.7,0,2.3c0.3,0.3,0.7,0.5,1.1,0.5c0.4,0,0.8-0.2,1.2-0.5c1.3-1.4,2.7-2.7,4.1-4.1c2.4,3.8,4.7,7.5,6.9,11.1 c-2.5,2.4-5,5-7.5,7.6c-0.6,0.7-0.6,1.7,0.1,2.3c0.3,0.3,0.7,0.4,1.1,0.4c0.4,0,0.9-0.2,1.2-0.5c2.2-2.4,4.5-4.7,6.8-6.9 c4.7,8.1,8.7,15.8,12,22.6c-0.9,1.1-1.8,2.1-2.7,3.2c-0.6,0.7-0.5,1.7,0.2,2.3c0.3,0.2,0.7,0.4,1,0.4c0.5,0,0.9-0.2,1.2-0.6 c0.6-0.7,1.1-1.3,1.7-2c2.5,5.4,4.6,10.2,6.2,14.2C178.4,176.9,170.4,171.2,160.9,164.5z" class="st44"/><ellipse cx="145.8" cy="141.6" class="st44" rx="1.6" ry="1.6" transform="matrix(0.6696 -0.7427 0.7427 0.6696 -57.0115 155.0446)"/><ellipse cx="113.1" cy="120.7" class="st44" rx="1.6" ry="1.6" transform="matrix(0.6696 -0.7427 0.7427 0.6696 -52.2625 123.8818)"/><ellipse cx="76" cy="85.5" class="st44" rx="1.6" ry="1.6" transform="matrix(0.6696 -0.7427 0.7427 0.6696 -38.3682 84.6724)"/><ellipse cx="119.7" cy="96.8" class="st44" rx="1.6" ry="1.6" transform="matrix(0.2568 -0.9665 0.9665 0.2568 -4.6197 187.6239)"/><ellipse cx="109.5" cy="93.3" class="st44" rx="1.6" ry="1.6" transform="matrix(0.2568 -0.9665 0.9665 0.2568 -8.8324 175.2062)"/></g></g><path d="M66.2,72.4c-0.3,0-0.7-0.1-1-0.3C34.6,48.4,14,41.4,13.8,41.3c-0.8-0.3-1.3-1.2-1-2l2.5-7.6	c0.2-0.7,0.9-1.1,1.5-1.1c0.2,0,0.3,0,0.5,0.1c0.4,0.1,2.8,0.9,7,2.8c-5-5.3-9.1-9.9-12.2-13.9c-0.5-0.7-0.4-1.7,0.3-2.3l6.3-5	c0.3-0.2,0.6-0.3,1-0.3c0.5,0,1,0.2,1.3,0.6c15.1,19.3,49.8,49.6,51.3,50.8c0.7,0.6,0.7,1.6,0.2,2.2l-5.1,6.2	C67.1,72.2,66.7,72.4,66.2,72.4z" class="st9"/><path d="M73.4,62.2c-0.1-0.1-2.9-2.5-7.2-6.4c1.8-1.4,3.7-2.7,5.6-3.7C61.1,42.5,38.6,21.7,27.4,7.6	c-1.9-2.4-4.8-3.7-7.6-3.7c-2.1,0-4.2,0.7-6,2.1l-6.3,5c-2,1.6-3.3,3.9-3.6,6.5c-0.3,2.6,0.4,5.1,2,7.1c0.8,1,1.6,2,2.5,3.1	c-0.3,0.5-0.5,1-0.7,1.6l-2.5,7.6c-1.7,5.1,1.1,10.5,6.1,12.2c6,2.1,21.8,9.6,41.8,24.2c0.8-2,1.8-3.9,3-5.8c2.7,1.9,5.4,4,8.2,6.1	c0.6,0.5,1.3,0.7,2,0.7c0.9,0,1.9-0.4,2.5-1.2l5.1-6.2C74.9,65.3,74.7,63.3,73.4,62.2z M66.2,70.8c-31-24-51.6-31-51.8-31.1l2.5-7.6	c0.4,0.1,4.8,1.6,12.5,5.4c0.5,0.2,0.9-0.4,0.6-0.8c-6.2-6.3-12-12.7-16.4-18.3l6.3-5c15.4,19.7,51.1,50.8,51.5,51.1L66.2,70.8z" class="st5"/></svg>