<svg xmlns="http://www.w3.org/2000/svg" xmlns:xlink="http://www.w3.org/1999/xlink" style="enable-background:new 0 0 64 64" x="0" y="0" version="1.1" viewBox="0 0 64 64" xml:space="preserve"><style type="text/css">.st12{fill:#748c8b}.st13{fill:#434d42}.st14{fill:#efc11e}.st21{fill:#fff}</style><g id="Layer_2"><g><path d="M24.7,56.9C15.9,51.6,2.6,43.7,2.6,32.5c0-12.1,8.4-20.5,22.5-22.7L29,2.4h5.6l4.3,7.4 C53,11.9,61.4,20.4,61.4,32.5c0,11.3-13.3,19.2-22.1,24.4l-7.2,4.3L24.7,56.9z" class="st12"/><path d="M33.8,60.8c-2.6,1.9-6-1.2-5.3-4c1.1-4.1-0.5-5.8-1.6-9.5c-0.5-1.6-0.6-3.2,0.3-4.7c1.1-1.8,3.4-1.5,4.3-2.6 c1-1.3,0.3-4.2,0.6-5.8c0.3-1.5,2-2.7,3.4-2.6c2.3,0,4.2-0.3,6.2-1c0.9-0.7,2.1-1.2,3.4-1.2c0.6,0,1.2,0.2,1.7,0.5 c0.8-0.9,1.6-1.8,2.4-2.8c2.4-2.8,6.9,0.2,6,3.5c-0.1,0.2-0.3,1-0.5,1.9c0.1-0.1,0.2-0.1,0.3-0.1c1.3-0.5,2.5-0.7,3.8-0.1l2.6-0.1 l-2.8,10L33.8,60.8z" class="st14"/><path d="M15.6,11.8c2.5-1.1,6.5,0.8,5.3,4c-0.6,1.6-1.5,2.7-2.4,4.2c-0.1,0.2-0.2,0.3-0.2,0.5 c0.7,0.5,1.3,1.2,1.8,2.1c1.7,3.3,0,7.3-3,9c-2.7,1.6-7.2,2-9.6-0.5c-0.5-0.5-0.8-1-1.1-1.6c-0.6-0.1-1.2-0.1-1.8-0.3l-2-1.4 l1.5-6.4L15.6,11.8z" class="st14"/><g><g><path d="M14.1,30.3C14.1,30.3,14.1,30.3,14.1,30.3c-0.3,0-0.5-0.3-0.5-0.5c0.3-4.5,1.3-8.3,3.1-11.2 c0.1-0.2,0.4-0.3,0.7-0.2c0.2,0.1,0.3,0.4,0.2,0.7c-1.7,2.8-2.7,6.4-2.9,10.7C14.5,30.1,14.3,30.3,14.1,30.3z" class="st21"/></g><g><g><path d="M5.8,30.3C5.8,30.3,5.7,30.3,5.8,30.3c-0.3,0-0.5-0.3-0.5-0.6c0.4-3.1,1.5-5.8,3.1-8.3 c0.2-0.2,0.5-0.3,0.7-0.1c0.2,0.2,0.3,0.5,0.1,0.7c-1.6,2.3-2.6,4.9-3,7.8C6.2,30.1,6,30.3,5.8,30.3z" class="st21"/></g></g><g><path d="M26.1,30.4c-0.3,0-0.5-0.2-0.5-0.5c0-10.1,1.5-14.7,2.8-16.8c0.1-0.2,0.4-0.3,0.7-0.2 c0.2,0.1,0.3,0.4,0.2,0.7c-1.2,2-2.6,6.5-2.6,16.3C26.5,30.2,26.3,30.4,26.1,30.4z" class="st21"/></g><circle cx="26.4" cy="33" r=".5" class="st21"/><circle cx="14.4" cy="32.9" r=".5" class="st21"/><circle cx="6.1" cy="32.9" r=".5" class="st21"/></g><path d="M38.8,7.8C38.4,7.7,38,7.4,38,7l-0.5-3.2c-0.3-1.9-1.9-3.3-3.8-3.3h-3.7c-1.9,0-3.5,1.4-3.8,3.3L25.8,7 c-0.1,0.4-0.4,0.7-0.8,0.8c-7,1-13,3.7-17.2,7.6c-4.7,4.4-7.2,10.3-7.2,17c0,12.4,13.9,20.6,23.1,26.1c1.8,1.1,3.3,2,4.5,2.8 c0.4,0.3,0.9,0.5,1.3,0.7c0.5,0.9,1.4,1.5,2.5,1.5c1.1,0,2-0.6,2.5-1.5c0.5-0.2,0.9-0.4,1.3-0.7c1.2-0.8,2.7-1.7,4.5-2.8 c9.2-5.5,23.1-13.7,23.1-26.1C63.4,19.4,54,9.9,38.8,7.8z M29.2,4.3c0.1-0.5,0.4-0.8,0.8-0.8h3.7c0.4,0,0.8,0.4,0.8,0.8l0.5,3 c-0.1,0-0.2-0.1-0.4-0.1c-0.2-0.1-0.3-0.1-0.5-0.1C34,7,33.8,6.9,33.6,6.9c-0.1,0-0.3,0-0.4-0.1c-0.4,0-0.8-0.1-1.1-0.1 c-0.4,0-0.8,0-1.1,0.1c-0.1,0-0.3,0-0.4,0.1c-0.2,0-0.4,0.1-0.7,0.1c-0.2,0-0.3,0.1-0.5,0.1c-0.2,0.1-0.3,0.1-0.5,0.2 c-0.1,0-0.1,0.1-0.1,0.1L29.2,4.3z M25.8,11.3c1.4-2.2,3.4-3.6,6.2-3.6c0.2,0,0.3,0,0.5,0c0,0,0.1,0,0.1,0c0.2,0,0.4,0,0.5,0.1 c0,0,0,0,0,0c0.2,0,0.4,0.1,0.5,0.1c0,0,0.1,0,0.1,0c2.7,0.6,5.7,3.1,7,11.7c0,0,0,0,0,0c0.4,2.7,0.6,6.1,0.6,10.2 c0,11.8-4.5,20.5-7.4,26.2c-0.6,1.2-1.2,2.4-1.7,3.4c0,0.1-0.2,0.4-0.4,0.4c-0.2,0-0.4-0.3-0.4-0.4c-0.5-1-1-2.1-1.7-3.4 c-3-5.7-7.4-14.4-7.4-26.2c0-3.3,0.1-7,0.6-10.4C24.1,13.7,25.8,11.3,25.8,11.3z M3.6,32.5c0-9.7,5.5-16.2,13.8-19.6 c-4,3.6-6.9,9.6-6.9,19.5c0,10.6,7.6,17.9,13.7,23C15.6,50.3,3.6,42.7,3.6,32.5z M26.8,56.3C20.3,51,11.4,43.7,11.4,32.4 c0-11.6,4.2-17.6,9.2-20.6c1.4-0.4,2.9-0.7,4.4-1c-2.3,3.7-3.5,10-3.5,19.1C21.5,42,26,50.8,29,56.6c0.5,0.9,0.9,1.8,1.3,2.5 c-0.1-0.1-0.3-0.1-0.4-0.2c0,0-0.1,0-0.1-0.1C28.9,58,27.9,57.2,26.8,56.3z M34.2,58.8C34.2,58.8,34.2,58.9,34.2,58.8 c-0.2,0.2-0.4,0.2-0.5,0.3c0.4-0.8,0.8-1.6,1.3-2.5c3-5.8,7.5-14.6,7.5-26.7c0-9.2-1.1-15.5-3.5-19.1c1.5,0.2,3,0.6,4.4,1 c5,3,9.1,9,9.1,20.6c0,11.3-8.9,18.6-15.3,23.9C36.1,57.2,35.1,58,34.2,58.8z M39.8,55.4c6.1-5.1,13.7-12.4,13.7-23 c0-10-2.9-15.9-6.9-19.5c8.3,3.4,13.8,9.9,13.8,19.6C60.4,42.7,48.4,50.3,39.8,55.4z" class="st13"/></g></g></svg>