<svg xmlns="http://www.w3.org/2000/svg" xmlns:xlink="http://www.w3.org/1999/xlink" x="0" y="0" version="1.1" viewBox="0 0 200 200" xml:space="preserve" style="enable-background:new 0 0 200 200"><style type="text/css">.st12{fill:#4d831c}.st30{fill:#fff}.st76{fill:#e6681e}.st100{fill:#ffbc42}.st165{fill:#184c28}</style><g id="Layer_1"><path d="M147,46c6-6.6,10.7-14.6,13.6-23.4c0,0-17.9,7.6-39.7,11.8C130.2,36.8,138.9,40.8,147,46z" class="st12"/><path d="M64.8,39.3c3.9-2,7.9-3.7,11.9-4.9c-21.3-4.2-37.3-11.8-37.3-11.8c1.9,8,6.4,15.7,12.5,22.4 C56,42.6,60.3,40.7,64.8,39.3z" class="st12"/><polygon points="110.7 32.4 100 5.3 89.5 31.9" class="st12"/><path d="M48.6,48.2c2.7-1.8,5.6-3.4,8.6-4.8c-2.5-2.5-4.8-5.3-6.7-8.1c-0.9-1.3,0.4-3.1,2-2.5 c5,1.7,11.1,3.5,17.8,5.1c7.6-3.2,15.7-5,24.1-5.2l4.1-10.4c0.6-1.4,2.6-1.4,3.2,0l4.2,10.7c7.8,0.6,15.3,2.3,22.4,4.8 c7.2-1.6,13.8-3.6,19.3-5.3c1.5-0.5,2.8,1.2,2,2.5c-2.1,3.3-4.5,6.4-7.2,9.2c2.8,1.6,5.5,3.3,8.2,5.1c6.5-7.2,11.5-15.7,14.7-25.3 c0.6-1.8,0.1-3.7-1.3-5c-1.4-1.3-3.4-1.6-5.1-0.9c-0.2,0.1-16.9,7.2-37.3,11.3c-3.6,0.7-7.1-1.2-8.5-4.6l-8.4-21.3 c-0.7-1.8-2.5-3-4.4-3h0c-2,0-3.7,1.2-4.4,3L87,25.2c-1.3,3.4-4.9,5.3-8.4,4.6c-20.9-4-36.9-11.5-37.1-11.6 c-1.7-0.8-3.6-0.6-5.1,0.6c-1.4,1.2-2.1,3-1.6,4.8C37,32.5,41.9,40.9,48.6,48.2z" class="st165"/><path d="M183.2,94.6c9.8,43-25,100.1-83.4,100.1S8.3,138,16.4,94.6C24.1,53.5,53.7,35,99.8,35S173.5,52.3,183.2,94.6 z" class="st100"/><path d="M41.3,84.8c-0.1,0-0.2,0-0.4,0c-0.9-0.2-1.4-1.1-1.2-1.9c0.4-1.6,0.8-3.1,1.3-4.6c0.3-0.8,1.2-1.3,2-1 c0.8,0.3,1.3,1.2,1,2c-0.4,1.4-0.8,2.8-1.2,4.3C42.7,84.3,42.1,84.8,41.3,84.8z" class="st30"/><path d="M45.1,73.8c-0.2,0-0.5,0-0.7-0.2c-0.8-0.4-1.1-1.3-0.8-2.1c2.8-5.9,6.6-11.1,11.4-15.3 c0.7-0.6,1.7-0.5,2.2,0.1c0.6,0.7,0.5,1.7-0.1,2.2c-4.5,4-8.1,8.8-10.7,14.3C46.3,73.5,45.7,73.8,45.1,73.8z" class="st30"/><path d="M187.8,93.6c-9.9-43.2-37.9-63.3-88-63.3c-24.4,0-44.2,5.1-58.8,15.2C25.6,56.1,15.7,72.4,11.7,93.7 c-4.6,24.7,3.3,53.1,20.8,74.1c17,20.4,40.9,31.7,67.3,31.7c27.4,0,52.1-12,69.4-33.7C186.1,144.7,193.2,117,187.8,93.6z M78.4,186.3c-0.2,0.4-0.6,0.6-1.1,0.4c-14.5-4.3-27.4-12.8-37.5-25C24.2,142.9,17,117.5,21.1,95.5c3.5-18.8,12-33,25.3-42.2 c6.5-4.5,14.2-7.9,23.1-10.1c2.6-0.7,4.7,2.3,3.1,4.5c-3.9,5.4-7,12.3-9.3,20.8c-0.2,0.7,0,1.5,0.6,1.8c0.3,0.2,0.6,0.3,0.9,0.3 c0.7,0,1.3-0.5,1.5-1.2c6-21.8,17.3-32.9,33.5-32.9c13.9,0,23.4,7.2,29.9,22.7c0.3,0.7,1.1,1.2,1.9,1c1-0.2,1.5-1.3,1.1-2.2 c-1.7-4-3.6-7.6-5.7-10.6c-1.5-2.2,0.5-5.2,3.1-4.5c26.4,6.7,41.7,23.6,48.3,52.6c4.7,20.7-1.7,45.3-16.8,64.2 c-9.5,11.9-21.5,20.6-35,25.5c-1.4,0.5-2.5-1.3-1.4-2.3c2-1.8,3.7-4,5.1-6.4c0.4-0.6,0.3-1.5-0.2-2c-0.8-0.7-2-0.5-2.5,0.3 c-6.4,11.1-18.5,13.4-27.5,13.4c-7.7,0-14-1.8-19.4-5.5c-0.7-0.5-1.6-0.4-2.1,0.1c-0.6,0.6-0.6,1.4-0.2,2c0.2,0.3,0.3,0.7,0.1,1 L78.4,186.3z" class="st76"/><path d="M78.1,80c-0.1,0-0.1,0-0.2,0c-0.9-0.1-1.5-0.9-1.4-1.8c0.3-2,0.6-3.9,0.9-5.7c0.2-0.9,1-1.4,1.9-1.3 c0.9,0.2,1.4,1,1.3,1.9c-0.3,1.8-0.6,3.6-0.9,5.5C79.6,79.4,78.9,80,78.1,80z" class="st30"/><path d="M81.7,64.3c-0.2,0-0.4,0-0.5-0.1c-0.8-0.3-1.3-1.2-1-2c2.3-6.6,5.5-11.5,9.5-14.6c0.7-0.5,1.7-0.4,2.2,0.3 c0.5,0.7,0.4,1.7-0.3,2.2c-3.5,2.7-6.4,7.2-8.5,13.2C82.9,63.9,82.3,64.3,81.7,64.3z" class="st30"/><ellipse cx="39.9" cy="91.8" class="st30" rx="1.6" ry="1.6" transform="matrix(0.9982 -6.032619e-02 6.032619e-02 0.9982 -5.4652 2.5723)"/><ellipse cx="77.4" cy="85.9" class="st30" rx="1.6" ry="1.6" transform="matrix(0.998 -6.320410e-02 6.320410e-02 0.998 -5.2752 5.0646)"/></g></svg>