<svg xmlns="http://www.w3.org/2000/svg" xmlns:xlink="http://www.w3.org/1999/xlink" id="Layer_1" x="0" y="0" version="1.1" viewBox="0 0 64 64" xml:space="preserve" style="enable-background:new 0 0 64 64"><style type="text/css">.st4{fill:#4d831c}.st5{fill:#2a481d}.st26{fill:#fff}.st112{fill:#f22f2e}.st113{fill:#7b000e}</style><g><g><path d="M46.3,21l-11.2-6.1c0,0,7.1-7,10.1-12.6c2.4-0.7,5.5,0.9,6.2,3.4C48.4,11.2,46.3,21,46.3,21z" class="st4"/><path d="M45.2,18.6c0.8-3.1,2.3-8.9,4.4-13c-0.3-0.5-0.8-1-1.5-1.4c-0.6-0.3-1.3-0.5-1.9-0.5c-2.3,4-6.2,8.3-8.4,10.6 l-3-1.6c2-2.1,6.6-7.1,8.9-11.3c0.2-0.4,0.5-0.7,1-0.8c1.5-0.5,3.3-0.2,4.9,0.6c1.6,0.9,2.8,2.3,3.3,3.9c0.1,0.4,0.1,0.9-0.1,1.2 c-2.3,4.2-4,11-4.7,13.7L45.2,18.6z" class="st5"/></g><path d="M17.7,58.9c5.1,2.8,11,3.6,16.7,2.4c8.6-1.8,18.3-5.7,24.7-17.3c4-7.3-4.1-19.3-18-26.8S12.7,9.4,8.8,16.7 C1.3,30.5,3.9,40.6,7.5,48.2C9.6,52.7,13.2,56.5,17.7,58.9L17.7,58.9z" class="st112"/><path d="M22.9,62.7c-2.1-0.5-4.1-1.3-6-2.3l0,0C12.1,57.7,8.3,53.8,6,48.9c-3.3-7-6.8-18,1.4-32.9 c2.2-4.1,7.1-6.2,13.9-6.1c6.4,0.1,13.7,2.2,20.6,6c6.9,3.8,12.7,8.8,16.2,14c3.7,5.6,4.6,10.9,2.4,15c-7,12.8-18,16.4-25.7,18.1 C30.8,63.8,26.7,63.7,22.9,62.7z M18.5,57.5c4.7,2.6,10.3,3.4,15.6,2.2c7.7-1.6,17.3-5,23.6-16.5c1.6-3,0.8-7.1-2.2-11.6 c-3.2-4.9-8.6-9.5-15.1-13C33.8,15.1,27,13.1,21.2,13c-5.5-0.1-9.4,1.5-11,4.4C2.8,31,5.6,40.6,8.9,47.5 C10.9,51.8,14.3,55.2,18.5,57.5L18.5,57.5z" class="st113"/><g><path d="M38.3,42.4c-0.1,0-0.1,0-0.2-0.1c-0.2-0.2-0.3-0.5-0.2-0.7c1.4-2.1,2.7-4.4,4-6.8c1.4-2.5,2.2-5.2,2.5-7.8 c0-0.3,0.3-0.5,0.6-0.5c0.3,0,0.5,0.3,0.5,0.6c-0.3,2.7-1.2,5.6-2.6,8.2c-1.3,2.4-2.7,4.7-4.1,6.9C38.7,42.3,38.5,42.4,38.3,42.4z" class="st113"/></g><g><path d="M13.8,45.6c-0.1,0-0.3-0.1-0.4-0.3c-0.8-1.6-1.4-3.3-1.8-5c-0.1-0.3,0.1-0.6,0.4-0.7 c0.3-0.1,0.6,0.1,0.7,0.4c0.4,1.6,1,3.2,1.7,4.8c0.1,0.3,0,0.6-0.3,0.7C14,45.6,13.9,45.6,13.8,45.6z" class="st26"/></g><g><path d="M11.6,30.8c-0.3-0.1-0.4-0.3-0.4-0.6c0.6-3.4,1.9-6.8,4-10.1c0.2-0.3,0.5-0.3,0.7-0.2 c0.3,0.2,0.3,0.5,0.2,0.7c-2,3.1-3.3,6.4-3.8,9.7C12.2,30.7,12,30.9,11.6,30.8C11.7,30.9,11.6,30.9,11.6,30.8z" class="st26"/></g><g><path d="M48.8,39.1c0,0-0.1,0-0.1,0c-0.3-0.1-0.4-0.5-0.2-0.7c0.9-1.6,1.4-3.3,1.5-5.1c0-0.3,0.3-0.5,0.6-0.5 c0.3,0,0.5,0.3,0.5,0.6c-0.2,2-0.7,3.8-1.6,5.6C49.3,39,49,39.1,48.8,39.1z" class="st113"/></g><g><path d="M45.9,36.1C45.8,36.1,45.8,36.1,45.9,36.1c-0.4-0.2-0.5-0.5-0.4-0.7c0.6-1.3,1-2.8,1.3-4.2 c0-0.3,0.3-0.5,0.6-0.4c0.3,0.1,0.5,0.3,0.4,0.6c-0.2,1.5-0.7,3-1.4,4.5C46.4,36.1,46.1,36.2,45.9,36.1z" class="st26"/></g><g><ellipse cx="44.5" cy="38.6" class="st26" rx=".7" ry=".7" transform="matrix(0.4784 -0.8782 0.8782 0.4784 -10.6914 59.2564)"/></g><g><ellipse cx="11.4" cy="33.2" class="st26" rx=".7" ry=".7" transform="matrix(0.4784 -0.8782 0.8782 0.4784 -23.1927 27.3708)"/></g></g></svg>