<svg xmlns="http://www.w3.org/2000/svg" xmlns:xlink="http://www.w3.org/1999/xlink" id="Layer_1" x="0" y="0" version="1.1" viewBox="0 0 64 64" xml:space="preserve" style="enable-background:new 0 0 64 64"><style type="text/css">.st0{display:none;fill:#d1a982}.st1{fill:#81af5b}.st19{fill:#fff}.st65{fill:#0a4d2c}.st66{fill:#ffe706}.st104{fill:#a57600}</style><rect width="2535.7" height="2318.4" x="-3.1" y="-165" class="st0"/><path d="M12,61.5c-2.7,0-5.1-1-7-2.9c-2.5-2.5-3.4-5.8-2.7-9.5c0.9-4.4,4-9.4,9.1-14.5c4.4-4.4,9.9-8.7,15.4-12.3	C40.1,14,48,6.5,48.4,6.2c1.3-1.3,2.6-1.9,4-1.9c2.3,0,4.4,1.7,5.5,2.8c2.9,2.9,3.2,4.8,1.4,8.1c-0.1,0.1-11.2,18.4-30.2,37	C22.9,58.3,17,61.5,12,61.5z" class="st66"/><path d="M52.3,5.8L52.3,5.8c1.9,0,3.7,1.6,4.4,2.3c2.5,2.5,2.5,3.7,1.2,6.3C57.2,15.7,46.3,33.3,28,51.2	C20.5,58.5,15.2,60,12,60c-2.3,0-4.3-0.8-5.9-2.4c-2.1-2.1-2.9-4.9-2.3-8.2c0.8-4.1,3.8-8.8,8.7-13.7c4.3-4.3,9.7-8.6,15.2-12.1	C41,15.2,49.1,7.6,49.4,7.2l0,0l0,0C50.4,6.2,51.4,5.8,52.3,5.8 M52.3,2.8c-1.6,0-3.3,0.6-5,2.3c0,0-8,7.6-21.3,16	c-5.3,3.4-11,7.8-15.7,12.5C-0.9,44.9-1.4,54.3,4,59.7c2.1,2.1,4.8,3.3,8,3.3c5,0,11.1-2.9,18.1-9.7c19.4-19,30.4-37.4,30.4-37.4	c2.1-4,1.6-6.6-1.7-9.9C57.4,4.5,55,2.8,52.3,2.8L52.3,2.8z" class="st104"/><path d="M19,33c-0.1,0-0.3-0.1-0.4-0.2c-0.2-0.2-0.2-0.5,0.1-0.7c3.1-2.6,6.5-5.1,9.8-7.2c0.2-0.1,0.5-0.1,0.7,0.2	c0.1,0.2,0.1,0.5-0.2,0.7c-3.3,2.1-6.7,4.6-9.7,7.2C19.2,33,19.1,33,19,33z" class="st19"/><path d="M40.7,17.5c-0.2,0-0.3-0.1-0.4-0.2c-0.2-0.2-0.1-0.5,0.1-0.7c2.4-1.8,4.7-3.6,6.8-5.4c0.2-0.2,0.5-0.2,0.7,0.1	c0.2,0.2,0.2,0.5-0.1,0.7c-2.1,1.8-4.4,3.6-6.8,5.5C40.9,17.5,40.8,17.5,40.7,17.5z" class="st19"/><path d="M18.2,51.8c-0.1,0-0.3,0-0.4-0.1c-0.2-0.2-0.2-0.5,0-0.7c2.4-2.4,4.9-4.9,7.4-7.4c0.2-0.2,0.5-0.2,0.7,0	s0.2,0.5,0,0.7c-2.5,2.5-4.9,5-7.4,7.4C18.5,51.8,18.3,51.8,18.2,51.8z" class="st104"/><path d="M38.8,30.5c-0.1,0-0.2,0-0.3-0.1c-0.2-0.2-0.2-0.5,0-0.7c2.8-3,5.4-5.9,7.9-8.6c0.2-0.2,0.5-0.2,0.7,0	c0.2,0.2,0.2,0.5,0,0.7c-2.5,2.8-5.1,5.7-7.9,8.6C39.1,30.4,39,30.5,38.8,30.5z" class="st104"/><path d="M18,41.9c-0.1,0-0.3-0.1-0.4-0.2c-0.2-0.2-0.2-0.5,0-0.7c3.2-3,6.5-6.1,9.7-8.8c3.1-2.7,6.2-5.5,9.3-8.3	c0.2-0.2,0.5-0.2,0.7,0c0.2,0.2,0.2,0.5,0,0.7c-3.1,2.8-6.2,5.6-9.3,8.3c-3.2,2.8-6.5,5.8-9.6,8.8C18.3,41.9,18.1,41.9,18,41.9z" class="st104"/><path d="M29.1,34.5c-0.1,0-0.3-0.1-0.4-0.2c-0.2-0.2-0.2-0.5,0-0.7c1.6-1.4,3.1-2.8,4.6-4.1c0.2-0.2,0.5-0.2,0.7,0	c0.2,0.2,0.2,0.5,0,0.7c-1.5,1.3-3,2.7-4.6,4.1C29.3,34.5,29.2,34.5,29.1,34.5z" class="st19"/><ellipse cx="32" cy="23.1" class="st19" rx=".5" ry=".5" transform="matrix(0.7071 -0.7071 0.7071 0.7071 -6.9745 29.4103)"/><path d="M59.4,9.3C56,8.3,54.5,5.8,54,4.7l3.6-2l3.3,2.8L59.4,9.3z" class="st1"/><path d="M59.6,10.9c-0.2,0-0.4,0-0.7-0.1l0,0c-4-1.2-5.8-4.2-6.3-5.4c-0.5-0.9-0.2-2.1,0.7-2.7l1.6-1.2	c1.1-0.8,2.6-0.8,3.7,0.1l3.3,2.8c1,0.9,1.3,2.4,0.7,3.6l-0.9,1.7C61.2,10.4,60.4,10.9,59.6,10.9z M59.9,7.9L59.9,7.9L59.9,7.9z M55.6,4.6c0.6,0.9,1.7,2.3,3.6,3.1l0.6-1.1l-3.3-2.7L55.6,4.6z M55.1,5L55.1,5C55.1,5,55.1,5,55.1,5z" class="st65"/></svg>