<svg xmlns="http://www.w3.org/2000/svg" xmlns:xlink="http://www.w3.org/1999/xlink" id="Layer_1" x="0" y="0" version="1.1" viewBox="0 0 500 500" xml:space="preserve" style="enable-background:new 0 0 500 500"><style type="text/css">.st2{display:none;fill:#d1a982}.st17{fill:#fff}.st46{fill:#97bf4b}.st53{fill:#416f0f}.st54{fill:#e4f2c4}.st55{fill:#d5e7af}.st56{fill:#c5dd97}.st57{fill:#b7d27f}.st58{fill:#a7c869}</style><rect width="6576.8" height="1230.5" x="-2441.9" y="-365.3" class="st2"/><path d="M471.1,253.3c0-108.9-98.8-205.1-220.6-205.1S29.9,144.4,29.9,253.3c0,79.9,53.2,140.7,129.7,171.7	c11.9,4.8,22.2,12.9,29.2,23.7v0c0,0,57.9,29.2,123.4,0v0c7-10.7,17.3-18.9,29.2-23.7C417.8,394,471.1,333.2,471.1,253.3z" class="st54"/><path d="M250.9,465.6c-9.6,0-18.3-0.9-25.6-2c-23-3.7-37.7-11-38.3-11.3l-1-0.5l-0.6-0.9c-6.5-9.9-15.9-17.6-27.3-22.2	c-39.5-16-72.4-39.7-95.2-68.7c-24.6-31.2-37-67.1-37-106.7c0-53.5,24-106.8,65.9-146.3c42.9-40.5,99.3-62.8,158.7-62.8	S366.3,66.5,409.2,107C451,146.5,475,199.8,475,253.3c0,39.5-12.5,75.4-37,106.7c-22.8,29-55.7,52.7-95.2,68.7	c-11.4,4.6-20.9,12.3-27.3,22.2l-0.6,1l-1.1,0.5C291,462.4,269.2,465.6,250.9,465.6z M191.4,445.5c7.5,3.4,59.9,25.3,118.1,0	c7.3-10.8,17.8-19.1,30.4-24.2c38.2-15.4,70-38.4,91.9-66.2c23.4-29.8,35.3-64,35.3-101.7c0-51.3-23.1-102.5-63.4-140.5	c-41.4-39.1-95.9-60.6-153.3-60.6c-57.4,0-111.8,21.5-153.3,60.6c-40.3,38-63.4,89.2-63.4,140.5c0,37.7,11.9,71.9,35.3,101.7	c21.9,27.9,53.7,50.8,91.9,66.2C173.6,426.4,184.1,434.8,191.4,445.5z" class="st53"/><path d="M460.4,312.4c6.9-18.2,10.6-38,10.6-59.1c0-108.9-98.8-205.1-220.6-205.1S29.9,144.4,29.9,253.3	c0,21.1,3.7,40.9,10.6,59.1H460.4z" class="st46"/><rect width="344.6" height="23.9" x="76.1" y="371.9" class="st55"/><rect width="389.3" height="23.9" x="54.2" y="349" class="st56"/><rect width="420.1" height="23.9" x="40.3" y="326.1" class="st57"/><path d="M108.8,303.3c-4,3.4-8.6,6.2-13.7,8.4c-18.7,7.8-39.4,3.9-53.9-8.4h-5.9v23.9h434.2v-23.9H108.8z" class="st58"/><path d="M193.1,148.6c-0.6,0-1.1-0.1-1.7-0.4c-2-0.9-2.9-3.3-1.9-5.3c5.5-11.8,6.9-24.7,4.1-37.3	c-0.5-2.1,0.9-4.3,3-4.7c2.1-0.5,4.3,0.9,4.7,3c3.2,14.3,1.6,29-4.7,42.4C196.1,147.7,194.6,148.6,193.1,148.6z" class="st17"/><path d="M209.9,80.7c-1.8,0-3.5-1.2-3.9-3.1c-0.5-2.1,0.9-4.3,3-4.8c7.4-1.7,15.1-2.8,22.9-3.4	c1.9-0.1,3.8-0.3,5.7-0.3c2.2-0.1,4,1.6,4.1,3.8c0.1,2.2-1.6,4-3.8,4.1c-1.8,0.1-3.6,0.2-5.4,0.3c-7.4,0.6-14.7,1.7-21.8,3.3	C210.5,80.7,210.2,80.7,209.9,80.7z" class="st17"/><path d="M70.5,206.1c-0.4,0-0.9-0.1-1.3-0.2c-2.1-0.7-3.2-3-2.4-5.1c8.2-23.4,22.1-45.6,40.2-64.3	c1.5-1.6,4-1.6,5.6-0.1c1.6,1.5,1.6,4,0.1,5.6c-17.3,17.9-30.6,39.1-38.4,61.4C73.6,205,72.1,206.1,70.5,206.1z" class="st17"/><path d="M475.4,165.4c-12.4-27.1-30.1-51.6-52.6-72.8c-22.5-21.3-48.6-38-77.5-49.7c-30.2-12.3-62.1-18.5-94.9-18.5	s-64.6,6.2-94.9,18.5c-28.9,11.7-55,28.5-77.5,49.7c-22.5,21.2-40.1,45.7-52.6,72.8C12.6,193.6,6,223.2,6,253.3	c0,22.2,3.7,43.8,10.9,64.2c6.9,19.5,17.2,38,30.4,54.8c24.9,31.7,60.7,57.6,103.3,74.8c7.6,3.1,13.9,8.2,18.2,14.6	c2.3,3.5,5.5,6.4,9.2,8.3c1.3,0.6,31.3,15.5,73.1,15.5c24.6,0,48.4-5.1,70.8-15c4.2-1.9,7.8-4.9,10.3-8.7	c4.2-6.5,10.5-11.5,18.2-14.6c42.7-17.3,78.4-43.1,103.3-74.8c13.2-16.8,23.5-35.3,30.4-54.8c7.2-20.3,10.9-41.9,10.9-64.2	C494.9,223.2,488.4,193.6,475.4,165.4z M166.9,101.6c5.1,10,5.6,21.3,1,31.3c-4.1,8.8-5.8,18.5-5,28.2c1.6,19.3,12.8,36.2,29.9,45.3	c2.5,1.3,4.8,2.9,6.9,4.7c2.8,2.4,3.7,6.3,2.2,9.6c-1.7,3.7-3.1,7.7-3.9,11.9c-1.7,8.2-5.5,15.8-11.1,22.2	c-8.9,10.1-21.7,16-35.1,16.4c-14.4,0.4-28.3,8-38,21.1c-5.2,7-12.2,12.4-20.2,15.8c-12,5-25.1,5-37.1,0c-0.1,0-0.1-0.1-0.2-0.1	c-10.4-4.4-17.9-13.9-19.9-25c-1.7-9.6-2.6-19.4-2.6-29.6c0-51.3,23.1-102.5,63.4-140.5c14.3-13.5,30.2-24.9,47.1-34	c7.1-3.8,15.8,0.4,17.4,8.2C162.7,91.5,164.3,96.5,166.9,101.6z M431.8,355c-21.9,27.9-53.7,50.8-91.9,66.2	c-10.2,4.1-19.1,10.5-26,18.5c-3.7,4.3-8.5,7.6-13.9,9.5c-42.5,15.1-80.8,6.2-98.7,0.1c-5.5-1.9-10.5-5.2-14.3-9.6	c-6.9-8-15.7-14.3-26-18.5c-38.2-15.4-70-38.4-91.9-66.2c-8.6-10.9-15.6-22.3-21-34.4c-1.5-3.3,1.9-6.8,5.2-5.4l0.1,0	c7,2.9,14.2,4.3,21.5,4.3c7.3,0,14.7-1.4,21.6-4.3c9.4-3.9,17.5-10.3,23.6-18.4c8.2-11.1,19.8-17.6,31.8-17.9	c15.6-0.4,30.5-7.3,40.9-19.1c6.5-7.3,10.9-16.3,12.9-25.8c0.1-0.7,0.3-1.3,0.4-1.9c0.8-3.1,5.2-2.8,5.7,0.3l0,0.1	c2.1,12.9,8.7,24.8,18.6,33.4c11.9,10.4,27.8,15.3,43.5,13.5c10.7-1.2,21.7,3.3,29.4,12.2c6.9,8,16,13.8,26.1,16.9	c5.3,1.6,10.8,2.4,16.3,2.4c10.4,0,20.7-2.9,29.7-8.5c9.5-5.9,22.1-6.4,33.9-1.4c9.8,4.2,20.5,5.4,31,3.7c2.9-0.5,5.7-1.2,8.4-2	c5-1.6,9.7,3.3,7.9,8.2C450.9,326.6,442.6,341.3,431.8,355z M466.6,266.8c-1.2,15-12.2,27.6-27.1,30.2c-0.1,0-0.2,0-0.3,0	c-9,1.5-18.3,0.4-26.6-3.2c-14.2-6-29.6-5.3-41.2,1.9c-11.8,7.3-26.2,9.2-39.5,5.2c-8.7-2.6-16.5-7.7-22.4-14.5	c-8.4-9.7-20.1-15.1-31.9-15.1c-1.5,0-2.9,0.1-4.4,0.3c-13.5,1.6-27.1-2.7-37.4-11.6c-8.5-7.4-14.2-17.6-16-28.7	c-2.2-13.7-10.7-25.4-23.3-32c-14.7-7.8-24.3-22.3-25.7-38.9c-0.7-8.3,0.8-16.7,4.3-24.2c5.7-12.3,5.3-26.3-1.2-38.4	c-3.9-7.4-5.9-15.7-5.7-24c0,0,0-0.1,0-0.1c0.1-3.8,2.7-7.1,6.2-8.3c24.1-8.6,49.7-13.2,76-13.2c57.4,0,111.8,21.5,153.3,60.6	c40.3,38,63.4,89.2,63.4,140.5C467.1,257.9,466.9,262.4,466.6,266.8z" class="st53"/><circle cx="63.7" cy="226.2" r="4" class="st17"/><circle cx="191.6" cy="88.6" r="4" class="st17"/></svg>