<?xml version="1.0" encoding="UTF-8" standalone="no"?>
<svg width="24px" height="24px" viewBox="0 0 24 24" version="1.1" xmlns="http://www.w3.org/2000/svg" xmlns:xlink="http://www.w3.org/1999/xlink" xmlns:sketch="http://www.bohemiancoding.com/sketch/ns">
    <!-- Generator: Sketch 3.4.4 (17249) - http://www.bohemiancoding.com/sketch -->
    <title>Pumpkin 24x24</title>
    <desc>Created with Sketch.</desc>
    <defs></defs>
    <g id="Page-1" stroke="none" stroke-width="1" fill="none" fill-rule="evenodd" sketch:type="MSPage">
        <g id="Pumpkin-24x24" sketch:type="MSArtboardGroup">
            <g id="Pumpkin" sketch:type="MSLayerGroup">
                <path d="M11.2843381,9.14221191 C11.2843381,9.14221191 8.20670136,4.85534668 11.5797482,0 L14.4145871,1.94116211 C14.4145871,1.94116211 12.3219358,4.59362793 14.2475949,9.09326172 C16.173254,13.5928955 11.2843381,9.14221191 11.2843381,9.14221191 Z" id="Stem" fill="#8C6E3D" sketch:type="MSShapeGroup"></path>
                <path d="M17.1875756,23.5242044 C15.1184162,23.5242044 15.9773702,20.0708149 15.9773702,15.7601775 C15.9773702,11.4495402 17.6547553,7.95507812 19.7239146,7.95507812 C21.7930739,7.95507812 23.470459,11.4495402 23.470459,15.7601775 C23.470459,20.0708149 19.2567349,23.5242044 17.1875756,23.5242044 Z" id="Pumpkin-Slice" stroke="#BB7D17" fill="#F4A11A" sketch:type="MSShapeGroup"></path>
                <path d="M6.74382091,23.5242044 C8.81298024,23.5242044 7.95402629,20.0708149 7.95402629,15.7601775 C7.95402629,11.4495402 6.27664123,7.95507812 4.2074819,7.95507812 C2.13832256,7.95507812 0.4609375,11.4495402 0.4609375,15.7601775 C0.4609375,20.0708149 4.67466157,23.5242044 6.74382091,23.5242044 Z" id="Pumpkin-Slice" stroke="#BB7D17" fill="#F4A11A" sketch:type="MSShapeGroup"></path>
                <ellipse id="Pumpkin-Slice" stroke="#BB7D17" fill="#F3A11A" sketch:type="MSShapeGroup" cx="8.61014303" cy="15.1106567" rx="4.31428528" ry="8.45977783"></ellipse>
                <ellipse id="Pumpkin-Slice" stroke="#BB7D17" fill="#F3A11A" sketch:type="MSShapeGroup" cx="15.3212535" cy="15.1106567" rx="4.31428528" ry="8.45977783"></ellipse>
                <ellipse id="Pumpkin-Slice" stroke="#BB7D17" fill="#F4A11A" sketch:type="MSShapeGroup" cx="11.9656982" cy="14.7852173" rx="3.83492025" ry="8.78521729"></ellipse>
            </g>
        </g>
    </g>
</svg>