<svg xmlns="http://www.w3.org/2000/svg" width="32" height="32" viewBox="0 0 32 32"><title>Pumpkin</title><g fill="none" fill-rule="evenodd"><path fill="#8C6E3D" d="M15.046 12.19S10.942 6.474 15.44 0l3.78 2.588s-2.79 3.537-.223 9.536c2.567 6-3.95.066-3.95.066z"/><path fill="#F4A11A" stroke="#BC7F19" d="M22.917 31.366c-2.76 0-1.614-4.605-1.614-10.352 0-5.748 2.237-10.407 4.996-10.407 2.757 0 4.994 4.66 4.994 10.407s-5.618 10.352-8.377 10.352zM8.992 31.366c2.76 0 1.613-4.605 1.613-10.352 0-5.748-2.236-10.407-4.995-10.407-2.76 0-4.995 4.66-4.995 10.407s5.618 10.352 8.377 10.352z"/><ellipse cx="11.48" cy="20.148" fill="#F3A11A" stroke="#BC7F19" rx="5.752" ry="11.28"/><ellipse cx="20.428" cy="20.148" fill="#F3A11A" stroke="#BC7F19" rx="5.752" ry="11.28"/><ellipse cx="15.954" cy="19.714" fill="#F4A11A" stroke="#BC7F19" rx="5.113" ry="11.714"/></g></svg>