<svg xmlns="http://www.w3.org/2000/svg" xmlns:xlink="http://www.w3.org/1999/xlink" x="0" y="0" version="1.1" viewBox="0 0 200 200" xml:space="preserve" style="enable-background:new 0 0 200 200"><style type="text/css">.st12{fill:#4d831c}.st13{fill:#2a481d}.st30{fill:#fff}.st173{fill:#ffd003}.st174{fill:#d17d01}</style><g id="Layer_1"><path d="M101.4,70.4C115,20.9,143.9,0.8,170.9,8.2l-1.3,4.6c-21.6-5.9-44.9,12.5-52.5,61.9" class="st12"/><path d="M107.2,67.5c4-13.1,9.2-24.3,15.4-33.1c0.6-0.9,2-0.1,1.5,0.9c-4.3,8.5-8.1,19.5-10.7,33.9l9.3,1.4 c4.5-24.5,13.5-42.2,25.5-50.1c6.3-4.1,13.3-5.3,20.3-3.4c2.5,0.7,5.1-0.8,5.8-3.3l1.3-4.6c0.3-1.2,0.2-2.5-0.5-3.6 c-0.6-1.1-1.6-1.9-2.8-2.2c-15.2-4.1-30.8-0.3-44,10.7c-12.6,10.5-22.7,27.3-29.4,48.8L107.2,67.5z" class="st13"/><path d="M72.7,189.4c3.7,0.2,7.3,1.3,10.6,2.9c1.4,0.7,3,1.2,4.9,1.4c9,0.8,18-1.5,25.9-5.8 c20.8-11.2,44.7-28.7,55.1-66.8c4.1-15,0.9-32.1-12.7-42.1c-9.4-6.9-25-8-35.4-8c-6.9,0-13.6-1.6-19.7-4.8 c-9.5-5-24.7-11.5-37.9-9.9c-15.5,1.9-25.3,15-28.8,28c-12.1,44.5,0.3,70.2,13.2,88.1c5.1,7.1,11.5,14,19.9,16.3 C69.3,189.1,71.1,189.3,72.7,189.4z" class="st173"/><path d="M49.2,108.7c-0.1,0-0.1,0-0.2,0c-0.9-0.1-1.5-0.9-1.4-1.7c0.5-4.2,1.2-8.5,2.1-13c0.2-0.8,1-1.4,1.8-1.2 c0.8,0.2,1.4,1,1.2,1.8c-0.9,4.4-1.6,8.6-2.1,12.7C50.7,108.1,50,108.7,49.2,108.7z" class="st30"/><path d="M54.5,84.8c-0.2,0-0.4,0-0.6-0.1c-0.8-0.3-1.1-1.3-0.8-2.1c3.3-7.5,8.2-12.3,13.7-13.5 c0.8-0.2,1.7,0.3,1.9,1.2c0.2,0.8-0.3,1.7-1.2,1.9c-6.1,1.4-9.8,7.9-11.5,11.7C55.7,84.5,55.1,84.8,54.5,84.8z" class="st30"/><path d="M159.2,75.2c-10-7.3-25.6-8.9-37.4-8.9c-0.3,0-0.6,0-0.9,0c-0.1,0-0.2,0-0.3,0c-6,0-12-1.5-17.2-4.3 c-10.8-5.7-26.6-12.1-40.6-10.4C50.7,53.1,35.8,62.1,30,83c-12.8,46.8,0.7,73.8,13.9,92.1c4.6,6.4,12,15.2,22.5,18.1 c1.7,0.5,3.7,0.8,5.9,0.9c2.9,0.2,5.9,1,8.9,2.4c2.1,1,4.3,1.6,6.5,1.8c1.3,0.1,2.6,0.2,3.9,0.2c8.3,0,16.7-2.2,24.7-6.5 c20.9-11.3,46.4-29.4,57.4-69.7C178.8,103.5,173.3,85.5,159.2,75.2z M51.6,169.6c-12-16.6-24.2-41.2-12.5-84.1 C43.6,69.1,54.9,62,64,60.9c1.2-0.1,2.4-0.2,3.6-0.2c6.1,0,12.6,1.7,18.4,3.8c2.3,0.8,3,3.8,1.2,5.6C81.7,75.4,76,84.7,72.9,96 c-0.2,0.8,0.3,1.7,1.1,1.9c0.8,0.2,1.7-0.3,1.9-1.1C79.4,83.9,88,71,94.7,68.6c6-2.1,10.4-0.7,13.1,0.8c1.7,1,3.6,1.8,5.5,2.5 c14,4.6,22.8,18.6,20.3,32.5c-0.5,3.1-1.3,6.2-2.1,9.4c-10.1,37.2-23.3,56.7-33.6,69.5c-5.6,6.9-10.4,6.8-14.7,5.6l-0.2-0.1 c-4.2-1.2-7.8-2.7-9.3-9.6c-0.2-0.8-0.8-1.4-1.6-1.3c-1,0-1.7,1-1.5,1.9c0.2,0.9,0.4,1.8,0.7,2.6c0.4,1.2-0.7,2.3-1.9,2 c-0.1,0-0.3-0.1-0.4-0.1C61.3,182.1,55.4,174.9,51.6,169.6z M164.7,119.8c-10.1,36.9-33.5,53.6-52.8,64c-3.3,1.8-6.7,3.1-10.1,4 c-1.5,0.4-2.5-1.3-1.6-2.5c0,0,0,0,0,0c10.5-13.1,23.9-32.9,34.2-70.7c0.9-3.2,1.6-6.5,2.2-9.6c1.5-8.2-0.6-16.5-5.2-23.2 c-1.7-2.4,0.3-5.7,3.2-5.3c8.2,1.1,14.8,3.2,19,6.3C166.6,92.3,167.9,108.1,164.7,119.8z" class="st174"/><path d="M69.1,160.7c-0.7,0-1.3-0.5-1.5-1.2c-0.7-2.5-0.9-5-0.8-7.5c0.1-3,0.8-6,2.1-8.7c1.9-4.1,2.1-8.8,0.6-13.1 c-1-2.9-1.4-5.9-1.2-8.9c0.1-3,0.8-6,2.1-8.7c0.4-0.8,1.3-1.1,2.1-0.8c0.8,0.4,1.1,1.3,0.8,2.1c-1.1,2.4-1.7,4.9-1.8,7.6 c-0.1,2.6,0.2,5.2,1.1,7.8c1.7,5.1,1.4,10.5-0.8,15.4c-1.1,2.4-1.7,4.9-1.8,7.6c-0.1,2.2,0.1,4.4,0.7,6.6c0.2,0.8-0.3,1.7-1.1,1.9 C69.3,160.7,69.2,160.7,69.1,160.7z" class="st174"/><path d="M92.4,150.2c-0.3,0-0.6-0.1-0.9-0.3c-0.7-0.5-0.9-1.5-0.4-2.2c2.6-3.7,3.8-8.2,3.2-12.7 c-0.4-3-0.2-6,0.5-8.9c0.7-2.9,2-5.7,3.7-8.1c0.5-0.7,1.5-0.9,2.2-0.4c0.7,0.5,0.9,1.5,0.4,2.2c-1.5,2.1-2.6,4.5-3.3,7.1 c-0.6,2.6-0.8,5.2-0.4,7.8c0.7,5.3-0.6,10.6-3.7,14.9C93.3,150,92.9,150.2,92.4,150.2z" class="st174"/><path d="M148.5,126.4C148.5,126.4,148.5,126.4,148.5,126.4c-0.9,0-1.6-0.7-1.6-1.6c0-3,0.6-6,1.7-8.8 c1.7-4.2,1.7-8.9,0-13.1c-1.1-2.8-1.6-5.8-1.6-8.9c0-0.9,0.7-1.6,1.6-1.6c0,0,0,0,0,0c0.9,0,1.6,0.7,1.6,1.6c0,2.6,0.5,5.2,1.4,7.7 c1.9,5,1.9,10.5-0.1,15.4c-1,2.4-1.5,5-1.5,7.6C150,125.7,149.3,126.4,148.5,126.4z" class="st174"/><path d="M86.5,101.2c-0.1,0-0.3,0-0.4-0.1c-0.8-0.2-1.3-1.1-1.1-1.9c1.5-5.5,4.1-11.3,7.2-15.8 c0.5-0.7,1.5-0.9,2.2-0.4c0.7,0.5,0.9,1.5,0.4,2.2c-2.9,4.3-5.3,9.7-6.8,14.9C87.8,100.8,87.1,101.2,86.5,101.2z" class="st30"/><ellipse cx="77.3" cy="69.5" class="st30" rx="1.5" ry="1.6" transform="matrix(0.2632 -0.9647 0.9647 0.2632 -10.1133 125.7694)"/><ellipse cx="98.9" cy="77.4" class="st30" rx="1.5" ry="1.6" transform="matrix(0.2632 -0.9647 0.9647 0.2632 -1.8047 152.3633)"/></g></svg>