<svg xmlns="http://www.w3.org/2000/svg" xmlns:xlink="http://www.w3.org/1999/xlink" id="Layer_1" x="0" y="0" version="1.1" viewBox="0 0 64 64" xml:space="preserve" style="enable-background:new 0 0 64 64"><style type="text/css">.st19{fill:#bc6f6b}.st228{fill:#d68c79}.st229{fill:#e5bab0}.st230{fill:#9e423b}</style><g><g><path d="M40.2,56.8c6-3.4,11-10.5,11-18.7c0-5.6-2.7-11-8.5-17.1c-3.2-3.3-5.5-7.5-6.4-12l-1.5-7h-1.9l-2.1,3.3 L28,7.9L27.7,9c-1,4.5-3.2,8.7-6.4,12c-5.8,6.1-8.5,11.5-8.5,17.1c0,8.2,5.1,15.2,11,18.7C23.8,56.8,32.5,61.2,40.2,56.8z" class="st19"/></g><g><g><path d="M32.5,58.9V63c0,0.3-0.2,0.5-0.5,0.5c-0.3,0-0.5-0.2-0.5-0.5v-4.1H32.5z" class="st228"/></g><g><path d="M29,58.5l-0.5,3.9c0,0.3-0.2,0.4-0.5,0.4c0,0,0,0-0.1,0c-0.3,0-0.5-0.3-0.4-0.6l0.5-3.9L29,58.5z" class="st228"/></g><g><path d="M25.5,57.7L24.7,61c-0.1,0.2-0.3,0.4-0.5,0.4c0,0-0.1,0-0.1,0c-0.3-0.1-0.4-0.3-0.4-0.6l0.8-3.3L25.5,57.7 z" class="st228"/></g><g><path d="M39.5,57.6l0.8,3.2c0.1,0.3-0.1,0.5-0.4,0.6c0,0-0.1,0-0.1,0c-0.2,0-0.4-0.1-0.5-0.4l-0.8-3.2L39.5,57.6z" class="st228"/></g><g><path d="M35.9,58.4l0.5,3.9c0,0.3-0.2,0.5-0.4,0.6c0,0,0,0-0.1,0c-0.2,0-0.5-0.2-0.5-0.4L35,58.5L35.9,58.4z" class="st228"/></g><g><path d="M34.3,58.7l0.3,4.1c0,0.3-0.2,0.5-0.5,0.5c0,0,0,0,0,0c-0.3,0-0.5-0.2-0.5-0.5l-0.3-4.1L34.3,58.7z" class="st228"/></g><g><path d="M30.8,58.8l-0.2,4.1c0,0.3-0.2,0.5-0.5,0.5c0,0,0,0,0,0c-0.3,0-0.5-0.2-0.5-0.5l0.2-4.1L30.8,58.8z" class="st228"/></g><g><path d="M27.2,58.4l-0.6,3.4c0,0.2-0.3,0.4-0.5,0.4c0,0-0.1,0-0.1,0c-0.3-0.1-0.4-0.3-0.4-0.6l0.6-3.4L27.2,58.4z" class="st228"/></g><g><path d="M37.8,58.2l0.6,3.4c0.1,0.3-0.1,0.5-0.4,0.6c0,0-0.1,0-0.1,0c-0.2,0-0.4-0.2-0.5-0.4l-0.6-3.4L37.8,58.2z" class="st228"/></g></g><g><path d="M32.3,59.3C23,55.1,17.6,47.3,17.6,38c0-6.8,3.7-11.5,7.2-16c0.8-1,1.7-2.1,2.5-3.2C31,13.7,30,5,30,4.9 l1-0.1c0,0.4,1,9.2-2.8,14.5c-0.8,1.1-1.7,2.2-2.5,3.2c-3.6,4.6-7,8.9-7,15.4c0,9,5.1,16.4,14.1,20.5L32.3,59.3z" class="st228"/></g><g><path d="M18.4,35.5C18.4,35.5,18.3,35.5,18.4,35.5c-0.4-0.1-0.5-0.3-0.5-0.6c0.9-5.2,4-9.2,6.6-12.5 c0.2-0.2,0.5-0.2,0.7-0.1c0.2,0.2,0.3,0.5,0.1,0.7c-3.1,4-5.6,7.4-6.4,12C18.8,35.4,18.6,35.5,18.4,35.5z" class="st229"/></g><g><path d="M34.2,59.2l-0.6-0.8c9.4-7.1,12.3-12.5,11.8-21.4c-0.3-5.1-3.6-9.9-6.5-14.2c-1.9-2.8-3.7-5.4-4.5-7.9 c-1.5-4.3-1.5-12.1-1.5-12.4l1,0c0,0.1,0,7.9,1.4,12.1c0.8,2.3,2.6,4.9,4.4,7.6c3,4.4,6.4,9.4,6.7,14.7 C46.9,46.2,43.8,51.8,34.2,59.2z" class="st228"/></g><path d="M32.8,58.5c3-4.7,4-13.3,4-19.2c0-9.3-2.6-18.9-3.7-22.8c0-1.5-0.1-2.5-0.2-2.6l-1,0.1c0,0,0,0.4,0.1,0.9 l-0.4,0.1c0,0,0.2,0.6,0.5,1.5c0,2.5-0.2,6.4-1.5,10.1c-0.4,1.2-1,2.3-1.7,3.4c-1.5,2.6-3.2,5.6-3.2,11c0,6.4,2.1,11.9,6.6,17.3 L32.8,58.5z M29.7,30.7c0.7-1.2,1.3-2.3,1.8-3.5c0.9-2.5,1.3-5.1,1.5-7.3c1.2,4.7,2.8,12.2,2.8,19.5c0,5.4-0.9,13.1-3.4,17.8 c-3.9-4.9-5.8-10-5.8-15.9C26.6,36.1,28.2,33.3,29.7,30.7z" class="st228"/><g><path d="M26.2,39.6C26.2,39.6,26.2,39.6,26.2,39.6c-0.3,0-0.5-0.3-0.5-0.5c0.4-4.1,1.8-6.6,3.1-8.8 c0.2-0.4,0.4-0.7,0.6-1.1c0.1-0.2,0.4-0.3,0.7-0.2c0.2,0.1,0.3,0.4,0.2,0.7c-0.2,0.4-0.4,0.8-0.6,1.1c-1.3,2.3-2.6,4.6-3,8.4 C26.7,39.4,26.5,39.6,26.2,39.6z" class="st229"/></g><path d="M40.9,58.1c5.9-3.3,11.8-10.8,11.8-20c0-6-2.8-11.8-8.9-18.1c-3.1-3.2-5.1-7.1-6.1-11.3l-1.5-7 c-0.1-0.7-0.8-1.2-1.4-1.2h-3.3C30.6,0.5,30,1.2,30,2v1.6l-1.7,0.3c-0.6,0.1-1.1,0.6-1.2,1.1l-0.8,3.7c-0.9,4.2-3,8.1-6.1,11.3 c-6.1,6.3-8.9,12.1-8.9,18.1c0,8,4.6,15.8,11.8,20C23.1,58.2,32.1,63,40.9,58.1z M34.1,56.9c-0.5,0.6-1,0.9-1.6,0.9 c-1,0-1.9-0.9-1.9-0.9c-5.7-5.4-8.6-11.1-8.6-16.6c0.1-5.4,3.4-10.7,6.2-14.8c2.7-3.8,3.8-7.8,4.2-10.5c0.8,3.3,2,6.9,4,10.5 c2.2,3.9,4.7,9,4.8,14.2C41.2,45.3,38.6,51.6,34.1,56.9z M27.4,24.9c-2.7,4.4-6.4,9.8-6.4,15.4c-0.1,5.5,2.8,11.3,8.2,16.7 c-2.8-0.5-4.7-1.4-4.7-1.4c-5.1-3-10.3-9.5-10.3-17.4c0-5.2,2.6-10.3,8.1-16c3.4-3.6,5.8-8,6.8-12.7l0.6-2.7l1.6-0.3 C31.3,6.4,33.2,15.3,27.4,24.9z M32.9,3.5h0.6l1.3,5.9c1,4.8,3.4,9.2,6.8,12.7c5.5,5.8,8.1,10.9,8.1,16c0,8-5.2,14.5-10.3,17.4 c-1.4,0.8-2.8,1.2-4.2,1.5c4.4-5.3,6.9-11.7,6.9-17.4c0-5.4-2.7-10.6-4.9-14.7C30.7,12.6,32.9,3.5,32.9,3.5z" class="st230"/><g><path d="M38.6,45C38.6,45,38.6,45,38.6,45c-0.4-0.1-0.5-0.3-0.5-0.6c1-5.4-0.3-10.8-0.3-10.9 c-0.1-0.3,0.1-0.5,0.4-0.6c0.3-0.1,0.5,0.1,0.6,0.4c0.1,0.2,1.4,5.7,0.3,11.3C39.1,44.8,38.9,45,38.6,45z" class="st228"/></g><g><path d="M31.6,50.6c-0.2,0-0.4-0.2-0.5-0.4c-1.7-10.1,0.6-18.8,0.6-18.9c0.1-0.3,0.3-0.4,0.6-0.4 c0.3,0.1,0.4,0.3,0.4,0.6c0,0.1-2.2,8.7-0.6,18.5C32.1,50.2,31.9,50.5,31.6,50.6C31.6,50.6,31.6,50.6,31.6,50.6z" class="st228"/></g><g><circle cx="18.2" cy="37.7" r=".5" class="st229"/></g><g><circle cx="30.9" cy="27.3" r=".5" class="st229"/></g></g></svg>