<svg xmlns="http://www.w3.org/2000/svg" xmlns:xlink="http://www.w3.org/1999/xlink" id="Layer_1" x="0" y="0" version="1.1" viewBox="0 0 500 500" xml:space="preserve" style="enable-background:new 0 0 500 500"><style type="text/css">.st9{fill:#7c9800}.st10{fill:#164e16}.st22{fill:#fff}.st45{fill:#ffd003}.st112{fill:#ce571b}</style><g><path d="M307.6,418.1c92.5-92.7,97.9-196.4,94.8-242.2c-1-14.6-9.6-27.6-22.6-34.4l-57-29.9 c-20.1-10.5-44.8-7.1-60.9,8.8c-19.9,19.6-46.7,49.6-68.6,87.5c-14.2,24.6-13.3,53.6-2.9,77.8c2.5,5.8-3.1,11.8-8.9,9.4 c-46.9-18.7-103-5.9-136.5,37.5c-24.1,31.3-25.7,86.3-11.3,130.2c2.3,6.9,7.8,12.2,14.8,14C86.1,486.8,214.4,511.7,307.6,418.1z" class="st45"/><path d="M315.9,426.4c-58,58.2-128.9,72.6-185,72.6c-38.3,0-69.7-6.7-85.4-10.9c-10.8-2.9-19.3-11-22.8-21.7 c-7.7-23.5-11-49.9-9.3-74.3c1.9-27,9.7-50,22.5-66.7c17.7-23,41.7-38.9,69.5-46.2c19.7-5.1,40.4-5.5,60.2-1.2 c4.6,1,8.8-3.1,7.7-7.7c-5.3-23.8-1.9-47.9,9.9-68.4c22.9-39.7,51-70.9,70.5-90c19.8-19.4,49.7-23.8,74.5-10.8l57,29.9 c16.5,8.7,27.6,25.5,28.8,43.9c1.6,24.5,0.9,63.1-12,107.6C386.6,336.2,357.6,384.6,315.9,426.4 M137.9,298.4c-9,0-18,1.1-26.7,3.4 c-22.7,5.9-42.4,19-56.9,37.9c-10,13-16.2,31.7-17.7,54.1c-1.5,21.4,1.4,44.7,8.2,65.4c1,3.2,3.5,5.6,6.7,6.4 c14.6,3.9,43.9,10.2,79.4,10.2c51.4,0,116-13.2,168.6-65.8l0,0c38.9-39,65.9-84,80.3-133.7c11.9-41.2,12.6-76.9,11.1-99.5 c-0.7-10.4-7-19.9-16.4-24.9l-57-29.9c-15.8-8.3-34.8-5.6-47.4,6.8c-18.5,18.1-45.1,47.6-66.7,85c-11.4,19.8-12.3,44.3-2.3,67.4 c3,7,1.6,15.1-3.8,20.6c-5.2,5.4-13.1,7.1-20.1,4.3C164.7,300.9,151.3,298.4,137.9,298.4z" class="st112"/><path d="M261.9,194.3c-0.8,0-1.6-0.3-2.4-0.8c-1.7-1.3-2-3.7-0.7-5.4c7.8-10.2,16.3-20.3,25.4-30 c1.5-1.6,3.9-1.7,5.5-0.2c1.6,1.5,1.7,3.9,0.2,5.5c-8.9,9.5-17.2,19.4-24.9,29.4C264.3,193.7,263.1,194.3,261.9,194.3z" class="st22"/><path d="M81.8,364.8c-0.7,0-1.5-0.2-2.1-0.6c-1.8-1.2-2.3-3.6-1.1-5.4c15-22.7,40-35.2,66.8-33.6 c2.1,0.1,3.8,2,3.6,4.1c-0.1,2.1-2,3.8-4.1,3.6c-24-1.5-46.3,9.8-59.8,30.1C84.3,364.2,83.1,364.8,81.8,364.8z" class="st22"/><path d="M88.7,410.3c-1.5,0-3-0.9-3.6-2.4c-0.8-2,0.1-4.2,2.1-5.1c12.4-5,22.8-13.5,30.2-24.6 c11.8-17.7,33.4-25.9,52.5-20.1c9.7,2.9,19.8,3.6,30,2c29.9-4.7,53.3-30.1,55.6-60.4c0.5-6.7,0-13.4-1.4-19.9 c-3.9-17.3,5.5-35.2,21.8-41.7c14.7-5.8,26.8-16.8,34.2-30.8c1-1.9,3.3-2.6,5.2-1.6c1.9,1,2.6,3.3,1.6,5.2 c-8.2,15.6-21.8,27.9-38.1,34.4c-12.9,5.1-20.2,19.2-17.1,32.8c1.6,7.2,2.2,14.7,1.6,22.2c-2.5,33.8-28.7,62.2-62.1,67.5 c-11.4,1.8-22.6,1-33.4-2.2c-15.9-4.8-33.9,2.2-43.8,17c-8.3,12.4-19.9,21.9-33.7,27.5C89.7,410.2,89.2,410.3,88.7,410.3z" class="st112"/><path d="M329.8,263.9c-0.8,0-1.6-0.2-2.2-0.7c-1.7-1.2-2.2-3.7-0.9-5.4C340,239,347,216,346.4,192.9 c-0.1-2.1,1.6-3.9,3.8-4c0,0,0.1,0,0.1,0c2.1,0,3.8,1.7,3.9,3.8c0.7,24.7-6.8,49.4-21.1,69.6C332.2,263.4,331,263.9,329.8,263.9z" class="st112"/><path d="M186.8,437.6c-1.9,0-3.5-1.3-3.8-3.2c-0.3-2.1,1.1-4.1,3.2-4.5c28.7-4.7,55.7-17.1,78-35.8 c22.6-18.9,39.2-43.3,48.2-70.5c0.7-2,2.9-3.1,4.9-2.5c2,0.7,3.1,2.9,2.5,4.9c-9.4,28.6-26.9,54.2-50.6,74 c-23.4,19.6-51.7,32.5-81.8,37.5C187.3,437.5,187.1,437.6,186.8,437.6z" class="st112"/><path d="M216.9,393.8c-1.7,0-3.3-1.2-3.8-2.9c-0.5-2.1,0.7-4.2,2.8-4.7c24.6-6.2,44.8-23.3,54.2-45.8 c0.8-2,3.1-2.9,5.1-2.1c2,0.8,2.9,3.1,2.1,5.1c-10.3,24.7-32.5,43.5-59.4,50.3C217.6,393.8,217.2,393.8,216.9,393.8z" class="st22"/><path d="M342.5,154.6c-0.6,0-1.2-0.2-1.8-0.4l-13.4-7.1c-1.7-0.9-2.5-3-1.8-4.8c0.3-0.9,8.7-22.8,29-48.9 c18.8-24.1,51.7-56.2,101.9-72.9c0.4-0.1,0.8-0.2,1.2-0.2c0.6,0,1.2,0.2,1.8,0.5l6.2,3.3c1.3,0.7,2.1,2.1,2.1,3.5 c0,1.5-0.9,2.8-2.3,3.4c-46.7,21.2-76.6,52.9-93.5,75.8c-18.3,24.9-25.7,45-25.8,45.2c-0.4,1.1-1.2,1.9-2.2,2.3 C343.4,154.6,343,154.6,342.5,154.6z" class="st9"/><path d="M474.3,6.7l-5.7-3c-3.4-1.8-7.1-2.7-10.9-2.7c-2.5,0-4.9,0.4-7.3,1.2c-24.2,8-46.9,20-67.2,35.6 c-16.2,12.4-30.9,27.1-43.9,43.7c-5.2,6.7-9.7,13.1-13.5,19.1c0.7,0.3,1.4,0.7,2.1,1l4.7,2.5c3.7,2,5,6.6,2.9,10.2 c-9.2,15.2-13.3,25.9-13.5,26.5c-1.4,3.7,0.2,7.8,3.6,9.6l13.4,7.1c1.1,0.6,2.4,0.9,3.6,0.9c0.9,0,1.9-0.2,2.8-0.5 c2.1-0.8,3.7-2.5,4.5-4.6c0-0.1,3.9-10.6,12.9-25.6c2-3.3,6.2-4.5,9.7-2.7l7.8,4.1c2.4-3.8,5.2-7.7,8.3-11.9 c22.5-30,51.1-53.1,85.1-68.5c9.1-4.1,14.7-13.7,13.5-24C486.1,17.1,481.1,10.4,474.3,6.7z M336.9,147.8l-3.1-1.7 c-2.7-1.4-3.8-4.7-2.5-7.4c8.6-18.9,44.2-86.7,125.2-114.1c0.8-0.3,1.6-0.2,2.3,0.2v0c2.1,1.1,2,4.1-0.1,5.1 c-73.8,35.5-105.5,96.3-113.8,115.1C343.5,148.1,339.9,149.4,336.9,147.8z" class="st10"/><path d="M231,282.1c-1.7,0-3.3-1.2-3.8-2.9c-4.7-18.5-1.4-38.5,9.1-54.8c1.2-1.8,3.6-2.3,5.4-1.2 c1.8,1.2,2.3,3.6,1.2,5.4c-9.3,14.5-12.3,32.3-8.1,48.7c0.5,2.1-0.7,4.2-2.8,4.7C231.6,282,231.3,282.1,231,282.1z" class="st112"/><ellipse cx="192.3" cy="393" class="st22" rx="4.6" ry="4.6" transform="matrix(0.4647 -0.8855 0.8855 0.4647 -245.0621 380.6375)"/></g></svg>