<svg xmlns="http://www.w3.org/2000/svg" xmlns:xlink="http://www.w3.org/1999/xlink" id="Layer_1" x="0" y="0" version="1.1" viewBox="0 0 250 250" xml:space="preserve" style="enable-background:new 0 0 250 250"><style type="text/css">.st46{fill:#fe8600}.st64{fill:#34500c}.st65{fill:#f46c29}.st66{fill:#f77426}.st67{fill:#f97d25}.st68{fill:#ef4b18}.st69{fill:#f3672a}.st70{fill:#9cad23}.st71{fill:#7d9959}.st72{fill:#7e9e5b}</style><g><path d="M201,248.9c-3.1,0.9-6.4,0.8-9.3-0.2c-1.4-0.5-34.6-11.7-65-31.8c-2.2-1.5-4.9-2-7.1-1.4 c-6.9,1.9-11.6-0.5-13.8-2.1c-1.4-1-4.4-3.8-5.4-8.5c-0.5-2.6-2-5-4-6.7l-47.6-38c-6.5-5.2-7.6-14.4-2.6-20.9 c4.8-6.2,13.7-7.9,20.4-3.7l54.7,34.3c1.2,0.7,2.6,1,3.9,0.6l0,0c3.3-0.8,4.9-4.5,3.3-7.4c-2.6-4.9-5.2-9.9-7.7-15.1 c-1.7-3.5-4.5-5.9-7.8-6.7c-6.2-1.5-10.8-5.2-12.9-10.3c-2.7-6.4-0.8-13.6,5.1-19.2c4-3.9,9.3-6.5,13-8c3.7-1.5,9.3-3.4,14.9-3.5 c4.6-0.1,8.7,1.1,11.9,3.3c1.5,1.1,3.7,0.6,4.5-1.1l0,0c0.4-0.7,0.8-1.4,1.2-2c0.8-1.1,1.3-2.5,1.2-3.9c-0.1-1.2,0-2.3,0.2-3.4 c0-0.7,0-1.5,0-2.2c-0.7-3.2-0.1-6.5,1.5-9.5c0.8-1.5,1.9-2.8,3.2-3.8c1.4-1.2,2.2-2.9,2.2-4.7c0-1.9,0.3-3.8,1.1-5.6 c0.9-2.1,2.3-4,4.1-5.4c0.7-0.5,1.2-1.2,1.6-2c1.8-3.4,5-6.1,9.1-7c4.6-1.1,9.3,0.3,12.5,3.3c0.7,0.6,1.5,1.1,2.4,1.4 c2.4,0.8,4.6,2.2,6.3,4.2c1.6,1.9,2.6,4.1,3,6.3c0.4,1.8,1.6,3.3,3.3,4.2c1.4,0.7,2.7,1.7,3.8,2.9c2.3,2.5,3.5,5.7,3.6,8.9 c0,0.7,0.2,1.4,0.5,2l0,0c0.7,1.5,1.9,2.6,3.3,3.3c1.1,0.5,2.2,1.2,3.1,2c2.8,2.4,4.5,5.8,4.8,9.5c0.1,0.7,0.1,1.4,0,2.1 c-0.1,0.9,0.1,1.8,0.4,2.7c0.8,2.2,1.1,4.6,0.7,6.9c-0.5,3-1.8,5.6-3.7,7.5c0,0.2,0.1,0.5,0.1,0.7c0.1,0.7,0.3,1.5,0.6,2.1 c1.5,2.9,1.9,6.3,1.1,9.7c-0.8,3.3-2.8,6-5.4,7.9c-0.6,0.4-1.1,1-1.5,1.6c-1.7,2.7-4.3,4.7-7.4,5.7c-1.3,0.4-2.8,0.7-4.2,0.7 c-1.5,0-3-0.2-4.4-0.7c-2.8-0.9-5.7,0.8-6,3.7c-1.6,13.6-2.6,26.5-0.9,40.6c0.9,7.8,4.1,15.2,9.1,21.2c5,6,8,9.2,8,9.3 c5.7,6,5.9,15.5,0,21.8C206.2,246.6,203.7,248.1,201,248.9z M152.3,126.9c-1.6-1.7-4.5-0.6-4.5,1.8c0,1.5,0.4,3.4,1.5,5.7 c3,6.3,6.3,12.5,9.7,18.7c1.3,2.3,4.7,1.6,5-1c0.5-4.3,1-8.4,1.5-12.6c0.2-1.8,0.4-3.6,0.7-5.5c0.2-1.7-1.2-3.1-2.9-3 c-0.4,0-0.8,0-1.2,0.1C157.6,131.2,154.3,129,152.3,126.9z" class="st64"/><g><path d="M134.2,105.7c0-0.1,0-0.3,0.1-0.4l8.5-94c0.3-3.6-3.5-6.1-6.8-4.4c-4,2.1-7.7,4.7-11,7.5 c-12.1,10.1-28.1,15-43.6,12.1c-9.4-1.7-19.4-0.8-28.9,3.3c-6.3,2.7-11.8,6.7-16.3,11.5c-4.7,5-4,13,1.3,17.4l68.5,57.1 C114.4,110.5,124.3,106.9,134.2,105.7z" class="st46"/></g><rect width="50.2" height="11.8" x="90.3" y="91.3" class="st65" transform="matrix(0.9236 -0.3834 0.3834 0.9236 -28.4457 51.6523)"/><rect width="57.4" height="11.8" x="82.1" y="80.3" class="st66" transform="matrix(0.9236 -0.3834 0.3834 0.9236 -24.5986 49.0774)"/><rect width="70.2" height="11.8" x="71.2" y="69.4" class="st67" transform="matrix(0.9236 -0.3834 0.3834 0.9236 -20.7503 46.4981)"/><ellipse cx="111" cy="76.3" class="st68" rx="2" ry="2" transform="matrix(0.9236 -0.3834 0.3834 0.9236 -20.7676 48.3933)"/><path d="M121.9,112.9c2.8-1.2,5.5-2,7.8-2.4l10-4.1l-4.5-10.9l-35,14.5l4.5,10.9l10-4.1 C116.6,115.4,119,114.1,121.9,112.9z" class="st69"/><path d="M144,2.3c-3.2-2.1-7.4-2.3-10.8-0.5c-4.3,2.3-8.3,5-12,8.2c-11.2,9.4-25.3,13.3-38.7,10.8 c-10.9-2-22.1-0.8-32.3,3.7c-6.9,3-13.1,7.3-18.3,12.9c-3.3,3.5-5,8.2-4.7,13.1c0.3,5,2.7,9.7,6.5,12.9l69.5,57.9 c0.7,0.6,1.4,1.1,2.2,1.6c1.5,1,3.5,0.4,4.4-1.1c1.5-2.7,4.8-5.3,9.6-7.6c-7.2-8.6-12.7-18.4-16.9-26.4c-0.5-1.1-1.9-1.4-2.9-0.7 c-0.8,0.6-1,1.7-0.5,2.6c3.9,7.4,8.8,16.3,15.2,24.5c-1.3-0.4-2.4-1.1-3.5-1.9L41.2,54.2c-1.3-1.1-2.2-2.8-2.3-4.5 c-0.1-1.6,0.4-3.2,1.5-4.3c4.1-4.4,8.9-7.8,14.3-10.1c5.6-2.4,11.5-3.6,17.5-3.6c2.7,0,5.3,0.2,8,0.7c1,0.2,2.1,0.4,3.1,0.5 c15.4,1.9,28.6,12,34.6,26.3c0,0.1,0.1,0.2,0.1,0.3c6.3,15.3,8.7,31.3,7,45.3c-0.2,1.6-2.4,1.7-2.8,0.1c-1.8-7.7-4.1-15.1-6.4-21.7 c-0.3-1-1.3-1.6-2.3-1.4c-1.2,0.3-1.8,1.5-1.4,2.6c3,8.8,6.1,18.9,7.9,29.3c0.6-0.3,1.2-0.5,1.8-0.8c5.9-2.4,10.9-3.3,14.3-2.5 c1.7,0.4,3.3-0.8,3.6-2.5c0.1-0.6,0.2-1.3,0.3-1.9l8.5-94C148.9,8.1,147.2,4.4,144,2.3z M130.7,77.9c-0.2,1.7-2.6,1.8-2.9,0.1 c-1.3-6.7-3.3-13.5-6.1-20.1c-2.7-6.5-6-12.6-9.7-18.2c-2.8-4.2-1.2-10,3.4-12.2c4.7-2.2,9.1-5.1,13.3-8.6c0.8-0.7,1.6-1.3,2.4-1.9 c2.1-1.6,5.2,0.1,4.9,2.7L130.7,77.9z" class="st68"/><path d="M140.5,143.5c26.4,53.4,58.6,87.1,59,87.5c1.3,1.3,1.5,3.3,0.5,4.8c-0.7,1.2-2,1.8-3.3,1.8 c-0.4,0-0.8-0.1-1.3-0.2c-1.5-0.5-31.1-10.6-59.5-28.7c-5.2-3.3-8.7-5.7-10.9-7.3c-1.9-1.4-4.5-1.5-6.5-0.3c-2.2,1.3-4,1.5-4.4,1.2 c0,0-0.1-0.1-0.1-0.3c-0.2-1.5,1.4-5.4,5.5-10.4c4.7-5.8,8.3-7.8,9.4-7.8c0.1,0,0.2,0,0.3,0.1v0c0.1,0.1,0.2,0.3,0.3,0.8 c0.1,1-0.1,2.5-0.8,4.3c-0.9,2.5,0,5.3,2.2,6.8c2,1.5,4.8,3.4,8.5,5.6c13.4,8.3,27,15.3,37.9,20.2c1.6,0.7,3.1-1.2,2-2.6 c-13.9-17.7-35.1-47.9-52.5-86.4c-1.2-2.7-3.9-4.5-6.8-4.4c-3.7,0.1-6.4-1-7-2.5c-0.8-2,2.9-5.9,10.6-9.1c4.2-1.7,7.7-2.5,10.2-2.5 c2.1,0,3.4,0.5,3.8,1.4v0c0.5,1.1-0.2,3.1-1.7,5.1c-0.2,0.2-0.4,0.5-0.6,0.7c-2,2.3-2.6,5.4-1.3,8.2 C135.3,132.7,137.5,137.5,140.5,143.5z" class="st70"/><path d="M196.6,235.7c-0.2,0-0.4,0-0.6-0.1c-0.1,0-11.7-4-27.1-11.1c-1-0.5-1.4-1.6-1-2.6c0.5-1,1.6-1.4,2.6-1 c15.2,7.1,26.6,10.9,26.7,11c1,0.3,1.6,1.5,1.2,2.5C198.2,235.1,197.5,235.7,196.6,235.7z" class="st64"/><path d="M167.5,198.7c-0.6,0-1.2-0.3-1.6-0.8c-5.8-8.3-11.3-17-16.5-25.8c-0.6-0.9-0.2-2.1,0.7-2.7 c0.9-0.6,2.1-0.2,2.7,0.7c5.1,8.7,10.6,17.3,16.4,25.5c0.6,0.9,0.4,2.1-0.5,2.7C168.3,198.6,167.9,198.7,167.5,198.7z" class="st64"/><path d="M209.3,108.7l-2.2-0.3c-0.7-0.1-1.1-1-0.6-1.6l2.8-3.3c0.6-0.7,0.7-1.9,0.1-2.6c-0.8-1-2.2-0.9-3,0l-2.9,3.4 c-0.5,0.6-1.4,0.4-1.7-0.3l-0.7-2.2c-0.3-1-1.3-1.7-2.3-1.4c-1.2,0.2-1.8,1.4-1.5,2.5l1.5,4.6c0.3,1,0.1,2.2-0.6,3l-11.4,13.3 c-1.3,1.5-3.7,0.5-3.5-1.5c0.6-7,1-14.1,0.9-21.7c0-1.5,0.6-3,1.7-4l3.7-3.3c0.8-0.7,1.9-1,3-0.7l4.8,1.3c0.2,0,0.3,0.1,0.5,0.1 c0.9,0,1.8-0.7,1.9-1.6c0.2-1-0.5-2-1.5-2.3l-2.2-0.6c-0.7-0.2-1-1.1-0.4-1.6l1.8-1.6c0.7-0.7,0.9-1.8,0.4-2.6 c-0.7-1-2.1-1.2-3-0.4l-1.9,1.7c-0.6,0.5-1.5,0.2-1.6-0.5l-0.4-2.2c-0.2-1-1.1-1.8-2.1-1.7c-1.2,0.1-2,1.2-1.8,2.3l0.9,4.6 c0.2,1.1-0.2,2.2-1,3l-1.4,1.3c-0.6,0.6-1.7,0.2-1.7-0.7c-0.3-3.8-0.7-7.6-1.3-11.6c-0.3-1.8,0.4-3.6,1.8-4.8l2.5-2.1 c0.8-0.6,1-1.7,0.5-2.6c-0.6-1.1-2.1-1.3-3-0.5l-1.8,1.5c-0.6,0.5-1.5,0.2-1.7-0.6c-0.3-1.4-0.6-2.8-0.9-4.2 c-0.2-1-1.2-1.8-2.2-1.6c-1.2,0.2-1.9,1.3-1.7,2.4c0.3,1.3,0.6,2.5,0.8,3.8c0.2,0.8-0.7,1.5-1.4,1.2l-1.9-0.8 c-0.9-0.4-2-0.1-2.5,0.7c-0.7,1.1-0.2,2.4,0.9,2.9l3.5,1.5c1.7,0.7,2.9,2.3,3.2,4.2c0.6,4.1,1,8,1.2,11.8c0.1,0.8-0.8,1.4-1.5,1 l-2.5-1.4c-1-0.5-1.6-1.5-1.6-2.6l-0.2-4.6c0-1-0.7-1.9-1.7-2c-1.2-0.2-2.3,0.8-2.2,2l0.1,2.3c0,0.8-0.8,1.3-1.4,0.9l-2.1-1.2 c-0.9-0.5-2-0.3-2.6,0.4c-0.8,1-0.5,2.4,0.6,3l2.2,1.2c0.7,0.4,0.7,1.3,0,1.7l-2.1,1.1c-0.9,0.5-1.4,1.6-1,2.6 c0.3,0.7,1.1,1.2,1.8,1.2c0.3,0,0.6-0.1,0.9-0.2l4.3-2.4c1-0.5,2.1-0.5,3.1,0l3.6,2c1.7,0.9,2.7,2.7,2.7,4.6 c0,4.1-0.1,8.2-0.3,12.1c0,0.7-0.8,1.2-1.5,0.9l-5-2.5c-1-0.5-1.7-1.5-1.7-2.6l-0.4-6.2c-0.1-1.3-1.4-2.2-2.7-1.7 c-0.8,0.3-1.3,1.2-1.3,2.1l0.2,3.5c0.1,1.1-0.7,1.6-1.4,1.3l-3.5-1.7c-0.9-0.4-2-0.2-2.6,0.6c-0.7,1-0.4,2.4,0.7,2.9l3.3,1.6 c0.7,0.3,0.7,1.3,0.1,1.7l-3.1,1.8c-0.9,0.5-1.3,1.7-0.9,2.6c0.3,0.7,1.1,1.1,1.8,1.1c0.3,0,0.7-0.1,1-0.3l5.5-3.2 c0.9-0.5,2.1-0.6,3-0.1l4.8,2.4c2,1,3.1,3,2.9,5.2c-0.6,6-1.3,11.9-2,17.7c-2.8,22.6-5.4,44,1.3,70.7c0.2,0.9,1,1.5,1.9,1.5 c0.4,0,0.8-0.1,1.2-0.4c0.6-0.5,0.9-1.3,0.7-2.1c-6.5-26-3.9-47-1.2-69.2c0.1-0.6,0.2-1.2,0.2-1.9c0.3-2.5,1.4-4.9,3-6.9l2.8-3.3 c1.3-1.5,3.4-2.2,5.4-1.7l4,1c1.1,0.3,1.9,1.1,2.2,2.1l1.5,4.7c0.3,0.8,1,1.4,1.9,1.4c0.4,0,0.8-0.1,1.1-0.4c0.7-0.5,1-1.5,0.7-2.3 l-0.7-2.2c-0.2-0.7,0.4-1.4,1.2-1.2l2.4,0.6c0.2,0,0.3,0.1,0.5,0.1c0.9,0,1.8-0.7,1.9-1.7c0.2-1-0.6-2-1.6-2.3l-2.3-0.6 c-0.7-0.2-1-1.1-0.4-1.6l1.6-1.6c0.7-0.7,0.9-1.8,0.3-2.6c-0.7-1-2.1-1.1-3-0.3l-3.4,3.3c-0.8,0.8-1.9,1.1-3,0.8l-3.8-1 c-0.7-0.2-1-1.1-0.5-1.7l7.9-9.3c0.7-0.8,1.8-1.2,2.9-1.1l4.7,0.7c0.1,0,0.2,0,0.3,0c1.1,0,2-0.9,2-2.1 C211,109.6,210.3,108.9,209.3,108.7z" class="st71"/><path d="M108.6,187c-1-0.7-1.1-2.1-0.2-3c0.7-0.7,1.8-0.7,2.6-0.1l4.9,3.5c0.7,0.5,1.6,0.4,2.2-0.3 c0.3-0.3,0.5-0.6,0.8-0.8c0.5-0.5,0.4-1.4-0.2-1.8l-59.3-37.3c-0.3-0.2-0.5-0.2-0.8-0.2c-0.5,0-0.9,0.2-1.2,0.6 c-0.4,0.6-0.3,1.3,0.2,1.8L112,193c0.5,0.4,1.3,0.3,1.7-0.3c0,0,0,0,0,0c0.5-0.7,0.3-1.7-0.4-2.3L108.6,187z" class="st72"/><circle cx="104.6" cy="181.7" r="2" class="st64"/><circle cx="147.5" cy="165.2" r="2" class="st64"/></g></svg>