<svg xmlns="http://www.w3.org/2000/svg" xmlns:xlink="http://www.w3.org/1999/xlink" id="Layer_1" x="0" y="0" version="1.1" viewBox="0 0 200 200" xml:space="preserve" style="enable-background:new 0 0 200 200"><style type="text/css">.st0{display:none}.st1{fill:#d1a982}.st1,.st2{display:inline}.st5{fill:#afd048}.st20{fill:#fff}.st30{fill:#6b9311}.st32{fill:#331e31}.st47{fill:#663965}</style><g class="st0"><rect width="919.6" height="2155.1" x="-461.4" y="-989.1" class="st1"/><path d="M457.7-988.6v2154.1h-918.6V-988.6H457.7 M458.7-989.6h-920.6v2156.1h920.6V-989.6L458.7-989.6z" class="st2"/></g><g><path d="M147.9,51.4c-41.1,38.4-102.6,49.9-102.6,49.9S-7.4,110,16.9,161c10.9,20.7,36.6,26.6,61.5,19.5 c75.4-27.6,99.4-82.4,101.4-113.9L147.9,51.4z" class="st47"/><path d="M9.7,119.6c9.7-18.8,33.8-22.9,34.9-23.1c0.5-0.1,57.9-11.2,97.4-46.3l9.4,4.5 c-41.5,39-102.4,50.8-105.2,51.3c-0.3,0.1-20.5,3.6-28,18.1c-4.7,9-3.7,20.7,3,34.7c9.1,17.1,31.4,24,55.7,17 c57.3-21,80.6-57.1,89.4-76.8c5.3-11.8,7.9-22.8,8.6-31.7l9.5,1.4c-0.8,10-3.7,21.8-9.3,34.3c-9.5,21.1-34.4,59.7-95.1,81.9 c0,0-8.3,3-21.5,3.2c-20.3,0-37.5-9-45.9-25C12.7,163.3-0.8,140,9.7,119.6z" class="st32"/><path d="M36.5,127.4c-0.5,0-0.9-0.2-1.2-0.6c-0.6-0.7-0.5-1.7,0.2-2.3c3.7-3.2,9.8-5.2,14.2-6 c1.9-0.4,19.2-3.9,41.9-13.6c0.8-0.3,1.8,0,2.1,0.8c0.4,0.8,0,1.8-0.8,2.1c-23,9.9-40.7,13.4-42.6,13.8c-3.8,0.7-9.5,2.6-12.7,5.3 C37.2,127.3,36.8,127.4,36.5,127.4z" class="st20"/><path d="M109.6,99.8c-0.6,0-1.1-0.3-1.4-0.9c-0.4-0.8-0.1-1.8,0.7-2.2c10.1-5.3,19.7-11.2,28.6-17.6 c0.7-0.5,1.7-0.4,2.2,0.4c0.5,0.7,0.4,1.7-0.4,2.2c-9,6.5-18.7,12.5-29,17.8C110.1,99.7,109.8,99.8,109.6,99.8z" class="st20"/><path d="M183.2,76c0,0-3-8.1-11.5-14.7l-15.4,11.4l0.7-19c-9.9-3-18.6-1.4-18.6-1.4l22.1-12.6L180,16.6l9.5,5l-9.3,27 L183.2,76z" class="st5"/><path d="M183.2,80.8c-2,0-3.8-1.3-4.5-3.1c0,0-2-5.2-7.2-10.2l-12.3,9.1c-1.5,1.1-3.5,1.2-5.1,0.4 c-1.6-0.9-2.6-2.6-2.6-4.4l0.6-15.1c-7-1.4-12.6-0.4-12.7-0.4c-2,0.4-4-0.6-5.1-2.4c-1-1.8-0.8-4,0.6-5.6 c6-6.9,13.7-11.6,21.8-13.5c3.8-0.9,7.2-3.2,9.5-6.7l9.9-15c1.4-2.1,4.1-2.8,6.3-1.6l9.5,5c2.2,1.2,3.2,3.8,2.2,6.1l-7,16.8 c-1.6,3.8-1.7,7.9-0.3,11.4c3.3,8.3,3.8,17.9,1.2,25.8C187.2,79.4,185.4,80.8,183.2,80.8C183.3,80.8,183.3,80.8,183.2,80.8z M151.9,47.6c2.1,0.3,4.3,0.8,6.5,1.5c2.1,0.6,3.5,2.6,3.4,4.8l-0.3,9l7.4-5.4c1.7-1.3,4.1-1.2,5.8,0.1c1.8,1.4,3.4,2.8,4.8,4.3 c-0.4-2.2-0.9-4.4-1.8-6.5c-2.4-5.9-2.2-12.5,0.3-18.7c0,0,0,0,0,0l5.3-12.8l-1.7-0.9l-7.5,11.4c-3.6,5.5-9.1,9.4-15.4,10.8 C156.4,45.6,154.2,46.4,151.9,47.6z" class="st30"/><ellipse cx="101" cy="102.9" class="st20" rx="1.6" ry="1.6" transform="matrix(0.9996 -2.778094e-02 2.778094e-02 0.9996 -2.8196 2.8449)"/></g></svg>