<svg xmlns="http://www.w3.org/2000/svg" xmlns:xlink="http://www.w3.org/1999/xlink" id="Layer_1" x="0" y="0" version="1.1" viewBox="0 0 1000 1000" xml:space="preserve" style="enable-background:new 0 0 1000 1000"><style type="text/css">.st0{display:none;fill:#d1a982}.st13{fill:#3d710c}.st21{fill:#77a45b}.st43{fill:#fff}.st44{fill:#efe8d7}.st45{fill:#8c7662}</style><rect width="5227.9" height="4725.2" x="-1498.5" y="-356" class="st0"/><g><path d="M411.1,689c-22.9-52.6-49.8-167-49.8-240.1c0-119.4,52.4-165.8,117.1-165.8s117.1,46.5,117.1,165.8 c0,73.1-26.1,188.6-49.8,240.1l-67.4,145.6L411.1,689z" class="st44"/><path d="M478.5,977.2c-11.2,0-20.7-8.1-22.5-19.1l-21.6-135.3c-4.4-25.2-20.1-69.4-44.1-124.7 c-24.4-56-51.7-174.4-51.7-249.1c0-61.5,13.2-109.2,39.3-141.9c24.4-30.6,59.2-46.7,100.6-46.7c41.4,0,76.2,16.1,100.6,46.7 c26.1,32.6,39.3,80.4,39.3,141.9c0,78.2-27.4,196.3-51.8,249.6c-18.5,40.3-39.3,94.3-43.9,124.1l-21.6,135.5 C499.1,969.1,489.6,977.2,478.5,977.2z M478.5,305.8c-27.5,0-49.4,10-65,29.6c-19.5,24.4-29.3,62.5-29.3,113.5 c0,68.2,25.7,180.2,47.9,231c25,57.4,40.6,101.4,46.5,130.9c6.8-36.6,29.1-93,46.7-131.3c22.1-48,47.7-159.2,47.7-230.6 c0-50.9-9.9-89.1-29.3-113.5C527.8,315.8,505.9,305.8,478.5,305.8z" class="st45"/><path d="M424.8,414.9c-0.4,0-0.8,0-1.2-0.1c-4.1-0.6-7-4.5-6.3-8.7c4.8-31,15.9-52,32.8-62.4 c3.6-2.2,8.2-1.1,10.4,2.5c2.2,3.6,1.1,8.2-2.5,10.4c-13,8-21.7,25.4-25.8,51.8C431.7,412.2,428.5,414.9,424.8,414.9z" class="st43"/><circle cx="423.2" cy="441.1" r="7.6" class="st43"/><path d="M463.4,305.1c-0.3-3-4.7-49,17.3-100.9c-12.6-29.2-22.7-52.5,2.8-88.1c29.7-41.4,88.8-75.7,116.9-55.6 s14.7,87.2-14.9,128.6c-23.5,32.8-48.5,33-76.2,31.2c-17.1,42.4-14.1,84.5-13.9,87C495.4,307.2,477.4,317.6,463.4,305.1z" class="st21"/><path d="M658.5,73.1c-4.8-21.1-15.8-38.3-31.6-49.6C613.7,14,597.5,9,580,9c-29.7,0-57.5,14-75.5,25.7 c-22.4,14.6-43,34-57.9,54.8c-17.9,25-25.8,49.8-24.1,75.8c0.9,14.5,4.8,27.6,9.4,39.5c-8.9,26.3-12.5,50.7-13.8,69.4 c12-6.2,25.1-10.3,39.2-12.4c-3.2,24-1.7,40.9-1.4,43.9c0.2,1.9,1.1,3.6,2.5,4.9c7,6.2,14.5,8.1,21.3,8.1c10.6,0,19.1-4.8,19.6-5.1 c2.6-1.5,4.1-4.4,3.8-7.3c0-0.3-1.6-18.8,2.5-43.7c13.1,2.4,25.2,6.7,36.4,12.7c0.4-3.2,0.9-6.7,1.6-10.3 c9.5-1.2,20.2-3.8,31.4-8.8c18.4-8.4,34-21.7,47.7-40.9c19-26.5,32.5-60.1,37.2-92.2C662.3,105,661.9,88.1,658.5,73.1z M470.6,301.1c-0.7-11.3-1.4-50.7,17-94c0.8-1.9,0.8-4.1,0-6c-12.6-29.2-20.9-48.6,2.1-80.7c14-19.5,35-37.7,56.3-48.5 c21.3-10.9,39.5-12.8,50-5.3c10.5,7.5,14.6,25.4,11.1,49.1c-3.4,23.6-13.8,49.4-27.8,68.9c-20.7,28.9-41,29.9-69.6,28 c-3.3-0.2-6.3,1.7-7.5,4.7c-14.4,35.9-15,71.5-14.7,84.9C483.4,303.7,476.6,304.9,470.6,301.1z" class="st13"/></g></svg>