<svg xmlns="http://www.w3.org/2000/svg" xmlns:xlink="http://www.w3.org/1999/xlink" id="Layer_1" x="0" y="0" version="1.1" viewBox="0 0 64 64" xml:space="preserve" style="enable-background:new 0 0 64 64"><style type="text/css">.st19{fill:#fcaa54}.st20{fill:#8d5733}.st24{fill:#fff}.st25{fill:#8cc63f}.st26{fill:#fdd6ad}</style><g><g><path d="M39.3,9.6l-2.6-7.1c-0.2-0.6-0.8-1-1.4-1c-0.7,0-1.2,0.4-1.4,0.9L31.2,9l-2.2-7.8C28.9,0.5,28.3,0,27.6,0 c-0.7,0-1.3,0.5-1.4,1.2l-2,8.9L39.3,9.6z" class="st25"/></g><path d="M38.3,15.5l1.4-6.9l-7.4,0l-8,0l1.4,6.9C10.8,18,2.6,24.8,2.6,34.9c0,8,6.6,14.7,18.2,18.4 c1.1,0.4,1.9,1.2,2.2,2.3c0.3,1.2,1.3,2.2,2.5,2.5c1.5,0.4,3.9,1,6.7,1c2,0,4.2-0.3,6.5-1c1.2-0.4,2.1-1.3,2.4-2.6 c0.3-1,1.1-1.9,2.2-2.2c11.5-3.7,18.1-10.4,18.1-18.3C61.4,24.9,53.2,18,38.3,15.5z" class="st19"/><g><path d="M36.8,8.3l-2.3,9.2c1.6,1.3,9.5,8.3,9.5,17.8c0,5.5-2.3,9.7-4.4,13.7c-1.8,3.4-3.6,6.6-3.6,10.2h-1 c0-3.9,1.8-7.2,3.7-10.7c2.1-3.9,4.3-8,4.3-13.3c0-9.8-9.3-17.1-9.4-17.2c-0.2-0.1-0.2-0.3-0.2-0.5L35.9,8L36.8,8.3z" class="st26"/></g><g><path d="M27.7,8.9l1.9,8.7c0.1,0.2-0.1,0.5-0.3,0.6c-0.1,0.1-13.7,6.4-13.7,17.1c0,5.4,3.4,8.4,7,11.6 c3.6,3.2,7.4,6.5,7.4,12.4h-1c0-5.4-3.4-8.5-7.1-11.7c-3.6-3.2-7.3-6.5-7.3-12.3c0-10.5,11.6-16.8,13.9-17.9l-1.8-8.3L27.7,8.9z" class="st26"/></g><path d="M41.3,13.5L42,9.8c0.1-0.2,0.1-0.5,0.1-0.7c0-1.6-1.3-3-3-3c0,0,0,0,0,0c0,0-0.1,0-0.1,0c-0.1,0-0.3,0-0.4,0 l-6.1,1c-0.4,0.1-0.8,0.2-1.1,0.4c-0.3-0.2-0.6-0.3-1-0.4l-4.9-1c-0.2,0-0.4-0.1-0.6-0.1c-0.8,0-1.6,0.3-2.1,0.9 c-0.7,0.7-1,1.7-0.8,2.7l0.8,3.8C8.1,16.5,0.1,24.1,0.1,34.9C0.1,44,7.4,51.6,20,55.6c0.3,0.1,0.5,0.3,0.5,0.5 c0.5,1.9,1.9,3.4,3.8,4.1l-0.5,2.1c-0.1,0.3,0.1,0.5,0.4,0.6c0,0,0.1,0,0.1,0c0.2,0,0.4-0.1,0.5-0.4l0.5-2c0.3,0.1,0.6,0.1,0.9,0.2 l-0.4,2c-0.1,0.3,0.1,0.5,0.4,0.6c0,0,0.1,0,0.1,0c0.2,0,0.4-0.2,0.5-0.4l0.4-2c0.3,0.1,0.5,0.1,0.8,0.1l-0.2,2 c0,0.3,0.2,0.5,0.4,0.6c0,0,0,0,0.1,0c0.2,0,0.5-0.2,0.5-0.4l0.2-2c0.3,0,0.6,0.1,0.9,0.1l-0.1,2c0,0.3,0.2,0.5,0.5,0.5 c0,0,0,0,0,0c0.3,0,0.5-0.2,0.5-0.5l0.1-2c0.2,0,0.5,0,0.7,0v2c0,0.3,0.2,0.5,0.5,0.5s0.5-0.2,0.5-0.5v-2c0.3,0,0.6,0,0.9,0l0.1,2 c0,0.3,0.2,0.5,0.5,0.5c0,0,0,0,0,0c0.3,0,0.5-0.3,0.5-0.5l-0.1-2c0.2,0,0.5-0.1,0.7-0.1l0.2,2c0,0.3,0.2,0.4,0.5,0.4 c0,0,0,0,0.1,0c0.3,0,0.5-0.3,0.4-0.6l-0.2-2c0.3,0,0.6-0.1,0.9-0.2l0.4,2c0,0.2,0.3,0.4,0.5,0.4c0,0,0.1,0,0.1,0 c0.3-0.1,0.4-0.3,0.4-0.6l-0.4-2c0.3-0.1,0.5-0.1,0.8-0.2l0.5,2c0.1,0.2,0.3,0.4,0.5,0.4c0,0,0.1,0,0.1,0c0.3-0.1,0.4-0.3,0.4-0.6 l-0.5-2.1c1.8-0.7,3.3-2.3,3.7-4.1l0-0.1c0.1-0.2,0.3-0.4,0.5-0.5C56.7,51.6,63.9,44,63.9,34.9C63.9,24.1,55.9,16.6,41.3,13.5z M43.2,52.8c-1.3,0.4-2.2,1.4-2.5,2.6l0,0.1c-0.3,1-1,1.8-2.1,2.2c-2.3,0.7-4.4,0.9-6.4,0.9c-2.8,0-5.1-0.5-6.6-0.9 c-1.1-0.3-1.9-1.2-2.2-2.2c-0.3-1.2-1.3-2.2-2.5-2.6C10.5,49.4,3.1,43.2,3.1,34.9c0-10.8,9.6-16.6,22.4-18.8 c0.4-0.1,0.7-0.5,0.6-0.9l-1-4.8c-0.1-0.6,0.4-1,0.9-0.9l3.2,0.6c0.3,0.1,0.5,0.3,0.6,0.6l0.5,2h1.7l0.7-2c0.1-0.3,0.3-0.5,0.6-0.5 L38,9.3c0.5-0.1,1,0.4,0.9,0.9l-1,4.9c-0.1,0.4,0.2,0.9,0.6,0.9c12.8,2.2,22.4,8.1,22.4,18.9C60.9,43.2,53.6,49.4,43.2,52.8z" class="st20"/><g><path d="M26.6,43.8c-0.2,0-0.3-0.1-0.4-0.2c-5.6-8.7-0.1-17.3,0-17.4c0.2-0.2,0.5-0.3,0.7-0.1 c0.2,0.2,0.3,0.5,0.1,0.7c-0.1,0.1-5.2,8.1,0,16.3c0.1,0.2,0.1,0.5-0.2,0.7C26.8,43.7,26.7,43.8,26.6,43.8z" class="st26"/></g><g><path d="M32,49.9c0,0-0.1,0-0.1,0c-0.3-0.1-0.4-0.4-0.3-0.6c4.6-14.9,0.1-28,0-28.1c-0.1-0.3,0-0.5,0.3-0.6 c0.3-0.1,0.5,0,0.6,0.3c0,0.1,4.7,13.6,0,28.8C32.4,49.8,32.2,49.9,32,49.9z" class="st26"/></g><g><path d="M7.8,31c0,0-0.1,0-0.1,0c-0.3-0.1-0.4-0.3-0.4-0.6c1.8-7.2,10.7-10.2,11-10.3c0.3-0.1,0.5,0.1,0.6,0.3 c0.1,0.3-0.1,0.5-0.3,0.6c-0.1,0-8.7,2.9-10.4,9.6C8.2,30.9,8,31,7.8,31z" class="st24"/></g><g><circle cx="7.4" cy="33.2" r=".5" class="st24"/></g><g><path d="M47.9,46.1c-0.1,0-0.2,0-0.3-0.1c-0.2-0.2-0.2-0.5,0-0.7c3.6-3.8,5.2-7.7,4.9-11.5c-0.5-6-5.7-10-5.7-10 c-0.2-0.2-0.3-0.5-0.1-0.7s0.5-0.3,0.7-0.1c0.2,0.2,5.6,4.3,6.1,10.7c0.4,4.2-1.4,8.3-5.2,12.3C48.2,46.1,48.1,46.1,47.9,46.1z" class="st26"/></g></g></svg>