<svg xmlns="http://www.w3.org/2000/svg" xmlns:xlink="http://www.w3.org/1999/xlink" id="Layer_1" x="0" y="0" version="1.1" viewBox="0 0 200 200" xml:space="preserve" style="enable-background:new 0 0 200 200"><style type="text/css">.st10{fill:#246901}.st59{fill:#f9c153}.st70{fill:#add980}.st71{fill:#fc7351}.st72{fill:#f8b05c}.st73{fill:#f8a15a}.st74{fill:#f99259}.st75{fill:#f98357}.st76{fill:#994a22}.st77{fill:#7fc731}.st78{fill:#fde3dd}</style><g><path d="M152.6,70.2c24.9,48.2-16.2,98.6-30.7,106.1c-16,8.2-83.3,7.4-106.2-37c-12.4-24-14.7-51.3,2.1-67.2 c17.6-16.7,43-14.2,43-14.2s2.3-4.1,6.6-9L152.6,70.2z" class="st71"/><path d="M42.5,166.7l90.8-0.1c-4.1,4.4-7.9,7.6-10.9,9.3L65.1,176C57.3,173.9,49.6,170.8,42.5,166.7z" class="st59"/><path d="M133.4,166.6l-90.9,0.1c-4.6-2.6-8.9-5.7-12.9-9.3l111.4-0.1C138.4,160.8,135.8,163.9,133.4,166.6z" class="st72"/><path d="M147,148c-1.9,3.3-4,6.4-6.1,9.3l-111.4,0.1c-3.1-2.8-5.9-5.9-8.5-9.3L147,148z" class="st73"/><path d="M151.9,138.7c-1.5,3.3-3.1,6.4-4.9,9.3l-126,0.1c-2-2.7-3.9-5.6-5.5-8.7c-0.1-0.2-0.2-0.4-0.3-0.6 L151.9,138.7z" class="st74"/><path d="M151.9,138.6l-136.6,0.1c-1.6-3.1-2.9-6.2-4.2-9.3l144.5-0.1C154.5,132.5,153.3,135.6,151.9,138.6z" class="st75"/><path d="M146.1,68.1c0.8,1.4,1.6,2.8,2.3,4.2c23.5,45.5-16.2,93.4-28.7,99.9c-6.1,3.2-25.4,5.6-47.4,0.8 c-17.5-3.8-40.9-13.1-52.6-35.8c-15.5-30-9.6-51.5,1.2-61.7c2-1.9,4.2-3.6,6.4-5c14.3-9.1,32.5-10.1,47.6-2.3 C85.3,73.7,93.8,82.9,98,94.8c0.2,0.6,0.8,1,1.5,1c0.3,0,0.6-0.1,0.9-0.3c0.6-0.4,0.8-1.2,0.6-1.9c-5.5-15.2-17.4-26.2-31.6-31.2 c-2.5-0.9-3.5-3.9-1.8-6c0.7-0.9,1.5-1.9,2.5-2.9l-7.5-6.3c-2.9,3.5-7,5.7-11.6,6.1c-9.7,0.8-24.6,4.1-36.5,15.4 c-16.8,16-18,43.8-3,72.7c10.4,20.2,31.4,34.6,58.9,40.6c9.3,2,18.5,2.9,26.6,2.9c12,0,21.8-1.8,27-4.6c8.8-4.6,23.1-20.1,32.2-40 c8.1-17.7,14.8-44.7,0.5-72.4L146.1,68.1z" class="st76"/><g><path d="M194.3,79.5c-3.2-19.2-14.2-37.1-31.8-48.5C129.3,9.6,84.9,19.2,63.4,52.4l36.4,0.4l28.3,12.8l42.5,2.6 L194.3,79.5z" class="st77"/><path d="M59.7,55.2c1.1,1.6,3.1,2.3,4.9,1.8c11.6-3,24.1-2.2,35.2,2.3l18.1,7.3c6.7,2.7,13.8,4.3,21.1,4.7l21.9,1.2 c9.7,0.5,19.2,3.6,27.4,8.8l3.6,2.3c0.8,0.5,1.6,0.7,2.5,0.7c0.9,0,1.8-0.3,2.6-0.8c1.5-1,2.3-2.8,2-4.6 c-3.5-21.2-15.9-40-33.9-51.6C129.7,4.4,82.3,14.6,59.5,49.9C58.5,51.5,58.5,53.6,59.7,55.2z M184,62.2c0.4,0.8-0.6,1.5-1.2,0.9 c-20.4-19.9-43-26.1-59-27.7C109.3,34,94.6,35.9,82,40.7c-0.8,0.3-1.4-0.8-0.7-1.3c12.1-9.9,27.2-15.1,42.5-15.1 c12.4,0,25,3.5,36.2,10.7C170.4,41.7,178.7,51.2,184,62.2z M82.7,46c-1.1-0.1-1.4-1.7-0.3-2.1c12.4-4.8,26.8-6.8,41.2-5.4 c15.3,1.5,36.8,7.4,56.4,26.1c0.8,0.8,0,2.2-1.1,1.8c-5.6-1.9-11.5-3-17.5-3.4l-21.9-1.2c-6.2-0.3-12.3-1.7-18.1-4l-18.1-7.3 C96.7,48,89.7,46.4,82.7,46z" class="st10"/></g><g><path d="M23.6,110.3c-0.8,0-1.5-0.7-1.5-1.5c-0.3-7.3,0.3-17.9,7.8-25c2.5-2.4,5.4-4.4,8.7-6 c0.8-0.4,1.7-0.1,2.1,0.7c0.4,0.8,0.1,1.7-0.7,2.1c-3,1.5-5.6,3.3-7.9,5.5c-5.1,4.8-7.2,11.8-6.8,22.6 C25.2,109.6,24.5,110.3,23.6,110.3C23.6,110.3,23.6,110.3,23.6,110.3z" class="st78"/></g><circle cx="47.1" cy="76.3" r="1.8" class="st78"/><g><path d="M157.4,40.7c-0.3,0-0.6-0.1-0.8-0.2c-9.9-6.4-21.2-9.8-32.8-9.8c-3.1,0-6.1,0.2-9.2,0.7 c-0.8,0.1-1.6-0.4-1.8-1.3c-0.1-0.8,0.4-1.6,1.3-1.8c3.2-0.5,6.4-0.7,9.6-0.7c12.2,0,24.1,3.5,34.5,10.3c0.7,0.5,0.9,1.4,0.5,2.1 C158.4,40.4,157.9,40.7,157.4,40.7z" class="st70"/></g><g><path d="M124.7,43.6c-0.1,0-0.1,0-0.2,0c-2.1-0.2-4.2-0.4-6.3-0.5c-0.9,0-1.5-0.8-1.5-1.6c0-0.9,0.8-1.5,1.6-1.5 c2.2,0.1,4.3,0.3,6.5,0.5c0.8,0.1,1.5,0.9,1.4,1.7C126.1,43,125.5,43.6,124.7,43.6z" class="st70"/></g><circle cx="129.9" cy="42.8" r="1.5" class="st70"/><circle cx="109.2" cy="30.8" r="1.5" class="st70"/></g></svg>