<svg xmlns="http://www.w3.org/2000/svg" xmlns:xlink="http://www.w3.org/1999/xlink" id="Layer_1" x="0" y="0" version="1.1" viewBox="0 0 64 64" xml:space="preserve" style="enable-background:new 0 0 64 64"><style type="text/css">.st3{fill:#82af1d}.st4{fill:#2f3f1a}</style><path d="M33.7,62.5c-1.1,0-1.9-0.3-2.1-0.4c-0.4-0.2-0.7-0.5-0.8-0.9c-0.4,0.1-0.9,0.2-1.5,0.2c-0.9,0-1.8-0.2-2.6-0.7	C26.3,60.5,26,60,26,59.5c-0.8,0-1.6-0.3-2.2-0.7c-0.6-0.4-0.9-1.1-0.7-1.7C32.9,23.8,18,4.2,17.8,4c-0.5-0.6-0.4-1.5,0.2-2.1	c0.3-0.2,0.6-0.4,1-0.4c0.4,0,0.8,0.2,1.1,0.5c0.1,0.1,0.6,0.6,1.4,1.7c0,0,0.1,0,0.1-0.1c0.1,0,0.2-0.1,0.2-0.1	c-0.2-0.7,0.1-1.4,0.7-1.8c0.2-0.1,0.5-0.2,0.8-0.2c0.5,0,1,0.2,1.3,0.7C24.7,2.4,25.7,4,27.1,7c-0.2-2.2-0.4-3.4-0.4-3.4	c-0.1-0.8,0.4-1.5,1.2-1.7c0.1,0,0.2,0,0.3,0c0.7,0,1.3,0.4,1.5,1.1c0,0.2,0.7,2.5,1.5,6.6c0.5-3.6,0.9-5.6,1-5.7	c0.2-0.7,0.8-1.2,1.5-1.2c0.1,0,0.1,0,0.2,0c0.6,0.1,1.1,0.5,1.3,1.1c0.1-0.5,0.2-0.7,0.2-0.8c0.2-0.7,0.8-1.1,1.5-1.1	c0.1,0,0.2,0,0.3,0c0.8,0.2,1.3,0.9,1.2,1.7c0,0-0.3,2-0.7,5.5c2-3.5,3.9-5.5,4-5.6C41.8,3.2,42.2,3,42.6,3c0.1,0,0.3,0,0.4,0	C43.2,3,43.3,3,43.5,3c0.3,0,0.6,0.1,0.9,0.3c0.1,0.1,0.3,0.2,0.3,0.3C45.5,2.6,46,2.1,46,2c0.3-0.3,0.7-0.5,1.1-0.5	c0.4,0,0.7,0.1,1,0.4c0.6,0.5,0.7,1.5,0.2,2.1c-0.2,0.2-16.5,20.4-5.2,53c0.2,0.7,0,1.4-0.7,1.8c-0.7,0.4-1.4,0.6-2.2,0.7	c0,0.5-0.3,1-0.7,1.3c-0.8,0.5-1.6,0.7-2.6,0.7c-0.1,0-0.1,0-0.2,0c-0.1,0.2-0.3,0.3-0.5,0.5C35.5,62.3,34.6,62.5,33.7,62.5z" class="st3"/><path d="M48.3,5c0.7-0.8,1-1.9,0.5-3.1C48.4,0.7,47.3,0,46.1,0v0c-0.5,0-1,0.1-1.5,0.4c-0.3,0.1-0.5,0.3-0.7,0.6	c0,0,0,0,0,0c-0.1,0.1-0.2,0.3-0.5,0.6c-0.3-0.1-0.6-0.1-0.9-0.1c-0.2,0-0.4,0-0.5,0c-0.1,0-0.2,0-0.3,0c-0.8,0-1.6,0.3-2.2,0.9	c0,0-0.3,0.3-0.7,0.8c0-1.4-1-2.6-2.4-2.9c-0.2,0-0.4-0.1-0.6-0.1c-0.8,0-1.6,0.3-2.2,0.9c-0.2-0.1-0.4-0.1-0.5-0.1	c-0.1,0-0.3,0-0.4,0c-1,0-2,0.5-2.5,1.3c0,0,0,0,0,0c-0.4-1.3-1.6-2.1-2.9-2.1c-0.2,0-0.4,0-0.6,0.1c-0.7,0.1-1.3,0.5-1.7,1.1	c0,0,0,0,0,0c-0.6-0.9-1.5-1.3-2.5-1.3c-0.5,0-1,0.1-1.5,0.4c-0.2,0.1-0.4,0.3-0.6,0.5C19.5,0.3,18.7,0,17.9,0c-0.7,0-1.4,0.2-2,0.7	c-1.2,1-1.4,2.9-0.4,4.1c0.1,0.2,14.5,19.4,5,51.7c-0.4,1.3,0.1,2.7,1.2,3.4c0.6,0.4,1.3,0.6,1.9,0.8c0.3,0.5,0.6,0.9,1.1,1.2	c1,0.6,2.1,0.9,3.3,0.9c0.3,0,0.5,0,0.7,0c0.3,0.3,0.6,0.5,1,0.7c0.3,0.1,1.3,0.5,2.7,0.5c1.2,0,2.3-0.3,3.3-0.9	c0.1-0.1,0.3-0.2,0.4-0.3c1-0.1,2-0.4,2.8-0.9c0.5-0.3,0.9-0.7,1.1-1.2c0.6-0.1,1.2-0.4,1.8-0.7c1.3-0.8,1.7-2.4,1.3-3.8	c-4.6-13.2-5.1-25.9-1.7-37.6C44.2,10.3,48,5.5,48.3,5z M21.4,5C21.4,5,21.4,5,21.4,5C21.4,5,21.4,4.9,21.4,5	C21.4,4.9,21.4,5,21.4,5z M21.5,2.7c0.6,0.9,6.6,10,9.1,25.6c0,0,0,0,0,0c-0.7,8.5-1.1,18.8-0.4,30.3c0,0,0,0,0,0	c-0.1,0.3-0.1,0.7-0.2,1c0,0-0.6,0.3-1.5,0.3c-0.5,0-1-0.1-1.5-0.3c-0.2-0.1-0.2-0.3-0.2-0.4C33.1,27,22.2,4.2,21.5,2.7	C21.5,2.7,21.5,2.7,21.5,2.7z M35.4,3.3c0,0-5.1,26.3-0.8,57.4c0,0.2-0.1,0.4-0.2,0.5c-0.5,0.2-1,0.3-1.5,0.3	c-0.8,0-1.5-0.3-1.5-0.3c0,0,0,0,0,0C29.1,27.3,35.4,3.3,35.4,3.3z M35.8,59.9c-0.1-0.1-0.2-0.2-0.4-0.3c-2-14.7-1.8-28.3-1.1-38.4	l0,0c2.9-11.1,7.6-16.7,7.6-16.7s-12.3,20.6-4.3,55c0,0,0,0,0,0C37,59.8,36.4,59.9,35.8,59.9z M30.5,20.9	C30.5,20.9,30.5,20.9,30.5,20.9c0.6-10.5,2-16.8,2-16.8s-0.2,3.7-0.2,9.9c0,0,0,0,0,0c-0.5,3-0.9,6.6-1.3,10.6c0,0,0,0,0,0	c-0.5-2.6-1.1-5-1.8-7.1c-0.3-0.9-0.5-1.7-0.8-2.5c0,0,0,0,0,0c-0.7-7.2-1.2-11.7-1.2-11.7S29,9.9,30.5,20.9z M23.4,57.4	C23.4,57.4,23.4,57.4,23.4,57.4C33.6,23.1,17.9,3,17.9,3s3.1,3.3,6,9.4c0,0,0,0,0,0c2.8,9.5,5.6,25.7,2,45.4c-0.2,0-0.5,0.1-0.7,0.1	C24.7,57.9,24.1,57.8,23.4,57.4z M40.6,57.4C40.6,57.4,40.6,57.4,40.6,57.4c-0.6,0.4-1.2,0.5-1.8,0.5c-0.2,0-0.3,0-0.5,0	c-4.2-18.8-2.1-33.3,0.4-42.4c0,0,0,0,0,0C42,7.4,46.1,3,46.1,3S28.8,23.6,40.6,57.4z" class="st4"/></svg>