<svg xmlns="http://www.w3.org/2000/svg" xmlns:xlink="http://www.w3.org/1999/xlink" id="Layer_1" x="0" y="0" version="1.1" viewBox="0 0 64 64" xml:space="preserve" style="enable-background:new 0 0 64 64"><style type="text/css">.st2{fill:#d5df7f}.st3{fill:#80ac66}.st4{fill:#f9fbef}.st5{fill:#2f3f1a}.st6{fill:#e7ecb9}.st7{fill:#f0f3d4}.st8{fill:#dee59f}.st9{fill:#acc476}.st10{fill:#96b870}.st11{fill:#c0d17e}.st68{fill:#ceb699}</style><path d="M35.1,51.4V32.2l4.4-27.8l-4.4-0.7V2h-6v2.6l-4.5,0.9L29,28.3v23.1c0,0.9-0.1,1.8-0.3,2.6	c-0.3,1.7-0.5,3.5,0.1,4.6c0,0,3.1,2.8,6.3,0c0.6-0.5,0.5-3,0.1-4.6C35.2,53.2,35.1,52.3,35.1,51.4z" class="st2"/><polygon points="29 31.4 35.2 31.4 39.5 4.4 35.1 3.7 35.1 2 29 2 29 4.6 24.5 5.5 29 28.3" class="st3"/><path d="M35.2,53.5h-6.4c0,0.2,0,0.4-0.1,0.5c-0.3,1.7-0.5,3.5,0.1,4.6c0,0,3.1,2.8,6.3,0c0.6-0.5,0.5-3,0.1-4.6	C35.3,53.9,35.3,53.7,35.2,53.5z" class="st4"/><g><g><path d="M31.5,59.3v4.2c0,0.3,0.2,0.5,0.5,0.5s0.5-0.2,0.5-0.5v-4.2H31.5z" class="st68"/></g><g><path d="M33.2,59.1l0.6,4.1c0,0.2,0.2,0.4,0.5,0.4c0,0,0,0,0.1,0c0.3,0,0.5-0.3,0.4-0.6L34.2,59L33.2,59.1z" class="st68"/></g><g><path d="M34.8,58.5l1.3,4c0.1,0.2,0.3,0.3,0.5,0.3c0.1,0,0.1,0,0.2,0c0.3-0.1,0.4-0.4,0.3-0.6l-1.3-4L34.8,58.5z" class="st68"/></g><g><path d="M29.9,59l-0.6,4.1c0,0.3,0.1,0.5,0.4,0.6c0,0,0,0,0.1,0c0.2,0,0.5-0.2,0.5-0.4l0.6-4.1L29.9,59z" class="st68"/></g><g><path d="M28.4,58.2l-1.3,4c-0.1,0.3,0.1,0.5,0.3,0.6c0.1,0,0.1,0,0.2,0c0.2,0,0.4-0.1,0.5-0.3l1.3-4L28.4,58.2z" class="st68"/></g></g><g><g><rect width="7" height="1" x="28.5" y="52" class="st6"/></g><g><rect width="7" height="1" x="28.5" y="53" class="st7"/></g><g><rect width="7" height="1" x="28.5" y="51" class="st8"/></g></g><g><g><rect width="6" height="1" x="29" y="31" class="st9"/></g><g><rect width="6" height="1" x="29" y="30" class="st10"/></g><g><rect width="6" height="1" x="29" y="32" class="st11"/></g></g><path d="M32.1,61.1c1.3,0,2.7-0.4,4-1.6c1.5-1.4,0.7-5.4,0.6-6c-0.1-0.8-0.2-1.6-0.2-2.4l0-19.2L41,3.8	c0.1-0.5-0.3-1.1-0.8-1.1l-2.8-0.4c-0.5-0.1-0.8-0.5-0.8-1c0-0.6-0.4-1-1-1h-7c-0.6,0-1,0.4-1,1v1c0,0.5-0.3,0.9-0.8,1l-3,0.6	c-0.5,0.1-0.9,0.6-0.8,1.2L27.5,28l0,23.1c0,0.8-0.1,1.5-0.2,2.4c-0.5,2.6-0.4,4.3,0.2,5.6C27.5,59,28.9,61.1,32.1,61.1z M31.9,14	l-1.4-8.5l0,0V4.2c0-0.6,0.4-1,1-1h1.1c0.5,0,0.9,0.4,0.8,0.9L31.9,14z M26.4,7.3c-0.1-0.5,0.2-1.1,0.8-1.2l1.4-0.3	c0.5-0.1,1,0.2,1.1,0.7l1.8,10.6l0,0l-1.3,8.9L26.4,7.3z M33.5,51.1c0,1,0.1,1.9,0.3,2.9c0,0,0.4,1.8,0.3,3c0,0.3-0.2,0.6-0.4,0.7	c-1.3,0.8-2.4,0.4-3.2,0C30.2,57.5,30,57.3,30,57c-0.1-0.6,0-1.5,0.2-3c0.1-1,0.3-1.9,0.3-2.9V30.5l3.7-24.9	c0.1-0.4,0.5-0.7,0.9-0.7l1.6,0.3c0.5,0.1,0.9,0.6,0.8,1.1l-4,25.3L33.5,51.1z" class="st5"/></svg>