<svg xmlns="http://www.w3.org/2000/svg" xmlns:xlink="http://www.w3.org/1999/xlink" id="Layer_1" x="0" y="0" version="1.1" viewBox="0 0 1000 1000" xml:space="preserve" style="enable-background:new 0 0 1000 1000"><style type="text/css">.st0{fill:#77a45b}.st1{fill:#3d710c}.st5{fill:#e50f4f}.st19{fill:#930019}.st24{fill:#fff}.st25{fill:#efe8d7}.st32{fill:#e87c94}.st33{fill:#e64872}.st34{fill:#ebb2b6}</style><g><path d="M406.2,610.9L518,861.6l106.4-250.7H406.2" class="st25"/><path d="M535.9,335.2c-1.1,0-2.2-0.1-3.4-0.2l-16.6-2.4l-16.6-2.4c-12.8-1.8-21.7-13.7-19.9-26.4 c0-0.3,3.5-26.3-4.7-58.8c-27.4-1.2-55.5-9.4-79.4-45.8c-16.2-24.7-27.7-56.9-30.8-86.1c-3.9-37.1,5.9-65.3,27.4-79.4 c9.3-6.1,20.1-9.2,32.3-9.2c43.6,0,93.5,40.2,118.3,77.9c29,44.2,18.2,76.7,5,105.1c18.3,55.3,12.4,102.2,11.6,107.7 c-0.9,6.2-4.2,11.7-9.2,15.4C545.9,333.6,541,335.2,535.9,335.2z" class="st0"/><path d="M636.2,509.1c0-247.3-121-225.6-121-225.6C407,283.5,394.5,386,394.5,509.1H636.2z" class="st5"/><path d="M515.5,999c-0.2,0-0.3,0-0.5,0c-12.7-0.3-22.9-10.7-22.9-23.4c-0.1-69.2-17.2-120.7-20.5-129.8 c-55.7-99.1-80.1-199.9-90.7-267.1c-11.1-70.5-10-119-9.8-124.7c0.1-63.2,13.7-112.3,40.5-145.8c24.9-31.2,60.3-47.8,102.4-48.1 c9.7-0.9,51.9-2.6,88.9,29.5c37.6,32.7,56.7,88,56.8,164.4c0.2,5.7,1.3,54.2-9.8,124.7c-10.7,67.6-35.3,169.1-91.6,268.8 c-10.1,17.9-17.4,86.3-19.3,129.1C538.3,989.2,528,999,515.5,999z M518.4,306.7c-1.2,0.2-1.9,0.2-3.2,0.2 c-28.3,0-50.9,10.3-67,30.5c-20.1,25.1-30.2,64.5-30.2,117c0,0.3,0,0.6,0,0.9c0,0.5-1.6,48.1,9.5,117.3 c10.1,63.5,33.3,158.6,85.9,251.8c0.6,1,1,2,1.4,3.1c0.1,0.2,0.2,0.5,0.4,1.1c0.7-1.5,1.4-2.9,2.2-4.2 c101.4-179.2,95.5-367.2,95.4-369.1c0-0.3,0-0.6,0-0.9c0-61.1-13.8-105.7-40-128.9C548.5,304,520.8,306.5,518.4,306.7z" class="st19"/><path d="M460.2,419.4c-0.4,0-0.8,0-1.2-0.1c-4.3-0.7-7.2-4.7-6.5-8.9c5-32,16.4-53.6,33.8-64.3 c3.7-2.3,8.5-1.1,10.7,2.6c2.3,3.7,1.1,8.5-2.6,10.7c-13.4,8.2-22.3,26.2-26.6,53.4C467.3,416.6,464,419.4,460.2,419.4z" class="st24"/><circle cx="458.5" cy="446.3" r="7.8" class="st24"/><rect width="226" height="46.9" x="402.4" y="543.4" class="st32"/><rect width="241.6" height="46.9" x="394.6" y="496.5" class="st33"/><rect width="226" height="46.9" x="402.4" y="590.3" class="st34"/><path d="M515.5,999c-0.2,0-0.3,0-0.5,0c-12.7-0.3-22.9-10.7-22.9-23.4c-0.1-69.2-17.2-120.7-20.5-129.8 c-55.7-99.1-80.1-199.9-90.7-267.1c-11.1-70.5-10-119-9.8-124.7c0.1-63.2,13.7-112.3,40.5-145.8c24.9-31.2,60.3-47.8,102.4-48.1 c9.7-0.9,51.9-2.6,88.9,29.5c37.6,32.7,56.7,88,56.8,164.4c0.2,5.7,1.3,54.2-9.8,124.7c-10.7,67.6-35.3,169.1-91.6,268.8 c-10.1,17.9-17.4,86.3-19.3,129.1C538.3,989.2,528,999,515.5,999z M518.4,306.7c-1.2,0.2-1.9,0.2-3.2,0.2 c-28.3,0-50.9,10.3-67,30.5c-20.1,25.1-30.2,64.5-30.2,117c0,0.3,0,0.6,0,0.9c0,0.5-1.6,48.1,9.5,117.3 c10.1,63.5,33.3,158.6,85.9,251.8c0.6,1,1,2,1.4,3.1c0.1,0.2,0.2,0.5,0.4,1.1c0.7-1.5,1.4-2.9,2.2-4.2 c101.4-179.2,95.5-367.2,95.4-369.1c0-0.3,0-0.6,0-0.9c0-61.1-13.8-105.7-40-128.9C548.5,304,520.8,306.5,518.4,306.7z" class="st19"/><path d="M535.9,310.8c0.4-3.1,6.9-50.2-13.7-104.7c14.2-29.6,25.5-53.2,0.7-90.9c-28.8-43.9-88.3-81.7-118.1-62 C375,72.8,386,142.4,414.9,186.2c22.9,34.8,48.6,36,77.2,35.3c15.8,44.4,11,87.6,10.7,90.2C502.8,311.7,520.9,323.1,535.9,310.8z" class="st0"/><path d="M562.1,89.5C533.2,45.5,476.6,1,424.2,1c-16.6,0-32.2,4.5-45.1,13c-16.8,11-28.7,28.2-34.6,49.8 c-4.2,15.3-5.3,32.7-3.3,51.7c3.5,33.3,16,68.4,34.5,96.5c24,36.5,52.8,49.8,79.4,54.3c0.3,2.2,0.6,4.4,0.8,6.4 c11.7-5.5,24.4-9.3,37.9-11.2c3.9,27.7,1.3,48.7,1.2,49c-0.4,3,1,6.1,3.6,7.7c0.6,0.4,9.8,6.1,21.4,6.1c6.6,0,13.9-1.8,20.8-7.5 c1.5-1.2,2.5-3,2.8-4.9c0.5-3.3,3-22.8-0.1-50.4c11.9,2.1,26,6.2,40.2,14.4c-0.9-18.6-3.8-41.9-11.2-67.1 c5.2-12.1,9.7-25.4,11.3-40.3C586.6,141.9,579.5,116,562.1,89.5z M528.6,306.4c-6.3,3.6-13.2,2.2-17.5,0.6 c1-13.8,1.8-50.5-11.6-88.1c-1.1-3.1-4.1-5.2-7.4-5.2c-0.1,0-0.1,0-0.2,0c-29.5,0.7-50.4-1.1-70.5-31.8 c-13.6-20.7-23.3-47.7-25.8-72.2c-2.6-24.5,2.4-42.8,13.5-50.1c11.1-7.3,29.8-4.6,51.3,7.5c21.5,12.1,42.4,31.6,56,52.3 c22.4,34,13,53.6-1.2,83.2c-0.9,1.9-1,4.1-0.3,6.1C532.1,254.2,529.7,294.8,528.6,306.4z" class="st1"/></g></svg>