<svg xmlns="http://www.w3.org/2000/svg" xmlns:xlink="http://www.w3.org/1999/xlink" id="Layer_1" x="0" y="0" version="1.1" viewBox="0 0 500 500" xml:space="preserve" style="enable-background:new 0 0 500 500"><style type="text/css">.st0{fill:#7daf1d}.st24{fill:#fff}.st86{fill:#abd171}.st87{fill:#2b6b03}</style><polygon points="31.5 31.3 100.4 17.6 250.1 88.9 414.2 27.3 460.7 39.3 471.9 119.3 407.8 245.1 475.9 371.6 474.3 462 403.8 483.7 247.7 414 97.2 473.3 35.5 460.4 37.9 352.3 98 254.7 18.7 132.1" class="st0"/><g><circle cx="71" cy="70.9" r="3.9" class="st87"/><circle cx="106.5" cy="65.7" r="3.9" class="st87"/><circle cx="435.8" cy="435.7" r="3.9" class="st87"/><circle cx="295.2" cy="118.2" r="3.9" class="st87"/><circle cx="386.1" cy="75.4" r="3.9" class="st87"/><circle cx="118" cy="295.1" r="3.9" class="st87"/><circle cx="158.1" cy="195.4" r="3.9" class="st87"/><circle cx="309.5" cy="351.6" r="3.9" class="st87"/><circle cx="360.7" cy="360.6" r="3.9" class="st87"/><circle cx="287.1" cy="198" r="3.9" class="st87"/><circle cx="315.8" cy="184.3" r="3.9" class="st87"/><g><path d="M438.3,337.8c-10.9-24-25.5-45.3-43.4-63.2c-8.2-8.2-17.6-14.9-27.8-19.9c-1,2.6-2.9,4.9-5.8,5.9 c10.3,4.7,19.8,11.2,28.1,19.5c17.2,17.2,31.3,37.7,41.8,60.9c0.7,1.4,2.1,2.3,3.6,2.3c0.5,0,1.1-0.1,1.6-0.4 C438.4,342.1,439.2,339.8,438.3,337.8z" class="st86"/><path d="M253,172.1c1.9-19.2,10.6-38.7,25.8-53.9c13.4-13.4,28.9-24.8,46.3-34c1.9-1,2.6-3.4,1.6-5.3 c-1-1.9-3.4-2.6-5.3-1.6c-18,9.5-34.2,21.4-48.1,35.4c-15,15-24.2,33.9-27.3,53C249.6,166.5,252,169.1,253,172.1z" class="st86"/><path d="M374.4,233c-1.2-1.8-3.7-2.2-5.4-1c-12,8.3-25.1,13.3-38.2,15.1c3.6,0.9,5.9,3.6,6.9,6.8 c12.3-2.5,24.6-7.6,35.8-15.4C375.2,237.3,375.7,234.8,374.4,233z" class="st86"/><path d="M255.8,221.7c-0.2,0-0.3,0-0.5,0c-2.1-0.3-3.7-2.2-3.4-4.4c0.9-7.3,4.4-14.3,9.7-19.7 c5.3-5.3,11.6-9.7,18.6-13.1c1.9-0.9,4.3-0.1,5.2,1.8c0.9,1.9,0.1,4.3-1.8,5.2c-6.2,3-11.8,6.9-16.4,11.6 c-4.1,4.1-6.8,9.5-7.5,15.1C259.4,220.3,257.7,221.7,255.8,221.7z" class="st24"/><g><path d="M108,226.5c-1,0-2-0.4-2.8-1.1C70,190.1,54.5,149.1,47.7,120.9c-8.1-33.6-6.9-61.5-1.4-71.7l1.1-2.1l2-1.3 c9.3-6,36.4-7.8,70.4,0.3c28.2,6.8,69.4,22.5,105.8,58.9c1.5,1.5,1.5,4,0,5.5c-1.5,1.5-4,1.5-5.5,0 c-35.1-35.1-74.9-50.2-102.1-56.8c-18.6-4.5-33-5.3-41.8-5.3c-12.3,0.1-19.6,2.1-22.4,3.9l-0.3,0.2L53.2,53 c-4,7.4-6,32.8,2.1,66.1c6.6,27.2,21.6,66.8,55.5,100.7c1.5,1.5,1.5,4,0,5.5C110,226.1,109,226.5,108,226.5z" class="st86"/><path d="M46.9,98.2c-2,0-3.7-1.5-3.9-3.5c-2.3-20-1-37.5,3.3-45.4l1.1-2.1l2-1.3c7.6-4.9,25.3-6.5,46.3-4 c2.1,0.3,3.7,2.2,3.4,4.3s-2.2,3.7-4.3,3.4c-21.4-2.5-36.3-0.3-41.1,2.8l-0.3,0.2L53.2,53c-2.9,5.4-4.8,20.1-2.4,40.9 c0.2,2.1-1.3,4.1-3.4,4.3C47.2,98.2,47,98.2,46.9,98.2z" class="st24"/><path d="M337.5,438.2c-0.6,0-1.1-0.1-1.7-0.4c-22.9-10.9-43.5-25.4-61-43c-1.5-1.5-1.5-4,0-5.5s4-1.5,5.5,0 c17,17,36.8,30.9,58.9,41.5c1.9,0.9,2.8,3.3,1.8,5.2C340.3,437.4,338.9,438.2,337.5,438.2z" class="st86"/><circle cx="265.4" cy="378.4" r="3.9" class="st86"/><circle cx="120.1" cy="233.2" r="3.9" class="st86"/><path d="M247,329.7c-2.3,18.6-10.9,37.3-25.6,52c-1.5,1.5-1.5,4,0,5.5c0.8,0.8,1.8,1.1,2.8,1.1s2-0.4,2.8-1.1 c15.1-15.1,24.3-34.1,27.3-53.3C250.9,333.7,248.5,332,247,329.7z" class="st86"/><path d="M165.3,245.6c-18.8,3.2-37.4,12.5-52.5,27.6c-1.5,1.5-1.5,4,0,5.5c0.8,0.8,1.8,1.1,2.8,1.1s2-0.4,2.8-1.1 c14.9-14.9,33.5-23.7,51.9-26C167.5,251.3,165.8,248.5,165.3,245.6z" class="st24"/><path d="M63.7,367.6c-0.4,0-0.7-0.1-1.1-0.2c-2.1-0.6-3.2-2.8-2.6-4.9c5.5-18.6,13.5-36.3,23.6-52.6 c1.1-1.8,3.6-2.4,5.4-1.3c1.8,1.1,2.4,3.6,1.3,5.4c-9.8,15.7-17.5,32.8-22.8,50.7C66.9,366.5,65.4,367.6,63.7,367.6z" class="st86"/><path d="M362.6,68.7c-1.7,0-3.2-1.1-3.7-2.8c-0.6-2.1,0.6-4.2,2.6-4.9c20.1-6,36.6-7.8,46.9-8.3 c2.2-0.1,4,1.6,4.1,3.7c0.1,2.2-1.6,4-3.7,4.1c-9.9,0.5-25.7,2.2-45,7.9C363.3,68.7,362.9,68.7,362.6,68.7z" class="st24"/><circle cx="343" cy="71.8" r="3.9" class="st24"/><circle cx="385" cy="223.8" r="3.9" class="st86"/><circle cx="208.9" cy="397.6" r="3.9" class="st86"/><circle cx="77" cy="423" r="3.9" class="st86"/><circle cx="95.4" cy="299.7" r="3.9" class="st86"/><path d="M152,215c-1.3,0-2.5-0.6-3.3-1.8c-21.7-32.9-23.1-70.1-17.8-80l0.8-1.5l1.5-0.9c8.1-5.2,33-4.2,57.3,5.6 c2,0.8,3,3.1,2.2,5.1c-0.8,2-3.1,3-5.1,2.2c-10.8-4.3-22.4-7.2-32.9-7.9c-10-0.7-15.3,0.6-17,1.5c-1.4,3-2.6,12.4-0.2,26.5 c1.9,11.2,6.5,28.2,17.7,45.3c1.2,1.8,0.7,4.2-1.1,5.4C153.5,214.8,152.7,215,152,215z" class="st86"/><path d="M189.1,143.9c-0.5,0-1-0.1-1.5-0.3c-7.2-2.9-14.7-5.1-22.1-6.5c-2.1-0.4-3.5-2.4-3.1-4.6 c0.4-2.1,2.4-3.5,4.6-3.1c7.9,1.5,15.9,3.8,23.6,6.9c2,0.8,3,3.1,2.2,5.1C192.1,143,190.7,143.9,189.1,143.9z" class="st24"/><path d="M257.9,288.3c-1.3,1.8-3.1,3.2-5.6,3.8c0.9,3.3,0.3,6.9-1.6,9.6c1.9,10.4,7.1,20.6,15.4,29 c0.8,0.8,1.8,1.1,2.8,1.1s2-0.4,2.8-1.1c1.5-1.5,1.5-4,0-5.5C261.1,314.7,256.4,300.9,257.9,288.3z" class="st86"/><path d="M330.8,266c-9.3-9.3-21.2-14.6-33-15.8c-1.6,1.9-4,3.1-7.1,3.3c-0.3,1.6-0.9,3.1-1.9,4.4 c12.5-1.2,26.2,3.4,36.4,13.6c1.5,1.5,4,1.5,5.5,0C332.4,270,332.4,267.5,330.8,266z" class="st86"/><circle cx="210.7" cy="151.4" r="3.9" class="st24"/><path d="M224.9,257.9c-3.2-1.2-5.2-3.9-6-7c-7.6,1.1-15.1,4.7-20.9,10.6c-1.5,1.5-1.5,4,0,5.5 c0.8,0.8,1.8,1.1,2.8,1.1s2-0.4,2.8-1.1c6-6,14-9.1,21.6-8.6C225.1,258.3,225,258.1,224.9,257.9z" class="st86"/><circle cx="294.9" cy="183.5" r="3.9" class="st24"/><circle cx="183.1" cy="316.7" r="3.9" class="st86"/><circle cx="231.8" cy="231.4" r="3.9" class="st86"/></g><path d="M268.9,272.7c-1,0-2-0.4-2.8-1.1l-8.4-8.4c-1.5-1.5-1.5-4,0-5.5c1.5-1.5,4-1.5,5.5,0l8.4,8.4 c1.5,1.5,1.5,4,0,5.5C270.9,272.3,269.9,272.7,268.9,272.7z" class="st24"/></g><path d="M439.7,264.1c-9.1-10.8-9.8-26.4-1.4-37.8c27-36.8,38.6-74.2,43.3-95.7c3.7-16.8,13.8-73.7-12.3-99.8 c-9.2-9.2-24.1-14.7-44-16.1c-16.3-1.2-35.1,0.3-54.4,4.4c-22.2,4.6-61,16.2-98.4,43.8c-11,8.1-26.1,8.1-36.9-0.3 C212.6,44.9,170.7,16.9,123.7,7c-20.5-4.3-40.3-6.2-57.5-4.9C45.4,3.7,29.8,9.6,19.7,19.6C10.2,29.1,4.7,44.4,3.2,65.1 c-1.2,17.1-0.9,37.1,4.6,57.1c15.4,55.5,39.1,93.1,54.7,113.5c8.4,10.9,8.4,26,0.2,37c-27.6,37.1-39.2,75-44,96.7 c-3.7,16.8-13.8,73.7,12.3,99.8c9.2,9.2,24.1,14.7,44,16.1c16.3,1.2,35.1-0.3,54.4-4.4c22-4.6,60.3-15.9,97.4-43.1 c11.2-8.2,26.5-7.6,37.3,1.2c19.4,16,55.6,39.5,112.4,54c15.8,4.1,31.6,5.3,45.8,5.3c4,0,7.9-0.1,11.7-0.4 c20.8-1.6,36.5-7.5,46.5-17.5c9.5-9.5,15.1-24.8,16.6-45.5c1.2-17.1-0.8-36.7-4.6-57.1C482,322.1,456.9,284.4,439.7,264.1z M383.7,208.6c1.9-0.8,2.9-3,2.2-5c-0.8-2.2-3.3-3.2-5.3-2.2c-12.8,5.9-27.4,8.5-41.2,9.2c-3.7,0.2-6.6-3.3-5.7-6.9 c0.2-0.7,0.3-1.3,0.5-2c1.7-7.7,2.2-14.9,1.6-20.8c-0.4-3.5,2.6-6.4,6.1-6c5.1,0.6,11.5,1.2,18.5,1.2c0.2,0,0.5,0,0.7,0 c22.8-0.1,40.8-6.1,52-17.2c1.3-1.3,1.7-3.5,0.6-5c-1.4-2.1-4.3-2.3-6-0.6c-15,15-41,15.9-58.4,14.6c-4.2-0.3-6.1-5.5-3.1-8.5 l25.1-25.1c4.9-4.9,11.7-7.6,18.7-7.1c1.7,0.1,3.6,0.2,5.5,0.2c10.5,0,23.4-2.1,31.9-10.5c1.3-1.3,1.6-3.5,0.6-5 c-1.4-2.1-4.3-2.3-6-0.6c-6,6-15.2,7.9-23.6,8.2c-4.5,0.2-6.9-5.3-3.7-8.5l31.5-31.5c1.7-1.7,1.5-4.6-0.6-6c-1.6-1-3.6-0.7-5,0.6 l-31.3,31.3c-3.2,3.2-8.7,0.8-8.5-3.8c0.2-3.4,0.6-7,1.4-10.5c0.5-2-0.6-4.2-2.6-4.8c-2.2-0.7-4.4,0.6-5,2.8 c-1.8,7.3-2,14.9-1.6,21.1c0.4,6.9-2.2,13.6-7.1,18.5l-25,25c-3,3-8.2,1.1-8.5-3.2c-1.2-17.4-0.2-43.4,14.3-58 c1.5-1.5,1.7-3.9,0.3-5.5c-1.5-1.7-4.1-1.8-5.7-0.2c-11.1,11.1-16.8,28.5-17.1,51.9c-0.1,7.6,0.5,14.5,1.1,19.9 c0.4,3.5-2.5,6.4-6,6.1c-6.3-0.6-13.7,0.1-20.5,1.5c-0.7,0.1-1.3,0.3-2.1,0.5c-3.6,0.9-7.1-2-6.9-5.7c0.4-8.3,1.5-17,3.6-25.3 c0.4-1.8-0.3-3.8-2-4.6c-2.3-1.1-4.9,0.2-5.5,2.6c-2.5,9.9-3.6,20.2-4,29.8c-0.2,4.9-3,9.2-7.3,11.5c-1.9,1-3.8,2.1-5.8,3.3 c-3.9,2.4-9,1-11.2-3.1c-2.5-4.8-5.3-9-7.9-12.4c-5.3-7.1-6.6-16.5-2.9-24.5c5.1-11.2,12.3-21.6,21.3-30.6 c38.6-38.6,84.9-52.9,109-57.9c13.6-2.8,26.2-4.1,37-4.1c16.5,0,28.6,2.9,33,7.3c7.9,7.9,11.8,34.9,3.9,70.9 c-5.2,23.6-19.7,69.1-58.6,108c-8.8,8.8-18.8,15.9-29.5,21c-8.3,4-18.1,2.9-25.4-2.7c-3.5-2.7-7.8-5.5-12.4-7.5 c-4.3-1.9-5.8-7.2-3.3-11.2c1.2-1.9,2.3-3.8,3.3-5.7c2.3-4.2,6.7-6.9,11.5-7.1C347.3,218.2,366.6,216.3,383.7,208.6z M246.8,264.4 c0.6-4.1,2.7-8.2,6.1-11.6c4-4,9.2-6.2,13.7-6.2c2.7,0,5.2,0.8,6.9,2.5c5.2,5.2,6.1,12.6,6.1,16.5c0.1,6.2-1.5,10.6-2.4,11.5 c-3,3-19.2,5-28-3.7v0C247.1,271.2,246.3,268,246.8,264.4z M253.5,235.6c-0.6,4.1-2.7,8.2-6.1,11.6c-3.3,3.3-7.5,5.5-11.6,6.1 c-3.7,0.5-6.9-0.4-9-2.4c-9.3-9.3-5.8-26-3.7-28c1.4-1.4,5.6-2.5,10.6-2.5c5.8,0,12.7,1.6,17.4,6.3v0 C253.1,228.7,254,231.9,253.5,235.6z M275.3,240.5c-1.7-1.1-3.6-1.4-5.6-1.6c-1.1-0.1-1.6-1.4-0.8-2.2l0,0c0.3-0.3,0.7-0.4,1.1-0.4 c2.6,0.4,6.8,0.9,11.7,0.9c6.1,0,13.1-0.8,19.2-3.6c1.7-0.8,2.7-2.7,2.3-4.5c-0.6-2.5-3.3-3.6-5.5-2.6c-5.7,2.6-12.6,3.1-18.3,2.9 c-1.2,0-1.8-1.5-0.9-2.4l8.6-8.6c2.7-2.7,6.5-4.2,10.4-4.2c0.1,0,0.2,0,0.2,0c0.1,0,0.1,0,0.2,0c6.4,0,11.3-1.7,14.7-4.9 c1.4-1.4,1.8-3.6,0.6-5.2c-1.4-2-4.3-2.2-6-0.5c-0.9,0.9-2,1.5-3.2,1.9c-1.5,0.5-2.6-1.3-1.5-2.4l5.5-5.5c1.4-1.4,1.7-3.6,0.6-5.1 c-1.4-2-4.3-2.2-6-0.5l-29.6,29.6c-0.9,0.9-2.3,0.3-2.4-0.9c0-1.5,0-3.1,0-4.8c0.1-2.2-1.6-4-3.7-4.1c-2.2-0.1-4,1.6-4.1,3.7 c-0.3,6.1,0.3,11.6,0.8,14.8c0.1,0.6-0.2,1.1-0.8,1.4c-0.8,0.3-1.6-0.2-1.7-1.1c-0.6-3.6-2.2-6.8-4.7-9.3c-1.3-1.3-2.7-2.4-4.2-3.4 c-2.5-1.6-3.5-4.7-2.5-7.5c1.9-5.2,4.9-10.2,9.1-14.4c14.7-14.7,32.3-20.1,41.5-22c5.4-1.1,10.1-1.5,13.9-1.5 c6.3,0,10.3,1.1,11.3,2.2c2.2,2.2,4,11.6,0.9,25.6c-2,9-7.5,26.3-22.3,41.1c-4.2,4.2-9,7.3-14.3,9.2c-2.8,1-5.9-0.1-7.6-2.6 C280.5,244.9,278.1,242.4,275.3,240.5z M249.4,195.3c-2.7,3.6-5.7,8.3-7.1,13.1c-0.8,2.6-3.3,4.3-6,4.2c-0.6,0-1.1-0.1-1.7-0.1 c-3.4-0.1-6-3-5.8-6.4c0.9-12.6,0.4-30-6.3-44.5c-1-2.2-3.9-3-5.9-1.5c-1.5,1.1-1.9,3.1-1.2,4.8c6.4,13.9,6.4,31.3,5.4,43.1 c-0.2,2.6-3.3,3.7-5.1,1.9l-9.9-9.9c-2.9-2.9-4.3-7-3.9-11c0.9-7.5,1.4-18.9-1.6-29.5c-0.6-2.2-2.9-3.4-5-2.6c-2,0.7-3,2.9-2.4,4.9 c1.9,6.9,2.1,14.4,1.8,20.6c-0.1,2.4-3,3.5-4.7,1.8l-12.8-12.8c-2.7-2.7-4.2-6.5-3.9-10.4c0.2-2.8,0.2-6-0.2-9.4 c-0.3-2.1-2.2-3.7-4.3-3.4c-2.1,0.3-3.7,2.2-3.4,4.3l0,0.1c0.3,2.6-2.8,4.1-4.6,2.2l-6-6c-1.3-1.3-3.4-1.6-5-0.6 c-2.1,1.4-2.4,4.3-0.6,6l6,6c1.8,1.8,0.3,5-2.3,4.6l-0.1,0c-2.2-0.3-4.2,1.4-4.4,3.6c-0.2,2.1,1.5,4,3.7,4.2 c1.9,0.2,3.8,0.3,5.6,0.3c1.3,0,2.5,0,3.6-0.1c3.9-0.2,7.7,1.2,10.4,3.9l12.7,12.7c1.7,1.7,0.6,4.6-1.8,4.7 c-3.7,0.2-7.9,0.2-12.2-0.3c-2.4-0.3-4.5,1.7-4.3,4.3c0.2,1.9,1.8,3.3,3.6,3.5c3,0.3,5.9,0.4,8.7,0.4c4.1,0,7.9-0.3,11-0.6 c4-0.4,8.1,1,10.9,3.9l9.8,9.8c1.8,1.8,0.7,4.9-1.9,5.1c-11.9,1-29.2,0.9-42.9-5.3c-2.2-1-4.8,0.2-5.4,2.7 c-0.4,1.9,0.6,3.7,2.4,4.5c11.2,5,24.1,6.4,35.2,6.4c3.2,0,6.3-0.1,9.2-0.3c3.4-0.2,6.3,2.5,6.4,5.9l0,0.2c0,0.5,0,0.9,0.1,1.4 c0.1,2.6-1.5,5-3.9,5.8c-5.3,1.9-10.1,4.9-13.5,7.5c-4.4,3.3-10.2,4-15.2,1.8c-7.2-3.2-14-7.7-19.9-13.6 c-24.4-24.4-33.4-53.6-36.6-68.8c-4.9-23.5-1.9-39.7,1.7-43.3c2.9-2.9,10.3-4.8,20.7-4.8c6.7,0,14.6,0.8,23.3,2.7 c14.9,3.3,43.7,12.5,68.2,37c5.8,5.8,10.4,12.4,13.7,19.6C253.5,184.8,252.7,190.8,249.4,195.3z M196,258.8c4.2-4.2,9-7.3,14.3-9.2 c2.8-1,5.9,0.1,7.5,2.6c1,1.5,2.1,3,3.4,4.2c1.1,1.1,2.4,2,3.7,2.7c0,0,0.5,0.2,0.5,0.5c0,0.5-0.5,0.5-0.5,0.5 c-0.5,0-1-0.1-1.5-0.1c-2.2-0.1-4.2,1.8-4,4.1c0.1,2.1,1.9,3.6,3.9,3.7l0,0c1.2,0,1.8,1.5,0.9,2.3l-7.7,7.7 c-2.8,2.8-6.7,4.4-10.6,4.2c-6.1-0.2-14.4,0.6-19.8,5.9c-1.4,1.4-1.8,3.6-0.7,5.2c1.4,2.1,4.3,2.2,6,0.6c2.2-2.2,5.7-3.3,9.2-3.6 c1.4-0.1,2.2,1.5,1.2,2.5l-10.5,10.5c-1.6,1.6-1.7,4.3,0,5.8c0.7,0.7,1.7,1,2.6,1c1,0,2-0.4,2.8-1.1l10.5-10.5c1-1,2.7-0.2,2.5,1.2 c-0.4,3.5-1.3,6.8-3.4,9c-1.5,1.6-1.6,4.2,0,5.7c0.8,0.7,1.7,1.1,2.7,1.1c1,0,2-0.4,2.8-1.1c3.9-3.9,5.9-9.9,6-17.8 c0-0.7,0-1.4,0-2c-0.1-4,1.4-7.9,4.2-10.7l7.7-7.7c0.8-0.8,2.3-0.3,2.3,0.9c0.2,5.7-0.3,12.8-2.8,18.5c-0.9,2-0.2,4.3,1.7,5.3 c0.6,0.3,1.2,0.4,1.7,0.4c1.5,0,2.9-0.9,3.6-2.3c3.1-7,3.8-15.1,3.6-21.8c0-1,1.3-1.4,1.8-0.5c0.6,0.9,1.3,1.7,2,2.5 c1.3,1.3,2.7,2.4,4.2,3.4c2.5,1.6,3.5,4.7,2.5,7.5c-1.9,5.3-5,10.3-9.1,14.3c-14.7,14.7-32.3,20.1-41.5,22c-14.2,3-23.6,1-25.2-0.6 C169.3,320.2,170.7,284.1,196,258.8z M251,305c2.4-3.2,5.2-7.7,7.1-13.4c0.9-2.6,3.3-4.3,6-4.1c0.8,0,1.5,0.1,2.3,0.1 c0.1,0,0.2,0,0.3,0c3.5,0,6.3,2.9,6,6.4c-0.3,4.4-0.5,9.5-0.4,14.8c0.1,2.1,1.8,3.8,3.9,3.8c0.2,0,0.4,0,0.9-0.2 c1.9-0.6,3.1-2.4,3-4.4c-0.2-5.4,0.1-10.5,0.5-14.9c0.2-2.5,3.3-3.7,5.1-1.8l6.2,6.2c2.9,2.9,4.3,7,3.8,11.1 c-0.8,6.9-1.3,16.9,0.9,26.6c0.4,1.8,2,3.1,3.8,3.1c0.5,0,0.9-0.1,1.4-0.2c1.8-0.7,2.8-2.7,2.4-4.6c-1.4-6.2-1.5-12.8-1.2-18.2 c0.1-2.4,3-3.5,4.7-1.8l15.3,15.3c2.8,2.8,4.2,6.6,3.9,10.5c-0.5,7.4,0.2,18.3,7,25.1c0.8,0.8,1.8,1.1,2.8,1.1c1,0,1.9-0.4,2.7-1.1 c1.6-1.5,1.5-4.2,0-5.7c-2.7-2.8-4-6.9-4.5-11.2c-0.3-2.6,2.9-4.1,4.7-2.2l5.5,5.5c0.8,0.8,1.8,1.1,2.8,1.1c0.9,0,1.9-0.3,2.6-1 c1.7-1.5,1.6-4.2,0-5.8l-5.2-5.2c-1.9-1.9-0.3-5,2.3-4.7c4.2,0.5,8.3,1.8,11,4.4c1.5,1.4,3.8,1.6,5.4,0.3c1.8-1.5,1.8-4.1,0.2-5.7 c-6.7-6.7-17.7-7.4-25.1-6.9c-3.9,0.2-7.6-1.2-10.4-3.9l-15.3-15.3c-1.7-1.7-0.6-4.6,1.8-4.7c10.7-0.5,25.2,0.6,33.6,8.8 c1.5,1.5,3.9,1.7,5.5,0.3c1.7-1.5,1.8-4.1,0.2-5.7c-12.3-12.3-34.1-12-46.1-10.7c-4,0.4-8-1-10.9-3.9l-6.2-6.2 c-1.8-1.8-0.7-4.9,1.9-5.1c5.2-0.4,11.5-0.6,18.1-0.2c2.2,0.1,4.1-1.6,4.2-3.8c0-2.1-1.7-3.8-3.9-4c-6.5-0.4-12.6-0.2-17.9,0.2 c-3.4,0.3-6.4-2.4-6.4-5.9c0-0.4,0-0.9,0-1.3c0-0.5,0-1-0.1-1.4c-0.1-2.6,1.5-4.9,3.9-5.8c6-2.2,10.5-5,13.7-7.4 c4.4-3.3,10.3-4.1,15.3-1.8c7.2,3.2,14,7.8,19.6,13.5c24.4,24.4,33.4,53.6,36.6,68.8c4.9,23.5,1.9,39.7-1.7,43.3 c-4.7,4.7-21.7,7-44,2.1c-14.9-3.3-43.7-12.5-68.2-37c-5.8-5.8-10.4-12.4-13.5-19.4C246.8,315.4,247.6,309.4,251,305z M166.9,109.1 c-2.6-14.4-8.1-26.1-16.3-34.3c-1.3-1.3-3.5-1.7-5-0.6c-2.1,1.4-2.3,4.3-0.6,6c7.5,7.5,11.7,17.6,13.8,28.1 c0.5,2.5-1.6,4.9-4.1,4.7c-11.8-1-22,0-28.8,2.9c-1.8,0.8-3.9,0.4-5.3-1h0c-1.1-1.1-1.6-2.6-1.3-4.1c1-6.8,2.3-20-1.1-32 c-0.6-2.2-2.9-3.4-5-2.6c-2,0.7-3,2.9-2.4,4.9c1.5,5.4,1.9,11.2,1.8,16.4c-0.1,3.4-4.2,5.1-6.7,2.7C99.7,94.1,90.6,85,87.2,81.5 c-1.3-1.3-3.4-1.6-5-0.6c-2.1,1.4-2.4,4.3-0.6,6l18.6,18.6c2.4,2.4,0.7,6.6-2.7,6.7c-9.8,0.1-21.7-1.5-28.8-8.5 c-1.5-1.5-3.9-1.7-5.5-0.3c-1.7,1.5-1.8,4.1-0.2,5.7c8.8,8.8,22.6,10.9,33.9,10.9c5.7,0,10.7-0.5,14.1-1c1.5-0.2,3,0.3,4,1.3 l0.2,0.2c1.3,1.3,1.7,3.3,1,5.1c-2.6,6.8-3.5,17-2.5,28.7c0.2,2.6-2.1,4.6-4.6,4.1c-10.8-2.1-21.1-6.2-28.7-13.6 c-1.5-1.5-3.9-1.7-5.5-0.3c-1.7,1.5-1.8,4.1-0.2,5.7c8.3,8.3,20.1,13.8,35.1,16.3c3.4,0.6,6.1,3.1,6.9,6.4c1.3,5.4,3.7,14,7.4,23.3 c1.2,3.1-1.7,6.3-4.9,5.2c-2.3-0.8-4.5-1.7-6.6-2.6c-1.9-0.9-4.3-0.2-5.3,1.6c-1,2-0.2,4.5,1.9,5.4c6,2.7,12.5,4.9,19.6,6.5 c2.2,0.5,4.1,1.9,5.3,3.9c1.9,3.1,3.9,6.2,6.1,9.4c3.2,4.5,1.4,10.8-3.6,13.1c-1.8,0.8-3.5,1.6-5.2,2.5c-7.5,3.8-16.6,2.8-23.1-2.5 c-3-2.4-5.9-5-8.7-7.8c-40.9-40.9-55.9-89.7-61.2-115.2c-7.6-36.6-4.2-66.4,3.5-74.1c5.2-5.2,18-8.8,36.1-8.8 c11.2,0,24.4,1.4,39.1,4.6c25,5.5,73.1,20.9,114.1,61.9c2.8,2.8,5.4,5.7,7.9,8.7c5.3,6.5,6.4,15.6,2.6,23.1 c-0.9,1.7-1.7,3.4-2.5,5.2c-2.3,5.1-8.6,6.9-13.2,3.6c-3.1-2.2-6.2-4.3-9.2-6.1c-1.9-1.2-3.3-3.1-3.8-5.2 c-1.6-6.8-3.8-13.4-6.7-19.8c-0.9-1.9-3.1-2.9-5.1-2.1c-2.1,0.8-3,3.3-2.1,5.3c0.9,2,1.8,4,2.5,6.1c1.2,3.3-2,6.4-5.2,5 c-8.8-3.9-17.4-6.1-22.8-7.2C170.1,115.2,167.5,112.5,166.9,109.1z M250.6,337.1c5.3,7,6.4,16.4,2.8,24.4 c-5.1,11.3-12.4,21.8-21.4,30.9c-46.7,46.7-108.2,62-146.1,61.9c-16.4,0-28.4-2.9-32.8-7.3c-7.9-7.9-11.8-34.9-3.9-70.9 c5.2-23.6,19.7-69.1,58.6-108c8.8-8.8,18.9-16,29.7-21.1c8.2-3.9,17.9-3,25.1,2.5c3.5,2.7,7.8,5.5,12.5,7.8 c4.2,2.1,5.8,7.3,3.2,11.3c-1.2,1.9-2.3,3.8-3.3,5.6c-2.3,4.2-6.6,7-11.4,7.1c-8.7,0.3-17.8,1.3-26.8,3.3c-2,0.4-3.4,2.3-3.2,4.3 c0.3,2.3,2.5,3.8,4.7,3.3c7.4-1.7,15.1-2.6,22.4-3c3.7-0.2,6.7,3.2,5.8,6.9c-0.2,0.7-0.3,1.4-0.5,2c-1.5,6.6-2,12.9-1.8,18.2 c0.2,3.4-2.6,6.1-6,5.8c-4.8-0.5-10.5-0.9-16.6-0.9c-22.8,0.1-40.8,6.1-52,17.2c-1.3,1.3-1.7,3.5-0.6,5c1.4,2.1,4.3,2.3,6,0.6 c15-15,41-15.9,58.4-14.6c4.2,0.3,6.1,5.5,3.1,8.5l-20.8,20.8c-4.9,4.9-11.7,7.4-18.7,7c-11.2-0.7-27.2,0.4-37.3,10.3 c-1.3,1.3-1.6,3.5-0.6,5c1.4,2.1,4.3,2.3,6,0.6c6-6,15.2-7.9,23.6-8.2c4.5-0.2,6.9,5.3,3.7,8.5L88,406.5c-1.5,1.5-1.5,4,0,5.5 c0.8,0.8,1.8,1.1,2.8,1.1s2-0.4,2.8-1.1l24.3-24.3c3.2-3.2,8.7-0.8,8.5,3.7c-0.3,8.3-2.2,17.5-7.9,23.3c-1.6,1.6-1.7,4.3-0.1,5.8 c0.7,0.7,1.7,1,2.6,1c1,0,2-0.4,2.8-1.1c9.9-9.9,10.9-26.2,10.3-37.5c-0.4-6.9,2.2-13.6,7.1-18.5l20.7-20.7c3-3,8.2-1.1,8.5,3.2 c1.2,17.5,0.2,43.5-14.3,58c-1.6,1.6-1.6,4.3,0,5.8c0.7,0.7,1.7,1,2.6,1c1,0,2-0.4,2.8-1.1c11.1-11.1,16.8-28.5,17.1-51.9 c0.1-6.4-0.3-12.3-0.8-17.2c-0.3-3.3,2.3-6.2,5.7-6c0.8,0,1.7,0.1,2.5,0.1c5.2,0,11.3-0.7,17.6-2.2c3.6-0.9,7,2,6.8,5.7 c-0.4,8-1.4,16.4-3.3,24.4c-0.5,2,0.5,4.1,2.4,4.8c0.5,0.2,0.9,0.3,1.4,0.3c1.8,0,3.4-1.2,3.8-3c2.3-9.7,3.4-19.6,3.8-29 c0.2-4.9,3-9.2,7.3-11.5c1.9-1,3.7-2,5.5-3.2c4.1-2.5,9.2-1.2,11.5,3.1C244.9,329.2,247.8,333.5,250.6,337.1z M381.4,298.6 c2.1,0.7,4.1,1.6,6.1,2.5c1.9,0.9,4.3,0.2,5.3-1.6c1-2,0.2-4.5-1.9-5.4c-6-2.7-12.5-4.9-19.6-6.5c-2.2-0.5-4.1-1.9-5.3-3.9 c-1.9-3.1-3.9-6.2-6.1-9.4c-3.2-4.5-1.4-10.8,3.6-13.1c1.8-0.8,3.5-1.6,5.2-2.5c7.5-3.8,16.6-2.8,23.1,2.5c3,2.4,5.9,5,8.7,7.8 c70.9,70.9,73.2,173.9,57.8,189.3c-8.4,8.4-37,12.6-75.1,4.2c-25-5.5-73.1-20.9-114.1-61.9c-2.8-2.8-5.4-5.7-7.9-8.7 c-5.3-6.5-6.4-15.6-2.6-23.1c0.9-1.7,1.7-3.4,2.4-5.2c2.3-5.1,8.6-6.9,13.2-3.6c3.1,2.2,6.2,4.3,9.2,6.1c1.9,1.2,3.3,3.1,3.8,5.3 c1.6,6.8,3.8,13.5,6.8,19.9c0.7,1.4,2.1,2.3,3.5,2.3c0.7,0,1.5-0.2,2.2-0.7c1.6-1.1,2.1-3.3,1.3-5.1c-0.9-2-1.7-4-2.5-6 c-1.2-3.3,2.1-6.4,5.2-5c5.7,2.5,13.8,5.7,22.6,7.4c3.4,0.7,6.2,3.3,6.8,6.8c2.7,14.4,8.2,26.1,16.4,34.3c0.8,0.8,1.8,1.1,2.8,1.1 c0.9,0,1.9-0.3,2.6-1c1.6-1.5,1.6-4.2,0-5.8c-7.4-7.5-11.6-17.6-13.7-28c-0.5-2.5,1.6-4.9,4.1-4.7c2.9,0.3,5.8,0.4,8.5,0.4 c8.2,0,15.2-1.1,20.4-3.3c1.8-0.8,3.9-0.4,5.2,1l0,0c1.1,1.1,1.6,2.6,1.3,4.1c-1.6,10.1-3.6,34.4,10,48c0.8,0.8,1.8,1.1,2.8,1.1 c0.9,0,1.9-0.3,2.6-1c1.7-1.5,1.5-4.2,0-5.8c-7.2-7.4-8.8-19.3-8.6-29c0.1-3.4,4.2-5.1,6.7-2.7l26.2,26.2c0.8,0.8,1.8,1.1,2.8,1.1 s2-0.4,2.8-1.1c1.5-1.5,1.5-4,0-5.5l-26-26c-2.4-2.4-0.8-6.6,2.7-6.7c0.5,0,1,0,1.6,0c8.6,0.1,20.3,1.6,27.3,8.5 c1.5,1.5,3.9,1.7,5.5,0.4c1.7-1.5,1.8-4.1,0.2-5.7c-13.3-13.3-37.9-11.4-48-9.9c-1.5,0.2-3-0.3-4-1.3l-0.2-0.2 c-1.3-1.3-1.7-3.3-1-5.1c2.6-6.8,3.5-17,2.5-28.7c-0.2-2.6,2.1-4.6,4.6-4.1c10.8,2.1,21.2,6.2,28.7,13.6c1.5,1.5,3.9,1.7,5.5,0.3 c1.7-1.5,1.8-4.1,0.2-5.7c-8.3-8.3-19.9-13.7-34.8-16.3c-3.5-0.6-6.3-3.3-7-6.8c-1.8-9.2-4.8-17.2-7.2-22.7 C375.1,300.7,378.2,297.5,381.4,298.6z" class="st87"/></g></svg>