<svg xmlns="http://www.w3.org/2000/svg" xmlns:xlink="http://www.w3.org/1999/xlink" id="Layer_1" x="0" y="0" version="1.1" viewBox="0 0 64 64" xml:space="preserve" style="enable-background:new 0 0 64 64"><style type="text/css">.st13{fill:#fff}.st34{fill:#699273}.st48{fill:#c69c6d}.st49{fill:#ecee9a}</style><g><path d="M50.3,17.4l-1.2-2.8c0,0,3-1.4,4.9-4.4c0.3-0.5,0.1-1.1-0.3-1.4c-1.4-0.9-3.3-2.4-4.8-4.6 c-0.3-0.5-0.2-1.2,0.3-1.4L50,2.4c0.4-0.3,1-0.1,1.3,0.3c2.2,3.3,5.5,4.5,5.5,4.5l0.4,0.2c0.5,0.2,0.8,0.7,0.6,1.2l-0.1,0.5 C55.9,14.9,50.5,17.3,50.3,17.4z" class="st48"/></g><path d="M12.1,53.5c8.9,8.6,22.5,9.3,33.1-1c9.7-9.4,16-22.9,8.2-33.5c-0.9-1.2-2.2-1.4-3.5-2.6	c-1.2-1.3-1.3-2.7-2.5-3.6c-10.3-8.1-24.1-2.1-33.7,7.2C3.2,30.3,3.3,43.9,11.7,53L12.1,53.5z" class="st49"/><path d="M27.8,60.6c-5.7,0-11.4-2.2-16-6.7l-0.5-0.5c-9-9.9-8.1-23.8,2.1-33.7c9-8.7,23.4-15.8,34.3-7.2	c0.7,0.6,1.1,1.3,1.5,2c0.3,0.6,0.6,1.1,1.1,1.7c0.5,0.5,1.1,0.8,1.6,1.1c0.7,0.4,1.4,0.8,1.9,1.5c8.3,11.3,0.8,25.4-8.2,34.1	C40.2,58,34,60.6,27.8,60.6z M12.5,53.2c9.3,8.9,22.6,8.5,32.4-1c8.7-8.4,16.1-22.1,8.1-32.8c-0.4-0.6-1-0.9-1.6-1.2	c-0.6-0.3-1.2-0.7-1.8-1.3c-0.6-0.7-0.9-1.3-1.2-1.9c-0.3-0.7-0.6-1.2-1.2-1.7C36.7,5,22.8,12,14.1,20.4C4.3,29.9,3.4,43.2,12,52.7	L12.5,53.2z" class="st34"/><g><path d="M17.2,24.1c-0.1,0-0.3-0.1-0.4-0.2c-0.2-0.2-0.2-0.5,0-0.7c5.7-5.6,12.3-9.1,17.9-9.7c0.3,0,0.5,0.2,0.5,0.4 c0,0.3-0.2,0.5-0.4,0.5c-5.4,0.6-11.7,4-17.3,9.4C17.5,24.1,17.3,24.1,17.2,24.1z" class="st13"/></g><path d="M54.6,18.1c-0.7-0.9-1.5-1.4-2.3-1.8c-0.5-0.3-1-0.5-1.4-0.9c-0.4-0.4-0.6-0.9-0.9-1.4	c-0.4-0.8-0.8-1.6-1.7-2.3C36.9,2.7,22,10,12.7,19C2,29.3,1.2,43.7,10.6,54.1l0.5,0.5c4.9,4.7,10.7,7,16.7,7c6.4,0,12.9-2.7,18.4-8	C55.5,44.6,63.3,29.9,54.6,18.1z M13.2,52.5L13,52.3C8.8,47,14.8,36.8,22.7,29C36,15.9,44.5,13.4,47.9,15.5c0.1,0.1,0.2,0.3,0.2,0.6	c0.1,0.4,0.2,0.8,0.4,1.2l0.1,0.1c0.4,0.3,0.8,0.4,1.1,0.5c0.4,0.1,0.5,0.1,0.6,0.3c2.8,5.6-5.5,16.8-14.2,25.4	C25.3,54.3,16.8,55.8,13.2,52.5z M14.8,21.1c8.4-8.1,21.6-14.8,31.5-7.3C38.5,12.8,26,24.4,22,28.3C14,36.3,9.9,44,10.8,49.4	C4.8,40.7,6.2,29.4,14.8,21.1z M44.1,51.5c-8.3,8.1-19.2,9.3-27.8,3.6c0.4,0.1,0.9,0.1,1.4,0.1c5.1,0,12-3.8,19.2-10.8	c4-4,16.1-16.7,15-24.6c0.1,0.1,0.2,0.2,0.3,0.3C59.7,30.1,52.6,43.3,44.1,51.5z" class="st34"/><g><path d="M28.2,29.2c-0.1,0-0.3-0.1-0.4-0.2c-0.2-0.2-0.2-0.5,0-0.7c2.9-2.6,5.7-4.9,8.3-6.6c0.2-0.2,0.5-0.1,0.7,0.1 c0.2,0.2,0.1,0.5-0.1,0.7c-2.6,1.7-5.3,3.9-8.2,6.5C28.4,29.1,28.3,29.2,28.2,29.2z" class="st13"/></g><g><circle cx="39.9" cy="20" r=".5" class="st13"/></g></svg>