<svg xmlns="http://www.w3.org/2000/svg" xmlns:xlink="http://www.w3.org/1999/xlink" style="enable-background:new 0 0 64 64" x="0" y="0" version="1.1" viewBox="0 0 64 64" xml:space="preserve"><style type="text/css">.st1{fill:#e00}.st2{fill:#9a0601}.st7{fill:#184c28}.st21{fill:#fff}.st53{fill:#22b573}</style><g id="Layer_2"><path d="M17.8,12.9c-2.3-1.9-4-4.1-4.6-6.5c0,0,6.4,2.7,14.2,3.6L32,1.9l4.5,8C44.1,9,50.8,6.4,50.8,6.4 c-0.8,2.2-2.2,4.2-3.9,5.8l-14.1-1.9L17.8,12.9z" class="st53"/><path d="M16.3,13.5c-2.2-2-3.9-4.3-4.5-6.7c-0.2-0.6,0-1.1,0.5-1.5c0.4-0.4,1-0.5,1.6-0.3c0.1,0,5.8,2.4,12.8,3.3 l4.1-7.2C31,0.7,31.5,0.4,32,0.4s1,0.3,1.3,0.8l4,7.1C44.2,7.3,50.2,5,50.3,5c0.5-0.2,1.2-0.1,1.6,0.3c0.4,0.4,0.6,1,0.4,1.6 c-0.8,2.1-2,4-3.6,5.7l-3.3-1C46.2,10.8,47,10,47.7,9c-2.7,0.8-6.7,1.8-11,2.4c0,0-1.5-0.7-1.5-0.7L32,4.9l-3.3,5.8l-5.2,0.2 c-2.9-0.5-5.4-1.2-7.3-1.8c0.8,1.1,1.9,2.2,3.2,3.1L16.3,13.5z" class="st7"/><g><path d="M2.1,36.2c0,14.3,13.5,25.9,30.1,25.9c17.2,0,30.1-10.4,30.1-24.1c0-18-9.4-27.9-26.6-27.9 C35.7,10.1,2.1,7.4,2.1,36.2z" class="st1"/></g><path d="M35.7,8.6L35.7,8.6c-1.2,0-2.5,0-3.8,0.1c-7.1,0.5-14.5,1.6-20.6,5.3C4.2,18.5,0.6,25.9,0.6,36.2 c0,15.1,14.2,27.4,31.6,27.4c8.4,0,16.3-2.4,22.1-6.9c6.2-4.7,9.6-11.4,9.6-18.8C63.8,12.5,46.2,8.6,35.7,8.6z M3.6,36.2 c0-17.2,10.8-22,22-23.7c-1.8,1.2-3.5,3-4.8,5.9c-0.1,0.3,0,0.5,0.3,0.7c0.3,0.1,0.5,0,0.7-0.3c2.4-5.4,6.2-6.8,9.9-7.4 C34,11,36,11.5,37.8,13c4.1,3.5,6.2,11.9,6.2,25.2c0,13.1-5.4,23-12.5,23c-3.6,0-7.1-3.2-9.5-8.8c-0.1-0.3-0.4-0.4-0.7-0.3 c-0.3,0.1-0.4,0.4-0.3,0.7c1.4,3.3,3.2,5.8,5.2,7.4C13.3,57.8,3.6,48,3.6,36.2z M36.8,60.4c4.9-3.5,8.1-11.8,8.1-22.2 c0-13.5-2.2-22.3-6.6-25.9c-0.2-0.2-0.4-0.3-0.7-0.5c11.7,0.6,23.1,6.4,23.1,26.3C60.8,50.1,50.4,58.8,36.8,60.4z" class="st2"/><g><g><path d="M8.9,27.9c-0.1,0-0.1,0-0.2,0c-0.3-0.1-0.4-0.4-0.3-0.6c1.3-3.4,3.4-5.9,6.6-7.8c0.2-0.1,0.5-0.1,0.7,0.2 c0.1,0.2,0.1,0.5-0.2,0.7c-2.9,1.7-4.9,4.1-6.1,7.3C9.3,27.8,9.1,27.9,8.9,27.9z" class="st21"/></g><g><path d="M48.9,27.4c-0.2,0-0.5-0.2-0.5-0.4c-0.4-3.2-1-6.1-1.8-8.5c-0.1-0.3,0.1-0.5,0.3-0.6 c0.3-0.1,0.5,0.1,0.6,0.3c0.8,2.5,1.4,5.4,1.8,8.7C49.4,27.1,49.2,27.3,48.9,27.4C48.9,27.4,48.9,27.4,48.9,27.4z" class="st21"/></g><g><path d="M23.3,26.3C23.3,26.3,23.3,26.3,23.3,26.3c-0.4-0.1-0.5-0.3-0.5-0.6c0.9-5,2.5-8.2,4.9-9.8 c0.2-0.2,0.5-0.1,0.7,0.1c0.2,0.2,0.1,0.5-0.1,0.7c-2.2,1.4-3.6,4.4-4.5,9.1C23.8,26.1,23.6,26.3,23.3,26.3z" class="st21"/></g><g><circle cx="22.9" cy="29.2" r=".5" class="st21"/></g></g></g></svg>