<svg xmlns="http://www.w3.org/2000/svg" xmlns:xlink="http://www.w3.org/1999/xlink" id="Layer_1" x="0" y="0" version="1.1" viewBox="0 0 500 500" xml:space="preserve" style="enable-background:new 0 0 500 500"><style type="text/css">.st6{fill:#f22f2e}.st10{fill:#fff}.st13{fill:#7b000e}.st61{fill:#8a9d1f}.st62{fill:#1b4700}</style><g><path d="M354.6,99.4c45.2,39.8,39.4,120.3-32.3,201.8c-80.4,91.3-288.7,198.5-306.3,183s62.3-235.8,142.6-327.1 C230.3,75.7,309.4,59.7,354.6,99.4z" class="st6"/><path d="M63.4,412.5c-0.6,0-1.3-0.1-1.9-0.5c-2-1.1-2.8-3.6-1.8-5.6c8.2-16,19-35.3,31.3-55.9c1.2-2,3.7-2.6,5.7-1.5 c2,1.2,2.6,3.7,1.5,5.7c-12.1,20.5-22.9,39.7-31,55.5C66.3,411.7,64.9,412.5,63.4,412.5z" class="st10"/><path d="M362.8,90.1c-25.8-22.7-61.2-29.6-99.5-19.3c-38.8,10.4-78.3,37.4-114.1,78.1 C132,168.4,86.8,226.6,38.9,344.4c-13.8,34-25,66.6-31.5,91.9c-10,38.6-7.1,50.8,0.3,57.3c3.2,2.8,7.3,4.6,13.9,4.6 c8.8,0,21.9-3.2,42.9-11.6c24.3-9.7,55.2-25,87.1-43C262.5,381.2,314.4,329,331.6,309.5c35.8-40.7,57.6-83.3,63-123.1 C400,147,388.7,112.8,362.8,90.1z M312.9,293c-33,37.5-93.1,82.7-165,124.1c-29.7,17.1-59.3,32.2-83.3,42.5 c-7.9,3.4-14.5,5.9-19.9,7.9c-8.9,3.2-17.9-4.7-15.9-14c1.2-5.6,2.9-12.4,5.3-20.7c7.2-25.1,18.4-56.4,31.6-88 c32-76.6,69.2-142,102.2-179.4C210.3,117.2,257.8,91,297.3,91l0.2,0c6.2,0,8.4,8.3,2.9,11.3c-13.5,7.4-28.6,18.1-44.9,32 c-1.7,1.5-2.1,4.1-0.7,5.9c0.8,1,2,1.5,3.2,1.5c1,0,1.9-0.3,2.7-1c20.7-17.7,39.7-30.2,55.2-36.9c10.2-4.4,22-2.4,30.3,4.9v0 c0.7,0.6,1.4,1.3,2.1,1.9c7.6,7.2,10.6,18,8,28.1c-1.1,4.3-2.6,8.9-4.5,13.7c-10.5,26.9-31.8,59-61.6,92.8 C249.6,291.6,181.8,348.3,132,385.8c-1.8,1.4-2.2,4-0.8,5.8c0.8,1.1,2.1,1.7,3.3,1.7c0.9,0,1.7-0.3,2.5-0.8 c50.2-37.8,118.5-94.9,159.6-141.6c30.3-34.4,51.6-66.9,62.4-93.7c2.4-5.9,11.1-4.6,11.7,1.8C374,197.6,354,246.3,312.9,293z" class="st13"/><path d="M159.5,325.5c-1.5,0-2.9-0.8-3.7-2.2c-1.1-2-0.3-4.5,1.7-5.6c18.7-9.9,33.2-26.2,40.8-45.9 c4.7-12.3,11.6-23.6,20.5-33.5c8.8-9.9,19.2-18.1,30.9-24.2c18.7-9.9,33.2-26.2,40.8-45.9c0.8-2.1,3.2-3.2,5.4-2.4 c2.1,0.8,3.2,3.2,2.4,5.4c-8.3,21.6-24.2,39.5-44.7,50.3c-10.8,5.7-20.4,13.2-28.6,22.4c-8.2,9.2-14.5,19.6-18.9,31 c-8.3,21.6-24.2,39.5-44.7,50.3C160.8,325.3,160.1,325.5,159.5,325.5z" class="st13"/><path d="M225.8,270.9c-0.8,0-1.5-0.2-2.2-0.7c-1.9-1.2-2.5-3.8-1.3-5.7c3.1-4.9,6.7-9.5,10.5-13.9 c3.9-4.3,8.1-8.4,12.5-12.1c1.8-1.5,4.4-1.2,5.8,0.6c1.5,1.8,1.2,4.4-0.6,5.8c-4.1,3.4-8,7.1-11.6,11.2c-3.6,4-6.9,8.4-9.7,12.9 C228.5,270.2,227.2,270.9,225.8,270.9z" class="st10"/><ellipse cx="127.2" cy="291.5" class="st10" rx="4.7" ry="4.7" transform="matrix(0.6607 -0.7507 0.7507 0.6607 -175.642 194.4364)"/><ellipse cx="317.6" cy="141.5" class="st13" rx="4.7" ry="4.7" transform="matrix(0.6607 -0.7507 0.7507 0.6607 1.5271 286.4185)"/><ellipse cx="138.4" cy="345.1" class="st13" rx="4.7" ry="4.7" transform="matrix(0.6607 -0.7507 0.7507 0.6607 -212.1425 220.9885)"/><path d="M201.1,198.8c-1,0-2-0.3-2.7-1c-1.7-1.5-1.9-4.1-0.4-5.9c10.5-12,21.1-23.2,31.4-33.4c1.6-1.6,4.3-1.6,5.9,0 c1.6,1.6,1.6,4.3,0,5.9c-10.2,10.1-20.6,21.1-31,33C203.4,198.3,202.3,198.8,201.1,198.8z" class="st10"/><path d="M170.1,236.7c-0.9,0-1.8-0.3-2.5-0.9c-1.8-1.4-2.2-4-0.7-5.8c3.4-4.4,6.8-8.7,10.1-12.8 c1.4-1.8,4-2.1,5.8-0.7c1.8,1.4,2.1,4,0.6,5.8c-3.2,4.1-6.6,8.3-10,12.7C172.6,236.1,171.4,236.7,170.1,236.7z" class="st10"/><path d="M149.3,264.4c-0.8,0-1.7-0.3-2.4-0.8c-1.9-1.3-2.3-3.9-0.9-5.8c1.8-2.5,3.7-5,5.5-7.5c1.4-1.8,4-2.2,5.8-0.9 c1.8,1.4,2.2,4,0.9,5.8c-1.8,2.5-3.6,4.9-5.5,7.4C151.9,263.9,150.6,264.4,149.3,264.4z" class="st10"/><path d="M335.8,102.4C402,27.1,465.1,22.8,467.7,22.6c5.3-0.5,10,3.5,10.5,8.9c0.5,5.3-4.2,9.5-8.9,10.5 c-33.8,7.2-61.5,15.8-115.1,76.7l-0.4,0C344.9,117.9,337.5,111.2,335.8,102.4L335.8,102.4z" class="st61"/><path d="M498.9,29.6c-0.7-8.1-4.5-15.4-10.7-20.7c-6.2-5.3-14.1-7.8-22.3-7.1c-11.6,1-69.7,8.9-132.3,72.4 c2.3,0.9,4.6,1.9,6.8,3c4.4,2.2,5.5,8.1,2.1,11.6c-3.3,3.5-6.6,7-9.8,10.7l0,0c-0.8,1-1.2,2.3-1,3.5v0c2.1,10.7,11,18.7,21.8,19.6 l0.4,0c1.3,0.1,2.6-0.4,3.5-1.4l0,0c3.4-3.9,6.7-7.5,9.9-10.9c3.3-3.5,9-3,11.6,1.1c1.4,2.2,2.7,4.4,3.9,6.7 c43.3-45.8,65.5-50.6,91-56C489.4,58.9,500.2,44.9,498.9,29.6z M348.9,113.1c-2.8-1.3-5.2-3.4-6.8-6c-1.2-1.9-1-4.4,0.6-6.1 c61.2-67.2,118.8-73.7,125.3-74.3l0.1,0c1.5-0.1,2.9,0.3,4,1.3c1.1,1,1.8,2.3,2,3.8c0.3,3.1-3.1,5.6-5.6,6.1 c-35.4,7.5-62.6,16.9-113.7,73.9C353.3,113.5,350.9,114,348.9,113.1z" class="st62"/></g></svg>