<svg xmlns="http://www.w3.org/2000/svg" xmlns:xlink="http://www.w3.org/1999/xlink" id="Layer_1" x="0" y="0" version="1.1" viewBox="0 0 500 500" xml:space="preserve" style="enable-background:new 0 0 500 500"><style type="text/css">.st12{fill:#fff}.st85{fill:#f6e600}.st86{fill:#8dcc50}.st87{fill:#a2a121}.st93{fill:#dccf2f}</style><path d="M466.2,43.6C466.2,43.6,466.1,43.6,466.2,43.6C466.1,43.6,466.2,43.6,466.2,43.6z" class="st87"/><path d="M464.9,19.7C464.9,19.7,464.9,19.7,464.9,19.7C464.9,19.7,464.9,19.7,464.9,19.7z" class="st87"/><path d="M199.9,303.6c33.1-38.9,56.9-82.5,72.3-127.5c10.6-31.1,45.4-46.7,75.9-34.5l29.7,11.9	c29,11.6,43.8,44.3,32.8,73.5c-22.1,59-58.6,113.6-109,158.2c-77,68.2-173,101.2-268.4,100.3c-18.5-0.2-24.2-25-8-33.8	C69.2,427.8,131.8,383.6,199.9,303.6z" class="st85"/><path d="M252.7,387.8c-1.2,0-2.4-0.6-3.2-1.6c-1.3-1.8-0.9-4.3,0.9-5.6c9.5-6.9,18.7-14.3,27.5-22.1	c9.3-8.2,18.3-17.1,26.7-26.2c1.5-1.6,4-1.7,5.6-0.2c1.6,1.5,1.7,4,0.2,5.6c-8.6,9.4-17.8,18.4-27.3,26.8	c-9,7.9-18.4,15.5-28.1,22.6C254.3,387.5,253.5,387.8,252.7,387.8z" class="st93"/><path d="M331.6,309.9c-0.8,0-1.7-0.3-2.4-0.8c-1.8-1.3-2.1-3.8-0.8-5.6c19.2-25.8,34.9-53.8,46.5-83.4	c0.8-2,3.1-3,5.2-2.2c2,0.8,3,3.1,2.2,5.2c-11.9,30.2-27.9,58.9-47.6,85.2C334,309.3,332.8,309.9,331.6,309.9z" class="st93"/><path d="M266.1,347.3c-1,0-2-0.4-2.8-1.2c-1.5-1.6-1.5-4.1,0-5.6c32.9-32.5,59.6-72.3,77.2-115c0.8-2,3.2-3,5.2-2.2	c2,0.8,3,3.2,2.2,5.2c-18,43.7-45.3,84.3-78.9,117.6C268.1,346.9,267.1,347.3,266.1,347.3z" class="st93"/><path d="M473.5,31.2c-0.2-4.4-4-7.8-8.4-7.5c-38.8,2-72.9,26.8-86.9,63.1l-1.1,2.7c-11.4,29.6-29.3,56.2-52.5,77.9l0,0	c13.4,15.7,33.8,23.6,54.3,20.8l0-0.2c-2.7-31.6,1.7-63.4,13.1-93l1-2.6c11.7-30.4,40.3-51.2,72.8-52.9	C470.3,39.4,473.7,35.6,473.5,31.2z" class="st86"/><path d="M493.3,30.2L493.3,30.2c-0.4-7.4-3.6-14.3-9.2-19.3c-5.5-5-12.7-7.5-20.1-7.1C417.4,6.3,376.4,36,359.7,79.7	l-1.1,2.7c-4.8,12.5-11,24.6-18.4,35.8c-3.1,4.7-8.3,7.3-13.9,7.3c-9.9,0-19.9,2.1-29,6.3c-17.4,8-30.3,22.3-36.4,40.3	c-15.5,45.7-39.1,87.3-70,123.6C122.5,376.2,59.9,419.3,19.5,441.3C7.2,448,1.3,461.5,4.7,475c3.3,13.3,14.7,22.3,28.4,22.5	c1.4,0,2.7,0,4.1,0c100.4,0,197-36.6,272.3-103.3c50.1-44.4,88.9-100.7,112.3-163c6.4-17.1,5.8-35.7-1.7-52.5	c-3.7-8.2-8.8-15.5-15.1-21.6c-3.8-3.7-5.6-8.9-4.9-14.2c2-14,5.5-27.7,10.6-40.8l1-2.6c8.9-23.1,30.6-38.9,55.3-40.2	C482.3,58.7,494.1,45.6,493.3,30.2z M370.4,184.8c-13.7-0.1-26.8-5.1-37.1-14.2c-1.7-1.5-1.8-4.2-0.2-5.8	c20.8-20.9,37.2-46.3,47.8-73.8l1.1-2.7c13.4-34.8,46.1-58.6,83.4-60.5c1.1-0.1,2.1,0.3,2.9,1c0.8,0.7,1.3,1.7,1.3,2.7	c0.1,2.2-1.6,4.1-3.8,4.2c-34.1,1.8-64.1,23.5-76.3,55.4l-1,2.6c-10.6,27.6-15.3,57.5-13.9,87C374.6,183,372.7,184.8,370.4,184.8z M399.4,222.9c-22,58.6-58.6,111.7-105.8,153.5c-71.9,63.7-164.4,98.2-260.4,97.3c-3.8,0-5.1-2.8-5.5-4.4c-0.4-1.4-0.8-4.9,3.1-7	c42.2-23,107.4-67.8,178.1-150.9c32.9-38.6,57.9-82.8,74.5-131.4c4-11.7,12.5-21.1,23.8-26.3c6.2-2.8,12.7-4.3,19.2-4.3l0.1,0	c3.9,0,5.9,4.6,3.2,7.4c-2.5,2.6-5.1,5.2-7.8,7.7l0,0c-1.6,1.4-1.7,3.9-0.3,5.5l0,0c12.4,14.6,30.3,22.8,49.1,22.8	c2.9,0,5.8-0.2,8.8-0.6l0,0c2.1-0.3,3.6-2.2,3.4-4.3l0-0.2c-0.2-2.8-0.4-5.5-0.5-8.3c-0.2-4.2,5-6.2,7.8-3.1	C401.4,188.6,405.6,206.5,399.4,222.9z" class="st87"/><path d="M276.7,271.2c-0.7,0-1.4-0.2-2.1-0.6c-1.9-1.2-2.5-3.6-1.3-5.5c12.6-20.5,23.7-42.4,32.8-65.1	c0.8-2,3.1-3,5.2-2.2c2,0.8,3,3.1,2.2,5.2c-9.3,23.1-20.5,45.3-33.4,66.3C279.3,270.5,278,271.2,276.7,271.2z" class="st12"/><path d="M198.7,366.3c-1,0-2-0.4-2.8-1.2c-1.5-1.6-1.5-4.1,0-5.6c10.4-10.3,20.8-21.2,30.9-32.4c1.5-1.6,4-1.8,5.6-0.3	c1.6,1.5,1.8,4,0.3,5.6c-10.2,11.3-20.7,22.3-31.2,32.7C200.7,366,199.7,366.3,198.7,366.3z" class="st12"/></svg>