<svg xmlns="http://www.w3.org/2000/svg" xmlns:xlink="http://www.w3.org/1999/xlink" id="Layer_1" x="0" y="0" version="1.1" viewBox="0 0 64 64" xml:space="preserve" style="enable-background:new 0 0 64 64"><style type="text/css">.st2{fill:#d5df7f}.st3{fill:#80ac66}.st4{fill:#f9fbef}.st5{fill:#2f3f1a}.st6{fill:#e7ecb9}.st7{fill:#f0f3d4}.st8{fill:#dee59f}.st9{fill:#acc476}.st10{fill:#96b870}.st11{fill:#c0d17e}.st67{fill:#ceb699}</style><g><path d="M38.3,51.7l-0.4-16.1l4.9-30.6l-5.8-0.9l0-1.6H26.5l-0.1,2.7l-5,1l4.5,22.9l-0.4,22.5c0,1-0.3,2-0.5,3 c-0.3,1.1-0.3,2.1,0.3,3c0.6,0.9,1.4,1.3,3.3,1.8c0,0,3.7,1,6.8,0c1.9-0.5,2.7-0.9,3.3-1.8c0.5-0.8,0.6-1.9,0.3-3 C38.5,53.7,38.3,52.7,38.3,51.7z" class="st2"/><polygon points="25.9 29.9 38.8 29.9 42.7 5.1 36.9 4.2 36.9 2.6 26.5 2.6 26.5 5.3 21.4 6.3 25.9 29.2" class="st3"/><path d="M38.4,53h-13c-0.1,0.6-0.2,1.1-0.4,1.7c-0.3,1.1-0.3,2.1,0.3,3c0.6,0.9,1.4,1.3,3.3,1.8c0,0,3.7,1,6.8,0 c1.9-0.5,2.7-0.9,3.3-1.8c0.5-0.8,0.6-1.9,0.3-3C38.7,54.2,38.5,53.6,38.4,53z" class="st4"/><g><g><rect width="13" height="1" x="25.2" y="52.1" class="st6"/></g><g><rect width="13" height="1" x="25.2" y="53.1" class="st7"/></g><g><rect width="13" height="1" x="25.2" y="51.1" class="st8"/></g></g><g><g><rect width="13" height="1" x="25.2" y="30.1" class="st9"/></g><g><rect width="13" height="1" x="25.2" y="29.1" class="st10"/></g><g><rect width="13" height="1" x="25.2" y="31.1" class="st11"/></g></g><g><g><path d="M32.5,59.4v4c0,0.3-0.2,0.5-0.5,0.5s-0.5-0.2-0.5-0.5v-4H32.5z" class="st67"/></g><g><path d="M29.1,59l-0.5,4c0,0.3-0.2,0.4-0.5,0.4c0,0,0,0-0.1,0c-0.3,0-0.5-0.3-0.4-0.6l0.5-4L29.1,59z" class="st67"/></g><g><path d="M25.7,58.2l-0.8,3.3c-0.1,0.2-0.3,0.4-0.5,0.4c0,0-0.1,0-0.1,0c-0.3-0.1-0.4-0.3-0.4-0.6l0.8-3.3L25.7,58.2 z" class="st67"/></g><g><path d="M39.8,61.9c0.3-0.1,0.4-0.3,0.4-0.6l-0.8-3.2l-1,0.2l0.8,3.2C39.1,61.6,39.3,62,39.8,61.9z" class="st67"/></g><g><path d="M35.9,58.9l0.5,4c0,0.3-0.2,0.5-0.4,0.6c0,0,0,0-0.1,0c-0.2,0-0.5-0.2-0.5-0.4l-0.5-4L35.9,58.9z" class="st67"/></g><g><path d="M34.3,59.2c0,0.7,0.1,1.3,0.1,1.9c0,0.6,0.1,1.2,0.1,1.9c0,0.3-0.2,0.5-0.5,0.5c0,0,0,0,0,0 c-0.3,0-0.5-0.2-0.5-0.5c0-0.7-0.1-1.3-0.1-1.9c0-0.6-0.1-1.2-0.1-1.9L34.3,59.2z" class="st67"/></g><g><path d="M30.8,59.3c0,0.7-0.1,1.3-0.1,1.9c0,0.6-0.1,1.2-0.1,1.9c0,0.3-0.2,0.5-0.5,0.5c0,0,0,0,0,0 c-0.3,0-0.5-0.3-0.5-0.5c0-0.7,0.1-1.3,0.1-1.9c0-0.6,0.1-1.2,0.1-1.9L30.8,59.3z" class="st67"/></g><g><path d="M27.4,58.9l-0.6,3.4c0,0.2-0.3,0.4-0.5,0.4c0,0-0.1,0-0.1,0c-0.3,0-0.5-0.3-0.4-0.6l0.6-3.4L27.4,58.9z" class="st67"/></g><g><path d="M37.7,58.7l0.6,3.4c0,0.3-0.1,0.5-0.4,0.6c0,0-0.1,0-0.1,0c-0.2,0-0.4-0.2-0.5-0.4l-0.6-3.4L37.7,58.7z" class="st67"/></g></g><path d="M39.7,51.5l-0.4-16.7c0-0.1,0-0.1,0-0.2l4.9-30.8c0.1-0.5-0.3-1-0.8-1.1L39.1,2c-0.5-0.1-0.8-0.5-0.8-0.9v0 c0-0.5-0.5-1-1-1H26c-0.5,0-1,0.4-1,1l0,1.2c0,0.5-0.3,0.9-0.8,0.9l-3.6,0.7C20,4,19.7,4.5,19.8,5.1l4.6,23.2c0,0.1,0,0.1,0,0.2 l-0.4,23c0,0.8-0.2,1.6-0.5,2.6c-0.6,2-0.1,3.4,0.4,4.2c0.9,1.4,2.3,1.9,4.2,2.4c0.1,0,1.9,0.5,4,0.5c1.1,0,2.4-0.1,3.5-0.5 c1.8-0.5,3.2-1,4.1-2.4c0.5-0.8,1-2.2,0.4-4.2C39.9,53.1,39.7,52.3,39.7,51.5z M28.9,3.1h5.6c0.4,0,0.8,0.4,0.7,0.8l-2.6,15.3 L27.9,4.1c0,0-0.1-0.4,0.2-0.7C28.3,3.2,28.5,3.1,28.9,3.1z M37.2,56.6c-0.3,0.4-0.7,0.7-2.4,1.2c-2.5,0.8-5.7,0-5.9,0c0,0,0,0,0,0 c-1.7-0.5-2.1-0.7-2.4-1.2c-0.3-0.4-0.3-1-0.1-1.8c0.3-1.2,0.6-2.2,0.6-3.3l0.4-23.3l0-0.2L23.2,6.8c0-0.2,0.1-0.4,0.3-0.4L27,5.7 c0.2,0,0.4,0.1,0.4,0.2l8.8,28.6c0,0.1,0,0.2,0,0.3l0.4,16.7c0,1.2,0.3,2.2,0.6,3.4C37.5,55.6,37.5,56.2,37.2,56.6z M36.6,32.4 l-3.3-10.8c0-0.1-0.1-0.3,0-0.5L36,5c0-0.2,0.3-0.4,0.5-0.4l4,0.6c0.2,0,0.4,0.3,0.4,0.5L36.6,32.4z" class="st5"/></g></svg>