<svg xmlns="http://www.w3.org/2000/svg" xmlns:xlink="http://www.w3.org/1999/xlink" id="Layer_1" x="0" y="0" version="1.1" viewBox="0 0 500 500" xml:space="preserve" style="enable-background:new 0 0 500 500"><style type="text/css">.st14{fill:#fff}.st16{clip-path:url(#SVGID_2_)}.st67{fill:#e0c9bb}.st68{fill:#fa8d1b}.st69{fill:#68763a}.st70{fill:#d2614d}</style><g><g><defs><path id="SVGID_23_" d="M102.1,967.2c65.5,63.3,165.9,68.2,243.7-7.2c71.1-68.9,117.7-169,60.3-246.7 c-6.4-8.7-16.4-10.2-25.9-18.9c-8.5-9.8-9.7-19.8-18.1-26.5c-75.9-59.8-177.3-15.6-248,53c-77.8,75.4-76.5,175.4-15.3,242.9 L102.1,967.2z"/></defs><clipPath id="SVGID_2_"><use xlink:href="#SVGID_23_" style="overflow:visible"/></clipPath><g class="st16"><defs><rect id="SVGID_25_" width="466.4" height="466.4" x="-423.5" y="249.1"/></defs><clipPath id="SVGID_4_"><use xlink:href="#SVGID_25_" style="overflow:visible"/></clipPath><path style="clip-path:url(#SVGID_4_);fill:#e4d9c8" d="M-80.8,453.3c-5.5,0-13.3-2.2-20.9-12.2c-1.2-1.6-0.9-3.9,0.7-5.2 c1.6-1.2,3.9-0.9,5.2,0.7c4.8,6.3,10.4,9.2,15.5,9.3c5.4-0.2,11-4,15.1-10.4c4.5-6.9,10.8-14.8,19.5-15.2 c6.8-0.1,13.6,4.2,20.9,13.7c3.6,4.7,7.4,7.1,11.5,7.1c0,0,0.1,0,0.1,0c7.8,0,14.6-8.3,14.6-8.4c1.3-1.6,3.6-1.8,5.2-0.6 c1.6,1.3,1.8,3.6,0.6,5.2c-0.4,0.5-9,11.1-20.4,11.1c-0.1,0-0.1,0-0.2,0c-6.5-0.1-12.3-3.4-17.3-10c-5.5-7.2-10.4-10.8-14.5-10.8 c-0.1,0-0.2,0-0.3,0c-4.1,0.1-8.4,3.9-13.6,11.8c-5.6,8.5-13.1,13.4-21,13.7C-80.3,453.3-80.6,453.3-80.8,453.3z"/><path style="clip-path:url(#SVGID_4_);fill:#e4d9c8" d="M-28.7,417.8c-1.5,0-2.8-0.9-3.4-2.3c-0.8-1.9,0.1-4,2-4.8 c7.3-3,11.8-7.3,13-12.5c1.2-5.3-1-11.6-6-17.3c-5.5-6.2-11.5-14.3-9.5-22.8c1.6-6.6,7.7-12,18.7-16.5c5.5-2.2,8.8-5.3,9.9-9.3 c2.1-7.5-4.1-16.3-4.2-16.4c-1.2-1.6-0.8-3.9,0.8-5.2c1.6-1.2,3.9-0.9,5.2,0.8C-2,312,6.2,323.3,3,334.3 c-1.8,6.2-6.5,10.9-14.2,14.1c-8.5,3.5-13.3,7.3-14.3,11.4c-0.9,4,1.6,9.1,7.9,16.2c6.8,7.6,9.5,16.1,7.7,23.9 c-1.2,5.3-5.3,12.7-17.4,17.7C-27.8,417.7-28.3,417.8-28.7,417.8z"/><path style="clip-path:url(#SVGID_4_);fill:#e4d9c8" d="M-52.9,492.3c-5.3,0-12.5-2.1-20-10.2c-1.4-1.5-1.3-3.8,0.2-5.2 c1.5-1.4,3.8-1.3,5.2,0.2c5.4,5.8,11,8.5,16.3,7.7c5.4-0.7,10.5-5,14.1-11.8c3.8-7.3,9.3-15.8,17.9-17c6.9-0.9,14,2.9,22.1,11.6 c4,4.3,8.2,6.3,12.1,6c7.9-0.7,13.8-9.7,13.9-9.7c1.1-1.7,3.4-2.2,5.1-1.1c1.7,1.1,2.2,3.4,1.1,5.1c-0.3,0.5-8,12.1-19.4,13.1 c-6.4,0.5-12.5-2.2-18.2-8.3c-6.3-6.8-11.6-9.9-15.7-9.3c-4.1,0.5-8,4.7-12.4,13.1c-4.7,9-11.7,14.6-19.6,15.7 C-51.1,492.2-52,492.3-52.9,492.3z"/><path style="clip-path:url(#SVGID_4_);fill:#e4d9c8" d="M61.5,470.5c-0.1,0-0.3,0-0.4,0c-0.6-0.1-14.4-1.6-20.4-11.4 c-3.4-5.5-3.7-12.2-0.8-20c3.2-8.6,3.6-14.8,1.2-18.2c-2.3-3.4-7.8-5-17.3-5.1c-10.2-0.1-18.3-3.8-22.9-10.4 c-3.1-4.5-5.9-12.5-1.3-24.8c0.7-1.9,2.8-2.9,4.7-2.2c1.9,0.7,2.9,2.8,2.2,4.7c-2.7,7.4-2.6,13.6,0.5,18 c3.1,4.5,9.2,7.1,16.9,7.2c8.2,0.1,18.3,1.2,23.2,8.3c3.9,5.6,3.7,13.8-0.4,25c-2,5.5-2,10.1,0.1,13.5c4.1,6.6,14.9,7.9,15,8 c2,0.2,3.5,2,3.3,4C65,469.1,63.4,470.5,61.5,470.5z"/><path style="clip-path:url(#SVGID_4_);fill:#e4d9c8" d="M78.2,528.2c-1.5,0-2.9-0.9-3.5-2.4c-2.6-7.4-6.8-12.1-11.9-13.5 c-5.2-1.5-11.6,0.5-17.6,5.3c-6.4,5.2-14.8,10.9-23.2,8.5c-6.6-1.8-11.7-8.2-15.7-19.4c-2-5.6-4.9-9-8.8-10.3 c-7.4-2.5-16.5,3.4-16.6,3.5c-1.7,1.1-4,0.7-5.1-1c-1.1-1.7-0.7-4,1-5.1c0.5-0.3,12.1-8,23-4.3c6.1,2,10.6,7,13.4,14.8 c3.1,8.7,6.7,13.6,10.8,14.8c4,1.1,9.2-1.2,16.6-7.1c7.9-6.4,16.6-8.8,24.2-6.6c5.3,1.5,12.5,5.8,16.9,18.2 c0.7,1.9-0.3,4-2.2,4.7C79,528.1,78.6,528.2,78.2,528.2z"/><path style="clip-path:url(#SVGID_4_);fill:#e4d9c8" d="M84.3,404.9c-0.2,0-0.3,0-0.4,0c-2-0.2-3.5-2.1-3.2-4.1 C81.6,393,80,387,76,383.4c-4-3.6-10.6-4.8-18.1-3.1c-8,1.8-18.1,3.1-24.5-2.7c-5.1-4.6-6.8-12.5-5.4-24.4 c0.7-5.9-0.4-10.3-3.3-13.1c-5.6-5.6-16.3-4.3-16.4-4.3c-2,0.3-3.9-1.2-4.1-3.2c-0.3-2,1.2-3.9,3.2-4.1 c0.6-0.1,14.3-1.7,22.5,6.3c4.6,4.5,6.4,11,5.4,19.3c-1.1,9.1-0.1,15.2,3,18c3,2.7,8.7,3,18,1c10-2.2,18.7-0.5,24.7,4.9 c4.1,3.7,8.6,10.8,7,23.8C87.8,403.6,86.2,404.9,84.3,404.9z"/><path style="clip-path:url(#SVGID_4_);fill:#e4d9c8" d="M37.1,285.2c-0.2,0-0.5,0-0.7,0c-2,0-3.7-1.7-3.6-3.7 c0-2,1.4-3.9,3.7-3.6c7.8-0.1,13.7-2.1,16.9-6.4c3.2-4.4,3.7-11.1,1.2-18.3c-2.6-7.8-5-17.7,0.2-24.7c4-5.5,11.8-8.1,23.7-7.9 c5.7-0.1,10.2-1.5,12.7-4.6c4.9-6.1,2.6-16.6,2.6-16.8c-0.5-2,0.8-4,2.7-4.4c2-0.5,4,0.8,4.4,2.7c0.1,0.6,3.2,14.1-4,23 c-4,5-10.1,7.4-18.6,7.4c-9.3-0.1-15.1,1.5-17.6,4.9c-2.4,3.3-2.1,9,0.9,18c3.3,9.7,2.4,18.6-2.3,25 C56.2,280,49.7,285.2,37.1,285.2z"/><path style="clip-path:url(#SVGID_4_);fill:#e4d9c8" d="M-21.8,327.5c-1.6,0-3-1-3.5-2.5c-0.2-0.6-4.4-13.8,2-23.3 c3.6-5.3,9.6-8.3,17.9-8.9c9.2-0.6,15-2.8,17.1-6.4c2.1-3.5,1.4-9.2-2.4-17.9c-4-9.4-4-18.3,0.2-25.1c2.9-4.7,9-10.5,22.1-11.4 c2-0.2,3.8,1.4,3.9,3.4c0.1,2-1.4,3.8-3.4,3.9c-7.8,0.5-13.5,3.2-16.3,7.8c-2.8,4.6-2.7,11.3,0.3,18.3c3.3,7.6,6.4,17.2,1.9,24.6 c-3.5,5.8-11,9.1-22.9,9.9c-5.9,0.4-10,2.3-12.3,5.7c-4.4,6.5-1.2,16.8-1.1,16.9c0.6,1.9-0.4,4-2.4,4.6 C-21,327.4-21.4,327.5-21.8,327.5z"/></g></g></g><g><path d="M222.5,49.2c1.4-14.1,13.3-32.6,27.5-32.6h0c14.2,0,26.1,18.5,27.5,32.6H222.5z" class="st67"/><path d="M296.2,79.5C293.8,67.8,294.6,51,250,51c-44.7,0-44,16.9-46.3,28.7c-10.4,45.1-51.9,69.5-88.3,98.1 c-41,32.1-66.7,78.6-66.7,130.3c0,96.8,90.2,175.3,201.4,175.3s201.4-78.5,201.4-175.3c0-51.7-22.2-99.6-66.7-130.3 C351.4,154.8,302.5,123.4,296.2,79.5z" class="st68"/><path d="M290.1,50.8L289,40.3C287,20.2,270.2,5,250,5c-20.2,0-37,15.2-39,35.3l-1,11.3l24.1-9 c0.8-8.3,7.7-14.5,16-14.5c8.3,0,15.2,6.2,16,14.5L290.1,50.8z" class="st69"/><path d="M250,495c-117.4,0-212.9-83.8-212.9-186.9c0-53.2,25.9-104,71.2-139.4c5.6-4.4,11.4-8.7,17.1-13 c30.5-22.9,59.2-44.4,67.1-78.6l0.3-2c2.9-17.3,10-35.7,57.2-35.7c46.8,0,54,18.2,57.1,35.2l0.6,3.3c5.2,36.6,47.4,65.5,78.2,86.7 l5.3,3.7c45.6,31.5,71.7,82.4,71.7,139.8C462.9,411.2,367.4,495,250,495z M250,62.6c-31.6,0-32.9,7.6-34.4,16.4l-0.5,3 c-9.9,42.8-43.4,67.9-75.9,92.3c-5.6,4.2-11.2,8.4-16.7,12.7c-39.6,31-62.3,75.2-62.3,121.2c0,90.3,85.1,163.7,189.8,163.7 c104.7,0,189.8-73.4,189.8-163.7c0-50.4-21.9-93.3-61.7-120.8l-5.3-3.6c-34.3-23.5-81.1-55.8-88-102.2c-0.2-0.9-0.4-1.9-0.5-2.8 C282.7,70,281.4,62.6,250,62.6z" class="st70"/><path d="M105,236.1c-0.8,0-1.6-0.2-2.3-0.7c-1.7-1.3-2.1-3.7-0.8-5.4c8.4-11.4,18.5-21.8,30.1-30.9 c5.4-4.2,10.9-8.4,16.4-12.5c12.7-9.5,25.5-19.1,37.3-30.1c1.6-1.4,4-1.4,5.4,0.2c1.4,1.6,1.3,4-0.2,5.4 c-12.1,11.2-25.1,20.9-37.6,30.3c-5.8,4.3-11.3,8.4-16.6,12.6c-11.1,8.7-20.7,18.6-28.6,29.4C107.4,235.6,106.2,236.1,105,236.1z" class="st14"/><path d="M250,441.1c-2.1,0-3.9-1.7-3.9-3.9V335.2c0-2.1,1.7-3.9,3.9-3.9s3.9,1.7,3.9,3.9v102.1 C253.9,439.4,252.1,441.1,250,441.1z" class="st70"/><path d="M273.1,458c0,0,100.2-26,122.1-151.8" class="st68"/><path d="M273.1,461.8c-1.7,0-3.3-1.2-3.7-2.9c-0.5-2.1,0.7-4.2,2.8-4.7c1-0.3,98-27,119.3-148.8 c0.4-2.1,2.4-3.6,4.5-3.1c2.1,0.4,3.5,2.4,3.1,4.5c-11.6,66.2-44.8,104.8-70.7,125.5c-28.1,22.5-53.2,29.2-54.3,29.4 C273.7,461.8,273.4,461.8,273.1,461.8z" class="st70"/><path d="M266,443.2c0,0,51.9-42,53.9-109.9" class="st68"/><path d="M266,447c-1.1,0-2.2-0.5-3-1.4c-1.3-1.7-1.1-4.1,0.6-5.4c0.5-0.4,50.6-41.7,52.5-107c0.1-2.1,2-3.7,4-3.7 c2.1,0.1,3.8,1.8,3.7,4c-2,68.9-53.2,111-55.4,112.8C267.7,446.7,266.8,447,266,447z" class="st70"/><path d="M275.4,386.1c0,0,4.5-17.4,5.6-34.2" class="st68"/><path d="M275.4,390c-0.3,0-0.6,0-1-0.1c-2.1-0.5-3.3-2.6-2.8-4.7c0-0.2,4.5-17.3,5.5-33.5c0.1-2.1,1.8-3.9,4.1-3.6 c2.1,0.1,3.7,2,3.6,4.1c-1,16.9-5.5,34.2-5.7,35C278.7,388.8,277.1,390,275.4,390z" class="st70"/><path d="M188.9,254.2c0,0-0.1,0-0.1,0c-2.1-0.1-3.8-1.8-3.7-4c0.6-21.6,6.3-42.9,16.8-63.2c1-1.9,3.3-2.6,5.2-1.7 c1.9,1,2.6,3.3,1.7,5.2c-10,19.3-15.3,39.4-15.9,59.9C192.7,252.5,190.9,254.2,188.9,254.2z" class="st14"/><path d="M417.6,323.6c0,0-2.7,14.6-10.3,31.9" class="st68"/><path d="M407.3,359.4c-0.5,0-1-0.1-1.5-0.3c-2-0.9-2.8-3.1-2-5.1c7.3-16.6,10-30.9,10-31c0.4-2.1,2.4-3.5,4.5-3.1 c2.1,0.4,3.5,2.4,3.1,4.5c-0.1,0.6-2.9,15.2-10.5,32.7C410.2,358.5,408.8,359.4,407.3,359.4z" class="st70"/><path d="M227.3,458c0,0-100.2-26-122.1-151.8" class="st68"/><path d="M227.3,461.8c-0.3,0-0.6,0-1-0.1c-1.1-0.3-26.2-7-54.3-29.4c-25.9-20.7-59.1-59.2-70.7-125.5 c-0.4-2.1,1-4.1,3.1-4.5c2-0.4,4.1,1,4.5,3.1c21.3,122,118.3,148.5,119.3,148.7c2.1,0.5,3.3,2.6,2.8,4.7 C230.6,460.7,229,461.8,227.3,461.8z" class="st70"/><path d="M234.3,443.2c0,0-51.9-42-53.9-109.9" class="st68"/><path d="M234.3,447c-0.9,0-1.7-0.3-2.4-0.9c-2.2-1.8-53.3-43.9-55.4-112.8c-0.1-2.1,1.6-3.9,3.7-4c2,0,3.9,1.6,4,3.7 c1.9,65.4,52,106.6,52.5,107c1.7,1.3,1.9,3.8,0.6,5.4C236.6,446.5,235.5,447,234.3,447z" class="st70"/><path d="M177.8,407.5c0,0-12.8-17.8-18.8-42.9" class="st68"/><path d="M177.8,411.4c-1.2,0-2.4-0.6-3.1-1.6c-0.5-0.8-13.3-18.7-19.4-44.3c-0.5-2.1,0.8-4.2,2.9-4.6 c2-0.5,4.1,0.8,4.6,2.9c5.7,24,18,41.4,18.1,41.6c1.2,1.7,0.8,4.1-0.9,5.4C179.3,411.1,178.5,411.4,177.8,411.4z" class="st70"/><circle cx="216.8" cy="169.8" r="3.9" class="st14"/></g></svg>