<svg xmlns="http://www.w3.org/2000/svg" xmlns:xlink="http://www.w3.org/1999/xlink" id="Layer_1" x="0" y="0" version="1.1" viewBox="0 0 64 64" xml:space="preserve" style="enable-background:new 0 0 64 64"><style type="text/css">.st0{display:none}.st1{fill:#d1a982}.st1,.st2{display:inline}.st50{fill:#6d4e2b}.st51{fill:#cda347}.st52{fill:#7f500a}</style><g class="st0"><rect width="919.6" height="2155.1" x="-444.2" y="-789.8" class="st1"/><path d="M475-789.3v2154.1h-918.6V-789.3H475 M476-790.3h-920.6v2156.1H476V-790.3L476-790.3z" class="st2"/></g><path d="M47.5,16.7c7.5,0,13.6,6.9,13.6,15.3c0,6.7-3.8,12.3-9.1,14.4c-4.5,2.3-11.7,3.7-19.8,3.7	c-7.3,0-13.9-1.2-18.4-3.1c-6.4-2.4-11-8.7-11-16.1c0-9.5,7.5-17.1,16.7-17.1c0,0,2.8-0.1,6.6,1.1C32,16.6,40.1,16.7,47.5,16.7z" class="st51"/><path d="M47.5,15.2c-6.3,0-15,0-20.9-1.7c-4-1.2-7-1.1-7.1-1.1c-10,0-18.2,8.4-18.2,18.6c0,7.8,4.8,14.9,11.9,17.5	c4.8,2,11.7,3.2,18.9,3.2c8.1,0,15.5-1.4,20.4-3.9c6-2.4,10-8.7,10-15.8C62.6,22.7,55.8,15.2,47.5,15.2z M51.4,45l-0.1,0.1	c-4.4,2.2-11.6,3.6-19.1,3.6c-4.2,0-8.4-0.4-12-1.2c3.2-0.2,6.2-1.4,8.8-3.4c0.2-0.2,0.3-0.5,0.1-0.7c-0.2-0.2-0.5-0.3-0.7-0.1	c-2.7,2.1-5.9,3.2-9.3,3.2c-1.5,0-3-0.2-4.4-0.7c-0.1-0.1-0.3-0.1-0.4-0.2c-6-2.2-10-8.1-10-14.7c0-8.6,6.8-15.6,15.2-15.6	c0,0,0,0,0.1,0c0.4,0,2.8,0,6.1,1c5.8,1.7,13.3,1.9,21.7,1.9c6.7,0,12.1,6.2,12.1,13.8C59.6,37.9,56.3,43.1,51.4,45z" class="st52"/><circle cx="25.8" cy="37.6" r=".8" class="st50"/><circle cx="25.8" cy="31.6" r=".8" class="st50"/><circle cx="17.8" cy="22.6" r=".8" class="st50"/><circle cx="31.8" cy="34.6" r=".8" class="st50"/><ellipse cx="34.6" cy="23.7" class="st50" rx=".8" ry=".8" transform="matrix(0.1007 -0.9949 0.9949 0.1007 7.5914 55.7024)"/><ellipse cx="42.1" cy="22.6" class="st50" rx=".8" ry=".8" transform="matrix(0.1007 -0.9949 0.9949 0.1007 15.3567 62.2002)"/><circle cx="48.2" cy="39.7" r=".8" class="st50"/><circle cx="45.8" cy="32.6" r=".8" class="st50"/><circle cx="53.8" cy="34.6" r=".8" class="st50"/><circle cx="9.3" cy="29.4" r=".8" class="st50"/><circle cx="12.3" cy="36.9" r=".8" class="st50"/></svg>