<svg xmlns="http://www.w3.org/2000/svg" xmlns:xlink="http://www.w3.org/1999/xlink" x="0" y="0" version="1.1" viewBox="0 0 200 200" xml:space="preserve" style="enable-background:new 0 0 200 200"><style type="text/css">.st0{fill:#7c9800}.st27{fill:#fff}.st153{fill:#f9a361}.st155{fill:#0c4c0c}.st156{fill:#f04d02}.st157{fill:#992216}</style><g id="Layer_1"><path d="M146.6,38.8c4.5-6.4,8-13.6,10.2-21.5c0,0-14,8.4-33.6,14.6C131.6,32.4,139.4,34.8,146.6,38.8z" class="st0"/><polygon points="106.6 33.7 93.5 5.8 86.4 32.8" class="st0"/><path d="M48.3,48.9c5.4-5.4,12.2-9.6,19.5-12.4C47.4,33.6,33,27.6,33,27.6C35.9,35.4,41.3,42.8,48.3,48.9z" class="st0"/><path d="M42.8,50.3c-6.3-6.1-11.3-13.2-14.2-21c-0.5-1.5-0.4-3.1,0.5-4.4c1.3-1.9,3.7-2.6,5.8-1.7 c0.2,0.1,17.1,7.1,39.7,9.3c-6.4,1.2-12.7,3.5-18.4,6.8c-3.8-0.8-7.2-1.6-10.3-2.5c-1-0.3-1.8,0.9-1.1,1.7c1.5,1.8,3.1,3.6,4.8,5.2 L42.8,50.3z" class="st155"/><path d="M135,32.8c3.7-1.4,7-2.8,10-4.2c1-0.4,2,0.6,1.4,1.6c-1,1.7-2,3.3-3.1,4.9c3,1.1,5.9,2.5,8.7,4.1 c4.1-6.2,7.3-13.2,9.4-20.7c0.5-1.9-0.2-3.9-1.7-5.1c-1.6-1.2-3.7-1.3-5.3-0.3c-0.2,0.1-19.4,11.5-43.9,17.3L97.8,3.7 C97,1.9,95.1,0.8,93.1,1c-2,0.2-3.7,1.6-4.2,3.5l-7.2,27.1l9.7,0.5l2.3-8.7c0.3-1.3,2.1-1.4,2.7-0.2l5.4,11.5L135,32.8z" class="st155"/><path d="M10,114.8c0-27.9,10-47.9,34.4-61.6c9.4-16.6,24.3-21,43.1-18.6c3.5,0.5,7,1,10.3,1.7 c0.7-0.1,1.4-0.3,2.1-0.4c63.4-10.6,90,23.9,90,78.8c0,66.3-35.2,83.1-90,78.8c-4.4-0.3-8.7-0.7-12.9-1.2c-14.7,4-26,1.2-34.4-6.9 C27.1,176.6,10,157.8,10,114.8z" class="st156"/><path d="M63.6,37.7c-7.2,25.2-13.8,48.3-10,74.7c0.6,4,6.7,2.3,6.1-1.7c-3.6-25,3.2-47.5,10-71.3 C70.8,35.4,64.7,33.8,63.6,37.7z" class="st153"/><path d="M142.7,35.1c-3.9-1.3-5.6,4.8-1.7,6.1c27.2,9.1,26.1,46.8,25.5,69.7c-0.1,4.1,6.2,4.1,6.4,0 C173.5,84.7,173.1,45.2,142.7,35.1z" class="st153"/><path d="M151.5,155.2c-2.6,6.1-5.8,11.9-9.6,17.3c-3.9,5.5-9.3,13-15.8,15.3c-3.8,1.4-2.2,7.5,1.7,6.1 c13.8-4.9,23.8-22.8,29.3-35.5C158.6,154.7,153.1,151.5,151.5,155.2z" class="st153"/><path d="M156.7,85.1c-4.1,0-4.1,6.4,0,6.4C160.8,91.5,160.8,85.1,156.7,85.1z" class="st153"/><path d="M137.2,61.7c-1.2-3.9-7.3-2.2-6.1,1.7c4.6,15.6,7.4,31.4,8.2,47.6c0.2,4.1,6.6,4.1,6.4,0 C144.8,94.2,142,77.8,137.2,61.7z" class="st153"/><path d="M115.8,62.5c-0.4-4-6.8-4.1-6.4,0c3,28.1,2.5,56.1-1.6,84.1c-0.6,4,5.5,5.7,6.1,1.7 C118.1,119.7,118.8,91.3,115.8,62.5z" class="st153"/><path d="M24.9,148.7c-5.3-19.5-5.6-38.9-0.7-58.5c1-4-5.1-5.7-6.1-1.7c-5.1,20.7-4.9,41.3,0.7,61.9 C19.8,154.4,25.9,152.7,24.9,148.7z" class="st153"/><path d="M76.6,123.8c-6.5-13.2-3.9-31-3.1-45.2c0.2-4.1-6.1-4.1-6.4,0c-1,15.8-3.3,33.8,3.9,48.4 C72.9,130.6,78.4,127.4,76.6,123.8z" class="st153"/><path d="M93.4,35c-1.2-3.9-7.3-2.2-6.1,1.7c4.7,15.9,6.9,32,6.6,48.6c-0.1,4.1,6.3,4.1,6.4,0 C100.5,68.1,98.2,51.4,93.4,35z" class="st153"/><path d="M77.5,188.7c-11.4-5.7-17-22.8-18.2-34.5c-0.4-4-6.7-4.1-6.4,0c1.3,13.9,7.8,33.2,21.3,40 C77.9,196,81.1,190.5,77.5,188.7z" class="st153"/><path d="M53.2,134.6c-4.1,0-4.1,6.4,0,6.4C57.3,140.9,57.3,134.6,53.2,134.6z" class="st153"/><path d="M126.3,49.6c-4.1,0-4.1,6.4,0,6.4C130.4,56,130.4,49.6,126.3,49.6z" class="st153"/><path d="M74.2,172.5c-2.5-3.1-3.9-6.8-4.2-10.7c-0.3-4.1-6.6-4.1-6.4,0c0.4,5.7,2.4,10.7,6,15.2 C72.3,180.2,76.8,175.7,74.2,172.5z" class="st153"/><path d="M25.6,99.4c-1.4,5.2-2,10.5-1.9,15.9c0.1,4.1,6.4,4.1,6.4,0c-0.1-4.8,0.5-9.5,1.7-14.2 C32.8,97.1,26.7,95.4,25.6,99.4z" class="st153"/><path d="M27.4,123.9c-4.1,0-4.1,6.4,0,6.4C31.5,130.3,31.5,123.9,27.4,123.9z" class="st153"/><path d="M186,95.1c-0.3-4-6.7-4.1-6.4,0c1.1,13.8,0.7,27.5-1.4,41.1c-0.6,4,5.5,5.7,6.1,1.7 C186.5,123.7,187.1,109.5,186,95.1z" class="st153"/><path d="M179.1,144.3c-4.1,0-4.1,6.4,0,6.4C183.2,150.7,183.2,144.3,179.1,144.3z" class="st153"/><path d="M88.4,60c-1.4-6.3-2.5-12.7-3.2-19.2c-0.4-4-6.8-4.1-6.4,0c0.8,7,1.9,14,3.4,20.9C83.2,65.7,89.3,64,88.4,60 z" class="st153"/><path d="M157.8,58.9c-0.4,0-0.7-0.1-1-0.4c-6.5-5.5-14.8-8.8-25.4-10c-0.9-0.1-1.5-0.9-1.4-1.8 c0.1-0.9,0.9-1.5,1.8-1.4c11.3,1.3,20.1,4.8,27.1,10.7c0.7,0.6,0.8,1.6,0.2,2.2C158.7,58.7,158.3,58.9,157.8,58.9z" class="st27"/><path d="M104.2,160.2c-1,7.8-4.4,14.8-9.7,20.5c-2.8,3,1.7,7.5,4.5,4.5c6.6-7,10.4-15.5,11.6-25 C111.1,156.2,104.7,156.2,104.2,160.2z" class="st153"/><path d="M103.2,30.4c-3.5,0.6-7.1,0.6-10.7,0.1c-1.4-0.2-2.8-0.4-4.4-0.6C68.3,27.3,53.7,32.4,44,45.3 c-2.4,3.1-5.3,5.7-8.5,7.9C14.9,67.1,5.2,86.9,5.2,114.8c0,38,12.9,61.4,40.4,73.1c2.6,1.1,5,2.4,7.3,4.1 c8.4,6.3,18.5,8.3,30.4,6.2c3.1-0.6,6.3-0.7,9.4-0.4c2.3,0.2,4.6,0.4,6.9,0.6c5.5,0.4,10.7,0.6,15.6,0.6c25.7,0,44.1-5.8,57.3-18 c15-13.9,22.3-35.5,22.3-66.2c0-32.1-8.5-55.9-25.7-70.1C146.6,25.9,115.4,28.5,103.2,30.4z M14.8,114.8c0-23,7-39.2,22.4-51.1 c1.8-1.4,4.2,0.4,3.5,2.5c-0.8,2.3-1.4,4.8-2.1,7.3c-0.2,0.9,0.3,1.8,1.1,2.1c0.9,0.2,1.8-0.3,2-1.2c6.4-27.2,20.7-37.9,46.2-34.6 c27.5,3.6,50.3,11.6,50.3,73.7c0,42.4-14.6,63.7-50.5,73.8c-10.6,3-19.7,2.2-27-2.3c-9.5-5.9-16.2-18.2-19.7-36.4 c-0.2-0.9-1-1.4-1.9-1.3c-0.9,0.2-1.4,1-1.3,1.9c1.8,9.4,4.5,17.3,7.9,23.7c1.1,2-1.1,4.1-3.1,3C23.4,164.7,14.8,145.4,14.8,114.8z M103.8,189.3c-2.3-0.1-2.9-3.2-0.8-4.2c26.7-12.1,38.3-34.3,38.3-71.7c0-43.5-10.8-61.5-26.7-69.9c-2.2-1.2-1.5-4.5,1-4.6 c19.9-1.1,35.8,3.2,47.3,13c14.8,12.5,22.3,33.7,22.3,62.9c0,27.9-5.7,47.9-19.2,59.2C147.6,189.5,118.5,190.1,103.8,189.3z" class="st157"/><path d="M52.7,71.1c-0.2,0-0.4,0-0.5-0.1c-0.8-0.3-1.2-1.2-0.9-2c6.9-18.7,18.8-21.1,28.3-21.1c0.9,0,1.6,0.7,1.6,1.6 s-0.7,1.6-1.6,1.6c-9.1,0-19.1,2.3-25.3,19C53.9,70.7,53.3,71.1,52.7,71.1z" class="st27"/><circle cx="50.3" cy="77.9" r="1.6" class="st27"/></g></svg>