<svg xmlns="http://www.w3.org/2000/svg" xmlns:xlink="http://www.w3.org/1999/xlink" id="Layer_1" x="0" y="0" version="1.1" viewBox="0 0 400 400" xml:space="preserve" style="enable-background:new 0 0 400 400"><style type="text/css">.st1{fill:#1b4700}.st10{fill:#fff}.st23{fill:#7b000e}.st41{fill:#f40000}.st45{fill:#164e16}.st51{fill:#7db34c}.st63{fill:#fab2b3}</style><g><polygon points="80.8 246.6 125.7 251.9 136 248.7 176.3 273.3 252.2 166.5 336.8 90.5 227.8 135.9 141 215.9 121.7 112 67.8 19 84.8 120" class="st41"/><path d="M187.3,275.8c4.7-9.3,18.1-34.2,39.5-62.6c24.7-32.7,65.5-76.8,119.6-101c7.9-3.6,11.7-12.1,9-20.3 c-2.7-8.2-10.8-12.9-19.3-11.1c-53.7,11.4-125.7,41.2-185.1,117.1c-2.3,3-7.1,1.4-7.2-2.4c-2.8-87.6-38.5-149.7-71.4-188.6 c-5.5-6.5-14.6-7.8-21.6-3c-7,4.8-9.2,13.7-5.2,21.2c26.7,50.2,31.7,107.7,31.2,147c-0.4,32.8-4.6,58.8-6.6,69.5l9.7,3.8l9.5-2.9 c2.3-12.6,6-37.9,6.5-69.6c0.4-32-2.6-75.3-16.9-118.1c-0.8-2.3,2.4-3.7,3.6-1.7c26.4,42.6,47.8,102.7,41.3,181.9 c-0.2,2.1-0.9,4.2-1.9,6l0,0l18.4,6.6l1.7-3c47.2-77.4,107.6-115.6,159.5-134.2c2.2-0.8,3.8,2.3,1.8,3.6 c-40.4,26.2-71.5,60.8-92,88c-21,27.9-34.4,52.2-40.1,63.3L187.3,275.8z" class="st23"/><path d="M107.5,187C107.5,187,107.5,187,107.5,187c-1.8,0-3.2-1.4-3.2-3.2c0-10.1-0.3-20.2-1-30.1 c-0.1-1.7,1.2-3.3,2.9-3.4c1.7-0.1,3.3,1.2,3.4,2.9c0.7,10,1,20.3,1,30.5C110.7,185.5,109.3,187,107.5,187z" class="st10"/><path d="M210.9,180.3c-0.8,0-1.7-0.3-2.3-1c-1.2-1.3-1.2-3.3,0.1-4.5c5.1-4.9,10.4-9.6,15.7-14 c1.3-1.1,3.3-0.9,4.5,0.4c1.1,1.3,0.9,3.3-0.4,4.5c-5.2,4.4-10.4,9-15.4,13.7C212.5,180,211.7,180.3,210.9,180.3z" class="st63"/><path d="M168.7,230.2c-0.6,0-1.2-0.2-1.8-0.6c-1.4-1-1.8-3-0.8-4.4c9.3-13.5,19.4-26.2,30.1-37.7 c1.2-1.3,3.2-1.4,4.5-0.2c1.3,1.2,1.4,3.2,0.2,4.5c-10.5,11.3-20.4,23.7-29.5,37C170.7,229.7,169.7,230.2,168.7,230.2z" class="st10"/><ellipse cx="104.9" cy="139.6" class="st10" rx="3.2" ry="3.2" transform="matrix(0.4405 -0.8978 0.8978 0.4405 -66.6013 172.2682)"/><path d="M174.2,292.1c-0.6,0.5-1.3,0.9-2,1.3C172.9,293,173.5,292.6,174.2,292.1z" class="st1"/><polygon points="76.9 245.4 128.3 251.8 141.2 249.6 176.3 273.3 150.9 296.4 95.2 389.9 73.2 377.8 82.5 296.8" class="st51"/><path d="M90.8,399c9.1,0,17.2-5.1,21.3-13.2l0,0l0,0c0.5-1.1,17.6-35,44.6-82c1.9-3.3,4.6-5.8,7.5-6.7 c3.7-1.2,7.1-2.9,10.2-5.1c4.3-3.1,7.9-7,10.6-11.6l0.4-0.7c0-0.1,1-1.9,2-3.9c0,0-2.5-2.4-7.8-5.9c-4-2.7-8-4.5-9.6-5.3 c-0.5-0.2-1.1-0.4-1.6-0.5c-2-0.6-3.9-1.8-5.2-3.5c-1.3-1.7-2.9-3.2-4.8-4.4c-1.9-1.2-4-2-6.3-2.5c-2.2-0.4-4.2-1.7-5.6-3.5 c-2.9-3.7-7-5.5-11.9-7.1c-4.9-1.6-12.6-2.2-12.6-2.2c-0.3,0.4-0.5,0.9-0.8,1.3l0,0c-0.8,1.3-1.4,2.6-2,4c-0.5,1.2-1.8,2-3.1,1.8 c-1.1-0.2-2.2-0.6-3.2-1.1c-1.9-1.1-4-1.8-6.2-2.1c-2.2-0.3-4.4-0.3-6.5,0.2c-2.4,0.5-4.8,0.1-6.9-1.1c0,0-5.7-2.4-13.3-2.7 c-3.4-0.1-9.7,0.3-9.7,0.3c-0.7,2.9-1.3,6.5-1.3,6.5s-2,9.7,3,20c0,0,0.4,1.1,1.4,2.8c2.5,4.3,3.5,9.9,3,15.9 c-3.9,44.5-8.1,79-9.2,85.4C65.4,383.7,73.3,399,90.8,399z M116.8,264.3c-7.1,7.5-11.3,17.4-12.2,27.7c-1,10.9-2,21.2-2.9,30.6 c-0.7,6.7-2.7,13.1-5.8,19c-0.8,1.5-1.6,3-2.4,4.5c-1,2-4,1-3.8-1.2c1.7-15.2,3.8-35.3,5.8-57.7c0.8-9-0.9-18.2-5.5-26 c-1.8-3-2.3-5.9-2.3-8.1c0-2.3,2.3-3.9,4.4-3l0.1,0c3,1.2,6.3,1.5,9.4,0.8c1.4-0.3,2.8-0.3,4.3-0.1c1.4,0.2,2.8,0.7,4.1,1.4 c2.1,1.2,4.5,1.9,6.9,2c0.4,0,0.8,0,1.1,0c2.1,0,3.6,2.2,2.8,4.2C119.9,260.1,118.7,262.2,116.8,264.3z M88.7,379.5 c-2.6-1.2-3.2-4.5-2.2-6.4c0.1-0.3,7.8-15.7,21.2-40.2c0,0,0,0,0,0c6.7-12.3,14.8-26.8,24-42.9c4.2-7.3,5.4-15.8,3.7-24.1 c-1-4.8-0.1-8.8,0.9-11.5c0.8-2.2,3.8-2.6,5.2-0.7c0,0.1,0.1,0.1,0.1,0.2c2.2,3,5.4,5.1,9.1,5.7c1.5,0.3,3,0.8,4.3,1.7 c1.1,0.7,2.2,1.6,3,2.7c0,0,2.1,3.6,6.6,5.5c2,0.8,2.6,3.4,1.1,4.9c-1.6,1.7-4.1,3.5-7.5,4.6c-7.5,2.4-13.7,7.8-17.6,14.6 c-28,48.5-45.4,83.3-45.6,83.7C93.8,379.5,91.2,380.7,88.7,379.5z" class="st45"/></g></svg>